<svg width="2198" height="1031" viewBox="0 0 2198 1031" fill="none" xmlns="http://www.w3.org/2000/svg">
<rect x="0.5" y="2.5" width="156" height="146" rx="14.5" stroke="white"/>
<rect x="157.5" y="0.5" width="156" height="146" rx="14.5" stroke="white"/>
<rect x="0.5" y="590.5" width="156" height="146" rx="14.5" stroke="white"/>
<rect x="157.5" y="588.5" width="156" height="146" rx="14.5" fill="white" fill-opacity="0.02" stroke="white"/>
<rect x="0.5" y="296.5" width="156" height="146" rx="14.5" stroke="white"/>
<rect x="157.5" y="294.5" width="156" height="146" rx="14.5" stroke="white"/>
<rect x="0.5" y="884.5" width="156" height="146" rx="14.5" stroke="white"/>
<rect x="157.5" y="882.5" width="156" height="146" rx="14.5" stroke="white"/>
<rect x="0.5" y="149.5" width="156" height="146" rx="14.5" stroke="white"/>
<rect x="157.5" y="147.5" width="156" height="146" rx="14.5" stroke="white"/>
<rect x="0.5" y="737.5" width="156" height="146" rx="14.5" stroke="white"/>
<rect x="157.5" y="735.5" width="156" height="146" rx="14.5" stroke="white"/>
<rect x="0.5" y="443.5" width="156" height="146" rx="14.5" stroke="white"/>
<rect x="157.5" y="441.5" width="156" height="146" rx="14.5" stroke="white"/>
<rect x="628.5" y="2.5" width="156" height="146" rx="14.5" stroke="white"/>
<rect x="785.5" y="0.5" width="156" height="146" rx="14.5" stroke="white"/>
<rect x="628.5" y="590.5" width="156" height="146" rx="14.5" stroke="white"/>
<rect x="785.5" y="588.5" width="156" height="146" rx="14.5" stroke="white"/>
<rect x="628.5" y="296.5" width="156" height="146" rx="14.5" stroke="white"/>
<rect x="785.5" y="294.5" width="156" height="146" rx="14.5" stroke="white"/>
<rect x="628.5" y="884.5" width="156" height="146" rx="14.5" stroke="white"/>
<rect x="785.5" y="882.5" width="156" height="146" rx="14.5" stroke="white"/>
<rect x="628.5" y="149.5" width="156" height="146" rx="14.5" stroke="white"/>
<rect x="785.5" y="147.5" width="156" height="146" rx="14.5" stroke="white"/>
<rect x="628.5" y="737.5" width="156" height="146" rx="14.5" stroke="white"/>
<rect x="785.5" y="735.5" width="156" height="146" rx="14.5" stroke="white"/>
<rect x="628.5" y="443.5" width="156" height="146" rx="14.5" stroke="white"/>
<rect x="785.5" y="441.5" width="156" height="146" rx="14.5" stroke="white"/>
<rect x="1256.5" y="2.5" width="156" height="146" rx="14.5" stroke="white"/>
<rect x="1413.5" y="0.5" width="156" height="146" rx="14.5" stroke="white"/>
<rect x="1256.5" y="590.5" width="156" height="146" rx="14.5" stroke="white"/>
<rect x="1413.5" y="588.5" width="156" height="146" rx="14.5" stroke="white"/>
<rect x="1256.5" y="296.5" width="156" height="146" rx="14.5" stroke="white"/>
<rect x="1413.5" y="294.5" width="156" height="146" rx="14.5" stroke="white"/>
<rect x="1256.5" y="884.5" width="156" height="146" rx="14.5" stroke="white"/>
<rect x="1413.5" y="882.5" width="156" height="146" rx="14.5" stroke="white"/>
<rect x="1256.5" y="149.5" width="156" height="146" rx="14.5" stroke="white"/>
<rect x="1413.5" y="147.5" width="156" height="146" rx="14.5" stroke="white"/>
<rect x="1256.5" y="737.5" width="156" height="146" rx="14.5" stroke="white"/>
<rect x="1413.5" y="735.5" width="156" height="146" rx="14.5" stroke="white"/>
<rect x="1256.5" y="443.5" width="156" height="146" rx="14.5" stroke="white"/>
<rect x="1413.5" y="441.5" width="156" height="146" rx="14.5" stroke="white"/>
<rect x="314.5" y="2.5" width="156" height="146" rx="14.5" stroke="white"/>
<rect x="471.5" y="0.5" width="156" height="146" rx="14.5" stroke="white"/>
<rect x="314.5" y="590.5" width="156" height="146" rx="14.5" stroke="white"/>
<rect x="471.5" y="588.5" width="156" height="146" rx="14.5" stroke="white"/>
<rect x="314.5" y="296.5" width="156" height="146" rx="14.5" stroke="white"/>
<rect x="471.5" y="294.5" width="156" height="146" rx="14.5" stroke="white"/>
<rect x="314.5" y="884.5" width="156" height="146" rx="14.5" stroke="white"/>
<rect x="471.5" y="882.5" width="156" height="146" rx="14.5" stroke="white"/>
<rect x="314.5" y="149.5" width="156" height="146" rx="14.5" fill="white" fill-opacity="0.02" stroke="white"/>
<rect x="471.5" y="147.5" width="156" height="146" rx="14.5" stroke="white"/>
<rect x="314.5" y="737.5" width="156" height="146" rx="14.5" stroke="white"/>
<rect x="471.5" y="735.5" width="156" height="146" rx="14.5" stroke="white"/>
<rect x="314.5" y="443.5" width="156" height="146" rx="14.5" stroke="white"/>
<rect x="471.5" y="441.5" width="156" height="146" rx="14.5" stroke="white"/>
<rect x="942.5" y="2.5" width="156" height="146" rx="14.5" stroke="white"/>
<rect x="1099.5" y="0.5" width="156" height="146" rx="14.5" stroke="white"/>
<rect x="942.5" y="590.5" width="156" height="146" rx="14.5" stroke="white"/>
<rect x="1099.5" y="588.5" width="156" height="146" rx="14.5" stroke="white"/>
<rect x="942.5" y="296.5" width="156" height="146" rx="14.5" stroke="white"/>
<rect x="1099.5" y="294.5" width="156" height="146" rx="14.5" stroke="white"/>
<rect x="942.5" y="884.5" width="156" height="146" rx="14.5" stroke="white"/>
<rect x="1099.5" y="882.5" width="156" height="146" rx="14.5" stroke="white"/>
<rect x="942.5" y="149.5" width="156" height="146" rx="14.5" stroke="white"/>
<rect x="1099.5" y="147.5" width="156" height="146" rx="14.5" stroke="white"/>
<rect x="942.5" y="737.5" width="156" height="146" rx="14.5" stroke="white"/>
<rect x="1099.5" y="735.5" width="156" height="146" rx="14.5" stroke="white"/>
<rect x="942.5" y="443.5" width="156" height="146" rx="14.5" stroke="white"/>
<rect x="1099.5" y="441.5" width="156" height="146" rx="14.5" fill="white" fill-opacity="0.02" stroke="white"/>
<rect x="1570.5" y="2.5" width="156" height="146" rx="14.5" stroke="white"/>
<rect x="1727.5" y="0.5" width="156" height="146" rx="14.5" stroke="white"/>
<rect x="1570.5" y="590.5" width="156" height="146" rx="14.5" stroke="white"/>
<rect x="1727.5" y="588.5" width="156" height="146" rx="14.5" stroke="white"/>
<rect x="1570.5" y="296.5" width="156" height="146" rx="14.5" stroke="white"/>
<rect x="1727.5" y="294.5" width="156" height="146" rx="14.5" stroke="white"/>
<rect x="1570.5" y="884.5" width="156" height="146" rx="14.5" stroke="white"/>
<rect x="1727.5" y="882.5" width="156" height="146" rx="14.5" stroke="white"/>
<rect x="1570.5" y="149.5" width="156" height="146" rx="14.5" fill="white" fill-opacity="0.02" stroke="white"/>
<rect x="1727.5" y="147.5" width="156" height="146" rx="14.5" stroke="white"/>
<rect x="1570.5" y="737.5" width="156" height="146" rx="14.5" stroke="white"/>
<rect x="1727.5" y="735.5" width="156" height="146" rx="14.5" stroke="white"/>
<rect x="1570.5" y="443.5" width="156" height="146" rx="14.5" stroke="white"/>
<rect x="1727.5" y="441.5" width="156" height="146" rx="14.5" stroke="white"/>
<rect x="1884.5" y="2.5" width="156" height="146" rx="14.5" stroke="white"/>
<rect x="2041.5" y="0.5" width="156" height="146" rx="14.5" stroke="white"/>
<rect x="1884.5" y="590.5" width="156" height="146" rx="14.5" stroke="white"/>
<rect x="2041.5" y="588.5" width="156" height="146" rx="14.5" stroke="white"/>
<rect x="1884.5" y="296.5" width="156" height="146" rx="14.5" stroke="white"/>
<rect x="2041.5" y="294.5" width="156" height="146" rx="14.5" stroke="white"/>
<rect x="1884.5" y="884.5" width="156" height="146" rx="14.5" stroke="white"/>
<rect x="2041.5" y="882.5" width="156" height="146" rx="14.5" stroke="white"/>
<rect x="1884.5" y="149.5" width="156" height="146" rx="14.5" stroke="white"/>
<rect x="2041.5" y="147.5" width="156" height="146" rx="14.5" stroke="white"/>
<rect x="1884.5" y="737.5" width="156" height="146" rx="14.5" stroke="white"/>
<rect x="2041.5" y="735.5" width="156" height="146" rx="14.5" stroke="white"/>
<rect x="1884.5" y="443.5" width="156" height="146" rx="14.5" stroke="white"/>
<rect x="2041.5" y="441.5" width="156" height="146" rx="14.5" stroke="white"/>
</svg>
