<svg viewBox="0 0 1920 436" fill="none" xmlns="http://www.w3.org/2000/svg">
<mask id="mask0_50_466" style="mask-type:alpha" maskUnits="userSpaceOnUse" x="-1" y="0" width="1921" height="436">
<path d="M814.5 339.5H-0.5V247.5H935C1022 252.5 1051.83 215.833 1064 200C1078.67 183.333 1120.8 136.1 1172 80.5C1223.2 24.9 1280 2.5 1304.5 0H1920V435.5H960C940.5 435.5 937 430.5 927 423.5C917 416.5 890.5 387.5 876 368C856.4 342.8 826.833 338.5 814.5 339.5Z" fill="url(#paint0_linear_50_466)"/>
</mask>
<g mask="url(#mask0_50_466)">
<path d="M814.5 339.5H-0.5V247.5H935C1018.5 253 1051.83 215.833 1064 200C1078.67 183.333 1120.8 136.1 1172 80.5C1223.2 24.9 1280 2.5 1304.5 0H1920V435.5H960C940.5 435.5 937 430.5 927 423.5C917 416.5 890.5 387.5 876 368C856.4 342.8 826.833 338.5 814.5 339.5Z" fill="#55F5A3"/>
<g filter="url(#filter0_f_50_466)">
<circle cx="1491" cy="336" r="309" fill="#D9FF43"/>
</g>
<g filter="url(#filter1_f_50_466)">
<circle cx="482" cy="352" r="360" fill="#D9FF43"/>
</g>
<g filter="url(#filter2_f_50_466)">
<circle cx="1829" cy="95" r="91" fill="#287D52"/>
</g>
</g>
<defs>
<filter id="filter0_f_50_466" x="882" y="-273" width="1218" height="1218" filterUnits="userSpaceOnUse" color-interpolation-filters="sRGB">
<feFlood flood-opacity="0" result="BackgroundImageFix"/>
<feBlend mode="normal" in="SourceGraphic" in2="BackgroundImageFix" result="shape"/>
<feGaussianBlur stdDeviation="150" result="effect1_foregroundBlur_50_466"/>
</filter>
<filter id="filter1_f_50_466" x="-178" y="-308" width="1320" height="1320" filterUnits="userSpaceOnUse" color-interpolation-filters="sRGB">
<feFlood flood-opacity="0" result="BackgroundImageFix"/>
<feBlend mode="normal" in="SourceGraphic" in2="BackgroundImageFix" result="shape"/>
<feGaussianBlur stdDeviation="150" result="effect1_foregroundBlur_50_466"/>
</filter>
<filter id="filter2_f_50_466" x="1538" y="-196" width="582" height="582" filterUnits="userSpaceOnUse" color-interpolation-filters="sRGB">
<feFlood flood-opacity="0" result="BackgroundImageFix"/>
<feBlend mode="normal" in="SourceGraphic" in2="BackgroundImageFix" result="shape"/>
<feGaussianBlur stdDeviation="100" result="effect1_foregroundBlur_50_466"/>
</filter>
<linearGradient id="paint0_linear_50_466" x1="17.5" y1="298" x2="1887.5" y2="413.5" gradientUnits="userSpaceOnUse">
<stop stop-color="#73CD93"/>
<stop offset="1" stop-color="#1FAB51"/>
</linearGradient>
</defs>
</svg>
