<svg width="392" height="635" viewBox="0 0 392 635" fill="none" xmlns="http://www.w3.org/2000/svg">
<path fill-rule="evenodd" clip-rule="evenodd" d="M278.19 403.424C263.967 409.29 252.112 419.341 242.552 431.262C233.434 442.833 226.425 455.905 220.957 469.552C215.018 484.385 210.664 500.428 206.28 516.58L206.28 516.58L206.28 516.58L206.28 516.581L206.28 516.581L206.28 516.581L206.28 516.582L206.28 516.582L206.279 516.582L206.279 516.583L206.279 516.583L206.279 516.583L206.279 516.584L206.279 516.584L206.279 516.584L206.279 516.585L206.279 516.585L206.279 516.585L206.279 516.586L206.279 516.586L206.278 516.586C195.566 556.059 184.676 596.185 150.045 620.909C130.182 635.09 105.649 638.706 82.5466 630.919C60.6464 623.538 41.6872 607.502 30.0212 587.634C16.4697 564.558 12.9233 536.678 15.4404 510.383C18.0826 482.795 27.6351 457.202 38.7603 432.053C39.6893 429.953 40.6265 427.85 41.5655 425.744C51.302 403.899 61.2255 381.635 64.1553 357.735C65.8891 343.595 64.6889 329.477 60.8814 315.757C56.9769 301.687 50.873 288.358 44.6254 275.203C44.192 274.29 43.7578 273.377 43.3234 272.464C31.3077 247.201 19.1443 221.627 19.8017 192.98C19.9572 186.202 20.6113 179.452 21.2653 172.701L21.2653 172.701L21.2654 172.701L21.2654 172.701L21.2654 172.7L21.2654 172.7L21.2655 172.7L21.2655 172.7L21.2655 172.7L21.2656 172.699L21.2656 172.699L21.2656 172.699L21.2656 172.699L21.2657 172.698L21.2657 172.698L21.2657 172.698L21.2658 172.698L21.2658 172.697L21.2658 172.697L21.2659 172.697L21.2659 172.697C22.0698 164.4 22.8737 156.104 22.752 147.761C22.5292 132.522 19.1728 115.97 7.91572 104.875C4.12579 101.139 1.52106 97.6164 0.857914 92.163C0.225421 86.9704 1.36008 81.5365 3.78389 76.9209C9.93061 65.2093 23.8159 60.1947 35.6392 56.4442C56.9124 49.6961 78.2443 43.1272 99.5755 36.5585L99.5774 36.5579L99.5782 36.5577L99.5807 36.5569L99.5826 36.5563L99.5846 36.5557L99.5865 36.5551L99.5884 36.5546L99.5904 36.554L99.5923 36.5534L99.5942 36.5528L99.5961 36.5522L99.5981 36.5516L99.6 36.551L99.6019 36.5504L99.6039 36.5498L99.6058 36.5493L99.6077 36.5487L99.6085 36.5484L99.6093 36.5482C110.075 33.3255 120.54 30.1028 130.998 26.8591C136.098 25.2772 141.196 23.6909 146.295 22.1047L146.304 22.1017C156.884 18.8098 167.464 15.518 178.056 12.2661C189.846 8.64617 201.746 5.28281 213.887 3.05472C237.053 -1.19719 262.157 -1.0207 282.404 12.5269C304.495 27.3071 316.217 53.2405 326.875 76.8205L326.877 76.8235L326.881 76.8329L326.891 76.855L326.898 76.8704L326.908 76.8923L326.917 76.9117L326.919 76.918C327.396 77.9731 327.871 79.0235 328.345 80.0679C342.027 110.24 353.934 141.217 363.993 172.782C373.745 203.383 382.223 234.674 387.927 266.301C392.821 293.433 394.341 322.295 382.821 348.037C377.888 359.058 370.709 369.193 361.249 376.784C350.043 385.774 336.263 389.958 322.395 392.803C318.816 393.538 315.21 394.198 311.601 394.858L311.6 394.858L311.598 394.859L311.594 394.859L311.591 394.86L311.588 394.86L311.585 394.861L311.582 394.862L311.579 394.862L311.576 394.863C300.242 396.937 288.875 399.017 278.19 403.424ZM241.968 430.727C241.962 430.734 241.956 430.741 241.951 430.748C222.326 455.652 214.229 485.486 206.121 515.362C199.214 540.81 192.299 566.289 178.245 588.777C164.353 611.008 143.052 630.358 116.154 633.78C92.394 636.803 68.6204 627.073 50.9209 611.564C8.09968 574.046 9.67012 511.165 27.4726 461.571C31.6871 449.829 36.7612 438.436 41.8352 427.044C47.2465 414.894 52.6577 402.745 57.0259 390.172C61.0444 378.603 64.1812 366.658 65.3073 354.435C66.4736 341.789 65.2706 329.181 62.0162 316.916C57.6722 300.543 50.3828 285.317 43.0914 270.087C38.0999 259.661 33.1074 249.232 29.0582 238.433C23.9497 224.806 20.5755 210.628 20.5587 196.018C20.5503 188.16 21.304 180.347 22.0577 172.533L22.0577 172.533L22.0578 172.532C22.7259 165.607 23.394 158.681 23.5314 151.722C23.7986 138.18 21.9559 123.869 14.6804 112.156C13.0968 109.606 11.263 107.188 9.17901 105.024C8.76183 104.59 8.34408 104.171 7.93133 103.756C5.91558 101.731 4.0192 99.8268 2.89161 97.0259C0.588351 91.3088 1.24585 84.5988 3.65736 79.0309C9.43118 65.6985 25.0116 60.5867 37.7736 56.6024C48.1403 53.3659 58.5151 50.1548 68.8897 46.9438C74.0735 45.3394 79.2572 43.7351 84.4399 42.1275C94.6776 38.9519 104.914 35.77 115.15 32.588L115.153 32.5868L115.157 32.5857L115.161 32.5846L115.164 32.5835L115.168 32.5824L115.171 32.5813L115.175 32.5802L115.179 32.5791L115.182 32.578L115.186 32.5769L115.19 32.5757L115.193 32.5746L115.197 32.5735L115.2 32.5724L115.204 32.5713L115.208 32.5702L115.211 32.5691C135.973 26.1151 156.736 19.661 177.514 13.2593C200.758 6.09809 225.498 -0.872888 250.058 1.89769C262.309 3.27915 274.149 7.41239 284.152 14.7046C295.109 22.6915 303.384 33.7251 310.189 45.3235C317.728 58.1754 323.862 71.8829 329.918 85.4785C336.504 100.266 342.666 115.242 348.394 130.383C359.783 160.489 369.463 191.241 377.363 222.446L377.718 223.849C385.027 252.708 392.704 283.022 390.532 312.985C388.684 338.47 378.031 365.181 355.955 379.661C342.41 388.546 326.751 391.402 311.061 394.264C297.777 396.687 284.471 399.114 272.409 405.206C260.43 411.257 250.344 420.294 241.985 430.708C241.98 430.714 241.974 430.721 241.968 430.727ZM274.428 394.36C260.843 399.964 249.522 409.562 240.392 420.948C231.685 432 224.99 444.486 219.765 457.523C214.09 471.695 209.929 487.023 205.741 502.456L205.741 502.457C195.507 540.162 185.104 578.491 152.021 602.11C133.045 615.66 109.605 619.113 87.5323 611.674C66.6082 604.623 48.4935 589.302 37.3477 570.32C24.4009 548.271 21.0125 521.636 23.4175 496.513C25.9408 470.159 35.0666 445.71 45.6947 421.687C46.5781 419.69 47.4694 417.69 48.3622 415.687L48.365 415.681L48.3732 415.662C57.6741 394.796 67.1537 373.528 69.9517 350.7C71.6072 337.194 70.4616 323.713 66.8257 310.61C63.0956 297.17 57.2652 284.437 51.2971 271.871C50.8831 270.999 50.4682 270.127 50.0532 269.255L50.051 269.25C38.5731 245.117 26.9545 220.689 27.5835 193.324C27.7327 186.851 28.3576 180.403 28.9824 173.957L28.9824 173.957L28.9825 173.956C29.7509 166.028 30.5192 158.101 30.4024 150.129C30.1897 135.577 26.9864 119.771 16.2371 109.175C12.6135 105.604 10.124 102.234 9.4892 97.0206C8.88546 92.0592 9.96998 86.8656 12.2856 82.4537C18.1614 71.2621 31.4255 66.4693 42.7253 62.8848C63.0614 56.4338 83.4548 50.1538 103.847 43.8741L103.848 43.874L103.848 43.8739L103.848 43.8737L103.849 43.8736L103.849 43.8735L103.849 43.8734L103.85 43.8733L103.85 43.8732L103.851 43.873L103.851 43.8729L103.851 43.8728L103.852 43.8727L103.852 43.8726L103.853 43.8725L103.853 43.8723L103.853 43.8722L103.854 43.8721L103.854 43.872L103.854 43.8719L103.857 43.871L103.858 43.8707L103.86 43.8703L103.861 43.8699L103.862 43.8696L103.863 43.8692L103.864 43.8688L103.866 43.8685L103.867 43.8681L103.868 43.8677L103.869 43.8673L103.87 43.867L103.872 43.8666L103.873 43.8662L103.874 43.8659L103.875 43.8655L103.877 43.8651L103.878 43.8647L103.879 43.8644L103.88 43.864L103.881 43.8636C113.862 40.7902 123.842 37.7169 133.815 34.6236C138.554 33.1532 143.292 31.6791 148.03 30.2049L148.031 30.2045L148.041 30.2017L148.05 30.1987C158.284 27.0145 168.518 23.8303 178.765 20.684C190.03 17.2255 201.397 14.0127 212.997 11.8832C235.131 7.82034 259.114 7.99099 278.459 20.9353C299.563 35.0565 310.761 59.8315 320.944 82.3598C321.413 83.3984 321.881 84.4321 322.347 85.4599C335.415 114.283 346.789 143.871 356.399 174.023C365.715 203.255 373.814 233.147 379.262 263.36C383.938 289.281 385.39 316.853 374.384 341.446C369.672 351.977 362.811 361.661 353.773 368.913C343.068 377.5 329.903 381.498 316.654 384.216C313.231 384.918 309.782 385.549 306.33 386.181C295.5 388.162 284.638 390.15 274.428 394.36ZM239.754 420.48C221.034 444.261 213.304 472.742 205.563 501.263C198.966 525.572 192.36 549.91 178.936 571.392C165.669 592.621 145.326 611.101 119.639 614.37C96.9478 617.257 74.2432 607.965 57.3399 593.153C16.4424 557.321 17.9438 497.262 34.9455 449.896C38.97 438.684 43.8151 427.805 48.6601 416.927C53.8308 405.317 59.0015 393.708 63.1748 381.693C67.0134 370.641 70.011 359.229 71.0868 347.553C72.2 335.47 71.0508 323.424 67.9426 311.703C63.7933 296.065 56.8309 281.522 49.8667 266.975L49.8665 266.974C45.0979 257.014 40.3285 247.051 36.4607 236.734C31.5809 223.72 28.3581 210.178 28.3419 196.222C28.3337 188.715 29.0535 181.252 29.7734 173.788L29.7735 173.787C30.4115 167.172 31.0495 160.557 31.1807 153.91C31.4359 140.972 29.6752 127.299 22.7222 116.107C21.2082 113.67 19.4555 111.359 17.4654 109.291C17.067 108.877 16.6681 108.476 16.2739 108.08C14.351 106.149 12.5418 104.331 11.4648 101.659C9.26621 96.2037 9.89394 89.7973 12.1944 84.4826C17.7075 71.7522 32.5862 66.8718 44.7725 63.0667C54.7652 59.9473 64.7655 56.8517 74.766 53.7561L74.7836 53.7506C79.639 52.2476 84.4945 50.7446 89.3491 49.2389C99.129 46.2054 108.907 43.1659 118.685 40.1264L118.706 40.1199C138.551 33.951 158.395 27.7821 178.256 21.6642C200.456 14.8238 224.085 8.16649 247.543 10.8124C259.241 12.1321 270.549 16.0772 280.102 23.0411C290.566 30.6701 298.469 41.2071 304.968 52.2855C312.17 64.5598 318.028 77.6533 323.812 90.6383C330.103 104.763 335.99 119.07 341.461 133.533C352.341 162.292 361.588 191.666 369.132 221.473L369.473 222.82C376.453 250.381 383.785 279.333 381.71 307.949C379.945 332.289 369.772 357.799 348.689 371.628C335.751 380.114 320.793 382.842 305.806 385.576C293.117 387.89 280.408 390.208 268.887 396.027C257.428 401.816 247.781 410.463 239.789 420.429C239.776 420.446 239.764 420.463 239.754 420.48ZM238.233 410.633C246.933 399.785 257.721 390.637 270.665 385.297C280.396 381.284 290.748 379.391 301.07 377.502L301.07 377.502L301.073 377.502L301.076 377.501L301.078 377.501L301.081 377.5L301.084 377.5L301.087 377.499L301.089 377.499L301.092 377.498L301.095 377.497L301.098 377.497L301.101 377.496L301.103 377.496L301.106 377.495L301.109 377.495L301.112 377.494L301.115 377.494L301.117 377.493L301.12 377.493L301.123 377.492C304.396 376.894 307.666 376.295 310.911 375.629C323.54 373.039 336.089 369.228 346.294 361.041C354.911 354.127 361.452 344.895 365.947 334.853C376.437 311.411 375.055 285.128 370.599 260.419C365.405 231.621 357.686 203.128 348.806 175.265C339.647 146.527 328.805 118.325 316.349 90.8533C315.905 89.8741 315.46 88.8891 315.013 87.8996C305.306 66.4245 294.63 42.8072 274.512 29.3443C256.07 17.0032 233.206 16.8389 212.105 20.7107C201.048 22.7395 190.21 25.8028 179.473 29.0989C169.884 32.0424 160.307 35.0221 150.73 38.0018C146.03 39.4638 141.331 40.9259 136.63 42.3837C127.122 45.3328 117.607 48.2629 108.092 51.193C88.6472 57.181 69.2015 63.1693 49.8097 69.3208C39.0349 72.739 26.3886 77.3095 20.7856 87.9819C18.5762 92.1892 17.5419 97.1425 18.1179 101.876C18.7229 106.85 21.0982 110.066 24.5558 113.473C34.7969 123.568 37.8477 138.629 38.0518 152.494C38.163 160.092 37.4309 167.646 36.6987 175.201L36.6987 175.202C36.1031 181.347 35.5074 187.493 35.3655 193.664C34.7664 219.749 45.8414 243.035 56.7823 266.039L57.4916 267.53L57.9686 268.534C63.6559 280.511 69.2143 292.647 72.77 305.458C76.2356 317.944 77.3273 330.79 75.7494 343.659C73.0823 365.414 64.0498 385.68 55.187 405.565C54.3316 407.484 53.4778 409.4 52.6315 411.313C42.5004 434.211 33.8019 457.517 31.3974 482.637C29.1046 506.588 32.3349 531.978 44.678 552.998C55.3037 571.095 72.5744 585.701 92.5222 592.423C113.564 599.514 135.913 596.221 154.004 583.305C185.539 560.79 195.455 524.256 205.211 488.316C209.203 473.607 213.169 458.997 218.578 445.488C223.555 433.064 229.935 421.166 238.233 410.633ZM237.632 410.119C237.636 410.113 237.641 410.108 237.646 410.102C237.652 410.095 237.658 410.088 237.665 410.082C245.28 400.596 254.466 392.367 265.377 386.856C276.358 381.311 288.47 379.102 300.563 376.896C314.847 374.291 329.104 371.691 341.435 363.603C361.526 350.423 371.22 326.112 372.901 302.919C374.878 275.651 367.891 248.061 361.241 221.798L360.913 220.506C353.72 192.095 344.907 164.098 334.538 136.688C329.324 122.902 323.713 109.267 317.716 95.803C312.205 83.428 306.622 70.949 299.759 59.2518C293.565 48.6934 286.033 38.652 276.06 31.3808C266.958 24.7458 256.182 20.9869 245.035 19.7296C222.68 17.2083 200.161 23.5534 179.005 30.0715C160.177 35.8726 141.364 41.7205 122.551 47.5685L122.533 47.5739L122.527 47.5759L122.512 47.5804L122.509 47.5816C113.095 50.5079 103.681 53.4342 94.2648 56.3547C89.6337 57.791 85.0018 59.2246 80.3699 60.6582L80.3673 60.659L80.3647 60.6598C70.8333 63.6098 61.3019 66.5598 51.7774 69.5339C40.1679 73.1579 25.9893 77.8073 20.737 89.9357C18.544 94.9968 17.947 101.098 20.0414 106.293C21.0661 108.835 22.788 110.565 24.6175 112.403L24.6199 112.405C24.9955 112.783 25.3757 113.165 25.7552 113.559C27.6534 115.532 29.3252 117.735 30.7695 120.059C37.398 130.729 39.0783 143.764 38.8341 156.1C38.7091 162.435 38.1008 168.74 37.4924 175.045L37.4923 175.046C36.8059 182.16 36.1195 189.274 36.1277 196.429C36.1412 209.729 39.2134 222.633 43.8635 235.037C47.5498 244.869 52.0951 254.363 56.6395 263.856C63.278 277.722 69.9148 291.585 73.8695 306.492C76.834 317.666 77.9292 329.149 76.8677 340.67C75.8428 351.801 72.9844 362.68 69.3256 373.215C65.3483 384.664 60.4208 395.727 55.4932 406.79L55.4929 406.791L55.4928 406.791L55.4926 406.792L55.4925 406.792L55.4923 406.792L55.4922 406.792L55.4921 406.793L55.4919 406.793L55.4918 406.793L55.4916 406.793L55.4915 406.794L55.4913 406.794L55.4912 406.794L55.491 406.794L55.4909 406.795L55.4908 406.795L55.4906 406.795L55.4905 406.795L55.4903 406.796C50.8723 417.164 46.2542 427.533 42.4185 438.22C26.217 483.357 24.7846 540.594 63.7585 574.74C79.8665 588.853 101.502 597.707 123.125 594.957C147.601 591.843 166.985 574.231 179.627 554.004C192.422 533.529 198.718 510.332 205.007 487.162C212.39 459.96 219.763 432.795 237.632 410.119ZM266.903 376.236C254.599 381.31 244.345 390.005 236.075 400.318C228.184 410.331 222.12 421.644 217.388 433.454C212.244 446.299 208.474 460.19 204.677 474.175C195.4 508.352 185.97 543.091 155.982 564.502C138.776 576.785 117.522 579.918 97.5099 573.175C78.5381 566.782 62.112 552.891 52.0065 535.681C40.2677 515.691 37.1942 491.543 39.3754 468.765C41.6626 444.879 49.9334 422.719 59.5669 400.944C60.3714 399.126 61.183 397.305 61.9961 395.481C70.4233 376.574 79.0116 357.306 81.5469 336.621C83.0472 324.39 82.0087 312.176 78.7154 300.309C75.3361 288.128 70.0511 276.589 64.6433 265.202C64.4597 264.815 64.276 264.429 64.0922 264.042L63.5179 262.834C53.1142 240.96 42.5815 218.814 43.1508 194.008C43.2859 188.142 43.8523 182.298 44.4186 176.455L44.4187 176.455L44.4187 176.454C45.115 169.27 45.8113 162.087 45.7058 154.863C45.5139 141.686 42.6155 127.369 32.8808 117.774C29.59 114.528 27.3294 111.468 26.7523 106.732C26.203 102.229 27.1887 97.5159 29.2899 93.5122C34.619 83.3609 46.647 79.0112 56.8969 75.7595C75.3134 69.9183 93.7806 64.2313 112.247 58.5444C121.316 55.7518 130.384 52.9591 139.447 50.1483C143.971 48.7454 148.493 47.3384 153.016 45.9315L153.017 45.9311L153.018 45.9307L153.02 45.9303L153.021 45.9299L153.022 45.9295L153.023 45.9291L153.025 45.9288L153.026 45.9284L153.027 45.928L153.028 45.9276L153.03 45.9272L153.031 45.9268L153.032 45.9265L153.033 45.9261L153.035 45.9257L153.036 45.9253L153.037 45.9249L153.038 45.9245C162.083 43.1106 171.128 40.2968 180.183 37.5163C190.395 34.3802 200.702 31.4689 211.217 29.5387C231.285 25.8565 253.029 26.0144 270.568 37.7523C289.701 50.5557 299.853 73.0147 309.084 93.438L309.087 93.4438C309.511 94.382 309.933 95.3159 310.354 96.2443C322.197 122.365 332.504 149.181 341.213 176.506C349.658 203.001 356.998 230.093 361.936 257.477C366.173 280.975 367.487 305.968 357.51 328.261C353.237 337.811 347.015 346.592 338.819 353.168C329.114 360.954 317.18 364.579 305.171 367.042C302.065 367.68 298.936 368.252 295.803 368.826L295.803 368.826L295.802 368.826L295.802 368.826L295.802 368.826L295.802 368.826L295.801 368.826L295.801 368.826L295.801 368.826L295.801 368.826L295.801 368.827L295.8 368.827L295.8 368.827L295.8 368.827L295.8 368.827L295.799 368.827L295.799 368.827L295.799 368.827L295.799 368.827C285.99 370.622 276.151 372.422 266.903 376.236ZM235.457 399.825C218.478 421.382 211.47 447.203 204.452 473.059C198.472 495.091 192.485 517.149 180.317 536.618C168.301 555.845 149.875 572.587 126.609 575.547C106.055 578.163 85.49 569.746 70.1762 556.33C33.1255 523.868 34.4883 469.457 49.8899 426.546C53.5375 416.383 57.929 406.524 62.3204 396.664C67.006 386.144 71.6915 375.623 75.4731 364.737C78.9535 354.718 81.6703 344.374 82.6473 333.788C83.6576 322.831 82.6153 311.908 79.7965 301.28C76.0373 287.11 69.7288 273.934 63.4186 260.754L63.4184 260.753L63.4183 260.753L63.4181 260.752L63.4179 260.752L63.4178 260.751L63.4176 260.751L63.4174 260.75L63.4172 260.75L63.4171 260.75L63.4169 260.749L63.4167 260.749L63.4166 260.748L63.4164 260.748L63.4162 260.747L63.4161 260.747L63.4159 260.746L63.4157 260.746L63.4156 260.745C59.0939 251.718 54.7715 242.689 51.266 233.339C46.8446 221.547 43.9258 209.279 43.9115 196.635C43.9038 189.832 44.5562 183.068 45.2087 176.304C45.787 170.309 46.3654 164.313 46.4842 158.289C46.7157 146.556 45.1174 134.159 38.8119 124.011C37.4387 121.8 35.8479 119.704 34.0402 117.827C33.68 117.453 33.3193 117.091 32.9629 116.733L32.9627 116.733C31.2235 114.986 29.5869 113.343 28.6131 110.927C26.6229 105.992 27.1906 100.196 29.2731 95.3895C34.2662 83.8626 47.7431 79.4446 58.7768 75.9998C67.8351 73.1715 76.9006 70.3658 85.9659 67.5601L85.9673 67.5597L85.9688 67.5592L85.9702 67.5588L85.9717 67.5583L85.9731 67.5579L85.9745 67.5574L85.976 67.557L85.9774 67.5565L85.9789 67.5561L85.9803 67.5556L85.9818 67.5552L85.9832 67.5548L85.9846 67.5543L85.9861 67.5539L85.9875 67.5534L85.989 67.553L85.9904 67.5525L85.9919 67.5521C90.3866 66.1919 94.7813 64.8318 99.1751 63.4691C108.109 60.6983 117.041 57.9217 125.973 55.1451L125.986 55.1411L125.999 55.1371L126.027 55.1283L126.035 55.1259C143.935 49.5617 161.834 43.9976 179.747 38.4795C199.86 32.2836 221.267 26.2493 242.519 28.6464C253.114 29.8414 263.357 33.4147 272.009 39.7208C281.491 46.6321 288.649 56.179 294.538 66.2174C301.063 77.339 306.37 89.202 311.61 100.966C317.312 113.768 322.647 126.733 327.604 139.839C337.463 165.902 345.844 192.522 352.682 219.536L352.995 220.771C359.317 245.738 365.959 271.965 364.08 297.888C362.482 319.936 353.268 343.048 334.17 355.574C322.447 363.264 308.892 365.736 295.311 368.212C283.814 370.309 272.297 372.409 261.857 377.682C251.466 382.93 242.719 390.77 235.471 399.807C235.466 399.813 235.462 399.819 235.457 399.825ZM233.915 390.004C241.756 380.228 251.475 371.984 263.141 367.173C271.915 363.555 281.25 361.847 290.558 360.144C293.524 359.601 296.488 359.059 299.43 358.455C310.82 356.118 322.139 352.68 331.342 345.297C339.118 339.059 345.021 330.729 349.074 321.67C358.535 300.527 357.291 276.823 353.272 254.537C348.589 228.566 341.628 202.873 333.619 177.747C325.361 151.834 315.586 126.406 304.356 101.636C303.956 100.754 303.555 99.8667 303.152 98.9753C294.397 79.6054 284.768 58.3033 266.623 46.1608C249.987 35.0276 229.364 34.874 210.327 38.3672C200.353 40.1973 190.579 42.9596 180.894 45.9322C172.182 48.6063 163.481 51.3136 154.78 54.0209L154.778 54.0215C150.607 55.3192 146.436 56.6168 142.265 57.9108C133.678 60.5741 125.085 63.2201 116.493 65.8661C98.9743 71.2607 81.455 76.6556 63.9841 82.198C54.2577 85.2838 42.8488 89.4107 37.7927 99.0429C35.7977 102.842 34.8642 107.316 35.3837 111.59C35.9309 116.087 38.0779 118.993 41.2037 122.074C50.4307 131.169 53.1761 144.74 53.3579 157.231C53.4578 164.08 52.798 170.891 52.1381 177.702C51.6011 183.244 51.0641 188.787 50.9362 194.353C50.3953 217.876 60.3834 238.877 70.249 259.62C70.6057 260.37 70.9622 261.12 71.3181 261.869C76.447 272.669 81.4579 283.61 84.6628 295.161C87.7844 306.411 88.7684 317.989 87.3478 329.584C84.9431 349.198 76.8005 367.468 68.8106 385.395L68.8105 385.396C68.0396 387.125 67.2702 388.852 66.5074 390.576C57.3725 411.225 49.527 432.242 47.3591 454.894C45.2901 476.501 48.2056 499.404 59.3391 518.365C68.9249 534.691 84.506 547.864 102.502 553.928C121.484 560.323 141.645 557.351 157.966 545.7C186.406 525.395 195.349 492.452 204.147 460.041C207.748 446.778 211.324 433.604 216.202 421.422C220.685 410.224 226.435 399.497 233.915 390.004ZM233.313 389.49C233.323 389.479 233.332 389.467 233.342 389.457C240.212 380.898 248.503 373.474 258.347 368.502C268.245 363.504 279.165 361.513 290.066 359.525C302.945 357.177 315.799 354.832 326.915 347.541C345.021 335.663 353.754 313.752 355.27 292.85C357.051 268.276 350.755 243.411 344.762 219.742L344.761 219.742L344.463 218.563C337.977 192.948 330.031 167.703 320.681 142.989C315.98 130.559 310.922 118.266 305.514 106.126C300.546 94.9708 295.514 83.7237 289.328 73.1792C283.745 63.6623 276.957 54.6111 267.967 48.0576C259.765 42.0784 250.056 38.6928 240.012 37.5601C219.864 35.2871 199.565 41.0083 180.497 46.8833C163.328 52.1734 146.172 57.5063 129.016 62.8391L129.004 62.8428L128.992 62.8465C120.692 65.4265 112.393 68.0064 104.091 70.5815C99.7402 71.9314 95.3882 73.2786 91.0362 74.6257L91.0296 74.6277C82.6117 77.2334 74.194 79.839 65.7828 82.465C55.3245 85.7291 42.5487 89.9142 37.8168 100.841C35.8444 105.396 35.3068 110.884 37.1913 115.56C38.1129 117.846 39.6622 119.402 41.3081 121.055L41.3091 121.056C41.6474 121.396 41.9898 121.74 42.3317 122.095C44.0456 123.876 45.5557 125.865 46.8593 127.964C52.8389 137.59 54.3572 149.349 54.1378 160.479C54.0251 166.193 53.4765 171.88 52.9279 177.566C52.3093 183.979 51.6907 190.392 51.6974 196.841C51.7105 208.83 54.4793 220.461 58.6706 231.641C61.9944 240.507 66.0928 249.068 70.1904 257.627C76.1755 270.13 82.159 282.629 85.7252 296.069C88.4002 306.149 89.3886 316.511 88.4299 326.904C87.5039 336.945 84.9261 346.756 81.6256 356.258C78.0399 366.579 73.5976 376.553 69.1551 386.527C64.9897 395.879 60.8242 405.231 57.3645 414.87C42.7632 455.552 41.4694 507.141 76.5964 537.916C91.1141 550.635 110.609 558.615 130.096 556.136C152.151 553.33 169.619 537.458 181.009 519.232C192.363 501.063 197.955 480.276 203.477 459.747L203.477 459.747C204.08 457.508 204.681 455.272 205.289 453.043C211.422 430.556 218.689 408.049 233.313 389.49ZM259.378 358.11C248.353 362.658 239.166 370.449 231.756 379.689C224.685 388.664 219.25 398.804 215.008 409.387C210.395 420.905 207.013 433.361 203.609 445.901L203.609 445.902C195.289 476.547 186.833 507.694 159.94 526.894C144.506 537.914 125.439 540.725 107.485 534.677C90.4643 528.944 75.7276 516.486 66.662 501.045C56.1321 483.113 53.3747 461.455 55.3315 441.021C57.3821 419.602 64.7994 399.73 73.4373 380.206C74.157 378.579 74.8831 376.951 75.6105 375.319C83.1663 358.368 90.8669 341.093 93.1401 322.546C94.4846 311.587 93.5546 300.645 90.6032 290.012C87.5732 279.092 82.8343 268.747 77.9862 258.537C77.6503 257.829 77.3136 257.122 76.9769 256.413C67.6484 236.799 58.2038 216.941 58.7149 194.697C58.8361 189.436 59.3438 184.195 59.8515 178.956C60.4756 172.515 61.0995 166.076 61.0053 159.6C60.8321 147.797 58.2398 134.971 49.5206 126.377C46.5606 123.459 44.5294 120.706 44.0106 116.449C43.5193 112.405 44.4041 108.171 46.2909 104.575C51.0762 95.4631 61.8652 91.5575 71.0666 88.6381C87.5633 83.4058 104.106 78.3116 120.648 73.2176L120.659 73.2143C128.801 70.7071 136.942 68.1999 145.078 65.6764C149.075 64.4369 153.07 63.1938 157.065 61.9508C165.241 59.4071 173.416 56.8636 181.601 54.3506C190.76 51.5384 200.003 48.9276 209.435 47.1962C227.439 43.8925 246.942 44.0398 262.677 54.5698C279.837 66.0542 288.941 86.1979 297.221 104.516L297.224 104.522C297.604 105.362 297.982 106.198 298.359 107.03C308.977 130.448 318.218 154.491 326.026 178.989C333.597 202.747 340.178 227.041 344.607 251.595C348.409 272.669 349.584 295.084 340.636 315.078C336.8 323.646 331.217 331.523 323.864 337.424C315.16 344.406 304.458 347.657 293.687 349.867C290.902 350.439 288.096 350.952 285.287 351.466C276.492 353.076 267.67 354.691 259.378 358.11ZM231.135 379.201C217.318 396.747 210.452 418.018 204.654 439.272C204.078 441.384 203.508 443.502 202.938 445.623C197.717 465.027 192.432 484.673 181.699 501.847C170.935 519.072 154.425 534.073 133.581 536.726C115.161 539.069 96.737 531.526 83.0155 519.505C49.8122 490.415 51.0354 441.649 64.8379 403.196C68.1086 394.084 72.0464 385.242 75.9841 376.401C80.1844 366.971 84.3846 357.541 87.775 347.781C90.8971 338.795 93.3342 329.517 94.21 320.024C95.117 310.192 94.1824 300.394 91.6521 290.857C88.2807 278.149 82.6227 266.331 76.9632 254.51C73.0892 246.419 69.2146 238.326 66.072 229.945C62.1089 219.375 59.4922 208.381 59.4797 197.048C59.4731 190.949 60.0579 184.886 60.6427 178.823C61.1612 173.447 61.6798 168.07 61.7862 162.669C61.9931 152.142 60.5567 141.021 54.9016 131.916C53.6677 129.931 52.2401 128.048 50.6166 126.363C50.2946 126.028 49.9722 125.705 49.6536 125.385C48.0979 123.824 46.6337 122.354 45.763 120.194C43.9827 115.778 44.491 110.595 46.3529 106.294C50.824 95.9699 62.9002 92.0172 72.7807 88.9313C80.7312 86.4495 88.6883 83.9865 96.6453 81.5235L96.6488 81.5224C100.766 80.2479 104.884 78.9734 109 77.6963C116.852 75.2608 124.702 72.8206 132.552 70.3803C148.777 65.337 165.001 60.2935 181.239 55.2912C199.264 49.7384 218.452 44.328 237.497 46.4763C246.988 47.5472 256.167 50.7462 263.917 56.397C272.416 62.5927 278.831 71.1473 284.109 80.1436C289.957 90.1111 294.714 100.744 299.411 111.288C304.523 122.765 309.306 134.389 313.751 146.141C322.59 169.509 330.104 193.375 336.235 217.594L336.512 218.687C342.181 241.068 348.136 264.581 346.452 287.818C345.021 307.575 336.767 328.285 319.651 339.512C309.143 346.404 296.991 348.62 284.816 350.84L284.815 350.841C274.509 352.72 264.186 354.602 254.829 359.327C245.506 364.035 237.656 371.068 231.153 379.176C231.147 379.184 231.141 379.193 231.135 379.201ZM229.598 369.375C236.579 360.671 245.232 353.329 255.616 349.047C263.427 345.825 271.737 344.304 280.023 342.788L280.023 342.788L280.023 342.788L280.024 342.788L280.024 342.788L280.024 342.788L280.025 342.788L280.025 342.788L280.025 342.788L280.025 342.788L280.026 342.788C282.674 342.304 285.32 341.819 287.946 341.28C298.098 339.197 308.185 336.133 316.388 329.551C323.32 323.989 328.586 316.564 332.2 308.485C340.633 289.641 339.527 268.516 335.946 248.653C331.773 225.513 325.571 202.619 318.435 180.229C311.078 157.144 302.368 134.488 292.364 112.422C292.009 111.639 291.653 110.851 291.295 110.059L291.293 110.055C283.489 92.79 274.908 73.804 258.734 62.9794C243.902 53.0526 225.52 52.9111 208.547 56.0258C199.658 57.6565 190.946 60.1188 182.314 62.769C174.471 65.1775 166.636 67.6151 158.801 70.0527L158.797 70.0539C155.164 71.1841 151.532 72.3142 147.899 73.4415C140.234 75.8189 132.564 78.1808 124.894 80.5428L124.89 80.5441C109.298 85.3456 93.706 90.1472 78.1564 95.0792C69.48 97.8322 59.3087 101.516 54.7978 110.108C53.0172 113.499 52.1831 117.494 52.6477 121.308C53.1367 125.326 55.0542 127.926 57.8478 130.679C66.0592 138.774 68.4985 150.854 68.6616 161.97C68.7511 168.072 68.163 174.14 67.5748 180.209L67.5748 180.209C67.0962 185.147 66.6176 190.085 66.5039 195.042C66.0225 216.012 74.9277 234.733 83.7231 253.224C84.0372 253.885 84.3512 254.545 84.6646 255.205C89.2333 264.826 93.6988 274.573 96.5543 284.864C99.334 294.88 100.21 305.187 98.9448 315.51C96.8041 332.98 89.5512 349.252 82.4343 365.219L82.4313 365.225C81.745 366.765 81.06 368.302 80.381 369.837C72.2407 388.237 65.2501 406.965 63.3183 427.149C61.4746 446.41 64.0731 466.825 73.9982 483.73C82.5436 498.285 96.4364 510.028 112.481 515.431C129.404 521.131 147.377 518.481 161.927 508.093C187.274 489.996 195.244 460.643 203.085 431.761C206.293 419.946 209.479 408.209 213.825 397.355C217.814 387.383 222.935 377.83 229.598 369.375ZM204.019 425.501C209.482 405.474 215.953 385.431 228.969 368.896C228.973 368.89 228.977 368.884 228.981 368.878C228.985 368.873 228.989 368.867 228.994 368.862C235.123 361.219 242.522 354.586 251.312 350.152C260.128 345.704 269.851 343.931 279.559 342.16C291.034 340.067 302.486 337.979 312.39 331.482C328.512 320.905 336.286 301.396 337.634 282.784C339.219 260.894 333.609 238.744 328.27 217.661L328.006 216.622C322.229 193.8 315.15 171.309 306.82 149.291C302.631 138.218 298.123 127.264 293.307 116.449C288.882 106.515 284.4 96.497 278.891 87.1067C273.919 78.6299 267.875 70.5693 259.868 64.733C252.568 59.411 243.922 56.3998 234.982 55.3912C217.039 53.3675 198.962 58.4643 181.981 63.6962C166.757 68.3863 151.546 73.1149 136.334 77.8436L136.329 77.8453L136.327 77.8458L136.322 77.8475L136.32 77.848L136.299 77.8545L136.278 77.8611L136.257 77.8676C128.809 80.183 121.36 82.4984 113.91 84.8093C110.294 85.9306 106.678 87.0498 103.061 88.169L103.052 88.1719L103.05 88.1725L103.048 88.173L103.047 88.1735L103.045 88.174L103.043 88.1745L103.042 88.1751L103.04 88.1756L103.038 88.1761L103.037 88.1766L103.035 88.1772L103.033 88.1777L103.032 88.1782L103.03 88.1787L103.028 88.1792C95.2767 90.5782 87.5256 92.977 79.7798 95.3957C70.4747 98.301 59.1001 102.022 54.8897 111.745C53.1383 115.79 52.6598 120.67 54.3354 124.824C55.1538 126.855 56.5306 128.237 57.993 129.704L57.9946 129.706C58.2949 130.007 58.5987 130.312 58.9021 130.627C60.4332 132.216 61.7813 133.99 62.9442 135.863C68.2768 144.447 69.6332 154.931 69.4368 164.855C69.3366 169.945 68.8478 175.012 68.3589 180.079C67.8077 185.792 67.2566 191.505 67.2627 197.25C67.274 207.927 69.7408 218.285 73.4737 228.243C76.4348 236.141 80.0862 243.768 83.7371 251.394L83.7372 251.394L83.7373 251.394L83.7374 251.395L83.7375 251.395L83.7376 251.395L83.7377 251.395L83.7378 251.396L83.7378 251.396L83.7379 251.396L83.738 251.396L83.7381 251.396L83.7382 251.397L83.7383 251.397L83.7383 251.397L83.7384 251.397L83.7385 251.398C89.0705 262.534 94.4012 273.668 97.5777 285.641C99.9623 294.631 100.842 303.869 99.9882 313.137C99.1634 322.085 96.8654 330.83 93.9231 339.299C90.728 348.498 86.769 357.388 82.8099 366.277L82.8098 366.277L82.8096 366.278L82.8095 366.278L82.8093 366.279L82.8092 366.279L82.809 366.279L82.8089 366.28L82.8087 366.28L82.8086 366.28L82.8084 366.281L82.8083 366.281L82.8081 366.282L82.808 366.282L82.8078 366.282L82.8077 366.283C79.0992 374.61 75.3906 382.936 72.3101 391.518C59.3068 427.743 58.1537 473.686 89.4323 501.091C102.36 512.417 119.715 519.521 137.066 517.313C156.697 514.816 172.251 500.684 182.389 484.46C192.506 468.273 197.487 449.756 202.407 431.468C202.943 429.475 203.478 427.485 204.019 425.501ZM251.854 339.984C242.108 344.003 233.988 350.892 227.438 359.061C221.185 366.996 216.379 375.963 212.632 385.328C208.551 395.519 205.559 406.538 202.547 417.631C195.185 444.746 187.703 472.303 163.904 489.295C150.24 499.051 133.359 501.54 117.467 496.187C102.4 491.114 89.3503 480.087 81.3251 466.417C72.0037 450.542 69.5632 431.372 71.2946 413.283C73.1091 394.332 79.673 376.748 87.3162 359.473C87.9534 358.033 88.5961 356.591 89.2399 355.147C95.9221 340.156 102.731 324.879 104.742 308.477C105.931 298.791 105.107 289.118 102.499 279.72C99.8183 270.059 95.6279 260.907 91.3387 251.875C91.0538 251.276 90.7684 250.676 90.4828 250.075L90.4787 250.067L90.4746 250.058L90.4704 250.049L90.4663 250.04L90.453 250.012C82.1953 232.652 73.8351 215.075 74.288 195.389C74.3948 190.734 74.8439 186.097 75.293 181.461L75.293 181.461C75.8449 175.764 76.3966 170.069 76.3129 164.342C76.1604 153.913 73.8731 142.576 66.1699 134.982C63.5422 132.392 61.739 129.947 61.2799 126.169C60.8435 122.585 61.6284 118.827 63.3013 115.642C67.5393 107.568 77.0909 104.106 85.2438 101.519C99.8478 96.886 114.492 92.3765 129.135 87.8673C136.331 85.6515 143.526 83.4358 150.717 81.2055C154.187 80.129 157.656 79.0496 161.125 77.9702L161.125 77.9699C168.422 75.6996 175.719 73.4291 183.024 71.1864C191.131 68.6976 199.312 66.3873 207.659 64.8552C223.599 61.9301 240.863 62.0662 254.79 71.3888C269.977 81.5544 278.035 99.3817 285.364 115.595C285.7 116.339 286.034 117.079 286.368 117.815C295.76 138.532 303.935 159.798 310.843 181.471C317.543 202.49 323.364 223.987 327.282 245.712C330.646 264.362 331.683 284.197 323.764 301.892C320.367 309.481 315.423 316.454 308.911 321.678C301.209 327.858 291.737 330.736 282.205 332.692C279.739 333.198 277.256 333.652 274.77 334.107C266.991 335.53 259.188 336.958 251.854 339.984ZM226.865 358.514C226.855 358.524 226.846 358.535 226.836 358.547C214.597 374.078 208.516 392.911 203.383 411.73C202.877 413.587 202.375 415.451 201.873 417.317L201.869 417.331L201.866 417.345C197.248 434.507 192.574 451.883 183.08 467.074C173.566 482.296 158.972 495.558 140.553 497.903C124.27 499.974 107.984 493.307 95.8528 482.68C66.4978 456.96 67.5818 413.84 79.7849 379.844C82.6776 371.784 86.1603 363.965 89.6429 356.145L89.6431 356.145L89.6432 356.144L89.6434 356.144L89.6435 356.144L89.6436 356.144L89.6438 356.143L89.6439 356.143L89.6441 356.143L89.6442 356.143L89.6444 356.142L89.6445 356.142L89.6447 356.142L89.6448 356.142L89.6449 356.141L89.6452 356.141L89.6455 356.14L89.6458 356.139L89.6461 356.138L89.6464 356.138L89.6468 356.137L89.6471 356.136L89.6474 356.135L89.6477 356.135L89.648 356.134L89.6483 356.133L89.6486 356.132L89.6489 356.131L89.6492 356.131C93.3636 347.791 97.0779 339.452 100.076 330.822C102.838 322.87 104.998 314.659 105.772 306.257C106.574 297.551 105.748 288.875 103.507 280.432C100.525 269.191 95.5199 258.736 90.5133 248.279L90.5131 248.279L90.5128 248.278C87.0859 241.12 83.6583 233.961 80.8785 226.547C77.3743 217.201 75.061 207.48 75.0503 197.458C75.0443 192.064 75.5616 186.701 76.079 181.337C76.5378 176.581 76.9967 171.824 77.0906 167.046C77.2743 157.725 75.9999 147.879 70.9918 139.817C69.8981 138.056 68.6281 136.395 67.1938 134.896C66.8968 134.586 66.599 134.287 66.3049 133.991C64.9501 132.629 63.6744 131.346 62.9138 129.459C61.3439 125.565 61.7903 120.991 63.4336 117.197C67.3833 108.077 78.0576 104.587 86.787 101.86C93.8991 99.6398 101.017 97.4367 108.134 95.2335L108.142 95.231L108.151 95.2285C111.71 94.1267 115.269 93.025 118.828 91.9211C125.838 89.7466 132.847 87.5679 139.856 85.3891C154.145 80.9477 168.433 76.5063 182.732 72.101C198.67 67.1913 215.635 62.4053 232.474 64.3048C240.863 65.251 248.975 68.0767 255.826 73.0697C263.34 78.5483 269.013 86.1138 273.68 94.0685C278.852 102.883 283.058 112.285 287.211 121.609C291.733 131.763 295.964 142.044 299.897 152.44C307.716 173.111 314.363 194.224 319.787 215.648L320.036 216.631C325.047 236.416 330.311 257.204 328.824 277.748C327.559 295.213 320.267 313.524 305.134 323.449C295.839 329.546 285.088 331.507 274.316 333.472C265.204 335.134 256.077 336.799 247.803 340.973C239.559 345.132 232.617 351.35 226.865 358.514ZM225.28 348.746C231.399 341.115 238.986 334.676 248.091 330.921C254.946 328.093 262.239 326.759 269.51 325.429C271.835 325.003 274.157 324.578 276.462 324.105C285.374 322.275 294.231 319.585 301.433 313.806C307.524 308.92 312.149 302.399 315.325 295.301C322.729 278.756 321.761 260.21 318.616 242.77C314.953 222.459 309.51 202.363 303.247 182.711C296.791 162.452 289.148 142.572 280.368 123.206C280.189 122.812 280.011 122.417 279.831 122.02L279.43 121.132C272.578 105.972 265.043 89.3027 250.841 79.7954C237.816 71.0761 221.672 70.9463 206.765 73.6819C198.96 75.1139 191.309 77.2741 183.731 79.6019C176.955 81.6824 170.187 83.7884 163.419 85.8943L163.414 85.8958L163.412 85.8964L163.41 85.897L163.408 85.8976C160.115 86.9221 156.823 87.9466 153.529 88.9682C146.795 91.0573 140.055 93.1327 133.315 95.2081L133.311 95.2094L133.307 95.2107L133.303 95.212L133.298 95.2132L133.294 95.2145L133.29 95.2158L133.286 95.2171L133.285 95.2172L133.285 95.2174L133.285 95.2175L133.284 95.2177L133.284 95.2178L133.283 95.2179L133.283 95.2181L133.282 95.2182L133.282 95.2184L133.282 95.2185L133.281 95.2186L133.281 95.2188L133.28 95.2189C119.617 99.4264 105.953 103.634 92.327 107.956C84.6985 110.375 75.7652 113.616 71.8001 121.171C70.2339 124.153 69.5007 127.669 69.9088 131.024C70.3401 134.564 72.0275 136.855 74.4889 139.28C81.6842 146.375 83.8186 156.966 83.9624 166.707C84.0406 172.062 83.5247 177.386 83.0086 182.712L83.0086 182.713C82.5887 187.046 82.1688 191.379 82.0687 195.73C81.6457 214.136 89.4625 230.57 97.1831 246.802L97.2043 246.847C97.4728 247.411 97.7411 247.975 98.0089 248.539C102.019 256.982 105.936 265.538 108.442 274.567C110.879 283.347 111.647 292.386 110.538 301.435C108.659 316.762 102.295 331.04 96.0512 345.049L96.049 345.054L96.0468 345.059C95.4455 346.409 94.8452 347.755 94.2502 349.1C87.1055 365.25 80.9684 381.69 79.2718 399.408C77.6524 416.325 79.9349 434.25 88.6526 449.097C96.1576 461.88 108.363 472.192 122.453 476.936C137.317 481.941 153.103 479.614 165.883 470.49C188.135 454.602 195.131 428.839 202.015 403.488L202.015 403.488C204.831 393.119 207.628 382.819 211.442 373.291C214.944 364.543 219.436 356.163 225.28 348.746ZM202.749 397.96C207.547 380.37 213.23 362.768 224.665 348.249C224.669 348.243 224.674 348.236 224.679 348.23C230.063 341.516 236.565 335.69 244.287 331.796C252.02 327.895 260.552 326.339 269.069 324.785C279.137 322.948 289.186 321.115 297.873 315.417C312.011 306.143 318.824 289.033 320.007 272.712C321.396 253.516 316.477 234.091 311.794 215.601L311.56 214.676C306.489 194.648 300.276 174.911 292.967 155.589C289.291 145.871 285.335 136.259 281.108 126.768C277.228 118.053 273.297 109.266 268.464 101.029C264.102 93.5943 258.802 86.5254 251.778 81.4052C245.378 76.7391 237.8 74.1011 229.962 73.2172C214.225 71.4422 198.369 75.9146 183.476 80.5035C170.194 84.5955 156.922 88.7212 143.65 92.8468C137.014 94.9098 130.378 96.9728 123.74 99.0316C120.423 100.061 117.105 101.088 113.787 102.115L113.754 102.125L113.746 102.127C107.092 104.187 100.437 106.247 93.7884 108.322C85.6344 110.868 75.6633 114.126 71.9728 122.645C70.4399 126.184 70.0229 130.453 71.4885 134.086C72.1982 135.848 73.3887 137.044 74.6534 138.315C74.9274 138.591 75.2049 138.87 75.4817 139.158C76.8256 140.561 78.013 142.115 79.0372 143.763C83.7223 151.303 84.9153 160.512 84.7436 169.229C84.6552 173.694 84.2265 178.137 83.7978 182.58L83.7977 182.581C83.3137 187.597 82.8298 192.613 82.8357 197.658C82.8457 207.026 85.0084 216.109 88.2829 224.845C90.8816 231.777 94.0861 238.47 97.2901 245.162L97.2905 245.163C101.97 254.937 106.648 264.708 109.436 275.216C111.53 283.115 112.304 291.227 111.553 299.37C110.829 307.228 108.81 314.906 106.226 322.342C103.422 330.415 99.9476 338.216 96.473 346.017C93.2179 353.325 89.9627 360.634 87.2588 368.167C75.8556 399.937 74.8417 440.233 102.273 464.266C113.608 474.197 128.825 480.427 144.039 478.491C161.248 476.302 174.884 463.909 183.772 449.688C192.648 435.484 197.019 419.235 201.336 403.185C201.806 401.44 202.275 399.697 202.749 397.96ZM244.329 321.858C235.863 325.35 228.811 331.336 223.121 338.431C217.685 345.329 213.509 353.123 210.249 361.257C206.699 370.122 204.097 379.704 201.477 389.351L201.477 389.352C195.072 412.936 188.563 436.903 167.859 451.685C155.966 460.176 141.273 462.343 127.439 457.686C114.324 453.27 102.965 443.673 95.9784 431.776C87.866 417.958 85.7415 401.278 87.2486 385.533C88.827 369.05 94.5373 353.755 101.184 338.729C101.74 337.472 102.301 336.215 102.862 334.954C108.669 321.926 114.585 308.65 116.333 294.397C117.365 285.983 116.651 277.58 114.385 269.417C112.054 261.017 108.409 253.059 104.679 245.204L104.29 244.385L103.914 243.593L103.913 243.593C96.7299 228.49 89.4567 213.198 89.8499 196.072C89.9425 192.024 90.3332 187.992 90.7238 183.96L90.7238 183.959C91.2037 179.007 91.6834 174.055 91.6107 169.074C91.4785 160.019 89.4957 150.175 82.8082 143.58C80.5127 141.318 78.9394 139.181 78.538 135.88C78.1576 132.754 78.8421 129.478 80.3006 126.7C83.9934 119.667 92.3054 116.647 99.4104 114.394C112.094 110.371 124.813 106.454 137.531 102.537C143.804 100.606 150.076 98.6743 156.343 96.7301C159.407 95.7801 162.469 94.8272 165.532 93.8744L165.535 93.8735L165.538 93.8725L165.541 93.8716L165.544 93.8706L165.547 93.8697L165.551 93.8687L165.554 93.8678L165.557 93.8668L165.56 93.8659L165.563 93.865L165.566 93.864L165.569 93.8631C171.856 91.907 178.143 89.9509 184.438 88.0187C191.492 85.8538 198.61 83.8441 205.873 82.5108C219.749 79.9642 234.772 80.0882 246.894 88.2043C260.11 97.0503 267.121 112.563 273.498 126.67L273.504 126.684L273.513 126.704L273.533 126.749L273.536 126.755C273.815 127.372 274.093 127.987 274.37 128.598C282.538 146.612 289.646 165.106 295.653 183.952C301.48 202.236 306.543 220.931 309.951 239.829C312.878 256.056 313.776 273.313 306.887 288.708C303.932 295.315 299.625 301.386 293.956 305.934C287.256 311.311 279.014 313.815 270.721 315.518C268.575 315.958 266.413 316.354 264.249 316.75C257.487 317.987 250.704 319.228 244.329 321.858ZM222.545 337.887C222.541 337.892 222.537 337.896 222.533 337.9L222.526 337.909L222.519 337.917C211.871 351.431 206.58 367.815 202.113 384.188C201.673 385.802 201.237 387.422 200.801 389.043L200.8 389.046L200.799 389.049L200.798 389.052L200.797 389.055L200.797 389.058L200.796 389.061L200.796 389.062C196.781 403.985 192.716 419.093 184.462 432.302C176.2 445.523 163.522 457.046 147.525 459.081C133.379 460.881 119.231 455.088 108.692 445.855C83.1844 423.507 84.1294 386.033 94.7323 356.493C97.2482 349.483 100.277 342.682 103.306 335.881L103.306 335.88L103.307 335.88L103.307 335.88L103.307 335.88L103.307 335.879L103.307 335.879L103.307 335.879L103.307 335.879L103.308 335.878L103.308 335.878L103.308 335.878L103.308 335.878L103.308 335.877C106.539 328.624 109.769 321.371 112.377 313.865C114.781 306.946 116.661 299.801 117.335 292.49C118.034 284.91 117.314 277.359 115.363 270.007C112.77 260.232 108.418 251.141 104.065 242.048C101.084 235.823 98.1039 229.597 95.6864 223.149C92.6405 215.026 90.6292 206.578 90.6204 197.867C90.6156 193.18 91.0651 188.52 91.5146 183.859L91.5146 183.859L91.5147 183.858L91.5147 183.858L91.5147 183.858L91.5147 183.857L91.5147 183.857L91.5148 183.856L91.5148 183.856L91.5148 183.856L91.5148 183.855L91.5148 183.855L91.5149 183.854C91.9139 179.717 92.313 175.578 92.3945 171.421C92.5551 163.306 91.4411 154.736 87.082 147.718C86.1275 146.183 85.0206 144.735 83.7706 143.428C83.5123 143.159 83.2532 142.898 82.9974 142.641C81.8255 141.463 80.7215 140.353 80.0642 138.722C78.7027 135.349 79.091 131.386 80.5143 128.1C83.9435 120.182 93.215 117.156 100.792 114.79C106.98 112.857 113.172 110.941 119.364 109.025C122.46 108.067 125.557 107.109 128.653 106.148C134.831 104.232 141.009 102.312 147.186 100.392L147.193 100.39C159.532 96.554 171.872 92.7182 184.223 88.9132C198.071 84.6471 212.818 80.486 227.451 82.1368C234.737 82.9588 241.784 85.4102 247.734 89.7474C254.266 94.5083 259.195 101.084 263.251 107.998C267.745 115.658 271.401 123.83 275.01 131.935C278.942 140.765 282.622 149.706 286.041 158.745C292.841 176.72 298.621 195.079 303.336 213.709L303.556 214.579L303.556 214.579C307.91 231.77 312.484 249.833 311.193 267.682C310.095 282.858 303.761 298.766 290.614 307.39C282.534 312.69 273.187 314.395 263.822 316.103C255.9 317.548 247.964 318.995 240.771 322.623C233.595 326.241 227.552 331.651 222.545 337.887ZM220.961 328.117C226.22 321.559 232.74 316.023 240.566 312.795C246.464 310.362 252.738 309.214 258.994 308.069C260.995 307.703 262.995 307.337 264.98 306.929C272.653 305.354 280.28 303.036 286.481 298.061C291.728 293.851 295.715 288.232 298.453 282.116C304.829 267.872 303.998 251.904 301.29 236.888C298.137 219.407 293.453 202.109 288.063 185.194C282.507 167.762 275.931 150.655 268.376 133.992C268.109 133.404 267.842 132.812 267.573 132.218C261.672 119.161 255.182 104.804 242.952 96.6153C231.732 89.1024 217.828 88.9848 204.986 91.3417C198.264 92.5749 191.677 94.4346 185.151 96.4385C179.374 98.2122 173.603 100.008 167.833 101.803L167.828 101.804L167.806 101.811L167.785 101.818C164.911 102.712 162.037 103.606 159.163 104.497C153.368 106.295 147.569 108.081 141.77 109.866C130.003 113.49 118.235 117.114 106.499 120.837C99.9191 122.924 92.2248 125.721 88.8049 132.236C87.4532 134.81 86.8188 137.846 87.1725 140.742C87.5455 143.803 89.0046 145.785 91.1327 147.884C97.314 153.979 99.1428 163.08 99.2644 171.447C99.3313 176.055 98.8874 180.637 98.4434 185.219C98.0822 188.947 97.721 192.676 97.6347 196.42C97.2699 212.264 103.999 226.411 110.644 240.382C110.881 240.88 111.117 241.378 111.354 241.875C114.804 249.141 118.175 256.502 120.332 264.272C122.426 271.819 123.087 279.586 122.134 287.363C120.518 300.546 115.045 312.824 109.675 324.874C109.155 326.04 108.637 327.203 108.123 328.364C101.973 342.265 96.6893 356.417 95.2303 371.666C93.8348 386.239 95.8018 401.675 103.311 414.465C109.777 425.477 120.292 434.358 132.431 438.444C145.235 442.752 158.835 440.747 169.843 432.888C188.999 419.212 195.022 397.04 200.948 375.221C203.372 366.297 205.78 357.432 209.065 349.23C212.075 341.703 215.935 334.495 220.961 328.117ZM201.477 370.417C205.606 355.285 210.495 340.142 220.325 327.647C220.332 327.636 220.339 327.625 220.347 327.614L220.356 327.603C224.996 321.818 230.598 316.799 237.252 313.445C243.905 310.09 251.243 308.752 258.57 307.416C267.232 305.836 275.876 304.26 283.349 299.358C295.504 291.387 301.357 276.677 302.372 262.648C303.565 246.146 299.336 229.445 295.312 213.552L295.106 212.737C290.743 195.505 285.396 178.522 279.106 161.895C275.944 153.532 272.54 145.262 268.903 137.095C265.566 129.601 262.185 122.045 258.029 114.961C254.278 108.566 249.721 102.488 243.681 98.0849C238.18 94.075 231.667 91.8109 224.933 91.0511C211.402 89.525 197.765 93.3739 184.961 97.3192C173.625 100.812 162.296 104.333 150.968 107.855L150.96 107.857C145.16 109.66 139.36 111.463 133.56 113.262C130.791 114.121 128.022 114.978 125.253 115.835C119.43 117.637 113.607 119.44 107.788 121.257C100.788 123.441 92.217 126.236 89.0485 133.553C87.7362 136.586 87.3777 140.245 88.6344 143.356C89.2419 144.861 90.2605 145.884 91.3419 146.97L91.3421 146.97L91.3422 146.97L91.3424 146.971L91.3425 146.971C91.5784 147.208 91.8173 147.448 92.0556 147.696C93.2146 148.905 94.2405 150.246 95.1239 151.669C99.16 158.165 100.192 166.097 100.044 173.609C99.968 177.452 99.5991 181.278 99.2301 185.103C98.8139 189.418 98.3977 193.732 98.4022 198.072C98.4119 206.127 100.271 213.938 103.087 221.45C105.323 227.415 108.081 233.175 110.838 238.934C114.864 247.344 118.89 255.752 121.288 264.793C123.093 271.599 123.76 278.589 123.112 285.606C122.488 292.373 120.748 298.981 118.524 305.385C116.111 312.331 113.122 319.043 110.133 325.755C107.331 332.045 104.53 338.335 102.203 344.817C92.3991 372.128 91.5242 406.778 115.109 427.441C124.852 435.979 137.929 441.333 151.008 439.669C165.795 437.787 177.516 427.135 185.152 414.915C192.79 402.693 196.55 388.714 200.264 374.906C200.668 373.407 201.07 371.91 201.477 370.417ZM236.805 303.733C229.617 306.697 223.632 311.779 218.803 317.802C214.186 323.662 210.64 330.281 207.87 337.192C204.852 344.728 202.64 352.873 200.413 361.071L200.413 361.072L200.413 361.072L200.413 361.072L200.412 361.073L200.412 361.073L200.412 361.073L200.412 361.074L200.412 361.074L200.412 361.074L200.412 361.075C194.964 381.13 189.429 401.508 171.818 414.081C161.695 421.308 149.19 423.151 137.415 419.191C126.253 415.436 116.582 407.269 110.636 397.143C103.731 385.382 101.922 371.191 103.205 357.79C104.547 343.775 109.402 330.768 115.055 317.992C115.527 316.925 116.003 315.857 116.48 314.787C121.415 303.717 126.443 292.435 127.927 280.323C128.803 273.183 128.197 266.048 126.274 259.121C124.293 251.981 121.195 245.216 118.024 238.54L117.821 238.113L117.375 237.173C111.266 224.33 105.081 211.326 105.416 196.762C105.495 193.322 105.827 189.896 106.159 186.47C106.567 182.259 106.975 178.048 106.913 173.814C106.801 166.134 105.126 157.779 99.4521 152.184C97.4904 150.25 96.1451 148.42 95.8019 145.598C95.4779 142.932 96.0616 140.134 97.3057 137.765C100.453 131.771 107.529 129.195 113.584 127.275C124.343 123.862 135.133 120.539 145.922 117.217L145.922 117.217L145.923 117.217L145.923 117.217L145.923 117.216L145.924 117.216L145.924 117.216L145.925 117.216L145.925 117.216L145.926 117.216L145.926 117.216C151.278 115.567 156.631 113.919 161.979 112.26C164.489 111.481 166.998 110.701 169.508 109.92L169.516 109.917L169.525 109.915L169.534 109.912L169.543 109.909L169.552 109.906L169.555 109.905L169.559 109.904C174.99 108.215 180.422 106.525 185.86 104.855C191.861 103.014 197.917 101.304 204.096 100.17C215.907 98.0022 228.69 98.1155 239.007 105.024C250.25 112.553 256.216 125.752 261.641 137.756L261.645 137.763L261.861 138.24L261.998 138.544C262.125 138.825 262.252 139.105 262.378 139.384C269.321 154.696 275.364 170.417 280.469 186.435C285.423 201.982 289.728 217.879 292.625 233.947C295.114 247.752 295.875 262.432 290.015 275.526C287.498 281.151 283.83 286.318 279.003 290.191C273.302 294.765 266.292 296.896 259.238 298.344C257.413 298.719 255.575 299.055 253.735 299.392L253.734 299.392C247.987 300.444 242.223 301.498 236.805 303.733ZM218.222 317.264L218.214 317.273C218.21 317.278 218.205 317.283 218.201 317.288C209.144 328.783 204.641 342.719 200.843 356.647C200.468 358.02 200.097 359.397 199.726 360.777L199.726 360.777C196.314 373.461 192.859 386.303 185.844 397.529C178.833 408.748 168.071 418.53 154.495 420.258C142.484 421.787 130.476 416.87 121.528 409.031C99.8677 390.054 100.673 358.226 109.677 333.143C111.815 327.186 114.39 321.405 116.965 315.625C119.712 309.458 122.458 303.291 124.676 296.909C126.721 291.021 128.32 284.946 128.894 278.726C129.489 272.272 128.878 265.844 127.217 259.583C125.013 251.273 121.313 243.546 117.613 235.816C115.08 230.525 112.546 225.234 110.492 219.754C107.904 212.852 106.197 205.679 106.189 198.28C106.184 194.294 106.567 190.331 106.949 186.368C107.288 182.851 107.627 179.334 107.697 175.801C107.833 168.892 106.882 161.597 103.17 155.623C102.357 154.313 101.412 153.08 100.345 151.966C100.126 151.738 99.9073 151.519 99.691 151.301L99.6901 151.3L99.6893 151.3C98.6998 150.306 97.7665 149.368 97.2117 147.991C96.0607 145.139 96.3885 141.786 97.5918 139.007C100.5 132.293 108.369 129.729 114.793 127.724C120.154 126.05 125.519 124.39 130.884 122.729L130.902 122.724C133.427 121.942 135.951 121.161 138.476 120.378C143.545 118.805 148.614 117.229 153.683 115.654L153.684 115.653L153.685 115.653L153.686 115.653L153.687 115.652L153.688 115.652L153.689 115.652L153.69 115.651L153.691 115.651L153.692 115.651L153.693 115.651C164.363 112.334 175.032 109.017 185.711 105.728C197.471 102.105 209.997 98.5682 222.426 99.9697C228.608 100.667 234.589 102.745 239.639 106.427C245.187 110.472 249.372 116.055 252.818 121.928C256.636 128.435 259.742 135.377 262.807 142.26C266.149 149.764 269.278 157.365 272.184 165.049C277.964 180.328 282.876 195.935 286.886 211.77L287.077 212.528C290.773 227.125 294.657 242.463 293.562 257.618C292.63 270.502 287.258 284.011 276.094 291.333C269.228 295.837 261.284 297.285 253.324 298.737C246.594 299.964 239.852 301.194 233.741 304.274C227.642 307.349 222.502 311.942 218.245 317.24L218.238 317.247C218.233 317.252 218.227 317.258 218.222 317.264ZM216.644 307.488C221.044 302.002 226.497 297.37 233.044 294.67C237.985 292.632 243.242 291.67 248.484 290.71C250.16 290.403 251.836 290.097 253.498 289.755C259.933 288.433 266.328 286.488 271.527 282.318C275.934 278.783 279.283 274.068 281.581 268.933C286.927 256.988 286.235 243.598 283.964 231.006C281.321 216.351 277.397 201.854 272.879 187.677C268.224 173.071 262.713 158.737 256.384 144.777C256.161 144.286 255.938 143.792 255.714 143.296C250.764 132.344 245.321 120.303 235.063 113.432C225.649 107.127 213.985 107.02 203.207 108.998C197.57 110.032 192.046 111.591 186.572 113.272C181.681 114.774 176.794 116.294 171.908 117.814L171.901 117.816L171.894 117.819L171.887 117.821C169.524 118.556 167.162 119.291 164.799 120.024C159.936 121.532 155.069 123.031 150.202 124.53L150.201 124.53L150.2 124.53L150.199 124.531L150.198 124.531L150.197 124.531L150.196 124.532L150.195 124.532L150.194 124.532L150.174 124.539L150.171 124.54C140.33 127.57 130.488 130.601 120.675 133.714C115.143 135.468 108.687 137.823 105.813 143.296C104.678 145.462 104.143 148.019 104.44 150.455C104.755 153.038 105.984 154.713 107.78 156.484C112.945 161.578 114.469 169.189 114.571 176.181C114.628 180.042 114.256 183.882 113.884 187.722C113.581 190.845 113.278 193.969 113.206 197.105C112.901 210.389 118.542 222.251 124.114 233.966L124.114 233.966C124.311 234.38 124.508 234.794 124.704 235.208C127.596 241.294 130.42 247.463 132.226 253.973C133.977 260.284 134.529 266.783 133.733 273.286C132.38 284.325 127.798 294.605 123.301 304.695L123.296 304.708C122.862 305.681 122.429 306.653 121.999 307.624C116.846 319.276 112.415 331.139 111.192 343.92C110.021 356.149 111.671 369.096 117.973 379.828C123.398 389.068 132.225 396.52 142.41 399.945C153.154 403.558 164.568 401.876 173.805 395.28C189.867 383.812 194.916 365.232 199.885 346.943C201.917 339.465 203.936 332.036 206.689 325.161C209.205 318.861 212.436 312.828 216.644 307.488ZM200.207 342.875C203.668 330.191 207.766 317.502 216.003 307.025C216.007 307.017 216.012 307.009 216.017 307.001C216.021 306.995 216.025 306.99 216.029 306.985L216.032 306.981L216.039 306.972C219.932 302.117 224.637 297.907 230.222 295.091C235.792 292.284 241.938 291.163 248.073 290.045C255.329 288.722 262.571 287.401 268.83 283.296C279.001 276.626 283.894 264.318 284.742 252.579C285.739 238.762 282.197 224.776 278.826 211.469L278.655 210.794C275.001 196.356 270.521 182.126 265.251 168.196C262.602 161.19 259.75 154.261 256.702 147.418C253.908 141.145 251.078 134.82 247.599 128.889C244.46 123.536 240.645 118.449 235.59 114.763C230.99 111.41 225.542 109.52 219.91 108.885C208.586 107.607 197.171 110.832 186.454 114.134C176.783 117.114 167.119 120.118 157.455 123.122C152.766 124.58 148.077 126.037 143.387 127.492C141.084 128.206 138.78 128.919 136.476 129.632L136.469 129.635C131.576 131.149 126.683 132.663 121.794 134.189C115.946 136.016 108.776 138.347 106.129 144.459C105.035 146.984 104.738 150.031 105.784 152.623C106.289 153.873 107.137 154.724 108.036 155.626C108.233 155.824 108.433 156.025 108.632 156.232C109.607 157.249 110.471 158.377 111.214 159.573C114.601 165.026 115.471 171.682 115.346 177.989C115.283 181.209 114.973 184.414 114.664 187.62L114.664 187.62L114.664 187.62L114.664 187.62L114.664 187.62L114.664 187.62L114.664 187.621L114.664 187.621L114.664 187.621L114.664 187.621C114.315 191.236 113.967 194.85 113.971 198.485C113.977 205.23 115.534 211.767 117.891 218.056C119.765 223.052 122.074 227.876 124.384 232.7L124.384 232.7L124.384 232.701C127.758 239.748 131.132 246.794 133.142 254.371C134.658 260.084 135.216 265.951 134.673 271.842C134.15 277.517 132.69 283.06 130.825 288.43C128.803 294.25 126.298 299.874 123.793 305.498C121.446 310.767 119.099 316.037 117.15 321.468C108.947 344.324 108.212 373.327 127.947 390.619C136.099 397.76 147.038 402.239 157.98 400.847C170.344 399.275 180.149 390.36 186.534 380.143C192.928 369.912 196.076 358.211 199.186 346.652C199.526 345.391 199.865 344.131 200.207 342.875ZM229.28 285.607C223.373 288.044 218.453 292.223 214.484 297.174C210.686 301.994 207.77 307.441 205.493 313.13C203.006 319.34 201.182 326.05 199.346 332.805L199.346 332.805C194.856 349.329 190.294 366.114 175.779 376.478C167.428 382.441 157.108 383.963 147.393 380.698C138.182 377.603 130.201 370.866 125.295 362.512C119.597 352.811 118.106 341.106 119.164 330.05C120.27 318.503 124.272 307.784 128.929 297.258C129.317 296.381 129.708 295.504 130.099 294.625L130.102 294.619L130.104 294.614C134.165 285.503 138.302 276.221 139.523 266.253C140.244 260.385 139.744 254.521 138.164 248.828C136.533 242.947 133.98 237.376 131.37 231.878L131.027 231.158L130.836 230.755C125.802 220.171 120.705 209.454 120.982 197.452C121.047 194.62 121.32 191.799 121.594 188.978L121.594 188.977C121.93 185.509 122.266 182.041 122.215 178.554C122.123 172.249 120.752 165.383 116.094 160.789C114.464 159.181 113.349 157.66 113.064 155.315C112.795 153.109 113.279 150.79 114.309 148.829C116.909 143.876 122.748 141.743 127.754 140.155C136.595 137.351 145.46 134.621 154.325 131.892C158.754 130.527 163.183 129.163 167.609 127.79C169.765 127.122 171.921 126.451 174.077 125.78L174.084 125.778L174.092 125.776L174.099 125.773L174.107 125.771L174.114 125.769L174.141 125.76L174.168 125.752L174.178 125.749C178.543 124.391 182.907 123.033 187.277 121.691C192.223 120.171 197.217 118.764 202.313 117.828C212.061 116.038 222.599 116.143 231.113 121.842C240.383 128.048 245.302 138.931 249.775 148.826L249.776 148.829L249.804 148.891C249.997 149.319 250.19 149.745 250.382 150.169C256.1 162.781 261.077 175.726 265.281 188.919C269.364 201.728 272.91 214.826 275.298 228.065C277.351 239.445 277.973 251.546 273.141 262.341C271.063 266.985 268.033 271.249 264.049 274.446C259.349 278.215 253.571 279.974 247.756 281.169C246.256 281.477 244.744 281.753 243.232 282.03L243.23 282.03L243.229 282.031L243.227 282.031L243.226 282.031L243.224 282.032L243.222 282.032L243.221 282.032C238.488 282.898 233.741 283.767 229.28 285.607ZM213.882 296.66C206.415 306.137 202.704 317.623 199.572 329.105C199.265 330.23 198.962 331.359 198.658 332.489L198.657 332.491L198.657 332.493L198.656 332.494L198.656 332.496L198.655 332.498L198.655 332.5C195.846 342.943 193.002 353.514 187.226 362.757C181.466 371.973 172.619 380.018 161.467 381.437C151.593 382.692 141.724 378.652 134.368 372.207C116.555 356.6 117.221 330.42 124.626 309.792C126.387 304.884 128.508 300.122 130.629 295.361L130.629 295.36L130.629 295.36L130.629 295.36L130.629 295.359L130.629 295.359L130.63 295.359L130.63 295.358L130.63 295.358C132.891 290.281 135.152 285.205 136.977 279.952C138.662 275.098 139.984 270.09 140.456 264.96C140.947 259.632 140.443 254.328 139.072 249.16C137.258 242.317 134.211 235.954 131.163 229.59L131.163 229.589L131.163 229.589L131.163 229.589L131.163 229.589L131.163 229.588L131.163 229.588L131.163 229.588L131.162 229.587C129.076 225.23 126.989 220.872 125.297 216.358C123.169 210.681 121.764 204.779 121.758 198.691C121.754 195.408 122.069 192.144 122.384 188.879L122.384 188.879L122.384 188.879L122.384 188.878L122.384 188.878L122.384 188.877L122.384 188.877L122.384 188.876L122.384 188.876C122.663 185.981 122.942 183.087 122.999 180.178C123.112 174.476 122.324 168.456 119.259 163.526C118.586 162.442 117.803 161.422 116.92 160.501C116.742 160.315 116.564 160.136 116.388 159.959C115.578 159.148 114.815 158.382 114.359 157.257C113.417 154.926 113.685 152.185 114.669 149.911C117.057 144.4 123.524 142.301 128.796 140.654C133.043 139.328 137.293 138.012 141.543 136.697L141.545 136.696L141.547 136.696L141.556 136.693C143.804 135.997 146.052 135.301 148.3 134.604C152.535 133.29 156.769 131.974 161.003 130.658C169.733 127.944 178.463 125.23 187.2 122.539C196.873 119.559 207.178 116.647 217.4 117.799C222.479 118.373 227.394 120.077 231.544 123.101C236.108 126.429 239.55 131.021 242.386 135.854C245.527 141.206 248.082 146.918 250.604 152.58C253.357 158.76 255.932 165.021 258.326 171.348C263.085 183.932 267.131 196.783 270.434 209.825L270.59 210.441C273.632 222.452 276.83 235.075 275.93 247.546C275.165 258.139 270.751 269.247 261.573 275.268C255.922 278.975 249.382 280.167 242.829 281.362C237.289 282.371 231.74 283.383 226.711 285.917C221.659 288.462 217.405 292.269 213.882 296.66ZM212.326 286.859C215.865 282.445 220.25 278.715 225.517 276.544C229.497 274.903 233.73 274.128 237.951 273.355C239.309 273.106 240.666 272.858 242.013 272.581C247.208 271.513 252.372 269.941 256.572 266.572C260.135 263.713 262.845 259.901 264.703 255.748C269.021 246.102 268.467 235.291 266.633 225.123C264.5 213.298 261.334 201.599 257.687 190.158C253.934 178.38 249.489 166.82 244.384 155.56C244.204 155.163 244.024 154.764 243.842 154.362C239.846 145.521 235.449 135.794 227.168 130.249C219.556 125.153 210.137 125.055 201.422 126.655C196.868 127.491 192.407 128.749 187.986 130.106C183.964 131.34 179.946 132.591 175.928 133.841C174.094 134.412 172.26 134.982 170.426 135.551C166.554 136.752 162.68 137.945 158.805 139.139C150.81 141.601 142.814 144.063 134.841 146.592C130.359 148.013 125.141 149.925 122.811 154.36C121.89 156.118 121.456 158.196 121.694 160.172C121.952 162.277 122.951 163.644 124.415 165.088C128.565 169.182 129.783 175.303 129.865 180.921C129.91 184.034 129.61 187.131 129.31 190.228C129.066 192.747 128.822 195.266 128.763 197.795C128.517 208.517 133.07 218.09 137.566 227.545L137.568 227.55C137.726 227.881 137.883 228.212 138.041 228.544C140.372 233.453 142.65 238.427 144.107 243.677C145.516 248.752 145.96 253.981 145.32 259.212C144.228 268.112 140.535 276.399 136.909 284.533C136.559 285.319 136.21 286.103 135.863 286.886C131.703 296.288 128.128 305.862 127.142 316.177C126.196 326.06 127.529 336.521 132.621 345.193C137.007 352.662 144.144 358.682 152.379 361.448C161.064 364.366 170.291 363.004 177.757 357.674C190.725 348.415 194.8 333.424 198.813 318.664C200.452 312.634 202.081 306.642 204.302 301.095C206.335 296.021 208.936 291.16 212.326 286.859ZM198.937 315.334C201.731 305.089 205.042 294.842 211.695 286.382C211.699 286.375 211.704 286.368 211.709 286.361L211.712 286.357L211.722 286.344C214.87 282.417 218.676 279.015 223.193 276.74C227.681 274.479 232.634 273.577 237.579 272.675C243.428 271.609 249.266 270.545 254.311 267.237C262.497 261.869 266.429 251.96 267.112 242.512C267.915 231.389 265.063 220.128 262.349 209.415L262.207 208.854C259.26 197.209 255.647 185.733 251.396 174.498C249.259 168.847 246.96 163.259 244.502 157.741C242.251 152.689 239.972 147.593 237.169 142.816C234.641 138.505 231.571 134.407 227.497 131.437C223.798 128.741 219.415 127.224 214.888 126.713C205.769 125.683 196.574 128.284 187.945 130.943C180.224 133.322 172.508 135.721 164.792 138.119C160.932 139.319 157.073 140.518 153.213 141.716C151.191 142.343 149.168 142.969 147.146 143.595L147.131 143.6C143.353 144.769 139.574 145.938 135.798 147.117C131.103 148.583 125.336 150.45 123.209 155.361C122.335 157.38 122.098 159.815 122.935 161.887C123.338 162.882 124.014 163.56 124.73 164.278L124.73 164.278L124.73 164.278C124.889 164.437 125.049 164.597 125.209 164.764C126.001 165.59 126.702 166.503 127.305 167.474C130.043 171.883 130.752 177.264 130.651 182.363C130.6 184.962 130.351 187.548 130.101 190.134L130.101 190.134C129.82 193.048 129.539 195.962 129.542 198.893C129.548 204.326 130.8 209.589 132.7 214.656C134.211 218.685 136.074 222.576 137.936 226.466C140.658 232.15 143.378 237.833 144.999 243.943C146.227 248.566 146.677 253.308 146.238 258.074C145.815 262.658 144.634 267.133 143.127 271.471C141.497 276.164 139.477 280.698 137.458 285.232C135.564 289.483 133.671 293.734 132.098 298.115C125.494 316.514 124.897 339.872 140.786 353.793C147.345 359.541 156.146 363.145 164.951 362.024C174.893 360.76 182.782 353.585 187.915 345.37C193.07 337.124 195.608 327.693 198.114 318.376L198.115 318.375C198.388 317.359 198.661 316.345 198.937 315.334ZM221.756 267.48C217.128 269.389 213.277 272.666 210.167 276.544C207.186 280.327 204.9 284.601 203.115 289.066C201.159 293.949 199.725 299.224 198.282 304.532L198.281 304.533C194.748 317.526 191.16 330.721 179.739 338.874C173.159 343.572 165.026 344.772 157.371 342.203C150.114 339.766 143.82 334.462 139.954 327.879C135.465 320.234 134.29 311.019 135.124 302.307C135.993 293.228 139.142 284.797 142.804 276.519C143.092 275.868 143.383 275.216 143.674 274.564L143.69 274.526L143.707 274.488L143.719 274.462L143.72 274.459C146.912 267.302 150.163 260.01 151.123 252.178C151.688 247.583 151.295 242.988 150.058 238.531C148.776 233.91 146.771 229.533 144.719 225.213C144.581 224.922 144.443 224.631 144.305 224.341C140.345 216.014 136.336 207.583 136.552 198.141C136.603 195.913 136.818 193.694 137.033 191.475C137.297 188.752 137.56 186.029 137.521 183.29C137.449 178.36 136.382 172.985 132.741 169.39C131.442 168.109 130.557 166.897 130.33 165.031C130.118 163.286 130.501 161.446 131.316 159.893C133.371 155.978 137.971 154.289 141.929 153.034C148.957 150.804 156.006 148.633 163.054 146.463L163.065 146.459L163.077 146.455L163.089 146.452C166.476 145.409 169.862 144.366 173.245 143.317C174.898 142.804 176.551 142.29 178.203 141.776L178.206 141.775L178.21 141.774L178.213 141.773L178.216 141.772L178.22 141.77L178.223 141.769C181.714 140.683 185.204 139.597 188.699 138.524C192.594 137.327 196.525 136.22 200.536 135.484C208.219 134.073 216.516 134.165 223.226 138.658C230.523 143.545 234.395 152.113 237.916 159.903L238.177 160.479L238.391 160.953C242.885 170.862 246.795 181.035 250.098 191.401C253.308 201.472 256.096 211.772 257.973 222.181C259.588 231.14 260.072 240.661 256.27 249.157C254.631 252.819 252.24 256.18 249.097 258.7C245.399 261.666 240.849 263.053 236.273 263.993C235.091 264.236 233.899 264.454 232.707 264.672L232.706 264.672C228.989 265.353 225.262 266.035 221.756 267.48ZM209.549 276.051C203.683 283.504 200.765 292.534 198.301 301.562C198.061 302.444 197.823 303.329 197.584 304.214C195.378 312.418 193.144 320.723 188.607 327.984C184.099 335.198 177.168 341.502 168.438 342.614C160.701 343.598 152.97 340.432 147.206 335.381C133.241 323.146 133.767 302.611 139.573 286.441C140.956 282.588 142.621 278.85 144.286 275.112L144.286 275.111C146.064 271.118 147.843 267.125 149.278 262.993C150.605 259.172 151.647 255.23 152.019 251.193C152.407 246.99 152.011 242.81 150.928 238.733C149.502 233.357 147.108 228.358 144.714 223.357L144.714 223.357C143.075 219.932 141.435 216.507 140.105 212.959C138.434 208.504 137.333 203.877 137.328 199.1C137.325 196.52 137.572 193.955 137.82 191.391C138.039 189.115 138.258 186.84 138.303 184.554C138.392 180.056 137.765 175.314 135.35 171.427C134.817 170.569 134.196 169.762 133.498 169.034C133.358 168.889 133.218 168.748 133.079 168.61L133.079 168.609C132.453 167.983 131.863 167.391 131.51 166.522C130.778 164.712 130.986 162.581 131.751 160.816C133.616 156.507 138.683 154.871 142.802 153.585C146.398 152.462 149.998 151.348 153.597 150.234L153.613 150.23C155.118 149.764 156.623 149.298 158.127 148.832C161.523 147.779 164.919 146.723 168.315 145.667L168.326 145.664C175.113 143.554 181.9 141.445 188.693 139.352C196.278 137.015 204.363 134.727 212.378 135.631C216.355 136.079 220.205 137.41 223.453 139.778C227.034 142.389 229.732 145.991 231.956 149.782C234.421 153.982 236.424 158.461 238.402 162.905C240.564 167.761 242.589 172.679 244.47 177.652C248.21 187.539 251.389 197.639 253.983 207.885L254.111 208.391C256.495 217.806 259.002 227.705 258.297 237.481C257.697 245.782 254.246 254.491 247.051 259.21C242.615 262.12 237.478 263.056 232.332 263.994C227.982 264.786 223.626 265.579 219.679 267.567C215.696 269.572 212.339 272.571 209.563 276.033C209.558 276.039 209.554 276.045 209.549 276.051ZM208.007 266.23C210.687 262.889 214.004 260.063 217.993 258.418C221.019 257.17 224.238 256.581 227.448 255.994L227.449 255.993L227.45 255.993L227.451 255.993L227.451 255.993L227.452 255.993C228.482 255.804 229.51 255.616 230.531 255.406C234.488 254.592 238.421 253.394 241.619 250.829C244.34 248.646 246.411 245.737 247.831 242.565C251.12 235.219 250.703 226.987 249.307 219.241C247.684 210.246 245.278 201.346 242.503 192.642C239.65 183.689 236.273 174.903 232.392 166.346L232.186 165.891L231.983 165.442C228.939 158.705 225.589 151.295 219.278 147.067C213.473 143.179 206.294 143.092 199.643 144.314C196.174 144.95 192.774 145.908 189.405 146.941C186.226 147.918 183.051 148.906 179.875 149.894C178.603 150.29 177.331 150.686 176.059 151.081C173.12 151.992 170.179 152.898 167.238 153.804L167.234 153.805L167.21 153.812L167.207 153.813C161.137 155.683 155.066 157.552 149.011 159.472C145.578 160.561 141.597 162.029 139.814 165.424C139.107 166.772 138.772 168.371 138.956 169.889C139.154 171.515 139.926 172.575 141.057 173.691C144.191 176.786 145.105 181.416 145.166 185.657C145.201 188.024 144.973 190.378 144.744 192.733C144.559 194.647 144.373 196.561 144.329 198.483C144.141 206.649 147.609 213.941 151.034 221.14L151.034 221.141L151.385 221.878C153.156 225.609 154.888 229.39 155.996 233.381C157.061 237.221 157.399 241.181 156.914 245.139C156.086 251.893 153.283 258.183 150.531 264.357C150.264 264.956 149.998 265.553 149.734 266.149C146.569 273.302 143.849 280.588 143.097 288.435C142.376 295.975 143.393 303.945 147.278 310.561C150.623 316.257 156.073 320.85 162.354 322.954C168.981 325.174 176.018 324.137 181.714 320.07C191.588 313.022 194.689 301.622 197.744 290.393C198.992 285.808 200.231 281.251 201.921 277.031C203.464 273.18 205.436 269.493 208.007 266.23ZM197.666 287.792C199.794 279.989 202.318 272.185 207.386 265.741C207.392 265.733 207.398 265.725 207.404 265.717C209.81 262.719 212.716 260.124 216.165 258.389C219.573 256.674 223.333 255.989 227.087 255.305L227.088 255.305C231.531 254.496 235.965 253.688 239.793 251.177C245.996 247.11 248.968 239.602 249.483 232.446C250.091 224.016 247.929 215.48 245.873 207.361L245.759 206.913C243.519 198.063 240.773 189.34 237.542 180.802C235.918 176.508 234.169 172.26 232.302 168.066C230.596 164.233 228.867 160.368 226.742 156.745C224.823 153.474 222.496 150.368 219.406 148.115C216.608 146.074 213.29 144.931 209.865 144.545C202.953 143.765 195.979 145.741 189.438 147.756C183.661 149.536 177.889 151.331 172.117 153.125C169.091 154.065 166.066 155.005 163.04 155.944C161.59 156.394 160.14 156.843 158.689 157.292L158.664 157.3L158.638 157.308L158.628 157.311C155.686 158.221 152.745 159.132 149.804 160.05C146.26 161.156 141.895 162.56 140.29 166.267C139.635 167.777 139.457 169.603 140.085 171.154C140.385 171.893 140.889 172.397 141.421 172.93C141.542 173.051 141.664 173.173 141.785 173.3C142.393 173.932 142.932 174.632 143.395 175.377C145.486 178.743 146.032 182.847 145.955 186.741C145.916 188.716 145.726 190.682 145.536 192.648C145.323 194.863 145.109 197.077 145.111 199.304C145.117 203.426 146.066 207.417 147.507 211.26C148.656 214.322 150.071 217.279 151.487 220.236C153.555 224.557 155.623 228.876 156.855 233.52C157.79 237.051 158.134 240.67 157.799 244.309C157.477 247.801 156.574 251.21 155.427 254.514C154.188 258.081 152.653 261.527 151.117 264.974C149.679 268.205 148.24 271.435 147.044 274.765C142.04 288.708 141.582 306.418 153.624 316.968C158.593 321.321 165.253 324.05 171.924 323.202C179.442 322.245 185.414 316.812 189.298 310.598C193.213 304.333 195.141 297.169 197.045 290.091C197.252 289.323 197.458 288.557 197.666 287.792ZM214.438 249.272C210.999 250.645 208.149 253.05 205.849 255.915C203.685 258.664 202.028 261.765 200.731 265.007C199.307 268.565 198.262 272.402 197.21 276.263L197.21 276.263C194.635 285.718 192.023 295.31 183.705 301.261C178.951 304.662 173.057 305.571 167.505 303.757C162.171 302.015 157.539 298.161 154.676 293.353C151.4 287.848 150.501 281.205 151.049 274.905C151.624 268.281 153.88 262.109 156.544 256.073C156.804 255.483 157.067 254.892 157.331 254.3C159.616 249.175 161.938 243.967 162.68 238.37C163.12 235.058 162.884 231.736 162.021 228.51C161.125 225.156 159.689 221.979 158.208 218.85C158.117 218.659 158.026 218.467 157.935 218.275L157.694 217.768C154.881 211.847 152.022 205.833 152.112 199.125C152.135 197.403 152.301 195.689 152.467 193.975L152.467 193.974C152.657 192.012 152.847 190.05 152.822 188.077C152.779 184.509 152.022 180.594 149.383 177.99C148.458 177.078 147.806 176.211 147.611 174.885C147.424 173.62 147.674 172.287 148.227 171.139C149.611 168.263 152.887 166.949 155.737 166.027C160.851 164.37 165.994 162.797 171.137 161.224L171.14 161.223C173.667 160.45 176.194 159.677 178.718 158.894C179.951 158.511 181.184 158.128 182.417 157.745L182.474 157.727L182.488 157.723C184.986 156.946 187.483 156.17 189.984 155.4C192.805 154.531 195.652 153.725 198.557 153.178C204.172 152.122 210.258 152.14 215.193 155.382C220.564 158.912 223.398 165.146 225.981 170.826L225.99 170.846L226.103 171.095L226.251 171.419C229.522 178.598 232.37 185.969 234.782 193.48C237.146 200.846 239.184 208.376 240.587 215.989C241.799 222.556 242.209 229.537 239.474 235.796C238.314 238.454 236.615 240.895 234.382 242.762C231.752 244.958 228.491 246.035 225.185 246.736C224.204 246.944 223.215 247.126 222.225 247.307L222.224 247.307C219.584 247.79 216.938 248.274 214.438 249.272ZM205.223 255.432C201 260.813 198.867 267.308 197.086 273.819C197.007 274.106 196.929 274.393 196.852 274.681C196.735 275.11 196.62 275.541 196.504 275.972C194.934 281.811 193.346 287.716 190.173 292.912C186.928 298.224 181.892 302.927 175.501 303.777C169.887 304.523 164.271 302.244 160.079 298.585C149.922 289.721 150.307 274.796 154.528 263.063C155.532 260.27 156.738 257.561 157.945 254.852L157.945 254.851L157.945 254.851L157.945 254.85L157.946 254.85C159.218 251.991 160.491 249.133 161.527 246.178C163.529 240.465 164.374 234.584 162.868 228.642C161.845 224.607 160.053 220.865 158.261 217.123C157.124 214.749 155.987 212.374 155.046 209.924C153.816 206.721 152.956 203.386 152.898 199.938C152.865 197.91 153.059 195.895 153.253 193.878L153.253 193.878L153.253 193.878L153.253 193.878L153.253 193.877C153.4 192.344 153.548 190.81 153.596 189.27C153.696 186.015 153.299 182.606 151.674 179.729C151.284 179.04 150.823 178.397 150.293 177.81C150.134 177.632 149.963 177.467 149.792 177.302L149.791 177.302C149.435 176.958 149.081 176.616 148.839 176.172C148.128 174.874 148.228 173.219 148.762 171.879C150.037 168.676 153.765 167.467 156.771 166.527C159.153 165.782 161.538 165.044 163.923 164.306L163.959 164.295C165.256 163.894 166.554 163.492 167.852 163.089C170.317 162.324 172.782 161.559 175.246 160.793C180.17 159.264 185.094 157.734 190.021 156.213C195.534 154.51 201.407 152.822 207.238 153.447C210.145 153.759 212.967 154.713 215.344 156.44C217.93 158.32 219.88 160.911 221.488 163.643C223.271 166.667 224.715 169.894 226.144 173.097C227.71 176.603 229.174 180.155 230.537 183.746C233.263 190.927 235.581 198.262 237.475 205.707L237.591 206.16L237.591 206.16L237.591 206.161C239.338 213.025 241.177 220.249 240.672 227.374C240.246 233.37 237.782 239.652 232.611 243.095C229.371 245.253 225.599 245.941 221.818 246.631C218.618 247.215 215.412 247.8 212.517 249.279C209.657 250.739 207.249 252.908 205.246 255.4C205.238 255.411 205.23 255.421 205.223 255.432ZM203.69 245.6C205.553 243.287 207.851 241.339 210.631 240.226C212.662 239.414 214.812 239.021 216.958 238.629C217.797 238.475 218.635 238.322 219.464 238.144C222.156 237.567 224.805 236.669 226.934 234.862C228.774 233.301 230.16 231.269 231.1 229.056C233.248 223.995 232.908 218.377 231.932 213.087C230.788 206.885 229.128 200.751 227.2 194.75C225.214 188.57 222.864 182.506 220.163 176.605L220.012 176.275C217.898 171.653 215.581 166.589 211.171 163.739C207.128 161.125 202.149 161.147 197.576 162.022C193.412 162.82 189.336 164.141 185.285 165.455L185.283 165.455C183.981 165.877 182.681 166.299 181.382 166.701C179.359 167.329 177.333 167.948 175.306 168.567L175.306 168.567L175.306 168.567L175.306 168.567C171.138 169.841 166.969 171.114 162.826 172.463C160.52 173.214 157.909 174.286 156.767 176.593C155.836 178.477 156.016 180.675 157.554 182.147C161.108 185.552 160.622 190.642 160.177 195.311C160.058 196.553 159.942 197.765 159.906 198.908C159.723 204.679 162.16 209.799 164.581 214.886L164.581 214.886L164.629 214.988C167.056 220.089 169.225 225.321 168.509 231.089C167.936 235.704 166.022 239.995 164.14 244.215L164.14 244.215C163.928 244.69 163.717 245.164 163.508 245.637C161.33 250.573 159.486 255.621 159.026 261.04C158.592 266.161 159.331 271.56 162.001 276.029C164.335 279.936 168.098 283.067 172.434 284.489C176.967 285.975 181.776 285.24 185.663 282.471C192.45 277.635 194.581 269.814 196.681 262.111C197.525 259.013 198.364 255.934 199.498 253.076C200.558 250.409 201.914 247.862 203.69 245.6ZM196.501 259.866C197.936 254.645 199.673 249.461 203.047 245.14C203.052 245.131 203.057 245.122 203.063 245.113C203.07 245.103 203.078 245.093 203.086 245.083C204.728 243.043 206.697 241.274 209.042 240.079C211.388 238.884 213.985 238.411 216.578 237.938C219.652 237.378 222.718 236.82 225.35 235.061C229.64 232.196 231.614 226.93 231.878 221.954C232.183 216.205 230.699 210.404 229.284 204.869L229.212 204.587C227.668 198.549 225.781 192.6 223.563 186.776C222.453 183.864 221.262 180.984 219.99 178.139C218.833 175.554 217.663 172.945 216.214 170.507C214.904 168.303 213.316 166.222 211.215 164.719C209.261 163.321 206.943 162.574 204.566 162.344C199.782 161.881 194.985 163.307 190.466 164.708C184.601 166.526 178.738 168.345 172.874 170.165L172.515 170.276C171.57 170.569 170.625 170.861 169.68 171.153C167.653 171.779 165.626 172.405 163.601 173.042C161.136 173.818 158.088 174.872 157.211 177.589C156.863 178.67 156.851 179.983 157.52 180.949C157.714 181.229 157.962 181.468 158.209 181.707C158.38 181.872 158.55 182.036 158.703 182.213C159.112 182.69 159.465 183.212 159.764 183.765C161.014 186.08 161.328 188.775 161.252 191.37C161.214 192.631 161.093 193.887 160.972 195.143L160.972 195.143L160.972 195.143L160.972 195.144C160.822 196.708 160.671 198.272 160.682 199.845C160.7 202.644 161.364 205.351 162.349 207.958C163.128 210.021 164.083 212.016 165.038 214.01L165.038 214.01C166.452 216.963 167.865 219.916 168.708 223.091C169.984 227.893 169.4 232.649 167.816 237.3C166.951 239.839 165.861 242.288 164.771 244.737L164.771 244.737L164.77 244.738L164.77 244.738C163.83 246.851 162.889 248.964 162.092 251.136C158.592 260.686 158.187 272.91 166.48 280.158C169.879 283.13 174.437 284.981 178.993 284.366C184.224 283.662 188.323 279.762 190.942 275.397C193.444 271.227 194.71 266.514 195.964 261.848L195.964 261.848C196.142 261.186 196.32 260.524 196.501 259.866ZM207.209 231.034C204.919 231.867 203.049 233.407 201.53 235.286C200.143 237.059 199.089 239.054 198.271 241.143C197.424 243.305 196.791 245.627 196.153 247.962L196.153 247.963C194.529 253.911 192.88 259.951 187.626 263.681C184.641 265.8 180.948 266.375 177.464 265.254C174.087 264.167 171.147 261.743 169.329 258.708C164.969 251.429 167.224 242.588 170.404 235.363C170.585 234.952 170.769 234.54 170.953 234.127C172.373 230.944 173.814 227.714 174.284 224.242C174.895 219.714 173.195 215.633 171.289 211.628C169.427 207.716 167.556 203.781 167.687 199.346C167.716 198.385 167.809 197.427 167.902 196.469L167.902 196.469L167.902 196.468C168.029 195.163 168.155 193.858 168.119 192.546C168.085 191.331 167.92 190.114 167.499 188.97C167.088 187.854 166.441 187.086 165.649 186.232C164.607 185.109 164.635 183.355 165.305 182.049C166.199 180.308 168.156 179.481 169.915 178.901C173.178 177.825 176.47 176.824 179.76 175.823C181.358 175.337 182.955 174.852 184.548 174.357C185.52 174.056 186.493 173.741 187.467 173.425L187.468 173.425C190.599 172.41 193.751 171.388 196.975 170.797C200.478 170.156 204.252 170.204 207.326 172.214C210.695 174.417 212.47 178.295 214.093 181.841L214.201 182.076C216.323 186.707 218.164 191.466 219.712 196.319C221.181 200.922 222.453 205.63 223.313 210.388C224.049 214.467 224.267 218.794 222.572 222.674C221.857 224.311 220.819 225.813 219.462 226.983C217.865 228.36 215.882 229.075 213.851 229.528C213.137 229.687 212.415 229.819 211.694 229.951L211.694 229.951C210.177 230.229 208.661 230.506 207.209 231.034ZM200.903 234.805C197.994 238.541 196.782 242.978 195.569 247.423C194.586 251.026 193.601 254.634 191.708 257.879C189.715 261.295 186.556 264.395 182.483 264.955C178.945 265.442 175.412 263.984 172.793 261.655C166.409 255.974 166.907 246.458 169.698 239.106C170.276 237.583 170.938 236.093 171.6 234.604C172.468 232.652 173.336 230.7 174.015 228.671C175.191 225.156 175.601 221.554 174.649 217.932C174.002 215.474 172.909 213.189 171.815 210.904L171.815 210.904L171.815 210.904C171.119 209.451 170.424 207.998 169.844 206.5C169.071 204.506 168.518 202.437 168.47 200.289C168.441 198.987 168.566 197.692 168.69 196.397C168.771 195.563 168.851 194.728 168.89 193.892C168.985 191.84 168.802 189.697 167.866 187.837C167.46 187.029 166.916 186.423 166.307 185.774C165.617 185.04 165.49 184.056 165.744 183.1C166.327 180.915 168.773 180.09 170.693 179.484C172.22 179.002 173.751 178.53 175.281 178.058C176.047 177.821 176.813 177.585 177.578 177.348C178.477 177.069 179.376 176.79 180.274 176.511L182.218 175.908L182.229 175.904L182.241 175.9C185.305 174.949 188.37 173.997 191.435 173.05C194.88 171.985 198.545 170.906 202.191 171.277C204.03 171.464 205.816 172.063 207.313 173.164C208.94 174.362 210.154 176.014 211.16 177.746C213.465 181.715 215.196 186.11 216.812 190.395C218.499 194.869 219.933 199.439 221.103 204.075L221.185 204.4C222.272 208.7 223.421 213.247 223.008 217.705C222.662 221.433 221.012 225.3 217.688 227.291C215.741 228.456 213.531 228.859 211.318 229.262C209.3 229.63 207.278 229.998 205.449 230.946C203.67 231.869 202.182 233.221 200.928 234.771C200.923 234.778 200.918 234.784 200.913 234.791C200.91 234.796 200.906 234.8 200.903 234.805ZM199.372 224.972C200.455 223.639 201.771 222.566 203.405 221.993C204.391 221.646 205.416 221.459 206.442 221.271L206.442 221.271C207.007 221.167 207.571 221.064 208.129 220.934C210.938 220.279 213.084 218.63 214.196 215.937C215.343 213.159 215.145 210.1 214.602 207.209C213.971 203.848 213.074 200.526 212.023 197.273C210.952 193.955 209.684 190.699 208.228 187.531L208.182 187.431C207.023 184.908 205.759 182.154 203.344 180.602C201.154 179.195 198.471 179.18 195.991 179.645C193.719 180.072 191.496 180.792 189.288 181.507L189.286 181.508C188.593 181.732 187.902 181.956 187.211 182.171C186.099 182.516 184.981 182.85 183.863 183.185C181.522 183.886 179.178 184.588 176.874 185.386C175.683 185.798 174.383 186.413 173.796 187.604C173.348 188.513 173.314 189.708 173.976 190.524C174.1 190.677 174.224 190.819 174.345 190.957C174.691 191.352 175.015 191.722 175.245 192.26C175.571 193.021 175.711 193.845 175.758 194.667C175.816 195.689 175.718 196.706 175.62 197.723C175.558 198.362 175.497 199.001 175.474 199.641C175.36 202.807 176.681 205.602 178.009 208.394C179.337 211.188 180.526 214.043 180.081 217.201C179.742 219.613 178.743 221.851 177.754 224.065L177.753 224.066C177.574 224.468 177.394 224.87 177.22 225.271C175.009 230.345 173.592 236.66 176.823 241.655C179.53 245.84 185.181 247.951 189.528 244.933C193.292 242.322 194.465 238.039 195.619 233.824C196.064 232.2 196.506 230.587 197.092 229.083C197.663 227.614 198.403 226.218 199.372 224.972ZM198.77 224.458C198.778 224.448 198.785 224.439 198.793 224.431C199.663 223.368 200.684 222.438 201.902 221.79C203.203 221.099 204.644 220.835 206.084 220.571L206.084 220.571C207.626 220.289 209.165 220.007 210.525 219.201C212.956 217.76 214.08 214.855 214.232 212.146C214.405 209.084 213.615 205.99 212.862 203.042L212.814 202.853C212.002 199.673 211.014 196.538 209.854 193.468C208.735 190.506 207.539 187.467 205.95 184.721C204.536 182.276 202.54 180.454 199.632 180.188C197.032 179.951 194.436 180.756 191.981 181.518L191.981 181.518L191.953 181.526C190.395 182.009 188.837 182.493 187.279 182.976C185.65 183.482 184.02 183.987 182.391 184.493C181.842 184.663 181.292 184.833 180.742 185.002C179.711 185.319 178.68 185.637 177.652 185.964C176.235 186.416 174.41 187.087 174.27 188.816C174.212 189.521 174.509 189.925 174.971 190.409C175.41 190.871 175.743 191.415 175.991 192C176.54 193.3 176.613 194.75 176.534 196.14C176.505 196.655 176.455 197.17 176.406 197.684C176.309 198.701 176.211 199.719 176.267 200.74C176.349 202.231 176.783 203.663 177.342 205.039C177.718 205.965 178.152 206.871 178.586 207.776L178.586 207.777C179.403 209.481 180.22 211.186 180.654 213.032C181.623 217.152 180.003 220.855 178.392 224.536L178.392 224.536C177.936 225.579 177.481 226.619 177.086 227.667C175.153 232.784 174.832 239.411 179.308 243.326C181.177 244.961 183.711 245.956 186.208 245.507C189.032 244.997 191.164 242.732 192.494 240.316C193.701 238.121 194.36 235.716 195.018 233.315L195.018 233.315C195.872 230.198 196.723 227.089 198.77 224.458ZM199.603 212.95C198.625 213.269 197.862 213.872 197.213 214.657C196.086 216.133 195.589 217.919 195.094 219.7C194.489 221.875 193.886 224.043 192.14 225.627C189.538 227.986 185.705 226.901 183.969 224.049C182.2 221.141 182.992 217.572 184.263 214.651C184.366 214.413 184.473 214.176 184.579 213.937C185.163 212.633 185.755 211.309 185.911 209.882C186.109 208.083 185.343 206.468 184.594 204.887C184.539 204.771 184.484 204.656 184.429 204.54C183.632 202.846 183.142 201.258 183.294 199.372C183.308 199.202 183.324 199.03 183.341 198.858C183.419 198.043 183.498 197.214 183.299 196.413C183.168 195.884 182.922 195.506 182.572 195.109C182.389 194.901 182.247 194.718 182.167 194.447C181.735 192.973 183.175 192.088 184.35 191.695C185.7 191.243 187.064 190.831 188.428 190.419C189.108 190.213 189.788 190.008 190.465 189.798C190.844 189.68 191.24 189.547 191.649 189.409C194.187 188.556 197.217 187.538 199.531 189.097C200.887 190.011 201.606 191.566 202.268 193.004C203.121 194.853 203.862 196.754 204.487 198.692C205.094 200.574 205.613 202.499 205.971 204.445C206.271 206.069 206.367 207.775 205.756 209.342C205.206 210.755 204.133 211.802 202.682 212.256C202.192 212.409 201.686 212.5 201.181 212.591C200.649 212.686 200.118 212.782 199.603 212.95ZM196.649 214.1C197.86 212.66 199.321 212.154 201.129 211.806C202.162 211.608 203.215 211.38 204.001 210.626C204.612 210.039 205.008 209.249 205.223 208.437C205.713 206.586 205.243 204.592 204.811 202.777C204.339 200.796 203.748 198.843 203.043 196.932C202.413 195.23 201.727 193.509 200.861 191.913C200.093 190.501 199.036 189.339 197.365 189.131C195.882 188.946 194.381 189.411 192.98 189.846L192.922 189.863C191.869 190.189 190.817 190.516 189.764 190.843C189.06 191.061 188.356 191.28 187.652 191.498C187.322 191.6 186.992 191.702 186.662 191.804C186.064 191.988 185.466 192.172 184.871 192.361L184.792 192.386C184.029 192.628 182.906 192.983 182.907 193.946C182.908 194.295 183.094 194.501 183.294 194.722C183.376 194.813 183.461 194.906 183.536 195.014C183.726 195.284 183.873 195.59 183.977 195.903C184.194 196.555 184.234 197.258 184.203 197.939C184.188 198.276 184.156 198.612 184.124 198.948C184.074 199.462 184.025 199.977 184.038 200.495C184.06 201.325 184.273 202.12 184.571 202.891C184.804 203.494 185.084 204.079 185.364 204.663C185.796 205.568 186.229 206.472 186.488 207.444C187.159 209.968 186.178 212.224 185.196 214.482C185.058 214.801 184.919 215.12 184.785 215.44C183.554 218.38 182.985 222.306 185.541 224.743C186.578 225.73 188.038 226.371 189.484 226.127C191.155 225.845 192.381 224.457 193.121 223.018C193.741 221.81 194.101 220.513 194.46 219.22C194.954 217.441 195.447 215.668 196.612 214.143C196.624 214.127 196.636 214.113 196.649 214.1Z" fill="url(#paint0_linear_816_118)"/>
<defs>
<linearGradient id="paint0_linear_816_118" x1="296.411" y1="56.7195" x2="137.049" y2="517.858" gradientUnits="userSpaceOnUse">
<stop offset="0.190013" stop-color="#6F2BAE"/>
<stop offset="0.489262" stop-color="#D9FF43" stop-opacity="0.18"/>
<stop offset="0.995488" stop-color="#6527A3"/>
</linearGradient>
</defs>
</svg>
