<svg width="277" height="483" viewBox="0 0 277 483" fill="none" xmlns="http://www.w3.org/2000/svg">
<path d="M134.716 482.314C147.681 460.959 152.481 438.491 142.588 416.364C140.916 412.626 138.739 407.773 136.581 402.966C98.6882 318.538 69.7663 254.098 95.0893 187.752C113.899 138.471 228.571 105.764 294.531 90.761L294.314 90.1296C228.232 105.174 113.37 137.985 94.4644 187.513C69.0424 254.116 98.0143 318.666 135.972 403.238C137.774 407.252 139.604 411.331 141.977 416.637C151.701 438.387 147.091 460.492 134.449 481.54L134.715 482.315L134.716 482.314Z" fill="url(#paint0_linear_1080_1833)"/>
<path d="M132.037 474.525C149.51 450.435 157.498 424.598 146.148 399.212C144.492 395.506 142.301 390.625 140.14 385.813C102.248 301.386 73.3238 236.945 98.6483 170.598C116.651 123.436 222.453 91.4522 289.331 75.6405L289.114 75.0105C222.115 90.8668 116.118 122.958 98.0252 170.36C72.6031 236.963 101.576 301.515 139.534 386.085C141.333 390.093 143.15 394.143 145.538 399.483C156.723 424.5 148.944 449.985 131.787 473.791L132.039 474.524L132.037 474.525Z" fill="url(#paint1_linear_1080_1833)"/>
<path d="M129.038 465.804C150.919 439.371 162.397 410.431 149.709 382.051C148.044 378.329 145.861 373.463 143.701 368.653C105.809 284.226 76.8851 219.785 102.209 153.438C119.446 108.284 217.168 77.0426 284.154 60.5858L283.938 59.9584C216.83 76.4618 118.91 107.811 101.586 153.2C76.1644 219.803 105.137 284.354 143.094 368.925C144.895 372.936 146.719 377 149.098 382.323C161.623 410.334 150.37 438.935 128.798 465.106L129.038 465.804Z" fill="url(#paint2_linear_1080_1833)"/>
<path d="M126.224 457.617C151.863 429.385 166.62 397.873 152.829 367.025C151.169 363.314 148.98 358.437 146.822 353.628C108.929 269.201 80.0054 204.76 105.33 138.413C121.92 94.9453 213.098 64.3706 279.643 47.4664L279.428 46.8404C212.759 63.7935 121.384 94.4773 104.705 138.174C79.2829 204.777 108.255 269.328 146.213 353.9C148.014 357.911 149.832 361.964 152.217 367.298C165.845 397.778 151.326 428.953 125.991 456.94L126.224 457.617Z" fill="url(#paint3_linear_1080_1833)"/>
<path d="M123.362 449.294C152.537 419.511 170.667 385.603 155.85 352.464C154.181 348.731 152 343.872 149.843 339.066C111.95 254.639 83.0262 190.198 108.351 123.85C124.338 81.9691 209.568 52.0581 275.291 34.8101L275.076 34.1855C209.227 51.4847 123.799 81.5067 107.728 123.613C82.3055 190.216 111.277 254.766 149.235 339.338C151.038 343.353 152.864 347.424 155.24 352.737C169.891 385.504 152.011 419.077 123.132 448.627L123.362 449.294Z" fill="url(#paint4_linear_1080_1833)"/>
<path d="M120.306 440.406C152.996 409.207 174.79 372.917 158.956 337.502C157.288 333.769 155.106 328.91 152.949 324.104C115.056 239.677 86.1326 175.236 111.457 108.888C125.843 71.1986 196.311 43.2037 258.174 25.4054L254.76 25.7106C193.555 43.6046 125.051 71.4034 110.834 108.651C85.4119 175.254 114.384 239.805 152.342 324.376C154.144 328.391 155.97 332.462 158.346 337.773C174.011 372.813 152.479 408.77 120.079 439.747L120.306 440.406Z" fill="url(#paint5_linear_1080_1833)"/>
<path d="M117.329 431.752C153.22 399.367 178.661 360.871 161.89 323.362C160.229 319.646 158.041 314.772 155.883 309.964C117.99 225.536 89.0665 161.095 114.391 94.7481C124.422 68.4689 161.725 46.9019 204.359 30.2166L202.114 30.4173C160.165 47.063 123.703 68.4773 113.766 94.5096C88.344 161.113 117.316 225.664 155.274 310.234C157.075 314.247 158.895 318.305 161.278 323.632C177.879 360.764 152.713 398.925 117.103 431.098L117.328 431.752L117.329 431.752Z" fill="url(#paint6_linear_1080_1833)"/>
<path d="M114.02 422.128C153.234 388.617 182.832 347.781 165.069 308.047C163.4 304.314 161.218 299.455 159.061 294.649C121.168 210.222 92.2448 145.781 117.569 79.4335C124.196 62.0752 142.728 46.7715 166.831 33.5727L165.286 33.7102C141.65 46.8311 123.508 62.0055 116.947 79.1972C91.5245 145.8 120.497 210.352 158.454 294.922C160.257 298.937 162.084 303.008 164.458 308.32C182.05 347.667 152.739 388.172 113.797 421.48L114.02 422.128Z" fill="url(#paint7_linear_1080_1833)"/>
<defs>
<linearGradient id="paint0_linear_1080_1833" x1="155.923" y1="417.315" x2="220.439" y2="62.009" gradientUnits="userSpaceOnUse">
<stop stop-color="#020202"/>
<stop offset="0.544795" stop-color="#FF6100" stop-opacity="0.78"/>
<stop offset="1" stop-color="#020202"/>
</linearGradient>
<linearGradient id="paint1_linear_1080_1833" x1="152.871" y1="408.439" x2="221.634" y2="48.0859" gradientUnits="userSpaceOnUse">
<stop stop-color="#020202"/>
<stop offset="0.544795" stop-color="#FF6100" stop-opacity="0.78"/>
<stop offset="1" stop-color="#020202"/>
</linearGradient>
<linearGradient id="paint2_linear_1080_1833" x1="149.552" y1="398.788" x2="221.988" y2="34.2113" gradientUnits="userSpaceOnUse">
<stop stop-color="#020202"/>
<stop offset="0.544795" stop-color="#FF6100" stop-opacity="0.78"/>
<stop offset="1" stop-color="#020202"/>
</linearGradient>
<linearGradient id="paint3_linear_1080_1833" x1="146.489" y1="389.879" x2="221.798" y2="22.0881" gradientUnits="userSpaceOnUse">
<stop stop-color="#020202"/>
<stop offset="0.544795" stop-color="#FF6100" stop-opacity="0.78"/>
<stop offset="1" stop-color="#020202"/>
</linearGradient>
<linearGradient id="paint4_linear_1080_1833" x1="143.409" y1="380.922" x2="221.255" y2="10.354" gradientUnits="userSpaceOnUse">
<stop stop-color="#020202"/>
<stop offset="0.544795" stop-color="#FF6100" stop-opacity="0.78"/>
<stop offset="1" stop-color="#020202"/>
</linearGradient>
<linearGradient id="paint5_linear_1080_1833" x1="138.312" y1="372.07" x2="225.421" y2="5.68087" gradientUnits="userSpaceOnUse">
<stop stop-color="#020202"/>
<stop offset="0.544795" stop-color="#FF6100" stop-opacity="0.78"/>
<stop offset="1" stop-color="#020202"/>
</linearGradient>
<linearGradient id="paint6_linear_1080_1833" x1="127.849" y1="365.51" x2="245.364" y2="34.1798" gradientUnits="userSpaceOnUse">
<stop stop-color="#020202"/>
<stop offset="0.544795" stop-color="#FF6100" stop-opacity="0.78"/>
<stop offset="1" stop-color="#020202"/>
</linearGradient>
<linearGradient id="paint7_linear_1080_1833" x1="119.496" y1="357.855" x2="254.951" y2="64.2599" gradientUnits="userSpaceOnUse">
<stop stop-color="#020202"/>
<stop offset="0.544795" stop-color="#FF6100" stop-opacity="0.78"/>
<stop offset="1" stop-color="#020202"/>
</linearGradient>
</defs>
</svg>
