<svg width="395" height="154" viewBox="0 0 395 154" fill="none" xmlns="http://www.w3.org/2000/svg">
<path fill-rule="evenodd" clip-rule="evenodd" d="M263.859 93.4175C255.217 106.147 242.961 115.705 229.342 122.635C216.156 129.204 201.93 133.401 187.455 135.974C171.721 138.767 155.125 139.76 138.417 140.76C97.5891 143.205 56.0861 145.69 24.8233 174.555C6.89232 191.112 -1.64629 214.394 1.26903 238.598C4.03285 261.543 15.869 283.372 32.9425 298.842C52.7736 316.811 79.3457 325.965 105.602 328.858C133.149 331.893 160.152 327.757 187.04 321.99C189.28 321.509 191.524 321.021 193.773 320.532L193.788 320.529C217.159 315.448 240.978 310.27 264.973 312.271C279.171 313.456 292.747 317.507 305.403 324.031C318.382 330.72 330.188 339.412 341.794 348.21C342.6 348.82 343.405 349.431 344.211 350.043C366.495 366.954 389.053 384.073 417.234 389.267C423.902 390.496 430.646 391.232 437.39 391.967L437.39 391.967C445.677 392.871 453.962 393.774 462.105 395.594C476.979 398.917 492.5 405.576 501.068 418.858C503.953 423.329 506.871 426.597 512.075 428.358C517.03 430.035 522.581 430.031 527.593 428.599C540.312 424.968 548.051 412.396 554.132 401.585C565.079 382.123 575.863 362.567 586.646 343.011L586.647 343.009L586.648 343.008L586.649 343.006L586.65 343.004L586.651 343.003L586.652 343.001L586.653 342.999L586.653 342.997L586.654 342.996L586.655 342.994L586.656 342.992L586.657 342.991L586.658 342.989L586.659 342.987L586.66 342.985L586.661 342.984L586.662 342.982L586.663 342.98L586.664 342.979L586.665 342.977C591.946 333.399 597.228 323.821 602.528 314.255C605.116 309.585 607.708 304.917 610.299 300.249L610.304 300.24C615.683 290.553 621.062 280.866 626.404 271.159C632.35 260.354 638.068 249.389 642.724 237.956C651.607 216.143 656.55 191.53 647.412 168.947C637.444 144.308 614.443 127.547 593.53 112.307L593.525 112.304L593.503 112.288C592.547 111.591 591.596 110.898 590.65 110.207C563.899 90.6638 535.998 72.6943 507.146 56.4135C479.173 40.6302 450.267 25.9538 420.465 13.9251C394.9 3.60528 366.954 -3.76409 339.405 2.26826C327.609 4.85195 316.223 9.81536 306.865 17.5299C295.78 26.6689 288.876 39.3071 283.264 52.3044C281.812 55.6659 280.429 59.0688 279.044 62.4749L279.043 62.4768C274.703 73.1498 270.35 83.8546 263.859 93.4175ZM229.768 123.303C229.754 123.312 229.739 123.32 229.723 123.329C201.342 137.466 170.484 139.314 139.583 141.164L139.582 141.164C113.261 142.74 86.9084 144.318 62.0279 153.495C37.4328 162.566 14.1477 179.477 5.31677 205.113C-2.48498 227.758 2.19646 253.016 13.7732 273.504C41.7786 323.072 103.66 334.348 155.842 327.025C168.196 325.292 180.384 322.646 192.571 320C205.568 317.178 218.565 314.356 231.765 312.642C243.91 311.065 256.243 310.428 268.439 311.816C281.058 313.251 293.156 316.998 304.5 322.684C319.645 330.273 333.066 340.512 346.49 350.754C355.681 357.765 364.873 364.778 374.621 370.943C386.92 378.721 400.113 384.913 414.414 387.907C422.105 389.517 429.908 390.371 437.711 391.225L437.711 391.225C444.628 391.983 451.545 392.74 458.385 394.023C471.698 396.521 485.334 401.242 495.318 410.751C497.492 412.821 499.485 415.109 501.18 417.59C501.519 418.087 501.845 418.582 502.167 419.07C503.738 421.456 505.216 423.701 507.729 425.376C512.856 428.796 519.559 429.519 525.502 428.293C539.731 425.357 547.911 411.145 554.412 399.463C559.693 389.973 564.951 380.47 570.208 370.968C572.836 366.22 575.463 361.472 578.092 356.725C583.298 347.33 588.51 337.938 593.722 328.546L593.725 328.54L593.732 328.527L593.739 328.515L593.739 328.514L593.742 328.51C604.284 309.511 614.827 290.512 625.321 271.487C637.069 250.189 648.935 227.389 651.227 202.78C652.371 190.505 650.737 178.071 645.636 166.791C640.05 154.437 630.934 144.088 620.965 135.062C609.92 125.062 597.75 116.264 585.673 107.564C572.538 98.1029 559.132 89.0181 545.476 80.3253C518.322 63.0409 490.188 47.2969 461.248 33.2041L459.946 32.5702C433.183 19.5343 405.069 5.84102 375.292 1.8615C349.966 -1.52233 321.644 3.46457 302.969 22.1262C291.511 33.5763 285.523 48.3253 279.524 63.103C274.445 75.6145 269.358 88.1464 260.935 98.7142C252.57 109.208 241.667 117.241 229.768 123.303ZM271.965 98.9479C263.711 111.105 252.007 120.233 239 126.852C226.405 133.124 212.817 137.134 198.989 139.592C183.957 142.261 168.103 143.21 152.141 144.166L152.14 144.166C113.14 146.502 73.496 148.877 43.6309 176.452C26.4988 192.268 18.3415 214.513 21.1261 237.639C23.7661 259.561 35.0737 280.417 51.3861 295.197C70.3348 312.365 95.7203 321.11 120.806 323.875C147.121 326.775 172.917 322.823 198.602 317.313C200.696 316.864 202.795 316.408 204.897 315.951L204.927 315.944L204.987 315.931L205.033 315.921L205.039 315.92L205.046 315.918C227.37 311.065 250.123 306.118 273.042 308.03C286.602 309.162 299.567 313.03 311.654 319.26C324.052 325.651 335.33 333.953 346.416 342.357C347.185 342.94 347.954 343.524 348.724 344.108L348.728 344.111C370.016 360.266 391.564 376.618 418.483 381.579C424.851 382.752 431.29 383.454 437.728 384.156L437.728 384.156L437.729 384.156C445.648 385.019 453.565 385.882 461.346 387.621C475.549 390.795 490.371 397.152 498.554 409.835C501.311 414.11 504.103 417.234 509.078 418.918C513.812 420.52 519.118 420.516 523.909 419.148C536.063 415.676 543.458 403.667 549.27 393.335C559.731 374.737 570.037 356.049 580.342 337.361L580.342 337.36L580.343 337.359L580.343 337.358L580.344 337.357L580.345 337.356L580.345 337.355L580.346 337.354L580.347 337.353L580.347 337.351L580.348 337.35L580.348 337.349L580.349 337.348L580.35 337.347L580.35 337.346L580.351 337.345L580.351 337.344L580.352 337.343L580.353 337.342L580.353 337.34L580.354 337.339L580.354 337.338C585.397 328.193 590.44 319.049 595.5 309.915C597.902 305.581 600.308 301.249 602.713 296.917L602.716 296.912L602.718 296.908L602.72 296.904L602.723 296.899L602.725 296.895C607.931 287.52 613.136 278.145 618.307 268.749C623.989 258.425 629.45 247.951 633.899 237.029C642.387 216.187 647.107 192.672 638.376 171.096C628.852 147.557 606.879 131.545 586.898 116.985L586.895 116.983L586.878 116.971C585.963 116.304 585.053 115.641 584.149 114.98C558.594 96.3126 531.944 79.1482 504.383 63.5955C477.663 48.5179 450.048 34.4979 421.579 23.0073C397.155 13.1477 370.457 6.10775 344.138 11.8713C332.868 14.3389 321.989 19.0826 313.047 26.4534C302.458 35.1839 295.862 47.2577 290.501 59.6748C289.116 62.8831 287.796 66.1307 286.474 69.3814L286.474 69.3817C282.327 79.5809 278.168 89.81 271.965 98.9479ZM239.328 127.571C212.231 141.053 182.773 142.817 153.273 144.583C128.129 146.089 102.956 147.596 79.1893 156.362C55.7016 165.024 33.464 181.175 25.0297 205.656C17.5792 227.283 22.05 251.405 33.1062 270.972C59.853 318.313 118.958 329.081 168.795 322.088C180.589 320.434 192.223 317.907 203.858 315.381L203.859 315.381L203.859 315.381L203.859 315.381L203.86 315.381L203.86 315.381L203.861 315.381L203.861 315.381L203.861 315.381L203.862 315.381L203.862 315.381L203.863 315.38L203.863 315.38L203.863 315.38L203.864 315.38L203.864 315.38L203.865 315.38L203.865 315.38L203.865 315.38L203.866 315.38L203.866 315.38C216.286 312.683 228.706 309.987 241.319 308.35C252.921 306.844 264.704 306.234 276.355 307.56C288.411 308.933 299.97 312.512 310.811 317.944C325.276 325.193 338.096 334.973 350.918 344.755C359.698 351.454 368.48 358.153 377.792 364.042C389.539 371.471 402.14 377.386 415.8 380.246C423.147 381.784 430.601 382.6 438.055 383.416L438.055 383.416C444.662 384.139 451.268 384.863 457.802 386.089C470.521 388.475 483.549 392.985 493.089 402.073C495.166 404.052 497.071 406.239 498.691 408.608C499.015 409.083 499.326 409.555 499.633 410.022C501.132 412.298 502.543 414.439 504.94 416.038C509.832 419.302 516.232 419.993 521.904 418.824C535.491 416.021 543.301 402.449 549.509 391.294C554.599 382.147 559.668 372.987 564.736 363.828C567.2 359.375 569.664 354.922 572.131 350.47C577.081 341.536 582.036 332.606 586.992 323.675L586.994 323.671L586.997 323.666L586.999 323.662L587.002 323.658L587.004 323.653L587.007 323.649L587.009 323.644L587.011 323.64L587.014 323.636L587.016 323.631L587.019 323.627L587.021 323.622L587.024 323.618L587.026 323.614L587.029 323.609L587.031 323.605L587.033 323.6L587.036 323.596L587.038 323.592L587.041 323.587C597.124 305.416 607.207 287.245 617.244 269.048C628.464 248.708 639.797 226.931 641.987 203.426C643.079 191.705 641.521 179.829 636.649 169.058C631.313 157.259 622.607 147.375 613.086 138.754C602.537 129.202 590.911 120.8 579.378 112.491C566.831 103.453 554.024 94.7744 540.979 86.471C515.041 69.9591 488.168 54.9208 460.523 41.4605L459.274 40.852C433.713 28.4025 406.863 15.3247 378.424 11.5251C354.235 8.29325 327.188 13.0546 309.353 30.8773C298.408 41.8146 292.689 55.9028 286.959 70.018C282.108 81.9687 277.249 93.9388 269.204 104.032C261.202 114.072 250.77 121.754 239.385 127.548C239.366 127.557 239.347 127.565 239.328 127.571ZM248.658 131.067C261.052 124.76 272.206 116.063 280.071 104.478C285.983 95.7692 289.946 86.0202 293.898 76.2998C295.158 73.2009 296.417 70.1049 297.737 67.0465C302.847 55.2109 309.135 43.7014 319.23 35.379C327.755 28.352 338.126 23.8294 348.872 21.4752C373.961 15.9817 399.41 22.6908 422.693 32.0881C449.829 43.0411 476.15 56.4046 501.62 70.7764C527.888 85.599 553.29 101.96 577.646 119.753C578.514 120.387 579.386 121.023 580.263 121.662L580.266 121.663C599.312 135.543 620.259 150.807 629.339 173.246C637.663 193.816 633.165 216.233 625.075 236.103C620.835 246.515 615.628 256.501 610.213 266.341C605.385 275.115 600.524 283.87 595.663 292.625L595.662 292.627L595.661 292.629L595.659 292.632L595.658 292.634L595.657 292.636L595.656 292.638L595.655 292.641L595.653 292.643L595.652 292.645L595.651 292.647L595.65 292.649L595.648 292.652L595.647 292.654L595.646 292.656L595.645 292.658L595.644 292.66L595.642 292.663L595.641 292.665L595.64 292.667C593.251 296.97 590.862 301.273 588.477 305.578C583.658 314.275 578.856 322.982 574.055 331.69L574.053 331.693L574.051 331.696L574.049 331.7L574.048 331.703L574.046 331.706L574.044 331.71L574.042 331.713L574.04 331.716L574.038 331.72L574.037 331.723C564.212 349.539 554.387 367.356 544.413 385.088C538.871 394.94 531.819 406.389 520.229 409.7C515.66 411.006 510.6 411.009 506.083 409.481C501.336 407.875 498.672 404.894 496.041 400.815C488.245 388.731 474.121 382.675 460.589 379.65C453.174 377.993 445.629 377.171 438.083 376.348C431.944 375.679 425.806 375.009 419.736 373.891C394.076 369.162 373.535 353.574 353.243 338.175C352.509 337.618 351.775 337.061 351.042 336.505C340.475 328.497 329.727 320.582 317.909 314.49C306.392 308.553 294.037 304.867 281.117 303.789C259.275 301.967 237.594 306.68 216.32 311.305L216.32 311.305L216.293 311.311L216.24 311.323L216.174 311.337L216.084 311.356C214.11 311.786 212.139 312.214 210.172 312.636C185.69 317.888 161.1 321.655 136.017 318.89C112.101 316.254 87.9024 307.918 69.8383 291.55C54.287 277.46 43.5066 257.575 40.9901 236.676C38.3354 214.631 46.1139 193.422 62.4453 178.343C90.9141 152.057 128.702 149.794 165.876 147.567C181.09 146.655 196.201 145.75 210.529 143.207C223.707 140.866 236.656 137.045 248.658 131.067ZM249.039 131.76C249.054 131.753 249.068 131.745 249.082 131.736C259.92 126.213 269.849 118.896 277.467 109.338C285.134 99.7177 289.765 88.3096 294.388 76.9203L294.388 76.92C299.849 63.4662 305.3 50.0384 315.732 39.6145C332.729 22.6301 358.505 18.0938 381.554 21.1742C408.653 24.7952 434.24 37.2574 458.597 49.1203L459.795 49.7039C486.144 62.5352 511.758 76.8686 536.48 92.6059C548.914 100.52 561.12 108.792 573.079 117.406C584.071 125.323 595.151 133.332 605.204 142.434C614.279 150.65 622.575 160.07 627.661 171.315C632.302 181.579 633.786 192.895 632.746 204.064C630.659 226.464 619.858 247.217 609.165 266.602C599.642 283.866 590.076 301.105 580.51 318.345C575.727 326.965 570.944 335.585 566.166 344.208C563.819 348.444 561.474 352.681 559.13 356.918L559.121 356.933C554.29 365.666 549.459 374.398 544.605 383.118C538.692 393.745 531.251 406.679 518.306 409.35C512.905 410.465 506.81 409.807 502.151 406.697C499.87 405.176 498.528 403.138 497.101 400.972L497.099 400.969C496.807 400.525 496.51 400.075 496.201 399.623C494.656 397.362 492.84 395.277 490.859 393.389C481.764 384.725 469.345 380.424 457.218 378.15C450.991 376.981 444.694 376.292 438.397 375.603C431.292 374.825 424.188 374.047 417.184 372.581C404.166 369.858 392.158 364.221 380.962 357.14C372.087 351.528 363.719 345.143 355.352 338.76C343.129 329.435 330.91 320.113 317.121 313.203C306.785 308.024 295.766 304.612 284.271 303.303C273.165 302.039 261.932 302.62 250.872 304.055C238.853 305.616 227.018 308.186 215.183 310.756L215.182 310.756C204.088 313.165 192.994 315.573 181.748 317.151C134.256 323.815 77.9287 313.554 52.4406 268.44C41.9069 249.794 37.6469 226.808 44.746 206.199C52.7822 182.872 73.974 167.483 96.3529 159.228C119.006 150.874 142.999 149.437 166.964 148.001C195.1 146.316 223.197 144.633 249.039 131.76ZM288.175 110.007C280.7 121.02 270.098 129.287 258.316 135.282C246.905 140.966 234.594 144.598 222.068 146.825C208.445 149.242 194.077 150.103 179.612 150.97L179.611 150.97C144.261 153.089 108.329 155.242 81.2568 180.238C65.7247 194.579 58.3269 214.749 60.8508 235.716C63.2435 255.592 73.4956 274.504 88.2857 287.904C105.464 303.47 128.479 311.4 151.223 313.906C175.074 316.534 198.455 312.953 221.735 307.959C223.678 307.542 225.625 307.119 227.575 306.695L227.58 306.694L227.58 306.693C247.807 302.296 268.421 297.814 289.188 299.547C301.468 300.571 313.214 304.076 324.161 309.719C335.398 315.509 345.618 323.035 355.664 330.65C356.028 330.925 356.392 331.202 356.756 331.478L357.753 332.234C377.048 346.877 396.583 361.701 420.984 366.199C426.755 367.262 432.592 367.898 438.427 368.534L438.428 368.534L438.429 368.534C445.604 369.317 452.778 370.099 459.829 371.674C472.691 374.547 486.117 380.302 493.526 391.788C496.034 395.671 498.568 398.508 503.088 400.038C507.384 401.493 512.199 401.488 516.547 400.247C527.572 397.098 534.281 386.209 539.553 376.837C549.025 359.997 558.356 343.076 567.686 326.155C572.268 317.846 576.85 309.537 581.449 301.238C583.74 297.101 586.036 292.966 588.332 288.832L588.334 288.828L588.336 288.824L588.338 288.82L588.34 288.816L588.342 288.813C592.944 280.524 597.545 272.236 602.117 263.93C607.268 254.572 612.218 245.075 616.251 235.174C623.945 216.277 628.221 194.957 620.304 175.394C611.668 154.053 591.749 139.538 573.635 126.339C572.801 125.731 571.971 125.126 571.146 124.524C547.987 107.607 523.834 92.0512 498.857 77.9566C474.639 64.2898 449.61 51.5835 423.807 41.1686C401.667 32.2323 377.466 25.8527 353.607 31.0775C343.387 33.3156 333.523 37.617 325.414 44.3017C315.813 52.2161 309.833 63.1611 304.974 74.4165C303.717 77.3276 302.518 80.2746 301.319 83.2244L301.319 83.2246L301.319 83.2248L301.319 83.225L301.318 83.2252L301.318 83.2254L301.318 83.2256L301.318 83.2258L301.318 83.2261L301.318 83.2263L301.318 83.2265L301.318 83.2267L301.317 83.2269L301.317 83.2271L301.317 83.2273L301.317 83.2275L301.317 83.2277L301.317 83.2279C297.561 92.4655 293.794 101.731 288.175 110.007ZM258.674 135.986C234.109 148.217 207.402 149.816 180.657 151.418C157.87 152.783 135.055 154.15 113.514 162.095C92.2423 169.941 72.0965 184.569 64.4575 206.743C57.7084 226.334 61.7584 248.182 71.7723 265.908C96.0031 308.796 149.55 318.55 194.699 312.216C205.392 310.715 215.94 308.425 226.487 306.135L226.488 306.135L226.488 306.135L226.488 306.135L226.489 306.135L226.489 306.135L226.49 306.135L226.49 306.135L226.49 306.134L226.491 306.134L226.491 306.134L226.492 306.134L226.492 306.134L226.492 306.134L226.493 306.134L226.493 306.134L226.494 306.134L226.494 306.134L226.494 306.134C237.746 303.691 248.998 301.248 260.425 299.764C270.943 298.399 281.623 297.847 292.186 299.047C303.119 300.291 313.601 303.537 323.43 308.462C336.539 315.032 348.156 323.894 359.777 332.759L359.777 332.76L359.778 332.76L359.778 332.761C367.735 338.831 375.693 344.902 384.133 350.239C394.776 356.971 406.192 362.328 418.568 364.919C425.226 366.312 431.981 367.052 438.736 367.791L438.736 367.791C444.724 368.447 450.712 369.103 456.633 370.214C468.168 372.378 479.979 376.469 488.628 384.71C490.514 386.505 492.241 388.489 493.711 390.642C494.003 391.071 494.284 391.498 494.562 391.919C495.918 393.978 497.193 395.915 499.36 397.361C503.786 400.315 509.576 400.94 514.706 399.881C527.008 397.342 534.08 385.048 539.701 374.948C544.316 366.656 548.91 358.352 553.504 350.049L553.505 350.047L553.505 350.046L553.506 350.045L553.507 350.043L553.508 350.042L553.508 350.041L553.509 350.039L553.51 350.038L553.511 350.037L553.511 350.036L553.512 350.034L553.513 350.033L553.513 350.032L553.514 350.03L553.515 350.029L553.516 350.028L553.516 350.026L553.517 350.025C555.744 346 557.971 341.974 560.201 337.95C564.743 329.752 569.291 321.557 573.838 313.362L573.842 313.355C582.937 296.964 592.032 280.574 601.085 264.161C611.249 245.733 621.519 226.004 623.503 204.71C624.492 194.094 623.081 183.338 618.67 173.582C613.836 162.89 605.948 153.937 597.32 146.126C587.762 137.472 577.229 129.859 566.779 122.332C555.409 114.141 543.802 106.276 531.981 98.7518C508.474 83.7892 484.121 70.1595 459.067 57.9599L457.921 57.4021C434.767 46.1248 410.443 34.2784 384.681 30.8351C362.77 27.9066 338.266 32.2179 322.111 48.3627C312.194 58.273 307.012 71.0393 301.819 83.8306C297.424 94.6596 293.021 105.506 285.731 114.653C278.476 123.757 269.018 130.723 258.694 135.977C258.687 135.98 258.681 135.984 258.674 135.986ZM267.974 139.498C279.143 133.814 289.194 125.978 296.282 115.538C301.612 107.685 305.186 98.8942 308.75 90.1292C309.886 87.3353 311.021 84.5441 312.211 81.7868C316.821 71.1123 322.492 60.7309 331.596 53.2251C339.288 46.8843 348.646 42.8025 358.341 40.6805C380.969 35.7258 403.921 41.7747 424.921 50.2507C449.392 60.1275 473.128 72.1774 496.095 85.1385C519.781 98.5036 542.684 113.255 564.645 129.297C565.428 129.868 566.215 130.442 567.005 131.018C584.185 143.537 603.078 157.304 611.268 177.543C618.777 196.099 614.725 216.32 607.426 234.246C603.602 243.638 598.906 252.644 594.022 261.52C589.633 269.497 585.212 277.458 580.792 285.419L580.792 285.42L580.791 285.421L580.79 285.423L580.789 285.424L580.789 285.425L580.788 285.427L580.787 285.428L580.786 285.43L580.786 285.431L580.785 285.432L580.784 285.434L580.783 285.435L580.783 285.436L580.782 285.438L580.781 285.439L580.781 285.44L580.78 285.442C578.66 289.26 576.54 293.078 574.423 296.898C570.068 304.759 565.728 312.629 561.388 320.499L561.384 320.507C552.532 336.559 543.68 352.611 534.694 368.587C529.691 377.48 523.326 387.809 512.865 390.796C508.74 391.975 504.169 391.977 500.091 390.598C495.8 389.145 493.392 386.451 491.012 382.763C483.989 371.876 471.262 366.423 459.07 363.7C452.385 362.206 445.583 361.465 438.78 360.723C433.245 360.119 427.709 359.515 422.234 358.506C399.094 354.243 380.569 340.185 362.272 326.299C361.61 325.797 360.949 325.295 360.287 324.794C350.76 317.572 341.069 310.437 330.413 304.945C320.035 299.597 308.901 296.274 297.26 295.302C277.567 293.66 258.021 297.908 238.842 302.077L238.833 302.079C236.985 302.481 235.141 302.882 233.301 303.277C211.224 308.012 189.049 311.41 166.43 308.917C144.855 306.539 123.027 299.018 106.733 284.254C92.7024 271.543 82.9802 253.604 80.7112 234.751C78.3179 214.863 85.336 195.731 100.069 182.127C125.743 158.421 159.817 156.379 193.341 154.37C207.059 153.547 220.685 152.731 233.606 150.437C245.482 148.33 257.156 144.887 267.974 139.498ZM268.355 140.192C268.361 140.189 268.367 140.185 268.373 140.182C268.38 140.178 268.386 140.174 268.393 140.17C278.173 135.189 287.13 128.585 294.004 119.96C300.913 111.288 305.088 101.004 309.256 90.7363C314.179 78.6062 319.094 66.4997 328.498 57.1026C343.815 41.7961 367.046 37.7113 387.819 40.4869C412.24 43.7508 435.301 54.9818 457.252 65.6727L458.345 66.2051C482.101 77.7741 505.197 90.6983 527.487 104.888C538.698 112.023 549.703 119.481 560.486 127.248C570.395 134.386 580.38 141.604 589.443 149.809C597.623 157.214 605.101 165.704 609.685 175.841C613.867 185.089 615.203 195.284 614.265 205.348C612.385 225.537 602.648 244.243 593.01 261.715C584.334 277.443 575.619 293.149 566.903 308.856L566.903 308.856L566.899 308.864L566.877 308.903L566.872 308.912C562.66 316.503 558.448 324.094 554.24 331.688C552.037 335.662 549.837 339.638 547.637 343.614L547.634 343.621L547.622 343.642L547.616 343.652C543.35 351.362 539.084 359.072 534.799 366.771C529.472 376.345 522.772 388 511.11 390.406C506.249 391.409 500.766 390.817 496.573 388.019C494.522 386.651 493.314 384.817 492.032 382.869L492.031 382.868C491.767 382.467 491.5 382.062 491.222 381.655C489.828 379.614 488.188 377.73 486.399 376.026C478.193 368.21 466.99 364.328 456.049 362.275C450.433 361.221 444.753 360.599 439.074 359.977L439.074 359.977C432.67 359.276 426.266 358.575 419.953 357.254C408.219 354.798 397.395 349.717 387.304 343.336C379.302 338.275 371.755 332.518 364.21 326.762C353.19 318.355 342.173 309.95 329.741 303.72C320.417 299.047 310.475 295.968 300.104 294.789C290.085 293.649 279.954 294.174 269.979 295.469C259.144 296.876 248.475 299.193 237.805 301.509C227.8 303.682 217.795 305.854 207.653 307.277C164.85 313.282 114.08 304.036 91.1077 263.375C81.6142 246.57 77.7749 225.858 84.1727 207.286C91.4136 186.265 110.512 172.397 130.676 164.961C150.779 157.548 172.268 156.309 193.492 155.085C195.807 154.952 198.119 154.819 200.425 154.677C223.69 153.255 247.205 150.727 268.355 140.192ZM304.388 121.068C297.689 130.936 288.189 138.342 277.633 143.713C267.405 148.807 256.37 152.062 245.145 154.059C232.928 156.228 220.044 157 207.073 157.778C175.376 159.679 143.159 161.61 118.882 184.026C104.948 196.891 98.3111 214.985 100.574 233.794C102.718 251.626 111.912 268.593 125.181 280.614C140.591 294.577 161.232 301.69 181.637 303.939C203.024 306.296 223.991 303.083 244.865 298.605C246.604 298.232 248.347 297.853 250.093 297.474C268.228 293.53 286.71 289.512 305.33 291.065C316.333 291.982 326.857 295.123 336.665 300.179C346.739 305.371 355.9 312.118 364.909 318.945L365.621 319.485L366.781 320.365C384.084 333.495 401.601 346.788 423.481 350.821C428.657 351.774 433.891 352.345 439.125 352.916C445.557 353.617 451.988 354.318 458.309 355.73C469.829 358.305 481.857 363.456 488.495 373.744C490.749 377.237 493.03 379.786 497.092 381.162C500.951 382.467 505.277 382.463 509.181 381.349C519.077 378.521 525.099 368.754 529.832 360.34C538.317 345.256 546.675 330.098 555.033 314.941C559.148 307.478 563.264 300.015 567.394 292.561C569.419 288.906 571.447 285.253 573.476 281.6L573.483 281.587C577.639 274.1 581.796 266.614 585.925 259.112C590.544 250.719 594.984 242.201 598.601 233.32C605.504 216.367 609.334 197.243 602.231 179.693C594.484 160.553 576.619 147.534 560.372 135.695L560.367 135.692C559.622 135.149 558.88 134.608 558.143 134.07C537.38 118.902 515.724 104.956 493.332 92.3195C471.615 80.0656 449.172 68.672 426.035 59.3329C406.178 51.3164 384.473 45.5984 363.075 50.2844C353.905 52.2938 345.056 56.1544 337.781 62.1515C329.171 69.2493 323.808 79.065 319.449 89.1593C318.325 91.7617 317.254 94.3963 316.181 97.0334L316.181 97.0348L316.18 97.0363L316.179 97.0378L316.179 97.0393L316.178 97.0408L316.178 97.0422L316.177 97.0437L316.176 97.0452L316.176 97.0467L316.175 97.0481L316.175 97.0496L316.174 97.0511L316.173 97.0526L316.173 97.0541L316.172 97.0555L316.171 97.057L316.171 97.0573C312.803 105.34 309.425 113.647 304.388 121.068ZM277.984 144.421C257.991 154.372 235.767 156.76 213.777 158.105C211.6 158.238 209.417 158.364 207.232 158.49L207.227 158.491L207.223 158.491L207.219 158.491L207.214 158.491L207.21 158.492C187.149 159.649 166.838 160.82 147.838 167.828C128.781 174.856 110.73 187.963 103.886 207.829C97.8383 225.384 101.468 244.959 110.441 260.842C132.154 299.277 180.147 308.017 220.605 302.339C230.193 300.994 239.651 298.941 249.109 296.887C259.198 294.697 269.286 292.506 279.532 291.176C288.965 289.95 298.545 289.455 308.018 290.532C317.828 291.647 327.23 294.559 336.051 298.98C347.806 304.87 358.223 312.817 368.642 320.767C375.774 326.208 382.908 331.651 390.473 336.435C400.013 342.469 410.243 347.271 421.336 349.593C427.306 350.842 433.361 351.505 439.416 352.168C444.785 352.756 450.154 353.344 455.464 354.34C465.812 356.283 476.407 359.956 484.169 367.347C485.861 368.96 487.413 370.741 488.732 372.674C488.994 373.057 489.245 373.439 489.493 373.816C490.705 375.657 491.845 377.39 493.783 378.683C497.743 381.325 502.921 381.884 507.511 380.938C518.529 378.664 524.86 367.647 529.895 358.602C533.942 351.329 537.973 344.045 542.003 336.761L542.005 336.757L542.013 336.743C544.099 332.972 546.186 329.202 548.274 325.432C552.256 318.247 556.242 311.064 560.228 303.881L560.237 303.865L560.242 303.855C568.484 289.002 576.726 274.149 584.93 259.275C594.039 242.759 603.246 225.077 605.024 205.994C605.91 196.483 604.648 186.845 600.695 178.106C596.361 168.523 589.293 160.5 581.561 153.499C572.995 145.743 563.555 138.919 554.188 132.172C543.994 124.828 533.588 117.776 522.989 111.03C501.913 97.6149 480.078 85.395 457.617 74.4578L456.603 73.9638C435.847 63.8534 414.041 53.232 390.948 50.1453C371.315 47.5203 349.357 51.3809 334.878 65.8498C325.989 74.7332 321.343 86.1783 316.688 97.6458C312.748 107.353 308.802 117.076 302.269 125.274C295.761 133.442 287.275 139.694 278.012 144.408C278.003 144.413 277.993 144.417 277.984 144.421ZM287.291 147.928C297.235 142.868 306.186 135.892 312.494 126.598C317.24 119.608 320.422 111.782 323.595 103.979L323.595 103.979L323.595 103.978L323.595 103.978L323.595 103.978L323.595 103.978L323.595 103.977L323.595 103.977L323.595 103.977L323.596 103.977C324.61 101.482 325.623 98.9907 326.686 96.5293C330.794 87.0151 335.85 77.7638 343.965 71.074C350.823 65.4207 359.165 61.7791 367.811 59.8866C387.978 55.4707 408.435 60.8578 427.15 68.412C448.955 77.213 470.105 87.9492 490.571 99.4982C511.673 111.405 532.078 124.549 551.642 138.839C552.338 139.348 553.039 139.858 553.742 140.37C569.054 151.529 585.893 163.799 593.195 181.84C599.891 198.383 596.284 216.408 589.776 232.39C586.368 240.76 582.182 248.788 577.828 256.699C573.874 263.883 569.893 271.054 565.912 278.224L565.907 278.232L565.904 278.238C564.057 281.564 562.211 284.89 560.367 288.217C556.477 295.237 552.602 302.264 548.727 309.292L548.724 309.296C540.847 323.582 532.969 337.868 524.971 352.087C520.508 360.02 514.83 369.227 505.498 371.893C501.816 372.945 497.734 372.947 494.095 371.715C490.261 370.418 488.107 368.011 485.981 364.715C479.728 355.026 468.399 350.177 457.549 347.752C451.593 346.421 445.533 345.76 439.472 345.099C434.54 344.561 429.608 344.024 424.731 343.125C404.104 339.323 387.59 326.79 371.279 314.411L371.279 314.411L371.164 314.324C370.62 313.911 370.076 313.498 369.532 313.086C361.044 306.652 352.411 300.294 342.918 295.401C333.678 290.639 323.766 287.682 313.402 286.816C295.862 285.352 278.454 289.137 261.371 292.851L261.364 292.853C259.717 293.211 258.073 293.568 256.432 293.92C236.759 298.14 217 301.168 196.845 298.946C177.613 296.826 158.156 290.122 143.628 276.96C131.12 265.628 122.454 249.634 120.434 232.826C118.302 215.095 124.559 198.04 137.694 185.912C160.576 164.784 190.938 162.964 220.811 161.172C233.032 160.44 245.172 159.712 256.684 157.669C267.26 155.795 277.655 152.728 287.291 147.928ZM227.13 161.533C247.85 160.266 268.791 158.015 287.631 148.642C287.637 148.639 287.644 148.637 287.65 148.634L287.661 148.629L287.67 148.624C296.401 144.181 304.403 138.289 310.536 130.587C316.686 122.863 320.404 113.704 324.115 104.561C328.503 93.7536 332.881 82.967 341.259 74.5953C354.9 60.9662 375.584 57.3311 394.08 59.8041C415.834 62.713 436.377 72.7189 455.929 82.2426L456.892 82.7117C478.058 93.0186 498.634 104.532 518.493 117.174C528.48 123.531 538.285 130.177 547.892 137.096C556.716 143.452 565.611 149.882 573.681 157.189C580.967 163.783 587.627 171.344 591.709 180.371C595.432 188.603 596.618 197.681 595.784 206.639C594.109 224.618 585.435 241.277 576.853 256.836C569.158 270.787 561.427 284.717 553.697 298.648L553.694 298.653L553.694 298.654L553.683 298.674L553.672 298.693L553.662 298.712C549.877 305.533 546.092 312.353 542.312 319.176C540.477 322.487 538.645 325.798 536.813 329.11C532.879 336.221 528.945 343.332 524.992 350.433C520.252 358.951 514.291 369.328 503.915 371.469C499.597 372.359 494.722 371.833 490.997 369.347C489.175 368.132 488.103 366.502 486.964 364.771C486.73 364.415 486.493 364.055 486.246 363.693C485.003 361.871 483.54 360.189 481.943 358.669C474.626 351.699 464.639 348.235 454.883 346.405C449.879 345.466 444.819 344.912 439.759 344.358C434.053 343.733 428.348 343.109 422.724 341.932C412.274 339.745 402.636 335.219 393.647 329.536C386.518 325.027 379.795 319.898 373.074 314.77L373.074 314.77L373.073 314.77C363.256 307.28 353.441 299.791 342.365 294.241C334.05 290.075 325.186 287.331 315.938 286.278C307.009 285.262 297.979 285.73 289.089 286.885C279.431 288.139 269.922 290.203 260.412 292.268L260.412 292.268L260.411 292.268L260.411 292.268L260.411 292.268L260.41 292.268L260.41 292.268L260.409 292.268L260.409 292.268L260.409 292.268L260.408 292.268L260.408 292.268L260.407 292.268L260.407 292.268L260.407 292.268L260.406 292.269C251.498 294.203 242.591 296.137 233.561 297.404C195.446 302.752 150.233 294.519 129.776 258.312C121.323 243.349 117.904 224.91 123.601 208.373C130.047 189.663 147.051 177.315 165.001 170.695C182.909 164.089 202.053 162.986 220.96 161.896L220.967 161.896L220.973 161.895C223.029 161.777 225.082 161.658 227.13 161.533ZM320.6 132.129C314.679 140.851 306.28 147.396 296.948 152.145C287.905 156.65 278.147 159.527 268.215 161.288C257.406 163.206 246.009 163.89 234.534 164.578C206.488 166.26 177.984 167.97 156.5 187.807C144.165 199.196 138.287 215.215 140.289 231.866C142.186 247.65 150.323 262.673 162.07 273.315C175.713 285.676 193.983 291.972 212.046 293.963C230.968 296.048 249.521 293.205 267.991 289.242C269.531 288.912 271.074 288.577 272.619 288.241C288.657 284.753 305 281.2 321.468 282.574C331.194 283.384 340.496 286.162 349.165 290.629C358.077 295.223 366.183 301.19 374.151 307.23L374.683 307.633L375.794 308.477C391.108 320.099 406.612 331.865 425.978 335.434C430.557 336.278 435.188 336.783 439.818 337.288L439.818 337.288C445.508 337.908 451.196 338.529 456.786 339.778C466.965 342.052 477.598 346.602 483.463 355.691C485.463 358.791 487.489 361.055 491.095 362.274C494.515 363.432 498.353 363.429 501.813 362.44C510.58 359.936 515.916 351.29 520.11 343.836C527.62 330.487 535.017 317.073 542.413 303.66L542.413 303.659L542.414 303.658L542.414 303.657L542.415 303.656L542.415 303.655L542.416 303.654L542.416 303.653L542.417 303.652L542.418 303.651L542.418 303.65L542.419 303.649L542.419 303.648L542.42 303.647L542.42 303.646C546.056 297.054 549.691 290.461 553.34 283.876C555.096 280.707 556.854 277.54 558.613 274.373L558.628 274.346L558.629 274.343L558.631 274.34L558.632 274.338L558.634 274.335L558.635 274.332L558.637 274.329L558.639 274.326L558.64 274.323L558.642 274.321L558.643 274.318L558.645 274.315L558.654 274.298C562.355 267.633 566.056 260.967 569.732 254.288C573.821 246.858 577.749 239.32 580.95 231.46C587.062 216.451 590.447 199.521 584.158 183.987C577.3 167.047 561.489 155.525 547.109 145.047L547.099 145.039L547.077 145.023C546.428 144.55 545.782 144.08 545.14 143.611C526.772 130.194 507.618 117.857 487.808 106.678C468.595 95.8358 448.735 85.7564 428.264 77.493C410.691 70.3999 391.483 65.3422 372.546 69.4893C364.424 71.2685 356.59 74.6877 350.148 79.9986C342.529 86.2798 337.781 94.9666 333.924 103.901C332.928 106.207 331.979 108.542 331.029 110.879L331.028 110.88L331.028 110.88L331.028 110.881L331.027 110.882L331.027 110.883L331.026 110.884L331.026 110.885L331.026 110.885L331.025 110.886L331.025 110.887L331.025 110.888L331.024 110.889L331.024 110.89L331.024 110.89C328.045 118.217 325.057 125.565 320.6 132.129ZM297.367 152.817C297.355 152.825 297.342 152.832 297.329 152.838C279.629 161.656 259.952 163.772 240.483 164.962C238.556 165.08 236.624 165.191 234.69 165.303L234.675 165.304C216.932 166.327 198.969 167.363 182.163 173.561C165.321 179.774 149.363 191.359 143.315 208.914C137.969 224.434 141.177 241.736 149.109 255.779C168.308 289.759 210.744 297.484 246.513 292.465C254.994 291.275 263.361 289.458 271.727 287.641C280.653 285.704 289.578 283.766 298.641 282.589C306.989 281.505 315.468 281.064 323.852 282.018C332.538 283.007 340.863 285.583 348.673 289.498C359.071 294.708 368.286 301.739 377.504 308.771C383.813 313.585 390.124 318.4 396.816 322.632C405.252 327.967 414.298 332.213 424.107 334.266C429.387 335.371 434.743 335.957 440.1 336.543C444.85 337.063 449.6 337.583 454.297 338.465C463.46 340.185 472.84 343.439 479.712 349.985C481.213 351.414 482.581 352.996 483.756 354.706C483.999 355.06 484.231 355.412 484.461 355.76C485.518 357.364 486.514 358.875 488.207 360.004C491.699 362.334 496.268 362.829 500.317 361.994C510.051 359.985 515.643 350.246 520.091 342.255C523.713 335.747 527.319 329.231 530.925 322.714L530.928 322.708L530.932 322.7L530.936 322.693C532.74 319.432 534.545 316.172 536.351 312.912C539.908 306.492 543.47 300.074 547.031 293.655C554.291 280.572 561.55 267.489 568.777 254.388C576.831 239.785 584.974 224.151 586.546 207.278C587.329 198.872 586.215 190.355 582.723 182.63C578.891 174.157 572.64 167.062 565.803 160.871C558.228 154.012 549.88 147.978 541.598 142.012C532.579 135.517 523.375 129.279 513.999 123.31C495.355 111.443 476.04 100.633 456.17 90.9572L455.258 90.5131C436.909 81.5759 417.631 72.1857 397.215 69.4554C379.858 67.1352 360.446 70.5431 347.646 83.3354C339.782 91.1936 335.671 101.319 331.552 111.464C328.068 120.047 324.578 128.643 318.806 135.893C313.055 143.116 305.553 148.646 297.367 152.817ZM306.607 156.36C315.325 151.923 323.174 145.808 328.707 137.659C332.872 131.524 335.664 124.657 338.448 117.81L338.448 117.809L338.448 117.809C339.338 115.62 340.228 113.433 341.16 111.272C344.768 102.921 349.207 94.7973 356.331 88.9242C362.357 83.957 369.684 80.7576 377.28 79.0946C394.986 75.2176 412.946 79.9444 429.379 86.5773C448.518 94.3025 467.083 103.726 485.046 113.862C503.564 124.311 521.47 135.845 538.64 148.386C539.25 148.832 539.863 149.279 540.479 149.728C553.925 159.525 568.709 170.299 575.123 186.14C581.005 200.668 577.843 216.501 572.127 230.537C569.134 237.887 565.461 244.936 561.637 251.881C558.219 258.092 554.778 264.29 551.336 270.488L551.334 270.492C549.659 273.508 547.985 276.524 546.313 279.541C542.893 285.712 539.486 291.892 536.079 298.071L536.076 298.075L536.074 298.079L536.072 298.083L536.07 298.086L536.069 298.089L536.069 298.089L536.069 298.089L536.068 298.09L536.068 298.09L536.068 298.09L536.068 298.09L536.068 298.09L536.068 298.091L536.068 298.091L536.068 298.091L536.067 298.091L536.067 298.092C529.164 310.611 522.26 323.131 515.252 335.59C511.329 342.565 506.336 350.651 498.132 352.993C494.893 353.919 491.301 353.92 488.1 352.837C484.722 351.693 482.823 349.574 480.95 346.67C475.471 338.18 465.537 333.933 456.029 331.807C450.803 330.639 445.484 330.059 440.165 329.479C435.838 329.007 431.51 328.535 427.23 327.747C409.123 324.41 394.627 313.408 380.309 302.542L380.269 302.512L380.198 302.458C379.724 302.098 379.25 301.739 378.777 301.38C371.329 295.734 363.75 290.155 355.421 285.862C347.322 281.687 338.629 279.092 329.543 278.335C314.155 277.051 298.88 280.372 283.892 283.63C282.445 283.945 281.001 284.259 279.56 284.568C262.293 288.272 244.947 290.93 227.255 288.98C210.363 287.118 193.279 281.231 180.521 269.671C169.535 259.719 161.926 245.668 160.153 230.907C158.282 215.335 163.777 200.354 175.314 189.702C195.403 171.154 222.051 169.555 248.272 167.981L248.273 167.981C258.998 167.338 269.652 166.698 279.757 164.905C289.035 163.259 298.154 160.57 306.607 156.36ZM253.835 168.39C272.033 167.276 290.424 165.3 306.968 157.063L306.977 157.059L306.99 157.053C314.66 153.15 321.688 147.972 327.074 141.205C332.47 134.429 335.732 126.394 338.988 118.372C342.838 108.889 346.68 99.4252 354.029 92.0807C365.99 80.1294 384.129 76.9458 400.348 79.1139C419.425 81.6658 437.44 90.4403 454.587 98.7921L455.446 99.2101C474.02 108.255 492.076 118.36 509.504 129.453C518.269 135.033 526.874 140.864 535.304 146.936C543.045 152.511 550.847 158.15 557.926 164.56C564.316 170.345 570.157 176.974 573.738 184.894C577.002 192.111 578.04 200.068 577.309 207.922C575.84 223.69 568.23 238.301 560.703 251.947C553.991 264.115 547.249 276.265 540.506 288.415L540.503 288.422C537.131 294.499 533.759 300.575 530.391 306.654C528.701 309.703 527.014 312.752 525.327 315.802L525.323 315.809C521.951 321.903 518.578 327.998 515.192 334.084C511.038 341.549 505.816 350.646 496.724 352.524C492.947 353.303 488.682 352.842 485.424 350.666C483.844 349.612 482.915 348.203 481.929 346.706C481.715 346.382 481.498 346.053 481.272 345.723C480.173 344.122 478.893 342.643 477.488 341.304C471.061 335.181 462.289 332.136 453.72 330.528C449.331 329.705 444.893 329.219 440.455 328.733L440.455 328.733C435.445 328.185 430.436 327.637 425.498 326.603C416.329 324.684 407.877 320.716 399.992 315.73C393.735 311.773 387.835 307.272 381.936 302.772L381.936 302.771C373.32 296.198 364.707 289.627 354.988 284.757C347.682 281.096 339.897 278.686 331.772 277.762C323.932 276.87 316.004 277.282 308.197 278.296C299.722 279.396 291.377 281.208 283.031 283.02L283.031 283.02L283.031 283.02L283.03 283.02L283.03 283.02L283.03 283.02L283.029 283.02L283.029 283.02L283.029 283.021L283.029 283.021L283.028 283.021L283.028 283.021L283.028 283.021L283.028 283.021C275.21 284.718 267.393 286.415 259.468 287.527C226.042 292.217 186.384 284.998 168.445 253.245C161.032 240.125 158.034 223.957 163.03 209.457C168.679 193.055 183.591 182.231 199.325 176.427C215.04 170.632 231.838 169.663 248.43 168.707L248.431 168.707L248.44 168.707L248.449 168.706L248.458 168.706L248.467 168.705L248.476 168.705L248.485 168.704C250.271 168.601 252.055 168.498 253.835 168.39ZM336.812 143.189C331.669 150.766 324.371 156.45 316.265 160.575C308.404 164.491 299.923 166.991 291.295 168.526C281.893 170.194 271.981 170.79 262.003 171.389L262.002 171.389C237.607 172.854 212.817 174.342 194.126 191.599C183.389 201.512 178.274 215.456 180.015 229.948C181.665 243.688 188.746 256.764 198.97 266.028C210.845 276.786 226.742 282.265 242.464 283.998C258.922 285.812 275.061 283.338 291.126 279.892C292.469 279.604 293.815 279.312 295.163 279.019C309.101 275.989 323.304 272.902 337.615 274.095C346.062 274.8 354.143 277.211 361.673 281.093C369.422 285.087 376.47 290.277 383.4 295.529C383.874 295.888 384.347 296.247 384.821 296.607C398.144 306.717 411.633 316.954 428.48 320.059C432.46 320.793 436.486 321.232 440.512 321.671L440.512 321.671L440.512 321.671L440.513 321.671L440.513 321.671L440.513 321.671L440.514 321.671L440.514 321.671L440.514 321.671L440.515 321.671L440.515 321.671L440.516 321.671L440.516 321.672L440.516 321.672C445.463 322.211 450.409 322.75 455.27 323.837C464.108 325.811 473.342 329.758 478.436 337.65C480.182 340.358 481.953 342.333 485.104 343.399C488.086 344.409 491.434 344.406 494.45 343.544C502.089 341.362 506.738 333.84 510.392 327.343C516.916 315.745 523.342 304.091 529.769 292.437C532.938 286.69 536.107 280.944 539.287 275.204C540.841 272.399 542.397 269.596 543.953 266.793L543.955 266.79L543.957 266.787L543.958 266.785L543.96 266.782L543.961 266.779L543.963 266.776L543.964 266.773L543.966 266.77L543.967 266.768L543.969 266.765L543.971 266.762L543.972 266.759C547.169 261.002 550.366 255.244 553.541 249.474C557.097 243.009 560.515 236.45 563.301 229.611C568.621 216.546 571.561 201.812 566.086 188.29C560.118 173.55 546.36 163.524 533.848 154.407C533.275 153.989 532.705 153.574 532.138 153.16C516.167 141.493 499.509 130.765 482.283 121.044C465.57 111.613 448.299 102.847 430.492 95.6594C415.201 89.4875 398.49 85.0915 382.014 88.6984C374.943 90.2454 368.123 93.2251 362.515 97.8484C355.885 103.312 351.754 110.871 348.397 118.643C347.529 120.652 346.702 122.686 345.874 124.722L345.874 124.723L345.874 124.723L345.874 124.724L345.873 124.724L345.873 124.725L345.873 124.725L345.873 124.726L345.873 124.726L345.873 124.727L345.872 124.727L345.872 124.728L345.872 124.728L345.872 124.729L345.872 124.729L345.871 124.729L345.871 124.729L345.871 124.73L345.871 124.73L345.871 124.73L345.871 124.73L345.871 124.73L345.871 124.731L345.87 124.731L345.87 124.731C343.282 131.098 340.685 137.484 336.812 143.189ZM316.68 161.249C316.669 161.256 316.657 161.263 316.645 161.269C301.245 168.939 284.127 170.782 267.187 171.818C265.516 171.92 263.841 172.017 262.164 172.114L262.161 172.114L262.158 172.114L262.154 172.114L262.151 172.114L262.148 172.115L262.148 172.115C246.72 173.004 231.1 173.905 216.486 179.294C201.859 184.689 187.995 194.753 182.742 210C178.097 223.482 180.885 238.514 187.777 250.713C204.458 280.239 241.339 286.95 272.419 282.589C279.796 281.554 287.073 279.974 294.35 278.394L294.351 278.394C302.11 276.709 309.869 275.025 317.749 274.001C325.013 273.057 332.391 272.673 339.685 273.503C347.249 274.363 354.495 276.607 361.295 280.015C370.337 284.546 378.35 290.659 386.365 296.774C391.852 300.96 397.34 305.147 403.16 308.827C410.492 313.465 418.353 317.155 426.879 318.939C431.468 319.899 436.124 320.409 440.78 320.918L440.78 320.919C444.913 321.371 449.045 321.824 453.132 322.591C461.109 324.087 469.272 326.924 475.255 332.622C476.564 333.869 477.756 335.248 478.78 336.738C478.992 337.046 479.194 337.353 479.393 337.656C480.308 339.043 481.169 340.35 482.632 341.326C485.658 343.346 489.616 343.773 493.123 343.05C501.574 341.306 506.426 332.846 510.286 325.91C513.44 320.245 516.578 314.572 519.716 308.899C521.285 306.064 522.853 303.229 524.424 300.394C527.544 294.762 530.668 289.132 533.793 283.501L533.797 283.494L533.801 283.486L533.805 283.479L533.809 283.471L533.814 283.463L533.818 283.456L533.822 283.448L533.826 283.441L533.831 283.433L533.835 283.425C540.106 272.123 546.378 260.821 552.621 249.503C559.619 236.814 566.698 223.224 568.064 208.562C568.744 201.262 567.78 193.862 564.746 187.153C561.416 179.789 555.983 173.624 550.04 168.243C543.457 162.282 536.201 157.038 529.002 151.853C521.159 146.204 513.155 140.78 505.003 135.591C488.79 125.27 471.994 115.87 454.716 107.458L453.909 107.065C437.966 99.3001 421.214 91.1412 403.476 88.768C388.396 86.7504 371.53 89.7099 360.408 100.824C353.572 107.654 349.999 116.457 346.418 125.278C343.389 132.739 340.355 140.213 335.338 146.517C330.333 152.805 323.805 157.618 316.68 161.249ZM325.923 164.791C333.416 160.979 340.163 155.724 344.919 148.72C348.502 143.441 350.905 137.533 353.3 131.642C354.067 129.757 354.833 127.874 355.636 126.014C358.742 118.822 362.566 111.828 368.7 106.771C373.891 102.492 380.204 99.7329 386.749 98.2986C401.994 94.9596 417.458 99.0269 431.607 104.738C448.079 111.387 464.059 119.498 479.521 128.221C495.456 137.213 510.863 147.137 525.637 157.929C526.159 158.31 526.683 158.692 527.21 159.076C538.791 167.515 551.524 176.794 557.049 190.436C562.118 202.952 559.4 216.587 554.475 228.68C551.898 235.01 548.735 241.08 545.443 247.06C542.528 252.357 539.593 257.643 536.658 262.93L536.647 262.949C535.183 265.586 533.719 268.223 532.258 270.861C529.321 276.161 526.394 281.468 523.468 286.775L523.467 286.777L523.466 286.778L523.465 286.78L523.464 286.782L523.463 286.784L523.462 286.785L523.462 286.787L523.461 286.789L523.46 286.79L523.459 286.792L523.458 286.794L523.457 286.794L523.457 286.795C517.511 297.577 511.565 308.359 505.53 319.09C502.146 325.107 497.839 332.07 490.765 334.09C487.969 334.889 484.867 334.891 482.104 333.955C479.183 332.966 477.54 331.134 475.918 328.622C471.211 321.329 462.674 317.684 454.508 315.86C450.01 314.855 445.434 314.356 440.856 313.857C437.133 313.451 433.409 313.045 429.726 312.367C414.14 309.495 401.662 300.025 389.337 290.672L389.262 290.615L388.498 290.035L388.02 289.673C381.61 284.814 375.09 280.014 367.922 276.319C360.961 272.731 353.492 270.501 345.684 269.85C332.448 268.746 319.312 271.601 306.42 274.403C305.174 274.674 303.929 274.945 302.688 275.211C287.825 278.4 272.894 280.689 257.667 279.01C243.116 277.406 228.404 272.335 217.413 262.377C207.95 253.803 201.397 241.699 199.871 228.982C198.262 215.569 202.996 202.663 212.934 193.487C230.227 177.52 253.16 176.142 275.729 174.786C284.96 174.231 294.13 173.68 302.829 172.136C310.812 170.722 318.655 168.412 325.923 164.791ZM280.541 175.246C296.196 174.288 312.018 172.587 326.254 165.51L326.267 165.505C326.275 165.502 326.283 165.498 326.29 165.495L326.303 165.488C332.912 162.125 338.967 157.663 343.607 151.832C348.247 146.003 351.053 139.09 353.854 132.19C357.165 124.032 360.47 115.89 366.792 109.572C377.073 99.2966 392.667 96.5644 406.608 98.4291C423.007 100.624 438.496 108.167 453.235 115.346L453.991 115.714C469.973 123.497 485.51 132.192 500.506 141.738C508.049 146.538 515.452 151.556 522.706 156.781C529.363 161.575 536.071 166.425 542.16 171.937C547.656 176.912 552.679 182.612 555.758 189.423C558.563 195.625 559.453 202.464 558.824 209.211C557.561 222.769 551.014 235.335 544.542 247.067C538.813 257.454 533.056 267.827 527.3 278.2L527.296 278.208C524.35 283.518 521.403 288.829 518.46 294.141C517.055 296.676 515.652 299.212 514.248 301.749C511.297 307.082 508.346 312.416 505.381 317.742C501.816 324.15 497.333 331.972 489.524 333.583C486.288 334.25 482.633 333.855 479.842 331.991C478.493 331.09 477.699 329.884 476.856 328.604L476.856 328.604L476.856 328.603L476.856 328.603L476.856 328.603C476.672 328.324 476.485 328.041 476.291 327.757C475.343 326.376 474.239 325.099 473.027 323.944C467.489 318.669 459.934 316.042 452.549 314.656C448.771 313.947 444.951 313.529 441.131 313.111C436.822 312.639 432.513 312.167 428.265 311.278C420.381 309.627 413.113 306.216 406.333 301.928C400.948 298.524 395.871 294.65 390.795 290.777C383.382 285.121 375.97 279.467 367.607 275.277C361.312 272.123 354.605 270.046 347.603 269.25C340.851 268.482 334.026 268.839 327.304 269.711C320.012 270.658 312.832 272.217 305.652 273.775L305.651 273.776C298.923 275.236 292.194 276.697 285.374 277.654C256.638 281.687 222.536 275.483 207.113 248.183C200.74 236.905 198.163 223.011 202.457 210.545C207.313 196.451 220.13 187.148 233.65 182.162C247.171 177.174 261.622 176.342 275.897 175.519L275.898 175.519L275.898 175.519L275.917 175.518C277.461 175.429 279.003 175.34 280.541 175.246ZM353.024 154.249C348.658 160.681 342.462 165.506 335.582 169.006C328.904 172.332 321.701 174.455 314.37 175.759C306.377 177.177 297.951 177.684 289.47 178.193C268.725 179.44 247.647 180.707 231.749 195.386C222.611 203.824 218.257 215.691 219.735 228.026C221.137 239.718 227.162 250.851 235.864 258.735C245.971 267.892 259.496 272.555 272.877 274.03C286.872 275.572 300.595 273.469 314.255 270.538C314.764 270.429 315.273 270.319 315.783 270.209L316.634 270.024L317.683 269.796C329.526 267.221 341.596 264.597 353.756 265.612C360.924 266.21 367.786 268.257 374.176 271.552C380.763 274.945 386.754 279.357 392.644 283.821L393.022 284.108L393.85 284.736C405.179 293.334 416.65 302.039 430.977 304.679C434.36 305.303 437.782 305.676 441.204 306.049C445.41 306.507 449.615 306.966 453.748 307.89C461.244 309.564 469.083 312.907 473.404 319.601C474.898 321.916 476.415 323.606 479.108 324.517C481.652 325.378 484.51 325.376 487.083 324.641C493.593 322.781 497.557 316.378 500.671 310.842C506.205 301.003 511.656 291.117 517.108 281.23L517.108 281.23L517.111 281.225L517.113 281.221L517.116 281.216L517.118 281.212L517.121 281.207L517.123 281.203L517.126 281.198L517.128 281.194C519.826 276.301 522.524 271.409 525.232 266.522C526.512 264.212 527.794 261.902 529.077 259.592L529.081 259.584L529.083 259.581L529.084 259.578C531.845 254.606 534.605 249.634 537.348 244.651C540.373 239.151 543.281 233.57 545.65 227.752C550.18 216.631 552.673 204.093 548.013 192.585C542.933 180.044 531.226 171.513 520.58 163.755L520.574 163.751C520.092 163.4 519.612 163.05 519.136 162.702C505.56 152.785 491.4 143.666 476.758 135.403C462.547 127.385 447.861 119.931 432.72 113.82C419.712 108.571 405.496 104.834 391.482 107.903C385.462 109.221 379.656 111.759 374.881 115.696C369.241 120.344 365.726 126.773 362.871 133.384C362.132 135.094 361.428 136.826 360.724 138.558L360.723 138.56C358.523 143.972 356.316 149.4 353.024 154.249ZM336.018 169.667C336.001 169.679 335.982 169.69 335.962 169.7C322.863 176.225 308.302 177.794 293.892 178.674C292.472 178.761 291.048 178.843 289.622 178.925C276.508 179.681 263.232 180.447 250.812 185.027C238.4 189.605 226.63 198.148 222.171 211.087C218.227 222.534 220.594 235.292 226.445 245.649C240.609 270.723 271.934 276.419 298.325 272.716C304.592 271.837 310.775 270.494 316.957 269.152L316.958 269.152L316.958 269.152L316.958 269.152L316.959 269.152L316.959 269.152L316.96 269.151L316.96 269.151L316.96 269.151L316.961 269.151L316.961 269.151C323.559 267.719 330.156 266.286 336.856 265.416C343.037 264.613 349.31 264.285 355.517 264.991C361.956 265.724 368.125 267.632 373.916 270.534C381.602 274.385 388.414 279.582 395.227 284.78C399.891 288.338 404.556 291.896 409.502 295.024C415.731 298.964 422.406 302.097 429.648 303.613C433.549 304.43 437.507 304.863 441.465 305.296L441.465 305.296L441.466 305.296L441.466 305.296L441.466 305.296L441.466 305.296L441.466 305.296L441.466 305.296L441.466 305.296L441.466 305.296L441.467 305.296C444.978 305.681 448.49 306.065 451.963 306.717C458.754 307.992 465.702 310.409 470.795 315.26C471.911 316.324 472.926 317.5 473.799 318.772C473.978 319.033 474.149 319.293 474.318 319.549C475.09 320.721 475.817 321.825 477.052 322.649C479.61 324.357 482.959 324.72 485.925 324.108C493.091 322.629 497.205 315.447 500.477 309.567C503.208 304.659 505.927 299.745 508.646 294.831L508.655 294.815C509.934 292.502 511.214 290.19 512.495 287.878C515.066 283.238 517.64 278.599 520.214 273.96L520.226 273.939L520.227 273.938L520.227 273.937L520.228 273.936L520.228 273.935L520.229 273.934L520.229 273.933L520.23 273.932L520.231 273.931L520.231 273.93C525.65 264.165 531.069 254.399 536.463 244.619C542.406 233.844 548.421 222.301 549.582 209.848C550.159 203.653 549.343 197.374 546.768 191.68C543.938 185.424 539.325 180.189 534.278 175.618C528.685 170.555 522.522 166.1 516.407 161.696C509.742 156.895 502.938 152.284 496.007 147.873C482.227 139.1 467.949 131.111 453.262 123.959L452.56 123.617C439.022 117.023 424.797 110.096 409.737 108.08C396.933 106.367 382.613 108.873 373.17 118.311C367.361 124.115 364.324 131.597 361.281 139.094C358.708 145.433 356.131 151.783 351.87 157.138C347.616 162.482 342.072 166.579 336.018 169.667ZM345.239 173.221C351.507 170.031 357.153 165.637 361.13 159.778C364.132 155.355 366.146 150.405 368.153 145.469C368.795 143.89 369.437 142.312 370.11 140.754C372.715 134.724 375.923 128.859 381.065 124.619C385.423 121.025 390.722 118.707 396.217 117.504C409.001 114.704 421.97 118.109 433.835 122.899C447.643 128.472 461.036 135.269 473.996 142.581C487.346 150.114 500.256 158.431 512.634 167.472C513.068 167.789 513.504 168.107 513.943 168.426L513.948 168.43C523.661 175.508 534.34 183.29 538.977 194.733C543.231 205.234 540.959 216.675 536.826 226.823C534.665 232.132 532.013 237.222 529.252 242.239C526.787 246.718 524.305 251.189 521.822 255.66L521.814 255.676L521.81 255.682L521.806 255.689C520.605 257.852 519.404 260.015 518.205 262.179C515.732 266.642 513.269 271.11 510.805 275.578C505.832 284.595 500.859 293.614 495.811 302.588C492.966 307.646 489.345 313.487 483.401 315.185C481.05 315.855 478.437 315.858 476.112 315.071C473.648 314.236 472.259 312.691 470.891 310.572C466.957 304.477 459.816 301.435 452.991 299.909C449.223 299.067 445.388 298.649 441.552 298.231C438.433 297.891 435.313 297.551 432.228 296.983C419.161 294.574 408.697 286.634 398.363 278.792L398.352 278.784C397.991 278.509 397.629 278.235 397.268 277.961C391.898 273.89 386.434 269.868 380.429 266.773C374.608 263.773 368.358 261.908 361.828 261.362C350.745 260.438 339.747 262.828 328.952 265.174C327.906 265.402 326.862 265.629 325.82 265.852C313.362 268.524 300.845 270.444 288.083 269.036C275.872 267.691 263.533 263.438 254.31 255.081C246.37 247.887 240.873 237.727 239.595 227.057C238.247 215.803 242.22 204.971 250.56 197.272C265.06 183.883 284.279 182.727 303.197 181.589C310.932 181.123 318.617 180.661 325.908 179.367C332.589 178.187 339.153 176.253 345.239 173.221ZM307.245 182.102C320.368 181.299 333.627 179.872 345.562 173.944C345.581 173.937 345.601 173.929 345.621 173.919C351.168 171.097 356.248 167.349 360.143 162.454C364.026 157.573 366.376 151.785 368.721 146.006C371.495 139.172 374.263 132.351 379.558 127.06C388.161 118.462 401.208 116.18 412.873 117.742C426.603 119.581 439.574 125.899 451.915 131.91L452.54 132.215C465.931 138.735 478.949 146.02 491.513 154.018C497.832 158.039 504.035 162.243 510.113 166.622C515.685 170.635 521.301 174.696 526.398 179.309C530.999 183.474 535.203 188.245 537.781 193.946C540.126 199.132 540.867 204.851 540.341 210.494C539.284 221.841 533.801 232.36 528.384 242.178C523.503 251.027 518.6 259.863 513.697 268.7L513.696 268.701L513.695 268.702L513.695 268.703L513.694 268.704L513.69 268.711L513.686 268.719L513.681 268.727L513.677 268.734L513.673 268.742L513.66 268.765L513.647 268.788C511.274 273.065 508.901 277.341 506.531 281.62C505.361 283.73 504.194 285.841 503.026 287.952C500.545 292.435 498.065 296.918 495.574 301.395C492.594 306.748 488.851 313.293 482.327 314.639C479.632 315.196 476.588 314.866 474.264 313.312C473.143 312.563 472.483 311.56 471.783 310.496C471.629 310.263 471.474 310.026 471.311 309.789C470.514 308.628 469.586 307.552 468.566 306.581C463.918 302.154 457.579 299.945 451.379 298.783C448.215 298.189 445.014 297.838 441.814 297.488L441.814 297.488L441.814 297.488L441.813 297.488L441.813 297.488L441.813 297.488L441.812 297.488L441.812 297.488L441.812 297.488L441.811 297.488L441.811 297.488C438.201 297.093 434.591 296.697 431.033 295.953C424.431 294.572 418.348 291.715 412.671 288.126C408.162 285.274 403.909 282.029 399.657 278.785L399.657 278.785C393.445 274.046 387.234 269.307 380.226 265.795C374.941 263.147 369.311 261.405 363.433 260.736C357.771 260.092 352.047 260.392 346.409 261.124C340.299 261.917 334.283 263.223 328.267 264.529C322.63 265.753 316.992 266.977 311.278 267.779C287.231 271.152 258.685 265.962 245.778 243.117C240.448 233.682 238.292 222.059 241.885 211.63C245.943 199.846 256.669 192.064 267.973 187.894C279.292 183.72 291.389 183.022 303.339 182.332C304.643 182.257 305.945 182.182 307.245 182.102ZM369.236 165.31C365.647 170.596 360.553 174.561 354.898 177.438C349.404 180.174 343.477 181.919 337.444 182.989C330.857 184.158 323.916 184.576 316.929 184.997C299.837 186.026 282.474 187.072 269.37 199.171C261.831 206.131 258.237 215.925 259.454 226.101C260.608 235.749 265.576 244.936 272.755 251.441C281.092 258.996 292.248 262.841 303.287 264.058C314.817 265.329 326.126 263.595 337.381 261.181C338.322 260.979 339.265 260.774 340.209 260.569C349.956 258.45 359.887 256.291 369.894 257.127C375.786 257.617 381.424 259.301 386.676 262.008C392.101 264.804 397.036 268.438 401.886 272.114C402.217 272.364 402.547 272.615 402.877 272.865C412.214 279.95 421.667 287.124 433.473 289.299C436.26 289.812 439.077 290.119 441.895 290.427C445.359 290.804 448.822 291.182 452.226 291.943C458.379 293.318 464.823 296.059 468.371 301.555C469.613 303.478 470.875 304.88 473.112 305.637C475.218 306.35 477.586 306.349 479.716 305.74C485.096 304.204 488.373 298.922 490.948 294.344C495.495 286.26 499.974 278.138 504.453 270.015C506.691 265.957 508.929 261.898 511.175 257.845C512.285 255.841 513.397 253.838 514.509 251.835C516.729 247.837 518.949 243.839 521.154 239.833C523.65 235.3 526.046 230.698 528 225.9C531.738 216.721 533.784 206.383 529.939 196.886C525.752 186.546 516.1 179.512 507.323 173.117C506.924 172.826 506.527 172.537 506.132 172.248C494.951 164.081 483.291 156.571 471.232 149.766C459.523 143.158 447.423 137.018 434.948 131.983C424.225 127.654 412.505 124.579 400.952 127.109C395.981 128.198 391.19 130.295 387.248 133.544C382.6 137.377 379.702 142.676 377.347 148.126C376.739 149.531 376.161 150.955 375.581 152.379L375.581 152.381L375.58 152.382L375.579 152.383L375.579 152.385L375.578 152.386L375.578 152.388L375.577 152.389C373.765 156.847 371.947 161.317 369.236 165.31ZM355.278 178.131C344.478 183.511 332.477 184.803 320.597 185.53C319.43 185.601 318.26 185.669 317.089 185.736L317.087 185.736C306.291 186.358 295.362 186.988 285.135 190.76C274.939 194.521 265.26 201.543 261.599 212.172C258.357 221.583 260.302 232.068 265.113 240.583C276.762 261.202 302.529 265.885 324.233 262.839C329.397 262.115 334.491 261.009 339.585 259.903C345.016 258.724 350.448 257.545 355.964 256.828C361.06 256.167 366.232 255.894 371.35 256.477C376.666 257.081 381.757 258.656 386.537 261.051C392.866 264.222 398.474 268.502 404.085 272.782C407.926 275.713 411.768 278.645 415.843 281.221C420.968 284.462 426.459 287.04 432.418 288.287C435.632 288.96 438.891 289.316 442.152 289.673L442.152 289.673L442.153 289.674L442.153 289.674L442.153 289.674L442.154 289.674L442.154 289.674L442.155 289.674L442.155 289.674C445.046 289.99 447.937 290.307 450.796 290.844C456.402 291.895 462.134 293.894 466.336 297.898C467.26 298.778 468.099 299.753 468.822 300.805C468.967 301.017 469.106 301.228 469.243 301.437C469.873 302.395 470.467 303.298 471.475 303.973C473.566 305.371 476.304 305.667 478.73 305.166C484.612 303.952 487.985 298.048 490.672 293.222C492.838 289.33 494.995 285.433 497.151 281.536C498.29 279.477 499.429 277.419 500.57 275.361C502.718 271.483 504.869 267.607 507.02 263.731C511.456 255.736 515.892 247.742 520.308 239.735C525.197 230.872 530.148 221.377 531.102 211.135C531.576 206.046 530.909 200.886 528.795 196.207C526.466 191.061 522.672 186.755 518.518 182.994C513.918 178.828 508.847 175.163 503.817 171.54C498.328 167.586 492.723 163.789 487.017 160.156C475.667 152.932 463.91 146.353 451.815 140.462L451.243 140.183C440.104 134.757 428.397 129.054 416.005 127.394C405.479 125.985 393.704 128.042 385.939 135.801C381.158 140.578 378.659 146.737 376.154 152.91C374.036 158.127 371.915 163.354 368.409 167.762C364.888 172.188 360.295 175.578 355.278 178.131ZM364.555 181.653C369.598 179.087 374.143 175.554 377.342 170.84C379.759 167.279 381.381 163.292 382.998 159.317C383.518 158.038 384.038 156.76 384.584 155.498C386.687 150.63 389.279 145.894 393.433 142.469C396.957 139.564 401.242 137.687 405.687 136.714C416.011 134.453 426.482 137.198 436.063 141.066C447.205 145.563 458.013 151.047 468.471 156.949C479.237 163.023 489.649 169.73 499.632 177.023C499.984 177.28 500.338 177.538 500.694 177.797C508.536 183.511 517.163 189.798 520.904 199.035C524.342 207.526 522.518 216.767 519.176 224.973C517.43 229.261 515.289 233.373 513.06 237.424C511.032 241.11 508.988 244.79 506.946 248.469L506.945 248.469L506.945 248.47L506.945 248.47L506.945 248.47L506.944 248.471L506.944 248.471L506.944 248.472C506.012 250.15 505.08 251.827 504.15 253.506C502.186 257.052 500.228 260.602 498.27 264.152C494.231 271.478 490.191 278.804 486.09 286.095C483.785 290.193 480.85 294.912 476.033 296.289C474.125 296.833 472.002 296.835 470.116 296.198C468.108 295.517 466.973 294.26 465.858 292.533C462.695 287.636 456.95 285.196 451.467 283.971C448.428 283.292 445.335 282.955 442.242 282.618C439.726 282.344 437.211 282.069 434.723 281.611C424.175 279.667 415.731 273.259 407.391 266.931C407.097 266.708 406.803 266.485 406.51 266.263C402.178 262.98 397.773 259.735 392.93 257.239C388.248 254.825 383.22 253.326 377.968 252.887C369.032 252.141 360.167 254.069 351.464 255.961L351.454 255.963C350.617 256.145 349.782 256.326 348.948 256.505C338.896 258.662 328.793 260.211 318.494 259.075C308.625 257.987 298.656 254.55 291.203 247.798C284.785 241.982 280.345 233.768 279.315 225.142C278.229 216.045 281.443 207.289 288.182 201.066C299.889 190.257 315.396 189.322 330.664 188.401L330.664 188.401L330.664 188.401L330.665 188.401L330.665 188.401L330.665 188.401L330.666 188.401L330.666 188.401C336.903 188.025 343.101 187.651 348.983 186.607C354.364 185.651 359.654 184.095 364.555 181.653ZM333.95 188.959C344.549 188.311 355.255 187.157 364.894 182.368C364.908 182.362 364.922 182.356 364.936 182.349C369.422 180.067 373.529 177.034 376.676 173.075C379.804 169.142 381.697 164.477 383.587 159.82C385.823 154.31 388.054 148.812 392.321 144.547C399.245 137.627 409.747 135.796 419.136 137.053C430.189 138.534 440.633 143.621 450.568 148.46L451.088 148.714C461.888 153.972 472.387 159.847 482.52 166.298C487.617 169.543 492.619 172.932 497.521 176.463C502.008 179.696 506.533 182.965 510.638 186.683C514.344 190.037 517.73 193.877 519.807 198.471C521.694 202.642 522.286 207.241 521.863 211.778C521.013 220.915 516.594 229.388 512.232 237.294C508.33 244.366 504.411 251.43 500.491 258.493L500.487 258.501C498.526 262.034 496.566 265.568 494.607 269.102C493.581 270.954 492.556 272.806 491.531 274.659L491.524 274.672C489.609 278.133 487.694 281.594 485.771 285.05C483.378 289.349 480.376 294.614 475.135 295.696C472.98 296.14 470.548 295.876 468.69 294.634C467.798 294.037 467.272 293.237 466.715 292.39L466.714 292.388C466.591 292.201 466.466 292.012 466.336 291.822C465.689 290.878 464.938 290.006 464.111 289.217C460.352 285.638 455.228 283.848 450.215 282.907C447.661 282.428 445.079 282.145 442.497 281.862L442.497 281.862L442.497 281.862L442.497 281.862L442.497 281.862L442.496 281.862L442.496 281.862L442.496 281.862C439.585 281.543 436.675 281.225 433.806 280.625C428.488 279.512 423.591 277.214 419.017 274.321C415.381 272.021 411.951 269.404 408.522 266.788C403.512 262.965 398.503 259.144 392.851 256.312C388.575 254.167 384.025 252.761 379.269 252.22C374.695 251.699 370.073 251.944 365.52 252.536C360.593 253.175 355.743 254.228 350.892 255.282L350.892 255.282C346.345 256.269 341.797 257.256 337.187 257.903C317.828 260.62 294.839 256.444 284.448 238.052C280.157 230.459 278.422 221.109 281.314 212.717C284.577 203.241 293.209 196.98 302.298 193.628C311.422 190.262 321.172 189.699 330.804 189.144C331.854 189.083 332.903 189.023 333.95 188.959ZM385.45 176.369C382.638 180.512 378.645 183.614 374.214 185.868C369.904 188.016 365.253 189.383 360.518 190.221C355.339 191.14 349.883 191.469 344.391 191.801L344.391 191.801C330.95 192.613 317.301 193.437 306.992 202.956C301.052 208.441 298.219 216.158 299.175 224.177C300.082 231.778 303.992 239.021 309.649 244.147C316.219 250.1 325.002 253.128 333.7 254.087C342.766 255.086 351.661 253.721 360.512 251.823C360.757 251.77 361.003 251.717 361.249 251.664C361.736 251.559 362.224 251.452 362.712 251.346L362.715 251.345L362.716 251.345C370.373 249.68 378.175 247.982 386.038 248.639C390.652 249.022 395.07 250.342 399.182 252.462C403.444 254.659 407.321 257.513 411.132 260.403C411.389 260.597 411.645 260.792 411.901 260.986C419.246 266.559 426.683 272.203 435.972 273.915C438.163 274.319 440.38 274.561 442.596 274.803C445.316 275.099 448.035 275.396 450.708 275.993C455.521 277.068 460.565 279.207 463.342 283.505C464.332 285.037 465.338 286.151 467.119 286.754C468.785 287.317 470.664 287.317 472.35 286.835C476.602 285.621 479.193 281.462 481.228 277.843C484.843 271.418 488.403 264.961 491.963 258.506L491.964 258.504L491.967 258.499C493.683 255.386 495.4 252.273 497.122 249.164C497.961 247.65 498.801 246.137 499.641 244.624C501.42 241.422 503.198 238.22 504.964 235.011C506.929 231.442 508.814 227.818 510.352 224.042C513.299 216.807 514.9 208.665 511.869 201.181C508.571 193.041 500.972 187.504 494.063 182.47C493.751 182.242 493.44 182.016 493.131 181.79C484.346 175.372 475.184 169.472 465.709 164.125C456.502 158.93 446.987 154.102 437.178 150.143C428.737 146.737 419.514 144.322 410.421 146.314C406.503 147.172 402.725 148.828 399.617 151.391C395.959 154.408 393.675 158.579 391.822 162.867C391.343 163.976 390.887 165.098 390.43 166.221L390.43 166.221C389.006 169.722 387.579 173.232 385.45 176.369ZM374.572 186.573C366.079 190.798 356.644 191.815 347.303 192.387C346.391 192.443 345.476 192.495 344.561 192.548C336.079 193.037 327.494 193.531 319.46 196.494C311.479 199.437 303.895 204.938 301.028 213.258C298.488 220.632 300.012 228.847 303.782 235.518C312.915 251.684 333.126 255.353 350.14 252.964C354.194 252.395 358.193 251.527 362.192 250.659C366.464 249.732 370.735 248.804 375.074 248.241C379.085 247.72 383.156 247.504 387.185 247.962C391.379 248.439 395.39 249.678 399.161 251.569C404.133 254.061 408.54 257.423 412.948 260.786L412.948 260.786C415.967 263.089 418.986 265.393 422.189 267.418C426.21 269.961 430.515 271.982 435.191 272.96C437.716 273.489 440.276 273.769 442.838 274.05L442.838 274.05L442.838 274.05L442.838 274.05L442.838 274.05L442.838 274.05L442.839 274.05C445.111 274.299 447.383 274.547 449.631 274.969C454.052 275.799 458.567 277.379 461.88 280.536C462.612 281.232 463.275 282.005 463.845 282.837C463.864 282.864 463.883 282.891 463.901 282.919L463.959 283.005L464.02 283.097L464.095 283.211L464.176 283.333C464.662 284.073 465.121 284.772 465.899 285.294C467.522 286.38 469.652 286.611 471.535 286.222C476.134 285.273 478.768 280.646 480.866 276.876C482.695 273.591 484.515 270.3 486.335 267.01L486.339 267.004L486.342 266.997L486.346 266.99L486.35 266.984L486.353 266.977L486.357 266.97C487.119 265.594 487.88 264.217 488.642 262.841C490.367 259.728 492.093 256.617 493.82 253.505C497.269 247.289 500.719 241.073 504.152 234.848C507.985 227.898 511.873 220.45 512.622 212.418C512.993 208.433 512.475 204.393 510.818 200.731C508.992 196.692 506.015 193.317 502.757 190.367C499.147 187.099 495.17 184.224 491.223 181.382C486.909 178.276 482.507 175.292 478.021 172.437C469.104 166.76 459.864 161.59 450.361 156.963L449.893 156.734C441.161 152.481 431.981 148.01 422.266 146.708C414.016 145.604 404.787 147.208 398.701 153.29C394.948 157.041 392.985 161.879 391.018 166.726C389.356 170.823 387.692 174.926 384.941 178.385C382.167 181.876 378.547 184.551 374.592 186.564L374.585 186.567L374.572 186.573ZM383.872 190.084C387.688 188.142 391.132 185.47 393.555 181.9C395.393 179.191 396.625 176.16 397.855 173.138L397.856 173.135L397.857 173.132L397.858 173.13L397.859 173.127L397.86 173.124C398.253 172.158 398.646 171.192 399.058 170.238C400.661 166.531 402.636 162.925 405.799 160.317C408.491 158.097 411.761 156.662 415.155 155.918C423.017 154.196 430.992 156.281 438.29 159.226C446.766 162.648 454.989 166.818 462.945 171.307C471.129 175.925 479.042 181.021 486.629 186.565C486.895 186.759 487.162 186.954 487.43 187.149C493.405 191.503 499.978 196.292 502.831 203.332C505.455 209.808 504.077 216.854 501.525 223.117C500.196 226.383 498.564 229.517 496.866 232.604C495.262 235.52 493.646 238.429 492.03 241.339C491.384 242.502 490.739 243.664 490.094 244.827C488.599 247.525 487.109 250.227 485.62 252.928L485.617 252.932L485.614 252.939L485.612 252.942C482.546 258.502 479.48 264.062 476.368 269.597C474.602 272.736 472.353 276.335 468.666 277.388C467.203 277.806 465.568 277.808 464.121 277.318C462.568 276.793 461.688 275.822 460.826 274.487C458.435 270.788 454.088 268.949 449.948 268.026C447.638 267.509 445.287 267.253 442.935 266.997L442.935 266.997L442.935 266.997L442.935 266.997L442.935 266.997L442.934 266.997C441.023 266.788 439.111 266.58 437.221 266.232C429.188 264.752 422.756 259.87 416.405 255.05C416.188 254.885 415.972 254.72 415.755 254.556C412.463 252.062 409.114 249.596 405.432 247.698C401.89 245.873 398.082 244.735 394.108 244.404C387.327 243.838 380.599 245.3 373.993 246.736L373.985 246.738C373.347 246.876 372.711 247.015 372.076 247.151C364.428 248.792 356.741 249.971 348.905 249.107C341.377 248.277 333.781 245.657 328.095 240.506C323.201 236.071 319.814 229.799 319.034 223.221C318.212 216.28 320.66 209.602 325.803 204.854C334.716 196.625 346.509 195.911 358.124 195.208C362.867 194.921 367.581 194.636 372.057 193.841C376.142 193.116 380.153 191.936 383.872 190.084ZM360.654 195.814C368.728 195.321 376.882 194.441 384.224 190.792C384.23 190.789 384.236 190.787 384.242 190.784L384.251 190.779C387.676 189.035 390.809 186.719 393.21 183.696C395.584 180.709 397.021 177.167 398.455 173.631L398.455 173.63C400.153 169.445 401.847 165.269 405.086 162.032C410.332 156.789 418.288 155.409 425.399 156.363C433.775 157.486 441.691 161.342 449.221 165.009L449.637 165.212C457.845 169.209 465.825 173.674 473.525 178.577C477.398 181.042 481.201 183.62 484.926 186.302C488.331 188.754 491.763 191.234 494.877 194.053C497.688 196.598 500.255 199.51 501.831 202.994C503.259 206.149 503.702 209.63 503.382 213.062C502.737 219.988 499.381 226.412 496.076 232.406C493.156 237.698 490.223 242.983 487.291 248.268C485.753 251.039 484.216 253.81 482.68 256.581C481.953 257.894 481.227 259.207 480.5 260.52L480.487 260.543L480.474 260.566L480.461 260.59L480.448 260.613L480.447 260.615L480.446 260.617L480.445 260.62L480.443 260.622L480.442 260.624C478.952 263.318 477.461 266.012 475.964 268.703C474.158 271.947 471.894 275.935 467.938 276.751C466.326 277.084 464.502 276.886 463.112 275.956C462.449 275.511 462.059 274.916 461.645 274.285C461.552 274.143 461.457 273.998 461.358 273.854C460.862 273.13 460.287 272.459 459.652 271.855C456.782 269.121 452.876 267.751 449.048 267.033C447.106 266.668 445.143 266.453 443.179 266.238C440.968 265.996 438.756 265.754 436.576 265.298C432.543 264.453 428.828 262.711 425.36 260.516C422.596 258.768 419.989 256.779 417.383 254.791L417.383 254.791C413.575 251.886 409.767 248.981 405.471 246.829C402.206 245.193 398.732 244.12 395.101 243.706C391.617 243.31 388.095 243.499 384.627 243.949C380.883 244.435 377.196 245.236 373.508 246.036L373.508 246.036L373.508 246.036L373.507 246.037L373.507 246.037L373.506 246.037C370.051 246.787 366.596 247.537 363.093 248.029C348.422 250.087 330.991 246.926 323.116 232.987C319.866 227.236 318.552 220.159 320.742 213.801C323.211 206.635 329.747 201.896 336.621 199.36C343.553 196.803 350.96 196.376 358.277 195.954C359.071 195.908 359.864 195.863 360.654 195.814ZM401.784 187.245C399.74 190.331 396.804 192.631 393.53 194.3C390.398 195.858 387.024 196.848 383.586 197.457C379.813 198.127 375.843 198.368 371.85 198.61L371.849 198.61C362.068 199.205 352.145 199.807 344.624 206.738C340.325 210.7 338.234 216.284 338.879 222.089C339.498 227.667 342.327 232.987 346.451 236.769C351.173 241.099 357.493 243.332 363.772 244.08C370.374 244.867 376.877 243.916 383.329 242.538C383.96 242.403 384.592 242.266 385.225 242.128L385.225 242.128C390.708 240.936 396.28 239.724 401.911 240.137C405.243 240.382 408.447 241.29 411.429 242.792C414.531 244.353 417.348 246.406 420.11 248.494C420.428 248.734 420.746 248.975 421.064 249.217C426.288 253.178 431.594 257.202 438.179 258.481C439.87 258.809 441.582 258.996 443.294 259.183L443.294 259.183C445.253 259.397 447.213 259.611 449.14 260.037C452.624 260.807 456.303 262.345 458.314 265.46C459.019 266.551 459.734 267.366 460.993 267.827C462.193 268.268 463.55 268.295 464.786 267.988C467.884 267.219 469.838 264.279 471.321 261.677C473.986 257.007 476.575 252.292 479.163 247.577L479.164 247.576C480.435 245.259 481.707 242.943 482.988 240.632C483.622 239.487 484.257 238.343 484.892 237.199C486.165 234.905 487.437 232.611 488.704 230.314C490.13 227.729 491.499 225.106 492.626 222.373C494.804 217.092 496.027 211.129 493.858 205.638C491.497 199.66 485.972 195.615 480.937 191.929L480.919 191.916L480.702 191.757L480.411 191.544C474.049 186.879 467.413 182.588 460.552 178.696C453.822 174.88 446.865 171.351 439.698 168.426C433.515 165.902 426.764 164.077 420.08 165.48C417.241 166.074 414.505 167.239 412.222 169.045C409.537 171.173 407.817 174.146 406.457 177.239C406.054 178.156 405.675 179.087 405.297 180.018L405.296 180.019L405.296 180.02L405.296 180.021L405.295 180.021C404.284 182.508 403.271 185 401.784 187.245ZM393.876 195.011C387.748 198.049 380.954 198.813 374.217 199.23C373.476 199.276 372.734 199.319 371.991 199.361C365.954 199.709 359.85 200.06 354.115 202.108C348.253 204.202 342.623 208.173 340.489 214.258C338.615 219.602 339.702 225.564 342.43 230.414C349.038 242.164 363.728 244.829 376.075 243.087C379.013 242.673 381.912 242.044 384.81 241.415L384.811 241.415L384.811 241.415L384.812 241.415L384.812 241.415C387.87 240.751 390.928 240.087 394.032 239.676C400.033 238.88 405.962 239.251 411.473 241.936C415.215 243.759 418.513 246.276 421.811 248.793C423.904 250.39 425.997 251.988 428.204 253.408C431.089 255.265 434.179 256.787 437.543 257.546C439.521 257.991 441.534 258.212 443.547 258.433L443.547 258.433L443.548 258.433L443.548 258.433L443.548 258.433L443.548 258.433L443.549 258.433L443.549 258.433L443.549 258.433C445.081 258.602 446.613 258.77 448.13 259.037C451.337 259.602 454.593 260.685 457.079 262.863C457.673 263.384 458.209 263.967 458.677 264.605C458.818 264.797 458.945 264.999 459.071 265.2L459.071 265.2C459.336 265.619 459.598 266.035 459.983 266.362C461.109 267.323 462.749 267.563 464.171 267.313C467.566 266.718 469.509 263.314 471.042 260.563C472.257 258.382 473.465 256.198 474.674 254.013L474.692 253.981C475.35 252.792 476.007 251.603 476.666 250.415C477.917 248.157 479.169 245.9 480.421 243.643C482.921 239.134 485.422 234.625 487.916 230.112C490.706 225.062 493.555 219.656 494.132 213.82C494.418 210.91 494.06 207.953 492.853 205.274C491.539 202.359 489.401 199.922 487.053 197.791C484.456 195.43 481.591 193.358 478.747 191.306C475.633 189.059 472.454 186.902 469.217 184.835C462.741 180.704 456.032 176.939 449.13 173.568L448.71 173.362C442.346 170.253 435.647 166.98 428.569 166.023C422.612 165.218 415.96 166.351 411.536 170.711C408.763 173.444 407.32 176.997 405.874 180.557C404.65 183.571 403.424 186.591 401.386 189.124C399.374 191.626 396.76 193.542 393.912 194.994C393.9 195 393.888 195.006 393.876 195.011ZM403.188 198.515C405.833 197.162 408.208 195.31 409.864 192.815C411.073 190.992 411.896 188.967 412.718 186.946C413.039 186.156 413.359 185.367 413.703 184.591C414.817 182.073 416.235 179.663 418.438 177.946C420.342 176.464 422.614 175.52 424.972 175.051C430.364 173.979 435.794 175.457 440.775 177.491C446.613 179.875 452.281 182.75 457.763 185.86C463.408 189.063 468.866 192.6 474.093 196.447L474.385 196.662C478.48 199.674 482.965 202.974 484.857 207.872C486.592 212.363 485.556 217.233 483.767 221.532C482.138 225.446 480.013 229.167 477.902 232.866L477.901 232.867C477.223 234.056 476.545 235.243 475.886 236.432C474.859 238.285 473.841 240.143 472.822 242L472.821 242.001L472.821 242.001L472.821 242.001C470.725 245.822 468.629 249.644 466.465 253.425C465.259 255.529 463.677 257.868 461.186 258.516C459.152 259.043 457.037 258.418 455.909 256.613C453.3 252.44 448.217 251.878 443.555 251.363C442.315 251.226 441.105 251.092 439.979 250.895C434.292 249.898 429.776 246.469 425.289 243.062L425.289 243.062L425.199 242.994C420.7 239.579 416.019 236.389 410.227 235.915C405.591 235.536 401 236.535 396.485 237.517L396.485 237.517L396.484 237.518C395.976 237.628 395.47 237.738 394.964 237.846C389.688 238.973 384.37 239.75 378.971 239.095C373.869 238.477 368.735 236.653 364.903 233.128C361.553 230.047 359.256 225.725 358.747 221.19C358.216 216.45 359.915 211.892 363.418 208.65C369.535 202.991 377.627 202.498 385.596 202.013C388.801 201.817 391.986 201.623 395.015 201.095C397.842 200.601 400.612 199.792 403.188 198.515ZM387.758 202.646C393.162 202.305 398.59 201.66 403.508 199.238C403.529 199.232 403.551 199.223 403.572 199.212C405.903 198.02 408.037 196.452 409.685 194.401C411.333 192.347 412.325 189.9 413.316 187.458C414.491 184.563 415.663 181.675 417.92 179.457C421.6 175.841 427.157 174.982 432.083 175.737C437.773 176.61 443.151 179.245 448.28 181.758L448.542 181.886C454.138 184.628 459.579 187.687 464.828 191.046C467.453 192.726 470.029 194.479 472.555 196.304C474.851 197.964 477.167 199.641 479.258 201.556C481.149 203.288 482.863 205.266 483.907 207.63C484.877 209.827 485.136 212.249 484.876 214.623C484.355 219.401 481.982 223.807 479.689 227.945C476.714 233.316 473.738 238.686 470.761 244.056L470.579 244.385C470.1 245.25 469.622 246.116 469.144 246.981C468.118 248.838 467.092 250.696 466.056 252.548C464.793 254.803 463.14 257.573 460.302 257.877C459.172 257.998 457.884 257.742 457.075 256.891C456.84 256.644 456.657 256.352 456.473 256.061C456.347 255.861 456.221 255.66 456.078 255.475C455.695 254.977 455.256 254.525 454.775 254.12C452.764 252.424 450.189 251.568 447.633 251.114C446.391 250.893 445.137 250.756 443.882 250.618L443.882 250.618C442.32 250.447 440.758 250.275 439.22 249.944C436.484 249.356 433.968 248.155 431.617 246.659C429.755 245.476 427.997 244.134 426.24 242.793L426.239 242.793C423.636 240.807 421.034 238.822 418.097 237.349C413.656 235.122 408.881 234.724 404.005 235.327C401.342 235.657 398.723 236.225 396.103 236.793C393.843 237.284 391.582 237.775 389.293 238.112C379.23 239.592 367.179 237.498 361.773 227.902C359.556 223.968 358.673 219.129 360.203 214.794C361.959 209.816 366.612 206.598 371.419 204.924C376.012 203.324 380.884 203.044 385.708 202.767C386.392 202.728 387.076 202.689 387.758 202.646ZM418.166 198.038C416.884 200.11 414.995 201.627 412.846 202.731C410.828 203.728 408.66 204.354 406.448 204.728C404.159 205.117 401.757 205.264 399.34 205.412L399.339 205.412C393.186 205.79 386.936 206.173 382.213 210.557C379.531 213.048 378.215 216.546 378.603 220.186C378.979 223.713 380.753 227.085 383.354 229.484C389.592 235.235 398.707 234.83 406.428 233.188C406.868 233.095 407.309 232.999 407.75 232.903C411.155 232.161 414.611 231.409 418.107 231.656C422.664 231.98 426.313 234.477 429.845 237.158C433.296 239.779 436.767 242.412 441.136 243.188C442.082 243.355 443.039 243.46 443.996 243.564L443.997 243.564L443.997 243.564C445.301 243.706 446.605 243.848 447.882 244.151C449.064 244.431 450.222 244.841 451.256 245.486C452.265 246.116 452.885 246.905 453.56 247.855C454.447 249.104 456.169 249.434 457.585 249.044C459.471 248.524 460.679 246.777 461.606 245.173C463.324 242.197 464.975 239.179 466.625 236.161C467.427 234.696 468.228 233.232 469.036 231.773C469.529 230.883 470.035 229.996 470.543 229.106L470.544 229.105L470.544 229.105C472.176 226.246 473.819 223.368 475.054 220.332C476.396 217.033 477.118 213.328 475.776 209.909C474.306 206.162 470.871 203.634 467.73 201.322L467.522 201.169C463.42 198.148 459.136 195.375 454.701 192.871C450.494 190.495 446.144 188.29 441.661 186.479C437.817 184.927 433.626 183.831 429.481 184.7C427.733 185.067 426.052 185.777 424.629 186.868C422.956 188.151 421.852 189.945 420.994 191.842C420.693 192.509 420.417 193.188 420.141 193.868L420.141 193.868C419.56 195.296 418.979 196.724 418.166 198.038ZM413.19 203.443C408.939 205.53 404.348 205.812 399.75 206.094C396.022 206.323 392.288 206.552 388.726 207.743C384.975 208.998 381.297 211.459 379.918 215.333C378.72 218.697 379.428 222.453 381.175 225.492C385.435 232.899 394.853 234.351 402.62 233.117C404.229 232.861 405.822 232.516 407.415 232.172C409.503 231.72 411.591 231.268 413.715 231.017C417.396 230.582 421.007 230.915 424.359 232.585C426.633 233.719 428.647 235.255 430.661 236.791L430.662 236.791L430.662 236.791C431.942 237.768 433.223 238.745 434.571 239.619C436.366 240.782 438.279 241.744 440.372 242.229C441.641 242.523 442.934 242.665 444.227 242.806C445.061 242.898 445.894 242.989 446.721 243.121C448.749 243.447 450.81 244.062 452.44 245.357C453.149 245.92 453.631 246.576 454.142 247.304C454.72 248.13 455.658 248.455 456.645 248.4C458.903 248.275 460.209 246.048 461.194 244.292C461.977 242.895 462.751 241.493 463.525 240.091C463.913 239.389 464.3 238.688 464.688 237.987C465.473 236.571 466.258 235.155 467.044 233.738L467.05 233.727L467.056 233.716C468.611 230.91 470.167 228.104 471.719 225.296C473.464 222.141 475.267 218.773 475.647 215.128C475.838 213.288 475.616 211.419 474.843 209.729C474.002 207.891 472.632 206.367 471.142 205.029C467.726 201.963 463.775 199.373 459.91 196.917C455.873 194.354 451.691 192.019 447.391 189.928L447.09 189.782C443.101 187.842 438.884 185.79 434.435 185.286C430.715 184.865 426.593 185.693 423.966 188.542C422.428 190.21 421.584 192.291 420.738 194.376C419.967 196.277 419.195 198.181 417.893 199.778C416.628 201.332 415.001 202.514 413.228 203.425C413.22 203.429 413.213 203.433 413.205 203.436L413.199 203.439C413.196 203.44 413.193 203.442 413.19 203.443ZM422.505 206.946C424.03 206.158 425.348 205.088 426.243 203.604C426.783 202.71 427.176 201.744 427.569 200.778L427.569 200.778C427.785 200.247 428.001 199.715 428.242 199.195C429.456 196.579 431.507 194.814 434.371 194.274C437.324 193.717 440.278 194.534 442.999 195.655C446.16 196.958 449.23 198.513 452.2 200.205C455.231 201.929 458.159 203.834 460.964 205.905L461.053 205.971C463.287 207.619 465.726 209.418 466.752 212.099C467.684 214.529 467.152 217.159 466.192 219.492C465.311 221.63 464.153 223.659 463.002 225.675C462.641 226.308 462.28 226.94 461.929 227.574C461.365 228.592 460.81 229.617 460.255 230.643L460.255 230.644C459.091 232.794 457.926 234.946 456.676 237.038C456.029 238.121 455.162 239.268 453.877 239.599C452.895 239.853 451.719 239.643 451.055 238.829C450.93 238.676 450.817 238.526 450.706 238.379C450.389 237.959 450.094 237.567 449.613 237.232C448.935 236.758 448.156 236.453 447.362 236.24C446.373 235.974 445.358 235.863 444.342 235.752C443.703 235.682 443.065 235.612 442.434 235.504C439.311 234.97 436.844 233.108 434.381 231.239C431.917 229.369 429.364 227.623 426.182 227.415C423.751 227.256 421.356 227.778 418.987 228.295L418.986 228.295C418.556 228.389 418.126 228.483 417.697 228.572C412.28 229.702 405.808 229.803 401.577 225.622C398.031 222.119 397.115 216.157 400.956 212.516C404.279 209.363 408.711 209.087 413.074 208.816C414.753 208.712 416.423 208.608 418.015 208.34C419.57 208.081 421.087 207.641 422.505 206.946ZM422.885 207.64C422.896 207.634 422.907 207.629 422.917 207.623C424.134 206.988 425.253 206.178 426.135 205.117C427.077 203.985 427.629 202.627 428.18 201.271C428.771 199.819 429.361 198.37 430.427 197.202C432.333 195.116 435.407 194.608 438.089 195.011C441.123 195.466 443.991 196.87 446.723 198.208L446.898 198.293C449.846 199.736 452.714 201.342 455.483 203.103C458.155 204.803 460.887 206.593 463.252 208.708C465.357 210.591 466.734 212.916 466.401 215.817C466.104 218.41 464.787 220.789 463.541 223.037L463.541 223.037L463.527 223.062C461.909 225.982 460.291 228.9 458.674 231.819C458.395 232.322 458.117 232.826 457.839 233.33C457.319 234.275 456.798 235.219 456.268 236.159C455.536 237.454 454.508 239.104 452.786 238.889C452.084 238.801 451.749 238.428 451.37 237.878C451.007 237.354 450.542 236.917 450.02 236.555C448.859 235.753 447.454 235.385 446.077 235.18C445.567 235.104 445.054 235.047 444.54 234.99C443.524 234.878 442.508 234.766 441.52 234.503C440.076 234.12 438.763 233.403 437.53 232.575C436.7 232.018 435.902 231.409 435.104 230.8L435.103 230.799C433.602 229.653 432.099 228.505 430.38 227.704C426.543 225.916 422.588 226.747 418.656 227.574L418.656 227.574C417.543 227.808 416.431 228.042 415.325 228.215C409.921 229.064 403.368 228.029 400.447 222.849C399.228 220.686 398.769 218.002 399.718 215.649C400.792 212.988 403.444 211.363 406.081 210.553C408.476 209.818 410.965 209.663 413.449 209.508L413.45 209.508C416.675 209.308 419.892 209.107 422.885 207.64ZM434.321 209.169C433.809 210.061 433.063 210.685 432.163 211.161C430.489 211.964 428.639 212.086 426.794 212.208C424.541 212.357 422.296 212.506 420.389 213.893C417.55 215.959 417.831 219.933 420.27 222.214C422.756 224.538 426.411 224.49 429.53 223.841C429.784 223.788 430.038 223.732 430.293 223.677C431.689 223.371 433.106 223.061 434.535 223.199C436.336 223.371 437.761 224.45 439.156 225.507C439.258 225.584 439.361 225.662 439.463 225.738C440.959 226.864 442.413 227.668 444.291 227.903C444.461 227.924 444.632 227.943 444.803 227.962C445.618 228.051 446.445 228.143 447.189 228.501C447.68 228.737 448 229.055 448.318 229.478C448.484 229.7 448.634 229.877 448.883 230.009C450.238 230.733 451.398 229.503 452.022 228.433C452.739 227.204 453.421 225.952 454.103 224.701C454.442 224.077 454.782 223.454 455.126 222.833C455.318 222.487 455.529 222.126 455.747 221.753C457.099 219.442 458.713 216.684 457.659 214.1C457.041 212.587 455.664 211.566 454.392 210.625C452.756 209.413 451.045 208.3 449.276 207.293C447.556 206.315 445.778 205.415 443.945 204.668C442.416 204.043 440.766 203.602 439.107 203.881C437.611 204.131 436.369 204.968 435.628 206.297C435.378 206.745 435.186 207.221 434.995 207.697C434.793 208.199 434.591 208.7 434.321 209.169ZM432.593 211.827C434.25 210.935 435.043 209.608 435.752 207.908C436.157 206.937 436.595 205.953 437.492 205.337C438.192 204.858 439.046 204.631 439.884 204.587C441.797 204.485 443.653 205.351 445.342 206.144C447.185 207.01 448.977 207.986 450.704 209.066C452.242 210.029 453.787 211.051 455.173 212.225C456.399 213.264 457.322 214.536 457.185 216.214C457.064 217.704 456.302 219.078 455.591 220.362L455.562 220.414C455.029 221.379 454.494 222.343 453.96 223.307C453.602 223.951 453.245 224.596 452.888 225.241C452.72 225.543 452.553 225.845 452.387 226.148C452.085 226.696 451.783 227.244 451.476 227.788L451.435 227.86C451.044 228.557 450.467 229.584 449.524 229.387C449.183 229.316 449.019 229.091 448.844 228.85C448.771 228.751 448.697 228.649 448.607 228.554C448.381 228.313 448.112 228.107 447.826 227.941C447.233 227.595 446.552 227.414 445.879 227.305C445.547 227.251 445.211 227.214 444.875 227.177C444.361 227.121 443.847 227.064 443.343 226.946C442.535 226.755 441.8 226.384 441.106 225.936C440.563 225.585 440.048 225.192 439.532 224.798C438.735 224.19 437.938 223.582 437.039 223.131C434.705 221.96 432.296 222.46 429.885 222.961C429.545 223.032 429.204 223.103 428.864 223.169C425.735 223.775 421.775 223.532 419.91 220.533C419.155 219.317 418.825 217.756 419.359 216.391C419.975 214.812 421.584 213.894 423.144 213.464C424.452 213.103 425.795 213.015 427.135 212.926C428.977 212.805 430.813 212.684 432.544 211.855C432.561 211.846 432.578 211.837 432.593 211.827Z" fill="url(#paint0_linear_1080_1221)"/>
<defs>
<linearGradient id="paint0_linear_1080_1221" x1="572.102" y1="125.012" x2="132.377" y2="144.169" gradientUnits="userSpaceOnUse">
<stop stop-color="#020202"/>
<stop offset="0.51" stop-color="#FF6100" stop-opacity="0.89"/>
<stop offset="0.995488" stop-color="#020202"/>
</linearGradient>
</defs>
</svg>
