<svg width="448" height="567" viewBox="0 0 448 567" fill="none" xmlns="http://www.w3.org/2000/svg">
<path d="M188.227 566.538C195.717 539.185 193.947 513.165 176.249 492.099C173.258 488.541 169.367 483.923 165.513 479.349C97.8213 399.018 46.1552 337.704 53.101 257.391C58.2603 197.736 173.221 126.27 240.534 89.3225L240.1 88.7011C172.667 125.733 57.5313 197.371 52.3446 257.325C45.3706 337.949 97.1256 399.368 164.933 479.836C168.152 483.655 171.422 487.536 175.666 492.588C193.064 513.295 194.927 538.859 187.693 565.775L188.225 566.538L188.227 566.538Z" fill="url(#paint0_linear_816_368)"/>
<path d="M182.878 558.877C194.435 527.135 195.096 496.443 174.789 472.275C171.826 468.747 167.912 464.102 164.053 459.525C96.3618 379.193 44.6934 317.879 51.6406 237.564C56.5801 180.474 162.085 112.564 230.148 74.4473L229.715 73.8272C161.533 112.031 55.8495 180.118 50.8864 237.499C43.9124 318.124 95.6684 379.543 163.476 460.01C166.69 463.824 169.937 467.677 174.209 472.76C194.22 496.577 193.677 526.82 182.376 558.155L182.88 558.877L182.878 558.877Z" fill="url(#paint1_linear_816_368)"/>
<path d="M176.885 550.295C192.522 514.62 196.024 479.453 173.324 452.434C170.345 448.891 166.446 444.26 162.588 439.684C94.8964 359.353 43.228 298.039 50.1752 217.724C54.9045 163.064 151.822 98.4858 219.802 59.6309L219.371 59.0134C151.272 97.9572 54.1727 162.715 49.421 217.659C42.447 298.284 94.203 359.703 162.01 440.17C165.226 443.986 168.485 447.854 172.742 452.921C195.149 479.589 191.787 514.315 176.405 549.609L176.885 550.295Z" fill="url(#paint2_linear_816_368)"/>
<path d="M171.259 542.236C190.437 503.425 196.716 464.428 172.042 435.06C169.073 431.528 165.162 426.887 161.307 422.311C93.6153 341.98 41.9469 280.666 48.8941 200.351C53.4448 147.733 143.427 85.9238 210.786 46.718L210.356 46.1019C142.876 85.3999 52.7131 147.39 48.1376 200.286C41.1636 280.91 92.9196 342.33 160.727 422.798C163.944 426.615 167.193 430.471 171.459 435.549C195.841 464.567 189.717 503.122 170.794 541.57L171.259 542.236Z" fill="url(#paint3_linear_816_368)"/>
<path d="M165.539 534.046C188.094 492.438 197.306 449.774 170.798 418.225C167.812 414.671 163.916 410.048 160.062 405.475C92.3708 325.144 40.7024 263.83 47.6496 183.515C52.0365 132.817 135.734 73.5863 202.089 34.2617L201.659 33.647C135.182 73.0669 51.3036 132.48 46.8955 183.45C39.9214 264.075 91.6765 325.493 159.484 405.961C162.704 409.781 165.967 413.655 170.217 418.713C196.428 449.908 187.385 492.129 165.081 533.389L165.539 534.046Z" fill="url(#paint4_linear_816_368)"/>
<path d="M159.431 525.297C185.381 481.049 197.85 434.641 169.522 400.926C166.536 397.371 162.639 392.748 158.786 388.176C91.0943 307.844 39.4259 246.53 46.3731 166.215C50.3194 120.591 118.502 68.0565 180.472 29.3355L176.841 30.7331C115.619 69.3537 49.5194 121.062 45.6189 166.15C38.6449 246.775 90.4009 308.194 158.208 388.662C161.427 392.482 164.69 396.356 168.94 401.412C196.966 434.771 184.681 480.733 158.978 524.649L159.431 525.297Z" fill="url(#paint5_linear_816_368)"/>
<path d="M153.484 516.78C182.557 470.238 198.318 420.287 168.314 384.577C165.342 381.039 161.434 376.402 157.578 371.827C89.8868 291.496 38.2184 230.182 45.1656 149.867C47.9177 118.055 81.906 82.8807 123.236 51.3715L120.848 52.2909C80.254 83.5429 47.1352 118.289 44.4092 149.801C37.4351 230.426 89.1911 291.845 156.998 372.312C160.216 376.13 163.468 379.991 167.73 385.063C197.43 420.413 181.865 469.915 153.033 516.137L153.482 516.781L153.484 516.78Z" fill="url(#paint6_linear_816_368)"/>
<path d="M146.87 507.308C179.219 458.501 198.788 404.698 167.006 366.87C164.021 363.316 160.124 358.693 156.271 354.12C88.579 273.789 36.9106 212.475 43.8578 132.16C45.6767 111.147 61.1304 88.6633 83.3217 66.7393L81.6787 67.3711C59.9728 89.0644 44.904 111.285 43.1046 132.096C36.1306 212.72 87.8866 274.14 155.693 354.607C158.913 358.427 162.177 362.3 166.425 367.358C197.898 404.818 178.539 458.169 146.425 506.67L146.87 507.308Z" fill="url(#paint7_linear_816_368)"/>
<defs>
<linearGradient id="paint0_linear_816_368" x1="168.195" y1="487.326" x2="143.195" y2="151.54" gradientUnits="userSpaceOnUse">
<stop stop-color="#150132"/>
<stop offset="0.581592" stop-color="#6A29A7"/>
<stop offset="1" stop-color="#150132"/>
</linearGradient>
<linearGradient id="paint1_linear_816_368" x1="161.927" y1="478.346" x2="139.674" y2="137.156" gradientUnits="userSpaceOnUse">
<stop stop-color="#150132"/>
<stop offset="0.581592" stop-color="#6A29A7"/>
<stop offset="1" stop-color="#150132"/>
</linearGradient>
<linearGradient id="paint2_linear_816_368" x1="155.144" y1="468.634" x2="135.297" y2="122.902" gradientUnits="userSpaceOnUse">
<stop stop-color="#150132"/>
<stop offset="0.581592" stop-color="#6A29A7"/>
<stop offset="1" stop-color="#150132"/>
</linearGradient>
<linearGradient id="paint3_linear_816_368" x1="148.906" y1="459.699" x2="130.958" y2="110.498" gradientUnits="userSpaceOnUse">
<stop stop-color="#150132"/>
<stop offset="0.581592" stop-color="#6A29A7"/>
<stop offset="1" stop-color="#150132"/>
</linearGradient>
<linearGradient id="paint4_linear_816_368" x1="142.649" y1="450.738" x2="126.391" y2="98.5295" gradientUnits="userSpaceOnUse">
<stop stop-color="#150132"/>
<stop offset="0.581592" stop-color="#6A29A7"/>
<stop offset="1" stop-color="#150132"/>
</linearGradient>
<linearGradient id="paint5_linear_816_368" x1="134.918" y1="442.048" x2="128.22" y2="91.9176" gradientUnits="userSpaceOnUse">
<stop stop-color="#150132"/>
<stop offset="0.581592" stop-color="#6A29A7"/>
<stop offset="1" stop-color="#150132"/>
</linearGradient>
<linearGradient id="paint6_linear_816_368" x1="124.138" y1="436.13" x2="153.394" y2="112.442" gradientUnits="userSpaceOnUse">
<stop stop-color="#150132"/>
<stop offset="0.581592" stop-color="#6A29A7"/>
<stop offset="1" stop-color="#150132"/>
</linearGradient>
<linearGradient id="paint7_linear_816_368" x1="114.588" y1="429.086" x2="168.45" y2="136.616" gradientUnits="userSpaceOnUse">
<stop stop-color="#150132"/>
<stop offset="0.581592" stop-color="#6A29A7"/>
<stop offset="1" stop-color="#150132"/>
</linearGradient>
</defs>
</svg>
