<svg width="202" height="251" viewBox="0 0 202 251" fill="none" xmlns="http://www.w3.org/2000/svg">
<path fill-rule="evenodd" clip-rule="evenodd" d="M-206.185 -46.5973C-207.012 -31.2342 -212.571 -16.7204 -220.655 -3.75259C-228.554 8.68184 -238.57 19.6234 -249.636 29.3012C-261.666 39.8166 -275.363 49.2364 -289.153 58.7204L-289.153 58.7206L-289.153 58.7208L-289.153 58.721L-289.154 58.7212L-289.154 58.7214L-289.154 58.7215L-289.154 58.7217L-289.155 58.7219L-289.155 58.7221L-289.155 58.7223L-289.156 58.7225L-289.156 58.7227L-289.156 58.7228L-289.156 58.723L-289.157 58.7232L-289.157 58.7234L-289.157 58.7236L-289.157 58.7238L-289.158 58.7239L-289.158 58.7241C-322.858 81.9011 -357.115 105.462 -368.98 146.325C-375.785 169.763 -371.074 194.11 -356.079 213.331C-341.863 231.552 -320.454 244.133 -297.845 248.564C-271.583 253.711 -244.101 247.827 -220.123 236.746C-194.965 225.119 -173.978 207.632 -153.931 188.808C-152.257 187.236 -150.583 185.656 -148.906 184.072C-131.517 167.653 -113.794 150.917 -92.2123 140.24C-79.4429 133.923 -65.7245 130.381 -51.5176 129.432C-36.9484 128.458 -22.35 129.805 -7.86836 131.344C-6.8637 131.451 -5.8585 131.559 -4.85286 131.666C22.9634 134.64 51.1219 137.651 77.9364 127.546C84.2801 125.156 90.4336 122.303 96.5865 119.451L96.5867 119.451L96.5869 119.451L96.5871 119.451L96.5873 119.451L96.5875 119.451L96.5878 119.451L96.588 119.451L96.5882 119.45L96.5884 119.45L96.5886 119.45L96.5889 119.45L96.5891 119.45L96.5893 119.45L96.5895 119.45L96.5897 119.45L96.5899 119.45L96.5902 119.45L96.5904 119.449L96.5906 119.449L96.5908 119.449C104.154 115.944 111.716 112.439 119.629 109.791C134.082 104.956 150.811 102.643 165.008 109.592C169.788 111.932 173.974 113.223 179.339 112.044C184.448 110.921 189.2 108.051 192.753 104.236C201.769 94.5587 201.904 79.7962 201.528 67.398C200.853 45.0904 199.989 22.7868 199.125 0.48384L199.125 0.481824L199.125 0.481021L199.125 0.478401L199.125 0.476385L199.124 0.47437L199.124 0.472354L199.124 0.470338L199.124 0.468323L199.124 0.466307L199.124 0.464291L199.124 0.462275L199.124 0.46026L199.124 0.458244L199.124 0.456228L199.124 0.454213L199.124 0.452197L199.123 0.450181L199.123 0.449378L199.123 0.448574C198.699 -10.4937 198.276 -21.4358 197.874 -32.3781C197.678 -37.7141 197.487 -43.05 197.296 -48.3858L197.296 -48.3959C196.899 -59.4691 196.503 -70.5418 196.064 -81.613C195.577 -93.9367 194.811 -106.279 192.893 -118.474C189.236 -141.74 180.758 -165.37 161.271 -179.99C140.011 -195.942 111.659 -198.417 85.8799 -200.667L85.8766 -200.668L85.8664 -200.669L85.8423 -200.671L85.8253 -200.672L85.8015 -200.674L85.7802 -200.676L85.7734 -200.677C84.6198 -200.778 83.4715 -200.878 82.3292 -200.979C49.3292 -203.9 16.1568 -204.88 -16.9584 -203.922C-49.0629 -202.992 -81.3958 -200.633 -113.128 -195.543C-140.349 -191.179 -168.087 -183.057 -188.563 -163.665C-197.33 -155.361 -204.517 -145.231 -208.547 -133.792C-213.32 -120.241 -212.706 -105.853 -210.799 -91.8253C-210.307 -88.2048 -209.736 -84.5839 -209.164 -80.9595L-209.164 -80.9586L-209.164 -80.9565L-209.163 -80.9533L-209.163 -80.9502L-209.163 -80.947L-209.162 -80.9438L-209.162 -80.9406L-209.161 -80.9375L-209.161 -80.9343C-207.365 -69.5535 -205.565 -58.1388 -206.185 -46.5973ZM-219.957 -3.3784C-219.961 -3.37065 -219.966 -3.36288 -219.971 -3.35511C-236.974 23.4076 -262.444 40.9252 -287.951 58.4676C-309.677 73.4099 -331.429 88.3701 -347.997 109.077C-364.374 129.546 -375.581 156.052 -369.904 182.566C-364.891 205.987 -347.839 225.198 -327.345 236.765C-277.765 264.75 -218.95 242.45 -178.047 209.232C-168.362 201.367 -159.292 192.808 -150.222 184.248C-140.549 175.12 -130.877 165.991 -120.459 157.707C-110.873 150.085 -100.64 143.17 -89.4793 138.061C-77.9326 132.773 -65.637 129.734 -52.9867 128.745C-36.0985 127.423 -19.3181 129.26 -2.53301 131.098C8.95784 132.356 20.4509 133.615 31.9821 133.86C46.5313 134.169 61.0268 132.659 74.819 127.838C82.2367 125.244 89.3595 121.946 96.4827 118.648L96.4834 118.648L96.4837 118.648C102.798 115.724 109.112 112.801 115.632 110.367C128.322 105.632 142.437 102.632 155.897 105.62C158.828 106.27 161.717 107.2 164.449 108.449C164.996 108.7 165.53 108.955 166.058 109.207C168.636 110.439 171.061 111.598 174.077 111.734C180.235 112.015 186.348 109.173 190.804 105.054C201.473 95.192 201.138 78.7979 200.672 65.4364C200.294 54.5828 199.889 43.73 199.485 32.8774C199.282 27.4548 199.08 22.0322 198.881 16.6097C198.488 5.89795 198.102 -4.81431 197.715 -15.5267L197.715 -15.5305L197.715 -15.5342L197.715 -15.538L197.715 -15.5418L197.714 -15.5456L197.714 -15.5493L197.714 -15.5531L197.714 -15.5569L197.714 -15.5607L197.714 -15.5644L197.714 -15.5682L197.713 -15.572L197.713 -15.5758L197.713 -15.5795L197.713 -15.5833L197.713 -15.5871L197.713 -15.5909C196.929 -37.319 196.145 -59.0476 195.306 -80.7733C194.368 -105.077 192.755 -130.73 182.01 -152.988C176.65 -164.09 168.83 -173.894 158.637 -180.919C147.473 -188.613 134.322 -192.769 121.125 -195.35C106.502 -198.209 91.5368 -199.459 76.7029 -200.672C60.5686 -201.991 44.397 -202.847 28.2136 -203.239C-3.9649 -204.018 -36.1878 -202.971 -68.2478 -200.095L-69.6897 -199.966C-99.3407 -197.307 -130.487 -194.515 -158.041 -182.546C-181.477 -172.365 -203.154 -153.469 -209.51 -127.844C-213.409 -112.122 -210.919 -96.3995 -208.425 -80.6468C-206.313 -67.3099 -204.198 -53.9511 -205.954 -40.5518C-207.698 -27.2455 -212.886 -14.7366 -219.945 -3.40119C-219.949 -3.39362 -219.953 -3.38603 -219.957 -3.3784ZM-196.388 -46.0476C-197.178 -31.3743 -202.487 -17.5142 -210.207 -5.12913C-217.753 6.74629 -227.319 17.1967 -237.891 26.4434C-249.385 36.491 -262.471 45.4915 -275.646 54.5532L-275.647 54.5537C-307.838 76.6941 -340.561 99.2 -351.896 138.236C-358.399 160.628 -353.896 183.89 -339.57 202.255C-325.988 219.664 -305.534 231.685 -283.933 235.918C-258.84 240.835 -232.586 235.214 -209.676 224.627C-185.644 213.521 -165.595 196.815 -146.445 178.833C-144.853 177.338 -143.262 175.835 -141.667 174.329L-141.662 174.325L-141.647 174.311C-125.037 158.626 -108.107 142.64 -87.4925 132.442C-75.2968 126.408 -62.1966 123.026 -48.6287 122.119C-34.7113 121.188 -20.7663 122.475 -6.93332 123.946C-5.97351 124.048 -5.0132 124.151 -4.05247 124.253L-4.04726 124.254C22.5246 127.095 49.422 129.97 75.0356 120.317C81.094 118.033 86.9707 115.309 92.8466 112.585L92.8469 112.585L92.8475 112.585C100.074 109.235 107.3 105.885 114.861 103.356C128.663 98.7391 144.638 96.5289 158.195 103.164C162.764 105.401 166.768 106.634 171.898 105.507C176.779 104.434 181.321 101.691 184.718 98.0457C193.333 88.796 193.464 74.6932 193.105 62.8439C192.459 41.519 191.633 20.1965 190.808 -1.12487L190.808 -1.12527L190.808 -1.12568L190.808 -1.12608L190.808 -1.12648L190.808 -1.12689L190.807 -1.12729L190.807 -1.1277L190.807 -1.1281L190.807 -1.1285L190.807 -1.12891L190.807 -1.12931L190.807 -1.12972L190.807 -1.13012L190.807 -1.13052L190.807 -1.13093L190.807 -1.13133L190.807 -1.13174L190.807 -1.13214L190.807 -1.13254L190.807 -1.13542L190.807 -1.13667L190.807 -1.13793L190.807 -1.13919L190.807 -1.14045L190.807 -1.14171L190.807 -1.14297L190.807 -1.14423L190.807 -1.14549L190.807 -1.14674L190.807 -1.148L190.807 -1.14926L190.807 -1.15052L190.806 -1.15178L190.806 -1.15304L190.806 -1.1543L190.806 -1.15555L190.806 -1.15681L190.806 -1.15807L190.806 -1.15933L190.806 -1.16059C190.402 -11.5957 189.998 -22.0306 189.615 -32.4653C189.433 -37.4241 189.256 -42.3829 189.078 -47.3416L189.078 -47.3429L189.078 -47.3526L189.077 -47.3625C188.694 -58.0738 188.31 -68.7848 187.886 -79.4951C187.42 -91.2699 186.688 -103.06 184.857 -114.711C181.363 -136.941 173.262 -159.515 154.643 -173.484C134.331 -188.722 107.246 -191.087 82.6167 -193.237C81.4813 -193.336 80.3512 -193.434 79.2271 -193.534C47.7032 -196.323 16.0179 -197.259 -15.6151 -196.345C-46.2833 -195.458 -77.1706 -193.203 -107.484 -188.341C-133.491 -184.171 -159.989 -176.413 -179.551 -157.886C-187.927 -149.953 -194.794 -140.272 -198.644 -129.343C-203.204 -116.399 -202.617 -102.653 -200.796 -89.2511C-200.325 -85.7885 -199.779 -82.3255 -199.232 -78.8592C-197.516 -67.9837 -195.795 -57.0763 -196.388 -46.0476ZM-209.555 -4.68248C-225.797 20.8555 -250.112 37.5789 -274.462 54.3258C-295.216 68.5993 -315.994 82.89 -331.82 102.67C-347.46 122.217 -358.163 147.531 -352.743 172.851C-347.955 195.219 -331.67 213.566 -312.097 224.613C-264.745 251.34 -208.57 230.04 -169.504 198.315C-160.257 190.805 -151.596 182.632 -142.935 174.459C-133.692 165.736 -124.449 157.013 -114.494 149.097C-105.336 141.816 -95.5601 135.209 -84.8986 130.329C-73.8656 125.278 -62.1187 122.374 -50.0299 121.427C-33.8999 120.164 -17.8717 121.919 -1.83942 123.675L-1.839 123.675C9.13874 124.877 20.1184 126.079 31.1341 126.313C45.0299 126.609 58.8753 125.166 72.0494 120.561C79.1357 118.083 85.9399 114.933 92.7445 111.783L92.7455 111.782C98.7762 108.99 104.807 106.198 111.035 103.874C123.159 99.3495 136.644 96.4839 149.507 99.3395C152.308 99.9612 155.068 100.85 157.679 102.043C158.201 102.282 158.712 102.526 159.216 102.767C161.675 103.942 163.989 105.047 166.867 105.179C172.743 105.447 178.58 102.734 182.833 98.8035C193.02 89.3866 192.7 73.7312 192.256 60.9724C191.891 50.5105 191.501 40.0493 191.111 29.5879L191.11 29.5694C190.921 24.4903 190.732 19.4111 190.545 14.3317C190.17 4.09906 189.801 -6.13374 189.432 -16.3665L189.431 -16.3882C188.682 -37.1564 187.932 -57.9244 187.13 -78.6902C186.235 -101.903 184.694 -126.404 174.43 -147.663C169.312 -158.264 161.846 -167.629 152.112 -174.337C141.449 -181.685 128.89 -185.654 116.284 -188.119C102.318 -190.851 88.0234 -192.043 73.8556 -193.202C58.4442 -194.462 42.9957 -195.28 27.5369 -195.654C-3.20213 -196.399 -33.9808 -195.4 -64.6047 -192.65L-65.9892 -192.526C-94.3066 -189.987 -124.053 -187.32 -150.368 -175.888C-172.751 -166.164 -193.455 -148.119 -199.524 -123.647C-203.248 -108.629 -200.87 -93.6113 -198.487 -78.5649C-196.47 -65.8257 -194.45 -53.0659 -196.127 -40.2679C-197.794 -27.5387 -202.76 -15.5728 -209.518 -4.73165C-209.53 -4.71386 -209.542 -4.69752 -209.555 -4.68248ZM-199.76 -6.50726C-192.403 -18.308 -187.343 -31.5159 -186.59 -45.4979C-186.025 -56.0087 -187.665 -66.4038 -189.301 -76.7685L-189.301 -76.7689L-189.301 -76.7717L-189.302 -76.7745L-189.302 -76.7773L-189.303 -76.7801L-189.303 -76.7829L-189.304 -76.7857L-189.304 -76.7885L-189.304 -76.7913L-189.305 -76.7941L-189.305 -76.7969L-189.306 -76.7997L-189.306 -76.8025L-189.307 -76.8053L-189.307 -76.8081L-189.307 -76.8109L-189.308 -76.8137L-189.308 -76.8165L-189.309 -76.8193L-189.309 -76.8221C-189.828 -80.1087 -190.346 -83.3922 -190.792 -86.6753C-192.529 -99.4493 -193.087 -112.553 -188.741 -124.893C-185.069 -135.312 -178.523 -144.541 -170.537 -152.107C-151.889 -169.767 -126.631 -177.164 -101.84 -181.14C-72.9469 -185.774 -43.5053 -187.923 -14.2734 -188.768C15.876 -189.641 46.0773 -188.748 76.1235 -186.089C77.1945 -185.994 78.2713 -185.9 79.3532 -185.806C102.831 -183.756 128.651 -181.502 148.015 -166.975C165.766 -153.659 173.49 -132.14 176.823 -110.946C178.569 -99.8413 179.267 -88.6 179.712 -77.3772C180.109 -67.355 180.468 -57.3313 180.827 -47.3075C181.003 -42.3891 181.18 -37.4707 181.36 -32.5525C181.725 -22.6041 182.111 -12.6558 182.496 -2.7073C183.283 17.6234 184.071 37.9551 184.686 58.2898C185.028 69.5887 184.903 83.035 176.687 91.8553C173.448 95.3331 169.117 97.949 164.46 98.9725C159.566 100.049 155.745 98.8718 151.385 96.7373C138.469 90.4159 123.247 92.5236 110.096 96.9215C102.891 99.3317 96.0049 102.524 89.1181 105.716L89.1178 105.716C83.516 108.313 77.9136 110.91 72.138 113.086C47.7225 122.288 22.083 119.547 -3.2458 116.839L-4.88827 116.664L-5.99361 116.546C-19.1779 115.145 -32.4694 113.918 -45.7352 114.804C-58.6641 115.667 -71.1477 118.89 -82.7679 124.64C-102.413 134.359 -118.546 149.592 -134.375 164.538C-135.903 165.981 -137.428 167.421 -138.953 168.853C-157.205 185.993 -176.318 201.917 -199.224 212.503C-221.066 222.596 -246.093 227.954 -270.015 223.266C-290.608 219.231 -310.109 207.77 -323.056 191.173C-336.714 173.665 -341.005 151.487 -334.807 130.14C-324.003 92.9287 -292.812 71.4762 -262.128 50.3721C-249.571 41.7349 -237.098 33.1561 -226.142 23.5793C-216.066 14.77 -206.951 4.81074 -199.76 -6.50726ZM-199.076 -6.10977C-199.072 -6.11595 -199.068 -6.12214 -199.064 -6.12831C-199.06 -6.13654 -199.055 -6.14473 -199.051 -6.15292C-192.622 -16.4795 -187.898 -27.8723 -186.31 -39.9919C-184.713 -52.1892 -186.639 -64.3499 -188.561 -76.4907C-190.832 -90.8321 -193.099 -105.146 -189.549 -119.459C-183.764 -142.781 -164.034 -159.977 -142.705 -169.242C-117.63 -180.135 -89.2825 -182.677 -62.2987 -185.096L-60.9711 -185.215C-31.7817 -187.834 -2.44563 -188.787 26.8522 -188.077C41.5865 -187.721 56.3105 -186.941 71.0004 -185.74C84.5021 -184.637 98.1257 -183.5 111.435 -180.897C123.449 -178.548 135.418 -174.765 145.581 -167.762C154.855 -161.37 161.97 -152.446 166.846 -142.344C176.627 -122.084 178.095 -98.7347 178.949 -76.6134C179.708 -56.9268 180.419 -37.2388 181.129 -17.5507L181.13 -17.5325L181.13 -17.5256L181.131 -17.5104L181.131 -17.5066C181.486 -7.65461 181.842 2.19735 182.203 12.0491C182.381 16.8946 182.562 21.7399 182.743 26.5851L182.743 26.5878L182.743 26.5906C183.115 36.5611 183.487 46.5317 183.834 56.5037C184.258 68.6582 184.565 83.5766 174.859 92.5481C170.81 96.293 165.251 98.8762 159.655 98.6199C156.917 98.4947 154.715 97.4426 152.375 96.3248L152.371 96.3233C151.891 96.0938 151.405 95.8616 150.907 95.634C148.417 94.4961 145.785 93.6479 143.113 93.0545C130.851 90.3324 117.995 93.0624 106.435 97.3769C100.499 99.5922 94.7506 102.254 89.0025 104.915L89.0018 104.916C82.5162 107.919 76.031 110.921 69.2767 113.283C56.7223 117.673 43.5285 119.047 30.2845 118.765C19.7865 118.542 9.32305 117.397 -1.13855 116.251C-16.4207 114.578 -31.6988 112.905 -47.0747 114.109C-58.6004 115.011 -69.7986 117.779 -80.3179 122.595C-90.4815 127.247 -99.8008 133.546 -108.531 140.487C-118.017 148.03 -126.825 156.342 -135.633 164.655L-135.633 164.655L-135.634 164.656L-135.634 164.656L-135.634 164.656L-135.634 164.656L-135.634 164.657L-135.635 164.657L-135.635 164.657L-135.635 164.657L-135.635 164.657L-135.635 164.658L-135.635 164.658L-135.636 164.658L-135.636 164.658L-135.636 164.659L-135.636 164.659L-135.636 164.659L-135.637 164.659L-135.637 164.659C-143.892 172.45 -152.147 180.24 -160.962 187.398C-198.189 217.63 -251.724 237.931 -296.848 212.46C-315.497 201.933 -331.015 184.449 -335.579 163.135C-340.743 139.008 -330.543 114.886 -315.642 96.2611C-300.558 77.4084 -280.753 63.7874 -260.973 50.1826C-237.749 34.2096 -214.557 18.259 -199.076 -6.10977ZM-176.794 -44.9485C-177.509 -31.6578 -182.319 -19.1036 -189.312 -7.88564C-196.148 2.87493 -204.815 12.343 -214.392 20.718C-224.809 29.8239 -236.669 37.981 -248.608 46.1934C-277.786 66.2626 -307.444 86.6623 -317.719 122.048C-323.614 142.35 -319.533 163.442 -306.544 180.093C-294.231 195.879 -275.685 206.78 -256.1 210.617C-233.351 215.076 -209.547 209.981 -188.776 200.382C-166.995 190.316 -148.822 175.175 -131.465 158.875C-130.016 157.514 -128.566 156.145 -127.114 154.774C-112.064 140.563 -96.7252 126.08 -78.0465 116.839C-67.0016 111.374 -55.1331 108.31 -42.8448 107.489C-30.2323 106.645 -17.5941 107.811 -5.05854 109.144L-3.92606 109.265L-2.4519 109.422C21.6335 111.997 46.0174 114.604 69.2356 105.854C74.7264 103.784 80.0529 101.315 85.3788 98.8464L85.3793 98.8462L85.3801 98.8459C91.9286 95.8103 98.4762 92.7751 105.327 90.4832C117.825 86.3016 132.294 84.2964 144.57 90.3057C148.723 92.3361 152.359 93.4562 157.019 92.4327C161.45 91.4603 165.571 88.9696 168.653 85.6614C176.468 77.272 176.59 64.4822 176.265 53.7339C175.679 34.4221 174.931 15.1135 174.184 -4.19466C173.816 -13.6764 173.449 -23.158 173.101 -32.6398C172.927 -37.3732 172.757 -42.1065 172.588 -46.8398L172.588 -46.8411L172.588 -46.8424L172.588 -46.8437L172.588 -46.845L172.588 -46.8463L172.587 -46.8476L172.587 -46.8489L172.587 -46.8503L172.587 -46.8516L172.587 -46.8529L172.587 -46.8542L172.587 -46.8555L172.587 -46.8568L172.587 -46.8581L172.587 -46.8594L172.587 -46.8607L172.587 -46.862L172.587 -46.8634C172.248 -56.3297 171.908 -65.7958 171.534 -75.2612C171.112 -85.9351 170.447 -96.6243 168.787 -107.185C165.618 -127.341 158.27 -147.806 141.387 -160.471C122.971 -174.286 98.4177 -176.429 76.0899 -178.378L76.0836 -178.379C75.0579 -178.468 74.0369 -178.558 73.0215 -178.647C44.453 -181.174 15.7371 -182.022 -12.9301 -181.194C-40.7273 -180.39 -68.7217 -178.346 -96.1963 -173.94C-119.771 -170.159 -143.79 -163.124 -161.523 -146.329C-169.119 -139.135 -175.345 -130.357 -178.837 -120.445C-182.971 -108.71 -182.44 -96.249 -180.789 -84.1014C-180.362 -80.9596 -179.866 -77.8174 -179.37 -74.6722L-179.37 -74.6713L-179.37 -74.6711L-179.37 -74.6708L-179.37 -74.6706L-179.37 -74.6703L-179.37 -74.6701L-179.37 -74.6698L-179.37 -74.6696L-179.37 -74.6694L-179.37 -74.6691L-179.37 -74.6689L-179.37 -74.6686L-179.37 -74.6684L-179.37 -74.6681L-179.37 -74.6679L-179.37 -74.6676L-179.37 -74.6674L-179.37 -74.6671C-177.816 -64.817 -176.257 -54.9373 -176.794 -44.9485ZM-188.642 -7.4662C-203.362 15.6924 -225.406 30.8539 -247.481 46.0368C-266.29 58.9735 -285.122 71.9257 -299.465 89.8536C-313.629 107.557 -323.327 130.487 -318.417 153.421C-314.08 173.682 -299.329 190.3 -281.6 200.309C-238.702 224.523 -187.811 205.222 -152.419 176.483C-144.037 169.676 -136.187 162.268 -128.338 154.86C-119.962 146.956 -111.586 139.051 -102.566 131.879C-94.2639 125.278 -85.4029 119.289 -75.7372 114.863C-65.7332 110.282 -55.0805 107.649 -44.1194 106.79C-29.504 105.646 -14.982 107.236 -0.455843 108.827L-0.45535 108.827L-0.454857 108.827L-0.454364 108.827L-0.453871 108.827L-0.453378 108.827L-0.452885 108.827L-0.452392 108.827L-0.451899 108.827L-0.451406 108.827L-0.450913 108.827L-0.45042 108.827L-0.449927 108.827L-0.449434 108.827L-0.448941 108.827L-0.448448 108.827L-0.447955 108.827L-0.447462 108.827L-0.446969 108.827C9.5018 109.916 19.4525 111.006 29.4365 111.218C42.0272 111.486 54.5694 110.179 66.5055 106.006C72.9271 103.761 79.0933 100.906 85.2601 98.0508C90.7258 95.5202 96.192 92.9894 101.837 90.883C112.832 86.7798 125.058 84.1837 136.721 86.774C139.263 87.3376 141.767 88.1449 144.137 89.2291C144.609 89.4452 145.07 89.6656 145.526 89.8834L145.526 89.8835C147.75 90.9464 149.843 91.9466 152.445 92.0656C157.76 92.3097 163.041 89.8551 166.887 86.2988C176.111 77.771 175.818 63.5914 175.415 52.0396C175.085 42.5557 174.731 33.0725 174.378 23.5896L174.378 23.5881L174.377 23.5866L174.377 23.5851L174.377 23.5836L174.377 23.5821L174.377 23.5806L174.377 23.579L174.377 23.5775L174.377 23.576L174.377 23.5745L174.377 23.573L174.377 23.5715L174.377 23.57L174.377 23.5685L174.377 23.567L174.377 23.5655L174.377 23.564L174.377 23.5624C174.205 18.9652 174.033 14.3681 173.865 9.77091C173.521 0.423576 173.184 -8.92414 172.847 -18.2718L172.846 -18.2853L172.846 -18.2987L172.845 -18.3284L172.845 -18.3365C172.169 -37.0689 171.493 -55.8012 170.769 -74.5307C169.957 -95.5605 168.564 -117.758 159.266 -137.018C154.63 -146.62 147.867 -155.102 139.052 -161.179C129.392 -167.838 118.013 -171.431 106.591 -173.665C93.9367 -176.139 80.9856 -177.22 68.1499 -178.269C54.183 -179.411 40.182 -180.153 26.1738 -180.491C-1.68283 -181.165 -29.5763 -180.26 -57.3311 -177.769L-58.5999 -177.655C-84.252 -175.355 -111.199 -172.939 -135.038 -162.584C-155.314 -153.776 -174.071 -137.43 -179.568 -115.262C-182.942 -101.654 -180.788 -88.0458 -178.628 -74.4108C-176.8 -62.8674 -174.969 -51.3051 -176.488 -39.7081C-178 -28.1657 -182.502 -17.3158 -188.63 -7.48501L-188.635 -7.47703L-188.642 -7.4662ZM-178.865 -9.26209C-172.236 -19.8973 -167.675 -31.7978 -166.997 -44.3987C-166.487 -53.876 -167.966 -63.2499 -169.441 -72.5962C-169.911 -75.5752 -170.381 -78.5513 -170.785 -81.5271C-172.35 -93.0485 -172.854 -104.868 -168.935 -115.996C-165.622 -125.399 -159.717 -133.726 -152.51 -140.55C-135.692 -156.478 -112.913 -163.151 -90.5528 -166.737C-64.4967 -170.917 -37.9479 -172.856 -11.587 -173.617C15.598 -174.403 42.8285 -173.599 69.9192 -171.202C70.8841 -171.117 71.8542 -171.032 72.8288 -170.947C94.005 -169.099 117.294 -167.066 134.759 -153.964C150.772 -141.951 157.745 -122.542 160.751 -103.423C162.326 -93.4055 162.956 -83.2682 163.357 -73.1448C163.718 -64.0394 164.044 -54.9325 164.371 -45.8255L164.371 -45.8235C164.527 -41.4584 164.683 -37.0934 164.843 -32.7284C165.173 -23.7444 165.521 -14.7605 165.869 -5.77629C166.579 12.5402 167.288 30.8577 167.843 49.1782C168.151 59.3777 168.034 71.5095 160.619 79.4695C157.695 82.6098 153.782 84.9719 149.577 85.8965C145.153 86.869 141.699 85.8055 137.757 83.8759C126.121 78.1803 112.406 80.083 100.559 84.0468C94.0633 86.2201 87.8555 89.0974 81.6466 91.9752C76.5948 94.3168 71.5422 96.6587 66.3331 98.622C44.3154 106.92 21.1921 104.448 -1.64774 102.007C-2.47347 101.919 -3.29883 101.83 -4.12375 101.743C-16.0122 100.478 -27.9953 99.3724 -39.9562 100.173C-51.6055 100.952 -62.8557 103.856 -73.327 109.036C-91.0384 117.798 -105.582 131.531 -119.853 145.005L-119.854 145.005C-121.231 146.305 -122.605 147.603 -123.979 148.894C-140.44 164.35 -157.674 178.711 -178.331 188.256C-198.034 197.362 -220.61 202.194 -242.188 197.966C-260.767 194.326 -278.356 183.985 -290.036 169.011C-302.355 153.217 -306.225 133.209 -300.635 113.951C-290.891 80.3922 -262.766 61.047 -235.096 42.0146C-223.773 34.2262 -212.526 26.4901 -202.646 17.8539C-193.564 9.91638 -185.346 0.939466 -178.865 -9.26209ZM-178.18 -8.8646C-178.172 -8.87729 -178.165 -8.88996 -178.159 -8.90257C-172.356 -18.219 -168.096 -28.4998 -166.664 -39.4353C-165.225 -50.4299 -166.961 -61.3924 -168.695 -72.3371C-170.742 -85.2672 -172.786 -98.1723 -169.586 -111.076C-164.373 -132.094 -146.589 -147.588 -127.367 -155.939C-104.769 -165.755 -79.2216 -168.046 -54.9032 -170.227L-54.9029 -170.227L-53.6914 -170.336C-27.3743 -172.696 -0.921787 -173.556 25.4937 -172.916C38.7789 -172.595 52.0538 -171.892 65.2992 -170.808C77.4703 -169.814 89.7492 -168.789 101.747 -166.443C112.576 -164.326 123.363 -160.918 132.524 -154.604C140.881 -148.844 147.291 -140.803 151.685 -131.701C160.5 -113.442 161.822 -92.3938 162.591 -72.4554C163.284 -54.5035 163.931 -36.5494 164.579 -18.5955L164.58 -18.583L164.58 -18.5706C164.894 -9.88462 165.207 -1.19874 165.526 7.48678C165.692 12.0395 165.862 16.5921 166.032 21.1447L166.032 21.1516C166.36 29.9575 166.688 38.763 166.995 47.5694C167.378 58.5185 167.658 71.9594 158.915 80.0419C155.27 83.4112 150.268 85.7356 145.233 85.5053C142.77 85.3927 140.789 84.4458 138.685 83.44L138.683 83.4393C138.251 83.2326 137.813 83.0233 137.365 82.8183C135.117 81.7908 132.739 81.0244 130.328 80.4891C119.264 78.0339 107.665 80.4944 97.2364 84.3862C91.8823 86.3841 86.6977 88.7846 81.5133 91.185C75.6669 93.8919 69.8209 96.5986 63.7326 98.7276C52.4162 102.684 40.524 103.922 28.5867 103.669C19.1206 103.468 9.68544 102.435 0.252045 101.402C-13.5267 99.894 -27.3018 98.386 -41.1644 99.4707C-51.5624 100.284 -61.6664 102.782 -71.1567 107.127C-80.3245 111.326 -88.7289 117.006 -96.6024 123.266C-105.154 130.067 -113.095 137.561 -121.035 145.055C-128.481 152.081 -135.926 159.108 -143.876 165.564C-177.43 192.811 -225.681 211.111 -266.351 188.155C-283.159 178.667 -297.142 162.913 -301.255 143.704C-305.909 121.964 -296.716 100.226 -283.289 83.4449C-269.903 66.7156 -252.14 54.5573 -234.597 42.5492L-234.597 42.5491C-232.683 41.2394 -230.773 39.9315 -228.871 38.6197C-209.683 25.3878 -190.851 11.0793 -178.18 -8.8646ZM-157.199 -43.849C-157.84 -31.9394 -162.151 -20.6912 -168.417 -10.6403C-174.544 -0.996145 -182.313 7.48965 -190.895 14.9961C-200.236 23.1621 -210.87 30.4768 -221.575 37.841L-221.576 37.8415C-247.738 55.8378 -274.33 74.1294 -283.543 105.862C-288.832 124.074 -285.171 142.997 -273.52 157.935C-262.475 172.098 -245.841 181.879 -228.27 185.322C-207.863 189.321 -186.514 184.752 -167.879 176.14C-148.347 167.114 -132.052 153.536 -116.489 138.921C-115.192 137.704 -113.895 136.479 -112.596 135.253C-99.1032 122.511 -85.3515 109.525 -68.604 101.24C-58.7081 96.3431 -48.0745 93.5978 -37.0643 92.8625C-25.7566 92.1061 -14.4269 93.1531 -3.18713 94.3473C-2.40824 94.4301 -1.62893 94.5134 -0.849276 94.5967C20.7475 96.9052 42.6128 99.2425 63.4323 91.3961C68.3569 89.5398 73.1339 87.3256 77.9101 85.1118C83.7807 82.3906 89.6503 79.67 95.7917 77.615C106.987 73.8707 119.947 72.0706 130.944 77.4525C134.677 79.2795 137.947 80.2848 142.136 79.3649C146.115 78.4897 149.817 76.2529 152.585 73.2821C159.599 65.7499 159.713 54.2763 159.421 44.6273C158.897 27.3286 158.227 10.0323 157.557 -7.26328L157.556 -7.27456C157.226 -15.7873 156.897 -24.2999 156.584 -32.8125C156.431 -36.994 156.281 -41.1755 156.131 -45.3569C155.825 -53.9135 155.518 -62.4698 155.179 -71.0254C154.801 -80.5983 154.204 -90.1852 152.715 -99.6582C149.872 -117.741 143.276 -136.095 128.13 -147.456C111.612 -159.846 89.5904 -161.768 69.5639 -163.516L69.5578 -163.517C68.6393 -163.597 67.725 -163.677 66.8156 -163.757C41.2025 -166.023 15.456 -166.783 -10.2453 -166.04C-35.1699 -165.319 -60.2729 -163.486 -84.9089 -159.535C-106.053 -156.146 -127.592 -149.834 -143.496 -134.771C-150.311 -128.315 -155.896 -120.438 -159.029 -111.546C-162.736 -101.022 -162.26 -89.8465 -160.78 -78.9513C-160.397 -76.134 -159.953 -73.3163 -159.508 -70.4959C-158.115 -61.6637 -156.718 -52.8052 -157.199 -43.849ZM-167.75 -10.215C-179.733 8.63121 -197.531 22.1526 -215.667 34.6599C-217.468 35.9026 -219.278 37.1415 -221.091 38.382C-237.672 49.7323 -254.46 61.2244 -267.112 77.0377C-279.802 92.8972 -288.491 113.443 -284.093 133.989C-280.206 152.146 -266.989 167.034 -251.103 176.002C-212.661 197.702 -167.05 180.402 -135.335 154.647C-127.819 148.544 -120.78 141.901 -113.742 135.259C-106.234 128.173 -98.7258 121.088 -90.639 114.657C-83.1936 108.736 -75.2459 103.365 -66.5775 99.3953C-57.601 95.2845 -48.0456 92.9223 -38.2092 92.1526C-25.1014 91.1265 -12.0769 92.5528 0.951094 93.9795C9.86885 94.9561 18.7882 95.9329 27.7371 96.1234C39.0227 96.3636 50.2632 95.1929 60.9615 91.4525C66.7183 89.4397 72.2457 86.8805 77.7735 84.3213C82.6747 82.0521 87.5762 79.7828 92.6379 77.8941C102.503 74.2136 113.472 71.887 123.936 74.2088C126.218 74.7159 128.467 75.4397 130.594 76.4137C131.016 76.6068 131.429 76.8039 131.836 76.9987C133.824 77.9497 135.696 78.8448 138.023 78.9511C142.778 79.1692 147.501 76.9735 150.943 73.7928C159.204 66.1556 158.936 53.4518 158.577 43.1069C158.286 34.7831 157.976 26.4594 157.666 18.1356L157.666 18.132C157.505 13.8248 157.345 9.51762 157.187 5.21041C156.885 -3.00463 156.589 -11.22 156.293 -19.4355C155.68 -36.4146 155.067 -53.3942 154.412 -70.3723C153.684 -89.2193 152.437 -109.116 144.104 -126.376C139.951 -134.977 133.894 -142.579 125.996 -148.022C117.336 -153.99 107.14 -157.21 96.903 -159.213C85.5618 -161.431 73.9538 -162.4 62.4487 -163.34C49.9263 -164.365 37.3745 -165.03 24.8138 -165.333C-0.162142 -165.937 -25.1704 -165.126 -50.0529 -162.893L-51.1764 -162.792C-74.1721 -160.731 -98.3301 -158.566 -119.699 -149.284C-137.868 -141.393 -154.678 -126.747 -159.605 -106.88C-162.63 -94.6822 -160.697 -82.4822 -158.762 -70.2585L-158.761 -70.258C-157.123 -59.911 -155.481 -49.547 -156.842 -39.153C-158.197 -28.7972 -162.235 -19.0617 -167.733 -10.2412C-167.738 -10.2321 -167.744 -10.2234 -167.75 -10.215ZM-157.969 -12.0186C-152.068 -21.4868 -148.004 -32.0828 -147.402 -43.2995C-146.947 -51.7363 -148.264 -60.0811 -149.577 -68.4016L-149.577 -68.4019L-149.577 -68.4022L-149.577 -68.4024L-149.577 -68.4027L-149.577 -68.403L-149.577 -68.4033L-149.577 -68.4036L-149.577 -68.4039L-149.577 -68.4041L-149.578 -68.4044C-149.997 -71.0638 -150.416 -73.7207 -150.777 -76.3774C-152.172 -86.6462 -152.62 -97.1793 -149.125 -107.099C-146.172 -115.482 -140.909 -122.908 -134.483 -128.993C-119.493 -143.189 -99.1933 -149.14 -79.2653 -152.336C-56.0479 -156.06 -32.3921 -157.788 -8.90221 -158.467C15.3169 -159.168 39.578 -158.45 63.7118 -156.316C64.5686 -156.24 65.43 -156.165 66.2953 -156.089L66.3001 -156.089C85.1751 -154.441 105.932 -152.629 121.501 -140.951C135.778 -130.242 141.997 -112.944 144.678 -95.8971C146.082 -86.9697 146.643 -77.9334 147 -68.9109C147.324 -60.7124 147.618 -52.5124 147.911 -44.3123L147.912 -44.3082C148.048 -40.5064 148.184 -36.7046 148.323 -32.903C148.618 -24.8835 148.928 -16.8641 149.239 -8.84468L149.239 -8.84025C149.87 7.46176 150.502 23.7642 150.996 40.0698C151.271 49.1683 151.163 59.9854 144.548 67.0867C141.938 69.8895 138.444 71.9994 134.692 72.8236C130.738 73.6925 127.65 72.7438 124.128 71.0192C113.77 65.9511 101.564 67.6486 91.0207 71.1752C85.2332 73.1109 79.7022 75.6748 74.1703 78.2391L74.17 78.2393C69.6694 80.3255 65.1683 82.412 60.5281 84.1606C40.9006 91.5572 20.2865 89.3526 -0.0734865 87.1751C-0.800638 87.0973 -1.52746 87.0196 -2.25392 86.9423C-12.845 85.8166 -23.5213 84.8302 -34.1773 85.5427C-44.5485 86.2358 -54.5638 88.8219 -63.886 93.4331C-79.6618 101.237 -92.6148 113.468 -105.325 125.47L-105.33 125.475C-106.556 126.632 -107.779 127.787 -109.003 128.936C-123.67 142.709 -139.028 155.506 -157.434 164.012C-174.999 172.128 -195.122 176.435 -214.36 172.666C-230.923 169.422 -246.604 160.201 -257.013 146.85C-267.995 132.767 -271.446 114.931 -266.46 97.7623C-257.776 67.8534 -232.716 50.6151 -208.06 33.6543C-197.972 26.7155 -187.953 19.8231 -179.149 12.1285C-171.061 5.06272 -163.742 -2.93193 -157.969 -12.0186ZM-202.462 30.7C-185.373 18.9148 -168.602 6.17298 -157.31 -11.5831C-157.305 -11.5888 -157.301 -11.5947 -157.297 -11.6008C-157.293 -11.6064 -157.289 -11.6121 -157.285 -11.618C-152.103 -19.9317 -148.294 -29.11 -147.019 -38.8725C-145.741 -48.663 -147.287 -58.4254 -148.83 -68.1717C-150.655 -79.6925 -152.475 -91.1907 -149.624 -102.686C-144.981 -121.401 -129.146 -135.196 -112.03 -142.63C-91.8988 -151.373 -69.1408 -153.413 -47.4791 -155.354L-46.4116 -155.45C-22.9636 -157.554 0.602051 -158.32 24.1368 -157.75C35.9714 -157.463 47.8002 -156.836 59.5996 -155.872C70.4386 -154.986 81.3758 -154.073 92.0603 -151.984C101.705 -150.099 111.312 -147.064 119.47 -141.441C126.909 -136.314 132.613 -129.153 136.524 -121.051C144.375 -104.79 145.55 -86.045 146.235 -68.2895C146.85 -52.3713 147.424 -36.4523 147.998 -20.5331L147.998 -20.5276L147.998 -20.5258L147.999 -20.5202L147.999 -20.5184L148 -20.4964L148 -20.4743L148.001 -20.4524C148.282 -12.6575 148.563 -4.86265 148.849 2.93222C148.988 6.7156 149.13 10.4986 149.271 14.2816L149.271 14.2915L149.271 14.2933L149.271 14.2951L149.271 14.2968L149.272 14.2986L149.272 14.3003L149.272 14.3021L149.272 14.3039L149.272 14.3056L149.272 14.3074L149.272 14.3091L149.272 14.3109L149.272 14.3127L149.272 14.3144L149.272 14.3162C149.575 22.4249 149.878 30.533 150.16 38.6427C150.499 48.385 150.753 60.35 142.973 67.5419C139.735 70.534 135.289 72.6011 130.815 72.3952C128.628 72.2952 126.868 71.4536 124.999 70.5596L124.997 70.5586C124.613 70.3751 124.225 70.1893 123.827 70.0073C121.821 69.0885 119.7 68.404 117.548 67.9267C107.683 65.7368 97.3412 67.9279 88.0424 71.3986C83.272 73.1785 78.6526 75.3174 74.0334 77.4561C68.8249 79.8678 63.6169 82.2792 58.1933 84.1756C48.1147 87.6998 37.5243 88.8014 26.892 88.5758C18.4589 88.3967 10.0534 87.4762 1.6491 86.5559L1.64873 86.5558L1.64848 86.5558L1.64824 86.5558L1.64799 86.5558L1.64774 86.5558L1.6475 86.5558L1.64725 86.5558L1.647 86.5558L1.64676 86.5558L1.64651 86.5558L1.64626 86.5558L1.64602 86.5558L1.64577 86.5558L1.64552 86.5558L1.64528 86.5558L1.64503 86.5558C-10.6288 85.2116 -22.8998 83.8678 -35.2494 84.8343C-44.5212 85.5604 -53.5295 87.7887 -61.9923 91.6629C-70.1627 95.4038 -77.6539 100.467 -84.6711 106.048C-92.2938 112.108 -99.371 118.787 -106.448 125.466L-106.449 125.466L-106.449 125.466L-106.449 125.467L-106.449 125.467L-106.45 125.467L-106.45 125.467L-106.45 125.468L-106.451 125.468L-106.451 125.468L-106.451 125.468L-106.452 125.469L-106.452 125.469L-106.452 125.469L-106.453 125.47L-106.453 125.47C-113.082 131.726 -119.712 137.982 -126.79 143.73C-156.667 167.993 -199.636 184.292 -235.852 163.851C-250.819 155.402 -263.268 141.377 -266.929 124.274C-271.072 104.923 -262.887 85.5678 -250.934 70.6303C-239.01 55.7248 -223.187 44.8942 -207.558 34.197C-205.855 33.0314 -204.155 31.8675 -202.462 30.7ZM-137.604 -42.7496C-138.17 -32.2227 -141.983 -22.2804 -147.522 -13.395C-152.939 -4.8673 -159.809 2.63623 -167.405 9.27251C-175.671 16.4973 -185.078 22.9686 -194.548 29.4835C-217.697 45.4074 -241.223 61.5913 -249.377 89.6738C-254.059 105.796 -250.819 122.549 -240.506 135.774C-230.731 148.311 -216.005 156.974 -200.45 160.021C-182.383 163.561 -163.486 159.517 -146.991 151.894C-129.71 143.908 -115.29 131.893 -101.52 118.961C-100.372 117.883 -99.2243 116.799 -98.0744 115.713C-86.1412 104.445 -73.9807 92.962 -59.1693 85.6345C-50.4224 81.3058 -41.0222 78.8806 -31.2915 78.2298C-21.2872 77.561 -11.2644 78.4852 -1.32202 79.5424C-0.661714 79.6127 -0.00110577 79.6834 0.659834 79.7541L0.669428 79.7551L0.679023 79.7561L0.68866 79.7571L0.698297 79.7581L0.729195 79.7614C19.8447 81.8056 39.1977 83.8753 57.6242 76.9301C61.9813 75.2882 66.2076 73.3294 70.4332 71.3708L70.4337 71.3706C75.6263 68.9639 80.8179 66.5576 86.25 64.7404C96.1406 61.4317 107.596 59.8367 117.312 64.5912C120.625 66.2133 123.53 67.1053 127.247 66.2875C130.774 65.5127 134.059 63.5281 136.511 60.8949C142.726 54.2229 142.831 44.0639 142.573 35.5142C142.109 20.1999 141.516 4.88869 140.923 -10.4216C140.632 -17.9451 140.34 -25.4683 140.064 -32.9916C139.931 -36.6222 139.801 -40.253 139.671 -43.8838L139.671 -43.8846C139.398 -51.5213 139.124 -59.1583 138.822 -66.7945C138.486 -75.2681 137.958 -83.7524 136.64 -92.1358C134.123 -108.145 128.279 -124.391 114.871 -134.446C100.251 -145.411 80.7608 -147.112 63.0358 -148.659C62.2226 -148.73 61.4132 -148.801 60.6082 -148.872C37.9506 -150.876 15.1765 -151.549 -7.56041 -150.892C-29.6125 -150.255 -51.8242 -148.631 -73.6214 -145.135C-92.3332 -142.134 -111.393 -136.546 -125.469 -123.216C-131.505 -117.498 -136.447 -110.524 -139.221 -102.65C-142.502 -93.3364 -142.082 -83.4456 -140.772 -73.8031C-140.433 -71.3095 -140.04 -68.8156 -139.646 -66.3194C-138.413 -58.5074 -137.178 -50.6721 -137.604 -42.7496ZM-146.816 -13.0355C-146.822 -13.0229 -146.83 -13.0102 -146.838 -12.9975C-157.441 3.69362 -173.198 15.6669 -189.256 26.7405C-190.842 27.8338 -192.434 28.9238 -194.029 30.0152L-194.041 30.0235L-194.053 30.0318C-208.718 40.0706 -223.567 50.2343 -234.757 64.2216C-245.971 78.2388 -253.654 96.4009 -249.768 114.558C-246.332 130.608 -234.649 143.768 -220.604 151.697C-186.616 170.881 -146.287 155.582 -118.249 132.812C-111.601 127.414 -105.375 121.539 -99.1497 115.664L-99.1495 115.663L-99.1494 115.663L-99.1492 115.663L-99.149 115.663L-99.1488 115.663L-99.1486 115.662L-99.1484 115.662L-99.1482 115.662L-99.148 115.662L-99.1478 115.661L-99.1477 115.661L-99.1475 115.661L-99.1473 115.661L-99.1471 115.661L-99.1465 115.66L-99.1458 115.66L-99.1452 115.659L-99.1446 115.658L-99.144 115.658L-99.1434 115.657L-99.1428 115.657L-99.1421 115.656L-99.1415 115.656L-99.1409 115.655L-99.1403 115.655L-99.1397 115.654L-99.139 115.654L-99.1384 115.653C-92.499 109.387 -85.8599 103.121 -78.7093 97.4354C-72.1201 92.1961 -65.0872 87.44 -57.4147 83.9278C-49.4656 80.2886 -41.006 78.1956 -32.2973 77.5149C-20.7022 76.6068 -9.18039 77.8685 2.3446 79.1306L2.34501 79.1307L2.34567 79.1308C10.2344 79.9946 18.1247 80.8587 26.0409 81.0271C36.0198 81.2395 45.9586 80.2039 55.419 76.896C60.5111 75.1157 65.4006 72.8519 70.2904 70.5879C74.6265 68.5803 78.9628 66.5726 83.4408 64.9019C92.1752 61.6426 101.888 59.5854 111.153 61.6419C113.177 62.0909 115.165 62.7393 117.054 63.5966C117.445 63.7742 117.826 63.9561 118.202 64.1357C119.936 64.9631 121.569 65.7422 123.602 65.8349C127.796 66.0271 131.964 64.0917 135 61.285C142.298 54.5385 142.057 43.3106 141.74 34.171C141.48 26.7248 141.203 19.2794 140.925 11.8337L140.925 11.8251L140.925 11.8166C140.786 8.09332 140.647 4.37003 140.511 0.646541C140.241 -6.68842 139.977 -14.0236 139.712 -21.3587C139.173 -36.3115 138.633 -51.2644 138.056 -66.2158C137.412 -82.8799 136.311 -100.473 128.944 -115.734C125.273 -123.337 119.921 -130.055 112.942 -134.867C105.285 -140.143 96.2677 -142.991 87.2163 -144.762C77.1869 -146.724 66.9222 -147.58 56.7492 -148.412C45.6713 -149.317 34.5685 -149.905 23.4569 -150.174C1.36331 -150.709 -20.7598 -149.992 -42.7716 -148.016L-43.7818 -147.926C-64.1099 -146.103 -85.4684 -144.189 -104.361 -135.984C-120.423 -129.008 -135.286 -116.065 -139.641 -98.4999C-142.317 -87.7097 -140.609 -76.9159 -138.896 -66.1012C-137.448 -56.9524 -135.997 -47.7886 -137.197 -38.5994C-138.391 -29.444 -141.96 -20.8349 -146.816 -13.0355ZM-137.074 -14.7732C-131.9 -23.0743 -128.336 -32.3645 -127.807 -42.2C-127.408 -49.6047 -128.563 -56.9278 -129.715 -64.229C-130.084 -66.5634 -130.452 -68.8955 -130.768 -71.2274C-131.992 -80.2421 -132.386 -89.4907 -129.318 -98.1995C-126.723 -105.564 -122.101 -112.088 -116.455 -117.435C-103.294 -129.899 -85.4735 -135.126 -67.9762 -137.932C-47.5975 -141.2 -26.8331 -142.717 -6.21573 -143.314C15.0375 -143.929 36.3277 -143.299 57.5076 -141.426C57.9386 -141.388 58.3709 -141.35 58.8044 -141.312L59.7752 -141.227C76.3488 -139.78 94.573 -138.19 108.246 -127.936C120.786 -118.533 126.253 -103.342 128.607 -88.3699C129.84 -80.5306 130.335 -72.5967 130.647 -64.6751C130.927 -57.5927 131.181 -50.5088 131.434 -43.4249L131.435 -43.4199L131.435 -43.4178L131.435 -43.4157L131.435 -43.4137C131.558 -39.9676 131.682 -36.5216 131.808 -33.0757C132.067 -26.029 132.339 -18.9823 132.612 -11.9356L132.613 -11.9312L132.613 -11.9268L132.613 -11.9224L132.613 -11.918L132.613 -11.9137L132.614 -11.9093L132.614 -11.9049L132.614 -11.9045L132.614 -11.904L132.614 -11.9036L132.614 -11.9031L132.614 -11.9026L132.614 -11.9022L132.614 -11.9017L132.614 -11.9013L132.614 -11.9008L132.614 -11.9004L132.614 -11.8999L132.614 -11.8995L132.614 -11.899C133.167 2.38697 133.721 16.6734 134.154 30.9615C134.397 38.9607 134.296 48.4633 128.48 54.7059C126.184 57.1712 123.109 59.0272 119.809 59.7526C116.325 60.5178 113.605 59.6841 110.502 58.1645C101.425 53.7237 90.7246 55.2162 81.4853 58.3055C76.4067 60.0045 71.5531 62.2542 66.6987 64.5043L66.6979 64.5047C62.7485 66.3354 58.7985 68.1663 54.7265 69.701C37.498 76.1942 19.4027 74.2592 1.53023 72.348L1.48093 72.3427C0.859519 72.2763 0.238391 72.2098 -0.382421 72.1438C-9.67612 71.1551 -19.0471 70.2915 -28.3966 70.9165C-37.4883 71.5235 -46.2718 73.7911 -54.4433 77.8341C-68.2837 84.6812 -79.6494 95.413 -90.8017 105.943L-90.8056 105.947L-90.8095 105.951C-91.8836 106.965 -92.9557 107.977 -94.0278 108.984C-106.901 121.072 -120.382 132.306 -136.539 139.773C-151.967 146.902 -169.636 150.683 -186.532 147.372C-201.079 144.523 -214.85 136.42 -223.991 124.695C-233.635 112.327 -236.666 96.6599 -232.287 81.5802C-224.663 55.3225 -202.669 40.1919 -181.027 25.3033L-181.027 25.3031C-172.174 19.2131 -163.381 13.1637 -155.654 6.40981C-148.559 0.209379 -142.138 -6.80298 -137.074 -14.7732ZM-176.053 22.7807C-161.044 12.4294 -146.316 1.23927 -136.402 -14.3577C-136.397 -14.364 -136.393 -14.3706 -136.389 -14.3774C-131.836 -21.6808 -128.491 -29.7446 -127.373 -38.3204C-126.252 -46.9092 -127.608 -55.4745 -128.962 -64.0258C-130.562 -74.1342 -132.16 -84.2229 -129.659 -94.3075C-125.588 -110.719 -111.699 -122.812 -96.6903 -129.331C-79.0361 -136.998 -59.0779 -138.787 -40.0814 -140.49L-39.1302 -140.575C-18.553 -142.421 2.12754 -143.092 22.78 -142.593C33.1671 -142.341 43.5468 -141.791 53.9017 -140.945C63.4102 -140.169 73.0025 -139.369 82.3752 -137.536C90.8348 -135.881 99.2597 -133.22 106.417 -128.288C112.938 -123.793 117.937 -117.516 121.366 -110.412C128.251 -96.1506 129.28 -79.7087 129.881 -64.136C130.417 -50.2482 130.918 -36.3589 131.419 -22.4697C131.669 -15.5246 131.92 -8.5795 132.175 -1.63461C132.302 1.83632 132.431 5.30724 132.561 8.77816L132.562 8.81247L132.562 8.82032C132.822 15.7815 133.082 22.7426 133.324 29.7038C133.622 38.2407 133.849 48.7283 127.032 55.031C124.2 57.6491 120.31 59.456 116.396 59.276C114.499 59.1895 112.976 58.4622 111.358 57.6897C111.007 57.5223 110.652 57.3528 110.288 57.1872C108.52 56.3834 106.66 55.7776 104.766 55.3569C96.1 53.4322 87.0153 55.3554 78.8469 58.4033C74.6635 59.9648 70.6125 61.8405 66.5618 63.7161L66.5613 63.7163C61.9881 65.8338 57.4152 67.9511 52.6525 69.616C43.8102 72.7078 34.523 73.6743 25.1958 73.4766C17.7945 73.3195 10.4176 72.5117 3.04219 71.7041L3.0414 71.7039C-7.73054 70.5243 -18.4995 69.3451 -29.3375 70.1935C-37.4847 70.8322 -45.3956 72.7883 -52.831 76.1925C-60.0056 79.4777 -66.5819 83.9244 -72.7429 88.8245C-79.4328 94.143 -85.6435 100.004 -91.8543 105.866C-97.6729 111.357 -103.492 116.848 -109.705 121.894C-135.907 143.172 -173.595 157.47 -205.355 139.542C-218.478 132.134 -229.395 119.838 -232.605 104.841C-236.238 87.8781 -229.058 70.908 -218.581 57.8127C-208.117 44.7346 -194.231 35.2305 -180.516 25.8434C-179.025 24.8226 -177.536 23.8031 -176.053 22.7807ZM-118.009 -41.6503C-118.501 -32.5061 -121.815 -23.8697 -126.626 -16.1514C-131.336 -8.73853 -137.307 -2.2173 -143.904 3.55198C-151.093 9.83606 -159.274 15.4645 -167.509 21.1305L-167.509 21.1307C-187.643 34.983 -208.103 49.0596 -215.197 73.4899C-219.272 87.5234 -216.452 102.105 -207.478 113.617C-198.969 124.53 -186.152 132.072 -172.613 134.725C-156.889 137.805 -140.446 134.288 -126.088 127.653C-111.057 120.706 -98.5149 110.254 -86.537 99.0069C-85.5355 98.0666 -84.5341 97.1211 -83.5308 96.1739C-73.1598 86.382 -62.5912 76.4036 -49.7203 70.0353C-42.1225 66.2765 -33.9572 64.1682 -25.5045 63.6033C-16.8067 63.0222 -8.09072 63.8268 0.555876 64.7454L1.45768 64.8416L2.32958 64.9348L2.32987 64.9348C18.9595 66.7129 35.7969 68.5132 51.8274 62.472C55.6164 61.0444 59.2918 59.3408 62.9669 57.6374L62.9674 57.6372C67.4819 55.5447 71.9959 53.4525 76.7194 51.8722C85.3073 48.9991 95.2534 47.6107 103.69 51.7378C106.584 53.155 109.122 53.9322 112.37 53.2179C115.445 52.542 118.31 50.8113 120.448 48.5155C125.863 42.7023 125.96 33.8594 125.734 26.4091C125.331 13.1089 124.816 -0.189705 124.301 -13.4874C124.047 -20.0455 123.793 -26.6034 123.552 -33.1612C123.434 -36.3664 123.32 -39.5717 123.205 -42.7771L123.205 -42.7803L123.204 -42.7835L123.204 -42.7867L123.204 -42.79L123.204 -42.7932L123.204 -42.7964L123.204 -42.7996L123.204 -42.8028L123.204 -42.8061L123.203 -42.8093L123.203 -42.8125L123.203 -42.8157C122.967 -49.3958 122.732 -55.9761 122.471 -62.5556C122.178 -69.9283 121.718 -77.3102 120.571 -84.6056C118.381 -98.5414 113.29 -112.676 101.618 -121.428C88.8956 -130.969 71.936 -132.45 56.5138 -133.796L56.4988 -133.797L56.4768 -133.799L56.4273 -133.804L56.4207 -133.804C55.7459 -133.863 55.074 -133.922 54.4056 -133.981C34.7034 -135.724 14.8987 -136.309 -4.87233 -135.737C-24.055 -135.183 -43.3722 -133.77 -62.3323 -130.729C-78.6134 -128.119 -95.1944 -123.253 -107.441 -111.656C-112.697 -106.68 -116.999 -100.606 -119.414 -93.7505C-122.269 -85.648 -121.904 -77.0416 -120.765 -68.6532C-120.47 -66.4823 -120.127 -64.3113 -119.784 -62.1382C-118.713 -55.3475 -117.638 -48.5369 -118.009 -41.6503ZM-125.923 -15.7882C-125.925 -15.783 -125.928 -15.7779 -125.931 -15.7728L-125.937 -15.7628L-125.942 -15.7539C-135.169 -1.23226 -148.877 9.18562 -162.848 18.8209C-164.225 19.7709 -165.609 20.718 -166.994 21.6664L-166.997 21.6682L-166.999 21.67L-167.002 21.6718L-167.005 21.6736L-167.007 21.6753L-167.01 21.6771L-167.01 21.6773C-179.762 30.4063 -192.673 39.2438 -202.404 51.4055C-212.144 63.5789 -218.82 79.357 -215.444 95.1259C-212.459 109.07 -202.309 120.502 -190.107 127.39C-160.575 144.06 -125.527 130.762 -101.163 110.977C-95.3814 106.282 -89.9666 101.172 -84.5519 96.0619L-84.5518 96.0616L-84.5516 96.0614L-84.5514 96.0612L-84.5512 96.061L-84.551 96.0608L-84.5508 96.0606L-84.5506 96.0603L-84.5504 96.0601L-84.5502 96.0599L-84.55 96.0597L-84.5499 96.0595L-84.5497 96.0592L-84.5492 96.0588C-78.7747 90.6092 -73.0003 85.1597 -66.781 80.2137C-61.0481 75.6545 -54.9285 71.5153 -48.2534 68.4588C-41.3317 65.2896 -33.9679 63.4689 -26.3853 62.8755C-16.3023 62.0865 -6.28349 63.1834 3.738 64.2805C10.5985 65.0317 17.4602 65.7829 24.3448 65.9293C33.0186 66.1139 41.6557 65.215 49.8782 62.3393C54.3025 60.792 58.5512 58.825 62.8002 56.8578L62.8005 56.8577L62.8009 56.8576L62.8012 56.8574L62.8016 56.8573L62.802 56.8571L62.8023 56.857L62.8027 56.8568L62.803 56.8567L62.8034 56.8565L62.8037 56.8564L62.8041 56.8562L62.8045 56.8561C66.5769 55.1096 70.3495 53.363 74.2454 51.9097C81.8494 49.0715 90.3048 47.2853 98.3707 49.075C100.135 49.4675 101.868 50.0324 103.515 50.7794C103.855 50.9339 104.186 51.0921 104.514 51.2484C106.013 51.9642 107.426 52.6385 109.183 52.7187C112.817 52.8865 116.427 51.2084 119.057 48.7773C125.393 42.9198 125.179 33.1694 124.903 25.2367C124.678 18.7581 124.436 12.2809 124.194 5.80365C124.073 2.56446 123.952 -0.674724 123.833 -3.9141C123.596 -10.3787 123.362 -16.8435 123.129 -23.3084L123.129 -23.3149C122.663 -36.2287 122.197 -49.1428 121.698 -62.056C121.139 -76.5357 120.183 -91.8294 113.78 -105.091C110.593 -111.693 105.946 -117.531 99.8837 -121.71C93.2288 -126.297 85.3927 -128.771 77.5249 -130.309C68.8089 -132.014 59.8874 -132.758 51.045 -133.48C41.4115 -134.267 31.7564 -134.779 22.0954 -135.013C2.88253 -135.478 -16.3553 -134.854 -35.4949 -133.135L-36.3891 -133.055L-36.3896 -133.055C-54.0523 -131.471 -72.6106 -129.807 -89.0256 -122.68C-102.982 -116.619 -115.896 -105.376 -119.681 -90.1149C-122.007 -80.7356 -120.521 -71.3517 -119.033 -61.9491C-117.773 -53.9954 -116.512 -46.0285 -117.553 -38.0396C-118.592 -30.0706 -121.696 -22.5774 -125.923 -15.7882ZM-116.179 -17.528C-111.732 -24.662 -108.667 -32.6462 -108.211 -41.1006C-107.869 -47.471 -108.862 -53.771 -109.853 -60.0532C-110.17 -62.0631 -110.487 -64.0711 -110.76 -66.0791C-111.814 -73.8412 -112.151 -81.8055 -109.51 -89.3034C-107.274 -95.649 -103.293 -101.271 -98.4283 -105.88C-87.0981 -116.612 -71.7551 -121.114 -56.6901 -123.53C-39.1502 -126.343 -21.277 -127.65 -3.53228 -128.164C14.7566 -128.693 33.0758 -128.152 51.3003 -126.539C51.9438 -126.482 52.5906 -126.426 53.2404 -126.369C67.5146 -125.123 83.2109 -123.753 94.9866 -114.923C105.79 -106.823 110.505 -93.7429 112.532 -80.8444C113.594 -74.0931 114.02 -67.2617 114.29 -60.441C114.529 -54.4026 114.745 -48.3628 114.962 -42.3229L114.962 -42.3178L114.963 -42.2956L114.964 -42.2734C115.071 -39.2655 115.179 -36.2577 115.29 -33.25C115.512 -27.1868 115.747 -21.1237 115.982 -15.0604C116.458 -2.75707 116.934 9.54694 117.307 21.8533C117.517 28.7531 117.424 36.9396 112.41 42.3233C110.428 44.4512 107.773 46.055 104.924 46.6799C101.911 47.3415 99.5576 46.621 96.8725 45.3078C89.0752 41.4929 79.8819 42.7804 71.9469 45.4357C67.5766 46.8981 63.4 48.8339 59.2226 50.7702C55.8244 52.3453 52.4256 53.9206 48.9218 55.2414C34.0919 60.8312 18.5153 59.1657 3.13129 57.5208C2.58314 57.4622 2.03525 57.4036 1.48764 57.3453C-6.51025 56.4952 -14.5728 55.7512 -22.619 56.2885C-30.4327 56.8111 -37.9813 58.7586 -45.0037 62.2333C-56.9079 68.1227 -66.6825 77.3518 -76.2748 86.4088C-77.2024 87.2846 -78.1282 88.1589 -79.0542 89.0283C-90.1351 99.4338 -101.739 109.105 -115.646 115.53C-128.934 121.672 -144.151 124.926 -158.706 122.075C-171.237 119.619 -183.099 112.638 -190.974 102.536C-199.278 91.8807 -201.889 78.3837 -198.117 65.3948C-191.554 42.7906 -172.627 29.7675 -154.001 16.9514C-146.382 11.7094 -138.814 6.50196 -132.163 0.687752C-126.056 -4.64569 -120.533 -10.6742 -116.179 -17.528ZM-149.642 14.8612C-136.731 5.95613 -124.061 -3.67138 -115.524 -17.0839C-115.516 -17.0938 -115.509 -17.1043 -115.501 -17.1153L-115.493 -17.1273C-111.571 -23.4205 -108.69 -30.3683 -107.728 -37.7573C-106.765 -45.1458 -107.932 -52.5139 -109.096 -59.8698C-110.474 -68.5659 -111.848 -77.2447 -109.697 -85.9194C-106.2 -100.028 -94.2567 -110.421 -81.3548 -116.023C-66.1787 -122.613 -49.0199 -124.151 -32.6906 -125.616L-31.8534 -125.691C-14.1484 -127.279 3.64688 -127.857 21.4185 -127.426C30.3566 -127.211 39.2872 -126.737 48.1976 -126.009C56.3739 -125.341 64.6231 -124.652 72.6839 -123.076C79.9599 -121.654 87.2041 -119.366 93.3585 -115.125C98.9634 -111.262 103.256 -105.865 106.203 -99.7625C112.122 -87.5003 113.005 -73.3581 113.522 -59.9699C113.979 -48.1166 114.407 -36.2611 114.834 -24.4059L114.835 -24.3976C115.054 -18.3279 115.273 -12.2583 115.496 -6.18899C115.602 -3.29233 115.71 -0.395668 115.818 2.50105C116.045 8.59224 116.272 14.6837 116.484 20.7758C116.74 28.1043 116.941 37.1176 111.086 42.5297C108.658 44.7722 105.325 46.3217 101.972 46.166C100.352 46.0909 99.049 45.4685 97.6659 44.8077L97.6657 44.8076L97.6655 44.8076L97.6653 44.8075L97.6652 44.8074C97.3634 44.6633 97.0579 44.5173 96.7444 44.3748C95.2199 43.6813 93.6149 43.1573 91.9802 42.7946C84.514 41.1369 76.6881 42.789 69.6484 45.4158C66.0469 46.76 62.5595 48.3747 59.0723 49.9892C55.1385 51.8105 51.205 53.6317 47.1086 55.0642C39.5042 57.722 31.5187 58.5534 23.4982 58.3836C17.1291 58.2484 10.781 57.5533 4.43417 56.8583C-4.83501 55.8433 -14.1016 54.8286 -23.427 55.559C-30.4465 56.1088 -37.2631 57.794 -43.6696 60.7282C-49.8484 63.5576 -55.5082 67.3876 -60.8146 71.606C-66.5698 76.1824 -71.9137 81.2253 -77.2576 86.2682C-82.2652 90.9938 -87.2729 95.7194 -92.6191 100.061C-115.144 118.355 -147.55 130.652 -174.856 115.239C-186.138 108.872 -195.519 98.3047 -198.279 85.4123C-201.4 70.8357 -195.229 56.2497 -186.226 44.9982C-177.223 33.7444 -165.277 25.5683 -153.477 17.4924C-152.196 16.6154 -150.916 15.7396 -149.642 14.8612ZM-98.4153 -40.551C-98.8324 -32.788 -101.647 -25.4575 -105.731 -18.9063C-109.732 -12.6099 -114.804 -7.07251 -120.408 -2.1702C-126.52 3.17168 -133.473 7.95594 -140.472 12.7719L-140.472 12.772L-140.472 12.7722L-140.472 12.7724L-140.473 12.7726L-140.473 12.7728L-140.473 12.773L-140.474 12.7731L-140.474 12.7733L-140.474 12.7735L-140.474 12.7737C-157.595 24.5543 -174.991 36.5241 -181.024 57.3043C-184.492 69.2487 -182.092 81.6593 -174.457 91.4588C-167.218 100.748 -156.31 107.169 -144.787 109.428C-131.402 112.05 -117.413 109.058 -105.193 103.411C-92.4114 97.5046 -81.7456 88.6167 -71.5619 79.0527C-70.7115 78.2542 -69.8612 77.4513 -69.0093 76.6469C-60.1971 68.3261 -51.2166 59.8464 -40.2791 54.4359C-33.832 51.2454 -26.8985 49.4555 -19.7254 48.9767C-12.3325 48.4816 -4.92334 49.1651 2.42586 49.9467L2.89681 49.9968L3.93101 50.1073C18.072 51.6192 32.3908 53.1501 46.0226 48.0123C49.2421 46.7991 52.3651 45.3514 55.4878 43.9039C59.3264 42.1246 63.1645 40.3454 67.1809 39.0023C74.4645 36.5648 82.9035 35.3799 90.0611 38.8811C92.5357 40.0918 94.7072 40.7556 97.4839 40.145C100.107 39.5679 102.554 38.091 104.377 36.1327C108.991 31.1783 109.08 23.6484 108.887 17.299C108.545 6.01664 108.108 -5.26416 107.671 -16.5445L107.671 -16.545L107.671 -16.5454L107.671 -16.5459L107.671 -16.5463L107.671 -16.5468L107.671 -16.5472L107.671 -16.5477L107.671 -16.5481L107.671 -16.5486L107.671 -16.549C107.454 -22.1452 107.237 -27.7412 107.032 -33.3373C106.936 -35.9634 106.842 -38.5897 106.748 -41.216L106.747 -41.2253L106.747 -41.2346L106.747 -41.244L106.746 -41.2533L106.746 -41.2627L106.746 -41.2661L106.746 -41.2695C106.542 -46.9542 106.338 -52.6391 106.113 -58.3233C105.864 -64.595 105.472 -70.8761 104.496 -77.0817C102.632 -88.9443 98.2928 -100.969 88.3585 -108.417C77.5319 -116.533 63.1013 -117.793 49.9785 -118.938L49.9711 -118.939L49.4487 -118.985L49.1169 -119.014C48.8099 -119.04 48.5037 -119.067 48.1983 -119.094C31.4515 -120.577 14.6162 -121.073 -2.18896 -120.587C-18.499 -120.115 -34.9249 -118.914 -51.0463 -116.328C-64.8967 -114.106 -79.0001 -109.964 -89.4159 -100.099C-93.8902 -95.8616 -97.5514 -90.6905 -99.6074 -84.853C-102.037 -77.9597 -101.727 -70.6393 -100.758 -63.5035C-100.507 -61.6577 -100.216 -59.8117 -99.9243 -57.9641L-99.9241 -57.963C-99.0136 -52.1916 -98.1005 -46.4037 -98.4153 -40.551ZM-105.031 -18.5364L-105.037 -18.5262C-105.04 -18.5204 -105.043 -18.5146 -105.047 -18.5088C-112.894 -6.1567 -124.554 2.70589 -136.439 10.9013C-137.611 11.7094 -138.788 12.5151 -139.966 13.3218L-139.966 13.322C-150.806 20.7414 -161.779 28.2528 -170.05 38.5893C-178.315 48.9189 -183.982 62.3129 -181.118 75.6956C-178.584 87.5349 -169.969 97.2377 -159.61 103.086C-134.532 117.242 -104.766 105.944 -84.078 89.1443C-79.1644 85.1539 -74.5624 80.8107 -69.9604 76.4675C-65.0506 71.8338 -60.1409 67.2002 -54.8528 62.995C-49.9745 59.1158 -44.7713 55.5952 -39.092 52.9944C-33.1993 50.2968 -26.9313 48.7453 -20.4733 48.2392C-11.9026 47.5682 -3.38607 48.5006 5.13254 49.4332C10.9637 50.0717 16.7959 50.7102 22.6471 50.8346C30.0158 50.9913 37.3497 50.2274 44.3343 47.7858C48.097 46.4702 51.7098 44.7974 55.3228 43.1246C58.529 41.6401 61.7354 40.1555 65.0468 38.9205C71.5205 36.505 78.7187 34.9867 85.5851 36.5111C87.0901 36.8455 88.5668 37.3286 89.971 37.9669C90.2582 38.0974 90.5382 38.2312 90.8148 38.3634L90.816 38.364L90.817 38.3645C92.0823 38.9692 93.2758 39.5395 94.759 39.6071C97.8313 39.7489 100.887 38.3296 103.11 36.2741C108.484 31.3073 108.297 23.0327 108.063 16.3069C107.867 10.6945 107.658 5.08205 107.448 -0.529886L107.448 -0.548452C107.349 -3.18969 107.251 -5.83082 107.154 -8.47179C106.959 -13.7763 106.768 -19.0809 106.577 -24.3854L106.577 -24.3865L106.577 -24.3876L106.576 -24.3887L106.576 -24.3898L106.576 -24.3909L106.576 -24.3921L106.576 -24.3932L106.576 -24.3943L106.576 -24.3954L106.576 -24.3965C106.174 -35.5625 105.771 -46.7283 105.339 -57.8933C104.864 -70.1901 104.054 -83.1807 98.6171 -94.444C95.912 -100.047 91.9711 -105.003 86.8255 -108.549C81.1715 -112.445 74.5177 -114.545 67.8351 -115.853C60.431 -117.301 52.8527 -117.933 45.3424 -118.547C37.155 -119.216 28.9474 -119.652 20.7339 -119.85C4.40335 -120.246 -11.9493 -119.713 -28.2197 -118.254L-28.9976 -118.184C-43.9954 -116.839 -59.754 -115.426 -73.6919 -109.375C-85.5409 -104.23 -96.5094 -94.6882 -99.7223 -81.7302C-101.699 -73.7599 -100.436 -65.7844 -99.1703 -57.7931C-98.1002 -51.0359 -97.0282 -44.2675 -97.9118 -37.4814C-98.7942 -30.7081 -101.426 -24.3372 -105.016 -18.566L-105.02 -18.5575C-105.023 -18.5505 -105.027 -18.5434 -105.031 -18.5364ZM-95.2838 -20.2844C-91.5638 -26.2529 -88.9982 -32.9313 -88.618 -40.003C-88.331 -45.3403 -89.1635 -50.6195 -89.9936 -55.8829C-90.2591 -57.5667 -90.5244 -59.2489 -90.7527 -60.9309C-91.6354 -67.4404 -91.9172 -74.1187 -89.7038 -80.4057C-87.8273 -85.7336 -84.4864 -90.4548 -80.4022 -94.3232C-70.9009 -103.323 -58.0371 -107.103 -45.4028 -109.129C-30.7 -111.487 -15.7214 -112.584 -0.847575 -113.014C14.4754 -113.458 29.8253 -113.003 45.0944 -111.653C45.6314 -111.605 46.1712 -111.558 46.7134 -111.511C58.6864 -110.466 71.8505 -109.317 81.7302 -101.912C90.7964 -95.1157 94.7587 -84.1457 96.4603 -73.3206C97.351 -67.6589 97.7088 -61.9299 97.9352 -56.2086C98.1378 -51.0958 98.321 -45.9815 98.5041 -40.8678L98.5044 -40.8603L98.5047 -40.8529L98.5049 -40.8454C98.5935 -38.3726 98.6821 -35.9 98.7728 -33.4277C98.9593 -28.3395 99.1564 -23.2512 99.3534 -18.1628L99.3535 -18.1617L99.3535 -18.1606L99.3535 -18.1594L99.3536 -18.1583L99.3536 -18.1572L99.3537 -18.1561L99.3537 -18.155L99.3537 -18.1539L99.3546 -18.1328L99.3547 -18.1294C99.7532 -7.84032 100.152 2.44948 100.463 12.7401C100.639 18.5406 100.554 25.4125 96.3416 29.936C94.6742 31.7247 92.4381 33.0763 90.0408 33.6024C87.4997 34.1604 85.5118 33.5547 83.2462 32.4465C76.7298 29.259 69.0436 30.3414 62.4113 32.5594C58.7497 33.7843 55.2498 35.4067 51.7495 37.0293C48.9024 38.3491 46.0549 39.6691 43.1199 40.7753C30.6864 45.4611 17.6257 44.065 4.72641 42.6862L4.72616 42.6862C4.27023 42.6374 3.81448 42.5887 3.35898 42.5403C-3.34154 41.8272 -10.0973 41.2043 -16.8385 41.6556C-23.3726 42.0922 -29.6879 43.7229 -35.5612 46.6277C-45.5295 51.5594 -53.7129 59.2858 -61.7453 66.8696L-61.7551 66.879C-62.5303 67.6108 -63.304 68.3413 -64.0778 69.0678C-73.366 77.7887 -83.0935 85.8966 -94.7492 91.2822C-105.901 96.436 -118.663 99.1659 -130.877 96.7727C-141.392 94.7119 -151.345 88.8506 -157.95 80.3734C-164.916 71.4317 -167.107 60.1043 -163.941 49.2045C-158.438 30.2514 -142.577 19.3361 -126.965 8.5921C-120.582 4.19896 -114.24 -0.165526 -108.664 -5.03916C-103.553 -9.49928 -98.9298 -14.5455 -95.2838 -20.2844ZM-123.234 6.94155C-112.411 -0.523402 -101.794 -8.59187 -94.6345 -19.8323C-94.6285 -19.8393 -94.6226 -19.8466 -94.6169 -19.8543C-94.613 -19.8595 -94.6091 -19.8649 -94.6053 -19.8705L-94.6027 -19.8743L-94.5965 -19.8838C-91.3041 -25.165 -88.889 -30.9984 -88.0817 -37.2007C-87.2768 -43.3864 -88.2541 -49.5565 -89.2297 -55.7162C-90.3835 -63.001 -91.5351 -70.2714 -89.7337 -77.5361C-86.8067 -89.342 -76.8129 -98.0341 -66.0166 -102.721C-53.3092 -108.236 -38.9394 -109.524 -25.2671 -110.749L-24.5737 -110.811C-9.73942 -112.143 5.17061 -112.627 20.06 -112.267C27.5474 -112.086 35.0304 -111.689 42.4964 -111.079C49.3406 -110.519 56.2465 -109.943 62.9939 -108.624C69.0846 -107.433 75.1481 -105.519 80.3 -101.968C84.9863 -98.7378 88.5738 -94.2228 91.0376 -89.1191C95.9921 -78.8563 96.7288 -67.0172 97.1608 -55.8118C97.5507 -45.6993 97.9156 -35.5861 98.2805 -25.4726C98.4575 -20.5656 98.6346 -15.6584 98.8145 -10.7513C98.9032 -8.34131 98.9931 -5.9313 99.083 -3.5213L99.0833 -3.51346C99.2743 1.60484 99.4653 6.72311 99.6439 11.8414C99.8568 17.9645 100.031 25.502 95.1395 30.0234C93.1194 31.8919 90.3423 33.1811 87.55 33.0514C86.2033 32.9888 85.1197 32.4704 83.9709 31.9208C83.7189 31.8002 83.4637 31.6782 83.202 31.5591C81.9197 30.976 80.5696 30.5338 79.1944 30.2293C72.9277 28.8384 66.3589 30.221 60.4496 32.4267C57.4319 33.5529 54.5096 34.9059 51.5876 36.2589L51.5874 36.2589L51.5872 36.259L51.5871 36.2591L51.5869 36.2592L51.5867 36.2592L51.5865 36.2593L51.5863 36.2594L51.5862 36.2595L51.586 36.2595C48.2906 37.7854 44.9956 39.311 41.5645 40.5106C35.198 42.7377 28.5141 43.4324 21.7988 43.2904C16.4645 43.1767 11.1478 42.5945 5.83196 42.0123L5.83097 42.0122L5.83059 42.0122C-1.93648 41.1616 -9.70169 40.3113 -17.5168 40.9228C-23.4101 41.3836 -29.131 42.7997 -34.51 45.2623C-39.6914 47.6345 -44.438 50.8474 -48.8881 54.3858C-53.7106 58.2201 -58.188 62.4455 -62.6655 66.6711C-66.8608 70.6303 -71.0562 74.5896 -75.5357 78.2274C-94.3863 93.5342 -121.511 103.831 -144.361 90.9331C-153.798 85.6055 -161.647 76.7667 -163.956 65.9805C-166.566 53.7933 -161.4 41.5897 -153.873 32.1821C-146.336 22.7617 -136.337 15.9168 -126.46 9.15536C-125.382 8.41751 -124.305 7.68066 -123.234 6.94155ZM-78.8203 -39.4515C-79.1637 -33.0712 -81.4789 -27.045 -84.836 -21.6609C-88.127 -16.4809 -92.3018 -11.9259 -96.9156 -7.89371C-101.952 -3.49116 -107.68 0.451357 -113.446 4.41964L-113.447 4.42006C-127.551 14.1278 -141.88 23.9897 -146.853 41.1174C-149.716 50.9712 -147.735 61.2137 -141.438 69.2991C-135.468 76.9658 -126.469 82.2673 -116.961 84.1304C-105.921 86.2946 -94.3821 83.8263 -84.3008 79.1678C-73.7705 74.3015 -64.9813 66.9766 -56.5901 59.0972C-55.8915 58.4412 -55.1929 57.7816 -54.4931 57.1208L-54.4887 57.1167L-54.4843 57.1126C-47.2321 50.265 -39.8428 43.288 -30.8413 38.8353C-25.5433 36.213 -19.8446 34.7432 -13.9496 34.3488C-7.86003 33.9414 -1.75772 34.5053 4.29411 35.1483L5.08716 35.2329L5.53105 35.2803C17.1848 36.5259 28.9848 37.7871 40.2177 33.5527C42.8689 32.5535 45.4405 31.3615 48.0119 30.1697L48.0122 30.1695C51.1736 28.7042 54.3345 27.2391 57.6422 26.1326C63.6215 24.1324 70.5549 23.1525 76.4317 26.0263C78.4883 27.032 80.2926 27.581 82.5997 27.074C84.7709 26.5974 86.7983 25.3727 88.3079 23.7519C92.1212 19.6578 92.2008 13.4424 92.0416 8.19241C91.76 -1.07793 91.4011 -10.3468 91.0421 -19.6151C90.8628 -24.2463 90.6834 -28.8773 90.5137 -33.5084C90.4308 -35.7644 90.3499 -38.0205 90.2691 -40.2767L90.2688 -40.2845L90.2685 -40.2924L90.2683 -40.3002L90.268 -40.3081L90.2677 -40.3159L90.2667 -40.344L90.2657 -40.3722L90.2653 -40.3827C90.1016 -44.9505 89.938 -49.5185 89.7574 -54.0859C89.5541 -59.2567 89.2289 -64.4353 88.4245 -69.5529C86.8861 -79.3438 83.2989 -89.253 75.1022 -95.4005C66.1772 -102.093 54.2789 -103.131 43.461 -104.076L43.4584 -104.076L43.3906 -104.082C42.9224 -104.123 42.4563 -104.163 41.9925 -104.204C28.1995 -105.424 14.3367 -105.834 0.495864 -105.434C-12.9432 -105.046 -26.4762 -104.055 -39.7589 -101.925C-51.177 -100.094 -62.8012 -96.6751 -71.3881 -88.5423C-75.0822 -85.0432 -78.1027 -80.7733 -79.7998 -75.9551C-81.8008 -70.2728 -81.5469 -64.2383 -80.7491 -58.355C-80.5432 -56.8376 -80.3039 -55.32 -80.0643 -53.8011L-80.0641 -53.7995L-80.0638 -53.7979L-80.0636 -53.7963L-80.0633 -53.7947L-80.0631 -53.7932L-80.0629 -53.7916L-80.0626 -53.79C-79.313 -49.0372 -78.5613 -44.2706 -78.8203 -39.4515ZM-84.1519 -21.2634C-90.6219 -11.0793 -100.232 -3.77519 -110.03 2.9819C-110.99 3.64396 -111.954 4.30401 -112.92 4.96495L-112.922 4.966L-112.923 4.96706L-112.925 4.96811L-112.926 4.96916L-112.928 4.97022L-112.929 4.97127C-121.853 11.0793 -130.887 17.2627 -137.696 25.7734C-144.486 34.2591 -149.148 45.2707 -146.794 56.2639C-144.71 65.9969 -137.63 73.9718 -129.113 78.779C-108.489 90.4198 -84.0063 81.1241 -66.9929 67.3075C-62.9449 64.0203 -59.1539 60.4427 -55.363 56.8652L-55.3627 56.865L-55.3624 56.8647L-55.3621 56.8644L-55.3618 56.8642L-55.3615 56.8639L-55.3612 56.8636L-55.3608 56.8634L-55.3605 56.8631C-51.3188 53.0489 -47.2773 49.2349 -42.9247 45.7734C-38.9026 42.5759 -34.6143 39.6706 -29.9308 37.5271C-25.0655 35.2994 -19.8933 34.0188 -14.5631 33.6016C-7.50573 33.0488 -0.49298 33.817 6.52192 34.5853L6.52221 34.5854L6.5225 34.5854L6.52279 34.5854L6.52308 34.5854L6.52337 34.5854L6.52366 34.5855L6.52395 34.5855L6.52424 34.5855C11.3266 35.1116 16.1299 35.6377 20.9493 35.7401C27.0113 35.869 33.0451 35.2402 38.7918 33.2309C41.8909 32.1477 44.8668 30.7698 47.843 29.3919L47.8434 29.3917L47.8438 29.3915L47.8442 29.3914L47.8446 29.3912L47.845 29.391L47.8455 29.3908L47.8459 29.3907L47.8463 29.3905C50.4852 28.1688 53.1243 26.9469 55.8496 25.9299C61.193 23.9356 67.134 22.6869 72.8009 23.9459C74.0464 24.2222 75.2682 24.6235 76.4303 25.1515C76.6641 25.258 76.892 25.3671 77.1172 25.4749C78.1512 25.9698 79.1261 26.4365 80.3382 26.4942C82.8505 26.6117 85.3479 25.4511 87.1674 23.7696C91.5771 19.692 91.4168 12.8948 91.2255 7.37436C91.0711 2.92803 90.9053 -1.51765 90.7394 -5.96305L90.7393 -5.96517L90.7393 -5.96732L90.7389 -5.97678C90.6512 -8.32866 90.5634 -10.6805 90.4774 -13.0323C90.3149 -17.4632 90.155 -21.8942 89.9952 -26.3251C89.6657 -35.4612 89.3361 -44.5973 88.9829 -53.7334C88.5924 -63.8473 87.9288 -74.535 83.4569 -83.7989C81.2344 -88.4016 77.9988 -92.4757 73.7718 -95.3903C69.1203 -98.5952 63.6472 -100.323 58.1483 -101.399C52.0576 -102.591 45.8225 -103.11 39.6444 -103.615C32.9014 -104.167 26.1414 -104.524 19.3785 -104.688C5.92876 -105.013 -7.53711 -104.576 -20.9368 -103.374L-21.5698 -103.318C-33.911 -102.212 -46.8809 -101.05 -58.3503 -96.0721C-68.0924 -91.843 -77.1132 -84.0005 -79.7558 -73.3467C-81.3828 -66.7871 -80.3426 -60.2214 -79.3002 -53.6424C-78.419 -48.0807 -77.5362 -42.5095 -78.2623 -36.9246C-78.9915 -31.3156 -81.175 -26.041 -84.1519 -21.2634ZM-74.3884 -23.0391C-71.3957 -27.8405 -69.3278 -33.2129 -69.0227 -38.9019C-68.7919 -43.2 -69.4618 -47.4512 -70.1299 -51.69C-70.3448 -53.054 -70.5596 -54.4167 -70.7441 -55.7793C-71.4569 -61.0347 -71.6828 -66.4286 -69.8944 -71.5064C-68.3768 -75.8148 -65.6767 -79.635 -62.3727 -82.7632C-54.7002 -90.0308 -44.3156 -93.0873 -34.1136 -94.7229C-22.2495 -96.6255 -10.1622 -97.5113 1.84061 -97.8576C14.1977 -98.2156 26.5766 -97.8491 38.8919 -96.7595C39.3262 -96.7211 39.7627 -96.683 40.2013 -96.6447C49.8677 -95.801 60.5013 -94.8729 68.4756 -88.894C75.8043 -83.3984 79.0148 -74.5436 80.3901 -65.7902C81.1097 -61.2166 81.3991 -56.5901 81.5826 -51.9697C81.7494 -47.7654 81.8998 -43.5596 82.0502 -39.3544C82.1188 -37.4352 82.1875 -35.516 82.2576 -33.5972C82.4065 -29.546 82.5635 -25.4948 82.7205 -21.4435C83.0444 -13.0839 83.3684 -4.72407 83.6213 3.63658C83.7637 8.33614 83.6877 13.8934 80.2739 17.5597C78.9207 19.0111 77.1034 20.1088 75.16 20.5376C73.0885 20.992 71.4678 20.5012 69.6202 19.5979C64.3829 17.0378 58.204 17.9153 52.8761 19.6976C49.923 20.6858 47.1003 21.9942 44.2773 23.3028C41.9813 24.367 39.6851 25.4313 37.3184 26.3237C27.2822 30.1059 16.7418 28.9795 6.33134 27.8669L6.32632 27.8664C5.96146 27.8274 5.59672 27.7884 5.23217 27.7497C-0.172548 27.1752 -5.61984 26.6719 -11.0562 27.0355C-16.3122 27.3861 -21.3926 28.6983 -26.1169 31.0348C-34.1539 35.0112 -40.7505 41.24 -47.2256 47.354C-47.851 47.9445 -48.4752 48.5339 -49.0995 49.1201C-56.5936 56.158 -64.4444 62.7014 -73.8509 67.047C-82.8638 71.2117 -93.1755 73.4169 -103.045 71.4832C-111.544 69.8177 -119.588 65.0762 -124.925 58.2215C-130.553 50.9923 -132.322 41.8347 -129.765 33.0255C-125.322 17.7234 -112.525 8.91445 -99.9264 0.241631C-94.7787 -3.30205 -89.664 -6.82299 -85.1655 -10.7548C-81.0508 -14.3527 -77.3245 -18.4166 -74.3884 -23.0391ZM-96.8249 -0.977857C-88.0827 -7.00618 -79.51 -13.5232 -73.7297 -22.6018C-73.7245 -22.6084 -73.7195 -22.6153 -73.7145 -22.6224L-73.7115 -22.6268L-73.7028 -22.64C-71.0398 -26.9109 -69.0895 -31.6283 -68.4383 -36.644C-67.791 -41.6276 -68.579 -46.5998 -69.3656 -51.5637C-70.2962 -57.4364 -71.2251 -63.2977 -69.7734 -69.1527C-67.4183 -78.6544 -59.3704 -85.6458 -50.6812 -89.4175C-40.4508 -93.8581 -28.8807 -94.895 -17.8733 -95.8815L-17.297 -95.9332C-5.33341 -97.007 6.69147 -97.3976 18.7001 -97.1064C24.74 -96.9601 30.7738 -96.6413 36.7953 -96.1485C42.3074 -95.6975 47.8701 -95.234 53.3057 -94.1707C58.2112 -93.2125 63.094 -91.6721 67.245 -88.8112C71.0143 -86.2139 73.8963 -82.5804 75.8775 -78.4772C79.8684 -70.2139 80.4589 -60.6761 80.8064 -51.6536C81.1175 -43.5801 81.4089 -35.5051 81.7003 -27.4302C81.846 -23.3913 81.9918 -19.3523 82.14 -15.3135C82.2175 -13.1977 82.2964 -11.0821 82.3754 -8.9666L82.376 -8.9511C82.5235 -4.99845 82.671 -1.04601 82.8085 2.90711C82.9798 7.82334 83.1277 13.8833 79.1982 17.5157C77.5824 19.0086 75.3632 20.039 73.131 19.9352C72.0584 19.8839 71.1952 19.4706 70.2806 19.0327L70.2804 19.0326L70.2803 19.0326C70.078 18.9357 69.8732 18.8376 69.663 18.742C68.6213 18.2677 67.5276 17.9089 66.412 17.6609C61.3449 16.5368 56.0332 17.6499 51.2542 19.433C48.8194 20.3414 46.4618 21.433 44.1044 22.5245L44.1042 22.5245C41.4473 23.7547 38.7906 24.9848 36.0238 25.9526C30.8952 27.7456 25.5145 28.3069 20.1043 28.1911C15.8022 28.0994 11.5141 27.6298 7.22668 27.1603C0.962291 26.4743 -5.30059 25.7884 -11.6032 26.2819C-16.372 26.6538 -20.9955 27.799 -25.3471 29.7917C-29.5326 31.7082 -33.3643 34.3043 -36.9582 37.1625C-40.8467 40.2545 -44.4564 43.6613 -48.0663 47.068C-51.4505 50.2619 -54.8348 53.4558 -58.4488 56.3905C-73.6234 68.714 -95.4663 77.0101 -113.862 66.6262C-121.458 62.3396 -127.772 55.2286 -129.63 46.5488C-131.728 36.7494 -127.57 26.9299 -121.518 19.3661C-115.444 11.7717 -107.384 6.25503 -99.4229 0.805044L-99.4224 0.804726C-98.5545 0.210607 -97.6878 -0.382716 -96.8249 -0.977857ZM-59.2251 -38.3537C-59.4935 -33.3545 -61.3109 -28.6358 -63.9408 -24.4172C-66.5234 -20.3521 -69.7997 -16.7793 -73.4217 -13.6173C-77.3822 -10.1553 -81.8844 -7.05547 -86.4154 -3.93589L-86.4159 -3.93553C-97.5067 3.70044 -108.77 11.4549 -112.682 24.9305C-114.936 32.695 -113.376 40.7664 -108.417 47.1393C-103.715 53.1804 -96.626 57.3636 -89.1348 58.8315C-80.4347 60.5362 -71.35 58.594 -63.4057 54.9231C-55.1262 51.0967 -48.2137 45.3348 -41.6151 39.1384C-41.0962 38.6509 -40.5773 38.161 -40.0576 37.6703L-40.028 37.6423L-39.9978 37.6138L-39.9767 37.5938L-39.9746 37.5918C-34.2775 32.2108 -28.4732 26.7286 -21.4003 23.2298C-17.2513 21.1758 -12.786 20.0245 -8.17057 19.7161C-3.38591 19.3963 1.40798 19.839 6.164 20.345C6.48386 20.379 6.80388 20.4132 7.12404 20.4474C16.2917 21.4269 25.5745 22.4187 34.4129 19.0884C36.4982 18.3029 38.5211 17.3653 40.5439 16.4279C43.0262 15.2774 45.5084 14.1271 48.1053 13.258C52.7818 11.6935 58.2064 10.9202 62.804 13.1666C64.4426 13.9674 65.8797 14.4016 67.7156 13.9982C69.4329 13.6204 71.0416 12.6496 72.2369 11.3662C75.2513 8.13087 75.322 3.23157 75.1963 -0.919083C74.9735 -8.28938 74.6881 -15.6588 74.4027 -23.0276L74.4022 -23.0401L74.4017 -23.0526L74.4012 -23.0651C74.2641 -26.6055 74.127 -30.1458 73.9969 -33.6859C73.9336 -35.4155 73.8717 -37.145 73.8098 -38.8744L73.8097 -38.8779L73.8096 -38.8815L73.8094 -38.885L73.8093 -38.8885L73.8092 -38.892L73.809 -38.8955C73.6783 -42.549 73.5477 -46.202 73.4031 -49.8549C73.2428 -53.9264 72.9859 -58.0026 72.3526 -62.0306C71.1404 -69.7481 68.3067 -77.5468 61.8459 -82.3906C54.8186 -87.6579 45.4514 -88.4754 36.9348 -89.2186L36.3054 -89.2736L35.7867 -89.3193C24.9491 -90.2785 14.0557 -90.6 3.18075 -90.2857C-7.38577 -89.9799 -18.0274 -89.2009 -28.4714 -87.5253C-37.4588 -86.0832 -46.6038 -83.3879 -53.3619 -76.9872C-56.2742 -74.2281 -58.654 -70.8594 -59.9921 -67.059C-61.5664 -62.5875 -61.3684 -57.8358 -60.7405 -53.2067C-60.5782 -52.0102 -60.3896 -50.8137 -60.2007 -49.6162L-60.2007 -49.6158C-59.6121 -45.8829 -59.022 -42.1398 -59.2251 -38.3537ZM-63.2709 -23.9975C-68.3619 -15.9945 -75.9161 -10.2514 -83.6196 -4.93755C-84.3721 -4.41868 -85.128 -3.90133 -85.8848 -3.38331C-92.8954 1.41498 -99.9919 6.2721 -105.342 12.9574C-110.657 19.5993 -114.31 28.2268 -112.469 36.8323C-110.836 44.459 -105.289 50.7059 -98.6146 54.4721C-82.4464 63.599 -63.2435 56.3038 -49.9076 45.4721C-46.7302 42.8914 -43.754 40.0829 -40.7777 37.2744L-40.7773 37.2739C-37.5982 34.274 -34.4191 31.2741 -30.9949 28.5517C-27.829 26.0343 -24.454 23.7459 -20.7679 22.0581C-16.9301 20.3004 -12.8553 19.2906 -8.64959 18.9623C-3.10448 18.5285 2.40507 19.1318 7.9163 19.7352L7.91649 19.7352C11.6911 20.1485 15.4665 20.5619 19.2546 20.6423C24.0116 20.7434 28.7422 20.2512 33.251 18.6743C35.6865 17.8227 38.0246 16.7402 40.363 15.6577C42.4372 14.6974 44.5116 13.7371 46.6541 12.9378C50.8688 11.3645 55.5511 10.3869 60.0184 11.379C61.0043 11.5972 61.9714 11.9167 62.8896 12.3343C63.0731 12.4179 63.2519 12.5037 63.4285 12.5884L63.4288 12.5885C64.2274 12.9715 64.981 13.333 65.9175 13.378C67.8682 13.4696 69.8108 12.5678 71.2227 11.2619C74.6706 8.07484 74.5366 2.75201 74.3869 -1.55997C74.2557 -5.32536 74.115 -9.09071 73.9744 -12.856L73.9738 -12.8726C73.915 -14.4466 73.8562 -16.0206 73.7981 -17.5945C73.6676 -21.1482 73.5393 -24.702 73.4111 -28.2559L73.4107 -28.2672C73.1545 -35.37 72.8982 -42.473 72.6237 -49.5752C72.3176 -57.5063 71.8003 -65.8926 68.2935 -73.157C66.5537 -76.7608 64.0235 -79.9534 60.7135 -82.2336C57.0646 -84.749 52.7722 -86.1021 48.4585 -86.9458C43.6796 -87.8805 38.7893 -88.2882 33.9417 -88.6834C28.6432 -89.1157 23.3323 -89.3978 18.017 -89.5263C7.4495 -89.782 -3.13272 -89.4382 -13.6602 -88.4933L-14.1796 -88.4467C-23.8533 -87.5796 -34.0238 -86.6679 -43.0151 -82.766C-50.65 -79.4516 -57.7248 -73.3113 -59.7956 -64.9602C-61.0728 -59.8103 -60.2553 -54.6538 -59.4361 -49.487C-58.7439 -45.1209 -58.0505 -40.7476 -58.619 -36.3648C-59.192 -31.9424 -60.9109 -27.7823 -63.2583 -24.0166C-63.2624 -24.01 -63.2666 -24.0037 -63.2709 -23.9975ZM-53.4932 -25.7941C-51.2278 -29.4284 -49.6592 -33.495 -49.4276 -37.8029C-49.2524 -41.0717 -49.7621 -44.304 -50.2704 -47.527L-50.2707 -47.5288L-50.2708 -47.5294L-50.2709 -47.5301L-50.271 -47.5308L-50.2712 -47.5315C-50.4342 -48.5654 -50.5971 -49.5984 -50.7371 -50.6313C-51.2785 -54.6342 -51.4501 -58.742 -50.0883 -62.6089C-48.9296 -65.8996 -46.8702 -68.817 -44.348 -71.2067C-38.5044 -76.7422 -30.5989 -79.0747 -22.8276 -80.3218C-13.8023 -81.7688 -4.6079 -82.4441 4.52392 -82.7079C13.9167 -82.9802 23.3247 -82.7019 32.6845 -81.8731L33.1823 -81.8293L33.6725 -81.7865C41.0376 -81.1438 49.1393 -80.4368 55.2177 -75.8812C60.8089 -71.6908 63.2675 -64.9451 64.3166 -58.265C64.8651 -54.781 65.0863 -51.2553 65.2267 -47.7343C65.3577 -44.4115 65.4767 -41.0879 65.5956 -37.7641C65.6432 -36.4328 65.6908 -35.1015 65.7392 -33.7703C65.8522 -30.6956 65.9713 -27.6209 66.0904 -24.5462L66.0906 -24.5416L66.0915 -24.516L66.0916 -24.5131C66.3374 -18.1663 66.5832 -11.8191 66.776 -5.47041C66.885 -1.87021 66.8179 2.37253 64.2046 5.17851C63.1672 6.29233 61.7686 7.13784 60.2759 7.46625C58.6756 7.81857 57.4205 7.44103 55.9925 6.74269C52.0344 4.81002 47.3627 5.48083 43.3407 6.82754C41.0958 7.57832 38.9501 8.57297 36.8037 9.56792C35.0591 10.3766 33.3141 11.1855 31.5151 11.8638C23.8718 14.7449 15.8435 13.8859 7.91575 13.0377L7.9156 13.0376L7.10367 12.9509C2.99635 12.515 -1.14411 12.1329 -5.27712 12.4088C-9.25354 12.675 -13.1022 13.667 -16.6758 15.4353C-22.7752 18.4525 -27.7818 23.1797 -32.697 27.8206C-33.1734 28.2703 -33.6489 28.7193 -34.1245 29.1658C-39.826 34.5207 -45.8002 39.4995 -52.9558 42.8068C-59.8316 45.9838 -67.6892 47.6629 -75.2183 46.1871C-81.6999 44.9168 -87.8391 41.2952 -91.9039 36.0645C-96.1923 30.5463 -97.544 23.5629 -95.5923 16.8413C-92.21 5.19129 -82.4796 -1.50972 -72.8957 -8.10994C-68.9819 -10.8052 -65.0926 -13.4837 -61.67 -16.4756C-58.5472 -19.2065 -55.7209 -22.288 -53.4932 -25.7941ZM-70.416 -8.89769C-63.7569 -13.489 -57.2293 -18.454 -52.8262 -25.3698C-52.8204 -25.3779 -52.8147 -25.3863 -52.8092 -25.3951C-50.7772 -28.6573 -49.2901 -32.2586 -48.7951 -36.0876C-48.3053 -39.8708 -48.904 -43.6462 -49.5017 -47.4151L-49.5018 -47.4154C-50.2091 -51.8758 -50.915 -56.3271 -49.8131 -60.7712C-48.0283 -67.9703 -41.928 -73.261 -35.3459 -76.1164C-27.5928 -79.4801 -18.8225 -80.2663 -10.4802 -81.0142L-10.0203 -81.0554C-0.927436 -81.8713 8.21221 -82.1684 17.3385 -81.9467C21.9278 -81.8358 26.5157 -81.5921 31.0911 -81.2186C35.2726 -80.8777 39.4921 -80.5258 43.6143 -79.7198C47.3362 -78.9921 51.0382 -77.8246 54.1867 -75.6549C57.039 -73.6903 59.2156 -70.9383 60.7142 -67.834C63.7383 -61.5701 64.1825 -54.3353 64.4472 -47.4957C64.6796 -41.4556 64.8977 -35.4148 65.1158 -29.3743C65.23 -26.2081 65.3444 -23.042 65.4607 -19.876C65.5163 -18.3588 65.5728 -16.8416 65.6293 -15.3243L65.6303 -15.2975L65.6313 -15.2707L65.6317 -15.26C65.7463 -12.1828 65.8608 -9.10547 65.9683 -6.0274C66.098 -2.31651 66.2181 2.26756 63.252 5.00927C62.0438 6.12655 60.3793 6.89974 58.7087 6.82034C57.9115 6.7817 57.2694 6.47356 56.5901 6.1475C56.4363 6.0737 56.2806 5.99899 56.1208 5.92628C55.3229 5.56221 54.484 5.28518 53.6279 5.09523C49.7587 4.2365 45.7058 5.08024 42.0571 6.44211C40.206 7.13261 38.4136 7.96259 36.6213 8.79248C34.6023 9.72739 32.5835 10.6622 30.4814 11.3973C26.5906 12.7564 22.5101 13.1825 18.4065 13.0946C15.1369 13.025 11.8778 12.6681 8.61928 12.3112C3.85763 11.7898 -0.902781 11.2685 -5.69289 11.6439C-9.33392 11.9301 -12.8632 12.8045 -16.1857 14.3256C-19.3739 15.7848 -22.2923 17.7655 -25.03 19.9422C-27.9852 22.2923 -30.7292 24.8819 -33.4733 27.4716C-36.0453 29.8989 -38.6174 32.3262 -41.3635 34.5565C-52.8638 43.895 -69.4234 50.1906 -83.3653 42.3206C-89.1178 39.0733 -93.8979 33.6919 -95.3059 27.1168C-96.8925 19.7052 -93.743 12.2713 -89.1652 6.54974C-84.5497 0.780635 -78.4278 -3.41003 -72.3793 -7.55044C-71.7234 -7.99946 -71.0682 -8.4479 -70.416 -8.89769ZM-39.6207 -37.476C-39.7774 -33.7773 -41.1034 -30.2917 -43.0454 -27.1721C-44.9229 -24.2203 -47.3008 -21.6298 -49.9307 -19.3332C-52.816 -16.8111 -56.091 -14.5545 -59.3854 -12.2845L-59.3858 -12.2842C-67.4553 -6.72405 -75.6414 -1.08354 -78.5026 8.73544C-80.1382 14.3476 -79.0446 20.2098 -75.4949 24.8482C-72.0847 29.3049 -66.9145 32.3997 -61.4298 33.5088C-55.1507 34.7779 -48.585 33.4269 -42.8219 30.8243C-36.7616 28.0884 -31.6845 23.9163 -26.8705 19.4045C-26.3999 18.9634 -25.9296 18.5193 -25.4585 18.0744C-21.3792 14.2221 -17.2333 10.3067 -12.1977 7.75268C-9.21843 6.24165 -6.00552 5.36456 -2.67607 5.11054C0.786238 4.84523 4.25898 5.1493 7.70178 5.51045C7.91258 5.53257 8.12352 5.55488 8.33458 5.5773L8.8929 5.63673C15.4118 6.33154 22.0331 7.03727 28.3331 4.73194C29.9502 4.1399 31.5128 3.41589 33.0753 2.69195L33.0755 2.69187C34.8642 1.86314 36.6527 1.03448 38.5226 0.403971C41.9043 -0.735998 45.8485 -1.31851 49.1796 0.309924C50.3464 0.880576 51.3799 1.20941 52.6956 0.954078C53.9512 0.711495 55.127 0.0340337 56.0272 -0.867588C58.2823 -3.12561 58.4376 -6.65195 58.3645 -9.64634C58.2345 -15.0207 58.0163 -20.395 57.7981 -25.7682L57.798 -25.7711C57.6908 -28.4119 57.5836 -31.0524 57.4868 -33.6927C57.4394 -34.9829 57.3929 -36.2732 57.3464 -37.5635L57.3442 -37.6239L57.3437 -37.6381C57.2494 -40.2521 57.1552 -42.8662 57.0539 -45.4802C56.9397 -48.4302 56.7576 -51.3833 56.3112 -54.3059C55.449 -59.9534 53.4176 -65.6905 48.7244 -69.2734C43.6156 -73.1732 36.7947 -73.7838 30.5796 -74.3402L30.558 -74.3422L30.2857 -74.3665L29.9307 -74.3985C22.0738 -75.108 14.1751 -75.3557 6.28969 -75.1445C-1.44381 -74.9368 -9.2242 -74.3667 -16.8722 -73.1705C-23.4701 -72.1389 -30.193 -70.215 -35.1933 -65.5621C-37.3176 -63.5875 -39.0583 -61.1768 -40.0804 -58.4511C-41.2819 -55.2425 -41.2191 -51.8084 -40.7863 -48.4571C-40.6578 -47.4626 -40.5011 -46.469 -40.3442 -45.4748L-40.3442 -45.4744C-39.9259 -42.8226 -39.5068 -40.1661 -39.6207 -37.476ZM-42.3826 -26.7413C-46.0614 -20.9753 -51.4842 -16.8127 -57.0384 -12.9761C-57.2831 -12.8071 -57.5284 -12.6384 -57.774 -12.4697C-58.141 -12.2177 -58.5088 -11.966 -58.877 -11.7141C-63.8672 -8.29934 -68.9133 -4.84637 -72.7659 -0.131332C-76.7045 4.68905 -79.4747 10.9976 -78.1605 17.3103C-77.0058 22.8544 -72.9959 27.3987 -68.1554 30.143C-56.4286 36.7923 -42.4727 31.4882 -32.7986 23.6208C-30.4965 21.7488 -28.3393 19.7133 -26.1821 17.6778L-26.1817 17.6775L-26.1813 17.6772L-26.1809 17.6768L-26.1805 17.6765C-23.9048 15.5292 -21.6291 13.382 -19.1835 11.4266C-14.4553 7.64577 -9.18591 4.90167 -3.08075 4.35504C1.06548 3.9841 5.18943 4.43618 9.3136 4.88829C11.9307 5.17519 14.548 5.46209 17.171 5.53869C20.6008 5.63885 24.033 5.34669 27.3056 4.25912C29.2296 3.61896 31.0675 2.76878 32.9058 1.91845L32.9063 1.91818L32.9064 1.91813L32.9065 1.91808L32.9067 1.91803C34.3052 1.27108 35.704 0.624041 37.141 0.0693862C40.1794 -1.10321 43.527 -1.85719 46.7803 -1.27584C47.5589 -1.13639 48.3186 -0.914582 49.0483 -0.608937C49.2684 -0.517067 49.4811 -0.410226 49.6933 -0.303677L49.6938 -0.303425C50.1363 -0.0811722 50.5763 0.13981 51.0745 0.221279C52.535 0.462397 54.0636 -0.179271 55.1519 -1.1271C57.7519 -3.39046 57.6582 -7.30867 57.55 -10.4564C57.4641 -12.951 57.3709 -15.4455 57.2777 -17.9404L57.2763 -17.9778C57.2256 -19.3354 57.1749 -20.693 57.1254 -22.0509C57.0307 -24.63 56.9372 -27.2091 56.8436 -29.7882C56.6567 -34.9409 56.4698 -40.0937 56.2744 -45.2463C56.0558 -51.012 55.7037 -57.1127 53.1843 -62.4078C51.9269 -65.0474 50.0927 -67.3949 47.6759 -69.0661C45.0453 -70.8839 41.9558 -71.8658 38.8448 -72.479C35.4014 -73.1597 31.878 -73.4542 28.3831 -73.7425C24.556 -74.0587 20.7196 -74.2642 16.8802 -74.3621C9.20136 -74.5562 1.51219 -74.3154 -6.13984 -73.638L-6.60557 -73.5968L-6.60571 -73.5968L-6.60649 -73.5967C-13.6614 -72.973 -21.0873 -72.3164 -27.6433 -69.4806C-33.1601 -67.0937 -38.2716 -62.6889 -39.8084 -56.6703C-40.7717 -52.8977 -40.1726 -49.1105 -39.572 -45.3149C-39.0637 -42.1017 -38.5543 -38.8825 -38.9913 -35.6611C-39.4225 -32.4792 -40.6718 -29.4889 -42.3598 -26.7746C-42.3671 -26.7629 -42.3747 -26.7518 -42.3826 -26.7413ZM-32.5979 -28.5505C-31.0313 -31.0747 -29.9541 -33.8875 -29.8248 -36.8791C-29.7306 -39.0643 -30.0716 -41.2234 -30.4119 -43.3783C-30.5449 -44.2203 -30.6777 -45.0617 -30.7845 -45.9037C-31.1308 -48.635 -31.1608 -51.4318 -30.1608 -54.0388C-29.2962 -56.2913 -27.8379 -58.2727 -26.061 -59.8925C-21.9971 -63.5947 -16.5833 -65.1336 -11.268 -65.9636C-5.037 -66.9376 1.30086 -67.4024 7.60124 -67.5697C14.0899 -67.7421 20.5902 -67.5317 27.0532 -66.9368L27.4137 -66.9037C32.4757 -66.4388 38.0211 -65.9296 42.1706 -62.7119C45.9753 -59.7619 47.6032 -55.0569 48.2912 -50.4516C48.9172 -46.2584 49.0198 -41.9747 49.1218 -37.7171L49.1218 -37.7157C49.1546 -36.3471 49.1873 -34.9812 49.2373 -33.6219C49.3149 -31.5051 49.4016 -29.3882 49.4884 -27.2711L49.4884 -27.271L49.4884 -27.2709L49.4884 -27.2707C49.6668 -22.916 49.8452 -18.5608 49.9442 -14.2054C49.9989 -11.7805 49.8519 -8.96129 48.0533 -7.12008C46.5831 -5.61794 44.4501 -5.06063 42.5517 -6.02394C38.1622 -8.25056 33.5196 -6.10663 29.2616 -4.14032C28.1288 -3.61722 27.0233 -3.1067 25.957 -2.69438C20.5722 -0.610975 14.9347 -1.21511 9.33271 -1.81543L9.33252 -1.81546L9.22054 -1.82748C3.60382 -2.42854 -2.052 -2.74323 -7.25676 -0.157477C-11.4221 1.91128 -14.8378 5.13789 -18.1964 8.31055L-18.1966 8.31068C-18.5745 8.66774 -18.9518 9.02412 -19.3293 9.37809C-23.2651 13.0674 -27.4181 16.4787 -32.3799 18.7066C-37.0682 20.8121 -42.4068 21.9016 -47.5086 20.8615C-51.9679 19.9532 -56.1674 17.4388 -58.945 13.8178C-61.8479 10.0325 -62.7466 5.25199 -61.4208 0.667002C-59.1047 -7.33803 -52.4299 -11.9389 -45.8562 -16.4701C-43.2125 -18.2923 -40.5852 -20.1033 -38.2643 -22.1199C-36.0987 -24.0029 -34.144 -26.126 -32.5979 -28.5505ZM-43.6784 -17.044C-39.2269 -20.1266 -34.9108 -23.4821 -31.9505 -28.0956C-31.9436 -28.1035 -31.9369 -28.1118 -31.9304 -28.1204C-31.923 -28.1302 -31.9159 -28.1406 -31.909 -28.1514C-30.5287 -30.3763 -29.5109 -32.8205 -29.1594 -35.4281C-28.8085 -38.0374 -29.2219 -40.6455 -29.6346 -43.2486C-30.1238 -46.3342 -30.6119 -49.4128 -29.8244 -52.4781C-28.5404 -57.4743 -24.2249 -61.0804 -19.6169 -62.977C-14.2935 -65.1683 -8.32795 -65.6891 -2.63738 -66.1859L-2.34657 -66.2114C3.86144 -66.7534 10.1001 -66.9428 16.3299 -66.7778C19.4447 -66.6945 22.5566 -66.5241 25.6623 -66.2652C28.4848 -66.0296 31.3342 -65.7893 34.1145 -65.2293C36.6274 -64.7226 39.1171 -63.9137 41.2315 -62.4287C43.1969 -61.0479 44.6698 -59.1079 45.6732 -56.9408C47.6944 -52.5798 47.937 -47.5815 48.1112 -42.8535C48.3371 -36.718 48.5614 -30.5824 48.7858 -24.4468L48.7996 -24.0713C48.8359 -23.083 48.8734 -22.0947 48.911 -21.1064C48.9914 -18.9864 49.0719 -16.8661 49.1413 -14.745C49.2248 -12.162 49.2398 -8.93653 46.9663 -7.20998C46.0611 -6.52349 44.8264 -6.07685 43.6932 -6.38814C43.365 -6.4785 43.0573 -6.63332 42.7497 -6.78806C42.5381 -6.89448 42.3266 -7.00087 42.1086 -7.08624C41.5229 -7.31462 40.9136 -7.47496 40.2933 -7.57357C37.6952 -7.98676 35.0481 -7.39065 32.6246 -6.45955C31.447 -6.00675 30.3018 -5.47681 29.1567 -4.94696L29.1566 -4.94691L29.1565 -4.94686L29.1564 -4.94681C27.73 -4.28679 26.3039 -3.6269 24.8158 -3.11634C22.1692 -2.207 19.3951 -1.93657 16.6092 -2.00302C14.4037 -2.05538 12.2055 -2.29611 10.0078 -2.53681L10.0076 -2.53685C6.75289 -2.89333 3.49916 -3.24969 0.223925 -2.99388C-4.7299 -2.60741 -9.02428 -0.481965 -12.8884 2.55235C-14.9983 4.2092 -16.9478 6.04855 -18.8976 7.88816L-18.8979 7.88843L-18.8982 7.8887L-18.8985 7.88897C-20.5808 9.47618 -22.2632 11.0636 -24.0491 12.5341C-31.9017 18.9984 -43.3027 23.4281 -52.8871 18.0027C-56.8172 15.7789 -60.0726 12.0907 -61.0009 7.58868C-62.068 2.41931 -59.7451 -2.74005 -56.4931 -6.65601C-53.3867 -10.3973 -49.3592 -13.1528 -45.3714 -15.8811L-45.3711 -15.8813C-44.8052 -16.2685 -44.24 -16.6551 -43.6784 -17.044ZM-20.0182 -36.6932C-20.0457 -34.2571 -20.8803 -31.9825 -22.1502 -29.927C-23.3635 -28.0314 -24.8967 -26.3758 -26.5979 -24.9128C-28.3574 -23.398 -30.3382 -22.0313 -32.3313 -20.6562L-32.3318 -20.6558C-37.4064 -17.1547 -42.5601 -13.5989 -44.3406 -7.40591C-45.3518 -3.88765 -44.6717 -0.212465 -42.46 2.70394C-40.3165 5.5303 -37.056 7.50211 -33.5904 8.21281C-25.2779 9.91661 -17.6824 4.8622 -11.9176 -0.530765C-11.5893 -0.838034 -11.2614 -1.14781 -10.9329 -1.45819C-8.39985 -3.85149 -5.82904 -6.28046 -2.70769 -7.87371C1.36216 -9.94974 5.77606 -9.69622 10.1856 -9.22439C14.4939 -8.76189 18.8259 -8.29946 22.9677 -9.89156C23.8649 -10.2365 24.7382 -10.6416 25.6114 -11.0466L25.6118 -11.0467L25.6121 -11.0469C26.802 -11.5987 27.9917 -12.1505 29.2417 -12.5503C30.399 -12.9209 31.6024 -13.1681 32.8205 -13.1496C34.0101 -13.1311 34.9488 -12.7751 36.0174 -12.3103C37.4215 -11.6989 39.0672 -12.306 40.0778 -13.3707C41.4248 -14.7904 41.5572 -16.9103 41.5224 -18.7627C41.4569 -22.1981 41.3119 -25.6355 41.1669 -29.0717C41.0965 -30.7397 41.0262 -32.4074 40.9649 -34.0745C40.9275 -35.0917 40.903 -36.1139 40.8785 -37.1382L40.8785 -37.1384C40.7996 -40.4291 40.7203 -43.7416 40.2105 -46.9798C39.6556 -50.497 38.3604 -54.043 35.4459 -56.278C32.252 -58.7271 28.0049 -59.1182 24.1215 -59.4758L23.8641 -59.4995C18.7918 -59.9686 13.6915 -60.1309 8.59967 -59.9846C3.77039 -59.8467 -1.09331 -59.4888 -5.86774 -58.7245C-9.96055 -58.069 -14.1157 -56.8423 -17.216 -53.958C-18.5238 -52.7408 -19.5969 -51.2647 -20.2522 -49.5963C-21.0224 -47.6334 -21.0409 -45.5263 -20.7954 -43.4592C-20.709 -42.7327 -20.5948 -42.0084 -20.4806 -41.2839L-20.4806 -41.2837C-20.2406 -39.7609 -20.0005 -38.2378 -20.0182 -36.6932ZM-21.4885 -29.4948C-24.0506 -25.5122 -27.8361 -22.9005 -31.6285 -20.2841C-34.7028 -18.1631 -37.7817 -16.039 -40.217 -13.1789C-42.7809 -10.1673 -44.6597 -6.16041 -43.8397 -2.13115C-43.1283 1.36836 -40.5829 4.21934 -37.5174 5.91942C-30.0439 10.0623 -21.2294 6.44226 -15.2158 1.37473C-13.9697 0.324632 -12.7836 -0.793177 -11.5976 -1.9109C-10.0427 -3.37623 -8.48801 -4.84139 -6.79867 -6.15355C-3.87129 -8.42696 -0.60742 -10.0065 3.12533 -10.307C5.65847 -10.5105 8.17646 -10.2353 10.6947 -9.95995L10.6949 -9.95992L10.6951 -9.95989C12.2964 -9.78483 13.8978 -9.60976 15.5033 -9.55778C17.6406 -9.48864 19.7759 -9.652 21.8185 -10.3183C23.0568 -10.7215 24.2374 -11.2679 25.418 -11.8143C26.179 -12.1665 26.94 -12.5187 27.7163 -12.8324C29.6212 -13.6013 31.7036 -14.138 33.7684 -13.871C34.6655 -13.7554 35.4175 -13.442 36.2312 -13.0827C37.1525 -12.6745 38.1235 -12.8802 38.9404 -13.4369C40.8096 -14.7103 40.7783 -17.2919 40.7148 -19.3039C40.6635 -20.9045 40.6025 -22.5051 40.5414 -24.1057C40.5108 -24.9063 40.4803 -25.7068 40.451 -26.5074C40.4164 -27.4479 40.3821 -28.3885 40.3478 -29.3291L40.2737 -31.3624L40.2733 -31.3748L40.2728 -31.3873C40.1561 -34.5936 40.0394 -37.8002 39.9185 -41.0061C39.7827 -44.6094 39.588 -48.4246 38.0305 -51.7423C37.2446 -53.4162 36.0889 -54.9028 34.5543 -55.9506C32.885 -57.0899 30.924 -57.6876 28.9571 -58.0639C24.4488 -58.9247 19.7282 -59.1034 15.15 -59.2095C10.3693 -59.32 5.58283 -59.16 0.82049 -58.7296L0.487059 -58.6995C-3.93083 -58.3014 -8.60121 -57.8805 -12.6716 -56.0143C-16.0747 -54.4535 -19.1768 -51.6166 -19.9549 -47.8203C-20.4103 -45.5972 -20.0587 -43.3794 -19.7064 -41.1576C-19.3852 -39.1314 -19.0634 -37.1018 -19.3527 -35.0619C-19.634 -33.0777 -20.4171 -31.2255 -21.4646 -29.5295C-21.4691 -29.5223 -21.4737 -29.5154 -21.4784 -29.5086C-21.4817 -29.5039 -21.485 -29.4993 -21.4885 -29.4948ZM-11.7027 -31.3051C-10.8035 -32.7683 -10.2272 -34.3654 -10.227 -36.0975C-10.2268 -37.1422 -10.389 -38.172 -10.5512 -39.2019L-10.5512 -39.2021C-10.6405 -39.7691 -10.7299 -40.3361 -10.792 -40.9055C-11.1038 -43.7729 -10.2587 -46.3434 -8.08533 -48.2849C-5.84403 -50.2866 -2.89204 -51.1127 0.0162899 -51.5574C3.39592 -52.0741 6.82821 -52.3282 10.2449 -52.4131C13.7313 -52.5013 17.2227 -52.3823 20.6939 -52.0576L20.8041 -52.0473C23.5684 -51.7893 26.5858 -51.5078 28.8493 -49.7429C30.9022 -48.1423 31.805 -45.616 32.1873 -43.1221C32.5367 -40.8365 32.593 -38.5009 32.6489 -36.18L32.649 -36.1782C32.6665 -35.4501 32.6841 -34.7234 32.7106 -34.0002C32.7535 -32.8368 32.8077 -31.6719 32.862 -30.5062C32.9758 -28.0647 33.0896 -25.6203 33.0992 -23.1823C33.1045 -21.9215 32.955 -20.4912 32.0249 -19.5437C31.3159 -18.8196 30.1998 -18.3922 29.2105 -18.7464C29.0249 -18.8125 28.8502 -18.8828 28.6795 -18.9514C28.1918 -19.1474 27.7361 -19.3305 27.1514 -19.3693C26.3256 -19.4249 25.5016 -19.2842 24.7111 -19.0567C23.7275 -18.7733 22.8003 -18.3439 21.8731 -17.9144C21.2904 -17.6446 20.7077 -17.3747 20.111 -17.1411C17.1612 -15.986 14.087 -16.3067 11.0129 -16.6353C7.93712 -16.9638 4.84895 -17.1405 2.0167 -15.6756C-0.147134 -14.5569 -1.92831 -12.8726 -3.69009 -11.2066L-3.6909 -11.2058C-4.01096 -10.9032 -4.33037 -10.6011 -4.65132 -10.3032C-8.70721 -6.53772 -14.1969 -3.10997 -19.9795 -4.50485C-24.8252 -5.67354 -28.6881 -10.3067 -27.2794 -15.4075C-26.0615 -19.8237 -22.4087 -22.3484 -18.8133 -24.8335C-17.4287 -25.7906 -16.0526 -26.7417 -14.8273 -27.7927C-13.63 -28.8182 -12.5578 -29.978 -11.7027 -31.3051ZM-11.0187 -30.9076C-11.0121 -30.9178 -11.006 -30.928 -11.0005 -30.9382C-10.2862 -32.1106 -9.74591 -33.3821 -9.53818 -34.7462C-9.31689 -36.2022 -9.54503 -37.65 -9.7728 -39.0955L-9.77283 -39.0956C-10.0169 -40.6442 -10.2604 -42.19 -9.95053 -43.7401C-9.39525 -46.5109 -7.02588 -48.5334 -4.52035 -49.5738C-1.68802 -50.7511 1.49306 -51.0297 4.52406 -51.2952L4.71808 -51.3122C7.98737 -51.5994 11.2728 -51.7046 14.5538 -51.6263C17.7193 -51.551 20.9829 -51.4284 24.1002 -50.839C26.8757 -50.3137 29.2555 -49.0334 30.4686 -46.3778C31.5537 -44.0031 31.6534 -41.2861 31.7477 -38.7179L31.7477 -38.7176L31.7487 -38.6889C31.8087 -37.0583 31.8683 -35.4281 31.9279 -33.798C31.9903 -32.0932 32.0526 -30.3886 32.1154 -28.684C32.1362 -28.109 32.1585 -27.5339 32.1808 -26.9588C32.2226 -25.8809 32.2645 -24.803 32.2962 -23.7251C32.3383 -22.2382 32.3099 -20.294 30.7245 -19.589C30.078 -19.3015 29.5984 -19.4478 28.9889 -19.7236C28.408 -19.9852 27.7845 -20.1186 27.1501 -20.1586C25.742 -20.2464 24.3491 -19.8359 23.0639 -19.3007C22.5878 -19.1026 22.1186 -18.8857 21.6491 -18.6688C20.722 -18.2404 19.7941 -17.8117 18.8116 -17.5265C17.3776 -17.1096 15.8828 -17.0453 14.3989 -17.1172C13.4007 -17.1654 12.4028 -17.275 11.4045 -17.3847L11.4042 -17.3847C9.52607 -17.5911 7.64651 -17.7975 5.76092 -17.596C1.55162 -17.1463 -1.40571 -14.3919 -4.346 -11.6533L-4.34616 -11.6532C-5.17865 -10.8778 -6.00977 -10.1037 -6.86756 -9.3835C-11.0568 -5.86617 -17.2029 -3.36906 -22.3791 -6.29624C-24.5404 -7.51852 -26.3188 -9.57982 -26.7217 -12.0848C-27.1758 -14.9188 -25.7441 -17.6801 -23.9047 -19.7349C-22.2331 -21.6011 -20.1816 -23.0193 -18.1339 -24.4347L-18.1337 -24.4349C-15.4757 -26.2723 -12.8242 -28.1051 -11.0187 -30.9076ZM-0.435677 -35.5036C-0.41337 -34.4754 -0.729759 -33.5557 -1.25504 -32.6832C-2.27425 -31.1313 -3.7953 -30.0711 -5.31192 -29.0141C-7.16443 -27.723 -9.01031 -26.4365 -9.92687 -24.2639C-11.2913 -21.0282 -8.99834 -17.7703 -5.73215 -17.0766C-2.40265 -16.3704 0.702484 -18.2993 3.03842 -20.4657C3.22829 -20.6418 3.41731 -20.8207 3.60688 -21.0002C4.64417 -21.9823 5.69761 -22.9797 6.99257 -23.5998C8.62417 -24.3822 10.4016 -24.1941 12.1416 -24.0099C12.2692 -23.9964 12.3966 -23.9829 12.5238 -23.9699C14.386 -23.7785 16.0469 -23.8414 17.7762 -24.61C17.9324 -24.6794 18.0886 -24.7515 18.2453 -24.8239C18.9893 -25.1677 19.7448 -25.5168 20.5665 -25.5939C21.109 -25.6455 21.5474 -25.5386 22.0381 -25.3401C22.2946 -25.2362 22.5146 -25.1622 22.7961 -25.1769C24.3304 -25.257 24.6883 -26.9092 24.6704 -28.1478C24.65 -29.5708 24.5874 -30.9951 24.5248 -32.4185C24.4936 -33.128 24.4624 -33.8373 24.4365 -34.5461C24.4219 -34.9421 24.4164 -35.3602 24.4107 -35.7918C24.3754 -38.4694 24.3331 -41.6649 22.0961 -43.3327C20.7846 -44.3096 19.0791 -44.4728 17.5033 -44.622C15.4765 -44.8147 13.4374 -44.8841 11.4016 -44.8331C9.42431 -44.7823 7.43609 -44.6349 5.4814 -44.3279C3.84933 -44.0736 2.20816 -43.5994 0.931859 -42.5041C-0.219648 -41.5167 -0.851719 -40.1584 -0.800102 -38.6382C-0.782269 -38.1251 -0.700654 -37.6185 -0.619051 -37.1118C-0.533104 -36.5783 -0.447149 -36.0448 -0.435677 -35.5036ZM-0.542792 -32.3351C0.414861 -33.955 0.409351 -35.5009 0.138635 -37.3221C-0.0165641 -38.3627 -0.149672 -39.4319 0.301066 -40.4229C0.652513 -41.1939 1.26676 -41.8293 1.96198 -42.3003C3.54678 -43.3755 5.58392 -43.5925 7.43915 -43.7855C9.46519 -43.9962 11.5041 -44.0851 13.54 -44.0522C15.3545 -44.022 17.2055 -43.9445 18.9982 -43.6548C20.5853 -43.3981 22.0322 -42.7852 22.7814 -41.2774C23.447 -39.9395 23.5047 -38.3696 23.5587 -36.903L23.5609 -36.8431C23.6026 -35.7416 23.6426 -34.6401 23.6826 -33.5387C23.7093 -32.8021 23.736 -32.0655 23.7633 -31.329C23.7757 -30.9839 23.7891 -30.6385 23.8025 -30.2931C23.8268 -29.6681 23.8511 -29.0429 23.8695 -28.4184L23.872 -28.3361C23.8967 -27.5364 23.933 -26.359 23.0241 -26.041C22.6948 -25.9261 22.4389 -26.0337 22.1641 -26.1492C22.051 -26.1968 21.9347 -26.2457 21.8087 -26.281C21.4906 -26.3706 21.1536 -26.408 20.823 -26.4027C20.1365 -26.392 19.4598 -26.1964 18.8275 -25.9422C18.5146 -25.8167 18.2082 -25.6749 17.9018 -25.5331C17.4325 -25.3159 16.9631 -25.0987 16.4705 -24.94C15.68 -24.6856 14.8591 -24.624 14.0334 -24.6495C13.3871 -24.6695 12.7426 -24.7401 12.098 -24.8106C11.1014 -24.9197 10.1048 -25.0288 9.1021 -24.9512C6.4979 -24.7485 4.69418 -23.0764 2.88811 -21.4021C2.63304 -21.1656 2.37793 -20.9291 2.12052 -20.6967C-0.245527 -18.5619 -3.76208 -16.7256 -6.90803 -18.3306C-8.18255 -18.9818 -9.27129 -20.1474 -9.51894 -21.5928C-9.80653 -23.2628 -8.90285 -24.8794 -7.7896 -26.0535C-6.85513 -27.0385 -5.75075 -27.8077 -4.64938 -28.5749C-3.13407 -29.6303 -1.62447 -30.6818 -0.570977 -32.2858C-0.56016 -32.3023 -0.550792 -32.3188 -0.542792 -32.3351Z" fill="url(#paint0_linear_1080_1288)"/>
<defs>
<linearGradient id="paint0_linear_1080_1288" x1="74.0919" y1="-178.722" x2="-292.57" y2="64.7619" gradientUnits="userSpaceOnUse">
<stop stop-color="#323232"/>
<stop offset="0.51" stop-color="#FF6100"/>
<stop offset="0.995488" stop-color="#020202"/>
</linearGradient>
</defs>
</svg>
