<svg width="257" height="185" viewBox="0 0 257 185" fill="none" xmlns="http://www.w3.org/2000/svg">
<path d="M-204.999 224.844C-182.605 230.558 -161.43 228.747 -144.517 214.027C-141.659 211.54 -137.953 208.304 -134.28 205.098C-69.7878 148.802 -20.5631 105.833 44.9756 110.352C93.6556 113.708 153.519 206.363 184.58 260.686L185.081 260.324C153.949 205.904 93.9429 113.109 45.0182 109.735C-20.7739 105.198 -70.0824 148.24 -134.685 204.633C-137.751 207.31 -140.867 210.03 -144.923 213.56C-161.548 228.029 -182.352 229.911 -204.386 224.398L-205 224.843L-204.999 224.844Z" fill="url(#paint0_linear_816_713)"/>
<path d="M-198.833 220.377C-172.805 229.343 -147.788 229.445 -128.384 212.556C-125.552 210.092 -121.823 206.836 -118.148 203.627C-53.6552 147.331 -4.43015 104.361 61.1093 108.88C107.697 112.094 164.529 197.095 196.553 252.012L197.052 251.65C164.955 196.638 107.977 111.494 61.1516 108.265C-4.64049 103.728 -53.9501 146.771 -118.551 203.164C-121.613 205.837 -124.707 208.537 -128.788 212.09C-147.91 228.733 -172.559 228.721 -198.252 219.958L-198.833 220.378L-198.833 220.377Z" fill="url(#paint1_linear_816_713)"/>
<path d="M-191.925 215.372C-162.635 227.607 -133.931 229.961 -112.239 211.081C-109.394 208.604 -105.676 205.36 -102.003 202.152C-37.5102 145.856 11.7148 102.885 77.2543 107.405C121.858 110.482 175.854 188.533 208.479 243.371L208.976 243.011C176.277 188.078 122.133 109.881 77.2966 106.789C11.5045 102.252 -37.8051 145.296 -102.407 201.688C-105.471 204.363 -108.575 207.073 -112.644 210.613C-134.054 229.25 -162.397 227.004 -191.373 214.972L-191.925 215.372Z" fill="url(#paint2_linear_816_713)"/>
<path d="M-185.44 210.673C-153.544 225.749 -121.68 230.311 -98.1009 209.789C-95.2649 207.32 -91.539 204.067 -87.8656 200.861C-23.3731 144.565 25.8519 101.594 91.3914 106.114C134.329 109.074 185.97 181.514 218.872 235.842L219.368 235.483C186.389 181.058 134.599 108.473 91.434 105.497C25.6419 100.959 -23.6677 144.003 -88.2706 200.396C-91.3344 203.071 -94.4302 205.773 -98.5075 209.321C-121.805 229.599 -153.307 225.158 -184.904 210.285L-185.44 210.673Z" fill="url(#paint3_linear_816_713)"/>
<path d="M-178.847 205.897C-144.624 223.683 -109.731 230.584 -84.4014 208.537C-81.5478 206.053 -77.8363 202.813 -74.1651 199.608C-9.67256 143.312 39.5525 100.341 105.092 104.861C146.464 107.715 195.914 175.07 228.898 228.578L229.393 228.22C196.329 174.614 146.727 107.113 105.134 104.245C39.3421 99.7081 -9.96634 142.751 -74.5693 199.144C-77.6363 201.821 -80.7465 204.535 -84.8072 208.07C-109.853 229.87 -144.383 223.101 -178.318 205.514L-178.847 205.897Z" fill="url(#paint4_linear_816_713)"/>
<path d="M-171.805 200.796C-135.383 221.311 -97.3927 230.812 -70.3236 207.251C-67.4699 204.768 -63.7584 201.527 -60.0872 198.322C4.40531 142.026 53.6303 99.0553 119.17 103.575C156.401 106.142 200.175 160.952 232.605 210.895L231.414 207.957C199.077 158.621 156.006 105.497 119.212 102.96C53.42 98.4224 4.11042 141.466 -60.4914 197.858C-63.5584 200.535 -66.6686 203.249 -70.7283 206.784C-97.5108 230.094 -135.136 220.736 -171.283 200.418L-171.805 200.796Z" fill="url(#paint5_linear_816_713)"/>
<path d="M-164.95 195.829C-126.615 218.856 -85.6903 230.989 -57.0199 206.035C-54.1795 203.563 -50.4569 200.312 -46.7835 197.106C17.709 140.81 66.934 97.8392 132.474 102.359C158.433 104.15 187.576 131.344 213.837 164.572L213.054 162.639C187.013 130.007 158.231 103.515 132.516 101.742C66.724 97.2045 17.4144 140.248 -47.1874 196.64C-50.2522 199.316 -53.3524 202.021 -57.4242 205.566C-85.8059 230.268 -126.361 218.288 -164.432 195.452L-164.951 195.828L-164.95 195.829Z" fill="url(#paint6_linear_816_713)"/>
<path d="M-157.326 190.305C-117.099 215.97 -72.9814 231.151 -42.6107 204.717C-39.757 202.234 -36.0456 198.994 -32.3744 195.789C32.1182 139.492 81.3432 96.5219 146.883 101.042C164.03 102.225 182.569 114.498 200.748 132.268L200.21 130.938C182.226 113.56 163.906 101.598 146.924 100.427C81.1317 95.8897 31.8222 138.933 -32.7797 195.325C-35.8467 198.003 -38.9561 200.718 -43.0165 204.251C-73.0918 230.427 -116.838 215.411 -156.813 189.934L-157.326 190.305Z" fill="url(#paint7_linear_816_713)"/>
<defs>
<linearGradient id="paint0_linear_816_713" x1="-140.742" y1="207.397" x2="132.503" y2="182.257" gradientUnits="userSpaceOnUse">
<stop stop-color="#300F61"/>
<stop offset="0.581592" stop-color="#8B46CC"/>
<stop offset="1" stop-color="#6E2BAC"/>
</linearGradient>
<linearGradient id="paint1_linear_816_713" x1="-133.514" y1="202.162" x2="144.173" y2="179.184" gradientUnits="userSpaceOnUse">
<stop stop-color="#300F61"/>
<stop offset="0.581592" stop-color="#8B46CC"/>
<stop offset="1" stop-color="#6E2BAC"/>
</linearGradient>
<linearGradient id="paint2_linear_816_713" x1="-125.697" y1="196.498" x2="155.725" y2="175.415" gradientUnits="userSpaceOnUse">
<stop stop-color="#300F61"/>
<stop offset="0.581592" stop-color="#8B46CC"/>
<stop offset="1" stop-color="#6E2BAC"/>
</linearGradient>
<linearGradient id="paint3_linear_816_713" x1="-118.505" y1="191.288" x2="165.77" y2="171.703" gradientUnits="userSpaceOnUse">
<stop stop-color="#300F61"/>
<stop offset="0.581592" stop-color="#8B46CC"/>
<stop offset="1" stop-color="#6E2BAC"/>
</linearGradient>
<linearGradient id="paint4_linear_816_713" x1="-111.293" y1="186.063" x2="175.457" y2="167.813" gradientUnits="userSpaceOnUse">
<stop stop-color="#300F61"/>
<stop offset="0.581592" stop-color="#8B46CC"/>
<stop offset="1" stop-color="#6E2BAC"/>
</linearGradient>
<linearGradient id="paint5_linear_816_713" x1="-104.322" y1="179.64" x2="180.871" y2="169.209" gradientUnits="userSpaceOnUse">
<stop stop-color="#300F61"/>
<stop offset="0.581592" stop-color="#8B46CC"/>
<stop offset="1" stop-color="#6E2BAC"/>
</linearGradient>
<linearGradient id="paint6_linear_816_713" x1="-99.6526" y1="170.772" x2="164.505" y2="190.012" gradientUnits="userSpaceOnUse">
<stop stop-color="#300F61"/>
<stop offset="0.581592" stop-color="#8B46CC"/>
<stop offset="1" stop-color="#6E2BAC"/>
</linearGradient>
<linearGradient id="paint7_linear_816_713" x1="-94.0491" y1="162.89" x2="145.022" y2="202.623" gradientUnits="userSpaceOnUse">
<stop stop-color="#300F61"/>
<stop offset="0.581592" stop-color="#8B46CC"/>
<stop offset="1" stop-color="#6E2BAC"/>
</linearGradient>
</defs>
</svg>
