<svg width="449" height="653" viewBox="0 0 449 653" fill="none" xmlns="http://www.w3.org/2000/svg">
<path fill-rule="evenodd" clip-rule="evenodd" d="M81.5855 373.146C93.0852 383.367 100.971 396.759 106.075 411.163C110.876 425.09 113.192 439.741 113.864 454.427C114.59 470.391 113.42 486.975 112.243 503.672C109.367 544.471 106.443 585.946 131.006 620.691C145.094 640.62 167.071 652.109 191.448 652.36C214.558 652.599 237.739 643.696 255.294 628.776C275.686 611.445 288.211 586.286 294.489 560.628C301.075 533.708 300.479 506.396 298.251 478.987C298.065 476.699 297.872 474.405 297.679 472.106C295.675 448.274 293.632 423.984 298.732 400.452C301.749 386.528 307.529 373.593 315.641 361.89C323.959 349.89 334.11 339.312 344.339 328.946C345.049 328.227 345.759 327.508 346.47 326.789L346.47 326.788C366.131 306.888 386.035 286.743 394.843 259.475C396.927 253.023 398.532 246.431 400.136 239.841L400.137 239.84C402.108 231.741 404.08 223.643 406.941 215.805C412.167 201.488 420.784 186.964 435.066 180.192C439.874 177.912 443.493 175.443 445.915 170.512C448.221 165.816 448.938 160.312 448.168 155.156C446.219 142.073 434.758 132.768 424.828 125.335C406.959 111.959 388.975 98.7329 370.992 85.5073L370.99 85.5057L370.988 85.5045L370.987 85.5041L370.987 85.504L370.986 85.5031L370.985 85.5019L370.984 85.5015L370.984 85.5014L370.982 85.4998L370.98 85.4986L370.979 85.4982L370.979 85.4981L370.978 85.4972L370.977 85.496L370.976 85.4956L370.976 85.4955L370.974 85.4939L370.972 85.4927L370.971 85.4922L370.971 85.4922L370.97 85.491L370.968 85.4898L370.967 85.4887L370.965 85.4875L370.963 85.4863L370.962 85.4852L370.96 85.484L370.959 85.4828L370.957 85.4817L370.956 85.4805L370.954 85.4793L370.952 85.4781L370.951 85.477L370.949 85.4758L370.948 85.4746L370.946 85.4735L370.944 85.4723L370.943 85.4711L370.941 85.47L370.94 85.4688C362.129 78.9887 353.317 72.5087 344.52 66.0112C340.222 62.8367 335.927 59.6584 331.632 56.4802L331.63 56.4789C322.724 49.8887 313.818 43.2989 304.888 36.7426C294.946 29.4437 284.817 22.351 274.085 16.2507C253.61 4.61097 229.846 -3.48535 206.268 2.64311C180.544 9.32868 160.939 29.9588 143.113 48.7167L143.109 48.7208L143.091 48.7401C142.276 49.5977 141.464 50.4513 140.656 51.2995C117.806 75.2869 96.3666 100.619 76.478 127.114C57.1969 152.8 38.8921 179.557 23.0963 207.545C9.54502 231.554 -1.38996 258.307 1.01494 286.406C2.04545 298.437 5.48879 310.371 11.9232 320.652C19.5458 332.83 31.1808 341.316 43.3396 348.567C46.4849 350.443 49.68 352.258 52.8782 354.073C62.8974 359.762 72.9464 365.468 81.5855 373.146ZM106.792 410.827C106.799 410.842 106.806 410.859 106.812 410.876C117.146 440.852 114.972 471.688 112.795 502.568C110.94 528.872 109.084 555.206 114.953 581.068C120.754 606.632 134.499 631.916 158.772 644C180.213 654.675 205.865 653.312 227.682 644.494C280.467 623.16 299.681 563.266 299.194 510.575C299.079 498.1 298.038 485.672 296.996 473.245C295.885 459.991 294.774 446.738 294.788 433.427C294.801 421.181 295.771 408.869 298.731 396.956C301.792 384.631 307.078 373.121 314.188 362.611C323.679 348.58 335.573 336.602 347.471 324.62C355.617 316.418 363.763 308.214 371.142 299.349C380.45 288.163 388.303 275.886 393.128 262.095C395.723 254.677 397.582 247.052 399.442 239.426L399.443 239.425L399.443 239.425C401.091 232.665 402.74 225.905 404.901 219.289C409.106 206.414 415.556 193.506 426.282 184.841C428.616 182.954 431.144 181.275 433.824 179.917C434.361 179.645 434.893 179.386 435.42 179.13C437.989 177.882 440.407 176.708 442.394 174.434C446.45 169.794 448.038 163.241 447.593 157.19C446.53 142.7 433.5 132.745 422.76 124.782C414.037 118.313 405.297 111.867 396.557 105.42L396.557 105.42C392.19 102.198 387.823 98.9771 383.459 95.7534C374.819 89.3724 366.184 82.9859 357.548 76.5993L357.545 76.597L357.536 76.5904L357.525 76.582C340.052 63.6596 322.578 50.7369 305.072 37.8587C285.481 23.4458 264.414 8.72034 240.31 3.25264C228.288 0.524984 215.747 0.530801 203.9 4.12405C190.926 8.05958 179.48 15.7547 169.237 24.467C157.887 34.1213 147.584 45.0461 137.39 55.8908C126.304 67.6869 115.555 79.7999 105.163 92.2121C84.5002 116.892 65.2371 142.744 47.5066 169.61L46.7089 170.818C30.3089 195.663 13.0819 221.761 5.27054 250.769C-1.37254 275.442 -0.104545 304.172 15.9748 325.112C25.8405 337.959 39.6874 345.811 53.5613 353.677L53.5617 353.677C65.3078 360.338 77.0731 367.009 86.4579 376.732C95.7775 386.389 102.327 398.242 106.792 410.827ZM88.1209 365.826C99.1041 375.589 106.635 388.378 111.509 402.135C116.093 415.437 118.305 429.43 118.948 443.461C119.642 458.712 118.526 474.555 117.401 490.506L117.401 490.507C114.654 529.48 111.862 569.097 135.327 602.29C148.785 621.33 169.783 632.306 193.074 632.547C215.154 632.775 237.302 624.271 254.074 610.015C273.557 593.456 285.523 569.42 291.521 544.906C297.813 519.19 297.243 493.099 295.114 466.916C294.937 464.731 294.752 462.541 294.568 460.346C292.653 437.581 290.702 414.378 295.574 391.901C298.456 378.603 303.975 366.25 311.721 355.074C319.667 343.61 329.364 333.506 339.135 323.605C339.671 323.061 340.208 322.518 340.745 321.974L341.175 321.539C359.956 302.529 378.968 283.286 387.381 257.239C389.371 251.078 390.903 244.784 392.434 238.491L392.435 238.491L392.435 238.49C394.319 230.751 396.202 223.013 398.936 215.523C403.927 201.852 412.154 187.981 425.792 181.514C430.389 179.335 433.849 176.972 436.165 172.258C438.368 167.772 439.053 162.51 438.319 157.582C436.454 145.08 425.507 136.189 416.016 129.084C398.934 116.297 381.741 103.653 364.549 91.0088L364.548 91.0081L364.547 91.0073L364.546 91.0066L364.545 91.0058L364.544 91.0051L364.543 91.0043L364.542 91.0036L364.541 91.0028L364.54 91.0021L364.539 91.0013L364.538 91.0006L364.537 90.9998L364.536 90.9991L364.535 90.9984L364.534 90.9976L364.533 90.9969L364.532 90.9961L364.531 90.9954L364.529 90.9946L364.528 90.9939C356.116 84.8067 347.703 78.6197 339.304 72.4163C335.313 69.4681 331.325 66.5168 327.336 63.5655C318.715 57.1858 310.093 50.8062 301.447 44.4584C291.948 37.4847 282.272 30.7094 272.019 24.8805C252.456 13.7588 229.753 6.02598 207.226 11.8819C182.65 18.27 163.921 37.9786 146.89 55.8999L146.887 55.903L146.873 55.918C146.093 56.7381 145.318 57.5544 144.545 58.3655C122.718 81.2807 102.239 105.477 83.2399 130.785C64.8211 155.322 47.3349 180.883 32.2457 207.62C19.2988 230.557 8.85253 256.115 11.1506 282.96C12.1342 294.455 15.4255 305.858 21.5731 315.681C28.855 327.313 39.9704 335.421 51.5864 342.349C54.5878 344.138 57.6366 345.869 60.6881 347.602L60.6885 347.602C70.263 353.038 79.8656 358.489 88.1209 365.826ZM112.265 401.903C122.115 430.52 120.04 459.959 117.961 489.438C116.19 514.564 114.417 539.72 120.023 564.424C125.563 588.837 138.69 612.984 161.869 624.525C182.346 634.72 206.844 633.418 227.68 624.996C278.093 604.621 296.444 547.415 295.98 497.091C295.87 485.18 294.875 473.313 293.881 461.446C292.819 448.781 291.758 436.116 291.772 423.397C291.785 411.698 292.711 399.935 295.538 388.555C298.464 376.779 303.514 365.783 310.307 355.738C319.372 342.337 330.734 330.896 342.098 319.451C349.879 311.615 357.662 303.778 364.71 295.309C373.602 284.626 381.102 272.899 385.711 259.726C388.189 252.64 389.966 245.356 391.743 238.071L391.743 238.07C393.318 231.614 394.893 225.157 396.957 218.838C400.974 206.537 407.138 194.204 417.387 185.925C419.619 184.122 422.034 182.517 424.594 181.219C425.107 180.959 425.615 180.712 426.118 180.468C428.569 179.277 430.876 178.156 432.773 175.988C436.644 171.56 438.16 165.304 437.737 159.528C436.721 145.692 424.278 136.187 414.023 128.582C405.614 122.348 397.19 116.133 388.766 109.919L388.751 109.908L388.714 109.881L388.707 109.875L388.677 109.853L388.64 109.826L388.633 109.82C384.582 106.832 380.531 103.844 376.482 100.853C368.239 94.7651 360.001 88.6721 351.762 82.5792L351.761 82.5781L351.759 82.577L351.758 82.576L351.756 82.5749L351.755 82.5738L351.753 82.5727L351.752 82.5717L351.751 82.5706L351.749 82.5695L351.748 82.5684L351.746 82.5674L351.745 82.5663L351.743 82.5652L351.742 82.5641L351.74 82.5631L351.739 82.562L351.737 82.5609L351.736 82.5598L351.734 82.5588L351.733 82.5577C335.034 70.2079 318.335 57.8582 301.605 45.5515C282.894 31.7853 262.772 17.7214 239.751 12.4988C228.27 9.89469 216.293 9.89779 204.981 13.3295C192.588 17.089 181.658 24.4379 171.874 32.7597C161.034 41.9796 151.193 52.4156 141.457 62.7731C130.867 74.0405 120.599 85.612 110.673 97.4686C90.9333 121.044 72.5336 145.738 55.5985 171.4L54.8328 172.56C39.1705 196.288 22.7176 221.214 15.2583 248.918C8.91364 272.483 10.1234 299.92 25.4799 319.918C34.9038 332.19 48.1304 339.689 61.3823 347.203C72.6021 353.565 83.8401 359.937 92.8038 369.224C101.719 378.461 107.983 389.802 112.249 401.844C112.256 401.864 112.261 401.883 112.265 401.903ZM116.943 393.105C112.299 379.998 105.123 367.809 94.6574 358.507C86.7895 351.514 77.6376 346.319 68.5125 341.138C65.6034 339.487 62.697 337.837 59.8358 336.131C48.7637 329.528 38.168 321.798 31.2265 310.709C25.3656 301.344 22.2277 290.473 21.2885 279.512C19.0985 253.923 29.0546 229.56 41.395 207.694C55.778 182.21 72.4455 157.846 90.002 134.458C108.109 110.336 127.63 87.2734 148.434 65.4326C149.175 64.6541 149.92 63.8706 150.668 63.0834C166.903 46 184.757 27.2123 208.185 21.1215C229.662 15.5382 251.305 22.9084 269.957 33.5099C279.73 39.065 288.956 45.525 298.01 52.1715C306.095 58.1074 314.159 64.0737 322.222 70.04C326.178 72.967 330.134 75.894 334.092 78.8175C342.1 84.7317 350.12 90.6302 358.14 96.5288L358.141 96.5296C374.532 108.584 390.923 120.639 407.209 132.83C416.258 139.604 426.696 148.083 428.473 160.005C429.175 164.705 428.521 169.722 426.419 174.002C424.211 178.5 420.91 180.755 416.523 182.835C403.53 188.996 395.692 202.214 390.935 215.239C388.33 222.376 386.535 229.751 384.739 237.126L384.739 237.126C383.279 243.125 381.818 249.125 379.921 254.999C371.901 279.828 353.779 298.171 335.876 316.292L335.876 316.292C335.228 316.947 334.581 317.603 333.934 318.258C324.622 327.696 315.379 337.326 307.804 348.252C300.422 358.902 295.163 370.673 292.417 383.344C287.775 404.765 289.634 426.874 291.458 448.569C291.634 450.662 291.81 452.752 291.979 454.837C294.009 479.794 294.552 504.665 288.554 529.176C282.836 552.548 271.428 575.459 252.854 591.246C236.864 604.836 215.749 612.944 194.699 612.726C172.496 612.497 152.477 602.031 139.645 583.88C117.277 552.24 119.939 514.478 122.557 477.329L122.557 477.328C123.628 462.125 124.692 447.024 124.03 432.488C123.421 419.118 121.313 405.783 116.943 393.105ZM117.68 392.818C117.674 392.802 117.668 392.787 117.662 392.772C113.593 381.308 107.627 370.514 99.1378 361.719C90.5943 352.869 79.8839 346.796 69.191 340.733C56.56 333.572 43.9535 326.424 34.9719 314.728C20.338 295.669 19.1862 269.522 25.2328 247.068C32.3411 220.668 48.0195 196.916 62.9439 174.305L63.6783 173.192C79.8215 148.733 97.3587 125.196 116.172 102.726C125.633 91.4251 135.42 80.3964 145.514 69.6566C154.791 59.7851 164.17 49.839 174.501 41.0525C183.825 33.1212 194.242 26.1184 206.053 22.5349C216.832 19.2657 228.245 19.2631 239.184 21.7446C261.124 26.7221 280.299 40.1255 298.132 53.244C314.007 64.9238 329.854 76.6429 345.7 88.3621L345.712 88.3711L345.716 88.3734C353.642 94.2354 361.568 100.097 369.499 105.954C373.399 108.835 377.301 111.713 381.202 114.591C389.233 120.515 397.264 126.439 405.281 132.384C415.05 139.627 426.909 148.684 427.876 161.866C428.281 167.366 426.837 173.324 423.149 177.54C421.345 179.604 419.15 180.67 416.817 181.804L416.814 181.805C416.335 182.038 415.85 182.273 415.362 182.521C412.92 183.759 410.617 185.289 408.488 187.008C398.717 194.902 392.84 206.658 389.01 218.386C387.043 224.41 385.542 230.564 384.041 236.718L384.041 236.718C382.348 243.662 380.654 250.605 378.292 257.359C373.901 269.913 366.753 281.088 358.279 291.27C351.562 299.341 344.145 306.81 336.729 314.277C325.897 325.186 315.067 336.092 306.426 348.867C299.949 358.443 295.135 368.926 292.345 380.154C289.649 391.001 288.768 402.215 288.755 413.368C288.742 425.487 289.754 437.556 290.765 449.624L290.765 449.625L290.765 449.625L290.766 449.626L290.766 449.626L290.766 449.626L290.766 449.626L290.766 449.627L290.766 449.627L290.766 449.627L290.766 449.628L290.766 449.628L290.766 449.628L290.766 449.628L290.766 449.629L290.766 449.629L290.766 449.629L290.766 449.63L290.766 449.63L290.766 449.63L290.766 449.63C291.714 460.942 292.662 472.253 292.767 483.607C293.209 531.562 275.722 586.081 227.681 605.496C207.825 613.52 184.481 614.76 164.968 605.046C142.881 594.049 130.373 571.039 125.094 547.778C119.751 524.232 121.441 500.255 123.129 476.307C125.111 448.19 127.089 420.112 117.68 392.818ZM101.191 351.188C111.14 360.03 117.961 371.615 122.375 384.076C126.53 396.128 128.534 408.807 129.115 421.516C129.744 435.338 128.732 449.696 127.714 464.151C125.225 499.477 122.696 535.385 143.965 565.473C156.17 582.736 175.208 592.689 196.325 592.908C216.344 593.116 236.426 585.406 251.634 572.481C269.298 557.469 280.148 535.678 285.586 513.451C291.288 490.144 290.772 466.496 288.842 442.764C288.681 440.783 288.514 438.798 288.347 436.81L288.347 436.805L288.347 436.805C286.612 416.178 284.845 395.156 289.259 374.79C291.868 362.746 296.869 351.555 303.884 341.433C311.085 331.044 319.873 321.887 328.728 312.914C329.326 312.308 329.924 311.702 330.523 311.096L330.57 311.049C347.594 293.817 364.829 276.372 372.456 252.762C374.259 247.177 375.648 241.473 377.036 235.768L377.036 235.768C378.744 228.755 380.45 221.743 382.928 214.957C387.446 202.577 394.895 190.011 407.246 184.156C411.422 182.174 414.563 180.029 416.667 175.746C418.668 171.675 419.288 166.9 418.622 162.428C416.931 151.088 407.005 143.022 398.397 136.577C382.929 125 367.363 113.551 351.797 102.103C344.152 96.4812 336.508 90.8593 328.876 85.2223C325.08 82.4187 321.286 79.6117 317.492 76.8047L317.481 76.7961L317.469 76.7874L317.466 76.7849L317.454 76.7763L317.451 76.7737C309.83 71.135 302.209 65.4965 294.567 59.8859C285.957 53.5635 277.183 47.422 267.889 42.1384C250.151 32.0559 229.567 25.0482 209.141 30.359C186.86 36.1514 169.882 54.0176 154.442 70.2644C153.732 71.0123 153.024 71.7567 152.32 72.4964C132.54 93.2638 113.98 115.193 96.7625 138.128C80.0673 160.368 64.2193 183.535 50.5428 207.768C38.8079 228.561 29.3405 251.729 31.4238 276.063C32.3161 286.488 35.3006 296.827 40.876 305.735C47.4771 316.282 57.5531 323.633 68.0825 329.912C70.8055 331.536 73.5718 333.106 76.3407 334.679L76.3415 334.679L76.3417 334.679L76.3419 334.679L76.342 334.679L76.3422 334.68L76.3424 334.68L76.3426 334.68L76.3428 334.68L76.343 334.68L76.3432 334.68L76.3434 334.681L76.3436 334.681L76.3438 334.681L76.344 334.681L76.3441 334.681L76.3443 334.681L76.3445 334.681L76.3447 334.682C85.0165 339.605 93.7144 344.543 101.191 351.188ZM123.121 383.813C132.058 409.758 130.178 436.446 128.294 463.172C126.689 485.944 125.082 508.744 130.164 531.134C135.182 553.244 147.071 575.118 168.066 585.571C186.614 594.806 208.803 593.627 227.68 585.999C273.351 567.541 289.973 515.713 289.553 470.124C289.454 459.327 288.553 448.572 287.651 437.816L287.651 437.815C286.689 426.339 285.728 414.863 285.74 403.338C285.751 392.732 286.59 382.07 289.152 371.752C291.804 361.074 296.384 351.102 302.544 341.995C310.759 329.849 321.055 319.481 331.354 309.11C338.406 302.008 345.459 294.905 351.847 287.229C359.904 277.55 366.698 266.927 370.873 254.991C373.119 248.57 374.729 241.969 376.34 235.367C377.767 229.515 379.194 223.663 381.065 217.936C384.708 206.78 390.298 195.6 399.592 188.093C401.617 186.457 403.808 185.002 406.133 183.824C406.597 183.589 407.056 183.366 407.511 183.146L407.511 183.145C409.728 182.069 411.815 181.055 413.529 179.094C417.033 175.089 418.405 169.43 418.02 164.206C417.099 151.678 405.827 143.07 396.542 136.186C388.92 130.533 381.283 124.9 373.646 119.267L373.645 119.266L373.644 119.265L373.643 119.264L373.641 119.263L373.64 119.262L373.639 119.262L373.638 119.261L373.636 119.26L373.635 119.259L373.634 119.258L373.633 119.257L373.632 119.256L373.63 119.255L373.629 119.254L373.628 119.253L373.627 119.253L373.626 119.252L373.624 119.251C369.922 116.52 366.22 113.789 362.52 111.056C355.025 105.521 347.534 99.9808 340.043 94.4407L340.032 94.4327L339.982 94.3957L339.932 94.3587L339.908 94.3411C324.835 83.194 309.762 72.0469 294.662 60.939C277.709 48.4683 259.481 35.7241 238.625 30.9928C228.226 28.6338 217.379 28.6368 207.133 31.7435C195.904 35.1488 186.002 41.8076 177.138 49.3484C167.316 57.7027 158.4 67.1578 149.58 76.5421C139.982 86.7532 130.677 97.2404 121.682 107.985C103.794 129.35 87.1182 151.728 71.7694 174.986L71.0675 176.05C56.8797 197.544 41.976 220.124 35.2174 245.221C29.4693 266.567 30.563 291.423 44.4739 309.538C53.0129 320.657 64.9985 327.453 77.0074 334.261C87.1741 340.026 97.3575 345.8 105.481 354.215C113.565 362.59 119.244 372.873 123.114 383.792L123.117 383.801L123.121 383.813ZM127.81 375.047C123.624 363.235 117.16 352.252 107.728 343.869C100.633 337.564 92.3809 332.879 84.1526 328.207L84.1508 328.206L84.1489 328.205L84.1471 328.204L84.1452 328.203L84.1434 328.202L84.1415 328.201L84.1397 328.2L84.1378 328.199L84.136 328.198L84.1341 328.196L84.1323 328.195L84.1304 328.194L84.1286 328.193L84.1267 328.192L84.1249 328.191L84.123 328.19L84.1212 328.189C81.509 326.706 78.8993 325.225 76.3304 323.693C66.3447 317.736 56.7874 310.765 50.5269 300.763C45.2383 292.314 42.4059 282.505 41.5604 272.617C39.5852 249.537 48.5626 227.564 59.6931 207.842C72.6631 184.86 87.6924 162.89 103.525 141.8C119.852 120.049 137.452 99.2551 156.209 79.5621C156.877 78.8607 157.548 78.1549 158.222 77.4457C172.865 62.0368 188.969 45.091 210.099 39.5974C229.473 34.5605 248.998 41.2033 265.824 50.7679C274.64 55.7787 282.96 61.6041 291.127 67.5991C298.473 72.9914 305.798 78.4119 313.124 83.8324L313.125 83.8336C316.637 86.4317 320.148 89.0298 323.661 91.6248C330.89 96.9643 338.131 102.29 345.372 107.615L345.379 107.62L345.38 107.621C360.146 118.48 374.913 129.341 389.586 140.324C397.754 146.44 407.169 154.092 408.773 164.851C409.407 169.095 408.816 173.628 406.918 177.492C404.921 181.558 401.937 183.596 397.972 185.477C386.265 191.028 379.206 202.939 374.923 214.674C372.574 221.109 370.956 227.757 369.337 234.406C368.02 239.816 366.702 245.227 364.991 250.524C357.76 272.915 341.416 289.458 325.272 305.798C324.689 306.389 324.105 306.98 323.522 307.57C315.125 316.08 306.792 324.762 299.963 334.615C293.313 344.21 288.573 354.819 286.098 366.236C281.913 385.548 283.588 405.481 285.232 425.039C285.391 426.926 285.549 428.809 285.702 430.689C287.531 453.194 288.022 475.622 282.613 497.726C277.455 518.809 267.164 539.476 250.41 553.716C235.984 565.978 216.935 573.289 197.947 573.091C177.917 572.882 159.858 563.44 148.281 547.066C128.109 518.531 130.507 484.48 132.867 450.98C133.833 437.271 134.792 423.654 134.195 410.545C133.648 398.495 131.75 386.474 127.81 375.047ZM128.548 374.76C128.545 374.754 128.543 374.747 128.541 374.741C128.538 374.734 128.535 374.726 128.531 374.719C124.862 364.376 119.477 354.636 111.817 346.702C104.115 338.724 94.4599 333.25 84.8204 327.785C73.4322 321.328 62.0661 314.884 53.9694 304.34C40.781 287.164 39.7465 263.599 45.1953 243.363C51.602 219.572 65.7315 198.165 79.1816 177.787L79.8516 176.772C94.4065 154.72 110.22 133.497 127.183 113.237C135.713 103.047 144.536 93.1042 153.638 83.4207C162.001 74.5222 170.455 65.5581 179.767 57.6373C188.171 50.4882 197.56 44.1755 208.206 40.9462C217.919 37.9998 228.202 37.9986 238.059 40.235C257.832 44.7202 275.117 56.8037 291.189 68.6278C305.66 79.2744 320.105 89.9572 334.55 100.64C341.545 105.813 348.539 110.985 355.537 116.154C359.201 118.861 362.867 121.565 366.533 124.27L366.539 124.274C373.63 129.505 380.721 134.736 387.799 139.984C396.601 146.509 407.287 154.666 408.159 166.541C408.522 171.492 407.223 176.851 403.905 180.646C402.282 182.502 400.307 183.461 398.209 184.48L398.207 184.48C397.776 184.69 397.34 184.902 396.9 185.125C394.695 186.242 392.614 187.624 390.693 189.176C381.878 196.298 376.574 206.903 373.118 217.484C371.343 222.917 369.99 228.467 368.636 234.018C367.109 240.277 365.583 246.536 363.453 252.624C359.495 263.94 353.052 274.012 345.415 283.189C339.358 290.467 332.67 297.202 325.984 303.935L325.983 303.936C316.217 313.772 306.453 323.605 298.662 335.122C292.817 343.761 288.474 353.219 285.958 363.349C283.528 373.135 282.732 383.248 282.721 393.307C282.71 404.233 283.622 415.113 284.534 425.994L284.534 425.994C285.39 436.196 286.245 446.398 286.339 456.639C286.737 499.859 270.978 548.999 227.679 566.498C209.783 573.73 188.748 574.848 171.163 566.093C151.261 556.185 139.99 535.448 135.234 514.489C130.493 493.594 132.054 472.125 133.597 450.922C133.765 448.61 133.933 446.3 134.092 443.995C135.702 420.743 136.249 397.098 128.548 374.76ZM114.264 336.549C123.179 344.472 129.289 354.853 133.244 366.017C136.968 376.82 138.762 388.184 139.285 399.573C139.849 411.968 138.943 424.843 138.03 437.805C135.8 469.481 133.533 501.676 152.607 528.658C163.554 544.144 180.634 553.074 199.577 553.272C217.537 553.461 235.553 546.548 249.196 534.951C265.041 521.484 274.773 501.941 279.652 482.001C284.765 461.101 284.302 439.894 282.572 418.615C282.427 416.842 282.278 415.065 282.128 413.285C280.573 394.792 278.987 375.944 282.945 357.684C285.283 346.893 289.763 336.866 296.049 327.797C302.505 318.482 310.384 310.274 318.323 302.228C318.873 301.671 319.424 301.113 319.975 300.556C335.24 285.105 350.694 269.461 357.533 248.289C359.15 243.281 360.396 238.166 361.641 233.051L361.641 233.05C363.172 226.763 364.702 220.478 366.922 214.394C370.971 203.305 377.64 192.048 388.703 186.801C392.458 185.021 395.282 183.09 397.173 179.241C398.968 175.584 399.526 171.294 398.928 167.278C397.409 157.099 388.506 149.859 380.778 144.074C366.923 133.703 352.979 123.448 339.035 113.193L339.033 113.192L339.032 113.191L339.022 113.184L339.022 113.183L339.021 113.182L339.02 113.182L339.019 113.181L339.018 113.181L339.017 113.18L339.016 113.179L339.015 113.179L339.014 113.178L339.014 113.177L339.013 113.177L339.012 113.176L339.011 113.175C332.153 108.132 325.295 103.088 318.449 98.0313C315.083 95.5457 311.72 93.0572 308.357 90.5688C301.474 85.4756 294.591 80.3826 287.689 75.3152C279.966 69.6452 272.097 64.1374 263.76 59.398C247.847 50.3525 229.382 44.0722 211.059 48.8366C191.075 54.0329 175.847 70.0574 161.999 84.6296C161.363 85.2995 160.729 85.9663 160.098 86.6288C142.363 105.247 125.724 124.909 110.287 145.472C95.3178 165.413 81.1071 186.188 68.8434 207.917C58.3169 226.565 49.8297 247.344 51.6981 269.169C52.5001 278.522 55.1791 287.798 60.181 295.79C66.101 305.248 75.1374 311.841 84.5805 317.473C87.0199 318.928 89.498 320.335 91.9785 321.744L91.979 321.744L91.9794 321.744L91.9799 321.745L91.9803 321.745L91.9807 321.745L91.9812 321.745L91.9816 321.746L91.9821 321.746L91.9825 321.746L91.9829 321.746L91.9834 321.747L91.9838 321.747L91.9843 321.747L91.9847 321.747L91.9851 321.747L91.9856 321.748C99.7611 326.163 107.56 330.591 114.264 336.549ZM133.992 365.761C141.263 386.877 140.746 409.223 139.225 431.201C139.074 433.377 138.916 435.558 138.757 437.741L138.757 437.745L138.756 437.75L138.756 437.754L138.756 437.758L138.755 437.763C137.298 457.804 135.823 478.095 140.305 497.844C144.799 517.652 155.452 537.252 174.261 546.618C190.883 554.893 210.764 553.835 227.677 547C268.605 530.46 283.502 484.008 283.125 443.155C283.036 433.474 282.227 423.829 281.419 414.184L281.419 414.184C280.557 403.897 279.695 393.609 279.705 383.278C279.715 373.765 280.467 364.202 282.765 354.949C285.145 345.367 289.252 336.422 294.781 328.25C302.147 317.359 311.379 308.062 320.614 298.763C326.936 292.397 333.258 286.031 338.984 279.151C346.206 270.475 352.295 260.954 356.037 250.257C358.051 244.5 359.494 238.582 360.938 232.664C362.218 227.417 363.498 222.17 365.175 217.034C368.444 207.026 373.461 196.997 381.798 190.261C383.617 188.792 385.584 187.485 387.672 186.428C388.086 186.218 388.497 186.019 388.903 185.822C390.886 184.859 392.753 183.953 394.286 182.2C397.42 178.617 398.646 173.555 398.304 168.881C397.48 157.66 387.378 149.953 379.063 143.787C372.377 138.83 365.679 133.888 358.981 128.947L358.978 128.945L358.964 128.935L358.961 128.933L358.959 128.931C355.492 126.374 352.025 123.816 348.56 121.256C341.947 116.372 335.337 111.484 328.727 106.595C315.067 96.493 301.407 86.3904 287.721 76.3225C272.528 65.1463 256.19 53.7219 237.499 49.4818C228.184 47.369 218.464 47.3687 209.286 50.1536C199.221 53.2068 190.348 59.1734 182.402 65.9309C173.6 73.4183 165.608 81.8925 157.703 90.3039C149.097 99.4587 140.755 108.86 132.69 118.495C116.652 137.65 101.701 157.714 87.9403 178.565L87.3189 179.506C74.5995 198.775 61.2371 219.017 55.1786 241.514C50.027 260.64 51.0044 282.913 63.4712 299.148C71.1254 309.116 81.8706 315.208 92.6368 321.312C101.75 326.479 110.878 331.654 118.159 339.196C125.414 346.709 130.511 355.934 133.983 365.731L133.987 365.745L133.99 365.754L133.992 365.761ZM138.678 356.988C134.951 346.472 129.197 336.69 120.8 329.229C114.485 323.616 107.139 319.445 99.8134 315.286L99.8132 315.286L99.8129 315.286L99.8126 315.285L99.8123 315.285L99.8121 315.285L99.8118 315.285L99.8115 315.285L99.8113 315.285C97.4699 313.955 95.1307 312.627 92.8281 311.254C83.9278 305.945 75.4111 299.731 69.8314 290.816C65.1163 283.282 62.5884 274.538 61.8343 265.72C60.0739 245.15 68.0711 225.566 77.9909 207.989C89.5481 187.511 102.939 167.934 117.047 149.141C131.593 129.763 147.274 111.238 163.984 93.6936C164.578 93.0697 165.175 92.4417 165.774 91.8108C178.826 78.0764 193.179 62.973 212.014 58.0751C229.287 53.5833 246.691 59.5001 261.693 68.0277C269.55 72.4932 276.966 77.6859 284.245 83.0297C290.859 87.8856 297.455 92.7662 304.051 97.6468L304.054 97.6492C307.112 99.912 310.17 102.175 313.23 104.435C319.685 109.203 326.151 113.958 332.616 118.713L332.62 118.716L332.62 118.716L332.621 118.717L332.621 118.717L332.622 118.717L332.622 118.718L332.623 118.718L332.624 118.719L332.624 118.719L332.625 118.719L332.625 118.72L332.626 118.72L332.626 118.721L332.627 118.721L332.627 118.721L332.628 118.722C345.767 128.385 358.907 138.049 371.964 147.823C379.251 153.278 387.643 160.104 389.074 169.702C389.64 173.49 389.112 177.538 387.418 180.986C385.634 184.619 382.968 186.443 379.424 188.123C369.005 193.064 362.726 203.668 358.913 214.111C356.82 219.844 355.378 225.767 353.936 231.692C352.763 236.512 351.589 241.332 350.065 246.051C343.618 266.01 329.046 280.758 314.655 295.323C314.141 295.843 313.627 296.363 313.114 296.884C305.633 304.465 298.208 312.199 292.124 320.977C286.203 329.52 281.984 338.964 279.78 349.128C276.052 366.329 277.545 384.082 279.01 401.502C279.151 403.184 279.292 404.863 279.428 406.538C281.059 426.592 281.496 446.578 276.676 466.273C272.077 485.068 262.904 503.49 247.968 516.186C235.108 527.117 218.124 533.634 201.196 533.454C183.339 533.266 167.239 524.849 156.919 510.25C138.941 484.819 141.078 454.478 143.18 424.625C144.039 412.412 144.894 400.28 144.362 388.6C143.878 377.871 142.186 367.165 138.678 356.988ZM144.358 418.406C145.791 397.697 146.278 376.64 139.429 356.743C139.426 356.73 139.422 356.716 139.417 356.702C136.145 347.468 131.341 338.769 124.501 331.689C117.641 324.588 109.042 319.712 100.458 314.845C90.3118 309.092 80.1849 303.35 72.9717 293.956C61.2287 278.662 60.3095 257.681 65.1627 239.663C70.8711 218.47 83.459 199.401 95.4404 181.25L96.0307 180.356C108.998 160.707 123.085 141.8 138.199 123.75C145.798 114.673 153.661 105.813 161.768 97.186C169.216 89.2617 176.746 81.2774 185.039 74.2234C192.524 67.8554 200.885 62.2335 210.366 59.3576C219.011 56.7351 228.166 56.7373 236.94 58.7276C254.55 62.7225 269.942 73.4852 284.254 84.0149C297.086 93.4546 309.894 102.926 322.701 112.398L322.706 112.402L322.707 112.403L322.712 112.406L322.713 112.407L322.731 112.42L322.749 112.433L322.766 112.446C329.037 117.084 335.309 121.722 341.583 126.357C344.628 128.605 347.674 130.852 350.72 133.099L350.722 133.1L350.723 133.101L350.725 133.102L350.726 133.103L350.728 133.105L350.729 133.106L350.73 133.107L350.732 133.108L350.733 133.109L350.735 133.11L350.736 133.111L350.737 133.112L350.739 133.113L350.74 133.114L350.742 133.115C357.274 137.934 363.806 142.752 370.327 147.587C378.157 153.393 387.673 160.651 388.449 171.217C388.771 175.614 387.617 180.38 384.668 183.75C383.226 185.399 381.471 186.25 379.607 187.155L379.605 187.156C379.223 187.342 378.835 187.53 378.445 187.727C376.476 188.723 374.619 189.955 372.905 191.341C365.044 197.691 360.312 207.145 357.232 216.58C355.651 221.42 354.444 226.366 353.238 231.311C351.878 236.887 350.519 242.463 348.622 247.886C345.097 257.965 339.358 266.933 332.556 275.108C327.16 281.591 321.202 287.591 315.244 293.59L315.244 293.591L315.244 293.591L315.244 293.591L315.243 293.591L315.243 293.591L315.243 293.592L315.243 293.592L315.243 293.592L315.243 293.592L315.243 293.592L315.242 293.592L315.242 293.593L315.242 293.593L315.242 293.593L315.242 293.593L315.242 293.593C306.541 302.355 297.843 311.114 290.902 321.374C285.692 329.078 281.82 337.511 279.576 346.544C277.41 355.265 276.701 364.279 276.692 373.245C276.681 382.98 277.494 392.674 278.306 402.368L278.306 402.369L278.306 402.369L278.306 402.37L278.306 402.37L278.306 402.371L278.306 402.372L278.306 402.372L278.306 402.373L278.306 402.374L278.306 402.374L278.306 402.375L278.306 402.375L278.306 402.376L278.306 402.377L278.306 402.377C279.068 411.463 279.829 420.548 279.913 429.668C280.269 468.155 266.236 511.917 227.679 527.5C211.745 533.939 193.018 534.935 177.361 527.139C159.646 518.32 149.61 499.856 145.377 481.199C141.151 462.584 142.542 443.46 143.916 424.571L143.917 424.565C144.066 422.509 144.216 420.455 144.358 418.406ZM127.336 321.91C135.216 328.913 140.615 338.091 144.112 347.96C147.405 357.511 148.991 367.561 149.447 377.637C149.946 388.603 149.145 399.993 148.338 411.459L148.338 411.46C146.365 439.487 144.36 467.972 161.24 491.85C170.931 505.559 186.052 513.466 202.821 513.643C218.718 513.811 234.67 507.693 246.747 497.427C260.775 485.504 269.389 468.206 273.708 450.555C278.232 432.063 277.821 413.298 276.29 394.47C276.163 392.9 276.03 391.327 275.898 389.751C274.522 373.396 273.12 356.73 276.62 340.58C278.686 331.042 282.648 322.179 288.203 314.163C293.915 305.923 300.884 298.66 307.907 291.544L308.385 291.06L309.357 290.076C322.868 276.401 336.548 262.555 342.6 243.817C344.031 239.386 345.133 234.86 346.235 230.335L346.235 230.334C347.589 224.773 348.943 219.214 350.907 213.833C354.483 204.036 360.375 194.083 370.148 189.448C373.482 187.867 375.99 186.152 377.667 182.735C379.259 179.494 379.754 175.688 379.223 172.129C377.878 163.111 369.999 156.698 363.151 151.572C350.886 142.39 338.542 133.311 326.199 124.234C320.134 119.773 314.069 115.312 308.013 110.84C305.091 108.681 302.171 106.52 299.25 104.359C293.107 99.8135 286.964 95.2675 280.803 90.7448C273.967 85.7263 267.003 80.8522 259.625 76.6581C245.536 68.6495 229.189 63.0956 212.97 67.3145C195.283 71.9149 181.806 86.0968 169.55 98.9945L169.541 99.0038C168.981 99.5923 168.425 100.178 167.87 100.76C152.183 117.231 137.463 134.622 123.807 152.813C110.562 170.456 97.9902 188.839 87.1392 208.064C77.8248 224.568 70.3164 242.956 71.97 262.272C72.6797 270.556 75.053 278.767 79.4826 285.844C84.7216 294.214 92.7186 300.05 101.076 305.034C103.237 306.323 105.433 307.57 107.63 308.818C114.508 312.722 121.406 316.639 127.336 321.91ZM144.833 347.632L144.837 347.641C144.841 347.651 144.845 347.662 144.849 347.673C151.294 366.367 150.838 386.152 149.49 405.612C149.357 407.542 149.216 409.477 149.075 411.414L149.075 411.414C147.786 429.14 146.481 447.086 150.446 464.555C154.419 482.06 163.835 499.387 180.457 507.663C195.15 514.979 212.723 514.044 227.676 508.001C263.861 493.377 277.03 452.303 276.697 416.185C276.618 407.621 275.903 399.089 275.188 390.557C274.425 381.456 273.662 372.355 273.672 363.216C273.681 354.797 274.344 346.333 276.379 338.144C278.487 329.66 282.122 321.739 287.017 314.504C293.533 304.87 301.701 296.646 309.871 288.419C315.463 282.788 321.056 277.156 326.121 271.07C332.506 263.398 337.89 254.98 341.199 245.52C342.98 240.428 344.257 235.193 345.534 229.958C346.666 225.316 347.798 220.674 349.283 216.13C352.177 207.268 356.621 198.391 364.004 192.426C365.616 191.123 367.362 189.973 369.21 189.03C369.592 188.835 369.972 188.65 370.347 188.468C372.075 187.627 373.702 186.836 375.041 185.304C377.805 182.144 378.889 177.678 378.586 173.555C377.858 163.642 368.928 156.833 361.582 151.386C355.598 146.949 349.603 142.526 343.608 138.104L343.599 138.097L343.59 138.091L343.581 138.084C340.586 135.875 337.592 133.665 334.598 131.454C328.702 127.099 322.809 122.741 316.916 118.383L316.888 118.363L316.876 118.354C304.851 109.46 292.826 100.567 280.778 91.7047C267.345 81.8228 252.9 71.7193 236.374 67.9705C228.141 66.1028 219.551 66.1011 211.438 68.561C202.539 71.2609 194.693 76.5378 187.667 82.513C179.883 89.1338 172.816 96.6281 165.825 104.065C158.214 112.165 150.834 120.481 143.699 129.003C129.511 145.948 116.285 163.697 104.112 182.142L103.553 182.989C92.3098 200.022 80.4963 217.919 75.1388 237.807C70.585 254.716 71.444 274.406 82.4664 288.759C89.2372 297.576 98.7434 302.967 108.268 308.368C116.326 312.936 124.396 317.513 130.835 324.178C137.251 330.818 141.76 338.974 144.833 347.632ZM149.545 338.93C146.278 329.71 141.234 321.133 133.871 314.59C128.329 309.664 121.882 306.003 115.454 302.354L115.454 302.354C113.399 301.187 111.346 300.022 109.325 298.816C101.512 294.155 94.0337 288.699 89.1352 280.872C84.9923 274.253 82.7711 266.573 82.1083 258.825C80.5627 240.765 87.581 223.571 96.2911 208.138C106.436 190.165 118.189 172.98 130.572 156.484C143.336 139.48 157.097 123.222 171.761 107.826C172.282 107.279 172.805 106.729 173.33 106.176C184.79 94.1165 197.392 80.8556 213.932 76.5525C229.101 72.6061 244.388 77.7975 257.564 85.2871C264.463 89.2084 270.976 93.7663 277.366 98.4588C283.081 102.655 288.781 106.873 294.482 111.091C297.254 113.143 300.027 115.195 302.802 117.244C308.474 121.433 314.155 125.611 319.836 129.79L319.84 129.792L319.843 129.795L319.847 129.797L319.85 129.8L319.854 129.803L319.857 129.805L319.861 129.808L319.861 129.808L319.861 129.808L319.862 129.809L319.862 129.809L319.862 129.809L319.863 129.809L319.863 129.81L319.864 129.81L319.864 129.81L319.864 129.81L319.865 129.811L319.865 129.811L319.865 129.811C331.383 138.282 342.9 146.752 354.344 155.318C360.752 160.113 368.12 166.114 369.378 174.553C369.875 177.885 369.41 181.446 367.921 184.479C366.348 187.681 364.001 189.289 360.878 190.769C351.749 195.099 346.247 204.398 342.905 213.549C341.069 218.58 339.803 223.778 338.538 228.977C337.508 233.206 336.478 237.436 335.141 241.577C329.482 259.098 316.691 272.043 304.058 284.829C303.607 285.286 303.157 285.742 302.707 286.198C296.141 292.85 289.626 299.64 284.288 307.342C279.097 314.83 275.396 323.112 273.465 332.023C270.195 347.114 271.504 362.69 272.789 377.975L272.789 377.975C272.913 379.45 273.037 380.923 273.157 382.393C274.588 399.994 274.972 417.538 270.742 434.827C266.703 451.335 258.648 467.51 245.529 478.66C234.235 488.26 219.315 493.981 204.449 493.822C188.766 493.656 174.625 486.263 165.561 473.441C149.777 451.114 151.651 424.484 153.495 398.28L153.495 398.28C154.249 387.561 154.998 376.914 154.532 366.662C154.105 357.249 152.622 347.858 149.545 338.93ZM154.622 392.818C155.881 374.629 156.308 356.137 150.289 338.664L150.286 338.652L150.282 338.641C147.408 330.529 143.186 322.888 137.176 316.669C131.157 310.44 123.614 306.162 116.082 301.892C107.18 296.843 98.2944 291.805 91.9661 283.565C81.6687 270.154 80.8668 251.755 85.1222 235.954C90.1291 217.37 101.168 200.646 111.675 184.729L112.201 183.932C123.581 166.689 135.945 150.097 149.206 134.257C155.876 126.291 162.775 118.516 169.89 110.945C176.423 103.993 183.027 96.9899 190.302 90.8025C196.868 85.2177 204.199 80.2871 212.517 77.7642C220.096 75.4645 228.121 75.468 235.813 77.2132C251.257 80.7169 264.757 90.1587 277.31 99.394C288.505 107.63 299.679 115.894 310.854 124.158C316.441 128.29 322.029 132.423 327.619 136.552C330.422 138.622 333.226 140.69 336.03 142.759C341.638 146.896 347.246 151.033 352.844 155.183C359.706 160.271 368.049 166.629 368.73 175.888C369.012 179.735 368.001 183.903 365.421 186.851C364.171 188.281 362.653 189.019 361.04 189.803C360.691 189.973 360.337 190.145 359.981 190.327C358.25 191.209 356.617 192.285 355.108 193.505C348.202 199.082 344.044 207.385 341.337 215.673C339.951 219.918 338.894 224.255 337.836 228.592L337.836 228.592C336.642 233.488 335.448 238.384 333.782 243.146C330.689 251.988 325.657 259.854 319.69 267.025C314.954 272.715 309.725 277.981 304.496 283.246L304.496 283.246L304.496 283.247L304.496 283.247L304.496 283.247L304.496 283.247L304.495 283.247L304.495 283.248L304.495 283.248L304.495 283.248L304.495 283.248L304.495 283.248L304.494 283.248L304.494 283.249C296.859 290.937 289.226 298.623 283.136 307.627C278.558 314.396 275.158 321.802 273.186 329.739C271.284 337.397 270.663 345.311 270.656 353.183C270.646 361.729 271.359 370.239 272.073 378.749L272.073 378.75C272.741 386.722 273.409 394.695 273.483 402.698C273.794 436.451 261.488 474.835 227.675 488.501C213.703 494.147 197.283 495.022 183.554 488.186C168.024 480.455 159.227 464.264 155.515 447.91C151.809 431.576 153.03 414.793 154.236 398.218L154.236 398.208L154.237 398.199C154.368 396.403 154.498 394.609 154.622 392.818ZM140.407 307.27C147.251 313.354 151.941 321.328 154.978 329.901C157.84 338.204 159.219 346.938 159.62 355.692C160.054 365.23 159.357 375.136 158.656 385.108L158.656 385.108C156.941 409.487 155.199 434.26 169.884 455.034C178.319 466.966 191.481 473.848 206.077 474.004C219.914 474.151 233.799 468.828 244.312 459.893C256.52 449.515 264.017 434.464 267.776 419.1C271.711 403.016 271.353 386.693 270.022 370.317C269.911 368.947 269.796 367.575 269.68 366.2C268.486 351.987 267.268 337.503 270.309 323.469C272.105 315.184 275.545 307.485 280.371 300.522C285.337 293.358 291.398 287.043 297.505 280.853C297.922 280.43 298.34 280.007 298.758 279.584C310.513 267.687 322.414 255.641 327.68 239.339C328.925 235.487 329.883 231.551 330.841 227.615L330.841 227.615C332.019 222.78 333.195 217.946 334.903 213.267C338.009 204.76 343.121 196.116 351.607 192.09C354.519 190.71 356.708 189.21 358.173 186.225C359.562 183.398 359.994 180.079 359.531 176.976C358.359 169.119 351.504 163.532 345.536 159.066C334.884 151.092 324.163 143.207 313.443 135.323C308.155 131.434 302.868 127.546 297.59 123.647C295.02 121.749 292.452 119.849 289.884 117.949L289.879 117.946L289.874 117.942L289.851 117.925C284.548 114.001 279.245 110.077 273.928 106.174C267.979 101.808 261.92 97.5672 255.5 93.9174C243.236 86.9458 229.009 82.118 214.89 85.7918C199.5 89.7952 187.773 102.136 177.109 113.358L177.106 113.36L177.096 113.371L177.081 113.387L177.047 113.422C176.58 113.914 176.114 114.404 175.65 114.891C162.008 129.213 149.209 144.337 137.334 160.155C125.813 175.503 114.879 191.49 105.441 208.213C97.3359 222.573 90.8077 238.572 92.2452 255.377C92.8611 262.589 94.9302 269.738 98.7864 275.899C103.343 283.182 110.302 288.26 117.572 292.597C119.453 293.719 121.365 294.804 123.278 295.891C129.256 299.285 135.252 302.689 140.407 307.27ZM155.701 329.577C155.706 329.588 155.711 329.601 155.715 329.614C161.322 345.879 160.926 363.092 159.755 380.023C159.639 381.694 159.517 383.369 159.395 385.045L159.395 385.048L159.395 385.052L159.395 385.055L159.395 385.058C158.274 400.471 157.139 416.076 160.585 431.265C164.036 446.469 172.215 461.523 186.651 468.71C199.416 475.066 214.682 474.253 227.673 469.003C259.115 456.296 270.557 420.599 270.268 389.215C270.199 381.767 269.578 374.348 268.956 366.929L268.956 366.929L268.956 366.928L268.956 366.928L268.956 366.928L268.956 366.927L268.956 366.927L268.956 366.927L268.956 366.927L268.956 366.926L268.955 366.926L268.955 366.926L268.955 366.925L268.955 366.925C268.292 359.013 267.629 351.101 267.637 343.154C267.644 335.83 268.221 328.464 269.991 321.339C271.826 313.951 274.991 307.057 279.253 300.757C284.919 292.38 292.021 285.229 299.125 278.075C303.988 273.178 308.851 268.28 313.256 262.987C318.806 256.319 323.486 249.004 326.362 240.781C327.909 236.355 329.019 231.805 330.129 227.255L330.129 227.254L330.129 227.253C331.115 223.215 332.1 219.177 333.391 215.225C335.91 207.509 339.783 199.784 346.209 194.591C347.616 193.456 349.138 192.452 350.748 191.63C351.081 191.46 351.411 191.3 351.737 191.141C353.232 190.415 354.639 189.73 355.797 188.406C358.193 185.669 359.13 181.8 358.868 178.228C358.236 169.622 350.477 163.713 344.101 158.985C338.895 155.124 333.678 151.276 328.462 147.429C325.853 145.505 323.245 143.58 320.637 141.655C315.433 137.811 310.232 133.964 305.03 130.118C294.639 122.433 284.248 114.748 273.837 107.089C262.164 98.5029 249.608 89.7195 235.247 86.4619C228.097 84.8403 220.635 84.8353 213.589 86.9725C205.854 89.3182 199.036 93.905 192.93 99.0992C186.165 104.853 180.023 111.367 173.947 117.832C167.328 124.875 160.911 132.107 154.707 139.517C142.369 154.252 130.868 169.686 120.285 185.725L119.79 186.475L119.79 186.475C110.021 201.275 99.7562 216.826 95.1004 234.105C91.1421 248.797 91.8871 265.904 101.463 278.374C107.348 286.039 115.613 290.725 123.894 295.42C130.899 299.392 137.916 303.371 143.515 309.164C149.1 314.943 153.025 322.04 155.701 329.577ZM160.413 320.872C157.605 312.948 153.271 305.576 146.943 299.951C142.175 295.713 136.629 292.563 131.098 289.423C129.329 288.419 127.561 287.415 125.821 286.377C119.094 282.363 112.655 277.664 108.437 270.926C104.868 265.223 102.952 258.605 102.379 251.929C101.048 236.38 107.088 221.574 114.588 208.287C123.319 192.817 133.436 178.025 144.092 163.827C155.076 149.194 166.916 135.205 179.535 121.958C179.981 121.49 180.428 121.019 180.877 120.546C190.748 110.16 201.601 98.7384 215.845 95.0319C228.913 91.6306 242.081 96.0958 253.432 102.548C259.373 105.926 264.981 109.85 270.483 113.89C275.356 117.467 280.217 121.064 285.077 124.66C287.508 126.458 289.939 128.257 292.371 130.053C297.245 133.653 302.127 137.244 307.009 140.834L307.018 140.841L307.027 140.848C316.946 148.143 326.865 155.439 336.722 162.817C342.249 166.953 348.594 172.127 349.679 179.404C350.108 182.28 349.708 185.356 348.421 187.974C347.061 190.742 345.03 192.133 342.33 193.415C334.487 197.135 329.765 205.127 326.896 212.988C325.316 217.317 324.227 221.79 323.138 226.263C322.252 229.902 321.366 233.542 320.215 237.106C315.345 252.187 304.334 263.331 293.461 274.337L293.4 274.398L293.316 274.483L292.85 274.955L292.299 275.513C286.65 281.238 281.043 287.079 276.449 293.707C271.988 300.143 268.807 307.26 267.148 314.918C264.335 327.898 265.461 341.294 266.566 354.44L266.567 354.457L266.567 354.46C266.674 355.725 266.78 356.987 266.882 358.246C268.114 373.397 268.445 388.499 264.804 403.379C261.325 417.598 254.387 431.527 243.086 441.133C233.356 449.403 220.504 454.328 207.697 454.191C194.188 454.045 182.006 447.675 174.198 436.631C160.61 417.411 162.221 394.493 163.807 371.939C164.455 362.714 165.099 353.55 164.697 344.725C164.332 336.626 163.059 328.549 160.413 320.872ZM164.888 367.228C165.97 351.581 166.337 335.672 161.168 320.637C161.166 320.626 161.163 320.615 161.16 320.604C161.158 320.598 161.156 320.592 161.154 320.586C158.676 313.597 155.038 307.013 149.859 301.656C144.681 296.298 138.192 292.619 131.713 288.946C124.054 284.603 116.41 280.269 110.967 273.181C102.113 261.653 101.428 245.836 105.087 232.255C109.392 216.28 118.882 201.902 127.914 188.219L128.377 187.517C138.168 172.681 148.807 158.404 160.219 144.774C165.958 137.918 171.894 131.229 178.017 124.715C183.634 118.737 189.314 112.714 195.57 107.393C201.217 102.589 207.521 98.3493 214.673 96.1797C221.187 94.2038 228.083 94.2096 234.692 95.7087C247.971 98.7211 259.581 106.844 270.373 114.784C279.922 121.809 289.454 128.858 298.986 135.907L299.004 135.921C303.89 139.534 308.775 143.147 313.663 146.757C315.995 148.48 318.328 150.201 320.662 151.922L320.663 151.923C325.567 155.541 330.472 159.159 335.367 162.789C341.258 167.156 348.431 172.616 349.015 180.568C349.256 183.864 348.39 187.437 346.179 189.961C345.111 191.182 343.812 191.813 342.433 192.483L342.433 192.483L342.433 192.483L342.433 192.483C342.132 192.629 341.827 192.777 341.52 192.934C340.028 193.694 338.618 194.622 337.316 195.675C331.366 200.48 327.781 207.63 325.448 214.773C324.255 218.426 323.345 222.158 322.435 225.89L322.435 225.89L322.434 225.891L322.434 225.891L322.434 225.891L322.434 225.892L322.434 225.892L322.434 225.893L322.434 225.893L322.434 225.893L322.434 225.894L322.434 225.894L322.433 225.894L322.433 225.894L322.433 225.894L322.433 225.895L322.433 225.895L322.433 225.895L322.433 225.895L322.433 225.895L322.433 225.895L322.433 225.895L322.433 225.895C321.406 230.106 320.379 234.317 318.947 238.413C316.286 246.016 311.959 252.78 306.828 258.946C302.753 263.843 298.253 268.374 293.754 272.905C287.184 279.521 280.615 286.136 275.375 293.884C271.43 299.716 268.5 306.098 266.802 312.936C265.164 319.532 264.632 326.345 264.624 333.124C264.616 340.477 265.23 347.799 265.843 355.121C266.418 361.982 266.993 368.843 267.057 375.73C267.325 404.747 256.747 437.754 227.675 449.503C215.665 454.358 201.555 455.109 189.752 449.233C176.407 442.589 168.846 428.673 165.658 414.62C162.467 400.566 163.518 386.128 164.556 371.867L164.556 371.867L164.556 371.862L164.557 371.857L164.557 371.852C164.669 370.308 164.782 368.767 164.888 367.228ZM153.478 292.632C159.289 297.796 163.268 304.566 165.846 311.843C168.277 318.896 169.447 326.313 169.788 333.751C170.157 341.861 169.565 350.281 168.969 358.757C167.513 379.488 166.032 400.552 178.523 418.221C185.703 428.377 196.905 434.234 209.327 434.371C221.103 434.499 232.923 429.969 241.871 422.365C252.262 413.532 258.642 400.727 261.84 387.651C265.187 373.974 264.883 360.094 263.75 346.17C263.656 345.007 263.558 343.841 263.459 342.674C262.444 330.596 261.409 318.289 263.994 306.363C265.517 299.333 268.438 292.795 272.534 286.887C276.754 280.797 281.906 275.428 287.098 270.168L287.437 269.824L288.161 269.091C298.156 258.974 308.277 248.73 312.755 234.867C313.812 231.594 314.627 228.249 315.441 224.905C316.441 220.794 317.442 216.684 318.895 212.705C321.528 205.49 325.86 198.152 333.059 194.736C335.548 193.556 337.42 192.271 338.673 189.719C339.857 187.308 340.227 184.474 339.832 181.827C338.832 175.132 332.999 170.37 327.913 166.563C318.876 159.799 309.781 153.11 300.686 146.421L300.686 146.421L300.681 146.418L300.677 146.415L300.673 146.412L300.669 146.408L300.665 146.405L300.661 146.402L300.657 146.399L300.652 146.396C296.151 143.086 291.651 139.776 287.157 136.457C285.045 134.896 282.933 133.334 280.822 131.772L280.815 131.767L280.807 131.761L280.8 131.756L280.792 131.75L280.785 131.745L280.777 131.739L280.775 131.737L280.772 131.735C276.2 128.353 271.628 124.97 267.044 121.604C261.984 117.89 256.827 114.282 251.366 111.178C240.927 105.243 228.819 101.143 216.803 104.27C203.708 107.679 193.73 118.179 184.656 127.728L184.643 127.742C184.235 128.171 183.829 128.599 183.424 129.023C171.828 141.196 160.948 154.053 150.855 167.498C141.059 180.548 131.762 194.143 123.737 208.362C116.844 220.578 111.293 234.189 112.517 248.483C113.042 254.623 114.805 260.709 118.089 265.955C121.966 272.15 127.884 276.47 134.068 280.159C135.662 281.11 137.281 282.029 138.901 282.949L138.903 282.95L138.905 282.952L138.907 282.953L138.909 282.954L138.911 282.955L138.913 282.956L138.915 282.957L138.917 282.958L138.919 282.96L138.921 282.961C144.002 285.845 149.097 288.738 153.478 292.632ZM166.558 311.496C166.567 311.514 166.576 311.534 166.583 311.555C171.353 325.39 171.018 340.032 170.02 354.434C169.922 355.849 169.819 357.268 169.716 358.688L169.715 358.701C168.762 371.802 167.797 385.065 170.727 397.975C173.654 410.876 180.597 423.656 192.848 429.756C203.686 435.153 216.643 434.462 227.673 430.006C254.373 419.216 264.088 388.896 263.842 362.247C263.784 355.919 263.255 349.614 262.727 343.31L262.726 343.307L262.726 343.306C262.162 336.579 261.598 329.851 261.605 323.095C261.612 316.862 262.101 310.599 263.607 304.537C265.169 298.247 267.862 292.378 271.491 287.012C276.308 279.891 282.345 273.812 288.383 267.731C292.516 263.569 296.65 259.406 300.394 254.907C305.109 249.242 309.082 243.031 311.525 236.047C312.842 232.284 313.785 228.416 314.728 224.548L314.728 224.548C315.566 221.115 316.403 217.683 317.501 214.323C319.646 207.755 322.945 201.18 328.416 196.76C329.615 195.791 330.914 194.937 332.288 194.237C332.569 194.094 332.848 193.958 333.124 193.824L333.125 193.824L333.126 193.823C334.387 193.211 335.577 192.633 336.554 191.515C338.58 189.201 339.374 185.926 339.153 182.906C338.617 175.609 332.03 170.598 326.624 166.59C322.114 163.246 317.596 159.913 313.079 156.581L313.076 156.579C310.943 155.006 308.81 153.432 306.679 151.858C302.427 148.718 298.177 145.574 293.927 142.431L293.878 142.395L293.858 142.38L293.852 142.375C284.873 135.735 275.894 129.095 266.898 122.477C256.985 115.185 246.321 107.723 234.124 104.955C228.056 103.579 221.724 103.572 215.744 105.387C209.174 107.38 203.384 111.275 198.197 115.686C192.451 120.574 187.233 126.107 182.073 131.598C176.447 137.584 170.991 143.731 165.718 150.031C155.23 162.556 145.455 175.676 136.457 189.31L136.027 189.962C127.732 202.529 119.016 215.734 115.062 230.405C111.701 242.878 112.328 257.403 120.459 267.991C125.461 274.504 132.485 278.486 139.523 282.477C145.475 285.851 151.436 289.231 156.193 294.151C160.94 299.063 164.282 305.092 166.558 311.496ZM171.279 302.813C168.93 296.184 165.306 290.016 160.012 285.311C156.017 281.76 151.37 279.121 146.736 276.49L146.733 276.489C145.252 275.648 143.772 274.807 142.315 273.938C136.674 270.571 131.276 266.63 127.738 260.981C124.741 256.193 123.131 250.638 122.651 245.033C121.534 231.994 126.595 219.577 132.884 208.434C140.203 195.466 148.68 183.069 157.613 171.169C166.816 158.909 176.738 147.188 187.31 136.088C187.677 135.702 188.046 135.313 188.417 134.923L188.43 134.91C196.708 126.198 205.811 116.619 217.759 113.507C228.724 110.652 239.773 114.39 249.299 119.806C254.282 122.638 258.985 125.928 263.601 129.317C267.731 132.349 271.851 135.398 275.971 138.446L275.972 138.447L275.982 138.454L275.992 138.461L276.002 138.469L276.012 138.476L276.021 138.483C277.994 139.943 279.966 141.402 281.939 142.859C286.042 145.89 290.152 148.913 294.263 151.936C302.558 158.037 310.855 164.139 319.098 170.309C323.744 173.787 329.065 178.136 329.977 184.249C330.337 186.668 330 189.259 328.918 191.462C327.771 193.797 326.058 194.974 323.779 196.055C317.225 199.165 313.282 205.851 310.883 212.42C309.559 216.047 308.647 219.795 307.734 223.543C306.992 226.593 306.25 229.642 305.286 232.627C301.202 245.271 291.97 254.615 282.853 263.844C282.53 264.17 282.208 264.496 281.887 264.822C277.153 269.618 272.456 274.513 268.607 280.066C264.877 285.448 262.216 291.403 260.828 297.807C258.472 308.676 259.415 319.891 260.34 330.899C260.429 331.966 260.519 333.031 260.605 334.093C261.637 346.792 261.915 359.453 258.863 371.924C255.944 383.857 250.125 395.54 240.642 403.6C232.477 410.539 221.69 414.67 210.945 414.552C199.61 414.427 189.386 409.082 182.835 399.813C171.442 383.698 172.791 364.491 174.118 345.586C174.66 337.855 175.2 330.176 174.863 322.778C174.56 316.001 173.495 309.241 171.279 302.813ZM175.152 341.639C176.06 328.522 176.366 315.191 172.037 302.587C172.033 302.566 172.028 302.546 172.021 302.525C169.942 296.659 166.886 291.135 162.538 286.638C158.202 282.154 152.768 279.073 147.343 275.997C140.926 272.359 134.523 268.729 129.964 262.792C122.555 253.146 121.986 239.913 125.049 228.549C128.655 215.174 136.603 203.133 144.166 191.677L144.55 191.096C152.753 178.665 161.666 166.703 171.228 155.284C176.035 149.54 181.009 143.936 186.139 138.477C190.842 133.473 195.597 128.432 200.834 123.977C205.56 119.956 210.837 116.407 216.824 114.591C222.271 112.939 228.037 112.947 233.564 114.201C244.678 116.722 254.396 123.524 263.428 130.17C271.574 136.163 279.705 142.176 287.835 148.189L287.836 148.189L287.837 148.19L287.838 148.191L287.839 148.191L287.84 148.192L287.841 148.193L287.842 148.193L287.843 148.194L287.857 148.205L287.904 148.24L287.951 148.274L287.998 148.309C291.897 151.193 295.797 154.077 299.699 156.959C301.639 158.392 303.58 159.823 305.521 161.255L305.528 161.26C309.65 164.3 313.771 167.34 317.884 170.39C322.806 174.04 328.809 178.601 329.296 185.244C329.499 187.988 328.776 190.964 326.935 193.067C326.046 194.081 324.966 194.605 323.82 195.161C323.569 195.283 323.314 195.406 323.058 195.537C321.803 196.176 320.615 196.957 319.52 197.842C314.527 201.876 311.515 207.875 309.557 213.871C308.557 216.933 307.794 220.062 307.031 223.19L307.031 223.19L307.031 223.19L307.031 223.191L307.031 223.191L307.031 223.191L307.03 223.191L307.03 223.191L307.03 223.192L307.03 223.192C306.17 226.72 305.31 230.247 304.109 233.678C301.883 240.045 298.261 245.705 293.965 250.869C290.552 254.97 286.783 258.765 283.014 262.56C277.508 268.104 272.004 273.647 267.612 280.14C264.299 285.036 261.841 290.393 260.415 296.134C259.041 301.664 258.596 307.379 258.589 313.064C258.583 319.225 259.097 325.36 259.611 331.495C260.093 337.244 260.575 342.992 260.628 348.762C260.851 373.044 251.999 400.674 227.672 410.506C217.624 414.566 205.82 415.195 195.946 410.279C184.788 404.725 178.464 393.08 175.797 381.331C173.127 369.565 174.006 357.48 174.873 345.542C174.968 344.239 175.063 342.937 175.152 341.639ZM166.549 277.993C171.324 282.238 174.594 287.804 176.713 293.785C178.713 299.587 179.673 305.691 179.951 311.812C180.256 318.495 179.769 325.432 179.279 332.414C178.081 349.495 176.864 366.846 187.159 381.41C193.081 389.789 202.326 394.624 212.573 394.738C222.29 394.847 232.044 391.113 239.426 384.839C248 377.554 253.26 366.991 255.9 356.204C258.657 344.936 258.406 333.497 257.473 322.024C257.395 321.065 257.314 320.104 257.234 319.141C256.398 309.202 255.547 299.075 257.674 289.26C258.925 283.483 261.327 278.11 264.693 273.254C268.169 268.238 272.413 263.817 276.688 259.485C276.979 259.19 277.27 258.895 277.562 258.599C285.799 250.262 294.139 241.82 297.828 230.396C298.699 227.7 299.369 224.946 300.04 222.192C300.864 218.806 301.688 215.421 302.884 212.145C305.046 206.222 308.601 200.189 314.511 197.384C316.579 196.403 318.133 195.334 319.174 193.213C320.154 191.218 320.46 188.87 320.133 186.679C319.308 181.145 314.497 177.21 310.292 174.062C302.867 168.505 295.395 163.01 287.923 157.515L287.92 157.512L287.916 157.51L287.913 157.507L287.909 157.504L287.906 157.502L287.902 157.499L287.899 157.497L287.895 157.494C284.171 154.755 280.446 152.015 276.727 149.269C274.885 147.908 273.043 146.545 271.201 145.182C267.525 142.462 263.849 139.742 260.163 137.036C255.993 133.972 251.74 130.999 247.237 128.439C238.621 123.54 228.636 120.17 218.72 122.749C207.924 125.558 199.697 134.216 192.216 142.088C191.876 142.446 191.538 142.802 191.2 143.156C181.65 153.183 172.69 163.769 164.378 174.842C156.306 185.594 148.647 196.796 142.035 208.511C136.35 218.581 131.78 229.803 132.789 241.587C133.223 246.656 134.68 251.68 137.391 256.01C140.587 261.116 145.465 264.678 150.563 267.721C151.878 268.505 153.213 269.263 154.55 270.022L154.551 270.023L154.553 270.024L154.554 270.025L154.556 270.025L154.557 270.026L154.558 270.027L154.56 270.028L154.561 270.029C158.745 272.404 162.941 274.787 166.549 277.993ZM177.45 293.498C181.382 304.904 181.105 316.972 180.284 328.846C180.203 330.013 180.118 331.182 180.033 332.353C179.248 343.139 178.454 354.057 180.866 364.686C183.271 375.284 188.977 385.793 199.041 390.803C207.952 395.239 218.601 394.672 227.668 391.007C249.625 382.133 257.613 357.193 257.411 335.277C257.363 330.062 256.928 324.868 256.492 319.674L256.492 319.673L256.492 319.673L256.492 319.673L256.492 319.672L256.492 319.672L256.492 319.671L256.492 319.671L256.492 319.671C256.028 314.133 255.564 308.595 255.57 303.034C255.576 297.896 255.976 292.731 257.219 287.733C258.509 282.54 260.73 277.697 263.726 273.268C267.692 267.404 272.663 262.399 277.635 257.392L277.636 257.391C281.041 253.963 284.446 250.534 287.53 246.828C291.409 242.168 294.677 237.057 296.688 231.311C297.772 228.211 298.549 225.024 299.327 221.836C300.016 219.011 300.705 216.186 301.608 213.42C303.379 207.999 306.105 202.574 310.621 198.927C311.613 198.125 312.689 197.42 313.826 196.84C314.055 196.724 314.282 196.613 314.507 196.504C315.538 196.004 316.511 195.533 317.311 194.621C318.969 192.729 319.618 190.053 319.436 187.582C318.996 181.592 313.58 177.481 309.144 174.191C305.57 171.54 301.99 168.899 298.41 166.259L298.408 166.257L298.407 166.256L298.399 166.25C296.505 164.853 294.611 163.456 292.718 162.058C289.152 159.424 285.587 156.787 282.022 154.151C274.672 148.715 267.321 143.279 259.956 137.861C251.803 131.864 243.031 125.722 233 123.446C228.015 122.315 222.812 122.307 217.899 123.796C212.493 125.437 207.732 128.64 203.463 132.27C198.735 136.291 194.443 140.843 190.198 145.36C185.564 150.289 181.072 155.354 176.729 160.54C168.093 170.856 160.043 181.66 152.631 192.888L152.281 193.418C145.455 203.759 138.281 214.626 135.026 226.698C132.262 236.952 132.773 248.895 139.458 257.601C143.574 262.961 149.357 266.239 155.152 269.524L155.152 269.525L155.152 269.525L155.152 269.525L155.152 269.525L155.153 269.525L155.153 269.525L155.153 269.525L155.153 269.526C160.051 272.302 164.958 275.083 168.873 279.131C172.805 283.197 175.569 288.192 177.45 293.498ZM182.147 284.755C180.257 279.423 177.344 274.457 173.085 270.673C169.868 267.814 166.126 265.689 162.395 263.569L162.394 263.569L162.393 263.568L162.392 263.568L162.391 263.567L162.39 263.567L162.389 263.566L162.388 263.566C161.189 262.885 159.992 262.205 158.814 261.501C154.259 258.783 149.9 255.599 147.044 251.035C144.62 247.163 143.315 242.671 142.928 238.138C142.026 227.608 146.107 217.582 151.186 208.584C157.092 198.12 163.932 188.115 171.142 178.512C178.563 168.625 186.564 159.173 195.091 150.221C195.392 149.905 195.694 149.587 195.997 149.268C202.681 142.234 210.034 134.497 219.679 131.986C228.545 129.68 237.47 132.688 245.173 137.067C249.198 139.355 252.997 142.012 256.725 144.748C260.117 147.237 263.499 149.741 266.882 152.244L266.915 152.269C268.448 153.403 269.98 154.537 271.513 155.67C274.774 158.078 278.04 160.48 281.306 162.882L281.308 162.883L281.311 162.885L281.313 162.887L281.315 162.888L281.317 162.89L281.32 162.891L281.322 162.893C288.056 167.846 294.791 172.799 301.482 177.808C305.246 180.625 309.545 184.148 310.285 189.103C310.576 191.065 310.302 193.171 309.427 194.958C308.491 196.861 307.097 197.823 305.239 198.705C299.973 201.205 296.809 206.584 294.882 211.862C293.814 214.787 293.078 217.81 292.343 220.833C291.744 223.292 291.145 225.751 290.368 228.158C287.071 238.364 279.622 245.905 272.264 253.353L272.26 253.357L272.211 253.406C271.97 253.651 271.728 253.895 271.487 254.14C267.669 258.009 263.881 261.955 260.777 266.433C257.776 270.762 255.636 275.553 254.519 280.704C252.62 289.467 253.38 298.508 254.126 307.382C254.198 308.239 254.27 309.095 254.34 309.948C255.173 320.195 255.398 330.413 252.934 340.478C250.574 350.122 245.872 359.56 238.209 366.074C231.61 371.682 222.889 375.018 214.202 374.92C205.041 374.816 196.777 370.493 191.481 363.003C182.283 349.991 183.369 334.494 184.438 319.236C184.875 313.002 185.309 306.808 185.037 300.839C184.788 295.379 183.932 289.932 182.147 284.755ZM185.417 316.051C186.151 305.457 186.397 294.691 182.9 284.513C182.896 284.498 182.892 284.483 182.886 284.468C181.206 279.724 178.732 275.258 175.215 271.623C171.721 268.011 167.342 265.529 162.969 263.05C157.797 260.118 152.634 257.192 148.96 252.408C142.997 244.644 142.545 233.993 145.01 224.847C147.913 214.079 154.313 204.384 160.401 195.161L160.72 194.678C167.336 184.653 174.524 175.005 182.236 165.795C186.115 161.163 190.124 156.643 194.262 152.241C198.05 148.211 201.88 144.15 206.099 140.562C209.905 137.322 214.153 134.464 218.977 133C223.357 131.671 227.995 131.682 232.439 132.69C241.388 134.718 249.215 140.201 256.488 145.552C262.997 150.34 269.494 155.145 275.991 159.95C279.24 162.353 282.489 164.756 285.739 167.156C287.442 168.414 289.146 169.671 290.849 170.928L290.862 170.937C294.045 173.285 297.228 175.633 300.405 177.989C304.357 180.919 309.188 184.58 309.58 189.917C309.74 192.111 309.163 194.488 307.691 196.169C306.982 196.976 306.121 197.394 305.209 197.836L305.208 197.836L305.208 197.836C305.007 197.934 304.802 198.033 304.596 198.138C303.576 198.657 302.614 199.289 301.725 200.006C297.688 203.269 295.248 208.116 293.664 212.965C292.857 215.435 292.242 217.959 291.626 220.483L291.626 220.483C290.932 223.328 290.239 226.172 289.271 228.939C287.477 234.068 284.563 238.625 281.101 242.784C278.348 246.091 275.309 249.152 272.27 252.212L272.27 252.212L272.27 252.212L272.27 252.212L272.269 252.212L272.269 252.212L272.269 252.213L272.269 252.213C267.828 256.684 263.389 261.155 259.847 266.391C257.166 270.352 255.18 274.682 254.027 279.327C252.917 283.795 252.559 288.409 252.555 293.001C252.55 297.969 252.964 302.915 253.379 307.862C253.767 312.499 254.156 317.136 254.199 321.791C254.379 341.339 247.255 363.591 227.669 371.506C219.583 374.775 210.087 375.282 202.141 371.325C193.17 366.859 188.082 357.488 185.938 348.041C183.785 338.557 184.493 328.816 185.193 319.193C185.269 318.144 185.345 317.096 185.417 316.051ZM179.62 263.352C183.362 266.678 185.92 271.04 187.58 275.726C189.15 280.279 189.902 285.068 190.117 289.871C190.357 295.126 189.975 300.578 189.591 306.066L189.591 306.067C188.651 319.499 187.696 333.14 195.796 344.598C200.464 351.199 207.748 355.01 215.823 355.103C223.478 355.191 231.167 352.254 236.984 347.31C243.739 341.569 247.882 333.253 249.962 324.753C252.129 315.893 251.931 306.896 251.197 297.874C251.137 297.127 251.073 296.378 251.01 295.627C250.353 287.819 249.682 279.863 251.354 272.151C252.333 267.626 254.216 263.416 256.851 259.615C259.583 255.674 262.917 252.2 266.276 248.796C266.502 248.567 266.729 248.338 266.955 248.109C273.434 241.55 279.995 234.908 282.899 225.921C283.584 223.801 284.112 221.634 284.639 219.468L284.639 219.468C285.286 216.81 285.934 214.152 286.872 211.579C288.563 206.947 291.339 202.223 295.961 200.027C297.609 199.245 298.844 198.391 299.673 196.704C300.447 195.126 300.691 193.263 300.432 191.528C299.78 187.154 295.993 184.046 292.669 181.557C286.767 177.139 280.828 172.771 274.889 168.403L274.888 168.402L274.883 168.399C272.019 166.292 269.155 164.186 266.296 162.075C264.903 161.046 263.511 160.016 262.12 158.986C259.176 156.808 256.233 154.63 253.281 152.462C249.996 150.05 246.649 147.711 243.104 145.696C236.313 141.834 228.448 139.19 220.633 141.224C212.134 143.437 205.657 150.253 199.769 156.451C199.503 156.73 199.238 157.009 198.974 157.286C191.47 165.163 184.43 173.482 177.898 182.183C171.552 190.637 165.529 199.445 160.331 208.657C155.858 216.584 152.266 225.416 153.06 234.69C153.403 238.687 154.554 242.648 156.693 246.063C159.208 250.081 163.048 252.887 167.059 255.281C168.096 255.9 169.15 256.498 170.204 257.096C173.49 258.962 176.785 260.834 179.62 263.352ZM188.326 275.463C191.412 284.432 191.195 293.919 190.55 303.255C190.487 304.158 190.422 305.063 190.356 305.969L190.354 305.995C189.737 314.468 189.113 323.045 191.007 331.396C192.889 339.691 197.359 347.926 205.237 351.848C212.219 355.324 220.562 354.879 227.666 352.007C244.88 345.051 251.143 325.487 250.983 308.307C250.945 304.213 250.603 300.136 250.262 296.058L250.261 296.057C249.897 291.701 249.532 287.346 249.537 282.971C249.541 278.926 249.855 274.861 250.832 270.926C251.849 266.829 253.599 263.013 255.963 259.52C259.079 254.913 262.985 250.98 266.891 247.046L266.891 247.046L266.891 247.046L266.891 247.046L266.892 247.046L266.892 247.046L266.892 247.046C269.567 244.351 272.244 241.656 274.667 238.744C277.711 235.087 280.274 231.08 281.851 226.572C282.703 224.136 283.313 221.633 283.924 219.13C284.466 216.909 285.007 214.688 285.718 212.514C287.114 208.238 289.267 203.967 292.827 201.091C293.612 200.456 294.465 199.899 295.364 199.441C295.449 199.398 295.534 199.356 295.618 199.315C295.712 199.269 295.805 199.223 295.898 199.179L295.898 199.178L295.898 199.178L295.899 199.178C296.696 198.792 297.448 198.428 298.067 197.724C299.354 196.255 299.86 194.174 299.718 192.256C299.375 187.573 295.128 184.361 291.663 181.791C288.63 179.542 285.591 177.3 282.552 175.059C281.286 174.126 280.021 173.192 278.756 172.258C275.894 170.144 273.033 168.029 270.172 165.913C264.456 161.686 258.74 157.459 253.014 153.246C246.62 148.543 239.739 143.721 231.873 141.936C227.97 141.051 223.896 141.04 220.05 142.207C215.809 143.493 212.076 146.007 208.728 148.855C205.018 152.01 201.652 155.58 198.322 159.125C194.682 162.999 191.151 166.977 187.738 171.053C180.952 179.158 174.626 187.649 168.804 196.47L168.517 196.906C163.167 205.011 157.541 213.533 154.989 222.997C152.823 231.033 153.216 240.393 158.457 247.217C161.688 251.425 166.23 254 170.781 256.579C174.627 258.759 178.48 260.942 181.553 264.118C184.654 267.322 186.837 271.259 188.319 275.442C188.321 275.449 188.323 275.456 188.326 275.463ZM193.015 266.697C191.585 262.66 189.382 258.899 186.157 256.033C183.71 253.859 180.865 252.244 178.028 250.633L178.028 250.633L178.027 250.632C177.116 250.115 176.205 249.598 175.309 249.063C171.841 246.991 168.521 244.565 166.346 241.091C164.494 238.134 163.496 234.705 163.199 231.243C162.512 223.223 165.615 215.587 169.482 208.732C173.976 200.772 179.178 193.161 184.662 185.855C190.303 178.34 196.384 171.156 202.865 164.352C203.092 164.114 203.32 163.874 203.549 163.633C208.641 158.274 214.243 152.379 221.594 150.464C228.356 148.703 235.163 150.984 241.041 154.327C244.108 156.069 247.003 158.094 249.844 160.178C252.526 162.148 255.201 164.127 257.877 166.107C258.946 166.898 260.015 167.689 261.084 168.48C263.558 170.307 266.035 172.129 268.513 173.951L268.517 173.954L268.52 173.957L268.541 173.972L268.543 173.973C273.66 177.737 278.777 181.5 283.862 185.306C286.746 187.464 290.022 190.161 290.588 193.953C290.812 195.459 290.602 197.079 289.928 198.452C289.207 199.923 288.129 200.669 286.693 201.35C282.715 203.241 280.328 207.313 278.875 211.298C278.063 213.521 277.504 215.819 276.944 218.118C276.489 219.986 276.034 221.855 275.444 223.685C272.933 231.458 267.258 237.201 261.654 242.872L261.654 242.872L261.08 243.453C258.18 246.394 255.3 249.394 252.94 252.798C250.67 256.073 249.048 259.702 248.204 263.598C246.762 270.249 247.339 277.11 247.905 283.846C247.96 284.499 248.015 285.151 248.067 285.801C248.702 293.597 248.872 301.372 246.999 309.029C245.199 316.387 241.615 323.578 235.769 328.547C230.736 332.824 224.078 335.368 217.454 335.287C210.466 335.202 204.162 331.907 200.121 326.191C193.118 316.286 193.942 304.5 194.753 292.892L194.753 292.891C195.084 288.151 195.413 283.44 195.207 278.899C195.017 274.755 194.369 270.624 193.015 266.697ZM195.682 290.461C196.242 282.392 196.427 274.193 193.763 266.44C193.76 266.43 193.757 266.42 193.753 266.411C192.468 262.788 190.579 259.381 187.893 256.608C185.239 253.867 181.914 251.982 178.594 250.101C174.664 247.874 170.743 245.652 167.954 242.021C163.437 236.138 163.101 228.07 164.97 221.143C167.171 212.984 172.022 205.635 176.636 198.645L176.89 198.259C181.919 190.64 187.383 183.307 193.244 176.308C196.19 172.788 199.24 169.352 202.384 166.006C205.256 162.948 208.161 159.868 211.361 157.146C214.249 154.689 217.469 152.522 221.128 151.412C224.442 150.405 227.951 150.418 231.313 151.181C238.096 152.719 244.031 156.881 249.545 160.936C254.401 164.51 259.248 168.095 264.096 171.679L264.103 171.684L264.109 171.689L264.116 171.694L264.123 171.699L264.129 171.704L264.138 171.711L264.147 171.717L264.156 171.724L264.165 171.731C266.702 173.607 269.239 175.483 271.777 177.357C272.999 178.26 274.223 179.162 275.446 180.065L275.467 180.081L275.489 180.097L275.498 180.103L275.506 180.109L275.515 180.116L275.517 180.117L275.519 180.119C277.988 181.94 280.458 183.762 282.923 185.59C285.906 187.802 289.566 190.565 289.862 194.593C289.983 196.234 289.55 198.018 288.447 199.275C287.92 199.874 287.278 200.184 286.6 200.512C286.447 200.586 286.291 200.662 286.135 200.741C285.353 201.138 284.613 201.622 283.931 202.173C280.848 204.664 278.982 208.359 277.773 212.061C277.16 213.939 276.692 215.858 276.224 217.777L276.224 217.777L276.224 217.777L276.224 217.777L276.224 217.777L276.224 217.777C275.697 219.939 275.17 222.1 274.435 224.202C273.073 228.092 270.863 231.549 268.237 234.703C266.145 237.217 263.834 239.543 261.525 241.869L261.524 241.869L261.524 241.869L261.524 241.87L261.524 241.87L261.524 241.87C258.149 245.269 254.775 248.666 252.083 252.646C250.038 255.672 248.522 258.977 247.641 262.523C246.795 265.926 246.526 269.443 246.522 272.94C246.518 276.716 246.833 280.476 247.148 284.236C247.444 287.76 247.739 291.284 247.772 294.822C247.908 309.636 242.511 326.51 227.668 332.508C221.543 334.983 214.355 335.368 208.336 332.371C201.551 328.993 197.7 321.897 196.078 314.751C194.443 307.546 194.981 300.147 195.512 292.836L195.569 292.063L195.598 291.662L195.635 291.14C195.651 290.913 195.667 290.687 195.682 290.461ZM192.524 248.568C195.319 250.995 197.218 254.204 198.448 257.667C199.586 260.975 200.13 264.449 200.287 267.937C200.462 271.765 200.185 275.733 199.907 279.724L199.907 279.725C199.227 289.501 198.536 299.418 204.432 307.775C207.802 312.551 213.068 315.35 218.908 315.464C224.518 315.575 230.161 313.46 234.446 309.862C239.352 305.742 242.387 299.766 243.943 293.637C245.581 287.192 245.482 280.621 244.954 274.045C244.902 273.402 244.848 272.757 244.793 272.112C244.323 266.521 243.845 260.838 244.985 255.308C245.661 252.037 246.977 248.977 248.853 246.215C250.803 243.342 253.206 240.816 255.634 238.349C255.913 238.064 256.194 237.78 256.475 237.496C261.081 232.831 265.759 228.092 267.882 221.729C268.427 220.095 268.835 218.422 269.242 216.749L269.242 216.749L269.242 216.749L269.242 216.749L269.242 216.749C269.709 214.833 270.176 212.918 270.848 211.063C272.064 207.707 274.066 204.26 277.416 202.67C278.589 202.113 279.491 201.509 280.111 200.321C280.704 199.188 280.907 197.846 280.762 196.581C280.402 193.41 277.741 191.091 275.354 189.282C271.071 186.035 266.734 182.857 262.397 179.68L262.396 179.68L262.396 179.68L262.393 179.677L262.39 179.676C260.258 178.114 258.126 176.552 256.001 174.982C254.946 174.203 253.891 173.422 252.836 172.642C250.73 171.085 248.624 169.527 246.513 167.975C244.135 166.225 241.712 164.527 239.148 163.055C234.194 160.21 228.441 158.223 222.714 159.66C216.481 161.225 211.752 166.179 207.444 170.693L207.429 170.709C207.283 170.861 207.138 171.013 206.994 171.164C201.542 176.866 196.426 182.889 191.677 189.188C187.02 195.365 182.617 201.805 178.786 208.532C175.481 214.335 172.796 220.791 173.318 227.602C173.539 230.493 174.339 233.357 175.834 235.855C177.594 238.794 180.319 240.886 183.21 242.636C184.068 243.155 184.942 243.651 185.818 244.148C188.152 245.474 190.491 246.802 192.524 248.568ZM199.198 257.418C201.414 263.888 201.29 270.723 200.829 277.458C200.806 277.803 200.781 278.149 200.756 278.494C200.728 278.89 200.699 279.286 200.67 279.682C200.231 285.713 199.787 291.811 201.073 297.762C202.388 303.847 205.595 309.945 211.351 312.851C216.407 315.403 222.46 315.099 227.622 313.024C240.131 307.997 244.68 293.777 244.557 281.309C244.527 278.341 244.28 275.385 244.032 272.429L244.032 272.428C243.771 269.31 243.51 266.192 243.505 263.061C243.495 257.007 244.633 251.176 248.01 246.061C250.304 242.587 253.227 239.644 256.151 236.701L256.151 236.701L256.151 236.7L256.151 236.7L256.151 236.7C258.007 234.832 259.862 232.964 261.557 230.961C263.773 228.341 265.683 225.475 266.872 222.237C267.571 220.334 268.051 218.367 268.532 216.399L268.532 216.398L268.532 216.398L268.532 216.398L268.532 216.398C268.898 214.901 269.263 213.404 269.725 211.935C270.702 208.828 272.198 205.74 274.68 203.558C275.275 203.036 275.922 202.58 276.615 202.2C276.825 202.085 277.041 201.985 277.257 201.885C277.706 201.678 278.153 201.471 278.528 201.132C279.626 200.141 280.077 198.545 280.014 197.103C279.864 193.66 276.742 191.291 274.213 189.414C272.208 187.926 270.199 186.445 268.19 184.963L268.16 184.94C267.067 184.134 265.973 183.328 264.88 182.52C262.804 180.987 260.729 179.453 258.654 177.918L258.645 177.912C254.501 174.849 250.358 171.786 246.21 168.73C241.565 165.308 236.574 161.781 230.863 160.451C228.015 159.79 225.036 159.761 222.223 160.61C219.162 161.534 216.469 163.338 214.05 165.389C211.372 167.658 208.946 170.23 206.542 172.783C203.91 175.579 201.358 178.451 198.889 181.393C193.952 187.277 189.348 193.441 185.109 199.847L184.851 200.237L184.851 200.237L184.85 200.238C180.942 206.144 176.827 212.361 174.959 219.255C173.388 225.057 173.647 231.8 177.396 236.752C179.746 239.857 183.081 241.748 186.424 243.644C189.254 245.249 192.089 246.857 194.336 249.206C196.555 251.527 198.115 254.367 199.186 257.379C199.191 257.392 199.195 257.405 199.198 257.418ZM203.881 248.638C202.883 245.84 201.355 243.244 199.096 241.279C197.446 239.844 195.545 238.765 193.648 237.688L193.647 237.688C192.906 237.267 192.165 236.846 191.44 236.405C189.088 234.974 186.882 233.254 185.466 230.847C184.244 228.768 183.603 226.392 183.444 223.993C183.081 218.508 185.251 213.315 187.915 208.641C191.036 203.161 194.623 197.914 198.418 192.883C202.327 187.701 206.543 182.749 211.036 178.065L211.286 177.804C214.805 174.135 218.659 170.115 223.761 168.875C228.439 167.738 233.134 169.397 237.164 171.729C240.833 173.853 244.247 176.443 247.641 179.016L247.642 179.017C248.732 179.844 249.821 180.67 250.915 181.478C252.619 182.736 254.329 183.988 256.038 185.239L256.041 185.242L256.042 185.242L256.042 185.242C259.558 187.816 263.074 190.39 266.541 193.026C268.471 194.494 270.584 196.366 270.903 198.92C271.162 201.006 270.268 203.022 268.332 203.906C263.855 205.951 262.638 210.918 261.522 215.473C261.225 216.685 260.936 217.868 260.594 218.959C258.867 224.468 254.881 228.501 250.92 232.508L250.841 232.588C246.871 236.606 243.1 240.833 241.878 246.515C240.9 251.062 241.295 255.744 241.683 260.347L241.683 260.348C241.727 260.866 241.77 261.383 241.812 261.899C242.244 267.276 242.324 272.65 240.974 277.919C239.699 282.897 237.224 287.751 233.231 291.093C229.742 294.014 225.158 295.732 220.595 295.647C215.826 295.558 211.527 293.282 208.768 289.388C203.951 282.588 204.512 274.5 205.066 266.535C205.288 263.332 205.509 260.149 205.378 257.077C205.255 254.21 204.813 251.358 203.881 248.638ZM205.974 264.475C206.337 259.072 206.403 253.606 204.64 248.415C204.638 248.405 204.636 248.394 204.633 248.384C204.63 248.372 204.626 248.36 204.622 248.348C203.742 245.882 202.465 243.563 200.645 241.663C198.823 239.762 196.526 238.46 194.233 237.161C191.515 235.62 188.803 234.083 186.897 231.557C183.789 227.439 183.659 221.817 185.047 217.031C186.651 211.502 189.962 206.512 193.12 201.752L193.281 201.509C196.726 196.316 200.466 191.319 204.477 186.55C206.484 184.166 208.556 181.839 210.694 179.571C212.638 177.511 214.601 175.432 216.772 173.607C218.734 171.957 220.918 170.514 223.397 169.786C225.702 169.11 228.137 169.167 230.457 169.733C235.128 170.87 239.188 173.795 242.994 176.605C248.018 180.315 253.04 184.026 258.063 187.737L258.112 187.772C258.907 188.36 259.703 188.946 260.5 189.533C262.208 190.791 263.916 192.05 265.618 193.317C267.69 194.862 270.222 196.86 270.156 199.714C270.128 200.85 269.708 202.094 268.758 202.786C268.483 202.986 268.17 203.131 267.858 203.275L267.857 203.275L267.857 203.275L267.857 203.275C267.642 203.374 267.427 203.473 267.225 203.59C266.681 203.906 266.176 204.283 265.712 204.706C263.77 206.481 262.587 208.922 261.804 211.398C261.425 212.601 261.125 213.827 260.826 215.053L260.826 215.053L260.826 215.053L260.826 215.053C260.453 216.58 260.081 218.106 259.552 219.588C258.614 222.225 257.097 224.563 255.309 226.7C253.893 228.392 252.335 229.961 250.777 231.53L250.777 231.53C248.47 233.853 246.163 236.176 244.322 238.897C241.537 243.012 240.523 247.695 240.488 252.608C240.469 255.29 240.692 257.961 240.916 260.633C241.109 262.938 241.302 265.243 241.339 267.557C241.5 277.727 237.859 289.403 227.643 293.518C223.455 295.205 218.542 295.453 214.442 293.373C209.735 290.986 207.147 285.954 206.112 280.97C205.122 276.209 205.477 271.342 205.828 266.523L205.828 266.523C205.878 265.839 205.928 265.156 205.974 264.475ZM205.352 233.725C207.24 235.265 208.499 237.335 209.315 239.609C210.042 241.739 210.381 243.97 210.465 246.213C210.553 248.533 210.387 250.933 210.221 253.349L210.221 253.35C209.796 259.5 209.365 265.747 213.099 270.999C215.22 273.982 218.518 275.741 222.177 275.829C225.723 275.914 229.297 274.593 232.013 272.325C238.526 266.886 239.307 257.796 238.682 249.927C238.646 249.479 238.608 249.029 238.57 248.579C238.277 245.106 237.98 241.582 238.679 238.148C239.592 233.671 242.541 230.378 245.658 227.223C248.704 224.142 251.766 221.042 253.102 216.811C253.391 215.894 253.619 214.959 253.846 214.024L253.846 214.023L253.847 214.023C254.157 212.748 254.466 211.474 254.933 210.247C255.364 209.111 255.921 208.016 256.694 207.075C257.45 206.156 258.314 205.644 259.343 205.098C260.696 204.381 261.247 202.716 261.044 201.262C260.774 199.324 259.198 197.899 257.728 196.772C255 194.682 252.222 192.653 249.444 190.625C248.096 189.64 246.748 188.656 245.406 187.665C244.587 187.061 243.772 186.443 242.956 185.823L242.956 185.823C240.333 183.834 237.693 181.832 234.843 180.212C231.747 178.454 228.166 177.257 224.602 178.144C220.696 179.115 217.743 182.193 215.044 185.007L214.865 185.194C211.337 188.868 208.031 192.756 204.972 196.829C202.07 200.692 199.319 204.718 196.941 208.929C194.903 212.538 193.273 216.552 193.597 220.774C193.734 222.555 194.219 224.315 195.116 225.867C196.171 227.692 197.807 229.02 199.577 230.116C200.199 230.502 200.836 230.864 201.474 231.226C202.815 231.987 204.155 232.749 205.352 233.725ZM210.066 239.361C211.583 243.847 211.267 248.435 210.95 253.031C210.692 256.758 210.435 260.489 211.154 264.176C211.911 268.058 213.874 272.025 217.536 273.894C220.716 275.519 224.532 275.305 227.772 273.967C235.67 270.704 238.332 261.555 238.116 253.694C238.072 252.065 237.937 250.441 237.802 248.817L237.802 248.817C237.625 246.687 237.448 244.558 237.475 242.419C237.521 238.713 238.32 235.176 240.411 232.07C241.831 229.962 243.615 228.164 245.4 226.366C246.535 225.223 247.67 224.08 248.711 222.857C250.097 221.228 251.3 219.456 252.052 217.444C252.508 216.224 252.817 214.96 253.125 213.696C253.324 212.882 253.523 212.067 253.761 211.265C254.347 209.296 255.225 207.333 256.721 205.884C257.37 205.255 258.084 204.862 258.872 204.45C259.766 203.983 260.21 203.096 260.284 202.11C260.453 199.855 258.414 198.27 256.801 197.066C255.518 196.109 254.228 195.159 252.938 194.209C252.293 193.734 251.648 193.259 251.003 192.783C249.701 191.821 248.398 190.858 247.096 189.896L247.086 189.888L247.076 189.881C244.496 187.974 241.915 186.067 239.333 184.164C236.43 182.024 233.325 179.799 229.76 178.949C227.961 178.521 226.078 178.498 224.302 179.045C222.371 179.641 220.681 180.802 219.161 182.105C215.679 185.095 212.597 188.675 209.661 192.189C206.595 195.859 203.737 199.702 201.106 203.695L200.922 203.974L200.921 203.974C198.48 207.677 195.898 211.592 194.821 215.939C193.921 219.573 194.206 223.767 196.69 226.741C198.145 228.483 200.098 229.59 202.055 230.699C203.84 231.711 205.628 232.724 207.043 234.221C208.419 235.678 209.38 237.445 210.053 239.321C210.056 239.329 210.059 239.337 210.061 239.345C210.063 239.351 210.064 239.356 210.066 239.361ZM214.749 230.581C214.165 228.965 213.275 227.519 211.92 226.44C211.104 225.788 210.197 225.274 209.291 224.759L209.29 224.758C208.791 224.475 208.292 224.191 207.808 223.885C205.371 222.342 203.888 220.079 203.724 217.169C203.555 214.169 204.749 211.346 206.214 208.794C207.916 205.829 209.856 202.986 211.919 200.261C214.023 197.48 216.292 194.824 218.709 192.311L218.786 192.232C220.71 190.231 222.811 188.046 225.602 187.376C228.133 186.768 230.671 187.636 232.86 188.892C234.865 190.043 236.727 191.454 238.577 192.857L238.578 192.858C239.159 193.298 239.738 193.737 240.32 194.167C241.256 194.859 242.201 195.542 243.146 196.226L243.147 196.226C245.127 197.659 247.11 199.093 249.022 200.605C250.011 201.387 251.037 202.395 251.198 203.713C251.323 204.719 250.961 205.858 250.068 206.411C249.9 206.515 249.737 206.608 249.577 206.698C249.119 206.958 248.692 207.2 248.297 207.633C247.739 208.244 247.336 208.976 247.021 209.736C246.63 210.682 246.388 211.675 246.146 212.668C245.994 213.292 245.842 213.915 245.652 214.528C244.717 217.554 242.551 219.759 240.378 221.958C238.204 224.159 236.141 226.464 235.522 229.592C235.048 231.981 235.255 234.424 235.46 236.84C235.498 237.279 235.535 237.718 235.568 238.155C235.985 243.673 235.244 250.103 230.55 253.756C226.616 256.817 220.585 256.95 217.474 252.67C214.779 248.965 215.081 244.535 215.378 240.174C215.493 238.495 215.607 236.826 215.548 235.213C215.492 233.638 215.254 232.076 214.749 230.581ZM215.486 230.293C215.482 230.282 215.478 230.271 215.473 230.26C215.002 228.971 214.344 227.756 213.407 226.743C212.406 225.663 211.131 224.939 209.859 224.216C208.496 223.442 207.135 222.669 206.116 221.461C204.295 219.299 204.19 216.186 204.938 213.578C205.782 210.63 207.547 207.968 209.228 205.432L209.336 205.27C211.149 202.534 213.114 199.899 215.22 197.382C217.251 194.953 219.381 192.478 221.785 190.407C223.925 188.564 226.41 187.501 229.243 188.207C231.776 188.838 233.963 190.453 236.03 191.98L236.03 191.98L236.054 191.997C237.365 192.966 238.676 193.934 239.986 194.902L239.99 194.905C241.362 195.919 242.734 196.933 244.106 197.946C244.569 198.288 245.033 198.629 245.496 198.97L245.498 198.971C246.367 199.61 247.235 200.248 248.097 200.895C249.286 201.789 250.789 203.022 250.352 204.702C250.174 205.386 249.761 205.67 249.166 205.975C248.599 206.266 248.106 206.671 247.679 207.142C246.733 208.189 246.186 209.534 245.804 210.872C245.662 211.368 245.539 211.87 245.416 212.373C245.173 213.365 244.93 214.358 244.541 215.304C243.974 216.685 243.092 217.894 242.111 219.01C241.451 219.76 240.744 220.472 240.036 221.185L240.036 221.185C238.704 222.525 237.371 223.866 236.353 225.467C234.082 229.039 234.393 233.068 234.702 237.074L234.702 237.075C234.79 238.209 234.877 239.341 234.906 240.461C235.046 245.929 233.168 252.292 227.653 254.516C225.35 255.444 222.63 255.551 220.42 254.304C217.921 252.893 216.653 250.053 216.193 247.334C215.775 244.863 215.945 242.375 216.114 239.892L216.114 239.891C216.333 236.668 216.552 233.452 215.486 230.293ZM218.487 219.152C219.305 219.776 219.827 220.596 220.182 221.551C220.761 223.315 220.642 225.165 220.524 227.01C220.379 229.263 220.235 231.509 221.362 233.579C223.043 236.663 227.019 236.9 229.597 234.778C232.225 232.614 232.651 228.984 232.413 225.807C232.394 225.549 232.371 225.289 232.349 225.029C232.228 223.606 232.104 222.161 232.426 220.761C232.831 218.998 234.086 217.725 235.314 216.479C235.404 216.388 235.494 216.296 235.584 216.205C236.894 214.868 237.88 213.53 238.357 211.699C238.4 211.533 238.441 211.366 238.482 211.198C238.676 210.402 238.874 209.594 239.326 208.903C239.624 208.447 239.981 208.17 240.442 207.91C240.683 207.775 240.878 207.649 241.042 207.419C241.935 206.17 240.866 204.86 239.886 204.102C238.761 203.231 237.608 202.393 236.456 201.554C235.881 201.137 235.307 200.719 234.737 200.298C234.418 200.062 234.088 199.806 233.747 199.541C231.63 197.9 229.105 195.942 226.407 196.652C224.825 197.069 223.635 198.301 222.536 199.44C221.122 200.905 219.797 202.457 218.568 204.08C217.376 205.659 216.252 207.305 215.274 209.025C214.456 210.46 213.804 212.039 213.865 213.72C213.919 215.236 214.588 216.577 215.809 217.484C216.221 217.789 216.668 218.041 217.115 218.293C217.586 218.559 218.057 218.824 218.487 219.152ZM220.899 221.211C220.229 219.452 219.016 218.493 217.423 217.57C216.513 217.043 215.593 216.48 215.099 215.51C214.715 214.755 214.601 213.879 214.666 213.041C214.813 211.132 215.913 209.403 216.918 207.832C218.016 206.116 219.217 204.467 220.512 202.895C221.666 201.495 222.88 200.095 224.224 198.874C225.414 197.793 226.795 197.043 228.441 197.397C229.902 197.71 231.166 198.643 232.347 199.515L232.395 199.551C233.282 200.205 234.168 200.86 235.055 201.515C235.647 201.953 236.24 202.391 236.833 202.829C237.111 203.034 237.389 203.239 237.668 203.444C238.172 203.814 238.676 204.185 239.176 204.56L239.242 204.609C239.882 205.088 240.826 205.794 240.508 206.703C240.393 207.032 240.149 207.165 239.887 207.308C239.78 207.366 239.669 207.427 239.563 207.503C239.295 207.696 239.055 207.937 238.853 208.199C238.434 208.742 238.165 209.393 237.97 210.046C237.873 210.369 237.793 210.697 237.713 211.025C237.59 211.527 237.468 212.03 237.285 212.514C236.991 213.291 236.528 213.971 235.993 214.601C235.575 215.094 235.118 215.554 234.661 216.014C233.955 216.726 233.248 217.437 232.684 218.269C231.219 220.432 231.403 222.885 231.587 225.341C231.613 225.688 231.639 226.035 231.66 226.381C231.855 229.562 231.1 233.456 227.884 234.916C226.58 235.507 224.99 235.632 223.706 234.925C222.22 234.109 221.519 232.395 221.295 230.793C221.107 229.448 221.194 228.105 221.28 226.766C221.399 224.923 221.517 223.087 220.92 221.263C220.913 221.245 220.906 221.227 220.899 221.211Z" fill="url(#paint0_linear_1230_481)"/>
<defs>
<linearGradient id="paint0_linear_1230_481" x1="158.596" y1="13.7695" x2="348.863" y2="361.315" gradientUnits="userSpaceOnUse">
<stop stop-color="white"/>
<stop offset="0.34086" stop-color="#023436" stop-opacity="0.16"/>
<stop offset="0.995488" stop-color="white"/>
</linearGradient>
</defs>
</svg>
