<svg width="563" height="487" viewBox="0 0 563 487" fill="none" xmlns="http://www.w3.org/2000/svg">
<path fill-rule="evenodd" clip-rule="evenodd" d="M144.682 183.033C145.369 198.403 141.262 213.393 134.491 227.092C127.852 240.242 118.96 252.115 108.898 262.833C97.9569 274.48 85.2502 285.202 72.4569 295.996C41.1967 322.371 9.41934 349.183 1.62596 391.014C-2.84374 415.007 4.23627 438.773 21.0477 456.429C36.9847 473.165 59.5255 483.582 82.4609 485.77C109.101 488.313 135.872 479.758 158.646 466.375C182.54 452.333 201.708 432.869 219.809 412.167C221.32 410.438 222.83 408.701 224.344 406.96C240.036 388.912 256.03 370.517 276.458 357.771C288.545 350.23 301.849 345.358 315.894 343.017C330.297 340.617 344.957 340.523 359.52 340.633C360.53 340.64 361.541 340.649 362.552 340.657C390.526 340.884 418.844 341.114 444.536 328.424C450.616 325.421 456.461 321.977 462.305 318.534L462.306 318.533L462.306 318.533C469.488 314.302 476.668 310.071 484.283 306.659C498.191 300.428 514.613 296.483 529.423 302.003C534.41 303.862 538.702 304.736 543.926 303.035C548.9 301.416 553.347 298.094 556.508 293.948C564.53 283.431 563.214 268.727 561.622 256.426C558.757 234.281 555.705 212.158 552.652 190.036L552.652 190.036L552.652 190.034L552.652 190.032L552.651 190.03L552.651 190.028L552.651 190.026L552.65 190.025L552.65 190.023L552.65 190.021L552.65 190.019L552.649 190.017L552.649 190.015L552.649 190.013L552.649 190.011L552.648 190.009L552.648 190.007L552.648 190.005L552.648 190.003L552.647 190.001L552.647 189.999L552.647 189.997C551.152 179.163 549.657 168.328 548.184 157.491C547.465 152.201 546.751 146.91 546.036 141.619L546.035 141.609C544.553 130.628 543.07 119.647 541.547 108.672C539.851 96.4559 537.876 84.2487 534.77 72.3014C528.845 49.5067 518.086 26.8236 497.258 14.1887C474.533 0.402763 446.075 0.724648 420.2 1.01732L420.194 1.01739L420.167 1.01768C418.985 1.03106 417.807 1.04437 416.636 1.05625C383.508 1.39108 350.4 3.67472 317.539 7.8811C285.681 11.9597 253.737 17.4842 222.658 25.6659C195.997 32.6837 169.191 43.4903 150.719 64.8004C142.81 73.9255 136.654 84.7124 133.767 96.4921C130.348 110.446 132.373 124.704 135.648 138.477C136.495 142.039 137.421 145.594 138.348 149.152L138.348 149.154C141.253 160.304 144.166 171.486 144.682 183.033ZM135.232 227.372C135.226 227.388 135.219 227.404 135.211 227.42C120.92 255.724 97.2929 275.659 73.6329 295.622C53.4797 312.626 33.3023 329.651 18.8492 351.885C4.56187 373.864 -3.98709 401.343 4.26661 427.171C11.5564 449.986 30.4133 467.429 51.9445 476.927C104.033 499.906 160.373 471.936 197.816 434.861C206.681 426.083 214.866 416.674 223.052 407.264C231.781 397.23 240.51 387.195 250.064 377.928C258.854 369.401 268.358 361.515 278.963 355.333C289.935 348.937 301.872 344.705 314.364 342.478C331.041 339.503 347.921 339.683 364.805 339.863C376.364 339.987 387.925 340.11 399.425 339.221C413.934 338.1 428.211 335.173 441.463 329.02C448.59 325.71 455.354 321.729 462.119 317.747L462.12 317.746L462.12 317.746C468.116 314.217 474.113 310.687 480.362 307.625C492.526 301.666 506.277 297.294 519.966 298.945C522.947 299.304 525.913 299.946 528.755 300.921C529.324 301.116 529.881 301.318 530.431 301.517C533.117 302.49 535.644 303.405 538.659 303.244C544.814 302.919 550.619 299.49 554.649 294.953C564.297 284.091 562.354 267.809 560.578 254.558C559.135 243.794 557.666 233.035 556.197 222.275L556.197 222.272C555.463 216.896 554.729 211.52 553.998 206.143C552.556 195.527 551.12 184.909 549.683 174.291L549.683 174.288L549.682 174.284L549.682 174.28L549.681 174.276L549.681 174.273L549.68 174.269L549.68 174.265L549.679 174.261L549.679 174.258L549.678 174.254L549.678 174.25L549.677 174.246L549.677 174.243L549.676 174.239L549.676 174.235L549.675 174.231L549.672 174.211L549.671 174.2L549.669 174.186C546.756 152.649 543.842 131.111 540.875 109.582C537.554 85.4878 533.429 60.118 520.549 39.0233C514.124 28.5014 505.379 19.5131 494.545 13.5231C482.68 6.96266 469.184 4.11925 455.797 2.8468C440.964 1.43818 425.948 1.66473 411.067 1.91438C394.881 2.18694 378.703 2.92291 362.56 4.12286C330.46 6.5087 298.496 10.7157 266.874 16.7278L265.451 16.9982L265.451 16.9982C236.205 22.5562 205.484 28.3944 179.239 43.0123C156.917 55.4465 137.2 76.3808 133.393 102.506C131.057 118.535 135.079 133.937 139.108 149.368C142.52 162.433 145.937 175.52 145.506 189.027C145.078 202.44 141.144 215.398 135.232 227.372ZM154.486 182.618C155.142 197.298 151.22 211.612 144.753 224.696C138.41 237.255 129.918 248.594 120.305 258.835C109.854 269.963 97.7145 280.206 85.493 290.518L85.4927 290.518C55.6322 315.714 25.2787 341.325 17.8336 381.286C13.5617 404.209 20.3271 426.916 36.3887 443.785C51.6148 459.776 73.1504 469.729 95.0633 471.819C120.517 474.247 146.093 466.074 167.852 453.288C190.677 439.875 208.988 421.281 226.278 401.504C227.72 399.855 229.161 398.198 230.605 396.537L230.609 396.532C245.598 379.292 260.875 361.72 280.389 349.546C291.933 342.344 304.637 337.691 318.05 335.456C331.809 333.163 345.813 333.073 359.724 333.178C360.689 333.185 361.655 333.193 362.621 333.201L362.626 333.201C389.348 333.418 416.398 333.637 440.94 321.515C446.744 318.647 452.325 315.358 457.905 312.071L457.905 312.07L457.906 312.07C464.769 308.026 471.63 303.983 478.906 300.724C492.188 294.773 507.868 291.004 522.012 296.276C526.778 298.053 530.884 298.887 535.879 297.261C540.631 295.714 544.881 292.538 547.903 288.577C555.568 278.525 554.313 264.478 552.792 252.721C550.054 231.56 547.137 210.418 544.221 189.278L544.22 189.277C542.792 178.924 541.363 168.571 539.956 158.216C539.289 153.305 538.626 148.394 537.963 143.484L537.963 143.479L537.962 143.474L537.961 143.469L537.961 143.464C536.526 132.835 535.091 122.207 533.616 111.583C531.996 99.9111 530.109 88.2499 527.142 76.8354C521.481 55.0555 511.202 33.3864 491.301 21.3149C469.59 8.14545 442.404 8.45302 417.683 8.7327L417.678 8.73275C416.54 8.74563 415.407 8.75845 414.28 8.76988C382.635 9.09102 351.011 11.2718 319.62 15.2891C289.188 19.1849 258.671 24.4626 228.982 32.279C203.51 38.9834 177.903 49.3071 160.256 69.6663C152.699 78.384 146.817 88.6919 144.058 99.9468C140.793 113.276 142.727 126.898 145.856 140.056C146.664 143.456 147.548 146.848 148.433 150.244L148.433 150.244C151.209 160.899 153.993 171.584 154.486 182.618ZM145.447 225.076C131.792 252.086 109.237 271.117 86.6496 290.175C67.3984 306.418 48.1243 322.681 34.3181 343.92C20.6738 364.909 12.5096 391.152 20.3905 415.817C27.353 437.606 45.3618 454.265 65.9247 463.335C115.673 485.282 169.484 458.566 205.244 423.157C213.709 414.776 221.525 405.791 229.341 396.807C237.683 387.218 246.024 377.629 255.154 368.774C263.552 360.628 272.632 353.093 282.762 347.189C293.246 341.079 304.651 337.035 316.588 334.904C332.516 332.064 348.639 332.236 364.766 332.408L364.767 332.408C375.809 332.525 386.854 332.643 397.839 331.794C411.697 330.723 425.334 327.928 437.992 322.051C444.8 318.889 451.262 315.086 457.724 311.282L457.724 311.282C463.452 307.911 469.18 304.539 475.15 301.615C486.77 295.921 499.909 291.745 512.99 293.323C515.839 293.666 518.673 294.28 521.388 295.211C521.931 295.397 522.463 295.59 522.988 295.78C525.551 296.708 527.963 297.58 530.84 297.429C536.713 297.119 542.256 293.845 546.103 289.516C555.315 279.144 553.458 263.596 551.763 250.942C550.373 240.571 548.958 230.203 547.543 219.835L547.542 219.833L547.542 219.832L547.541 219.822L547.54 219.813L547.538 219.804C546.851 214.768 546.164 209.732 545.479 204.695C544.099 194.542 542.726 184.388 541.353 174.234L541.352 174.232C538.567 153.638 535.781 133.045 532.943 112.458C529.771 89.446 525.831 65.215 513.529 45.067C507.394 35.02 499.044 26.434 488.698 20.7146C477.365 14.4489 464.477 11.7337 451.69 10.5186C437.523 9.17187 423.18 9.38961 408.967 9.6278C393.507 9.88793 378.052 10.591 362.631 11.7374C331.968 14.0156 301.436 18.0342 271.231 23.7784L269.865 24.0379C241.934 29.3461 212.593 34.9223 187.528 48.8842C166.209 60.7599 147.378 80.7514 143.743 105.702C141.512 121.013 145.354 135.724 149.203 150.464L149.203 150.464C152.462 162.943 155.726 175.443 155.314 188.344C154.905 201.175 151.138 213.571 145.478 225.024C145.468 225.042 145.458 225.06 145.447 225.076ZM155.015 222.298C161.176 209.832 164.915 196.191 164.29 182.202C163.82 171.687 161.167 161.503 158.521 151.349C157.677 148.112 156.835 144.878 156.064 141.637C153.081 129.095 151.238 116.11 154.351 103.403C156.981 92.6728 162.589 82.8456 169.794 74.5321C186.616 55.1254 211.026 45.2829 235.306 38.8905C263.604 31.4412 292.692 26.4101 321.7 22.6973C351.618 18.8676 381.761 16.7895 411.923 16.4838C412.998 16.4729 414.079 16.4606 415.165 16.4484C438.73 16.1818 464.646 15.8886 485.344 28.4428C504.317 39.9508 514.118 60.6075 519.517 81.3708C522.346 92.2506 524.144 103.369 525.689 114.494C527.069 124.429 528.411 134.37 529.753 144.311C530.412 149.187 531.07 154.064 531.733 158.94C533.074 168.804 534.434 178.667 535.795 188.529C538.576 208.684 541.357 228.84 543.967 249.016C545.417 260.227 546.613 273.62 539.303 283.205C536.422 286.984 532.369 290.013 527.835 291.489C523.07 293.04 519.152 292.245 514.603 290.549C501.129 285.527 486.188 289.12 473.533 294.788C466.599 297.894 460.06 301.747 453.52 305.601L453.52 305.601C448.2 308.735 442.88 311.87 437.346 314.604C413.952 326.159 388.167 325.95 362.695 325.743L361.043 325.73L359.932 325.722C346.674 325.622 333.326 325.707 320.211 327.892C307.43 330.021 295.323 334.455 284.324 341.318C265.728 352.92 251.17 369.664 236.886 386.093C235.507 387.679 234.131 389.261 232.754 390.836C216.273 409.687 198.818 427.412 177.062 440.196C156.318 452.386 131.937 460.177 107.671 457.861C86.781 455.869 66.249 446.379 51.7336 431.134C36.4222 415.053 29.9728 393.403 34.0438 371.55C41.1409 333.458 70.0729 309.045 98.5352 285.029L98.5355 285.029L98.5357 285.028L98.536 285.028L98.5363 285.028L98.5365 285.028L98.5368 285.028L98.537 285.027L98.5373 285.027L98.5375 285.027L98.5378 285.027L98.538 285.027L98.5383 285.026L98.5386 285.026L98.5388 285.026L98.5391 285.026L98.5393 285.026L98.5396 285.025L98.5398 285.025L98.5401 285.025C110.187 275.197 121.755 265.436 131.716 254.831C140.878 245.074 148.971 234.268 155.015 222.298ZM155.735 222.626C155.742 222.611 155.749 222.596 155.755 222.581C161.139 211.673 164.72 199.871 165.11 187.654C165.501 175.359 162.39 163.446 159.284 151.553C155.616 137.504 151.954 123.482 154.08 108.89C157.546 85.112 175.492 66.0615 195.807 54.7461C219.692 41.442 247.652 36.128 274.267 31.0695L275.577 30.8206C304.368 25.3473 333.469 21.5169 362.694 19.345C377.392 18.2521 392.122 17.582 406.859 17.3342C420.404 17.1059 434.073 16.8984 447.574 18.1817C459.76 19.3394 472.043 21.9279 482.844 27.8989C492.702 33.3494 500.659 41.5313 506.504 51.1049C518.228 70.3062 521.982 93.3984 525.005 115.329C527.697 134.861 530.34 154.399 532.983 173.937C534.304 183.706 535.626 193.475 536.953 203.243C537.606 208.048 538.262 212.852 538.918 217.656C540.268 227.544 541.618 237.431 542.943 247.322C544.559 259.376 546.33 274.192 537.553 284.074C533.891 288.199 528.612 291.315 523.018 291.61C520.281 291.754 517.986 290.924 515.548 290.041L515.544 290.04C515.044 289.859 514.537 289.675 514.019 289.498C511.429 288.61 508.727 288.025 506.01 287.696C493.539 286.192 481.013 290.172 469.934 295.601C464.244 298.389 458.785 301.602 453.326 304.815C447.167 308.441 441.007 312.067 434.517 315.08C422.455 320.683 409.46 323.345 396.252 324.367C385.783 325.176 375.258 325.063 364.734 324.951C349.362 324.787 333.993 324.623 318.81 327.332C307.429 329.362 296.557 333.217 286.561 339.043C276.904 344.671 268.248 351.855 260.243 359.619C251.543 368.058 243.594 377.195 235.646 386.333L235.645 386.333L235.645 386.334L235.645 386.334L235.645 386.334L235.644 386.334L235.644 386.335L235.644 386.335L235.644 386.335L235.644 386.335L235.644 386.336L235.643 386.336L235.643 386.336L235.643 386.336L235.643 386.337L235.643 386.337L235.643 386.337L235.642 386.337L235.642 386.337L235.642 386.338C228.192 394.901 220.742 403.465 212.673 411.454C178.596 445.196 127.314 470.658 79.9066 449.743C60.3133 441.099 43.1528 425.224 36.5175 404.461C29.0077 380.959 36.7889 355.952 49.7886 335.953C62.9478 315.709 81.3184 300.209 99.667 284.727C121.21 266.55 142.722 248.398 155.735 222.626ZM174.093 181.787C174.688 195.083 171.134 208.049 165.277 219.9C159.531 231.28 151.836 241.554 143.128 250.829C133.655 260.914 122.655 270.197 111.58 279.542C84.5144 302.381 57.0036 325.595 50.2543 361.819C46.3828 382.602 52.5158 403.191 67.0774 418.486C80.8818 432.985 100.409 442.012 120.276 443.907C143.353 446.109 166.541 438.701 186.269 427.107C206.956 414.95 223.553 398.097 239.225 380.172C240.534 378.675 241.842 377.17 243.153 375.663C256.734 360.042 270.576 344.122 288.256 333.091C298.711 326.568 310.221 322.353 322.369 320.328C334.838 318.249 347.529 318.169 360.135 318.264C361.009 318.27 361.883 318.277 362.757 318.284C386.979 318.481 411.501 318.68 433.747 307.691C439.008 305.092 444.066 302.112 449.124 299.132L449.124 299.132L449.125 299.131C455.343 295.467 461.561 291.803 468.154 288.849C480.18 283.46 494.383 280.044 507.19 284.818C511.522 286.43 515.25 287.188 519.787 285.712C524.101 284.309 527.958 281.425 530.7 277.83C537.653 268.714 536.518 255.974 535.138 245.309C532.658 226.148 530.018 207.006 527.377 187.865C526.08 178.465 524.783 169.066 523.505 159.664C522.867 154.971 522.233 150.276 521.599 145.582L521.599 145.581L521.599 145.58L521.599 145.578L521.599 145.577L521.598 145.576L521.598 145.574L521.598 145.573L521.598 145.572L521.598 145.571L521.598 145.569L521.597 145.568L521.597 145.567L521.597 145.565L521.597 145.564L521.597 145.563L521.596 145.561L521.596 145.56L521.596 145.559C520.329 136.172 519.061 126.785 517.759 117.403C516.291 106.822 514.579 96.2499 511.889 85.903C506.755 66.1561 497.432 46.5117 479.387 35.5671C459.703 23.6279 435.058 23.9068 412.647 24.1604L412.64 24.1604L412.639 24.1605L412.61 24.1608L412.604 24.1609L412.568 24.1613L412.553 24.1614C411.553 24.1727 410.557 24.184 409.567 24.194C380.888 24.4859 352.228 26.4628 323.781 30.1034C296.197 33.6336 268.539 38.4176 241.63 45.5017C218.541 51.5804 195.329 60.9403 179.332 79.396C172.479 87.3022 167.145 96.6487 164.644 106.856C161.683 118.94 163.435 131.289 166.272 143.216C167.005 146.3 167.807 149.379 168.61 152.46C171.124 162.112 173.646 171.792 174.093 181.787ZM165.985 220.252C153.61 244.744 133.163 261.998 112.686 279.276C95.2387 293.997 77.7704 308.737 65.2576 327.987C52.9009 346.996 45.5027 370.768 52.6415 393.109C58.9481 412.846 75.2601 427.935 93.887 436.153C138.956 456.036 187.705 431.83 220.103 399.752C227.775 392.155 234.859 384.012 241.943 375.868C249.502 367.18 257.061 358.491 265.333 350.467C272.946 343.082 281.176 336.252 290.36 330.898C299.866 325.356 310.208 321.69 321.032 319.758C335.467 317.184 350.078 317.34 364.693 317.495L364.694 317.495L364.695 317.495C374.702 317.602 384.711 317.709 394.667 316.939C407.223 315.969 419.576 313.436 431.045 308.111C437.215 305.246 443.071 301.799 448.927 298.352C454.118 295.296 459.309 292.241 464.72 289.59C475.258 284.427 487.171 280.642 499.032 282.074C501.617 282.385 504.188 282.943 506.653 283.789C507.144 283.958 507.624 284.132 508.099 284.304C510.417 285.143 512.598 285.933 515.199 285.796C520.513 285.516 525.527 282.555 529.005 278.638C537.347 269.245 535.662 255.163 534.127 243.707C532.865 234.292 531.58 224.879 530.295 215.468C529.673 210.91 529.051 206.353 528.431 201.795C527.169 192.508 525.912 183.219 524.656 173.931C522.143 155.353 519.63 136.775 517.07 118.205C514.195 97.3567 510.628 75.4032 499.483 57.1501C493.927 48.0499 486.364 40.2735 476.994 35.092C466.726 29.414 455.05 26.9555 443.464 25.8551C430.627 24.6355 417.633 24.8324 404.756 25.0492C390.744 25.2847 376.738 25.9218 362.765 26.9611C334.976 29.0268 307.307 32.6673 279.931 37.873L278.679 38.1109C253.377 42.9199 226.798 47.9715 204.092 60.6183C184.779 71.3751 167.718 89.4845 164.425 112.086C162.404 125.959 165.885 139.29 169.374 152.647C172.327 163.955 175.285 175.282 174.913 186.972C174.542 198.607 171.127 209.846 165.995 220.232L165.99 220.242L165.985 220.252ZM175.538 217.504C181.091 206.269 184.46 193.978 183.897 181.371C183.473 171.89 181.08 162.707 178.695 153.551C177.934 150.632 177.175 147.716 176.48 144.795C173.79 133.483 172.128 121.77 174.935 110.31C177.308 100.628 182.367 91.7608 188.868 84.2621C204.041 66.7588 226.054 57.8802 247.954 52.1149C273.473 45.3961 299.703 40.8588 325.862 37.5116C352.838 34.0584 380.016 32.1843 407.211 31.9078C408.18 31.898 409.153 31.887 410.132 31.8759C431.387 31.6354 454.762 31.3709 473.43 42.6934C490.546 53.0748 499.392 71.7049 504.262 90.437C506.813 100.251 508.435 110.277 509.83 120.312C511.083 129.34 512.303 138.372 513.522 147.404C514.106 151.732 514.691 156.06 515.279 160.387C516.489 169.295 517.718 178.202 518.947 187.108C521.453 205.266 523.958 223.426 526.31 241.603C527.618 251.723 528.694 263.808 522.097 272.457C519.495 275.87 515.833 278.605 511.74 279.938C507.432 281.341 503.891 280.621 499.778 279.088C487.638 274.563 474.177 277.804 462.777 282.912C456.526 285.713 450.631 289.186 444.735 292.66L444.734 292.661C439.937 295.487 435.139 298.314 430.148 300.779C409.052 311.2 385.798 311.012 362.828 310.826C361.998 310.819 361.168 310.812 360.338 310.806C348.383 310.716 336.349 310.792 324.525 312.764C313.009 314.683 302.098 318.679 292.186 324.862C275.421 335.322 262.297 350.417 249.418 365.228L249.418 365.228C248.176 366.657 246.935 368.084 245.694 369.503C230.832 386.501 215.092 402.486 195.472 414.015C176.759 425.012 154.767 432.038 132.878 429.95C114.031 428.152 95.5111 419.589 82.4175 405.836C68.6058 391.328 62.7889 371.797 66.461 352.083C72.861 317.729 98.9493 295.715 124.616 274.056C135.119 265.193 145.551 256.39 154.535 246.825C162.794 238.034 170.091 228.293 175.538 217.504ZM176.258 217.832C176.265 217.819 176.271 217.805 176.276 217.792C181.135 207.951 184.365 197.301 184.716 186.278C185.068 175.195 182.263 164.456 179.463 153.735C176.155 141.068 172.854 128.427 174.771 115.271C177.894 93.8429 194.07 76.676 212.378 66.478C233.903 54.4889 259.102 49.6993 283.089 45.1401L284.283 44.913C310.241 39.9786 336.481 36.5246 362.832 34.5666C376.084 33.5807 389.364 32.9768 402.652 32.7536C414.862 32.5481 427.182 32.3616 439.352 33.5178C450.336 34.561 461.407 36.8929 471.143 42.276C480.026 47.1869 487.194 54.5593 492.461 63.1862C503.028 80.4909 506.411 101.307 509.135 121.074C511.588 138.871 513.996 156.675 516.404 174.479C517.571 183.1 518.737 191.721 519.908 200.341C520.52 204.843 521.134 209.346 521.749 213.848L521.75 213.856L521.753 213.88L521.755 213.891L521.755 213.898C522.947 222.626 524.138 231.354 525.308 240.085C526.764 250.944 528.364 264.292 520.457 273.195C517.16 276.906 512.411 279.71 507.378 279.976C504.916 280.105 502.851 279.358 500.658 278.563L500.657 278.563C500.206 278.4 499.75 278.234 499.284 278.074C496.945 277.273 494.504 276.744 492.052 276.448C480.801 275.091 469.5 278.679 459.503 283.577C454.371 286.091 449.448 288.989 444.524 291.887L444.524 291.887C438.972 295.155 433.42 298.423 427.57 301.14C416.697 306.189 404.984 308.59 393.08 309.51C383.64 310.24 374.149 310.139 364.66 310.038C350.799 309.89 336.943 309.743 323.254 312.184C312.986 314.015 303.176 317.493 294.159 322.75C285.448 327.828 277.642 334.307 270.421 341.31C262.579 348.918 255.413 357.156 248.247 365.393C241.528 373.118 234.809 380.842 227.531 388.048C196.817 418.458 150.597 441.41 107.868 422.56C90.2098 414.769 74.746 400.465 68.7667 381.753C61.9991 360.576 69.0125 338.04 80.7261 320.02C92.4041 302.057 108.887 288.213 125.165 274.539L125.166 274.539C126.941 273.048 128.714 271.559 130.478 270.066C148.273 255.013 165.608 238.924 176.258 217.832ZM193.701 180.956C194.233 192.871 191.049 204.488 185.8 215.106C180.65 225.305 173.752 234.513 165.949 242.826C157.456 251.869 147.594 260.192 137.664 268.571L137.664 268.572L137.663 268.572L137.663 268.573L137.663 268.573L137.662 268.573L137.662 268.574L137.662 268.574L137.662 268.574L137.661 268.574L137.661 268.575L137.661 268.575L137.66 268.575C113.393 289.055 88.727 309.87 82.6751 342.354C79.2008 360.998 84.7029 379.469 97.7647 393.191C110.148 406.2 127.662 414.3 145.487 416C166.188 417.975 186.985 411.331 204.683 400.931C223.234 390.029 238.117 374.916 252.169 358.843C253.34 357.504 254.51 356.158 255.682 354.81C267.859 340.804 280.268 326.53 296.121 316.64C305.488 310.795 315.8 307.018 326.685 305.205C337.864 303.341 349.241 303.27 360.544 303.355C361.058 303.358 361.572 303.362 362.086 303.367L362.895 303.373C384.614 303.549 406.603 303.727 426.551 293.873C431.27 291.542 435.806 288.87 440.342 286.197C445.917 282.913 451.491 279.629 457.401 276.98C468.174 272.154 480.895 269.09 492.367 273.365C496.262 274.817 499.614 275.496 503.693 274.169C507.566 272.907 511.031 270.318 513.494 267.089C519.734 258.904 518.72 247.475 517.481 237.901C515.26 220.739 512.895 203.594 510.529 186.449L510.529 186.448L510.529 186.445C509.364 178.002 508.199 169.559 507.051 161.115C506.489 156.975 505.929 152.834 505.37 148.693L505.368 148.678C504.223 140.192 503.077 131.707 501.899 123.225C500.582 113.735 499.047 104.254 496.634 94.9726C492.029 77.2569 483.661 59.6391 467.473 49.8211C449.818 39.1137 427.714 39.3639 407.613 39.5915C406.688 39.6019 405.769 39.6123 404.854 39.6216C379.142 39.8827 353.445 41.6557 327.941 44.9198C303.208 48.0857 278.406 52.3762 254.278 58.7279C233.569 64.1781 212.754 72.5754 198.406 89.1278C192.259 96.2222 187.474 104.609 185.23 113.766C182.575 124.604 184.146 135.678 186.69 146.375C187.346 149.139 188.065 151.897 188.784 154.657L188.784 154.658L188.784 154.658L188.784 154.659L188.784 154.659L188.784 154.659L188.784 154.66L188.785 154.66L188.785 154.661L188.785 154.661L188.785 154.662L188.785 154.662L188.785 154.663L188.785 154.663L188.786 154.664L188.786 154.664L188.786 154.665L188.786 154.665C191.04 163.318 193.3 171.996 193.701 180.956ZM186.505 215.463C176.432 235.396 160.049 250.6 143.229 264.829C141.558 266.242 139.879 267.653 138.197 269.065C122.811 281.99 107.233 295.075 96.1952 312.055C85.1246 329.084 78.4958 350.385 84.8906 370.399C90.5429 388.086 105.158 401.604 121.849 408.968C162.236 426.787 205.928 405.09 234.958 376.344C241.839 369.532 248.191 362.23 254.543 354.928C261.319 347.139 268.094 339.351 275.51 332.157C282.338 325.533 289.72 319.407 297.956 314.605C306.485 309.633 315.763 306.343 325.476 304.611C338.419 302.302 351.521 302.442 364.626 302.582C373.597 302.678 382.569 302.774 391.493 302.084C402.748 301.215 413.819 298.946 424.098 294.172C429.629 291.604 434.879 288.514 440.128 285.424C444.783 282.684 449.438 279.945 454.289 277.568C463.745 272.936 474.433 269.543 485.074 270.826C487.394 271.106 489.704 271.606 491.917 272.366C492.356 272.517 492.785 272.672 493.21 272.826C495.282 273.577 497.232 274.284 499.558 274.161C504.312 273.911 508.797 271.262 511.909 267.759C519.381 259.347 517.866 246.731 516.492 236.471C515.386 228.219 514.26 219.969 513.134 211.72L513.133 211.716L513.132 211.704C512.549 207.434 511.966 203.165 511.386 198.895C510.28 190.756 509.179 182.616 508.078 174.477L508.075 174.455L508.075 174.453L508.074 174.447C505.797 157.613 503.52 140.779 501.2 123.95C498.624 105.266 495.428 85.5881 485.44 69.2301C480.462 61.078 473.688 54.1081 465.293 49.4678C456.089 44.3794 445.626 42.1758 435.242 41.1883C423.738 40.0956 412.091 40.2717 400.549 40.4658C387.986 40.6765 375.43 41.2476 362.9 42.18C337.986 44.0319 313.178 47.2958 288.635 51.9626L287.527 52.1731C264.845 56.483 241.017 61.0108 220.663 72.3472C203.357 81.9851 188.067 98.2107 185.116 118.466C183.304 130.902 186.425 142.853 189.552 154.828C192.199 164.964 194.851 175.117 194.519 185.594C194.187 196.033 191.125 206.118 186.52 215.436C186.515 215.445 186.511 215.454 186.505 215.463ZM196.062 212.708C201.005 202.706 204.008 191.762 203.505 180.54C203.129 172.1 200.999 163.925 198.875 155.773L198.874 155.77L198.873 155.767C198.195 153.163 197.517 150.561 196.897 147.954C194.5 137.872 193.019 127.434 195.523 117.219C197.639 108.587 202.146 100.679 207.944 93.9918C221.467 78.3919 241.084 70.4758 260.601 65.3375C283.34 59.3511 306.712 55.3076 330.022 52.3244C354.055 49.2478 378.269 47.5792 402.496 47.3322C403.356 47.3234 404.221 47.3136 405.089 47.3038L405.094 47.3038C424.04 47.0893 444.874 46.8535 461.514 56.9458C476.775 66.2003 484.663 82.8041 489.005 99.505C491.279 108.251 492.725 117.189 493.967 126.133C495.094 134.256 496.192 142.384 497.289 150.511L497.29 150.52L497.291 150.527C497.8 154.297 498.309 158.067 498.821 161.836C499.902 169.79 500.999 177.741 502.096 185.693L502.096 185.693L502.096 185.694L502.096 185.694L502.097 185.695L502.097 185.695L502.097 185.695L502.097 185.696L502.097 185.696L502.097 185.697L502.097 185.697L502.097 185.698L502.097 185.698L502.097 185.699L502.097 185.699L502.097 185.699C504.327 201.858 506.556 218.018 508.649 234.194C509.817 243.221 510.772 253.997 504.887 261.713C502.565 264.759 499.295 267.202 495.642 268.391C491.793 269.644 488.627 269.003 484.952 267.633C474.147 263.607 462.166 266.495 452.02 271.04C446.451 273.535 441.198 276.63 435.945 279.725C431.671 282.244 427.397 284.762 422.95 286.958C404.145 296.247 383.413 296.078 362.938 295.911C362.207 295.905 361.476 295.899 360.745 295.894C350.095 295.814 339.373 295.881 328.839 297.637C318.586 299.345 308.873 302.903 300.049 308.408C285.116 317.723 273.427 331.168 261.957 344.36L261.953 344.366C260.847 345.638 259.743 346.907 258.638 348.171C245.394 363.318 231.368 377.562 213.886 387.834C197.204 397.637 177.601 403.9 158.086 402.039C141.285 400.437 124.773 392.801 113.103 380.537C100.791 367.602 95.6051 350.191 98.8798 332.615C104.584 301.998 127.829 282.381 150.7 263.081C160.057 255.184 169.351 247.341 177.356 238.819C184.712 230.993 191.21 222.318 196.062 212.708ZM155.981 259.591C171.829 246.184 187.267 231.856 196.761 213.077L196.767 213.066L196.771 213.059C196.775 213.053 196.778 213.046 196.782 213.04C201.122 204.257 204.012 194.749 204.321 184.908C204.631 175.04 202.134 165.476 199.641 155.929L199.64 155.929C196.693 144.643 193.752 133.379 195.46 121.659C198.242 102.578 212.645 87.2954 228.948 78.2161C248.124 67.5374 270.571 63.2718 291.938 59.2117L292.99 59.0117C316.118 54.6143 339.494 51.5368 362.971 49.7927C374.777 48.9156 386.61 48.3774 398.447 48.1775C409.321 47.9949 420.295 47.8292 431.133 48.8585C440.916 49.787 450.775 51.8636 459.446 56.6574C467.352 61.0288 473.732 67.5949 478.42 75.2736C487.83 90.6849 490.841 109.224 493.267 126.826C495.442 142.599 497.576 158.378 499.71 174.156L499.711 174.161L499.711 174.163L499.712 174.169L499.712 174.17L499.713 174.176L499.713 174.178L499.714 174.183L499.714 174.185L499.715 174.191L499.715 174.192L499.718 174.214L499.721 174.236L499.724 174.258C500.769 181.988 501.815 189.717 502.865 197.447C503.373 201.183 503.883 204.92 504.394 208.656L504.397 208.678L504.4 208.7C505.499 216.751 506.598 224.801 507.677 232.856C508.972 242.517 510.4 254.4 503.364 262.321C500.436 265.617 496.214 268.111 491.742 268.345C489.555 268.461 487.721 267.796 485.774 267.09L485.772 267.089C485.371 266.944 484.967 266.797 484.553 266.655C482.467 265.938 480.289 265.465 478.1 265.202C468.067 263.991 457.991 267.188 449.078 271.555C444.506 273.795 440.119 276.377 435.732 278.959C430.785 281.871 425.839 284.782 420.628 287.202C410.945 291.7 400.514 293.836 389.911 294.656C381.501 295.306 373.046 295.216 364.592 295.126L364.591 295.126L364.591 295.126L364.591 295.126L364.59 295.126L364.59 295.126L364.59 295.126L364.59 295.126L364.589 295.126L364.589 295.126L364.589 295.126L364.589 295.126L364.588 295.126L364.588 295.126L364.588 295.126L364.588 295.126L364.587 295.126C352.241 294.994 339.897 294.862 327.702 297.037C318.547 298.671 309.801 301.773 301.76 306.46C293.996 310.985 287.039 316.76 280.604 323.003C273.613 329.783 267.226 337.125 260.839 344.466L260.839 344.467L260.839 344.467L260.838 344.467L260.838 344.468L260.838 344.468L260.838 344.468L260.837 344.468L260.837 344.469L260.837 344.469L260.836 344.469L260.836 344.47L260.836 344.47L260.836 344.47L260.835 344.471L260.835 344.471C254.852 351.348 248.87 358.225 242.39 364.641C215.041 391.722 173.881 412.162 135.832 395.377C120.108 388.44 106.341 375.706 101.017 359.045C94.9939 340.195 101.238 320.129 111.666 304.089C122.068 288.085 136.751 275.752 151.253 263.571C152.833 262.244 154.411 260.919 155.981 259.591ZM213.31 180.125C213.781 190.657 210.963 200.925 206.324 210.312C201.77 219.331 195.67 227.473 188.763 234.823C181.247 242.825 172.521 250.189 163.737 257.603C142.265 275.724 120.442 294.14 115.086 322.888C112.011 339.392 116.88 355.746 128.442 367.894C139.402 379.41 154.908 386.584 170.687 388.089C189.014 389.836 207.422 383.956 223.089 374.75C239.502 365.104 252.671 351.731 265.105 337.509C266.141 336.323 267.177 335.132 268.215 333.938L268.215 333.938C278.983 321.552 289.957 308.93 303.977 300.183C312.256 295.016 321.373 291.679 330.992 290.076C340.883 288.428 350.948 288.363 360.946 288.438C361.633 288.443 362.321 288.449 363.009 288.455C382.232 288.611 401.695 288.77 419.35 280.048C423.525 277.986 427.538 275.621 431.551 273.257L431.552 273.257C436.483 270.352 441.413 267.447 446.64 265.105C456.158 260.841 467.401 258.128 477.537 261.905C480.994 263.194 483.972 263.797 487.591 262.617C491.024 261.5 494.099 259.202 496.28 256.341C501.81 249.091 500.916 238.971 499.819 230.488C497.854 215.293 495.76 200.114 493.665 184.936C492.636 177.478 491.607 170.019 490.594 162.56C490.104 158.96 489.618 155.359 489.132 151.759L489.132 151.756L489.132 151.753L489.131 151.749L489.131 151.746L489.13 151.743L489.13 151.74L489.129 151.737L489.129 151.733L489.128 151.73L489.128 151.727C488.107 144.164 487.086 136.601 486.037 129.042C484.87 120.642 483.511 112.251 481.376 104.038C477.298 88.3533 469.887 72.7603 455.556 64.0706C439.929 54.5949 420.367 54.8164 402.575 55.0179L402.562 55.0181L402.543 55.0183C401.737 55.0274 400.936 55.0365 400.138 55.0446C377.394 55.2763 354.664 56.8436 332.101 59.7311C310.218 62.5313 288.274 66.3298 266.925 71.9492C248.599 76.7738 230.18 84.2072 217.482 98.8561C212.037 105.139 207.803 112.564 205.816 120.673C203.466 130.264 204.856 140.066 207.107 149.533C207.689 151.981 208.325 154.424 208.962 156.87C210.956 164.523 212.956 172.199 213.31 180.125ZM207.051 210.624C207.049 210.629 207.046 210.635 207.043 210.64C198.131 228.292 183.626 241.756 168.733 254.353C167.256 255.603 165.771 256.851 164.284 258.1C150.675 269.531 136.897 281.104 127.134 296.123C117.352 311.174 111.491 330.003 117.141 347.69C122.138 363.325 135.056 375.274 149.812 381.784C185.52 397.537 224.152 378.35 249.818 352.936C255.903 346.91 261.523 340.451 267.142 333.991C273.136 327.101 279.13 320.21 285.691 313.847C291.733 307.985 298.265 302.561 305.555 298.313C313.108 293.91 321.321 290.996 329.921 289.463C341.371 287.42 352.961 287.544 364.555 287.668C372.49 287.753 380.428 287.838 388.322 287.228C398.274 286.459 408.063 284.452 417.152 280.231C422.045 277.959 426.688 275.226 431.332 272.492C435.45 270.068 439.568 267.644 443.86 265.542C452.232 261.44 461.696 258.439 471.119 259.575C473.177 259.823 475.219 260.273 477.183 260.941C477.589 261.079 477.986 261.223 478.378 261.365C480.185 262.018 481.887 262.633 483.919 262.525C488.111 262.304 492.069 259.969 494.815 256.878C501.415 249.447 500.073 238.297 498.859 229.233C497.869 221.848 496.861 214.466 495.854 207.083L495.853 207.075L495.852 207.066C495.348 203.375 494.844 199.683 494.342 195.991C493.355 188.729 492.373 181.466 491.39 174.204L491.386 174.17C489.38 159.343 487.374 144.515 485.331 129.693C483.053 113.173 480.23 95.7728 471.399 81.3097C466.999 74.1044 461.013 67.9439 453.595 63.8415C445.456 59.3424 436.203 57.3941 427.022 56.5213C416.848 55.5541 406.549 55.7107 396.343 55.8819C385.23 56.0695 374.123 56.5745 363.039 57.3983C341 59.0362 319.054 61.9238 297.343 66.0517L296.346 66.2412C276.295 70.0515 255.228 74.055 237.233 84.0759C221.934 92.5965 208.414 106.937 205.806 124.845C204.203 135.845 206.963 146.419 209.73 157.013C212.07 165.976 214.414 174.953 214.123 184.215C213.833 193.444 211.127 202.362 207.061 210.6C207.058 210.608 207.055 210.616 207.051 210.624ZM216.585 207.914C220.919 199.145 223.553 189.55 223.114 179.71C222.783 172.302 220.914 165.127 219.05 157.975C218.454 155.688 217.859 153.403 217.315 151.114C215.211 142.263 213.911 133.098 216.109 124.129C217.967 116.545 221.926 109.599 227.02 103.723C238.893 90.0269 256.114 83.0748 273.251 78.5636C293.21 73.3094 313.725 69.7595 334.184 67.1405C355.274 64.4405 376.523 62.9759 397.784 62.7596C398.539 62.7519 399.298 62.7433 400.06 62.7347C416.696 62.5463 434.988 62.3391 449.602 71.1996C463.005 79.3259 469.939 93.9064 473.752 108.574C475.749 116.255 477.02 124.102 478.11 131.954C479.084 138.977 480.033 146.003 480.981 153.03L480.984 153.053C481.445 156.464 481.906 159.876 482.369 163.287C483.319 170.274 484.282 177.26 485.246 184.246L485.247 184.25L485.247 184.254L485.248 184.259L485.249 184.263L485.249 184.267L485.25 184.272L485.25 184.276L485.251 184.277L485.251 184.277L485.251 184.277L485.251 184.278L485.251 184.278L485.251 184.279L485.251 184.279L485.251 184.28L485.251 184.28L485.251 184.281L485.251 184.281L485.251 184.281L485.251 184.282C487.205 198.444 489.16 212.607 490.994 226.784C492.022 234.721 492.855 244.187 487.681 250.971C485.638 253.65 482.76 255.799 479.547 256.845C476.155 257.949 473.366 257.386 470.129 256.179C460.66 252.651 450.158 255.187 441.266 259.169C436.379 261.359 431.77 264.075 427.16 266.791L427.16 266.791C423.409 269.001 419.658 271.211 415.756 273.138C399.249 281.293 381.051 281.145 363.078 280.998L363.027 280.998L362.939 280.997C362.344 280.992 361.749 280.987 361.154 280.983C351.808 280.912 342.398 280.973 333.155 282.514C324.167 284.011 315.648 287.13 307.914 291.956C294.813 300.13 284.556 311.926 274.492 323.501C273.521 324.619 272.551 325.734 271.581 326.844C259.957 340.139 247.645 352.642 232.299 361.661C217.647 370.271 200.434 375.769 183.295 374.134C168.539 372.727 154.038 366.016 143.789 355.246C132.977 343.885 128.422 328.592 131.298 313.155C136.306 286.275 156.707 269.057 176.782 252.114C184.993 245.184 193.15 238.3 200.176 230.82C206.628 223.952 212.328 216.343 216.585 207.914ZM181.484 249.115C195.404 237.34 208.961 224.757 217.295 208.262C217.299 208.255 217.303 208.248 217.306 208.241C221.12 200.525 223.656 192.172 223.926 183.528C224.198 174.871 222.007 166.48 219.82 158.103C217.234 148.201 214.654 138.318 216.152 128.036C218.591 111.305 231.224 97.9052 245.52 89.9432C262.336 80.5796 282.022 76.8385 300.76 73.2776L301.698 73.0994C321.994 69.2407 342.508 66.5413 363.11 65.0097C373.472 64.2394 383.855 63.7673 394.243 63.5922C403.782 63.4307 413.406 63.2845 422.914 64.1882C431.495 65.0037 440.141 66.8238 447.747 71.0297C454.679 74.8615 460.27 80.618 464.38 87.35C472.633 100.866 475.272 117.128 477.4 132.566C479.297 146.332 481.16 160.102 483.023 173.872L483.024 173.88C483.955 180.767 484.887 187.654 485.823 194.54C486.29 197.98 486.76 201.42 487.229 204.861L487.23 204.864L487.23 204.866L487.23 204.869L487.231 204.872L487.231 204.875L487.232 204.878L487.232 204.881L487.232 204.884L487.233 204.887L487.233 204.89L487.234 204.892L487.234 204.895L487.234 204.898C488.177 211.803 489.119 218.707 490.045 225.614C491.18 234.08 492.436 244.495 486.271 251.437C483.71 254.32 480.016 256.5 476.104 256.706C474.207 256.806 472.62 256.232 470.934 255.622C470.569 255.49 470.199 255.356 469.82 255.227C467.981 254.601 466.071 254.181 464.145 253.948C455.332 252.884 446.48 255.69 438.65 259.526C434.64 261.491 430.793 263.756 426.946 266.02L426.946 266.02C422.603 268.577 418.26 271.133 413.684 273.258C405.188 277.203 396.041 279.077 386.74 279.797C379.359 280.367 371.938 280.288 364.519 280.209L364.518 280.209C353.682 280.093 342.85 279.977 332.147 281.887C324.102 283.322 316.422 286.046 309.357 290.164C302.54 294.138 296.432 299.21 290.782 304.691C284.647 310.641 279.042 317.084 273.437 323.527C268.186 329.564 262.935 335.6 257.248 341.231C233.262 364.981 197.161 382.911 163.794 368.191C150.006 362.108 137.934 350.943 133.266 336.334C127.985 319.81 133.463 302.217 142.603 288.156C151.732 274.113 164.617 263.291 177.343 252.602C178.727 251.439 180.109 250.279 181.484 249.115ZM232.918 179.294C233.326 188.442 230.877 197.363 226.847 205.516C222.889 213.356 217.587 220.432 211.589 226.822C205.052 233.781 197.464 240.186 189.825 246.634L189.824 246.634C171.149 262.397 152.17 278.416 147.51 303.425C144.834 317.791 149.072 332.025 159.135 342.6C168.674 352.624 182.169 358.87 195.904 360.181C211.855 361.701 227.872 356.585 241.51 348.572C255.785 340.183 267.24 328.549 278.055 316.179C278.959 315.145 279.863 314.106 280.768 313.065C290.127 302.302 299.665 291.333 311.848 283.731C319.039 279.244 326.958 276.344 335.315 274.952C343.913 273.519 352.666 273.463 361.361 273.528L362.268 273.535L363.145 273.542L363.145 273.542C379.869 273.678 396.802 273.816 412.161 266.229C415.792 264.436 419.282 262.38 422.772 260.324L422.772 260.324C427.059 257.798 431.346 255.272 435.892 253.235C444.156 249.533 453.917 247.174 462.719 250.452C465.738 251.578 468.339 252.102 471.502 251.073C474.496 250.098 477.177 248.094 479.079 245.599C483.896 239.282 483.124 230.473 482.167 223.081C480.46 209.884 478.641 196.7 476.822 183.517C475.925 177.016 475.028 170.515 474.145 164.013C473.713 160.835 473.284 157.656 472.854 154.478L472.854 154.474L472.853 154.471L472.853 154.468L472.853 154.465L472.852 154.462L472.852 154.458L472.851 154.455L472.851 154.452L472.85 154.449L472.85 154.446L472.849 154.442L472.849 154.439C471.968 147.914 471.087 141.389 470.181 134.867C469.166 127.558 467.983 120.257 466.125 113.11C462.576 99.4568 456.121 85.8902 443.646 78.3273C430.048 70.082 413.025 70.2748 397.545 70.4501L397.542 70.4501L397.527 70.4503L397.505 70.4505C396.81 70.4584 396.117 70.4662 395.429 70.4732C375.651 70.6741 355.884 72.0376 336.265 74.5485C317.23 76.9848 298.144 80.2878 279.575 85.1766C263.629 89.3742 247.606 95.8452 236.558 108.589C231.816 114.058 228.132 120.525 226.402 127.584C224.356 135.928 225.566 144.457 227.523 152.693C228.029 154.822 228.583 156.947 229.137 159.074L229.137 159.075L229.137 159.075L229.137 159.076L229.137 159.076L229.138 159.077L229.138 159.077L229.138 159.078L229.138 159.078L229.138 159.079L229.138 159.079L229.139 159.08L229.139 159.08C230.872 165.733 232.61 172.405 232.918 179.294ZM227.583 205.809C227.581 205.814 227.579 205.819 227.576 205.825L227.572 205.835L227.567 205.845C219.812 221.202 207.193 232.917 194.237 243.878C192.955 244.962 191.667 246.044 190.377 247.127L190.375 247.129C178.542 257.068 166.561 267.132 158.072 280.19C149.575 293.262 144.482 309.619 149.39 324.98C153.731 338.564 164.955 348.944 177.774 354.599C208.801 368.288 242.373 351.611 264.675 329.528C269.968 324.288 274.855 318.671 279.741 313.054L279.741 313.054L279.741 313.053L279.742 313.053L279.742 313.053L279.742 313.053L279.742 313.052L279.742 313.052L279.742 313.052L279.743 313.052L279.743 313.051L279.743 313.051L279.743 313.051C284.955 307.06 290.166 301.07 295.869 295.536C301.127 290.436 306.81 285.716 313.153 282.018C319.73 278.185 326.879 275.649 334.367 274.314C344.323 272.538 354.401 272.646 364.482 272.753C371.383 272.827 378.286 272.9 385.151 272.37C393.801 271.701 402.308 269.958 410.209 266.289C414.461 264.314 418.497 261.938 422.534 259.562L422.534 259.562L422.535 259.561C426.117 257.453 429.699 255.345 433.433 253.516C440.722 249.944 448.961 247.336 457.163 248.325C458.958 248.542 460.738 248.934 462.45 249.516C462.804 249.636 463.149 249.761 463.49 249.884C465.053 250.449 466.525 250.982 468.281 250.889C471.914 250.699 475.342 248.674 477.72 245.997C483.451 239.545 482.279 229.863 481.225 221.996C480.365 215.57 479.488 209.148 478.611 202.726C478.172 199.514 477.734 196.303 477.297 193.091C476.43 186.713 475.567 180.334 474.704 173.955L474.703 173.946L474.702 173.938L474.701 173.929L474.7 173.92L474.698 173.912L474.697 173.903L474.696 173.895L474.695 173.886L474.694 173.877L474.693 173.869L474.691 173.86C472.959 161.052 471.226 148.244 469.461 135.44C467.482 121.085 465.028 105.959 457.354 93.3912C453.534 87.1342 448.336 81.7801 441.892 78.2173C434.819 74.306 426.778 72.6143 418.797 71.8562C409.956 71.0159 401.004 71.1518 392.134 71.3018C382.469 71.4647 372.811 71.9037 363.173 72.6203C344.008 74.0443 324.924 76.5554 306.046 80.1461L305.164 80.3137L305.164 80.3138L305.164 80.3138C287.742 83.6249 269.437 87.1039 253.801 95.8096C240.508 103.211 228.761 115.67 226.493 131.228C225.1 140.791 227.5 149.983 229.905 159.194C231.94 166.986 233.978 174.79 233.726 182.843C233.476 190.875 231.122 198.637 227.583 205.809ZM237.109 203.12C240.834 195.584 243.099 187.337 242.722 178.879C242.438 172.506 240.83 166.334 239.227 160.179L239.226 160.177C238.713 158.208 238.201 156.242 237.733 154.271C235.921 146.65 234.803 138.758 236.695 131.037C238.296 124.502 241.706 118.516 246.094 113.452C256.316 101.659 271.142 95.6707 285.897 91.7866C303.076 87.2648 320.734 84.2084 338.342 81.9535C356.491 79.6301 374.775 78.3695 393.069 78.184C393.712 78.1775 394.359 78.1702 395.008 78.1628L395.017 78.1627C409.344 78.0005 425.099 77.8222 437.686 85.4523C449.233 92.4517 455.209 105.006 458.494 117.643C460.214 124.257 461.309 131.014 462.247 137.775C463.079 143.763 463.888 149.756 464.697 155.748L464.7 155.77C465.104 158.759 465.507 161.748 465.914 164.736C466.73 170.748 467.56 176.758 468.389 182.769L468.389 182.77C470.072 194.967 471.754 207.164 473.334 219.375C474.22 226.221 474.933 234.376 470.471 240.227C468.708 242.539 466.224 244.396 463.449 245.298C460.516 246.252 458.104 245.766 455.302 244.723C447.168 241.693 438.146 243.877 430.51 247.299C426.304 249.184 422.338 251.52 418.371 253.858C415.144 255.759 411.917 257.66 408.559 259.319C394.35 266.339 378.685 266.211 363.214 266.085L362.234 266.078L361.561 266.072C353.519 266.012 345.422 266.064 337.468 267.389C329.743 268.676 322.422 271.356 315.775 275.504C304.507 282.534 295.686 292.679 287.03 302.634C286.193 303.597 285.358 304.558 284.521 305.514C274.516 316.958 263.918 327.722 250.71 335.482C238.089 342.899 223.266 347.633 208.501 346.225C195.789 345.012 183.299 339.23 174.47 329.951C165.16 320.163 161.235 306.987 163.713 293.691C168.023 270.551 185.58 255.732 202.857 241.148C209.924 235.183 216.944 229.257 222.992 222.818C228.545 216.91 233.449 210.368 237.109 203.12ZM206.989 238.64C218.963 228.51 230.626 217.684 237.804 203.498C237.813 203.483 237.822 203.468 237.831 203.451C241.115 196.803 243.3 189.606 243.532 182.158C243.764 174.711 241.879 167.493 239.998 160.287C237.773 151.769 235.553 143.267 236.841 134.423C238.935 120.039 249.8 108.523 262.089 101.68C276.544 93.632 293.469 90.4152 309.576 87.3538L310.401 87.1969C327.865 83.8771 345.517 81.5542 363.245 80.2364C372.161 79.5731 381.095 79.1672 390.034 79.0167C398.236 78.8782 406.513 78.7528 414.69 79.5294C422.07 80.2302 429.504 81.7953 436.046 85.4119C442.003 88.7055 446.805 93.6542 450.337 99.4379C457.432 111.059 459.7 125.046 461.529 138.319C463.149 150.071 464.739 161.827 466.329 173.583L466.33 173.591C467.145 179.61 467.959 185.628 468.777 191.646C469.166 194.511 469.557 197.376 469.948 200.241L469.952 200.265L469.952 200.266C470.776 206.304 471.6 212.343 472.409 218.383C473.384 225.651 474.469 234.601 469.174 240.562C466.979 243.032 463.813 244.902 460.462 245.076C458.842 245.161 457.484 244.669 456.043 244.147L456.043 244.147L456.042 244.147L456.042 244.147L456.042 244.147C455.728 244.033 455.409 243.918 455.083 243.807C453.498 243.267 451.849 242.903 450.187 242.703C442.594 241.786 434.968 244.199 428.221 247.505C424.769 249.196 421.457 251.146 418.145 253.095C414.409 255.294 410.673 257.493 406.738 259.321C399.431 262.713 391.566 264.325 383.567 264.943C377.216 265.435 370.83 265.366 364.446 265.298L364.445 265.298C355.122 265.199 345.8 265.099 336.592 266.742C329.66 267.979 323.042 270.326 316.955 273.875C311.084 277.298 305.828 281.665 300.961 286.384C295.684 291.504 290.861 297.047 286.038 302.591C281.519 307.785 277 312.98 272.106 317.826C251.487 338.244 220.445 353.665 191.757 341.009C179.905 335.781 169.531 326.186 165.518 313.627C160.98 299.428 165.689 284.306 173.543 272.225C181.397 260.141 192.482 250.831 203.431 241.635L203.435 241.632L203.439 241.629L203.443 241.625L203.446 241.622L203.45 241.619L203.454 241.616L203.458 241.612L203.462 241.609L203.466 241.606C204.643 240.617 205.819 239.629 206.989 238.64ZM252.525 178.463C252.872 186.23 250.792 193.801 247.371 200.722C244.008 207.381 239.504 213.39 234.409 218.819C228.851 224.736 222.4 230.181 215.908 235.662C200.027 249.067 183.891 262.688 179.928 283.96C177.65 296.188 181.258 308.303 189.819 317.305C197.935 325.838 209.422 331.156 221.111 332.272C234.688 333.567 248.316 329.215 259.922 322.395C272.061 315.261 281.803 305.369 290.998 294.851C291.765 293.973 292.533 293.09 293.302 292.206C301.254 283.06 309.358 273.739 319.711 267.28C325.813 263.472 332.538 261.009 339.629 259.828C346.937 258.609 354.378 258.561 361.768 258.617L362.242 258.621L363.282 258.629C377.503 258.745 391.903 258.862 404.964 252.41C408.049 250.886 411.015 249.139 413.98 247.391C417.625 245.244 421.27 243.096 425.135 241.365C432.144 238.224 440.426 236.215 447.893 238.997C450.474 239.958 452.7 240.406 455.404 239.525C457.958 238.693 460.247 236.983 461.87 234.855C465.974 229.471 465.323 221.969 464.507 215.67C463.059 204.477 461.516 193.295 459.974 182.114L459.974 182.114L459.974 182.114L459.974 182.113L459.973 182.113L459.973 182.113L459.973 182.113L459.973 182.112L459.973 182.112L459.973 182.109L459.972 182.104L459.972 182.1C459.206 176.554 458.441 171.008 457.687 165.46C457.333 162.848 456.98 160.236 456.627 157.624L456.626 157.614L456.624 157.605L456.623 157.596L456.623 157.592L456.622 157.589L456.622 157.586C455.861 151.952 455.1 146.317 454.319 140.685C453.454 134.469 452.447 128.256 450.867 122.177C447.846 110.555 442.347 99.0145 431.729 92.5783C420.157 85.5649 405.673 85.7289 392.501 85.878L392.493 85.8781L391.969 85.884L391.636 85.8877C391.328 85.8911 391.02 85.8944 390.714 85.8975C373.902 86.0676 357.1 87.2272 340.424 89.3614C324.239 91.4336 308.01 94.243 292.221 98.3995C278.656 101.972 265.027 107.479 255.631 118.319C251.595 122.976 248.459 128.482 246.987 134.493C245.246 141.591 246.274 148.846 247.939 155.852C248.37 157.664 248.841 159.473 249.313 161.283L249.313 161.284C250.786 166.938 252.263 172.608 252.525 178.463ZM248.101 201.027L248.097 201.038L248.09 201.05C241.495 214.114 230.762 224.079 219.74 233.402C218.653 234.321 217.561 235.239 216.467 236.157C206.409 244.606 196.226 253.159 189.011 264.258C181.801 275.349 177.477 289.235 181.641 302.272C185.326 313.805 194.853 322.615 205.736 327.417C232.083 339.041 260.596 324.874 279.533 306.123C284.031 301.669 288.184 296.895 292.337 292.121C296.768 287.027 301.199 281.934 306.048 277.229C310.522 272.89 315.354 268.875 320.751 265.729C326.35 262.465 332.435 260.306 338.812 259.168C347.275 257.658 355.842 257.749 364.411 257.841C370.277 257.903 376.144 257.966 381.979 257.515C389.327 256.947 396.551 255.466 403.262 252.35C406.877 250.671 410.308 248.652 413.739 246.632L413.739 246.632C416.784 244.84 419.829 243.047 423.003 241.493C429.208 238.453 436.223 236.235 443.205 237.078C444.736 237.263 446.253 237.598 447.713 238.096C448.013 238.198 448.305 238.304 448.594 238.408C449.913 238.886 451.156 239.336 452.639 239.258C455.71 239.097 458.612 237.384 460.623 235.12C465.482 229.65 464.484 221.433 463.59 214.763C462.844 209.197 462.084 203.632 461.324 198.067L461.322 198.049L461.319 198.03L461.317 198.012C460.961 195.406 460.605 192.8 460.251 190.194C459.536 184.934 458.825 179.674 458.113 174.415C456.615 163.338 455.117 152.262 453.59 141.189C451.91 128.999 449.827 116.15 443.31 105.476C440.068 100.165 435.659 95.6208 430.19 92.5977C424.181 89.2759 417.353 87.8392 410.574 87.194C403.064 86.4809 395.46 86.5958 387.925 86.7229C379.712 86.861 371.501 87.234 363.308 87.8438C347.018 89.0538 330.796 91.1899 314.748 94.2404L313.981 94.3863C299.188 97.1981 283.644 100.153 270.368 107.543C259.082 113.828 249.103 124.401 247.179 137.612C245.995 145.738 248.035 153.551 250.08 161.379C251.809 167.998 253.54 174.629 253.328 181.469C253.115 188.296 251.121 194.895 248.115 200.991L248.114 200.996L248.109 201.01C248.106 201.016 248.104 201.021 248.101 201.027ZM257.632 198.324C260.748 192.019 262.645 185.121 262.329 178.046C262.09 172.707 260.743 167.535 259.4 162.378C258.97 160.729 258.541 159.081 258.148 157.429C256.631 151.038 255.694 144.42 257.279 137.946C258.623 132.459 261.484 127.433 265.169 123.182C273.74 113.292 286.17 108.266 298.544 105.009C312.944 101.218 327.743 98.6558 342.502 96.7665C357.708 94.8197 373.028 93.7644 388.356 93.6082C388.893 93.6027 389.433 93.5966 389.975 93.5904L389.981 93.5904C401.999 93.4543 415.212 93.3046 425.771 99.7029C435.461 105.576 440.482 116.103 443.239 126.709C444.681 132.256 445.6 137.922 446.388 143.593C447.091 148.661 447.776 153.733 448.461 158.804L448.462 158.811L448.463 158.819L448.464 158.826C448.795 161.278 449.126 163.73 449.459 166.182C450.144 171.227 450.84 176.271 451.536 181.316L451.537 181.317L451.537 181.318L451.537 181.319L451.537 181.32L451.537 181.321L451.537 181.322L451.537 181.323L451.538 181.325L451.54 181.345L451.541 181.349C452.948 191.549 454.356 201.75 455.677 211.96C456.421 217.715 457.012 224.562 453.264 229.478C451.78 231.422 449.688 232.986 447.354 233.745C444.88 234.55 442.842 234.143 440.479 233.263C433.681 230.731 426.138 232.563 419.756 235.422C416.232 237 412.908 238.959 409.584 240.917C406.881 242.51 404.177 244.104 401.365 245.493C389.451 251.377 376.317 251.271 363.344 251.166L363.344 251.166C362.886 251.162 362.427 251.159 361.969 251.155C355.231 251.104 348.447 251.148 341.783 252.259C335.323 253.335 329.198 255.578 323.639 259.046C314.203 264.933 306.818 273.426 299.57 281.762C298.867 282.57 298.166 283.377 297.465 284.179C289.078 293.77 280.194 302.794 269.124 309.299C258.532 315.523 246.1 319.494 233.71 318.312C223.044 317.294 212.562 312.439 205.157 304.651C197.346 296.437 194.053 285.38 196.133 274.222C199.747 254.82 214.459 242.399 228.94 230.173C234.862 225.174 240.744 220.208 245.814 214.81C250.462 209.87 254.568 204.394 257.632 198.324ZM232.492 228.164C242.529 219.672 252.302 210.6 258.323 198.711C258.328 198.703 258.333 198.695 258.338 198.687C258.341 198.681 258.345 198.676 258.348 198.67L258.35 198.666L258.355 198.656C261.113 193.076 262.944 187.034 263.138 180.782C263.331 174.548 261.752 168.503 260.176 162.469C258.312 155.333 256.452 148.211 257.531 140.804C259.284 128.768 268.376 119.136 278.66 113.412C290.764 106.674 304.938 103.981 318.424 101.419L319.107 101.289C333.739 98.5067 348.529 96.5602 363.382 95.4565C370.851 94.9003 378.337 94.5603 385.827 94.4345C392.693 94.3189 399.622 94.2145 406.466 94.8642C412.645 95.4504 418.867 96.7603 424.343 99.7876C429.324 102.542 433.337 106.682 436.29 111.52C442.229 121.246 444.125 132.955 445.656 144.064C447.036 154.08 448.391 164.098 449.747 174.117L449.747 174.119L449.747 174.12L449.747 174.121L449.747 174.122L449.747 174.123L449.748 174.124L449.748 174.125L449.748 174.127L449.75 174.144C450.409 179.011 451.067 183.878 451.728 188.744C452.053 191.135 452.38 193.525 452.706 195.915C453.399 200.992 454.092 206.068 454.773 211.146C455.586 217.219 456.5 224.703 452.076 229.683C450.25 231.741 447.612 233.297 444.821 233.442C443.475 233.512 442.345 233.102 441.148 232.668C440.886 232.573 440.62 232.477 440.347 232.384C439.014 231.929 437.627 231.622 436.229 231.454C429.856 230.685 423.454 232.707 417.79 235.482C414.899 236.899 412.124 238.532 409.35 240.165L409.35 240.165L409.35 240.165L409.349 240.166L409.349 240.166L409.349 240.166L409.348 240.166L409.348 240.166L409.348 240.166L409.348 240.166L409.347 240.167C406.217 242.009 403.088 243.851 399.791 245.382C393.674 248.224 387.09 249.572 380.394 250.09C375.074 250.501 369.725 250.444 364.377 250.387L364.377 250.387C356.564 250.303 348.753 250.22 341.036 251.596C335.216 252.634 329.662 254.605 324.551 257.584C319.628 260.454 315.22 264.117 311.139 268.076C306.716 272.365 302.675 277.01 298.635 281.655C294.849 286.007 291.062 290.36 286.962 294.42C269.706 311.504 243.724 324.416 219.718 313.825C209.803 309.45 201.124 301.425 197.767 290.918C193.972 279.046 197.914 266.394 204.48 256.293C211.056 246.177 220.334 238.383 229.499 230.684C230.499 229.844 231.498 229.005 232.492 228.164ZM272.133 177.633C272.418 184.016 270.706 190.24 267.894 195.928C265.128 201.406 261.421 206.35 257.225 210.815C252.646 215.692 247.332 220.178 241.984 224.694C228.901 235.74 215.611 246.962 212.344 264.495C210.463 274.582 213.44 284.581 220.501 292.008C227.196 299.052 236.672 303.443 246.316 304.364C257.516 305.433 268.757 301.843 278.332 296.217C288.333 290.339 296.36 282.187 303.937 273.521C304.57 272.797 305.203 272.069 305.837 271.339C312.382 263.812 319.05 256.143 327.57 250.828C332.585 247.698 338.112 245.675 343.94 244.704C349.96 243.7 356.088 243.662 362.174 243.707L362.982 243.713L363.366 243.716L363.417 243.717C375.137 243.812 387.004 243.908 397.767 238.59C400.307 237.335 402.749 235.896 405.191 234.458C408.193 232.689 411.195 230.92 414.378 229.494C420.132 226.916 426.936 225.26 433.066 227.543C435.212 228.342 437.061 228.711 439.307 227.98C441.421 227.292 443.319 225.874 444.662 224.113C448.054 219.664 447.523 213.471 446.849 208.262C445.658 199.064 444.39 189.875 443.123 180.687C442.489 176.096 441.856 171.505 441.232 166.913C440.928 164.676 440.626 162.439 440.324 160.201L440.323 160.193L440.322 160.186L440.321 160.178L440.319 160.17L440.318 160.162L440.315 160.134L440.311 160.106L440.309 160.096C439.698 155.566 439.086 151.037 438.458 146.509C437.748 141.383 436.915 136.262 435.612 131.248C433.119 121.655 428.576 112.146 419.815 106.834C410.276 101.051 398.333 101.186 387.475 101.309L387.46 101.309L386.698 101.318L386.401 101.321L386.001 101.325C372.155 101.466 358.319 102.42 344.584 104.178C331.248 105.884 317.878 108.2 304.869 111.624C293.686 114.568 282.453 119.112 274.707 128.049C271.374 131.894 268.788 136.44 267.572 141.402C266.139 147.253 266.985 153.234 268.357 159.01C268.711 160.502 269.099 161.991 269.487 163.482L269.487 163.482L269.487 163.483L269.488 163.483L269.488 163.484L269.488 163.484L269.488 163.485L269.488 163.485L269.488 163.486C270.701 168.142 271.917 172.811 272.133 177.633ZM268.614 196.257C263.176 207.027 254.329 215.24 245.243 222.927C244.351 223.681 243.456 224.433 242.559 225.187L242.557 225.188L242.556 225.189L242.554 225.19L242.553 225.191C234.272 232.146 225.889 239.187 219.949 248.326C214.026 257.437 210.468 268.854 213.89 279.563C216.921 289.044 224.75 296.285 233.698 300.232C255.365 309.79 278.817 298.135 294.391 282.713C298.096 279.045 301.517 275.112 304.938 271.18L304.939 271.179C308.587 266.986 312.235 262.792 316.227 258.919C319.916 255.342 323.898 252.03 328.348 249.436C332.971 246.742 337.992 244.959 343.256 244.02C350.225 242.777 357.279 242.852 364.336 242.928L364.336 242.928L364.336 242.928L364.336 242.928L364.337 242.928L364.337 242.928L364.337 242.928L364.338 242.928L364.338 242.928C369.169 242.98 374 243.031 378.806 242.66C384.852 242.193 390.795 240.974 396.316 238.41C399.294 237.028 402.12 235.364 404.947 233.701L404.947 233.7L404.947 233.7L404.948 233.7L404.948 233.7L404.949 233.699L404.949 233.699L404.949 233.699L404.95 233.699C407.456 232.224 409.962 230.749 412.574 229.469C417.696 226.959 423.486 225.133 429.249 225.829C430.515 225.982 431.771 226.261 432.979 226.672C433.222 226.755 433.46 226.842 433.694 226.927C434.772 227.318 435.788 227.686 437 227.625C439.512 227.495 441.883 226.095 443.528 224.242C447.516 219.751 446.689 213.003 445.956 207.528C445.365 203.113 444.763 198.7 444.16 194.287C443.842 191.956 443.524 189.625 443.207 187.293C442.61 182.901 442.016 178.508 441.422 174.114C440.196 165.054 438.971 155.994 437.722 146.936C436.34 136.909 434.629 126.338 429.269 117.559C426.605 113.197 422.985 109.46 418.492 106.975C413.548 104.242 407.932 103.061 402.354 102.53C396.176 101.942 389.92 102.038 383.722 102.142C376.957 102.256 370.195 102.564 363.449 103.065C350.032 104.063 336.674 105.821 323.457 108.333L322.833 108.451C310.66 110.764 297.867 113.195 286.942 119.275C277.663 124.441 269.456 133.132 267.872 143.993C266.898 150.681 268.578 157.113 270.262 163.558C271.685 169.006 273.111 174.463 272.937 180.093C272.762 185.746 271.107 191.21 268.614 196.257ZM278.156 193.53C280.662 188.458 282.193 182.909 281.937 177.217C281.745 172.917 280.66 168.752 279.579 164.6L279.579 164.599L279.579 164.598L279.579 164.597L279.578 164.596L279.578 164.595L279.578 164.594L279.577 164.593C279.23 163.259 278.883 161.926 278.566 160.59C277.341 155.431 276.586 150.085 277.867 144.856C278.954 140.419 281.266 136.352 284.247 132.915C291.168 124.929 301.202 120.867 311.194 118.237C322.814 115.178 334.756 113.109 346.666 111.585C358.929 110.015 371.284 109.164 383.646 109.039C384.082 109.034 384.521 109.029 384.961 109.024C394.663 108.914 405.337 108.793 413.86 113.96C421.693 118.709 425.758 127.206 427.986 135.782C429.152 140.262 429.894 144.838 430.531 149.418C431.11 153.586 431.672 157.756 432.235 161.926C432.492 163.83 432.749 165.733 433.007 167.635C433.553 171.652 434.107 175.669 434.662 179.685C435.805 187.972 436.949 196.26 438.022 204.555C438.625 209.218 439.095 214.756 436.058 218.74C434.854 220.317 433.154 221.588 431.262 222.206C429.245 222.861 427.584 222.532 425.656 221.815C420.193 219.781 414.13 221.262 409.003 223.559C406.161 224.832 403.481 226.412 400.8 227.991C398.62 229.276 396.439 230.56 394.171 231.681C384.555 236.431 373.955 236.345 363.486 236.261L363.481 236.261C363.114 236.258 362.747 236.255 362.381 236.252C356.945 236.211 351.475 236.246 346.101 237.141C340.905 238.007 335.978 239.812 331.506 242.601C323.898 247.348 317.945 254.194 312.102 260.915C311.538 261.564 310.975 262.212 310.411 262.856C303.644 270.596 296.474 277.879 287.54 283.128C278.98 288.158 268.935 291.365 258.923 290.411C250.301 289.588 241.831 285.66 235.847 279.362C229.536 272.721 226.875 263.781 228.554 254.764C231.473 239.099 243.342 229.076 255.028 219.207C259.803 215.175 264.547 211.169 268.638 206.814C272.379 202.829 275.688 198.419 278.156 193.53ZM257.995 217.689C266.103 210.831 273.994 203.503 278.854 193.901C278.858 193.895 278.862 193.888 278.866 193.882L278.873 193.869L278.877 193.86C281.108 189.348 282.585 184.462 282.741 179.407C282.895 174.384 281.623 169.513 280.352 164.65C278.849 158.897 277.349 153.156 278.219 147.186C279.629 137.499 286.951 129.751 295.228 125.144C304.972 119.72 316.385 117.552 327.242 115.489L327.81 115.381C339.611 113.137 351.539 111.567 363.518 110.677C369.543 110.229 375.579 109.954 381.62 109.853C387.15 109.76 392.731 109.675 398.245 110.199C403.221 110.671 408.231 111.724 412.643 114.163C416.649 116.378 419.874 119.71 422.249 123.599C427.032 131.431 428.557 140.864 429.789 149.809C430.892 157.814 431.975 165.822 433.059 173.83C433.6 177.834 434.142 181.838 434.686 185.842C434.971 187.94 435.257 190.038 435.544 192.135L435.546 192.151C436.081 196.07 436.616 199.989 437.141 203.909C437.795 208.785 438.537 214.801 434.983 218.802C433.522 220.446 431.415 221.689 429.183 221.805C428.111 221.86 427.211 221.533 426.258 221.187L426.256 221.186C426.046 221.11 425.833 221.033 425.615 220.959C424.532 220.589 423.408 220.339 422.273 220.202C417.12 219.581 411.944 221.211 407.363 223.455C405.03 224.598 402.791 225.915 400.552 227.233L400.552 227.233L400.552 227.233L400.552 227.233L400.552 227.233L400.552 227.233L400.552 227.233L400.551 227.234L400.551 227.234L400.551 227.234L400.551 227.234L400.55 227.234L400.55 227.234L400.55 227.234L400.55 227.235C398.027 228.719 395.504 230.204 392.847 231.439C387.919 233.727 382.619 234.814 377.224 235.23C372.934 235.562 368.62 235.516 364.307 235.47C358.006 235.402 351.706 235.335 345.482 236.445C340.773 237.284 336.285 238.878 332.15 241.288C328.173 243.606 324.615 246.566 321.319 249.764C317.753 253.223 314.495 256.968 311.238 260.713C308.183 264.224 305.129 267.734 301.821 271.01C287.93 284.764 267.008 295.166 247.681 286.64C239.701 283.12 232.719 276.664 230.017 268.208C226.966 258.662 230.14 248.482 235.419 240.36C240.719 232.206 248.197 225.924 255.585 219.718C256.39 219.042 257.195 218.366 257.995 217.689ZM291.741 176.8C291.965 181.802 290.62 186.676 288.418 191.133C286.247 195.432 283.337 199.309 280.043 202.812C276.442 206.646 272.266 210.173 268.064 213.723L268.063 213.723C257.776 222.412 247.329 231.235 244.76 245.03C243.28 252.978 245.624 260.857 251.185 266.712C256.458 272.262 263.924 275.729 271.523 276.454C280.349 277.295 289.199 274.47 296.744 270.037C304.608 265.415 310.921 259.002 316.879 252.188C317.372 251.623 317.865 251.056 318.359 250.487C323.5 244.573 328.738 238.547 335.433 234.37C339.36 231.919 343.691 230.334 348.253 229.574C352.984 228.786 357.798 228.755 362.58 228.792C362.902 228.794 363.224 228.797 363.546 228.799C372.765 228.873 382.101 228.949 390.569 224.766C392.567 223.78 394.488 222.648 396.409 221.516C398.767 220.127 401.124 218.739 403.623 217.619C408.123 215.603 413.445 214.3 418.241 216.084C419.951 216.72 421.423 217.011 423.211 216.429C424.883 215.884 426.388 214.76 427.452 213.366C430.134 209.85 429.723 204.967 429.19 200.849C428.244 193.536 427.236 186.231 426.228 178.926L426.227 178.913L426.225 178.901L426.223 178.888C425.739 175.378 425.255 171.869 424.778 168.359C424.545 166.644 424.313 164.93 424.082 163.216C423.592 159.585 423.102 155.955 422.598 152.326C422.039 148.29 421.383 144.259 420.357 140.313C418.392 132.751 414.806 125.269 407.901 121.083C400.39 116.532 390.988 116.638 382.44 116.735C382.054 116.74 381.669 116.744 381.287 116.748C370.408 116.858 359.535 117.608 348.744 118.989C338.259 120.331 327.745 122.152 317.516 124.845C308.714 127.163 299.878 130.744 293.781 137.778C291.154 140.809 289.117 144.396 288.158 148.309C287.031 152.914 287.695 157.623 288.774 162.168C289.053 163.343 289.359 164.515 289.664 165.688C290.617 169.345 291.572 173.012 291.741 176.8ZM289.125 191.484C284.845 199.949 277.892 206.406 270.747 212.451C270.05 213.041 269.348 213.631 268.646 214.22C262.141 219.684 255.556 225.215 250.888 232.393C246.252 239.525 243.463 248.47 246.141 256.853C248.515 264.282 254.649 269.954 261.661 273.046C278.648 280.541 297.041 271.395 309.248 259.305C312.157 256.425 314.843 253.337 317.529 250.25C320.398 246.952 323.267 243.654 326.407 240.609C329.311 237.793 332.445 235.184 335.947 233.142C339.594 231.016 343.55 229.611 347.703 228.871C353.178 227.894 358.721 227.954 364.264 228.013L364.265 228.013C368.061 228.053 371.859 228.094 375.637 227.802C380.381 227.435 385.04 226.48 389.372 224.468C391.712 223.382 393.932 222.075 396.152 220.768L396.153 220.768L396.153 220.768L396.153 220.768L396.153 220.768L396.153 220.768L396.153 220.768C398.123 219.608 400.093 218.449 402.147 217.443C406.187 215.463 410.75 214.03 415.294 214.579C416.296 214.699 417.29 214.922 418.245 215.247C418.436 215.313 418.622 215.38 418.806 215.447L418.806 215.447C419.639 215.75 420.424 216.036 421.361 215.989C423.311 215.888 425.155 214.8 426.432 213.362C429.55 209.851 428.894 204.567 428.322 200.291C427.821 196.559 427.312 192.829 426.802 189.098L426.799 189.074C426.586 187.513 426.373 185.952 426.16 184.392C425.681 180.867 425.204 177.341 424.728 173.816C423.774 166.77 422.821 159.724 421.85 152.681C420.766 144.818 419.428 136.523 415.224 129.639C413.139 126.223 410.307 123.295 406.789 121.351C402.911 119.206 398.506 118.281 394.131 117.865C389.283 117.404 384.376 117.479 379.514 117.562C374.198 117.652 368.885 117.893 363.583 118.287C353.042 119.071 342.544 120.453 332.161 122.427L331.648 122.525C322.106 124.338 312.075 126.244 303.51 131.01C296.238 135.059 289.8 141.864 288.56 150.379C287.795 155.629 289.115 160.68 290.438 165.742C291.556 170.019 292.675 174.303 292.54 178.72C292.404 183.177 291.102 187.486 289.136 191.464C289.133 191.471 289.129 191.478 289.125 191.484ZM298.679 188.736C300.577 184.897 301.738 180.696 301.546 176.386C301.399 173.116 300.574 169.949 299.752 166.792C299.487 165.777 299.223 164.764 298.982 163.748C298.05 159.818 297.476 155.747 298.451 151.765C299.281 148.376 301.044 145.271 303.319 142.645C308.591 136.562 316.229 133.464 323.84 131.46C332.68 129.133 341.763 127.558 350.825 126.398C360.146 125.205 369.535 124.557 378.931 124.463C379.26 124.459 379.591 124.456 379.923 124.452C387.316 124.368 395.448 124.276 401.944 128.212C407.92 131.833 411.029 138.305 412.73 144.849C413.618 148.263 414.184 151.749 414.67 155.24C415.127 158.533 415.571 161.829 416.016 165.125L416.016 165.127L416.017 165.128L416.02 165.154C416.197 166.465 416.374 167.775 416.552 169.086C416.966 172.135 417.387 175.183 417.807 178.231L417.808 178.235L417.811 178.261L417.812 178.264C418.68 184.556 419.548 190.848 420.363 197.147C420.825 200.719 421.175 204.948 418.85 207.997C417.927 209.207 416.619 210.186 415.165 210.66C413.608 211.167 412.321 210.915 410.832 210.36C406.703 208.826 402.12 209.952 398.249 211.688C396.089 212.655 394.052 213.856 392.013 215.057C390.357 216.033 388.699 217.009 386.976 217.861C379.653 221.479 371.579 221.413 363.606 221.348L363.606 221.348L362.789 221.341C358.659 221.311 354.501 221.337 350.415 222.018C346.484 222.673 342.751 224.039 339.369 226.149C333.595 229.751 329.077 234.947 324.642 240.049C324.212 240.543 323.783 241.036 323.353 241.527C318.205 247.417 312.749 252.958 305.953 256.952C299.423 260.789 291.768 263.232 284.13 262.503C277.555 261.876 271.09 258.875 266.531 254.069C261.721 248.998 259.69 242.182 260.972 235.301C263.194 223.375 272.219 215.75 281.108 208.241C284.738 205.174 288.345 202.126 291.458 198.813C294.297 195.788 296.807 192.444 298.679 188.736ZM283.498 207.213C289.674 201.99 295.682 196.408 299.385 189.093C299.39 189.084 299.395 189.075 299.399 189.066C301.101 185.62 302.227 181.89 302.344 178.031C302.459 174.218 301.493 170.519 300.528 166.828L300.528 166.827C299.385 162.458 298.246 158.098 298.906 153.567C299.975 146.227 305.526 140.363 311.796 136.874C319.181 132.765 327.831 131.121 336.06 129.558L336.513 129.471C345.482 127.766 354.548 126.573 363.652 125.897C368.23 125.557 372.82 125.348 377.41 125.271C381.605 125.199 385.838 125.135 390.02 125.532C393.795 125.891 397.594 126.689 400.94 128.539C403.972 130.214 406.408 132.738 408.205 135.68C411.829 141.617 412.982 148.773 413.918 155.554C414.742 161.541 415.552 167.531 416.363 173.521C416.788 176.661 417.212 179.801 417.639 182.94C417.844 184.445 418.049 185.949 418.254 187.453L418.258 187.48L418.261 187.507L418.263 187.517C418.679 190.568 419.095 193.619 419.505 196.672C419.998 200.352 420.568 204.902 417.886 207.922C416.793 209.153 415.213 210.086 413.542 210.171C412.745 210.211 412.076 209.967 411.368 209.709C411.208 209.651 411.045 209.592 410.879 209.535C410.049 209.251 409.187 209.058 408.317 208.953C404.382 208.479 400.431 209.716 396.934 211.43C395.16 212.299 393.458 213.301 391.756 214.303L391.756 214.303L391.756 214.303L391.756 214.303L391.756 214.303L391.756 214.303C389.838 215.432 387.921 216.56 385.901 217.498C382.163 219.233 378.144 220.058 374.052 220.374C370.791 220.626 367.512 220.591 364.235 220.556C359.445 220.504 354.656 220.453 349.926 221.297C346.331 221.94 342.905 223.157 339.748 224.997C336.718 226.762 334.008 229.02 331.498 231.455C328.788 234.084 326.311 236.931 323.835 239.777C321.514 242.446 319.193 245.114 316.679 247.603C306.152 258.026 290.291 265.918 275.643 259.456C269.599 256.789 264.314 251.903 262.266 245.498C259.96 238.279 262.364 230.571 266.357 224.428C270.384 218.233 276.064 213.462 281.676 208.747L281.677 208.747L281.692 208.734C282.296 208.227 282.898 207.72 283.498 207.213ZM311.337 175.748C311.545 179.444 310.567 183.043 308.941 186.338C307.363 189.46 305.251 192.272 302.859 194.816C300.236 197.609 297.198 200.177 294.142 202.759C286.658 209.085 279.066 215.503 277.183 225.555C276.107 231.301 277.771 237.027 281.759 241.295C285.59 245.395 291.04 247.967 296.607 248.532C302.98 249.178 309.381 247.188 314.861 244.032C320.623 240.714 325.266 236.064 329.613 231.101C330.038 230.616 330.463 230.128 330.888 229.638C334.569 225.404 338.31 221.1 343.071 218.064C345.887 216.268 348.998 215.079 352.287 214.499C355.706 213.895 359.192 213.857 362.654 213.878C362.865 213.879 363.078 213.881 363.29 213.882L363.851 213.886C370.407 213.938 377.066 213.989 383.109 211.076C384.66 210.328 386.144 209.454 387.627 208.58L387.628 208.58C389.326 207.58 391.025 206.58 392.824 205.768C396.077 204.302 399.945 203.335 403.42 204.628C404.637 205.081 405.698 205.307 406.982 204.924C408.208 204.559 409.311 203.769 410.119 202.783C412.141 200.315 411.949 196.79 411.582 193.818C410.925 188.482 410.18 183.155 409.435 177.829L409.435 177.826C409.068 175.209 408.702 172.592 408.347 169.974C408.17 168.675 407.995 167.377 407.819 166.079L407.817 166.063C407.466 163.471 407.116 160.878 406.758 158.286C406.355 155.361 405.883 152.44 405.152 149.576C403.739 144.04 401.154 138.53 396.131 135.426C390.664 132.047 383.816 132.109 377.577 132.166L377.555 132.166L377.282 132.169L376.925 132.172C369.037 132.237 361.152 132.767 353.325 133.752C345.65 134.718 337.963 136.05 330.469 137.991C324.005 139.666 317.503 142.241 312.984 147.363C311.064 149.537 309.569 152.107 308.819 154.919C307.939 158.231 308.339 161.642 309.099 164.934C309.324 165.912 309.578 166.885 309.831 167.859L309.832 167.859C310.508 170.457 311.186 173.06 311.337 175.748ZM309.643 186.702C306.549 192.802 301.561 197.477 296.41 201.84C296.184 202.033 295.956 202.225 295.728 202.417C295.388 202.703 295.046 202.99 294.705 203.277C290.074 207.165 285.392 211.097 282.021 216.168C278.575 221.352 276.438 227.902 278.366 234.055C280.059 239.459 284.496 243.587 289.583 245.843C301.906 251.308 315.274 244.659 324.128 235.879C326.235 233.79 328.182 231.552 330.129 229.315L330.129 229.315L330.13 229.314L330.13 229.314L330.13 229.313C332.184 226.953 334.238 224.593 336.479 222.406C340.813 218.179 345.788 214.931 351.81 213.787C355.899 213.011 360.048 213.056 364.196 213.1C366.829 213.129 369.462 213.157 372.08 212.976C375.503 212.738 378.89 212.111 382.04 210.707C383.891 209.881 385.637 208.854 387.382 207.828L387.382 207.827L387.382 207.827L387.383 207.827L387.383 207.827L387.383 207.827L387.383 207.827L387.383 207.827L387.384 207.827C388.712 207.046 390.04 206.264 391.416 205.571C394.324 204.106 397.582 203.027 400.876 203.285C401.665 203.348 402.443 203.494 403.199 203.726C403.427 203.796 403.649 203.882 403.871 203.967L403.871 203.967C404.333 204.145 404.793 204.321 405.297 204.354C406.774 204.45 408.232 203.661 409.222 202.611C411.587 200.103 411.109 196.213 410.692 193.091C410.362 190.617 410.024 188.144 409.686 185.67L409.681 185.633C409.497 184.287 409.313 182.941 409.131 181.595C408.783 179.037 408.437 176.48 408.09 173.922C407.398 168.813 406.706 163.704 406.005 158.595C405.221 152.879 404.272 146.842 401.244 141.82C399.734 139.317 397.678 137.161 395.108 135.735C392.312 134.185 389.141 133.511 385.985 133.206C382.491 132.867 378.956 132.92 375.45 132.977C371.61 133.038 367.772 133.21 363.941 133.49C356.281 134.051 348.652 135.046 341.104 136.472L340.644 136.559L340.644 136.559L340.643 136.559C333.684 137.873 326.358 139.255 320.113 142.722C314.857 145.639 310.203 150.524 309.265 156.665C308.677 160.514 309.645 164.224 310.616 167.942C311.437 171.09 312.26 174.243 312.142 177.492C312.025 180.701 311.076 183.8 309.663 186.667C309.656 186.679 309.65 186.691 309.643 186.702ZM319.203 183.94C320.514 181.275 321.31 178.369 321.144 175.38C321.023 173.196 320.472 171.081 319.922 168.97C319.707 168.145 319.492 167.32 319.303 166.493C318.69 163.809 318.385 161.029 319.124 158.336C319.763 156.009 321.02 153.894 322.629 152.108C326.31 148.024 331.546 145.961 336.754 144.613C342.86 143.032 349.121 141.946 355.375 141.161C361.815 140.352 368.304 139.923 374.795 139.88L375.157 139.878C380.24 139.843 385.808 139.805 390.254 142.599C394.33 145.161 396.412 149.684 397.549 154.199C398.584 158.311 399.107 162.564 399.627 166.79L399.627 166.792C399.794 168.151 399.961 169.507 400.144 170.855C400.429 172.953 400.723 175.052 401.018 177.15L401.018 177.15L401.018 177.15L401.018 177.15C401.623 181.466 402.229 185.783 402.755 190.108C403.048 192.516 403.178 195.335 401.569 197.344C400.254 198.984 398.186 199.748 396.202 198.976C391.615 197.191 387.205 199.781 383.161 202.156C382.085 202.788 381.035 203.404 380.014 203.919C374.86 206.522 369.191 206.474 363.557 206.427L363.557 206.427L363.444 206.426C357.795 206.38 352.136 206.622 347.211 209.707C343.269 212.175 340.186 215.721 337.156 219.208L337.156 219.209C336.814 219.601 336.474 219.993 336.133 220.382C332.579 224.44 328.781 228.243 324.062 230.947C319.603 233.503 314.397 235.112 309.218 234.578C304.691 234.112 300.265 232.023 297.145 228.692C293.884 225.21 292.52 220.541 293.389 215.848C294.908 207.654 301.099 202.42 307.195 197.265C309.647 195.192 312.084 193.131 314.196 190.896C316.166 188.81 317.902 186.505 319.203 183.94ZM309.306 196.48C313.433 192.975 317.399 189.211 319.892 184.329C319.898 184.321 319.904 184.312 319.909 184.303C319.916 184.292 319.922 184.281 319.928 184.27C321.083 181.92 321.855 179.388 321.949 176.758C322.042 174.127 321.374 171.572 320.708 169.022C319.918 166 319.13 162.984 319.612 159.856C320.399 154.758 324.34 150.745 328.739 148.405C333.822 145.702 339.707 144.597 345.321 143.544L345.321 143.544L345.608 143.49C351.733 142.341 357.923 141.539 364.139 141.092C367.247 140.869 370.36 140.732 373.476 140.685C376.308 140.642 379.168 140.601 381.989 140.886C384.54 141.143 387.097 141.703 389.347 142.973C391.439 144.155 393.095 145.94 394.307 147.998C396.746 152.14 397.479 157.09 398.116 161.778C398.944 167.862 399.77 173.946 400.596 180.03L400.647 180.402C400.78 181.382 400.914 182.362 401.049 183.342C401.337 185.443 401.625 187.546 401.903 189.65C402.24 192.212 402.571 195.42 400.479 197.362C399.645 198.134 398.46 198.7 397.302 198.501C396.967 198.443 396.645 198.32 396.324 198.196C396.103 198.111 395.882 198.026 395.656 197.962C395.051 197.792 394.429 197.693 393.802 197.655C391.176 197.5 388.6 198.353 386.28 199.517C385.152 200.084 384.065 200.724 382.977 201.363L382.977 201.363L382.977 201.363L382.977 201.364C381.622 202.16 380.268 202.957 378.837 203.612C376.293 204.776 373.559 205.318 370.78 205.526C368.58 205.69 366.369 205.667 364.158 205.643L364.158 205.643C360.884 205.608 357.611 205.573 354.376 206.149C349.485 207.02 345.42 209.557 341.872 212.957C339.935 214.813 338.176 216.835 336.416 218.857C334.898 220.602 333.379 222.347 331.746 223.986C324.567 231.191 313.656 236.719 303.585 232.261C299.455 230.435 295.853 227.084 294.487 222.695C292.918 217.655 294.722 212.293 297.574 208.076C300.298 204.048 304.035 200.91 307.736 197.803L307.736 197.803C308.261 197.362 308.786 196.922 309.306 196.48ZM330.922 174.601C331.134 177.028 330.527 179.374 329.465 181.544C328.444 183.55 327.08 185.348 325.531 186.971C323.929 188.651 322.092 190.206 320.244 191.77L320.243 191.771C315.537 195.753 310.758 199.798 309.594 206.136C308.933 209.737 309.971 213.327 312.459 216.012C314.869 218.615 318.308 220.257 321.826 220.623C330.266 221.502 337.328 215.726 342.536 209.793C342.832 209.455 343.128 209.115 343.424 208.773C345.71 206.143 348.03 203.473 350.98 201.581C354.826 199.115 359.243 198.934 363.678 198.97C368.011 199.007 372.367 199.042 376.333 197.051C377.192 196.619 378.021 196.13 378.85 195.642L378.85 195.641L378.851 195.641C379.981 194.975 381.11 194.309 382.315 193.788C383.43 193.306 384.604 192.942 385.818 192.84C387.003 192.742 387.972 193.004 389.082 193.362C390.539 193.832 392.117 193.066 393.018 191.908C394.219 190.362 394.143 188.24 393.926 186.4C393.524 182.987 393.041 179.581 392.56 176.175C392.326 174.522 392.092 172.87 391.867 171.217C391.73 170.209 391.605 169.195 391.481 168.179L391.48 168.177L391.48 168.176C391.079 164.909 390.674 161.621 389.849 158.448C388.951 155.002 387.314 151.601 384.194 149.663C380.775 147.539 376.51 147.567 372.61 147.593L372.352 147.595C367.258 147.626 362.166 147.966 357.113 148.611C352.321 149.223 347.516 150.057 342.84 151.286C338.831 152.341 334.816 153.97 332.014 157.145C330.833 158.484 329.91 160.059 329.421 161.784C328.848 163.813 329.036 165.911 329.484 167.944C329.641 168.659 329.826 169.369 330.011 170.078C330.399 171.57 330.788 173.062 330.922 174.601ZM330.166 181.909C328.007 186.124 324.497 189.095 320.98 192.072C318.128 194.484 315.273 196.901 313.131 199.986C310.875 203.235 309.399 207.407 310.611 211.336C311.662 214.749 314.476 217.336 317.693 218.727C325.538 222.116 333.954 217.647 339.441 212.013C340.577 210.846 341.648 209.617 342.718 208.388C344.122 206.777 345.525 205.166 347.077 203.695C349.767 201.145 352.86 199.252 356.545 198.586C359.046 198.135 361.579 198.162 364.112 198.188L364.112 198.188L364.113 198.188C365.723 198.205 367.334 198.222 368.937 198.116C371.071 197.975 373.18 197.603 375.147 196.739C376.34 196.216 377.461 195.556 378.582 194.897C379.305 194.471 380.028 194.046 380.769 193.658C382.589 192.705 384.609 191.967 386.69 192.03C387.594 192.056 388.373 192.294 389.218 192.572C390.175 192.888 391.121 192.588 391.88 191.953C393.615 190.503 393.33 187.937 393.069 185.94C392.861 184.353 392.643 182.766 392.425 181.179C392.316 180.385 392.207 179.592 392.099 178.798C391.972 177.865 391.846 176.932 391.719 176L391.446 173.984L391.444 173.971L391.442 173.959C391.011 170.78 390.58 167.6 390.145 164.421C389.656 160.849 389.087 157.071 387.211 153.923C386.265 152.334 384.969 150.968 383.339 150.076C381.565 149.106 379.555 148.704 377.561 148.523C372.99 148.109 368.274 148.395 363.708 148.739C358.94 149.099 354.192 149.728 349.495 150.624L349.166 150.687L349.166 150.687C344.809 151.517 340.202 152.395 336.335 154.652C333.102 156.54 330.293 159.667 329.892 163.522C329.657 165.779 330.225 167.951 330.794 170.128C331.312 172.113 331.832 174.101 331.744 176.159C331.659 178.162 331.062 180.082 330.186 181.872C330.182 181.88 330.178 181.888 330.174 181.895C330.171 181.9 330.169 181.905 330.166 181.909ZM339.726 179.147C340.477 177.602 340.894 175.956 340.724 174.232C340.622 173.193 340.359 172.184 340.097 171.175L340.097 171.175C339.952 170.619 339.807 170.064 339.69 169.503C339.098 166.68 339.686 164.039 341.658 161.893C343.692 159.681 346.549 158.569 349.399 157.841C352.712 156.995 356.102 156.405 359.494 155.985C362.955 155.554 366.441 155.33 369.928 155.312L370.038 155.311C372.815 155.297 375.845 155.28 378.271 156.814C380.471 158.205 381.618 160.631 382.243 163.075C382.815 165.315 383.101 167.634 383.385 169.938C383.474 170.662 383.563 171.384 383.66 172.102C383.817 173.255 383.985 174.409 384.154 175.564L384.154 175.565C384.507 177.983 384.861 180.404 385.109 182.829C385.239 184.083 385.23 185.521 384.398 186.556C383.763 187.346 382.695 187.881 381.675 187.625C381.484 187.578 381.303 187.525 381.127 187.474C380.622 187.326 380.151 187.189 379.565 187.208C378.738 187.234 377.932 187.455 377.167 187.759C376.216 188.137 375.336 188.656 374.455 189.174C373.902 189.5 373.348 189.826 372.778 190.117C369.956 191.556 366.865 191.539 363.773 191.514C360.68 191.489 357.589 191.617 354.915 193.353C352.871 194.679 351.264 196.53 349.675 198.361L349.674 198.362C349.385 198.694 349.097 199.026 348.807 199.354C345.14 203.5 340.014 207.45 334.122 206.63C329.185 205.943 324.886 201.712 325.787 196.497C326.565 191.983 329.952 189.112 333.286 186.285C334.57 185.197 335.846 184.115 336.962 182.949C338.053 181.811 339.006 180.551 339.726 179.147ZM340.446 179.475C340.452 179.464 340.457 179.453 340.461 179.443C341.057 178.206 341.47 176.887 341.542 175.509C341.62 174.039 341.25 172.62 340.882 171.204C340.487 169.687 340.092 168.173 340.249 166.6C340.529 163.788 342.688 161.542 345.079 160.261C347.782 158.811 350.921 158.221 353.911 157.659L354.102 157.623C357.328 157.016 360.587 156.589 363.86 156.344C367.017 156.108 370.277 155.91 373.437 156.19C376.251 156.44 378.745 157.48 380.213 160.004C381.526 162.261 381.892 164.955 382.238 167.501L382.238 167.502L382.242 167.53C382.462 169.147 382.682 170.763 382.901 172.38C383.131 174.07 383.36 175.76 383.59 177.45C383.667 178.021 383.746 178.591 383.825 179.161C383.972 180.229 384.12 181.298 384.257 182.368C384.445 183.843 384.608 185.781 383.099 186.638C382.484 186.988 381.993 186.889 381.359 186.675C380.755 186.471 380.121 186.4 379.486 186.422C378.076 186.473 376.73 187.019 375.504 187.678C375.05 187.922 374.604 188.183 374.158 188.445C373.278 188.963 372.396 189.481 371.447 189.861C370.06 190.417 368.579 190.627 367.095 190.702C366.097 190.752 365.093 190.741 364.089 190.73L364.089 190.73C362.2 190.709 360.309 190.688 358.452 191.074C354.307 191.935 351.635 194.966 348.978 197.981L348.978 197.981C348.226 198.834 347.474 199.686 346.692 200.487C342.868 204.399 336.997 207.488 331.558 205.083C329.287 204.079 327.315 202.202 326.668 199.749C325.938 196.974 327.091 194.085 328.72 191.859C330.2 189.838 332.102 188.225 334.001 186.615L334.001 186.615C336.466 184.526 338.925 182.441 340.446 179.475ZM350.526 173.862C350.65 174.883 350.425 175.829 349.988 176.749C349.126 178.393 347.717 179.598 346.311 180.799C344.595 182.265 342.884 183.727 342.185 185.979C341.145 189.333 343.747 192.35 347.066 192.72C350.449 193.095 353.349 190.871 355.461 188.485C355.633 188.292 355.803 188.095 355.974 187.898C356.91 186.818 357.86 185.722 359.088 184.978C360.635 184.039 362.422 184.052 364.172 184.064C364.3 184.065 364.428 184.066 364.556 184.066C366.428 184.074 368.075 183.848 369.72 182.913C369.869 182.829 370.017 182.742 370.166 182.654C370.873 182.239 371.59 181.818 372.401 181.66C372.935 181.556 373.382 181.619 373.89 181.768C374.155 181.846 374.382 181.898 374.66 181.856C376.179 181.626 376.373 179.946 376.234 178.715C376.074 177.301 375.871 175.89 375.669 174.48C375.568 173.777 375.468 173.074 375.372 172.371C375.319 171.978 375.272 171.563 375.224 171.134C374.926 168.473 374.57 165.297 372.18 163.857C370.779 163.013 369.066 163.019 367.483 163.025C365.447 163.032 363.411 163.164 361.39 163.414C359.427 163.659 357.463 164.001 355.548 164.499C353.949 164.912 352.362 165.545 351.2 166.76C350.151 167.856 349.655 169.27 349.856 170.778C349.924 171.287 350.055 171.783 350.186 172.279C350.324 172.802 350.462 173.324 350.526 173.862ZM350.731 177.025C351.525 175.319 351.368 173.781 350.919 171.995C350.663 170.975 350.425 169.924 350.776 168.894C351.05 168.092 351.599 167.399 352.245 166.862C353.716 165.636 355.722 165.22 357.55 164.846C359.545 164.437 361.565 164.149 363.595 163.981C365.403 163.833 367.253 163.729 369.066 163.841C370.67 163.94 372.17 164.408 373.064 165.835C373.858 167.101 374.07 168.658 374.267 170.112L374.275 170.171C374.425 171.263 374.573 172.355 374.721 173.448C374.82 174.178 374.919 174.908 375.018 175.639C375.065 175.981 375.112 176.323 375.159 176.666C375.245 177.285 375.33 177.905 375.41 178.525L375.421 178.606C375.524 179.4 375.676 180.568 374.802 180.974C374.486 181.12 374.221 181.039 373.936 180.951C373.819 180.914 373.698 180.877 373.569 180.854C373.244 180.796 372.905 180.792 372.576 180.83C371.894 180.908 371.24 181.169 370.636 181.484C370.337 181.64 370.046 181.811 369.755 181.982C369.309 182.245 368.863 182.507 368.389 182.713C367.627 183.044 366.816 183.186 365.992 183.242C365.347 183.285 364.698 183.278 364.05 183.272C363.047 183.261 362.045 183.25 361.055 183.426C358.483 183.883 356.852 185.725 355.219 187.568C354.989 187.829 354.758 188.089 354.525 188.346C352.38 190.703 349.061 192.875 345.772 191.587C344.44 191.064 343.242 190.011 342.854 188.597C342.403 186.964 343.144 185.266 344.136 183.988C344.97 182.916 345.993 182.042 347.014 181.171C348.418 179.971 349.817 178.777 350.708 177.077C350.717 177.06 350.725 177.042 350.731 177.025Z" fill="url(#paint0_linear_788_721)"/>
<defs>
<linearGradient id="paint0_linear_788_721" x1="410.625" y1="24.0143" x2="67.9845" y2="283.501" gradientUnits="userSpaceOnUse">
<stop stop-color="#023436"/>
<stop offset="0.34086" stop-color="#00F1B5" stop-opacity="0.16"/>
<stop offset="0.995488" stop-color="#023436"/>
</linearGradient>
</defs>
</svg>
