<svg width="236" height="430" viewBox="0 0 236 430" fill="none" xmlns="http://www.w3.org/2000/svg">
<path d="M167.418 429.511C175.65 409.528 176.755 389.683 165.347 372.089C163.42 369.117 160.911 365.26 158.425 361.438C114.772 294.329 81.4536 243.106 94.2473 183.017C103.75 138.385 197.404 95.1287 251.783 73.5051L251.513 72.9943C197.036 94.6701 103.233 138.04 93.6814 182.896C80.8372 243.218 114.213 294.528 157.941 361.752C160.017 364.943 162.125 368.185 164.861 372.404C176.075 389.698 175.084 409.208 167.085 428.885L167.416 429.512L167.418 429.511Z" fill="url(#paint0_linear_1212_2826)"/>
<path d="M164.088 423.211C175.808 400.289 179.19 377.139 166.101 356.954C164.191 354.007 161.667 350.127 159.179 346.303C115.526 279.193 82.2055 227.97 95.0003 167.88C104.096 125.167 190.265 83.7124 245.32 61.2748L245.051 60.7652C189.898 83.2571 103.577 124.829 94.436 167.76C81.5919 228.082 114.968 279.393 158.697 346.616C160.769 349.802 162.863 353.021 165.616 357.267C178.514 377.158 175.265 399.98 163.776 422.618L164.089 423.21L164.088 423.211Z" fill="url(#paint1_linear_1212_2826)"/>
<path d="M160.361 416.157C175.537 390.644 181.487 364.376 166.855 341.811C164.936 338.851 162.421 334.983 159.933 331.16C116.28 264.05 82.96 212.827 95.7548 152.737C104.464 111.842 183.825 72.1006 238.886 49.0972L238.618 48.5898C183.459 71.6493 103.943 111.509 95.1906 152.617C82.3464 212.939 115.723 264.249 159.45 331.473C161.525 334.661 163.626 337.892 166.37 342.124C180.812 364.396 175.01 390.344 160.063 415.593L160.361 416.157Z" fill="url(#paint2_linear_1212_2826)"/>
<path d="M156.862 409.534C175.011 381.982 183.421 353.078 167.517 328.55C165.604 325.6 163.082 321.723 160.595 317.901C116.942 250.791 83.6223 199.568 96.4171 139.478C104.799 100.11 178.655 61.8121 233.28 38.485L233.013 37.9787C178.288 61.3641 104.278 99.782 95.8512 139.358C83.007 199.679 116.384 250.99 160.111 318.214C162.186 321.403 164.281 324.624 167.031 328.865C182.746 353.1 174.495 381.685 156.573 408.987L156.862 409.534Z" fill="url(#paint3_linear_1212_2826)"/>
<path d="M153.306 402.802C174.271 373.452 185.244 342.051 168.158 315.701C166.233 312.733 163.72 308.871 161.235 305.05C117.582 237.94 84.2621 186.718 97.0569 126.628C105.135 88.6963 173.996 51.7587 227.872 28.2475L227.605 27.7423C173.627 51.3141 104.612 88.373 96.4926 126.508C83.6485 186.829 117.024 238.139 160.752 305.364C162.828 308.555 164.933 311.791 167.672 316.016C184.567 342.069 173.763 373.152 153.021 402.263L153.306 402.802Z" fill="url(#paint4_linear_1212_2826)"/>
<path d="M149.509 395.613C173.289 364.584 187.076 330.656 168.817 302.498C166.893 299.529 164.38 295.667 161.895 291.847C118.242 224.737 84.9217 173.514 97.7165 113.424C104.985 79.2892 161.484 45.9588 211.987 22.4923L209.11 23.2085C159.181 46.6692 104.335 79.5698 97.1522 113.304C84.308 173.626 117.685 224.936 161.412 292.16C163.488 295.352 165.592 298.588 168.331 302.811C186.396 330.671 172.789 364.279 149.227 395.08L149.509 395.613Z" fill="url(#paint5_linear_1212_2826)"/>
<path d="M145.81 388.613C172.168 356.143 188.778 319.844 169.439 290.02C167.523 287.065 165.003 283.191 162.516 279.369C118.864 212.259 85.5434 161.036 98.3382 100.946C103.406 77.1456 132.414 53.7344 166.63 33.7844L164.738 34.2555C131.103 54.08 102.793 77.2488 97.7722 100.826C84.9281 161.147 118.305 212.458 162.032 279.682C164.107 282.871 166.204 286.097 168.951 290.333C188.095 319.856 171.675 355.833 145.529 388.084L145.809 388.613L145.81 388.613Z" fill="url(#paint6_linear_1212_2826)"/>
<path d="M141.698 380.828C170.745 346.953 190.597 308.098 170.112 276.505C168.188 273.537 165.675 269.675 163.19 265.855C119.537 198.745 86.2165 147.522 99.0113 87.432C102.36 71.7107 116.158 56.1573 135 41.6597L133.698 41.9833C115.245 56.352 101.762 71.7429 98.4476 87.3131C85.6034 147.635 118.98 198.945 162.707 266.169C164.783 269.36 166.889 272.596 169.627 276.82C189.912 308.106 170.262 346.638 141.421 380.304L141.698 380.828Z" fill="url(#paint7_linear_1212_2826)"/>
<defs>
<linearGradient id="paint0_linear_1212_2826" x1="119.921" y1="390.062" x2="167.627" y2="102.312" gradientUnits="userSpaceOnUse">
<stop stop-color="white"/>
<stop offset="0.530624" stop-color="#2047F4" stop-opacity="0.26"/>
<stop offset="1" stop-color="white"/>
</linearGradient>
<linearGradient id="paint1_linear_1212_2826" x1="116.032" y1="382.699" x2="167.299" y2="91.6587" gradientUnits="userSpaceOnUse">
<stop stop-color="white"/>
<stop offset="0.530624" stop-color="#2047F4" stop-opacity="0.26"/>
<stop offset="1" stop-color="white"/>
</linearGradient>
<linearGradient id="paint2_linear_1212_2826" x1="111.824" y1="374.735" x2="166.148" y2="80.9725" gradientUnits="userSpaceOnUse">
<stop stop-color="white"/>
<stop offset="0.530624" stop-color="#2047F4" stop-opacity="0.26"/>
<stop offset="1" stop-color="white"/>
</linearGradient>
<linearGradient id="paint3_linear_1212_2826" x1="107.953" y1="367.407" x2="164.652" y2="71.5915" gradientUnits="userSpaceOnUse">
<stop stop-color="white"/>
<stop offset="0.530624" stop-color="#2047F4" stop-opacity="0.26"/>
<stop offset="1" stop-color="white"/>
</linearGradient>
<linearGradient id="paint4_linear_1212_2826" x1="104.069" y1="360.055" x2="162.856" y2="62.4794" gradientUnits="userSpaceOnUse">
<stop stop-color="white"/>
<stop offset="0.530624" stop-color="#2047F4" stop-opacity="0.26"/>
<stop offset="1" stop-color="white"/>
</linearGradient>
<linearGradient id="paint5_linear_1212_2826" x1="100.947" y1="351.764" x2="167.451" y2="59.9838" gradientUnits="userSpaceOnUse">
<stop stop-color="white"/>
<stop offset="0.530624" stop-color="#2047F4" stop-opacity="0.26"/>
<stop offset="1" stop-color="white"/>
</linearGradient>
<linearGradient id="paint6_linear_1212_2826" x1="100.951" y1="342.271" x2="190.495" y2="87.3137" gradientUnits="userSpaceOnUse">
<stop stop-color="white"/>
<stop offset="0.530624" stop-color="#2047F4" stop-opacity="0.26"/>
<stop offset="1" stop-color="white"/>
</linearGradient>
<linearGradient id="paint7_linear_1212_2826" x1="99.6845" y1="333.244" x2="200.159" y2="113.43" gradientUnits="userSpaceOnUse">
<stop stop-color="white"/>
<stop offset="0.530624" stop-color="#2047F4" stop-opacity="0.26"/>
<stop offset="1" stop-color="white"/>
</linearGradient>
</defs>
</svg>
