<svg width="651" height="698" viewBox="0 0 651 698" fill="none" xmlns="http://www.w3.org/2000/svg">
<path fill-rule="evenodd" clip-rule="evenodd" d="M163.681 277.033C164.368 292.403 160.261 307.393 153.491 321.092C146.851 334.242 137.959 346.115 127.897 356.833C116.956 368.48 104.25 379.202 91.4563 389.996C60.1961 416.371 28.4187 443.183 20.6254 485.014C16.1556 509.007 23.2357 532.773 40.0471 550.429C55.984 567.165 78.5249 577.582 101.46 579.77C128.101 582.313 154.872 573.758 177.645 560.375C201.539 546.333 220.707 526.869 238.808 506.167C240.314 504.444 241.819 502.713 243.327 500.979L243.328 500.977L243.33 500.976L243.331 500.974L243.332 500.972L243.343 500.961C259.035 482.912 275.029 464.517 295.457 451.771C307.544 444.23 320.848 439.358 334.893 437.017C349.296 434.617 363.956 434.523 378.519 434.633C379.53 434.64 380.54 434.649 381.552 434.657C409.526 434.884 437.844 435.114 463.536 422.424C469.615 419.421 475.46 415.977 481.305 412.534L481.305 412.533C488.487 408.302 495.668 404.071 503.282 400.659C517.191 394.428 533.612 390.483 548.423 396.003C553.409 397.862 557.702 398.736 562.925 397.035C567.9 395.416 572.347 392.094 575.507 387.948C583.529 377.431 582.213 362.727 580.622 350.426C577.756 328.281 574.704 306.158 571.651 284.036L571.651 284.036L571.651 284.034L571.651 284.032L571.651 284.03L571.65 284.028L571.65 284.026L571.65 284.025L571.65 284.023L571.649 284.021L571.649 284.019L571.649 284.017L571.649 284.015L571.648 284.013L571.648 284.011L571.648 284.009L571.648 284.007L571.647 284.005L571.647 284.003L571.647 284.001L571.646 283.999L571.646 283.997C570.151 273.163 568.656 262.328 567.183 251.491C566.464 246.201 565.75 240.91 565.036 235.62L565.035 235.61L565.034 235.605C563.552 224.625 562.07 213.646 560.546 202.672C558.85 190.456 556.875 178.249 553.769 166.301C547.844 143.507 537.086 120.824 516.257 108.189C493.532 94.4028 465.075 94.7246 439.199 95.0173L439.196 95.0174L439.186 95.0175C437.996 95.0309 436.813 95.0443 435.635 95.0562C402.508 95.3911 369.4 97.6747 336.539 101.881C304.681 105.96 272.736 111.484 241.657 119.666C214.996 126.684 188.191 137.49 169.719 158.8C161.81 167.925 155.653 178.712 152.766 190.492C149.347 204.446 151.372 218.704 154.647 232.477C155.494 236.039 156.42 239.594 157.347 243.152L157.347 243.154C160.252 254.304 163.165 265.486 163.681 277.033ZM154.231 321.372C154.226 321.388 154.219 321.404 154.21 321.42C139.919 349.724 116.292 369.659 92.6323 389.622C72.4791 406.626 52.3017 423.651 37.8486 445.885C23.5612 467.864 15.0123 495.343 23.266 521.171C30.5558 543.986 49.4127 561.429 70.9439 570.927C123.033 593.906 179.373 565.936 216.815 528.861C225.68 520.083 233.866 510.674 242.051 501.264C250.78 491.23 259.509 481.195 269.063 471.928C277.854 463.401 287.358 455.515 297.963 449.333C308.934 442.937 320.872 438.705 333.364 436.478C350.04 433.503 366.92 433.683 383.805 433.863C395.363 433.987 406.925 434.11 418.424 433.221C432.933 432.1 447.21 429.173 460.462 423.02C467.589 419.71 474.354 415.729 481.118 411.747L481.119 411.746L481.119 411.746C487.115 408.217 493.112 404.687 499.362 401.625C511.525 395.666 525.277 391.294 538.966 392.945C541.946 393.304 544.912 393.946 547.754 394.921C548.323 395.116 548.88 395.318 549.43 395.517C552.116 396.49 554.643 397.405 557.659 397.244C563.814 396.919 569.619 393.49 573.648 388.953C583.297 378.091 581.353 361.809 579.577 348.558C578.135 337.794 576.666 327.035 575.197 316.275L575.196 316.272C574.462 310.896 573.728 305.52 572.998 300.143C571.556 289.53 570.12 278.916 568.684 268.302L568.684 268.298L568.683 268.294L568.683 268.291L568.682 268.287L568.682 268.283L568.681 268.28L568.681 268.276L568.68 268.272L568.68 268.268L568.679 268.265L568.679 268.261L568.678 268.257L568.677 268.253L568.677 268.25L568.676 268.246L568.676 268.242L568.675 268.238L568.675 268.235L568.674 268.231L568.672 268.21C565.757 246.665 562.843 225.12 559.874 203.582C556.553 179.488 552.428 154.118 539.548 133.023C533.124 122.501 524.379 113.513 513.545 107.523C501.679 100.963 488.183 98.1192 474.796 96.8468C459.963 95.4382 444.948 95.6647 430.066 95.9144C413.88 96.1869 397.703 96.9229 381.559 98.1229C349.46 100.509 317.496 104.716 285.873 110.728L284.451 110.998C255.204 116.556 224.483 122.394 198.238 137.012C175.916 149.447 156.199 170.381 152.392 196.506C150.056 212.535 154.078 227.937 158.108 243.368C161.519 256.433 164.937 269.52 164.506 283.026C164.078 296.44 160.143 309.398 154.231 321.372ZM173.485 276.618C174.14 291.298 170.219 305.612 163.752 318.696C157.409 331.255 148.917 342.595 139.304 352.835C128.852 363.963 116.714 374.206 104.492 384.518L104.491 384.518C74.631 409.714 44.2774 435.325 36.8323 475.286C32.5604 498.209 39.3259 520.916 55.3874 537.785C70.6135 553.776 92.1491 563.729 114.062 565.819C139.516 568.247 165.091 560.075 186.851 547.288C209.675 533.875 227.986 515.281 245.277 495.504C246.72 493.854 248.163 492.195 249.607 490.533C264.597 473.292 279.874 455.72 299.387 443.546C310.931 436.344 323.636 431.691 337.049 429.456C350.808 427.163 364.812 427.073 378.722 427.178L379.69 427.186L380.205 427.19L381.619 427.201L381.625 427.201L381.625 427.201C408.347 427.418 435.397 427.637 459.938 415.515C465.743 412.647 471.324 409.358 476.904 406.07L476.905 406.07C483.768 402.026 490.629 397.983 497.905 394.724C511.187 388.773 526.867 385.004 541.01 390.276C545.777 392.053 549.883 392.887 554.877 391.261C559.63 389.714 563.88 386.538 566.902 382.577C574.567 372.525 573.312 358.478 571.791 346.721C569.053 325.56 566.136 304.418 563.219 283.278L563.219 283.277L563.218 283.271L563.218 283.269L563.218 283.268L563.218 283.267L563.218 283.266L563.217 283.264L563.217 283.263L563.217 283.262L563.217 283.261L563.217 283.259L563.217 283.258L563.216 283.257L563.216 283.256L563.216 283.254L563.216 283.253L563.216 283.252L563.216 283.251L563.215 283.249L563.215 283.248L563.215 283.247C561.788 272.904 560.361 262.561 558.955 252.216C558.288 247.306 557.625 242.395 556.962 237.484L556.961 237.479L556.961 237.474L556.96 237.469L556.959 237.464L556.959 237.46C555.524 226.833 554.089 216.206 552.615 205.583C550.994 193.911 549.108 182.25 546.141 170.835C540.48 149.056 530.2 127.387 510.3 115.315C488.589 102.146 461.402 102.453 436.681 102.733L436.677 102.733L436.656 102.733C435.525 102.746 434.399 102.759 433.279 102.77C401.633 103.091 370.009 105.272 338.619 109.289C308.186 113.185 277.67 118.463 247.981 126.279C222.509 132.983 196.902 143.307 179.255 163.666C171.697 172.384 165.815 182.692 163.057 193.947C159.791 207.277 161.725 220.898 164.854 234.056C165.663 237.456 166.547 240.848 167.432 244.244L167.432 244.244C170.208 254.899 172.992 265.584 173.485 276.618ZM164.446 319.076C150.791 346.086 128.235 365.117 105.648 384.175C86.3972 400.418 67.123 416.681 53.3168 437.92C39.6725 458.909 31.5083 485.152 39.3892 509.817C46.3518 531.606 64.3605 548.265 84.9235 557.335C134.672 579.282 188.482 552.566 224.243 517.157C232.708 508.776 240.524 499.791 248.34 490.807C256.682 481.218 265.023 471.63 274.153 462.774C282.551 454.629 291.631 447.093 301.761 441.189C312.245 435.079 323.649 431.035 335.587 428.905C351.515 426.064 367.638 426.236 383.765 426.408L383.765 426.408C394.808 426.525 405.853 426.643 416.838 425.794C430.696 424.723 444.333 421.928 456.99 416.051C463.799 412.889 470.261 409.086 476.723 405.282C482.451 401.911 488.179 398.54 494.148 395.615C505.769 389.921 518.908 385.745 531.989 387.323C534.837 387.667 537.672 388.28 540.387 389.211C540.93 389.397 541.462 389.59 541.987 389.78C544.55 390.708 546.962 391.58 549.838 391.429C555.712 391.119 561.255 387.845 565.101 383.516C574.314 373.144 572.457 357.596 570.762 344.942C569.371 334.571 567.956 324.203 566.541 313.835L566.541 313.833L566.541 313.832L566.54 313.822L566.538 313.813L566.537 313.804C565.85 308.768 565.162 303.732 564.478 298.695C563.098 288.542 561.725 278.388 560.351 268.234C557.565 247.639 554.78 227.045 551.941 206.459C548.77 183.446 544.83 159.215 532.528 139.067C526.393 129.02 518.043 120.434 507.697 114.715C496.363 108.449 483.475 105.734 470.689 104.519C456.521 103.172 442.179 103.39 427.966 103.628C412.505 103.888 397.051 104.591 381.63 105.738C350.967 108.016 320.435 112.034 290.229 117.778L288.864 118.038C260.933 123.346 231.592 128.922 206.527 142.884C185.208 154.76 166.377 174.751 162.741 199.702C160.511 215.013 164.352 229.724 168.201 244.464C171.46 256.943 174.724 269.443 174.313 282.344C173.903 295.175 170.137 307.571 164.476 319.024C164.467 319.042 164.457 319.06 164.446 319.076ZM174.013 316.298C180.174 303.832 183.912 290.19 183.288 276.202C182.818 265.687 180.164 255.503 177.519 245.349C176.675 242.112 175.832 238.878 175.062 235.637C172.079 223.095 170.236 210.11 173.349 197.403C175.979 186.673 181.587 176.845 188.792 168.532C205.614 149.125 230.023 139.283 254.304 132.89C282.602 125.441 311.69 120.41 340.698 116.697C370.615 112.867 400.758 110.789 430.92 110.484C431.996 110.473 433.076 110.461 434.162 110.448C457.728 110.182 483.644 109.889 504.342 122.443C523.315 133.951 533.116 154.607 538.514 175.371C541.343 186.251 543.142 197.369 544.687 208.494C546.066 218.429 547.409 228.37 548.751 238.311C549.409 243.187 550.068 248.064 550.731 252.94C552.071 262.804 553.432 272.667 554.793 282.529C557.574 302.684 560.354 322.84 562.965 343.016C564.415 354.227 565.61 367.62 558.301 377.205C555.42 380.984 551.366 384.013 546.832 385.489C542.068 387.04 538.15 386.245 533.601 384.549C520.127 379.527 505.185 383.12 492.53 388.788C485.596 391.894 479.057 395.747 472.518 399.6L472.517 399.601C467.198 402.735 461.877 405.87 456.343 408.604C432.95 420.159 407.165 419.95 381.693 419.743C380.771 419.736 379.85 419.728 378.929 419.722C365.671 419.622 352.324 419.707 339.209 421.892C326.427 424.021 314.321 428.455 303.322 435.318C284.726 446.92 270.168 463.664 255.884 480.093L255.883 480.093C254.505 481.679 253.129 483.261 251.752 484.836C235.271 503.687 217.816 521.412 196.059 534.196C175.315 546.386 150.935 554.176 126.669 551.861C105.779 549.869 85.2466 540.379 70.7313 525.134C55.4198 509.053 48.9705 487.403 53.0414 465.55C60.1385 427.458 89.0706 403.045 117.533 379.029L117.533 379.029L117.533 379.028L117.534 379.028L117.534 379.028L117.534 379.028L117.534 379.028L117.535 379.027L117.535 379.027L117.535 379.027L117.535 379.027L117.536 379.026L117.536 379.026L117.536 379.026L117.536 379.026L117.537 379.026L117.537 379.025L117.537 379.025L117.537 379.025L117.538 379.025C129.185 369.197 140.753 359.436 150.713 348.831C159.875 339.074 167.968 328.268 174.013 316.298ZM174.732 316.626C174.74 316.611 174.747 316.596 174.752 316.581C180.136 305.673 183.718 293.871 184.107 281.654C184.499 269.359 181.388 257.446 178.282 245.553C174.613 231.504 170.952 217.482 173.078 202.89C176.544 179.112 194.489 160.061 214.805 148.746C238.689 135.442 266.65 130.128 293.265 125.069L294.575 124.82C323.366 119.347 352.466 115.517 381.692 113.345C396.39 112.252 411.12 111.582 425.856 111.334C439.401 111.106 453.07 110.898 466.572 112.182C478.758 113.339 491.04 115.928 501.842 121.899C511.699 127.349 519.656 135.531 525.502 145.105C537.225 164.306 540.98 187.398 544.003 209.329C546.695 228.861 549.338 248.399 551.981 267.937C553.302 277.706 554.624 287.475 555.951 297.243C556.604 302.048 557.26 306.852 557.916 311.656C559.266 321.544 560.616 331.431 561.941 341.322C563.557 353.376 565.328 368.192 556.55 378.074C552.888 382.198 547.61 385.315 542.016 385.61C539.279 385.754 536.984 384.924 534.545 384.041L534.542 384.04C534.041 383.859 533.535 383.675 533.017 383.498C530.427 382.61 527.724 382.025 525.008 381.696C512.537 380.192 500.011 384.172 488.931 389.601C483.242 392.389 477.783 395.602 472.324 398.815L472.324 398.815C466.164 402.441 460.005 406.066 453.515 409.08C441.453 414.683 428.458 417.345 415.25 418.367C404.781 419.176 394.256 419.063 383.732 418.951L383.732 418.951L383.732 418.951L383.731 418.951L383.731 418.951L383.731 418.951L383.731 418.951L383.73 418.951L383.73 418.951L383.73 418.951L383.73 418.951L383.729 418.951L383.729 418.951L383.729 418.951L383.729 418.951L383.728 418.951L383.728 418.951L383.728 418.951L383.728 418.951L383.727 418.952C368.356 418.787 352.989 418.623 337.808 421.331C326.426 423.362 315.554 427.217 305.559 433.042C295.901 438.671 287.246 445.855 279.24 453.619C270.541 462.058 262.592 471.195 254.644 480.332L254.643 480.333C247.192 488.898 239.741 497.464 231.671 505.454C197.593 539.196 146.312 564.658 98.9042 543.743C79.3109 535.099 62.1505 519.224 55.5151 498.461C48.0053 474.959 55.7865 449.952 68.7862 429.953C81.9455 409.709 100.316 394.209 118.665 378.727C140.207 360.55 161.72 342.398 174.732 316.626ZM193.093 275.787C193.687 289.083 190.134 302.049 184.276 313.9C178.53 325.28 170.835 335.554 162.128 344.829C152.655 354.914 141.654 364.197 130.579 373.542C103.514 396.381 76.0032 419.595 69.2538 455.819C65.3823 476.602 71.5153 497.191 86.077 512.486C99.8814 526.985 119.408 536.012 139.276 537.907C162.353 540.109 185.541 532.701 205.269 521.107C225.956 508.95 242.553 492.097 258.225 474.172C259.534 472.675 260.842 471.17 262.152 469.663C275.734 454.042 289.575 438.122 307.256 427.091C317.71 420.568 329.221 416.353 341.369 414.328C353.837 412.249 366.529 412.169 379.135 412.264C379.993 412.27 380.851 412.277 381.709 412.284L381.756 412.284C405.978 412.481 430.5 412.68 452.746 401.691C458.007 399.092 463.066 396.112 468.123 393.132L468.124 393.132L468.124 393.131C474.343 389.467 480.561 385.803 487.154 382.849C499.18 377.46 513.382 374.043 526.189 378.818C530.522 380.43 534.25 381.188 538.787 379.712C543.1 378.309 546.957 375.425 549.699 371.83C556.652 362.714 555.517 349.974 554.138 339.309C551.658 320.151 549.018 301.012 546.377 281.873L546.377 281.872L546.377 281.872L546.377 281.871L546.377 281.871L546.377 281.87L546.377 281.87L546.377 281.87L546.377 281.869L546.377 281.869L546.377 281.868L546.377 281.868L546.377 281.867L546.377 281.867L546.376 281.866L546.376 281.866L546.376 281.865L546.376 281.865L546.376 281.865L546.375 281.855C545.078 272.459 543.782 263.063 542.505 253.664C541.867 248.973 541.233 244.281 540.6 239.589L540.599 239.585L540.599 239.584L540.599 239.583L540.599 239.582L540.599 239.581L540.599 239.581L540.599 239.58L540.598 239.579L540.598 239.578L540.598 239.577L540.598 239.577L540.598 239.576L540.598 239.575L540.598 239.574L540.598 239.573L540.597 239.573L540.597 239.572L540.597 239.571L540.597 239.57C539.329 230.18 538.061 220.789 536.758 211.403C535.29 200.822 533.578 190.25 530.889 179.903C525.755 160.156 516.432 140.512 498.387 129.567C478.703 117.628 454.058 117.907 431.646 118.16L431.64 118.16L431.638 118.16L431.609 118.161L431.604 118.161L431.568 118.161L431.553 118.161C430.553 118.173 429.557 118.184 428.566 118.194C399.888 118.486 371.227 120.463 342.78 124.103C315.197 127.634 287.538 132.418 260.629 139.502C237.54 145.58 214.329 154.94 198.331 173.396C191.478 181.302 186.145 190.649 183.644 200.855C180.682 212.94 182.435 225.289 185.271 237.216C186.005 240.3 186.807 243.378 187.609 246.46L187.61 246.46C190.124 256.112 192.646 265.792 193.093 275.787ZM184.984 314.252C172.61 338.744 152.162 355.998 131.686 373.276C114.238 387.997 96.7699 402.737 84.2571 421.987C71.9005 440.996 64.5023 464.768 71.641 487.109C77.9476 506.846 94.2596 521.935 112.887 530.153C157.955 550.036 206.705 525.83 239.102 493.752C246.774 486.155 253.859 478.012 260.943 469.868C268.502 461.18 276.06 452.491 284.333 444.467C291.946 437.082 300.176 430.252 309.36 424.898C318.865 419.356 329.208 415.69 340.032 413.758C354.467 411.184 369.078 411.339 383.693 411.495L383.694 411.495C393.701 411.602 403.71 411.709 413.667 410.939C426.223 409.969 438.576 407.436 450.044 402.111C456.214 399.246 462.07 395.799 467.927 392.352C473.118 389.296 478.309 386.241 483.719 383.59C494.258 378.427 506.171 374.642 518.032 376.074C520.616 376.385 523.187 376.943 525.652 377.789C526.143 377.958 526.624 378.132 527.099 378.304C529.416 379.143 531.597 379.933 534.199 379.796C539.513 379.516 544.527 376.555 548.005 372.638C556.346 363.245 554.662 349.163 553.126 337.707C551.865 328.292 550.58 318.88 549.295 309.469C548.673 304.911 548.05 300.353 547.431 295.795C546.168 286.507 544.912 277.218 543.655 267.93C541.142 249.352 538.63 230.775 536.069 212.205C533.195 191.357 529.628 169.403 518.483 151.15C512.927 142.05 505.363 134.273 495.994 129.092C485.726 123.414 474.049 120.955 462.463 119.855C449.627 118.635 436.632 118.832 423.755 119.049C409.744 119.285 395.738 119.922 381.764 120.961C353.976 123.027 326.306 126.667 298.93 131.873L297.679 132.111C272.377 136.92 245.798 141.971 223.091 154.618C203.779 165.375 186.718 183.484 183.425 206.086C181.404 219.959 184.885 233.29 188.373 246.647C191.326 257.955 194.284 269.281 193.912 280.972C193.542 292.607 190.127 303.846 184.995 314.232L184.989 314.242L184.984 314.252ZM194.536 311.504C200.089 300.269 203.458 287.978 202.895 275.371C202.471 265.89 200.078 256.707 197.693 247.551C196.932 244.632 196.173 241.717 195.478 238.795C192.788 227.483 191.126 215.77 193.933 204.31C196.306 194.628 201.365 185.761 207.866 178.262C223.039 160.759 245.052 151.88 266.952 146.115C292.471 139.396 318.701 134.859 344.86 131.512C371.836 128.058 399.014 126.184 426.209 125.908C427.175 125.898 428.146 125.887 429.122 125.876L429.13 125.876C450.385 125.635 473.76 125.371 492.428 136.693C509.544 147.075 518.39 165.705 523.26 184.437C525.811 194.251 527.434 204.277 528.828 214.312C530.081 223.339 531.301 232.37 532.52 241.402L532.523 241.425L532.527 241.457C533.109 245.768 533.691 250.078 534.277 254.387C535.487 263.295 536.716 272.202 537.945 281.108L537.945 281.109C540.451 299.267 542.956 317.426 545.308 335.603C546.616 345.723 547.692 357.808 541.095 366.458C538.493 369.87 534.831 372.605 530.738 373.938C526.43 375.341 522.889 374.621 518.776 373.088C506.636 368.564 493.175 371.804 481.775 376.913C475.524 379.713 469.629 383.187 463.733 386.661C458.935 389.487 454.137 392.314 449.146 394.779C428.05 405.201 404.796 405.012 381.827 404.826L380.965 404.819C380.422 404.815 379.879 404.81 379.336 404.806C367.381 404.716 355.348 404.792 343.523 406.764C332.007 408.683 321.096 412.679 311.184 418.862C294.419 429.322 281.295 444.417 268.416 459.228L268.41 459.235C267.17 460.662 265.931 462.086 264.692 463.503C249.83 480.501 234.09 496.486 214.47 508.015C195.757 519.012 173.765 526.038 151.876 523.95C133.029 522.152 114.509 513.589 101.415 499.836C87.6038 485.328 81.7869 465.797 85.459 446.083C91.859 411.729 117.947 389.715 143.614 368.056C154.117 359.193 164.549 350.39 173.533 340.825C181.792 332.034 189.089 322.293 194.536 311.504ZM195.256 311.832C195.259 311.826 195.262 311.82 195.265 311.814L195.271 311.8L195.274 311.792C200.133 301.951 203.363 291.301 203.714 280.278C204.066 269.195 201.261 258.456 198.461 247.735C195.153 235.069 191.852 222.427 193.769 209.271C196.892 187.843 213.068 170.676 231.376 160.478C252.901 148.489 278.1 143.699 302.087 139.14L303.281 138.913C329.239 133.979 355.479 130.525 381.83 128.567C395.082 127.581 408.362 126.977 421.65 126.754C433.86 126.548 446.18 126.362 458.35 127.518C469.334 128.561 480.405 130.893 490.141 136.276C499.024 141.187 506.192 148.559 511.459 157.186C522.026 174.491 525.409 195.307 528.133 215.074C530.585 232.869 532.993 250.67 535.401 268.471L535.401 268.472L535.403 268.48L535.404 268.49L535.405 268.499L535.406 268.508L535.408 268.517L535.409 268.527L535.41 268.536L535.411 268.545L535.413 268.555L535.414 268.564L535.415 268.573L535.417 268.582L535.418 268.592L535.419 268.601L535.42 268.61C536.581 277.187 537.741 285.765 538.906 294.341C539.518 298.844 540.132 303.346 540.747 307.848L540.748 307.856L540.751 307.88L540.753 307.891C541.944 316.622 543.136 325.352 544.306 334.085C545.762 344.944 547.362 358.292 539.455 367.195C536.158 370.906 531.409 373.71 526.376 373.976C523.914 374.105 521.849 373.358 519.656 372.564L519.655 372.563C519.204 372.4 518.748 372.235 518.282 372.075C515.943 371.273 513.502 370.744 511.05 370.448C499.799 369.091 488.498 372.679 478.501 377.577C473.369 380.091 468.446 382.989 463.522 385.887C457.97 389.155 452.418 392.423 446.568 395.14C435.695 400.189 423.982 402.59 412.078 403.51C402.638 404.24 393.147 404.139 383.658 404.038C369.797 403.89 355.941 403.743 342.252 406.184C331.984 408.015 322.174 411.493 313.157 416.75C304.446 421.828 296.64 428.307 289.419 435.31C281.577 442.918 274.411 451.156 267.245 459.393C260.526 467.118 253.807 474.842 246.529 482.048C215.815 512.458 169.595 535.411 126.866 516.56C109.208 508.769 93.744 494.465 87.7647 475.753C80.9971 454.576 88.0105 432.04 99.7241 414.02C111.402 396.057 127.885 382.213 144.163 368.539L144.164 368.539L144.177 368.528C145.948 367.04 147.716 365.555 149.476 364.066C167.271 349.014 184.606 332.924 195.256 311.832ZM212.701 274.956C213.233 286.871 210.048 298.488 204.8 309.106C199.649 319.305 192.752 328.513 184.949 336.826C176.456 345.869 166.593 354.192 156.664 362.571L156.663 362.572L156.663 362.572L156.662 362.573L156.662 362.573L156.662 362.573L156.662 362.574L156.661 362.574L156.661 362.574L156.661 362.574L156.66 362.575L156.66 362.575L156.66 362.575C132.392 383.055 107.726 403.87 101.675 436.354C98.2002 454.998 103.702 473.469 116.764 487.191C129.147 500.2 146.662 508.3 164.486 510C185.187 511.975 205.984 505.331 223.683 494.931C242.234 484.029 257.117 468.916 271.169 452.843C272.339 451.504 273.509 450.158 274.681 448.81C286.858 434.804 299.267 420.531 315.12 410.64C324.487 404.795 334.8 401.018 345.684 399.205C356.863 397.341 368.241 397.27 379.543 397.355C380.292 397.36 381.041 397.366 381.79 397.372L381.894 397.373C403.614 397.549 425.603 397.727 445.551 387.873C450.269 385.542 454.806 382.87 459.341 380.197C464.916 376.913 470.49 373.629 476.4 370.98C487.173 366.154 499.894 363.09 511.366 367.365C515.261 368.817 518.614 369.496 522.692 368.169C526.565 366.907 530.03 364.318 532.493 361.089C538.733 352.904 537.719 341.475 536.481 331.901C534.26 314.739 531.894 297.594 529.529 280.449L529.529 280.448L529.528 280.445C528.363 272.002 527.198 263.559 526.051 255.115C525.488 250.975 524.929 246.834 524.37 242.693L524.368 242.678C523.222 234.192 522.076 225.707 520.899 217.225C519.582 207.735 518.046 198.254 515.634 188.973C511.028 171.257 502.661 153.639 486.473 143.821C468.818 133.114 446.713 133.364 426.612 133.591C425.688 133.602 424.768 133.612 423.853 133.622C398.141 133.883 372.445 135.656 346.941 138.92C322.207 142.086 297.406 146.376 273.277 152.728C252.568 158.178 231.753 166.575 217.406 183.128C211.258 190.222 206.474 198.609 204.23 207.766C201.574 218.604 203.146 229.678 205.689 240.375C206.346 243.139 207.064 245.897 207.783 248.657L207.783 248.657L207.783 248.658L207.783 248.658L207.784 248.659L207.784 248.659L207.784 248.66L207.784 248.66L207.784 248.661L207.784 248.661L207.784 248.662L207.785 248.662L207.785 248.663L207.785 248.663L207.785 248.664L207.785 248.664L207.785 248.665C210.039 257.317 212.3 265.996 212.701 274.956ZM205.505 309.463C195.432 329.396 179.048 344.6 162.228 358.829C160.557 360.242 158.878 361.653 157.196 363.066C141.81 375.99 126.232 389.075 115.195 406.055C104.124 423.084 97.4952 444.385 103.89 464.399C109.542 482.086 124.158 495.604 140.848 502.968C181.236 520.787 224.927 499.09 253.958 470.344C260.838 463.533 267.189 456.231 273.541 448.93L273.542 448.929L273.542 448.928C280.318 441.139 287.094 433.351 294.51 426.157C301.337 419.533 308.719 413.407 316.956 408.605C325.485 403.633 334.762 400.343 344.475 398.611C357.419 396.302 370.52 396.442 383.626 396.582C392.596 396.678 401.568 396.774 410.493 396.084C421.747 395.215 432.818 392.946 443.097 388.172C448.629 385.604 453.878 382.514 459.128 379.424C463.782 376.684 468.437 373.945 473.289 371.568C482.744 366.936 493.432 363.543 504.073 364.826C506.394 365.106 508.703 365.606 510.916 366.366C511.355 366.517 511.785 366.672 512.209 366.826C514.281 367.577 516.232 368.284 518.558 368.161C523.312 367.911 527.796 365.262 530.909 361.759C538.38 353.347 536.865 340.731 535.491 330.471C534.385 322.219 533.259 313.969 532.133 305.72L532.133 305.716L532.131 305.704C531.548 301.434 530.965 297.165 530.385 292.895C529.279 284.755 528.178 276.614 527.077 268.474L527.075 268.455L527.073 268.444C524.796 251.611 522.519 234.778 520.199 217.95C517.623 199.266 514.428 179.588 504.44 163.23C499.462 155.078 492.687 148.108 484.293 143.468C475.088 138.379 464.625 136.176 454.241 135.188C442.737 134.096 431.09 134.272 419.548 134.466C406.986 134.677 394.429 135.248 381.9 136.18C356.985 138.032 332.177 141.296 307.635 145.963L306.526 146.173C283.844 150.483 260.016 155.011 239.662 166.347C222.356 175.985 207.067 192.211 204.115 212.466C202.303 224.902 205.424 236.853 208.552 248.828C211.199 258.964 213.85 269.117 213.518 279.594C213.186 290.033 210.124 300.118 205.52 309.436C205.515 309.445 205.51 309.454 205.505 309.463ZM215.061 306.708C220.004 296.706 223.007 285.762 222.505 274.54C222.128 266.1 219.998 257.925 217.875 249.774C217.195 247.167 216.517 244.563 215.897 241.954C213.499 231.872 212.019 221.434 214.522 211.219C216.638 202.587 221.146 194.679 226.943 187.992C240.466 172.392 260.083 164.476 279.601 159.338C302.34 153.351 325.712 149.308 349.021 146.324C373.054 143.248 397.269 141.579 421.495 141.332C422.344 141.324 423.197 141.314 424.054 141.304L424.089 141.304L424.094 141.304C443.039 141.089 463.873 140.854 480.514 150.946C495.774 160.2 503.663 176.804 508.005 193.505C510.279 202.251 511.725 211.189 512.967 220.133C514.095 228.261 515.193 236.394 516.291 244.527C516.8 248.297 517.309 252.067 517.821 255.836C518.902 263.788 519.998 271.739 521.095 279.689L521.096 279.693C523.326 295.854 525.555 312.016 527.649 328.194C528.816 337.221 529.771 347.997 523.886 355.713C521.564 358.759 518.294 361.202 514.641 362.391C510.792 363.644 507.626 363.003 503.951 361.633C493.146 357.607 481.166 360.495 471.019 365.04C465.45 367.535 460.198 370.63 454.945 373.725C450.671 376.244 446.396 378.762 441.95 380.958C423.144 390.247 402.413 390.078 381.938 389.911L381.938 389.911C381.206 389.905 380.475 389.899 379.745 389.894C369.094 389.814 358.373 389.881 347.838 391.637C337.585 393.346 327.873 396.903 319.048 402.408C304.116 411.723 292.427 425.168 280.957 438.36L280.957 438.36L280.952 438.366C279.846 439.638 278.742 440.908 277.637 442.171C264.394 457.318 250.368 471.562 232.886 481.834C216.204 491.637 196.6 497.9 177.086 496.039C160.284 494.437 143.773 486.801 132.102 474.537C119.79 461.602 114.605 444.191 117.879 426.615C123.583 395.998 146.829 376.381 169.7 357.081C179.057 349.184 188.351 341.341 196.356 332.819C203.711 324.993 210.209 316.318 215.061 306.708ZM174.98 353.591C190.829 340.184 206.267 325.856 215.761 307.076C215.768 307.065 215.775 307.052 215.781 307.04C220.122 298.257 223.011 288.749 223.32 278.908C223.63 269.04 221.133 259.476 218.64 249.929C215.693 238.643 212.751 227.379 214.46 215.659C217.241 196.578 231.645 181.295 247.948 172.216C267.123 161.537 289.571 157.272 310.937 153.212L311.99 153.012C335.117 148.614 358.494 145.537 381.971 143.793C393.776 142.916 405.61 142.377 417.447 142.178C428.32 141.995 439.294 141.829 450.132 142.859C459.916 143.787 469.775 145.864 478.445 150.658C486.352 155.029 492.731 161.595 497.42 169.274C506.829 184.685 509.841 203.224 512.267 220.826C514.441 236.599 516.575 252.377 518.709 268.155L518.71 268.16L518.71 268.162L518.711 268.167L518.711 268.169L518.712 268.175L518.712 268.177L518.713 268.182L518.713 268.184L518.714 268.189L518.714 268.191L518.717 268.213L518.72 268.235L518.723 268.257C519.769 275.987 520.814 283.717 521.865 291.447C522.375 295.197 522.887 298.947 523.399 302.697C524.498 310.749 525.598 318.801 526.677 326.856C527.971 336.518 529.4 348.4 522.364 356.321C519.436 359.617 515.214 362.111 510.741 362.345C508.555 362.461 506.721 361.796 504.773 361.09L504.771 361.089C504.371 360.944 503.966 360.797 503.552 360.655C501.466 359.938 499.288 359.465 497.1 359.202C487.067 357.991 476.99 361.188 468.077 365.555C463.505 367.795 459.118 370.377 454.731 372.96L454.731 372.96C449.785 375.871 444.839 378.783 439.628 381.203C429.944 385.7 419.513 387.836 408.91 388.656C400.501 389.306 392.045 389.216 383.592 389.126L383.591 389.126L383.591 389.126L383.59 389.126C371.243 388.994 358.898 388.862 346.702 391.037C337.546 392.671 328.8 395.773 320.759 400.46C312.996 404.985 306.038 410.76 299.603 417.003C292.613 423.783 286.226 431.125 279.839 438.466C273.855 445.345 267.871 452.224 261.39 458.641C234.041 485.722 192.88 506.162 154.831 489.377C139.107 482.44 125.34 469.706 120.017 453.045C113.993 434.195 120.237 414.129 130.665 398.089C141.067 382.085 155.75 369.752 170.252 357.571C171.832 356.244 173.41 354.919 174.98 353.591ZM232.308 274.125C232.779 284.656 229.962 294.925 225.322 304.312C220.768 313.33 214.669 321.473 207.761 328.823C200.246 336.825 191.52 344.189 182.735 351.602C161.263 369.723 139.441 388.14 134.085 416.888C131.009 433.392 135.879 449.746 147.441 461.893C158.4 473.41 173.907 480.584 189.686 482.088C208.013 483.836 226.421 477.956 242.088 468.749C258.501 459.104 271.67 445.731 284.103 431.509C285.14 430.323 286.175 429.132 287.213 427.938L287.213 427.938C297.982 415.552 308.955 402.93 322.975 394.183C331.255 389.016 340.371 385.679 349.991 384.076C359.881 382.427 369.946 382.363 379.944 382.438C380.632 382.443 381.319 382.449 382.007 382.454C401.231 382.611 420.694 382.769 438.349 374.048C442.524 371.986 446.537 369.621 450.55 367.257L450.55 367.257C455.481 364.352 460.412 361.447 465.639 359.105C475.157 354.841 486.399 352.128 496.536 355.905C499.993 357.194 502.97 357.796 506.59 356.617C510.023 355.5 513.097 353.202 515.279 350.341C520.809 343.091 519.915 332.97 518.818 324.487C516.853 309.293 514.758 294.114 512.664 278.936L512.663 278.927C511.634 271.472 510.606 264.016 509.592 256.559C509.103 252.959 508.617 249.359 508.131 245.759L508.131 245.756L508.13 245.752L508.13 245.749L508.129 245.746L508.129 245.743L508.128 245.74L508.128 245.736L508.128 245.733L508.127 245.73L508.127 245.727C507.106 238.164 506.085 230.601 505.035 223.042C503.869 214.642 502.51 206.251 500.375 198.038C496.297 182.353 488.885 166.76 474.555 158.07C458.928 148.595 439.365 148.816 421.574 149.018L421.561 149.018L421.541 149.018C420.736 149.027 419.934 149.036 419.137 149.044C396.392 149.276 373.662 150.843 351.1 153.731C329.217 156.531 307.272 160.33 285.924 165.949C267.597 170.774 249.178 178.207 236.481 192.856C231.035 199.139 226.802 206.564 224.815 214.673C222.465 224.264 223.854 234.066 226.106 243.533C226.688 245.981 227.324 248.424 227.961 250.869C229.955 258.523 231.955 266.199 232.308 274.125ZM226.06 304.6C226.055 304.613 226.049 304.627 226.042 304.64C217.13 322.292 202.624 335.755 187.732 348.353C186.255 349.603 184.77 350.85 183.282 352.099C169.674 363.53 155.896 375.104 146.133 390.122C136.35 405.173 130.489 424.002 136.14 441.689C141.136 457.325 154.055 469.274 168.811 475.784C204.519 491.537 243.15 472.35 268.816 446.936C274.902 440.91 280.521 434.451 286.14 427.991C292.135 421.101 298.129 414.21 304.689 407.846C310.732 401.985 317.263 396.561 324.554 392.312C332.107 387.91 340.32 384.996 348.92 383.463C360.37 381.42 371.96 381.544 383.553 381.668C391.489 381.753 399.426 381.838 407.321 381.227C417.272 380.459 427.061 378.452 436.151 374.23C441.044 371.959 445.687 369.225 450.331 366.492C454.449 364.068 458.567 361.644 462.859 359.542C471.231 355.44 480.694 352.439 490.117 353.575C492.175 353.823 494.218 354.273 496.181 354.941C496.588 355.079 496.985 355.223 497.377 355.364C499.184 356.018 500.885 356.632 502.918 356.525C507.11 356.304 511.068 353.969 513.813 350.877C520.414 343.447 519.071 332.297 517.857 323.232C516.868 315.85 515.861 308.471 514.854 301.091L514.853 301.084L514.851 301.076L514.85 301.067C514.346 297.375 513.842 293.683 513.341 289.991C512.354 282.729 511.371 275.466 510.389 268.204L510.384 268.17C508.379 253.343 506.373 238.515 504.33 223.693C502.052 207.173 499.228 189.773 490.397 175.31C485.998 168.104 480.012 161.944 472.594 157.841C464.455 153.342 455.202 151.394 446.02 150.521C435.847 149.554 425.547 149.711 415.342 149.882C404.229 150.069 393.122 150.574 382.038 151.398C359.998 153.036 338.053 155.924 316.341 160.052L315.345 160.241C295.294 164.051 274.227 168.055 256.232 178.076C240.933 186.596 227.413 200.937 224.804 218.844C223.201 229.845 225.962 240.419 228.728 251.013C231.068 259.975 233.412 268.952 233.121 278.215C232.832 287.444 230.126 296.362 226.06 304.6ZM235.584 301.914C239.918 293.145 242.552 283.55 242.113 273.71C241.782 266.302 239.913 259.127 238.049 251.975C237.453 249.688 236.858 247.403 236.314 245.114C234.21 236.263 232.91 227.098 235.108 218.129C236.966 210.545 240.925 203.599 246.019 197.723C257.892 184.027 275.113 177.075 292.25 172.564C312.209 167.309 332.724 163.76 353.183 161.14C374.273 158.441 395.522 156.976 416.783 156.76C417.538 156.752 418.297 156.743 419.059 156.735C435.695 156.546 453.987 156.339 468.601 165.2C482.004 173.326 488.938 187.906 492.751 202.574C494.748 210.255 496.019 218.102 497.108 225.954C498.083 232.976 499.032 240.002 499.98 247.028L499.981 247.032C500.442 250.451 500.903 253.869 501.368 257.287C502.318 264.277 503.282 271.266 504.246 278.255L504.247 278.259L504.248 278.263L504.248 278.268L504.249 278.272L504.249 278.277L504.25 278.279L504.25 278.279L504.25 278.28L504.25 278.28L504.25 278.28L504.25 278.28L504.25 278.281L504.25 278.281L504.25 278.281L504.25 278.281L504.25 278.282L504.25 278.282L504.25 278.282C506.204 292.445 508.159 306.608 509.993 320.784C511.02 328.721 511.854 338.187 506.679 344.971C504.637 347.65 501.759 349.799 498.546 350.845C495.154 351.949 492.365 351.386 489.127 350.179C479.659 346.651 469.156 349.187 460.265 353.169C455.378 355.359 450.769 358.075 446.159 360.791C442.408 363.001 438.657 365.211 434.755 367.139C418.248 375.293 400.05 375.145 382.076 374.998C381.435 374.993 380.794 374.988 380.153 374.983C370.807 374.912 361.397 374.973 352.154 376.514C343.166 378.011 334.647 381.13 326.912 385.956C313.812 394.13 303.555 405.926 293.491 417.501L293.491 417.502L293.487 417.506L293.484 417.51C292.515 418.624 291.547 419.737 290.579 420.844C278.956 434.139 266.644 446.642 251.298 455.661C236.646 464.271 219.433 469.769 202.294 468.134C187.537 466.727 173.037 460.016 162.788 449.246C151.976 437.885 147.421 422.592 150.297 407.155C155.305 380.275 175.706 363.057 195.781 346.114C203.992 339.184 212.149 332.3 219.175 324.82C225.627 317.952 231.327 310.343 235.584 301.914ZM200.483 343.115C214.403 331.34 227.96 318.757 236.294 302.262C236.298 302.255 236.302 302.248 236.305 302.241C240.119 294.525 242.655 286.172 242.925 277.528C243.197 268.871 241.006 260.48 238.819 252.103C236.233 242.201 233.653 232.318 235.15 222.036C237.589 205.305 250.223 191.905 264.519 183.943C281.335 174.58 301.021 170.838 319.759 167.278L320.696 167.099C340.993 163.241 361.507 160.541 382.109 159.01C392.47 158.239 402.854 157.767 413.242 157.592C422.781 157.431 432.405 157.285 441.913 158.188C450.494 159.004 459.139 160.824 466.746 165.03C473.678 168.861 479.269 174.618 483.379 181.35C491.632 194.866 494.271 211.128 496.399 226.566C498.297 240.334 500.159 254.106 502.022 267.879C502.954 274.766 503.885 281.653 504.821 288.54C505.291 291.993 505.762 295.446 506.233 298.9L506.234 298.907C507.177 305.809 508.119 312.71 509.044 319.614C510.179 328.08 511.435 338.495 505.27 345.437C502.709 348.32 499.015 350.501 495.103 350.706C493.206 350.806 491.619 350.232 489.933 349.622C489.568 349.49 489.198 349.356 488.819 349.227C486.98 348.601 485.07 348.181 483.143 347.948C474.331 346.884 465.479 349.69 457.649 353.526C453.639 355.491 449.792 357.756 445.945 360.02L445.945 360.02C441.602 362.577 437.259 365.133 432.683 367.258C424.187 371.203 415.04 373.077 405.738 373.797C398.357 374.367 390.937 374.288 383.518 374.209L383.517 374.209C372.681 374.093 361.849 373.978 351.146 375.887C343.101 377.323 335.421 380.046 328.356 384.164C321.539 388.138 315.431 393.21 309.781 398.691C303.646 404.641 298.041 411.084 292.436 417.528L292.435 417.529C287.184 423.564 281.934 429.6 276.247 435.231C252.261 458.981 216.16 476.912 182.792 462.191C169.005 456.108 156.933 444.943 152.265 430.334C146.984 413.81 152.462 396.217 161.602 382.156C170.731 368.113 183.616 357.291 196.342 346.602C197.726 345.439 199.108 344.279 200.483 343.115ZM251.917 273.294C252.325 282.442 249.876 291.362 245.846 299.516C241.888 307.356 236.586 314.432 230.588 320.821C224.051 327.781 216.462 334.186 208.823 340.634C190.148 356.397 171.169 372.415 166.509 397.424C163.833 411.79 168.071 426.025 178.134 436.599C187.673 446.624 201.168 452.87 214.903 454.18C230.854 455.701 246.871 450.585 260.509 442.572C274.784 434.182 286.239 422.549 297.054 410.179C297.958 409.145 298.862 408.106 299.768 407.065C309.127 396.301 318.664 385.333 330.847 377.731C338.038 373.244 345.957 370.344 354.314 368.951C362.912 367.519 371.665 367.463 380.36 367.528C380.954 367.533 381.549 367.537 382.144 367.542C398.868 367.678 415.801 367.816 431.16 360.229C434.79 358.436 438.281 356.38 441.77 354.324L441.771 354.323C446.058 351.798 450.345 349.272 454.891 347.235C463.155 343.532 472.916 341.174 481.718 344.452C484.737 345.578 487.338 346.102 490.501 345.072C493.495 344.098 496.176 342.094 498.078 339.599C502.895 333.282 502.123 324.472 501.166 317.08C499.459 303.885 497.64 290.701 495.821 277.519L495.821 277.517L495.82 277.509C494.923 271.01 494.027 264.512 493.144 258.013C492.712 254.835 492.283 251.656 491.853 248.478L491.852 248.47L491.852 248.466L491.851 248.463L491.851 248.46L491.851 248.457L491.85 248.454L491.85 248.45L491.849 248.447L491.849 248.444L491.848 248.441L491.848 248.438L491.847 248.434C490.967 241.911 490.086 235.387 489.18 228.866C488.165 221.558 486.982 214.257 485.124 207.11C481.575 193.457 475.12 179.89 462.645 172.327C449.047 164.082 432.024 164.275 416.544 164.45L416.541 164.45C415.833 164.458 415.128 164.466 414.428 164.473C394.65 164.674 374.883 166.037 355.264 168.548C336.229 170.985 317.143 174.288 298.574 179.176C282.628 183.374 266.605 189.845 255.557 202.589C250.815 208.057 247.131 214.524 245.401 221.584C243.355 229.928 244.565 238.456 246.522 246.692C247.029 248.824 247.583 250.951 248.138 253.08C249.871 259.732 251.609 266.404 251.917 273.294ZM246.582 299.808C246.577 299.82 246.572 299.832 246.566 299.844C238.811 315.202 226.192 326.916 213.236 337.877C211.953 338.962 210.665 340.045 209.374 341.128C197.541 351.068 185.561 361.131 177.071 374.19C168.574 387.261 163.481 403.619 168.389 418.98C172.73 432.563 183.954 442.943 196.773 448.599C227.8 462.288 261.372 445.611 283.674 423.528C288.967 418.288 293.854 412.67 298.74 407.053L298.74 407.053L298.741 407.053L298.741 407.053L298.741 407.053L298.741 407.052L298.741 407.052L298.741 407.052L298.742 407.052L298.742 407.051L298.742 407.051L298.742 407.051L298.742 407.051C303.954 401.06 309.165 395.069 314.868 389.536C320.126 384.436 325.809 379.716 332.152 376.018C338.729 372.184 345.878 369.649 353.366 368.314C363.322 366.538 373.4 366.645 383.481 366.753C390.382 366.826 397.285 366.9 404.15 366.369C412.8 365.701 421.307 363.958 429.208 360.288C433.46 358.313 437.496 355.938 441.533 353.562L441.533 353.562L441.534 353.561C445.116 351.453 448.698 349.344 452.432 347.516C459.721 343.944 467.96 341.336 476.162 342.325C477.957 342.542 479.737 342.934 481.449 343.516C481.803 343.636 482.148 343.761 482.489 343.884C484.052 344.449 485.524 344.981 487.28 344.889C490.913 344.699 494.341 342.674 496.719 339.996C502.45 333.545 501.278 323.863 500.224 315.995C499.364 309.569 498.487 303.146 497.609 296.722C497.171 293.512 496.732 290.301 496.296 287.091C495.426 280.686 494.559 274.28 493.692 267.875L493.691 267.864C491.958 255.054 490.225 242.245 488.46 229.44C486.481 215.085 484.027 199.959 476.353 187.391C472.533 181.134 467.335 175.78 460.891 172.217C453.818 168.306 445.777 166.614 437.796 165.856C428.955 165.016 420.003 165.152 411.133 165.302C401.468 165.464 391.81 165.903 382.172 166.62C363.007 168.044 343.923 170.555 325.045 174.146L324.163 174.313L324.163 174.314L324.163 174.314C306.741 177.625 288.436 181.104 272.8 189.809C259.507 197.211 247.759 209.669 245.492 225.228C244.099 234.79 246.499 243.983 248.904 253.194C250.939 260.985 252.977 268.79 252.725 276.842C252.475 284.875 250.121 292.637 246.582 299.808ZM256.107 297.12C259.832 289.584 262.097 281.337 261.72 272.879C261.435 266.505 259.828 260.333 258.224 254.179C257.712 252.21 257.199 250.243 256.731 248.271C254.919 240.65 253.801 232.758 255.693 225.037C257.294 218.502 260.704 212.516 265.092 207.452C275.314 195.659 290.14 189.671 304.895 185.786C322.074 181.265 339.732 178.208 357.34 175.953C375.489 173.63 393.773 172.369 412.067 172.184C412.71 172.177 413.357 172.17 414.006 172.163L414.015 172.163C428.342 172 444.097 171.822 456.683 179.452C468.231 186.452 474.207 199.006 477.492 211.643C479.212 218.257 480.307 225.013 481.245 231.775C482.076 237.762 482.885 243.753 483.695 249.745C484.099 252.742 484.504 255.739 484.912 258.736C485.728 264.748 486.558 270.758 487.387 276.769L487.387 276.77L487.387 276.771C489.07 288.967 490.752 301.165 492.332 313.374C493.218 320.22 493.931 328.376 489.469 334.227C487.706 336.539 485.222 338.396 482.447 339.298C479.514 340.252 477.101 339.766 474.3 338.723C466.166 335.692 457.144 337.877 449.508 341.299C445.302 343.183 441.336 345.52 437.369 347.857C434.142 349.759 430.915 351.66 427.557 353.319C413.348 360.338 397.683 360.211 382.212 360.085C381.661 360.081 381.11 360.076 380.559 360.072C372.517 360.012 364.42 360.063 356.465 361.389C348.741 362.676 341.42 365.356 334.773 369.504C323.505 376.534 314.684 386.679 306.028 396.634C305.191 397.597 304.355 398.558 303.519 399.514C293.514 410.958 282.916 421.722 269.708 429.482C257.087 436.899 242.264 441.633 227.499 440.225C214.787 439.012 202.297 433.23 193.468 423.951C184.157 414.163 180.233 400.987 182.71 387.691C187.021 364.551 204.577 349.732 221.855 335.148C228.922 329.183 235.942 323.257 241.99 316.818C247.543 310.91 252.447 304.368 256.107 297.12ZM225.987 332.64C237.961 322.509 249.624 311.684 256.802 297.497C256.811 297.483 256.82 297.468 256.829 297.451C260.113 290.803 262.298 283.606 262.53 276.158C262.762 268.711 260.877 261.493 258.996 254.287C256.771 245.768 254.551 237.267 255.839 228.423C257.933 214.039 268.798 202.523 281.087 195.68C295.542 187.632 312.467 184.415 328.574 181.354L329.399 181.197C346.863 177.877 364.515 175.554 382.243 174.236C391.159 173.573 400.093 173.167 409.032 173.017C417.234 172.878 425.511 172.753 433.688 173.529C441.068 174.23 448.502 175.795 455.043 179.412C461.001 182.705 465.803 187.654 469.335 193.438C476.43 205.059 478.698 219.046 480.527 232.319C482.147 244.069 483.737 255.823 485.327 267.578L485.327 267.584C486.142 273.605 486.956 279.626 487.775 285.646C488.164 288.511 488.555 291.376 488.946 294.241L488.949 294.265L488.95 294.266C489.774 300.304 490.598 306.343 491.407 312.383C492.382 319.651 493.467 328.601 488.172 334.562C485.977 337.032 482.811 338.902 479.46 339.076C477.84 339.16 476.482 338.669 475.041 338.147L475.041 338.147L475.04 338.147C474.726 338.033 474.407 337.918 474.081 337.807C472.496 337.267 470.847 336.903 469.185 336.703C461.592 335.786 453.966 338.199 447.219 341.505C443.767 343.196 440.455 345.146 437.143 347.095C433.407 349.294 429.671 351.493 425.736 353.321C418.429 356.713 410.564 358.324 402.565 358.943C396.214 359.434 389.828 359.366 383.444 359.298C374.12 359.199 364.798 359.099 355.59 360.742C348.658 361.979 342.04 364.325 335.953 367.875C330.082 371.297 324.826 375.665 319.959 380.384C314.682 385.504 309.859 391.047 305.037 396.59L305.036 396.591C300.517 401.785 295.998 406.98 291.104 411.826C270.485 432.244 239.443 447.665 210.755 435.008C198.903 429.781 188.529 420.186 184.516 407.627C179.978 393.428 184.687 378.306 192.541 366.225C200.395 354.141 211.48 344.831 222.429 335.635L222.444 335.622C223.628 334.628 224.81 333.635 225.987 332.64ZM271.523 272.463C271.87 280.23 269.79 287.801 266.369 294.722C263.006 301.381 258.503 307.39 253.407 312.819C247.849 318.736 241.398 324.181 234.906 329.662C219.025 343.067 202.889 356.688 198.926 377.96C196.648 390.188 200.256 402.302 208.817 411.304C216.933 419.838 228.42 425.156 240.109 426.272C253.686 427.566 267.314 423.215 278.92 416.395C291.059 409.261 300.801 399.369 309.996 388.851C310.763 387.972 311.531 387.09 312.3 386.206C320.252 377.059 328.356 367.738 338.709 361.28C344.811 357.471 351.536 355.009 358.627 353.828C365.935 352.609 373.376 352.561 380.766 352.617L381.455 352.623L382.28 352.629C396.501 352.745 410.901 352.862 423.962 346.409C427.047 344.886 430.013 343.138 432.978 341.391C436.623 339.243 440.268 337.096 444.133 335.365C451.142 332.223 459.424 330.215 466.891 332.996C469.472 333.958 471.698 334.405 474.402 333.525C476.956 332.693 479.245 330.983 480.868 328.855C484.973 323.471 484.321 315.969 483.505 309.669C482.057 298.474 480.514 287.289 478.97 276.105L478.97 276.1L478.969 276.095L478.968 276.09L478.968 276.084L478.967 276.079L478.966 276.074L478.965 276.069L478.965 276.064C478.201 270.53 477.437 264.996 476.685 259.46C476.331 256.848 475.978 254.236 475.625 251.623L475.624 251.614L475.622 251.605L475.621 251.596L475.621 251.592L475.62 251.589L475.62 251.585C474.859 245.951 474.098 240.317 473.317 234.685C472.452 228.468 471.445 222.256 469.865 216.176C466.844 204.554 461.345 193.014 450.727 186.578C439.155 179.565 424.671 179.729 411.499 179.878L411.498 179.878C410.9 179.885 410.304 179.891 409.712 179.897C392.9 180.067 376.098 181.227 359.422 183.361C343.237 185.433 327.008 188.243 311.219 192.399C297.654 195.971 284.025 201.479 274.629 212.319C270.593 216.976 267.457 222.481 265.985 228.493C264.244 235.591 265.272 242.846 266.937 249.852C267.366 251.657 267.836 253.459 268.305 255.262L268.306 255.264L268.306 255.266L268.307 255.268L268.308 255.271L268.308 255.273L268.309 255.275L268.309 255.277L268.31 255.279L268.31 255.282L268.311 255.284C269.784 260.938 271.261 266.608 271.523 272.463ZM267.114 294.99C267.107 295.01 267.099 295.03 267.089 295.05C260.493 308.113 249.76 318.079 238.738 327.402C237.651 328.321 236.559 329.239 235.465 330.157L235.465 330.158C225.407 338.606 215.224 347.159 208.009 358.258C200.799 369.349 196.475 383.235 200.639 396.272C204.324 407.805 213.851 416.614 224.734 421.417C251.081 433.041 279.594 418.874 298.531 400.123C303.028 395.67 307.18 390.897 311.333 386.124L311.333 386.123L311.333 386.123L311.333 386.123L311.334 386.122L311.334 386.122L311.334 386.122L311.335 386.121L311.335 386.121L311.335 386.121L311.335 386.121C315.766 381.027 320.197 375.933 325.047 371.229C329.52 366.889 334.352 362.875 339.749 359.729C345.348 356.465 351.433 354.305 357.81 353.167C366.273 351.658 374.84 351.749 383.409 351.84C389.275 351.903 395.142 351.965 400.977 351.514C408.325 350.946 415.549 349.466 422.26 346.35C425.875 344.671 429.306 342.652 432.737 340.632L432.737 340.632L432.737 340.632L432.738 340.632L432.738 340.632L432.738 340.632L432.738 340.631L432.738 340.631L432.738 340.631L432.738 340.631L432.738 340.631C435.783 338.839 438.828 337.047 442.001 335.493C448.206 332.453 455.221 330.235 462.204 331.078C463.734 331.262 465.251 331.598 466.711 332.095C467.011 332.197 467.303 332.303 467.592 332.408C468.911 332.885 470.154 333.336 471.637 333.257C474.709 333.097 477.61 331.384 479.621 329.12C484.48 323.649 483.482 315.433 482.588 308.763C481.842 303.197 481.082 297.631 480.322 292.067L480.32 292.048L480.317 292.03L480.315 292.012C479.959 289.405 479.603 286.799 479.249 284.193C478.536 278.943 477.825 273.693 477.115 268.442L477.112 268.42C475.614 257.341 474.115 246.264 472.588 235.189C470.908 222.999 468.826 210.15 462.308 199.476C459.066 194.165 454.657 189.621 449.188 186.597C443.179 183.276 436.351 181.839 429.572 181.194C422.062 180.481 414.458 180.596 406.923 180.723C398.71 180.861 390.499 181.234 382.306 181.844C366.016 183.054 349.794 185.19 333.746 188.24L332.979 188.386C318.186 191.198 302.642 194.152 289.366 201.543C278.08 207.828 268.102 218.401 266.177 231.612C264.993 239.738 267.033 247.55 269.078 255.379C270.807 261.998 272.538 268.628 272.326 275.468C272.113 282.296 270.119 288.894 267.114 294.99ZM276.631 292.324C279.746 286.019 281.643 279.121 281.327 272.046C281.088 266.706 279.741 261.535 278.398 256.378C277.969 254.729 277.539 253.081 277.147 251.429C275.629 245.038 274.693 238.42 276.278 231.946C277.622 226.459 280.483 221.433 284.167 217.182C292.738 207.292 305.169 202.266 317.543 199.009C331.943 195.218 346.741 192.656 361.501 190.766C376.706 188.82 392.027 187.764 407.355 187.608C407.892 187.603 408.431 187.596 408.974 187.59L408.98 187.59C420.997 187.454 434.211 187.304 444.77 193.703C454.46 199.575 459.481 210.103 462.237 220.709C463.68 226.256 464.599 231.922 465.386 237.593C466.09 242.661 466.775 247.733 467.459 252.804L467.46 252.811L467.461 252.819L467.462 252.826C467.793 255.278 468.124 257.73 468.458 260.182C469.143 265.227 469.839 270.271 470.535 275.316L470.535 275.317L470.535 275.318L470.535 275.319L470.536 275.32L470.536 275.321L470.536 275.322L470.536 275.323L470.536 275.324L470.539 275.345L470.539 275.349C471.947 285.549 473.354 295.75 474.675 305.96C475.42 311.715 476.011 318.562 472.263 323.478C470.779 325.422 468.686 326.986 466.352 327.745C463.878 328.55 461.841 328.143 459.477 327.262C452.679 324.73 445.136 326.563 438.754 329.421C435.231 331 431.907 332.958 428.583 334.917C425.879 336.51 423.175 338.104 420.363 339.493C408.45 345.377 395.315 345.271 382.343 345.166L382.343 345.166L382.308 345.166L382.294 345.165C381.852 345.162 381.41 345.158 380.968 345.155C374.23 345.104 367.445 345.147 360.781 346.259C354.322 347.335 348.197 349.578 342.637 353.046C333.202 358.933 325.817 367.426 318.568 375.762C317.866 376.57 317.165 377.376 316.463 378.179C308.077 387.77 299.193 396.794 288.122 403.299C277.531 409.523 265.098 413.493 252.709 412.312C242.042 411.294 231.561 406.439 224.156 398.651C216.345 390.437 213.051 379.38 215.131 368.222C218.746 348.82 233.458 336.399 247.939 324.173C253.86 319.174 259.743 314.208 264.812 308.81C269.461 303.869 273.566 298.394 276.631 292.324ZM251.49 322.164C261.528 313.672 271.301 304.6 277.321 292.71C277.333 292.693 277.344 292.675 277.354 292.655C280.112 287.076 281.942 281.034 282.136 274.782C282.33 268.547 280.751 262.503 279.175 256.469C277.311 249.333 275.451 242.211 276.53 234.804C278.283 222.768 287.375 213.136 297.658 207.412C309.763 200.674 323.936 197.981 337.422 195.419L338.106 195.289C352.738 192.506 367.528 190.56 382.381 189.456C389.85 188.9 397.336 188.56 404.825 188.434C411.691 188.319 418.621 188.214 425.465 188.864C431.643 189.45 437.865 190.76 443.341 193.787C448.322 196.542 452.336 200.682 455.289 205.519C461.228 215.246 463.124 226.955 464.654 238.064C466.035 248.08 467.39 258.098 468.745 268.117L468.746 268.118L468.746 268.12L468.746 268.121L468.746 268.122L468.746 268.123L468.746 268.124L468.746 268.125L468.746 268.126L468.749 268.144C469.407 273.011 470.066 277.878 470.727 282.744C471.052 285.135 471.378 287.525 471.704 289.915C472.398 294.992 473.091 300.068 473.771 305.146C474.585 311.219 475.499 318.703 471.075 323.683C469.248 325.741 466.611 327.296 463.82 327.442C462.473 327.512 461.344 327.102 460.147 326.668L460.145 326.668C459.883 326.573 459.618 326.476 459.346 326.384C458.013 325.929 456.626 325.622 455.227 325.454C448.854 324.685 442.453 326.707 436.789 329.482C433.897 330.899 431.123 332.532 428.349 334.165L428.348 334.165L428.348 334.165L428.348 334.165L428.348 334.166L428.347 334.166L428.347 334.166L428.347 334.166L428.346 334.166L428.346 334.166L428.346 334.166C425.216 336.009 422.086 337.851 418.789 339.382C412.672 342.224 406.089 343.572 399.392 344.09C394.072 344.501 388.724 344.444 383.376 344.387L383.376 344.387C375.563 344.303 367.751 344.22 360.034 345.596C354.215 346.634 348.66 348.605 343.549 351.584C338.626 354.454 334.218 358.117 330.137 362.076C325.715 366.365 321.674 371.01 317.633 375.655C313.847 380.007 310.061 384.359 305.96 388.42C288.705 405.504 262.723 418.416 238.716 407.825C228.801 403.45 220.122 395.425 216.765 384.918C212.97 373.046 216.913 360.394 223.479 350.292C230.054 340.177 239.333 332.383 248.498 324.684C248.994 324.267 249.49 323.85 249.986 323.433C250.224 323.233 250.461 323.033 250.699 322.833C250.963 322.61 251.227 322.387 251.49 322.164ZM291.131 271.633C291.416 278.016 289.704 284.24 286.892 289.928C284.126 295.407 280.418 300.35 276.223 304.816C271.643 309.692 266.33 314.178 260.982 318.693L260.982 318.694C247.899 329.74 234.608 340.962 231.341 358.495C229.461 368.582 232.438 378.581 239.499 386.009C246.194 393.052 255.67 397.444 265.314 398.364C276.514 399.433 287.754 395.843 297.329 390.217C307.331 384.34 315.358 376.187 322.934 367.521C323.568 366.797 324.201 366.069 324.835 365.339C331.379 357.812 338.048 350.143 346.568 344.828C351.583 341.698 357.11 339.675 362.937 338.704C368.958 337.7 375.086 337.662 381.171 337.707C381.546 337.71 381.921 337.713 382.295 337.716L382.382 337.717L382.415 337.717C394.135 337.812 406.002 337.908 416.765 332.59C419.305 331.335 421.747 329.897 424.189 328.458C427.191 326.689 430.193 324.921 433.376 323.494C439.13 320.917 445.933 319.26 452.064 321.543C454.209 322.342 456.059 322.711 458.305 321.98C460.419 321.292 462.316 319.874 463.659 318.113C467.052 313.664 466.521 307.471 465.847 302.262C464.656 293.065 463.388 283.876 462.12 274.689L462.12 274.684L462.119 274.68L462.119 274.676L462.118 274.671L462.118 274.667L462.117 274.663L462.116 274.659L462.116 274.654C461.484 270.074 460.852 265.494 460.23 260.913C459.921 258.643 459.614 256.372 459.308 254.102C458.696 249.57 458.084 245.038 457.456 240.509C456.745 235.383 455.913 230.262 454.61 225.248C452.117 215.655 447.574 206.147 438.813 200.834C429.273 195.051 417.331 195.186 406.472 195.309C405.979 195.315 405.487 195.32 404.998 195.325C391.152 195.466 377.316 196.42 363.582 198.178C350.246 199.884 336.875 202.2 323.866 205.624C312.683 208.568 301.451 213.112 293.705 222.049C290.372 225.894 287.786 230.44 286.57 235.402C285.137 241.253 285.982 247.234 287.354 253.01C287.709 254.504 288.097 255.994 288.486 257.486C289.699 262.142 290.915 266.812 291.131 271.633ZM287.612 290.257C282.173 301.027 273.327 309.24 264.24 316.927C263.348 317.682 262.45 318.436 261.552 319.19L261.551 319.191C253.27 326.147 244.887 333.187 238.947 342.326C233.024 351.437 229.466 362.854 232.888 373.563C235.918 383.044 243.747 390.285 252.695 394.232C274.363 403.79 297.814 392.135 313.388 376.714C317.094 373.045 320.515 369.112 323.936 365.179L323.937 365.179L323.937 365.179C327.585 360.985 331.233 356.792 335.225 352.919C338.913 349.342 342.895 346.03 347.346 343.437C351.969 340.742 356.99 338.959 362.254 338.02C369.222 336.777 376.277 336.853 383.333 336.928C388.165 336.98 392.997 337.032 397.804 336.66C403.85 336.193 409.792 334.974 415.314 332.41C418.293 331.027 421.12 329.363 423.947 327.699C426.453 326.224 428.96 324.749 431.572 323.469C436.694 320.959 442.483 319.133 448.246 319.829C449.513 319.982 450.768 320.261 451.977 320.673C452.22 320.756 452.457 320.842 452.692 320.927C453.77 321.318 454.786 321.686 455.998 321.625C458.509 321.495 460.881 320.095 462.526 318.243C466.514 313.751 465.687 307.003 464.954 301.528C464.363 297.113 463.76 292.7 463.158 288.287C462.84 285.956 462.521 283.625 462.205 281.294C461.608 276.901 461.014 272.508 460.42 268.115C459.194 259.054 457.969 249.994 456.719 240.936C455.337 230.909 453.627 220.339 448.267 211.559C445.603 207.197 441.983 203.46 437.49 200.975C432.546 198.242 426.93 197.061 421.352 196.53C415.173 195.943 408.917 196.038 402.719 196.142C395.955 196.256 389.193 196.564 382.446 197.065C369.03 198.063 355.672 199.821 342.455 202.333L341.83 202.452C329.657 204.764 316.865 207.195 305.94 213.275C296.66 218.441 288.453 227.132 286.87 237.993C285.895 244.681 287.576 251.113 289.259 257.558C290.683 263.006 292.108 268.463 291.934 274.093C291.76 279.746 290.105 285.21 287.612 290.257ZM297.154 287.531C299.66 282.458 301.191 276.909 300.935 271.217C300.743 266.918 299.659 262.753 298.577 258.6C298.229 257.264 297.882 255.929 297.564 254.591C296.339 249.431 295.584 244.085 296.865 238.856C297.952 234.42 300.264 230.353 303.245 226.915C310.166 218.929 320.2 214.867 330.192 212.237C341.812 209.178 353.754 207.109 365.664 205.586C377.927 204.016 390.282 203.164 402.644 203.039L402.929 203.036L403.392 203.031L403.959 203.024C413.661 202.914 424.335 202.793 432.858 207.96C440.691 212.709 444.756 221.206 446.984 229.782C448.15 234.263 448.892 238.838 449.529 243.418C450.108 247.586 450.671 251.757 451.233 255.927L451.233 255.927L451.233 255.928L451.233 255.928L451.233 255.929L451.234 255.929L451.234 255.93L451.234 255.93C451.49 257.832 451.747 259.734 452.005 261.636C452.551 265.653 453.105 269.669 453.66 273.685C454.803 281.972 455.947 290.26 457.02 298.555C457.623 303.218 458.093 308.756 455.056 312.74C453.852 314.317 452.152 315.588 450.26 316.206C448.243 316.861 446.582 316.532 444.654 315.815C439.191 313.782 433.128 315.262 428.001 317.559C425.159 318.832 422.479 320.412 419.798 321.991C417.618 323.276 415.437 324.561 413.169 325.681C403.553 330.431 392.953 330.345 382.484 330.261L382.479 330.261L382.409 330.26C382.066 330.258 381.722 330.255 381.379 330.252C375.944 330.211 370.473 330.246 365.099 331.142C359.903 332.007 354.976 333.812 350.504 336.601C342.896 341.348 336.944 348.194 331.1 354.915L331.094 354.923C330.531 355.569 329.97 356.214 329.409 356.857C322.642 364.597 315.472 371.88 306.538 377.128C297.978 382.158 287.933 385.366 277.921 384.411C269.299 383.588 260.829 379.66 254.845 373.362C248.534 366.721 245.873 357.782 247.552 348.764C250.471 333.099 262.34 323.076 274.026 313.207C278.801 309.175 283.545 305.169 287.636 300.814C291.377 296.829 294.686 292.419 297.154 287.531ZM276.993 311.689C285.101 304.831 292.992 297.504 297.852 287.901C297.86 287.888 297.868 287.875 297.875 287.86C300.106 283.349 301.583 278.462 301.739 273.407C301.893 268.384 300.621 263.513 299.35 258.65C297.847 252.898 296.347 247.156 297.217 241.187C298.627 231.5 305.949 223.751 314.226 219.144C323.97 213.72 335.383 211.552 346.24 209.489L346.808 209.381C358.609 207.137 370.537 205.567 382.516 204.677C388.541 204.229 394.577 203.954 400.618 203.853C406.148 203.76 411.729 203.675 417.243 204.199C422.219 204.671 427.229 205.724 431.641 208.163C435.647 210.378 438.872 213.711 441.247 217.599C446.03 225.431 447.555 234.864 448.787 243.809C449.89 251.811 450.972 259.816 452.055 267.821L452.057 267.83C452.598 271.834 453.14 275.839 453.684 279.842C453.969 281.94 454.255 284.038 454.542 286.135L454.544 286.151C455.079 290.07 455.614 293.989 456.139 297.909C456.793 302.785 457.535 308.801 453.981 312.802C452.52 314.446 450.413 315.69 448.181 315.806C447.109 315.86 446.209 315.533 445.256 315.187C445.045 315.111 444.832 315.033 444.613 314.959C443.53 314.589 442.406 314.34 441.271 314.202C436.118 313.581 430.942 315.211 426.361 317.455C424.027 318.598 421.788 319.916 419.549 321.234L419.549 321.234L419.549 321.234L419.549 321.234L419.549 321.234L419.548 321.234L419.548 321.234L419.548 321.235L419.548 321.235C417.025 322.72 414.503 324.204 411.845 325.439C406.917 327.727 401.618 328.814 396.222 329.231C391.932 329.562 387.618 329.516 383.305 329.47C377.004 329.402 370.704 329.335 364.48 330.445C359.771 331.284 355.283 332.878 351.148 335.288C347.171 337.607 343.613 340.567 340.317 343.764C336.751 347.223 333.493 350.968 330.236 354.713L330.235 354.713C327.181 358.224 324.127 361.735 320.819 365.01C306.928 378.765 286.006 389.166 266.679 380.64C258.699 377.12 251.717 370.664 249.015 362.208C245.964 352.663 249.138 342.482 254.417 334.36C259.717 326.206 267.195 319.924 274.583 313.718C275.388 313.042 276.193 312.366 276.993 311.689ZM310.741 270.8C310.965 275.802 309.62 280.676 307.417 285.133C305.246 289.432 302.337 293.309 299.043 296.812C295.441 300.646 291.265 304.173 287.063 307.723L287.063 307.723C276.775 316.412 266.329 325.235 263.759 339.03C262.279 346.978 264.624 354.857 270.185 360.712C275.458 366.262 282.923 369.729 290.523 370.454C299.348 371.295 308.198 368.47 315.743 364.037C323.607 359.416 329.92 353.002 335.878 346.188C336.371 345.623 336.865 345.056 337.359 344.488C342.5 338.573 347.737 332.547 354.432 328.37C358.359 325.919 362.69 324.334 367.253 323.574C371.983 322.786 376.797 322.755 381.58 322.792C381.901 322.794 382.223 322.797 382.545 322.799C391.765 322.874 401.1 322.949 409.569 318.766C411.567 317.78 413.488 316.648 415.409 315.516L415.409 315.516C417.766 314.127 420.123 312.739 422.622 311.619C427.122 309.603 432.445 308.3 437.241 310.084C438.95 310.72 440.423 311.011 442.21 310.429C443.882 309.885 445.388 308.76 446.451 307.366C449.133 303.85 448.722 298.967 448.189 294.849C447.244 287.538 446.236 280.234 445.229 272.931L445.228 272.93L445.228 272.924C444.742 269.402 444.256 265.881 443.777 262.359C443.544 260.647 443.313 258.935 443.082 257.224L443.081 257.214C442.591 253.584 442.101 249.955 441.598 246.326C441.038 242.29 440.382 238.259 439.356 234.313C437.392 226.752 433.806 219.269 426.9 215.083C419.39 210.532 409.987 210.638 401.439 210.735C401.053 210.74 400.669 210.744 400.286 210.748C389.407 210.858 378.535 211.608 367.743 212.989C357.258 214.332 346.744 216.152 336.515 218.846C327.713 221.164 318.877 224.744 312.78 231.778C310.153 234.81 308.116 238.396 307.158 242.309C306.03 246.914 306.694 251.623 307.774 256.168C308.053 257.343 308.358 258.515 308.663 259.688C309.616 263.345 310.571 267.012 310.741 270.8ZM308.125 285.484C303.845 293.949 296.891 300.406 289.747 306.451C289.049 307.042 288.348 307.631 287.645 308.221C281.14 313.684 274.555 319.215 269.888 326.393C265.251 333.525 262.462 342.47 265.14 350.853C267.515 358.282 273.649 363.954 280.66 367.047C297.647 374.541 316.04 365.395 328.248 353.305C331.156 350.425 333.842 347.338 336.528 344.251L336.529 344.25C339.398 340.952 342.267 337.655 345.407 334.609C348.31 331.793 351.444 329.184 354.946 327.142C358.593 325.016 362.549 323.611 366.702 322.871C372.177 321.895 377.719 321.954 383.263 322.013L383.263 322.013L383.263 322.013L383.263 322.013L383.264 322.013L383.264 322.013L383.264 322.013L383.264 322.013L383.265 322.013L383.265 322.013L383.265 322.013L383.265 322.013L383.265 322.013C387.062 322.053 390.859 322.094 394.636 321.802C399.38 321.435 404.04 320.481 408.372 318.468C410.711 317.382 412.932 316.075 415.152 314.768L415.153 314.768C417.123 313.608 419.093 312.449 421.146 311.443C425.186 309.463 429.75 308.03 434.293 308.579C435.296 308.699 436.289 308.922 437.244 309.247C437.435 309.313 437.621 309.381 437.806 309.447C438.638 309.75 439.423 310.036 440.36 309.989C442.31 309.888 444.155 308.8 445.432 307.362C448.55 303.851 447.893 298.567 447.321 294.291C446.819 290.549 446.308 286.807 445.797 283.066C445.585 281.508 445.372 279.95 445.16 278.392C444.681 274.866 444.204 271.34 443.727 267.814C442.774 260.769 441.821 253.724 440.85 246.681C439.766 238.819 438.427 230.524 434.224 223.639C432.138 220.223 429.307 217.295 425.789 215.351C421.91 213.206 417.506 212.281 413.13 211.865C408.283 211.404 403.376 211.479 398.513 211.562C393.198 211.652 387.885 211.893 382.582 212.287C372.041 213.071 361.544 214.453 351.16 216.427L350.648 216.525C341.106 218.338 331.074 220.244 322.51 225.011C315.237 229.059 308.8 235.864 307.559 244.379C306.794 249.629 308.114 254.68 309.437 259.742C310.555 264.019 311.674 268.303 311.539 272.72C311.403 277.177 310.102 281.486 308.135 285.464C308.132 285.471 308.129 285.477 308.125 285.484ZM317.679 282.736C319.576 278.897 320.738 274.696 320.545 270.386C320.398 267.116 319.573 263.949 318.751 260.792C318.487 259.777 318.223 258.764 317.982 257.748C317.05 253.818 316.475 249.747 317.451 245.765C318.28 242.376 320.043 239.271 322.319 236.645C327.59 230.562 335.228 227.464 342.839 225.46C351.679 223.133 360.763 221.558 369.824 220.398C379.145 219.205 388.535 218.557 397.931 218.463C398.26 218.459 398.59 218.456 398.923 218.452C406.315 218.368 414.447 218.276 420.943 222.212C426.919 225.833 430.029 232.304 431.729 238.849C432.617 242.262 433.183 245.749 433.669 249.24C434.126 252.533 434.571 255.829 435.015 259.125L435.016 259.126L435.016 259.128L435.019 259.154L435.023 259.18C435.199 260.482 435.374 261.784 435.551 263.086C435.965 266.134 436.386 269.182 436.806 272.231L436.807 272.235L436.811 272.261L436.811 272.264C437.679 278.555 438.547 284.848 439.363 291.147C439.825 294.719 440.175 298.948 437.85 301.997C436.927 303.207 435.618 304.186 434.165 304.659C432.607 305.167 431.321 304.915 429.831 304.36C425.702 302.826 421.119 303.952 417.249 305.687C415.088 306.655 413.051 307.856 411.013 309.057C409.356 310.033 407.699 311.009 405.975 311.861C398.652 315.479 390.578 315.413 382.605 315.347L382.605 315.347L381.789 315.341C377.658 315.311 373.5 315.337 369.414 316.018C365.483 316.673 361.751 318.038 358.368 320.149C352.595 323.751 348.077 328.947 343.641 334.048C343.211 334.543 342.782 335.036 342.353 335.527C337.205 341.416 331.749 346.958 324.952 350.952C318.422 354.789 310.767 357.232 303.13 356.503C296.555 355.876 290.089 352.875 285.53 348.069C280.721 342.998 278.689 336.182 279.971 329.301C282.193 317.375 291.218 309.75 300.107 302.241C303.737 299.174 307.345 296.126 310.457 292.813C313.296 289.788 315.806 286.444 317.679 282.736ZM302.497 301.213C308.673 295.99 314.682 290.408 318.384 283.093C318.387 283.087 318.391 283.081 318.394 283.075L318.399 283.066C320.1 279.62 321.226 275.89 321.343 272.031C321.459 268.218 320.492 264.519 319.527 260.827L319.527 260.827C318.385 256.458 317.245 252.097 317.905 247.567C318.974 240.227 324.525 234.363 330.795 230.874C338.18 226.765 346.831 225.121 355.059 223.558L355.513 223.471C364.482 221.766 373.548 220.573 382.652 219.897C387.23 219.556 391.819 219.348 396.409 219.27C400.604 219.199 404.838 219.135 409.019 219.532C412.795 219.89 416.593 220.689 419.94 222.539C422.971 224.213 425.408 226.738 427.204 229.68C430.829 235.617 431.981 242.773 432.917 249.554C433.741 255.541 434.552 261.531 435.362 267.521C435.787 270.661 436.212 273.801 436.639 276.94C436.843 278.445 437.048 279.949 437.254 281.453L437.257 281.48L437.261 281.506L437.262 281.517C437.678 284.568 438.095 287.619 438.504 290.672C438.998 294.352 439.568 298.902 436.885 301.922C435.793 303.153 434.212 304.086 432.542 304.171C431.745 304.21 431.075 303.967 430.367 303.709C430.207 303.651 430.045 303.592 429.879 303.535C429.049 303.251 428.187 303.058 427.316 302.953C423.381 302.478 419.431 303.716 415.934 305.43C414.159 306.299 412.457 307.301 410.756 308.303L410.755 308.303L410.755 308.303L410.755 308.303L410.755 308.303L410.755 308.303C408.838 309.432 406.92 310.56 404.901 311.498C401.162 313.233 397.143 314.058 393.051 314.374C389.79 314.625 386.512 314.59 383.234 314.555C378.444 314.504 373.656 314.453 368.925 315.297C365.33 315.94 361.904 317.157 358.747 318.997C355.717 320.762 353.008 323.02 350.497 325.455C347.787 328.084 345.311 330.931 342.834 333.777C340.513 336.446 338.192 339.114 335.678 341.603C325.151 352.026 309.29 359.918 294.642 353.456C288.598 350.789 283.313 345.903 281.266 339.498C278.959 332.278 281.363 324.571 285.356 318.428C289.383 312.233 295.063 307.461 300.676 302.747L300.676 302.747C301.285 302.235 301.893 301.725 302.497 301.213ZM330.335 269.748C330.543 273.444 329.566 277.043 327.94 280.339C326.361 283.461 324.249 286.272 321.858 288.816C319.234 291.609 316.197 294.177 313.141 296.759L313.141 296.76C305.656 303.086 298.064 309.503 296.181 319.556C295.105 325.301 296.769 331.028 300.757 335.295C304.589 339.395 310.038 341.967 315.605 342.532C321.978 343.178 328.38 341.189 333.859 338.033C339.621 334.715 344.264 330.064 348.612 325.101C349.037 324.616 349.461 324.128 349.886 323.639C353.567 319.404 357.309 315.101 362.069 312.064C364.885 310.268 367.996 309.079 371.285 308.499C374.704 307.895 378.19 307.857 381.652 307.878C382.051 307.88 382.45 307.884 382.85 307.887C389.405 307.938 396.064 307.99 402.107 305.077C403.658 304.329 405.142 303.455 406.625 302.581L406.625 302.581L406.626 302.581L406.626 302.581L406.626 302.581C408.324 301.58 410.023 300.58 411.822 299.769C415.075 298.302 418.943 297.335 422.418 298.628C423.635 299.081 424.696 299.307 425.98 298.924C427.206 298.559 428.31 297.769 429.117 296.784C431.139 294.315 430.948 290.79 430.581 287.818C429.923 282.482 429.178 277.155 428.433 271.829L428.433 271.827C428.067 269.209 427.701 266.592 427.345 263.974C427.169 262.676 426.993 261.377 426.817 260.079L426.815 260.063C426.465 257.471 426.114 254.878 425.756 252.286C425.353 249.361 424.881 246.44 424.15 243.576C422.737 238.04 420.152 232.531 415.13 229.426C409.663 226.047 402.815 226.109 396.575 226.166L396.553 226.166L396.272 226.169L395.923 226.172C388.035 226.238 380.15 226.767 372.324 227.752C364.648 228.718 356.961 230.05 349.468 231.992C343.003 233.666 336.502 236.241 331.982 241.363C330.062 243.537 328.567 246.107 327.818 248.92C326.937 252.231 327.337 255.642 328.097 258.935C328.322 259.912 328.576 260.885 328.83 261.859L328.83 261.859C329.507 264.457 330.185 267.06 330.335 269.748ZM328.641 280.702C325.547 286.802 320.559 291.477 315.409 295.84C314.843 296.32 314.273 296.798 313.703 297.277C309.072 301.165 304.39 305.097 301.019 310.168C297.573 315.352 295.436 321.902 297.364 328.055C299.058 333.459 303.495 337.588 308.581 339.843C320.905 345.308 334.272 338.659 343.126 329.879C345.234 327.79 347.181 325.552 349.128 323.314C351.182 320.953 353.236 318.593 355.478 316.407C359.812 312.18 364.786 308.931 370.808 307.787C374.898 307.011 379.046 307.056 383.195 307.1C385.827 307.129 388.46 307.157 391.078 306.976C394.501 306.739 397.888 306.111 401.038 304.707C402.89 303.881 404.635 302.854 406.381 301.828L406.381 301.828L406.381 301.828L406.381 301.828L406.381 301.827L406.382 301.827L406.382 301.827L406.382 301.827L406.382 301.827C407.71 301.046 409.039 300.264 410.414 299.571C413.323 298.106 416.58 297.027 419.875 297.286C420.663 297.348 421.441 297.494 422.197 297.727C422.425 297.796 422.647 297.882 422.869 297.967L422.87 297.967C423.332 298.145 423.791 298.322 424.295 298.354C425.772 298.45 427.231 297.661 428.22 296.611C430.585 294.103 430.107 290.213 429.691 287.092C429.36 284.617 429.022 282.144 428.684 279.67C428.499 278.312 428.313 276.954 428.129 275.595C427.781 273.037 427.435 270.48 427.088 267.923L427.087 267.911C426.395 262.806 425.704 257.7 425.004 252.595C424.22 246.879 423.27 240.842 420.242 235.82C418.732 233.317 416.676 231.161 414.107 229.735C411.31 228.185 408.139 227.511 404.983 227.206C401.489 226.867 397.954 226.92 394.448 226.977C390.608 227.038 386.77 227.21 382.94 227.49C375.279 228.051 367.651 229.046 360.102 230.472L359.643 230.559L359.643 230.559L359.642 230.559C352.682 231.873 345.357 233.256 339.111 236.722C333.855 239.639 329.201 244.525 328.263 250.665C327.675 254.514 328.643 258.224 329.614 261.942C330.435 265.09 331.259 268.244 331.14 271.492C331.024 274.701 330.074 277.8 328.661 280.667C328.655 280.679 328.648 280.691 328.641 280.702ZM338.201 277.94C339.512 275.274 340.308 272.369 340.143 269.379C340.022 267.196 339.47 265.08 338.92 262.969C338.705 262.145 338.49 261.32 338.301 260.493C337.688 257.809 337.383 255.028 338.122 252.336C338.762 250.009 340.018 247.894 341.627 246.108C345.308 242.024 350.544 239.961 355.752 238.613C361.858 237.031 368.119 235.946 374.373 235.161C380.813 234.352 387.302 233.923 393.793 233.88L394.155 233.877C399.238 233.843 404.807 233.805 409.252 236.599C413.328 239.161 415.41 243.684 416.547 248.199C417.582 252.31 418.105 256.563 418.625 260.79L418.625 260.792C418.792 262.15 418.959 263.506 419.142 264.854C419.427 266.953 419.722 269.051 420.016 271.15L420.016 271.15L420.016 271.15L420.016 271.15C420.621 275.466 421.227 279.783 421.753 284.107C422.046 286.515 422.176 289.335 420.567 291.344C419.252 292.984 417.184 293.748 415.2 292.976C410.613 291.191 406.203 293.781 402.159 296.156C401.083 296.787 400.033 297.404 399.013 297.919C393.859 300.521 388.189 300.474 382.555 300.427L382.555 300.427L382.442 300.426C376.794 300.38 371.134 300.622 366.209 303.706C362.267 306.174 359.184 309.721 356.154 313.208L356.154 313.208C355.813 313.601 355.472 313.993 355.131 314.382C351.577 318.44 347.779 322.243 343.06 324.947C338.601 327.503 333.396 329.112 328.216 328.578C323.689 328.112 319.263 326.022 316.143 322.692C312.883 319.21 311.519 314.541 312.388 309.848C313.906 301.654 320.097 296.42 326.193 291.265C328.645 289.191 331.082 287.131 333.194 284.896C335.164 282.81 336.9 280.505 338.201 277.94ZM328.304 290.48C332.431 286.974 336.397 283.211 338.89 278.329C338.903 278.311 338.915 278.291 338.926 278.27C340.081 275.92 340.853 273.388 340.947 270.758C341.04 268.127 340.372 265.572 339.706 263.022C338.916 259.999 338.128 256.984 338.611 253.856C339.397 248.758 343.338 244.745 347.737 242.405C352.82 239.701 358.705 238.597 364.32 237.544L364.606 237.49C370.731 236.34 376.921 235.539 383.137 235.091C386.245 234.868 389.358 234.732 392.474 234.685C395.306 234.642 398.166 234.601 400.988 234.885C403.538 235.143 406.095 235.703 408.345 236.973C410.437 238.154 412.093 239.94 413.305 241.998C415.744 246.14 416.477 251.09 417.115 255.778C417.942 261.862 418.768 267.946 419.594 274.029L419.645 274.402C419.778 275.382 419.912 276.361 420.047 277.341C420.335 279.443 420.624 281.545 420.901 283.649C421.238 286.212 421.57 289.42 419.477 291.362C418.643 292.134 417.458 292.699 416.3 292.501C415.965 292.443 415.643 292.319 415.322 292.196L415.322 292.196L415.322 292.196L415.321 292.196C415.101 292.11 414.88 292.025 414.655 291.962C414.049 291.792 413.427 291.692 412.8 291.655C410.174 291.499 407.598 292.353 405.278 293.517C404.151 294.084 403.063 294.723 401.976 295.363L401.975 295.363L401.975 295.363L401.975 295.363C400.621 296.16 399.266 296.957 397.835 297.611C395.291 298.776 392.557 299.318 389.778 299.525C387.578 299.69 385.367 299.666 383.156 299.643L383.156 299.643C379.882 299.608 376.609 299.573 373.375 300.149C368.483 301.02 364.418 303.557 360.87 306.956C358.934 308.813 357.174 310.835 355.415 312.857C353.896 314.602 352.377 316.347 350.744 317.986C343.565 325.191 332.654 330.719 322.583 326.261C318.453 324.434 314.851 321.084 313.485 316.695C311.916 311.655 313.721 306.293 316.572 302.076C319.296 298.048 323.033 294.91 326.734 291.803L326.734 291.803C327.259 291.362 327.784 290.922 328.304 290.48ZM349.921 268.601C350.133 271.028 349.526 273.374 348.464 275.544C347.443 277.55 346.08 279.348 344.53 280.971C342.928 282.651 341.091 284.206 339.243 285.77L339.242 285.771C334.536 289.753 329.757 293.798 328.593 300.136C327.933 303.737 328.97 307.327 331.458 310.012C333.869 312.614 337.307 314.256 340.826 314.623C349.265 315.502 356.328 309.726 361.535 303.793C361.831 303.455 362.127 303.114 362.424 302.773C364.709 300.143 367.029 297.473 369.979 295.581C373.825 293.115 378.243 292.934 382.677 292.97C387.01 293.007 391.366 293.042 395.332 291.051C396.191 290.619 397.02 290.13 397.849 289.641L397.85 289.641L397.85 289.641C398.98 288.975 400.11 288.309 401.314 287.788C402.43 287.306 403.603 286.942 404.817 286.84C406.003 286.742 406.972 287.004 408.081 287.362C409.538 287.832 411.116 287.066 412.017 285.907C413.218 284.362 413.142 282.24 412.925 280.4C412.523 276.987 412.041 273.581 411.559 270.175C411.325 268.522 411.091 266.87 410.866 265.217C410.729 264.209 410.605 263.195 410.48 262.178L410.48 262.177L410.479 262.176C410.078 258.909 409.673 255.62 408.848 252.448C407.95 249.002 406.313 245.601 403.193 243.663C399.774 241.539 395.509 241.567 391.609 241.593L391.351 241.594C386.257 241.626 381.165 241.965 376.112 242.611C371.32 243.223 366.515 244.057 361.839 245.286C357.83 246.341 353.816 247.97 351.014 251.145C349.832 252.484 348.909 254.059 348.421 255.783C347.847 257.813 348.036 259.911 348.483 261.944C348.64 262.659 348.825 263.368 349.01 264.078C349.398 265.57 349.787 267.062 349.921 268.601ZM349.165 275.909C347.006 280.124 343.496 283.095 339.979 286.071C337.128 288.484 334.272 290.9 332.13 293.986C329.874 297.235 328.398 301.407 329.61 305.336C330.662 308.749 333.475 311.336 336.692 312.727C344.537 316.115 352.953 311.647 358.44 306.013C359.577 304.846 360.647 303.617 361.718 302.388C363.121 300.777 364.524 299.166 366.077 297.695C368.767 295.145 371.859 293.252 375.545 292.586C378.046 292.135 380.578 292.161 383.112 292.188L383.112 292.188L383.112 292.188C384.723 292.205 386.333 292.222 387.936 292.116C390.07 291.975 392.179 291.602 394.146 290.739C395.339 290.216 396.46 289.556 397.581 288.896C398.304 288.471 399.027 288.046 399.769 287.657C401.589 286.705 403.608 285.966 405.689 286.029C406.594 286.056 407.373 286.294 408.218 286.572C409.175 286.888 410.121 286.587 410.879 285.953C412.614 284.502 412.329 281.936 412.068 279.94C411.86 278.352 411.642 276.766 411.424 275.179C411.315 274.385 411.206 273.591 411.098 272.798C410.88 271.193 410.663 269.588 410.445 267.983L410.443 267.971L410.442 267.959C410.011 264.779 409.579 261.6 409.144 258.421C408.655 254.849 408.086 251.071 406.211 247.923C405.264 246.334 403.968 244.968 402.338 244.076C400.565 243.106 398.554 242.704 396.56 242.523C391.989 242.109 387.274 242.395 382.707 242.739C377.939 243.099 373.191 243.728 368.494 244.624L368.166 244.687L368.165 244.687C363.808 245.517 359.202 246.395 355.334 248.652C352.101 250.539 349.292 253.667 348.891 257.522C348.656 259.779 349.224 261.951 349.793 264.128C350.311 266.113 350.831 268.101 350.744 270.159C350.658 272.161 350.061 274.082 349.185 275.872C349.183 275.877 349.18 275.882 349.178 275.887C349.174 275.895 349.169 275.902 349.165 275.909ZM358.725 273.147C359.476 271.602 359.893 269.956 359.723 268.232C359.62 267.193 359.358 266.184 359.095 265.175L359.095 265.175C358.951 264.619 358.806 264.064 358.688 263.503C358.096 260.68 358.685 258.039 360.657 255.893C362.691 253.681 365.547 252.569 368.398 251.841C371.71 250.995 375.101 250.405 378.493 249.985C381.954 249.554 385.44 249.33 388.926 249.312L389.037 249.311C391.813 249.297 394.844 249.28 397.27 250.814C399.47 252.205 400.616 254.631 401.242 257.075C401.814 259.315 402.1 261.634 402.383 263.938C402.472 264.662 402.561 265.384 402.659 266.102C402.816 267.255 402.984 268.409 403.153 269.564L403.153 269.565C403.506 271.983 403.859 274.404 404.108 276.829C404.237 278.083 404.229 279.521 403.397 280.556C402.762 281.346 401.693 281.881 400.674 281.625C400.483 281.578 400.302 281.525 400.125 281.474C399.621 281.326 399.149 281.189 398.564 281.208C397.736 281.234 396.93 281.455 396.166 281.759C395.215 282.137 394.334 282.656 393.454 283.174C392.9 283.5 392.347 283.826 391.776 284.117C388.954 285.556 385.863 285.539 382.772 285.514C379.679 285.489 376.588 285.617 373.913 287.353C371.87 288.679 370.263 290.53 368.673 292.361C368.384 292.694 368.096 293.026 367.805 293.354C364.139 297.5 359.013 301.45 353.121 300.63C348.184 299.943 343.885 295.712 344.785 290.497C345.564 285.983 348.951 283.112 352.285 280.285C353.568 279.197 354.844 278.115 355.961 276.949C357.051 275.811 358.004 274.551 358.725 273.147ZM359.445 273.475C359.45 273.464 359.455 273.453 359.46 273.443C360.056 272.206 360.468 270.887 360.541 269.509C360.618 268.039 360.249 266.62 359.88 265.204C359.485 263.687 359.091 262.173 359.247 260.6C359.528 257.788 361.687 255.542 364.078 254.261C366.781 252.811 369.919 252.221 372.91 251.659L373.101 251.623C376.326 251.016 379.585 250.589 382.858 250.344C386.016 250.108 389.276 249.91 392.436 250.19C395.25 250.44 397.744 251.48 399.212 254.004C400.525 256.261 400.891 258.955 401.237 261.501L401.237 261.502L401.241 261.53C401.461 263.145 401.68 264.76 401.899 266.375L401.9 266.38L401.901 266.39C402.13 268.077 402.359 269.764 402.589 271.45C402.666 272.021 402.745 272.591 402.823 273.161C402.971 274.229 403.118 275.298 403.256 276.368C403.444 277.843 403.606 279.781 402.098 280.638C401.483 280.988 400.991 280.889 400.358 280.675C399.754 280.471 399.12 280.4 398.485 280.422C397.075 280.473 395.729 281.019 394.503 281.678C394.048 281.922 393.603 282.183 393.157 282.445C392.276 282.963 391.395 283.481 390.445 283.861C389.059 284.417 387.578 284.627 386.094 284.702C385.096 284.752 384.092 284.741 383.088 284.73L383.088 284.73C381.198 284.709 379.308 284.688 377.451 285.074C373.306 285.935 370.634 288.966 367.977 291.981L367.976 291.981C367.224 292.834 366.473 293.686 365.69 294.487C361.867 298.399 355.996 301.488 350.557 299.083C348.286 298.079 346.314 296.202 345.667 293.749C344.936 290.974 346.09 288.085 347.719 285.859C349.199 283.838 351.101 282.225 353 280.615L353 280.615C355.465 278.526 357.923 276.441 359.445 273.475ZM369.523 267.861C369.647 268.882 369.422 269.829 368.985 270.749C368.123 272.393 366.714 273.598 365.308 274.798C363.592 276.265 361.881 277.727 361.182 279.979C360.142 283.333 362.744 286.35 366.063 286.72C369.446 287.095 372.346 284.871 374.458 282.485C374.63 282.291 374.8 282.095 374.971 281.897C375.907 280.818 376.857 279.722 378.085 278.978C379.632 278.039 381.419 278.052 383.169 278.064C383.297 278.065 383.425 278.066 383.553 278.066C385.425 278.074 387.072 277.848 388.717 276.913C388.866 276.829 389.014 276.742 389.163 276.654C389.87 276.239 390.587 275.817 391.398 275.66C391.932 275.555 392.379 275.619 392.887 275.768C393.152 275.846 393.379 275.898 393.657 275.856C395.176 275.625 395.37 273.946 395.231 272.715C395.071 271.301 394.868 269.89 394.666 268.48C394.565 267.777 394.465 267.074 394.369 266.371C394.316 265.978 394.269 265.563 394.221 265.134C393.923 262.473 393.567 259.297 391.177 257.857C389.776 257.013 388.063 257.019 386.48 257.025C384.444 257.032 382.408 257.163 380.387 257.414C378.424 257.659 376.46 258.001 374.545 258.498C372.946 258.912 371.359 259.545 370.197 260.76C369.148 261.856 368.652 263.27 368.853 264.778C368.921 265.287 369.052 265.783 369.183 266.279C369.321 266.801 369.459 267.324 369.523 267.861ZM369.728 271.025C370.522 269.319 370.365 267.781 369.916 265.995C369.66 264.975 369.422 263.924 369.773 262.893C370.047 262.092 370.596 261.399 371.242 260.862C372.713 259.636 374.719 259.22 376.547 258.846C378.542 258.437 380.562 258.148 382.592 257.981C384.4 257.833 386.25 257.728 388.063 257.84C389.667 257.94 391.167 258.408 392.061 259.835C392.855 261.101 393.067 262.657 393.264 264.112L393.272 264.171C393.422 265.263 393.57 266.355 393.718 267.448C393.817 268.178 393.916 268.908 394.015 269.639C394.062 269.981 394.109 270.323 394.156 270.666C394.242 271.285 394.327 271.905 394.407 272.525L394.418 272.606C394.521 273.4 394.673 274.568 393.799 274.974C393.483 275.12 393.218 275.038 392.933 274.95C392.816 274.914 392.695 274.877 392.566 274.854C392.241 274.796 391.902 274.792 391.573 274.83C390.891 274.908 390.237 275.169 389.633 275.484C389.334 275.64 389.043 275.811 388.752 275.982C388.306 276.244 387.86 276.507 387.386 276.713C386.624 277.044 385.813 277.186 384.989 277.242C384.344 277.285 383.695 277.278 383.047 277.271C382.044 277.261 381.042 277.25 380.052 277.426C377.48 277.883 375.849 279.725 374.216 281.568C373.986 281.829 373.755 282.089 373.522 282.346C371.377 284.702 368.058 286.875 364.769 285.587C363.437 285.064 362.239 284.011 361.851 282.597C361.4 280.963 362.141 279.266 363.133 277.988C363.967 276.916 364.99 276.042 366.011 275.171C367.415 273.971 368.814 272.777 369.705 271.077C369.714 271.059 369.722 271.042 369.728 271.025Z" fill="url(#paint0_linear_1305_1090)"/>
<defs>
<linearGradient id="paint0_linear_1305_1090" x1="429.624" y1="118.014" x2="86.9839" y2="377.501" gradientUnits="userSpaceOnUse">
<stop stop-color="#023436"/>
<stop offset="0.34086" stop-color="#00F1B5" stop-opacity="0.16"/>
<stop offset="0.995488" stop-color="#023436"/>
</linearGradient>
</defs>
</svg>
