<svg width="399" height="483" viewBox="0 0 399 483" fill="none" xmlns="http://www.w3.org/2000/svg">
<path d="M134.716 482.314C147.681 460.959 152.48 438.491 142.588 416.364C140.916 412.626 138.738 407.773 136.581 402.966C98.6879 318.539 69.7661 254.099 95.0891 187.752C113.898 138.471 228.571 105.764 294.531 90.7611L294.313 90.1297C228.232 105.174 113.369 137.986 94.4642 187.513C69.0421 254.116 98.014 318.666 135.972 403.238C137.774 407.252 139.604 411.331 141.976 416.637C151.701 438.387 147.091 460.492 134.448 481.54L134.715 482.315L134.716 482.314Z" fill="url(#paint0_linear_788_645)"/>
<path d="M132.038 474.525C149.51 450.435 157.498 424.598 146.148 399.212C144.492 395.506 142.301 390.625 140.141 385.814C102.248 301.386 73.3241 236.946 98.6485 170.598C116.651 123.437 222.453 91.4524 289.331 75.6407L289.115 75.0107C222.116 90.867 116.118 122.958 98.0254 170.361C72.6034 236.964 101.576 301.515 139.534 386.085C141.333 390.094 143.15 394.143 145.539 399.483C156.724 424.5 148.944 449.985 131.787 473.792L132.039 474.524L132.038 474.525Z" fill="url(#paint1_linear_788_645)"/>
<path d="M129.039 465.804C150.919 439.371 162.397 410.431 149.709 382.051C148.044 378.329 145.862 373.463 143.702 368.653C105.809 284.226 76.8854 219.785 102.21 153.438C119.446 108.284 217.169 77.0427 284.154 60.5859L283.939 59.9586C216.831 76.462 118.911 107.811 101.587 153.2C76.1647 219.803 105.137 284.354 143.094 368.925C144.895 372.936 146.719 377 149.099 382.323C161.623 410.335 150.371 438.935 128.799 465.107L129.039 465.804Z" fill="url(#paint2_linear_788_645)"/>
<path d="M126.224 457.617C151.863 429.385 166.62 397.873 152.829 367.025C151.169 363.315 148.98 358.437 146.822 353.628C108.929 269.201 80.0053 204.76 105.33 138.413C121.92 94.9455 213.098 64.3709 279.643 47.4666L279.428 46.8407C212.759 63.7938 121.384 94.4776 104.705 138.174C79.2828 204.777 108.255 269.329 146.213 353.9C148.014 357.911 149.832 361.964 152.217 367.298C165.845 397.778 151.326 428.954 125.991 456.94L126.224 457.617Z" fill="url(#paint3_linear_788_645)"/>
<path d="M123.362 449.294C152.537 419.511 170.667 385.604 155.85 352.464C154.181 348.731 152 343.872 149.843 339.066C111.95 254.639 83.0262 190.198 108.351 123.851C124.338 81.9694 209.568 52.0584 275.291 34.8104L275.076 34.1858C209.227 51.485 123.799 81.507 107.728 123.613C82.3055 190.216 111.277 254.766 149.235 339.338C151.038 343.353 152.864 347.424 155.24 352.737C169.891 385.504 152.011 419.078 123.132 448.627L123.362 449.294Z" fill="url(#paint4_linear_788_645)"/>
<path d="M120.305 440.406C152.996 409.207 174.79 372.917 158.956 337.502C157.287 333.769 155.106 328.91 152.949 324.104C115.056 239.677 86.1324 175.236 111.457 108.889C125.843 71.1989 196.311 43.204 258.173 25.4057L254.76 25.7109C193.555 43.6049 125.051 71.4037 110.834 108.651C85.4117 175.254 114.384 239.805 152.341 324.376C154.144 328.391 155.97 332.462 158.346 337.774C174.011 372.813 152.479 408.771 120.079 439.747L120.305 440.406Z" fill="url(#paint5_linear_788_645)"/>
<path d="M117.33 431.752C153.22 399.367 178.661 360.872 161.891 323.362C160.229 319.646 158.041 314.772 155.883 309.964C117.991 225.536 89.0669 161.096 114.391 94.7482C124.422 68.469 161.725 46.9021 204.36 30.2167L202.114 30.4174C160.166 47.0631 123.703 68.4774 113.766 94.5097C88.3444 161.113 117.317 225.664 155.274 310.234C157.075 314.247 158.896 318.305 161.278 323.632C177.879 360.764 152.713 398.926 117.103 431.098L117.328 431.753L117.33 431.752Z" fill="url(#paint6_linear_788_645)"/>
<path d="M114.02 422.129C153.234 388.618 182.833 347.781 165.069 308.047C163.4 304.314 161.219 299.455 159.061 294.649C121.169 210.222 92.245 145.781 117.569 79.4338C124.196 62.0755 142.728 46.7718 166.831 33.573L165.287 33.7105C141.65 46.8314 123.508 62.0058 116.947 79.1975C91.5248 145.801 120.497 210.352 158.454 294.922C160.257 298.937 162.085 303.008 164.459 308.32C182.05 347.667 152.739 388.172 113.798 421.481L114.02 422.129Z" fill="url(#paint7_linear_788_645)"/>
<defs>
<linearGradient id="paint0_linear_788_645" x1="114.801" y1="357.512" x2="211.657" y2="110.94" gradientUnits="userSpaceOnUse">
<stop stop-color="#023436"/>
<stop offset="0.544795" stop-color="#00F1B5" stop-opacity="0.28"/>
<stop offset="1" stop-color="#023436"/>
</linearGradient>
<linearGradient id="paint1_linear_788_645" x1="111.272" y1="347.245" x2="211.858" y2="98.728" gradientUnits="userSpaceOnUse">
<stop stop-color="#023436"/>
<stop offset="0.544795" stop-color="#00F1B5" stop-opacity="0.28"/>
<stop offset="1" stop-color="#023436"/>
</linearGradient>
<linearGradient id="paint2_linear_788_645" x1="107.543" y1="336.401" x2="211.302" y2="86.3053" gradientUnits="userSpaceOnUse">
<stop stop-color="#023436"/>
<stop offset="0.544795" stop-color="#00F1B5" stop-opacity="0.28"/>
<stop offset="1" stop-color="#023436"/>
</linearGradient>
<linearGradient id="paint3_linear_788_645" x1="104.161" y1="326.567" x2="210.369" y2="75.2993" gradientUnits="userSpaceOnUse">
<stop stop-color="#023436"/>
<stop offset="0.544795" stop-color="#00F1B5" stop-opacity="0.28"/>
<stop offset="1" stop-color="#023436"/>
</linearGradient>
<linearGradient id="paint4_linear_788_645" x1="100.802" y1="316.798" x2="209.149" y2="64.5386" gradientUnits="userSpaceOnUse">
<stop stop-color="#023436"/>
<stop offset="0.544795" stop-color="#00F1B5" stop-opacity="0.28"/>
<stop offset="1" stop-color="#023436"/>
</linearGradient>
<linearGradient id="paint5_linear_788_645" x1="96.3087" y1="306.885" x2="210.116" y2="62.0668" gradientUnits="userSpaceOnUse">
<stop stop-color="#023436"/>
<stop offset="0.544795" stop-color="#00F1B5" stop-opacity="0.28"/>
<stop offset="1" stop-color="#023436"/>
</linearGradient>
<linearGradient id="paint6_linear_788_645" x1="89.12" y1="298.584" x2="214.623" y2="93.2175" gradientUnits="userSpaceOnUse">
<stop stop-color="#023436"/>
<stop offset="0.544795" stop-color="#00F1B5" stop-opacity="0.28"/>
<stop offset="1" stop-color="#023436"/>
</linearGradient>
<linearGradient id="paint7_linear_788_645" x1="83.2742" y1="290.366" x2="210.1" y2="119.06" gradientUnits="userSpaceOnUse">
<stop stop-color="#023436"/>
<stop offset="0.544795" stop-color="#00F1B5" stop-opacity="0.28"/>
<stop offset="1" stop-color="#023436"/>
</linearGradient>
</defs>
</svg>
