<svg width="520" height="548" viewBox="0 0 520 548" fill="none" xmlns="http://www.w3.org/2000/svg">
<path fill-rule="evenodd" clip-rule="evenodd" d="M308.078 122.321C292.854 124.548 277.528 121.968 263.218 116.608C249.467 111.323 236.761 103.668 225.087 94.7339C212.399 85.0187 200.456 73.4533 188.431 61.8089C159.049 33.3565 129.18 4.43316 86.7777 0.881348C62.4571 -1.15556 39.5223 8.27606 23.6451 26.776C8.59396 44.3137 0.494079 67.7869 0.621172 90.8261C0.767781 117.587 11.9688 143.363 27.5715 164.678C43.9428 187.04 65.234 204.156 87.6496 220.085C89.5213 221.415 91.4015 222.744 93.2852 224.074C112.819 237.874 132.728 251.939 147.461 270.984C156.178 282.252 162.362 294.999 166.102 308.738C169.937 322.827 171.503 337.404 172.856 351.904C172.95 352.91 173.044 353.916 173.137 354.923C175.721 382.779 178.337 410.977 193.544 435.264C197.142 441.011 201.156 446.481 205.169 451.949L205.169 451.95L205.17 451.95C210.101 458.67 215.032 465.39 219.191 472.623C226.788 485.835 232.363 501.777 228.358 517.067C227.01 522.215 226.571 526.574 228.788 531.6C230.899 536.387 234.651 540.477 239.094 543.206C250.363 550.131 264.86 547.344 276.94 544.525C298.685 539.45 320.389 534.19 342.092 528.931L342.092 528.931L342.094 528.931L342.096 528.93L342.098 528.93L342.1 528.929L342.102 528.929L342.104 528.928L342.106 528.928L342.107 528.927L342.109 528.927L342.111 528.926L342.113 528.926L342.115 528.926L342.117 528.925L342.119 528.925L342.121 528.924L342.123 528.924L342.125 528.923L342.127 528.923L342.128 528.922L342.13 528.922C352.76 526.346 363.39 523.77 374.024 521.216C379.215 519.969 384.407 518.727 389.6 517.485L389.61 517.483C400.386 514.905 411.163 512.327 421.929 509.708C433.913 506.794 445.86 503.603 457.435 499.312C479.519 491.127 501.007 478.145 511.486 456.152C522.919 432.158 519.74 403.876 516.85 378.161L516.849 378.155L516.846 378.129C516.714 376.953 516.582 375.783 516.453 374.619C512.792 341.693 507.194 308.981 499.708 276.709C492.449 245.422 483.744 214.194 472.482 184.094C462.821 158.273 449.376 132.689 426.319 116.451C416.445 109.499 405.094 104.457 393.084 102.768C378.857 100.768 364.875 104.214 351.501 108.857C348.041 110.057 344.598 111.336 341.15 112.615L341.149 112.616C330.347 116.626 319.514 120.648 308.078 122.321ZM263.013 117.373C262.997 117.369 262.98 117.363 262.963 117.357C233.367 105.981 211.16 84.4764 188.921 62.9415C169.978 44.5984 151.013 26.2332 127.439 14.0868C104.136 2.07957 75.9375 -3.66576 51.0692 7.14072C29.1018 16.6855 13.6409 37.1993 6.35424 59.5757C-11.276 113.71 22.2121 166.954 62.8612 200.483C72.4851 208.422 82.6691 215.621 92.853 222.819C103.714 230.496 114.574 238.173 124.755 246.748C134.122 254.638 142.923 263.301 150.138 273.232C157.604 283.505 163.014 294.957 166.485 307.162C171.119 323.456 172.636 340.268 174.153 357.085C175.191 368.598 176.23 380.113 178.269 391.465C180.843 405.788 185.189 419.699 192.642 432.266C196.651 439.024 201.292 445.354 205.933 451.685L205.934 451.686L205.934 451.686C210.048 457.297 214.162 462.909 217.836 468.819C224.987 480.322 230.718 493.566 230.451 507.351C230.393 510.353 230.053 513.368 229.368 516.294C229.231 516.879 229.086 517.453 228.943 518.021C228.245 520.791 227.589 523.397 228.051 526.381C228.993 532.472 232.988 537.904 237.906 541.457C249.683 549.965 265.688 546.396 278.693 543.298C289.257 540.782 299.815 538.239 310.373 535.697L310.375 535.696C315.651 534.426 320.926 533.156 326.202 531.889C336.62 529.387 347.039 526.891 357.459 524.396L357.463 524.395L357.467 524.394L357.47 524.393L357.474 524.392L357.478 524.391L357.481 524.39L357.485 524.389L357.489 524.389L357.492 524.388L357.496 524.387L357.5 524.386L357.503 524.385L357.507 524.384L357.511 524.383L357.514 524.382L357.518 524.381L357.538 524.377L357.549 524.374L357.563 524.371C378.698 519.309 399.834 514.246 420.956 509.131C444.595 503.407 469.422 496.754 489.116 481.82C498.94 474.371 507.004 464.767 511.875 453.387C517.211 440.922 518.684 427.209 518.605 413.762C518.517 398.862 516.783 383.945 515.04 369.164C513.142 353.088 510.785 337.066 507.969 321.125C502.371 289.427 494.975 258.047 485.816 227.189L485.404 225.801L485.404 225.8C476.936 197.26 468.042 167.281 450.861 142.638C436.248 121.677 413.439 104.163 387.063 103C370.88 102.286 355.961 107.835 341.012 113.394C328.356 118.101 315.679 122.815 302.197 123.744C288.809 124.665 275.521 122.052 263.013 117.373ZM309.476 132.034C294.936 134.161 280.3 131.697 266.633 126.577C253.5 121.528 241.365 114.218 230.21 105.682C218.088 96.4013 206.678 85.3527 195.19 74.2288L195.19 74.2286C167.122 47.0502 138.591 19.423 98.0845 16.0298C74.8491 14.0821 52.9365 23.0944 37.7664 40.7693C23.3858 57.5247 15.646 79.9513 15.7675 101.963C15.9089 127.532 26.6094 152.157 41.5169 172.522C57.1551 193.884 77.4948 210.235 98.9082 225.451C100.694 226.72 102.487 227.987 104.284 229.257L104.29 229.26C122.949 242.442 141.966 255.877 156.039 274.068C164.364 284.83 170.27 297.003 173.842 310.124C177.505 323.583 179.001 337.507 180.294 351.358C180.384 352.319 180.473 353.28 180.562 354.243L180.562 354.248C183.031 380.857 185.53 407.792 200.057 430.991C203.493 436.479 207.326 441.701 211.157 446.922L211.158 446.922L211.158 446.923C215.871 453.345 220.582 459.766 224.556 466.677C231.811 479.294 237.136 494.517 233.312 509.118C232.023 514.039 231.605 518.208 233.725 523.014C235.741 527.587 239.328 531.496 243.573 534.105C254.344 540.721 268.194 538.062 279.738 535.367C300.518 530.518 321.259 525.492 342 520.466L342.001 520.466C352.158 518.004 362.315 515.543 372.476 513.103C377.295 511.946 382.114 510.793 386.934 509.64L386.938 509.639L386.943 509.638L386.948 509.637L386.953 509.635C397.384 507.14 407.814 504.645 418.236 502.111C429.686 499.326 441.099 496.277 452.158 492.179C473.259 484.359 493.786 471.954 503.797 450.941C514.719 428.018 511.682 401 508.92 376.432L508.92 376.427C508.793 375.296 508.666 374.17 508.541 373.05C505.043 341.597 499.697 310.352 492.546 279.524C485.613 249.637 477.297 219.805 466.537 191.051C457.308 166.382 444.464 141.941 422.435 126.428C413.003 119.785 402.156 114.968 390.681 113.354C377.09 111.444 363.732 114.737 350.955 119.172C347.654 120.318 344.367 121.538 341.077 122.759L341.077 122.759C330.756 126.592 320.404 130.435 309.476 132.034ZM266.324 127.305C238.079 116.433 216.878 95.9035 195.648 75.3451C177.553 57.8231 159.436 40.2801 136.918 28.6773C114.665 17.2104 87.7341 11.7237 63.9854 22.0425C43.006 31.1586 28.2402 50.7498 21.2815 72.1199C4.44302 123.821 36.4294 174.676 75.2515 206.699C84.4411 214.279 94.1654 221.153 103.89 228.027C114.268 235.363 124.646 242.699 134.373 250.893C143.321 258.43 151.731 266.707 158.623 276.193C165.755 286.01 170.924 296.951 174.243 308.614C178.669 324.176 180.118 340.235 181.567 356.297L181.567 356.298C182.559 367.297 183.551 378.297 185.5 389.142C187.957 402.822 192.108 416.109 199.227 428.112C203.057 434.569 207.49 440.616 211.924 446.663L211.924 446.663C215.853 452.023 219.783 457.383 223.293 463.029C230.125 474.019 235.6 486.672 235.344 499.845C235.288 502.714 234.962 505.595 234.309 508.39C234.178 508.95 234.04 509.498 233.904 510.04C233.238 512.683 232.612 515.17 233.052 518.017C233.95 523.83 237.764 529.015 242.458 532.408C253.703 540.532 268.986 537.122 281.405 534.165C291.584 531.74 301.758 529.29 311.931 526.841L311.932 526.841L311.934 526.84L311.943 526.838L311.952 526.836L311.961 526.834C316.903 525.644 321.845 524.454 326.787 523.267C336.75 520.874 346.715 518.488 356.679 516.101L356.681 516.101C376.891 511.26 397.101 506.42 417.298 501.528C439.875 496.061 463.588 489.707 482.398 475.443C491.778 468.33 499.482 459.159 504.133 448.292C509.228 436.386 510.635 423.29 510.56 410.446C510.476 396.215 508.819 381.967 507.154 367.85C505.342 352.494 503.09 337.188 500.401 321.961C495.054 291.681 487.988 261.708 479.239 232.232L478.844 230.899C470.756 203.643 462.261 175.01 445.852 151.475C431.895 131.456 410.113 114.729 384.923 113.618C369.465 112.937 355.214 118.237 340.936 123.547L340.936 123.547C328.847 128.043 316.739 132.546 303.862 133.433C291.054 134.315 278.343 131.813 266.379 127.331C266.36 127.323 266.341 127.315 266.324 127.305ZM270.049 136.546C283.071 141.424 297.019 143.773 310.874 141.747C321.289 140.223 331.155 136.56 340.992 132.907C344.128 131.743 347.261 130.58 350.408 129.487C362.586 125.259 375.321 122.121 388.276 123.942C399.216 125.481 409.557 130.073 418.552 136.407C439.551 151.194 451.795 174.491 460.595 198.007C470.849 225.414 478.776 253.849 485.384 282.337C492.2 311.719 497.296 341.501 500.63 371.48C500.749 372.548 500.869 373.622 500.991 374.701C503.623 398.121 506.518 423.877 496.107 445.731C486.563 465.764 466.995 477.591 446.879 485.048C436.339 488.955 425.457 491.861 414.544 494.516C404.797 496.887 395.042 499.221 385.286 501.555C380.5 502.7 375.715 503.845 370.93 504.994C361.25 507.319 351.574 509.663 341.898 512.008C322.124 516.799 302.35 521.591 282.538 526.215C271.53 528.784 258.324 531.319 248.054 525.009C244.004 522.522 240.584 518.793 238.66 514.431C236.637 509.846 237.035 505.868 238.266 501.172C241.909 487.261 236.833 472.756 229.922 460.735C226.135 454.148 221.645 448.029 217.154 441.909L217.154 441.909C213.501 436.931 209.848 431.953 206.572 426.721C192.725 404.607 190.343 378.932 187.989 353.567L187.837 351.923L187.733 350.816C186.501 337.615 185.076 324.343 181.584 311.514C178.181 299.011 172.554 287.411 164.621 277.157C151.209 259.821 133.088 247.019 115.307 234.457C113.591 233.244 111.878 232.034 110.173 230.823C89.7615 216.319 70.3731 200.732 55.4678 180.37C41.2557 160.956 31.0556 137.481 30.9213 113.105C30.8054 92.1205 38.1847 70.7391 51.8946 54.7657C66.3561 37.9163 87.2486 29.3248 109.4 31.1799C148.012 34.4146 175.208 60.7479 201.962 86.6537L201.962 86.6539L201.962 86.6542L201.963 86.6544L201.963 86.6546L201.963 86.6549L201.963 86.6551L201.964 86.6553L201.964 86.6556L201.964 86.6558L201.964 86.656L201.965 86.6563L201.965 86.6565L201.965 86.6567L201.965 86.657L201.965 86.6572L201.966 86.6574L201.966 86.6577L201.966 86.6579L201.966 86.6581C212.914 97.2589 223.788 107.788 235.341 116.633C245.968 124.768 257.533 131.735 270.049 136.546ZM269.795 137.295C269.811 137.301 269.826 137.306 269.842 137.31C281.236 141.572 293.338 143.95 305.532 143.11C317.804 142.264 329.344 137.972 340.865 133.687C354.475 128.626 368.057 123.574 382.79 124.224C406.796 125.284 427.552 141.225 440.851 160.301C456.487 182.728 464.583 210.013 472.29 235.986L472.669 237.264C481.007 265.359 487.741 293.928 492.838 322.788C495.402 337.301 497.548 351.889 499.275 366.526C500.863 379.98 502.442 393.559 502.522 407.121C502.594 419.362 501.253 431.842 496.397 443.189C491.964 453.544 484.623 462.283 475.685 469.06C457.758 482.653 435.16 488.709 413.644 493.919C394.482 498.56 375.308 503.152 356.134 507.744C346.547 510.04 336.961 512.336 327.375 514.638C322.66 515.771 317.946 516.906 313.232 518.041C303.53 520.378 293.829 522.714 284.121 525.026C272.29 527.844 257.727 531.095 247.013 523.355C242.542 520.125 238.91 515.187 238.055 509.651C237.637 506.942 238.233 504.575 238.866 502.06L238.867 502.057C238.997 501.541 239.128 501.018 239.253 500.485C239.876 497.819 240.187 495.071 240.241 492.335C240.485 479.776 235.267 467.714 228.752 457.236C225.407 451.854 221.661 446.746 217.916 441.637C213.69 435.873 209.464 430.11 205.814 423.955C199.028 412.517 195.073 399.855 192.73 386.817C190.874 376.482 189.928 365.998 188.982 355.517C187.601 340.205 186.221 324.898 182.001 310.064C178.838 298.944 173.91 288.514 167.11 279.155C160.54 270.111 152.523 262.221 143.993 255.036C134.723 247.228 124.833 240.238 114.944 233.247L114.943 233.246L114.943 233.246L114.943 233.246L114.942 233.246L114.942 233.246L114.942 233.246L114.942 233.246L114.941 233.245L114.941 233.245L114.941 233.245L114.941 233.245L114.94 233.245L114.94 233.245L114.94 233.245L114.94 233.244L114.939 233.244L114.939 233.244L114.939 233.244L114.939 233.244C105.67 226.692 96.4008 220.14 87.6418 212.915C50.647 182.399 20.1623 133.935 36.2091 84.6656C42.8416 64.303 56.9121 45.6347 76.9037 36.9472C99.5325 27.1145 125.195 32.3442 146.399 43.2691C167.862 54.3283 185.129 71.0488 202.376 87.7494C222.625 107.357 242.846 126.937 269.795 137.295ZM312.272 151.458C299.102 153.385 285.845 151.153 273.466 146.515C261.566 141.941 250.571 135.317 240.468 127.585C229.482 119.174 219.142 109.161 208.731 99.0808C183.289 74.4468 157.429 49.4072 120.71 46.3308C99.6432 44.5666 79.774 52.7369 66.0195 68.7613C52.9802 83.9524 45.9611 104.287 46.0714 124.245C46.1983 147.426 55.8985 169.753 69.415 188.216C83.5888 207.577 102.024 222.397 121.433 236.19C123.054 237.342 124.682 238.492 126.314 239.644C143.22 251.588 160.45 263.76 173.201 280.243C180.742 289.989 186.091 301.018 189.326 312.901C192.647 325.098 194.002 337.717 195.174 350.269C195.219 350.756 195.265 351.243 195.31 351.73L195.417 352.879C197.654 376.998 199.92 401.416 213.087 422.446C216.202 427.419 219.675 432.153 223.148 436.885L223.149 436.886L223.149 436.886C227.419 442.706 231.689 448.524 235.29 454.787C241.86 466.211 246.687 479.998 243.223 493.22C242.054 497.692 241.674 501.477 243.599 505.843C245.428 509.994 248.684 513.542 252.537 515.909C262.306 521.911 274.867 519.502 285.339 517.058C304.154 512.666 322.934 508.116 341.713 503.565C350.935 501.331 360.157 499.096 369.382 496.881C373.988 495.774 378.595 494.672 383.202 493.57L383.203 493.569L383.204 493.569L383.205 493.569L383.207 493.568L383.208 493.568L383.209 493.568L383.211 493.568L383.212 493.567L383.213 493.567L383.214 493.567L383.216 493.566L383.217 493.566L383.218 493.566L383.219 493.565L383.221 493.565L383.222 493.565L383.223 493.564L383.225 493.564C392.437 491.36 401.648 489.156 410.853 486.918C421.232 484.394 431.579 481.629 441.604 477.914C460.735 470.822 479.343 459.573 488.42 440.519C498.321 419.736 495.568 395.243 493.065 372.971C492.949 371.946 492.835 370.925 492.722 369.91C489.55 341.406 484.704 313.089 478.225 285.151C471.941 258.062 464.403 231.024 454.652 204.963C446.284 182.601 434.64 160.447 414.671 146.385C406.116 140.361 396.281 135.993 385.875 134.53C373.554 132.797 361.444 135.781 349.862 139.802C346.867 140.841 343.884 141.949 340.899 143.057C331.549 146.528 322.171 150.009 312.272 151.458ZM273.187 147.255C247.575 137.404 228.355 118.792 209.107 100.155C192.707 84.2747 176.288 68.3754 155.878 57.8597C135.724 47.4751 111.329 42.5023 89.8183 51.8491C70.8144 60.1065 57.4407 77.8518 51.135 97.21C35.8802 144.048 64.8609 190.119 100.031 219.13C108.36 226.001 117.174 232.231 125.988 238.462C135.392 245.109 144.796 251.757 153.61 259.181C161.722 266.014 169.344 273.516 175.595 282.116C182.063 291.017 186.75 300.939 189.759 311.514C193.77 325.617 195.083 340.17 196.396 354.727L196.396 354.728L196.396 354.728C197.296 364.696 198.195 374.665 199.961 384.493C202.187 396.888 205.949 408.924 212.399 419.8C215.869 425.651 219.887 431.131 223.905 436.612C227.466 441.469 231.028 446.327 234.208 451.444C240.404 461.411 245.366 472.883 245.133 484.828C245.083 487.43 244.787 490.045 244.192 492.582C244.074 493.088 243.949 493.583 243.826 494.073C243.223 496.463 242.657 498.713 243.055 501.287C243.866 506.546 247.316 511.237 251.563 514.304C261.746 521.66 275.588 518.569 286.832 515.891C296.073 513.69 305.308 511.466 314.543 509.242C319.015 508.165 323.487 507.088 327.96 506.014C337.073 503.825 346.188 501.642 355.303 499.459C373.535 495.092 391.766 490.726 409.985 486.313C430.439 481.359 451.924 475.604 468.965 462.682C477.461 456.24 484.438 447.934 488.652 438.091C493.27 427.304 494.543 415.44 494.474 403.802C494.398 390.908 492.897 377.999 491.388 365.209C489.746 351.292 487.705 337.421 485.267 323.622C480.42 296.182 474.019 269.018 466.089 242.304L465.727 241.082C458.401 216.391 450.705 190.454 435.841 169.133C423.198 150.999 403.467 135.844 380.649 134.838C366.643 134.22 353.729 139.023 340.79 143.835C329.836 147.909 318.864 151.99 307.195 152.794C295.582 153.595 284.056 151.326 273.208 147.263L273.197 147.259L273.187 147.255ZM276.881 156.484C288.617 160.88 301.184 162.998 313.67 161.171C323.061 159.797 331.957 156.494 340.827 153.2C343.655 152.15 346.479 151.102 349.317 150.117C360.301 146.305 371.787 143.474 383.472 145.116C393.343 146.504 402.674 150.647 410.788 156.362C429.726 169.699 440.771 190.709 448.708 211.919C457.956 236.635 465.105 262.276 471.063 287.966C477.209 314.459 481.804 341.311 484.81 368.341C484.918 369.304 485.026 370.271 485.136 371.244C487.51 392.367 490.121 415.598 480.731 435.308C472.122 453.381 454.475 464.053 436.326 470.78C426.819 474.305 417.006 476.926 407.162 479.321C398.306 481.475 389.442 483.596 380.578 485.716C376.33 486.733 372.083 487.749 367.837 488.768C359.095 490.868 350.358 492.985 341.62 495.103C323.805 499.419 305.989 503.736 288.14 507.902C278.203 510.221 266.287 512.505 257.018 506.81C253.362 504.564 250.273 501.195 248.535 497.257C246.707 493.112 247.067 489.516 248.179 485.27C251.462 472.737 246.885 459.669 240.657 448.84C237.243 442.902 233.195 437.386 229.146 431.869L229.146 431.868C225.852 427.379 222.557 422.889 219.603 418.171C207.115 398.229 204.967 375.073 202.845 352.202C202.768 351.375 202.691 350.548 202.614 349.722C201.503 337.818 200.218 325.853 197.069 314.287C194.002 303.021 188.931 292.567 181.783 283.327C169.692 267.697 153.355 256.155 137.325 244.83L137.325 244.83C135.778 243.737 134.235 242.646 132.698 241.554C114.292 228.475 96.8075 214.42 83.3664 196.058C70.5451 178.544 61.3455 157.368 61.2241 135.381C61.119 116.449 67.7783 97.1621 80.147 82.7531C93.1944 67.5538 112.042 59.8045 132.025 61.4776C166.848 64.3943 191.372 88.1391 215.499 111.5C225.372 121.06 235.179 130.555 245.598 138.533C255.175 145.867 265.599 152.148 276.881 156.484ZM276.626 157.233C276.64 157.239 276.654 157.243 276.668 157.247C286.948 161.093 297.868 163.237 308.87 162.478C319.933 161.715 330.335 157.846 340.721 153.983C352.991 149.419 365.238 144.865 378.519 145.451C400.153 146.405 418.858 160.775 430.843 177.966C444.934 198.178 452.231 222.768 459.177 246.176L459.522 247.342C467.039 272.672 473.112 298.433 477.707 324.453C480.019 337.54 481.954 350.692 483.511 363.89C484.942 376.017 486.365 388.257 486.437 400.481C486.503 411.515 485.295 422.764 480.917 432.991C476.923 442.322 470.308 450.195 462.254 456.302C446.098 468.553 425.727 474.01 406.334 478.707C388.873 482.934 371.401 487.119 353.929 491.304C345.469 493.33 337.009 495.357 328.55 497.388C324.132 498.449 319.714 499.512 315.297 500.576L315.289 500.578L315.265 500.583L315.254 500.586L315.248 500.588C306.683 502.65 298.119 504.712 289.549 506.753C278.892 509.293 265.772 512.225 256.12 505.252C252.097 502.345 248.83 497.902 248.06 492.92C247.683 490.484 248.22 488.355 248.79 486.093L248.79 486.092C248.907 485.627 249.026 485.156 249.138 484.676C249.701 482.27 249.982 479.788 250.03 477.318C250.25 465.987 245.544 455.104 239.668 445.65C236.651 440.797 233.272 436.189 229.894 431.581L229.894 431.581C226.085 426.386 222.276 421.19 218.985 415.643C212.87 405.332 209.305 393.92 207.193 382.168C205.519 372.849 204.666 363.396 203.813 353.944C202.567 340.139 201.322 326.338 197.518 312.963C194.665 302.931 190.219 293.521 184.083 285.077C178.155 276.92 170.925 269.805 163.232 263.324C154.875 256.286 145.959 249.984 137.043 243.681C128.683 237.772 120.323 231.863 112.423 225.346C79.0802 197.842 51.6012 154.161 66.0642 109.755C72.042 91.4033 84.7204 74.5808 102.736 66.7521C123.127 57.8914 146.254 62.6055 165.358 72.4498C184.404 82.2642 199.834 97.2725 215.074 112.095L215.074 112.096C216.736 113.712 218.396 115.327 220.058 116.932C236.822 133.125 254.571 148.756 276.626 157.233ZM315.068 170.884C303.267 172.61 291.389 170.609 280.297 166.453C269.632 162.353 259.778 156.416 250.723 149.488C240.872 141.946 231.601 132.969 222.267 123.932L222.266 123.931L222.266 123.931L222.265 123.93L222.265 123.93L222.265 123.93L222.264 123.93L222.264 123.929L222.264 123.929L222.264 123.929L222.263 123.929L222.263 123.928L222.263 123.928C199.449 101.841 176.261 79.3905 143.333 76.6324C124.435 75.0485 106.61 82.3783 94.2696 96.7525C82.5699 110.38 76.2706 128.619 76.3701 146.524C76.4845 167.319 85.1836 187.344 97.3096 203.908C110.019 221.27 126.551 234.559 143.954 246.926C145.404 247.956 146.861 248.985 148.32 250.016C163.478 260.723 178.926 271.636 190.359 286.415C197.116 295.148 201.909 305.029 204.807 315.676C207.784 326.611 208.997 337.924 210.049 349.178C210.097 349.69 210.144 350.202 210.192 350.714L210.267 351.519C212.273 373.146 214.305 395.042 226.113 413.899C228.906 418.36 232.021 422.604 235.135 426.849C238.964 432.065 242.791 437.281 246.019 442.895C251.903 453.129 256.23 465.478 253.129 477.322C252.076 481.342 251.737 484.747 253.467 488.671C255.111 492.398 258.036 495.585 261.495 497.711C270.266 503.097 281.535 500.94 290.936 498.747C307.788 494.813 324.61 490.737 341.43 486.661L341.431 486.661L341.434 486.66C349.717 484.653 358 482.646 366.286 480.656C370.349 479.68 374.413 478.708 378.476 477.735L378.491 477.732C386.819 475.74 395.147 473.747 403.467 471.724C412.776 469.46 422.056 466.98 431.048 463.647C448.211 457.285 464.899 447.19 473.041 430.098C481.921 411.456 479.452 389.489 477.206 369.512C477.103 368.594 477 367.68 476.899 366.77C474.056 341.215 469.711 315.826 463.901 290.779C458.267 266.489 451.507 242.244 442.763 218.875C435.26 198.819 424.815 178.953 406.905 166.34C399.228 160.937 390.404 157.019 381.067 155.706C370.018 154.152 359.157 156.829 348.77 160.434C346.086 161.365 343.414 162.356 340.74 163.349L340.74 163.349L340.739 163.35L340.739 163.35L340.738 163.35L340.738 163.35L340.737 163.35L340.737 163.35L340.736 163.351L340.736 163.351L340.736 163.351L340.735 163.351L340.735 163.351L340.734 163.352L340.734 163.352L340.733 163.352L340.733 163.352L340.732 163.352C332.35 166.464 323.943 169.585 315.068 170.884ZM280.013 167.191C259.169 159.171 242.396 144.398 226.55 129.092C224.975 127.572 223.403 126.042 221.829 124.511C207.424 110.501 192.84 96.3162 174.837 87.0404C156.782 77.7365 134.924 73.2809 115.653 81.654C98.6229 89.0544 86.6414 104.954 80.9916 122.299C67.3203 164.273 93.296 205.564 124.813 231.56C132.281 237.721 140.185 243.308 148.088 248.894C156.518 254.853 164.948 260.812 172.85 267.468C180.126 273.596 186.963 280.325 192.568 288.037C198.372 296.024 202.577 304.923 205.276 314.413C208.874 327.06 210.05 340.109 211.227 353.162C212.033 362.097 212.839 371.033 214.422 379.843C216.417 390.953 219.787 401.741 225.569 411.488C228.68 416.733 232.282 421.646 235.883 426.559C239.077 430.914 242.27 435.27 245.122 439.859C250.681 448.801 255.13 459.094 254.923 469.81C254.877 472.147 254.612 474.495 254.078 476.773C253.972 477.225 253.86 477.668 253.75 478.106C253.211 480.243 252.703 482.255 253.059 484.557C253.785 489.261 256.872 493.457 260.67 496.202C269.79 502.791 282.19 500.016 292.259 497.619C300.359 495.689 308.454 493.74 316.549 491.791L316.552 491.79L316.564 491.787C320.754 490.778 324.943 489.77 329.133 488.764C337.12 486.846 345.107 484.933 353.095 483.019L353.116 483.014L353.119 483.014L353.124 483.012C369.644 479.056 386.165 475.099 402.675 471.1C421.006 466.66 440.264 461.504 455.535 449.924C463.146 444.152 469.4 436.712 473.174 427.893C477.312 418.224 478.453 407.593 478.393 397.162C478.324 385.607 476.979 374.036 475.627 362.572C474.155 350.094 472.325 337.659 470.139 325.286C465.794 300.684 460.054 276.329 452.946 252.38L452.625 251.298C446.058 229.164 439.16 205.911 425.836 186.798C414.508 170.548 396.829 156.966 376.38 156.064C363.825 155.511 352.247 159.817 340.648 164.131C330.829 167.783 320.994 171.441 310.536 172.163C300.116 172.882 289.775 170.848 280.041 167.203C280.031 167.199 280.022 167.195 280.013 167.191ZM283.714 176.422C294.162 180.335 305.352 182.223 316.467 180.597C324.827 179.374 332.746 176.434 340.643 173.502L340.647 173.5L340.649 173.499C343.172 172.563 345.693 171.627 348.224 170.748C358.015 167.35 368.251 164.829 378.666 166.293C387.467 167.531 395.788 171.222 403.023 176.319C419.903 188.206 429.749 206.928 436.822 225.831C445.063 247.854 451.433 270.701 456.743 293.593C462.218 317.196 466.311 341.12 468.99 365.199C469.086 366.054 469.182 366.913 469.279 367.777L469.28 367.781C471.396 386.61 473.724 407.314 465.354 424.885C457.679 440.998 441.952 450.514 425.772 456.512C417.298 459.653 408.551 461.99 399.777 464.123C391.808 466.061 383.832 467.97 375.856 469.878L375.847 469.88L375.84 469.881C372.141 470.767 368.441 471.652 364.742 472.54C356.937 474.414 349.136 476.304 341.335 478.195L341.335 478.195L341.334 478.195L341.334 478.195L341.333 478.195L341.333 478.195L341.332 478.195L341.332 478.195L341.332 478.196L341.331 478.196L341.331 478.196L341.33 478.196L341.33 478.196L341.329 478.196L341.329 478.196L341.328 478.196C325.475 482.038 309.622 485.879 293.738 489.587C284.873 491.655 274.248 493.688 265.979 488.608C262.716 486.603 259.957 483.595 258.407 480.08C256.774 476.377 257.093 473.162 258.087 469.368C261.008 458.213 256.93 446.583 251.389 436.945C248.347 431.655 244.74 426.74 241.133 421.824C238.198 417.825 235.263 413.825 232.631 409.622C221.5 391.844 219.586 371.201 217.695 350.812C217.628 350.084 217.56 349.356 217.492 348.629C216.502 338.024 215.358 327.364 212.553 317.059C209.823 307.029 205.308 297.723 198.944 289.497C188.176 275.575 173.625 265.296 159.347 255.209L159.341 255.205C157.965 254.232 156.59 253.262 155.222 252.29C138.821 240.634 123.241 228.11 111.264 211.748C99.8353 196.136 91.6348 177.261 91.5256 157.658C91.4317 140.78 97.3706 123.585 108.4 110.742C120.033 97.1929 136.835 90.2842 154.651 91.7769C185.686 94.3765 207.539 115.534 229.039 136.35C237.836 144.867 246.573 153.326 255.856 160.434C264.382 166.966 273.665 172.56 283.714 176.422ZM233.042 141.253C247.973 155.675 263.779 169.596 283.417 177.155L283.428 177.16L283.436 177.163C283.442 177.166 283.449 177.169 283.456 177.172C292.631 180.608 302.381 182.528 312.203 181.847C322.052 181.164 331.317 177.719 340.565 174.279L340.566 174.279C351.498 170.213 362.409 166.155 374.242 166.677C393.506 167.528 410.158 180.323 420.829 195.632C433.38 213.637 439.879 235.543 446.065 256.394L446.37 257.421C453.068 279.99 458.478 302.939 462.572 326.122C464.631 337.779 466.355 349.499 467.743 361.256C469.017 372.056 470.284 382.958 470.349 393.844C470.408 403.672 469.332 413.689 465.433 422.798C461.878 431.103 455.986 438.11 448.817 443.547C434.429 454.457 416.287 459.315 399.017 463.497C383.542 467.245 368.058 470.953 352.574 474.661L352.569 474.663L352.567 474.663L352.561 474.664L352.56 474.665L352.554 474.666L352.552 474.667L352.547 474.668L352.545 474.668L352.54 474.67L352.538 474.67L352.517 474.675L352.495 474.68L352.474 474.685C344.888 476.502 337.303 478.319 329.718 480.14C326.051 481.021 322.385 481.904 318.719 482.787L318.698 482.792L318.676 482.797C310.776 484.7 302.876 486.602 294.971 488.485C285.489 490.744 273.81 493.359 265.222 487.154C261.649 484.572 258.743 480.622 258.061 476.195C257.726 474.032 258.203 472.14 258.71 470.131L258.711 470.129C258.815 469.717 258.92 469.299 259.02 468.873C259.524 466.725 259.776 464.511 259.818 462.307C260.014 452.203 255.822 442.499 250.581 434.07C247.893 429.746 244.883 425.64 241.874 421.535C238.48 416.906 235.086 412.278 232.155 407.336C226.708 398.153 223.534 387.989 221.653 377.522C220.162 369.22 219.402 360.799 218.643 352.378L218.643 352.378L218.643 352.378L218.643 352.378L218.642 352.377L218.642 352.377L218.642 352.377L218.642 352.377L218.642 352.376L218.642 352.376L218.642 352.376L218.642 352.376L218.642 352.375L218.642 352.375L218.642 352.375L218.642 352.375L218.642 352.374C217.533 340.077 216.424 327.783 213.035 315.868C210.49 306.923 206.525 298.533 201.054 291.003C195.772 283.733 189.327 277.391 182.47 271.616C175.022 265.342 167.075 259.725 159.129 254.108L159.129 254.107L159.129 254.107L159.128 254.107L159.128 254.107L159.128 254.106L159.127 254.106L159.127 254.106L159.127 254.106L159.126 254.105L159.126 254.105L159.126 254.105L159.125 254.105L159.125 254.104L159.125 254.104L159.124 254.104C151.681 248.842 144.238 243.581 137.204 237.779C107.513 213.288 83.0404 174.389 95.9182 134.847C101.241 118.505 112.527 103.529 128.57 96.5586C146.719 88.672 167.311 92.8688 184.317 101.632C201.286 110.374 215.031 123.744 228.607 136.949C230.086 138.388 231.563 139.825 233.042 141.253ZM317.865 190.31C307.434 191.836 296.934 190.064 287.129 186.391C277.698 182.767 268.985 177.516 260.978 171.381C252.261 164.708 244.058 156.766 235.799 148.77C215.613 129.227 195.097 109.365 165.957 106.924C149.227 105.522 133.445 112.01 122.521 124.734C112.163 136.795 106.583 152.943 106.671 168.793C106.774 187.203 114.474 204.927 125.207 219.59C136.452 234.952 151.081 246.711 166.48 257.653C167.764 258.565 169.053 259.475 170.345 260.388L170.345 260.388C183.75 269.858 197.411 279.508 207.522 292.578C213.494 300.297 217.73 309.032 220.292 318.442C222.925 328.117 224.001 338.124 224.93 348.079C224.994 348.764 225.058 349.448 225.121 350.133C226.896 369.276 228.694 388.656 239.145 405.346C241.616 409.292 244.372 413.048 247.127 416.803L247.127 416.803C250.513 421.417 253.898 426.031 256.754 430.996C261.952 440.038 265.781 450.951 263.041 461.416C262.106 464.984 261.806 468.008 263.342 471.49C264.799 474.794 267.394 477.622 270.46 479.505C278.229 484.278 288.208 482.372 296.538 480.429C311.459 476.947 326.35 473.339 341.241 469.731C348.558 467.957 355.876 466.184 363.196 464.426C366.728 463.578 370.262 462.733 373.795 461.888L373.798 461.887L373.801 461.886L373.804 461.885L373.808 461.885L373.811 461.884L373.814 461.883L373.817 461.882L373.82 461.882L373.823 461.881L373.826 461.88C381.248 460.105 388.67 458.329 396.086 456.526C404.326 454.521 412.538 452.326 420.496 449.377C435.691 443.744 450.461 434.803 457.667 419.672C465.525 403.173 463.339 383.731 461.352 366.05L461.35 366.037L461.348 366.018C461.258 365.218 461.168 364.421 461.08 363.628C458.565 341.022 454.722 318.564 449.583 296.406C444.599 274.915 438.615 253.463 430.879 232.787C424.238 215.038 414.992 197.459 399.142 186.297C392.343 181.51 384.53 178.044 376.263 176.882C366.485 175.507 356.872 177.874 347.679 181.065C345.302 181.89 342.935 182.769 340.566 183.648C333.152 186.401 325.715 189.161 317.865 190.31ZM286.891 187.147C286.886 187.145 286.88 187.143 286.874 187.14C268.416 180.046 253.564 166.967 239.534 153.415C238.142 152.071 236.752 150.718 235.36 149.364C222.619 136.973 209.721 124.427 193.797 116.223C177.84 108.001 158.517 104.061 141.487 111.46C126.433 118.002 115.842 132.056 110.847 147.391C98.7608 184.501 121.731 221.009 149.595 243.993C156.202 249.442 163.193 254.384 170.184 259.326C177.642 264.598 185.1 269.87 192.091 275.757C198.529 281.18 204.582 287.134 209.542 293.961C214.681 301.034 218.405 308.912 220.794 317.315C223.976 328.502 225.017 340.046 226.059 351.593C226.772 359.497 227.485 367.402 228.885 375.196C230.649 385.02 233.629 394.558 238.742 403.177C241.494 407.817 244.68 412.162 247.866 416.508C250.691 420.362 253.517 424.215 256.04 428.275C260.962 436.192 264.898 445.306 264.714 454.795C264.674 456.868 264.432 458.945 263.965 460.966C263.868 461.384 263.765 461.794 263.663 462.198C263.195 464.062 262.754 465.816 263.065 467.827C263.706 471.977 266.427 475.68 269.779 478.101C277.835 483.921 288.794 481.466 297.69 479.347C304.938 477.621 312.182 475.877 319.426 474.133L319.434 474.131L319.442 474.129C323.065 473.256 326.687 472.384 330.31 471.514C337.436 469.803 344.563 468.096 351.69 466.389L351.724 466.381C366.274 462.896 380.825 459.411 395.367 455.889C411.575 451.963 428.604 447.406 442.106 437.167C448.833 432.066 454.361 425.491 457.698 417.698C461.357 409.149 462.366 399.747 462.312 390.524C462.252 380.305 461.061 370.073 459.866 359.937C458.563 348.898 456.945 337.898 455.012 326.953C451.168 305.19 446.091 283.645 439.803 262.458L439.514 261.486C433.709 241.919 427.609 221.361 415.831 204.463C405.817 190.098 390.191 178.087 372.112 177.29C361.006 176.801 350.763 180.609 340.5 184.426C331.818 187.654 323.122 190.888 313.877 191.529C304.666 192.169 295.521 190.372 286.916 187.154C286.908 187.152 286.9 187.149 286.891 187.147ZM290.545 196.36C299.706 199.791 309.517 201.448 319.263 200.022C326.6 198.949 333.55 196.369 340.48 193.796C342.695 192.973 344.909 192.152 347.132 191.38C355.727 188.398 364.715 186.184 373.858 187.47C381.591 188.557 388.9 191.798 395.257 196.276C410.077 206.712 418.724 223.148 424.934 239.745C432.166 259.075 437.759 279.13 442.42 299.222C447.225 319.934 450.817 340.929 453.168 362.061C453.251 362.811 453.336 363.566 453.421 364.323C455.28 380.856 457.323 399.035 449.976 414.465C443.237 428.616 429.427 436.979 415.216 442.247C407.775 445.005 400.096 447.059 392.392 448.931C385.503 450.606 378.607 452.256 371.712 453.905L371.689 453.911C368.341 454.712 364.993 455.513 361.646 456.316C354.789 457.963 347.936 459.624 341.082 461.285L341.078 461.286L341.074 461.287L341.069 461.288L341.065 461.289L341.061 461.29L341.057 461.291L341.052 461.292L341.052 461.292L341.051 461.292L341.051 461.292L341.051 461.292L341.05 461.292L341.05 461.292L341.049 461.292L341.049 461.293L341.048 461.293L341.048 461.293L341.048 461.293L341.047 461.293L341.047 461.293C327.152 464.66 313.257 468.027 299.336 471.276C291.543 473.096 282.208 474.876 274.939 470.409C272.069 468.646 269.641 465.999 268.278 462.907C266.839 459.643 267.118 456.812 267.994 453.469C270.553 443.694 266.974 433.5 262.119 425.054C259.45 420.411 256.285 416.098 253.12 411.784L253.119 411.784C250.544 408.274 247.968 404.764 245.658 401.076C235.887 385.471 234.207 367.351 232.547 349.453L232.542 349.403L232.534 349.315C232.479 348.722 232.424 348.13 232.369 347.538C231.5 338.232 230.494 328.875 228.033 319.834C225.641 311.042 221.681 302.88 216.102 295.669C206.654 283.455 193.887 274.436 181.36 265.585C180.15 264.731 178.943 263.878 177.741 263.024C163.346 252.795 149.669 241.801 139.155 227.439C129.117 213.726 121.917 197.152 121.822 179.936C121.74 165.113 126.96 150.011 136.646 138.732C146.864 126.834 161.622 120.765 177.27 122.076C204.516 124.359 223.697 142.927 242.57 161.198C250.29 168.672 257.959 176.096 266.107 182.335C273.588 188.065 281.731 192.971 290.545 196.36ZM246.026 165.575C259.141 178.242 273.022 190.467 290.271 197.102C290.278 197.105 290.285 197.108 290.293 197.11C298.352 200.13 306.918 201.814 315.546 201.214C324.186 200.615 332.315 197.592 340.429 194.575C350.022 191.007 359.596 187.447 369.976 187.904C386.868 188.65 401.468 199.874 410.826 213.298C421.832 229.088 427.531 248.299 432.956 266.584L433.228 267.499C439.106 287.305 443.852 307.445 447.446 327.788C449.253 338.02 450.766 348.304 451.984 358.621C453.103 368.096 454.215 377.657 454.271 387.207C454.321 395.827 453.379 404.611 449.959 412.602C446.843 419.884 441.677 426.025 435.392 430.79C422.773 440.359 406.859 444.619 391.712 448.286C378.207 451.557 364.693 454.794 351.18 458.03L351.172 458.032C344.414 459.65 337.655 461.269 330.898 462.892C327.522 463.703 324.146 464.516 320.771 465.328L320.768 465.329L320.765 465.33L320.762 465.33L320.759 465.331L320.757 465.332L320.754 465.332L320.751 465.333L320.748 465.334L320.745 465.334L320.742 465.335L320.74 465.336L320.737 465.337L320.734 465.337C313.959 466.969 307.184 468.6 300.405 470.215C292.096 472.194 281.86 474.49 274.334 469.054C271.208 466.795 268.668 463.339 268.07 459.467C267.78 457.59 268.192 455.954 268.629 454.215C268.724 453.838 268.82 453.456 268.91 453.067C269.348 451.174 269.575 449.232 269.613 447.292C269.786 438.416 266.105 429.891 261.502 422.487C259.144 418.694 256.504 415.094 253.865 411.494L253.865 411.494C250.885 407.429 247.905 403.365 245.332 399.026C240.553 390.97 237.769 382.057 236.119 372.875C234.81 365.588 234.143 358.197 233.477 350.808L233.477 350.807C232.503 340.014 231.53 329.225 228.556 318.769C226.319 310.908 222.837 303.54 218.03 296.925C213.392 290.541 207.733 284.974 201.711 279.903C195.175 274.397 188.201 269.468 181.228 264.538C174.695 259.92 168.161 255.302 161.987 250.209C135.949 228.731 114.482 194.613 125.776 159.936C130.443 145.607 140.339 132.475 154.405 126.363C170.315 119.449 188.37 123.132 203.278 130.813C218.167 138.485 230.228 150.217 242.142 161.805C243.437 163.066 244.731 164.324 246.026 165.575ZM320.661 209.735C311.6 211.061 302.479 209.52 293.962 206.329C285.764 203.178 278.191 198.614 271.232 193.289C263.65 187.484 256.515 180.577 249.333 173.624L249.333 173.624C231.773 156.626 213.93 139.353 188.579 137.229C174.017 136.009 160.28 141.656 150.77 152.73C141.754 163.228 136.896 177.283 136.971 191.079C137.061 207.102 143.76 222.525 153.103 235.288C162.884 248.648 175.609 258.877 189.002 268.395C190.122 269.191 191.247 269.985 192.374 270.781C204.023 279.012 215.894 287.399 224.681 298.757C229.868 305.462 233.549 313.049 235.774 321.223C238.063 329.634 238.997 338.337 239.806 346.995L239.89 347.898L239.972 348.771L239.972 348.771C241.516 365.424 243.08 382.285 252.172 396.805C254.32 400.237 256.717 403.503 259.113 406.769L259.113 406.769C262.057 410.781 265.001 414.792 267.483 419.11C271.998 426.96 275.325 436.436 272.948 445.522C272.131 448.639 271.87 451.28 273.213 454.322C274.483 457.204 276.746 459.67 279.419 461.312C286.188 465.47 294.876 463.817 302.134 462.122C315.093 459.098 328.027 455.964 340.961 452.83C347.339 451.284 353.717 449.739 360.098 448.207C363.216 447.458 366.336 446.711 369.455 445.965L369.458 445.964L369.461 445.963L369.464 445.963L369.467 445.962L369.471 445.961L369.474 445.96L369.477 445.96L369.48 445.959L369.483 445.958L369.486 445.957L369.489 445.957L369.493 445.956C375.896 444.424 382.3 442.892 388.698 441.335C395.867 439.591 403.013 437.68 409.937 435.114C423.165 430.211 436.014 422.426 442.286 409.254C449.123 394.897 447.222 377.979 445.492 362.595L445.492 362.592L445.49 362.577L445.488 362.556C445.41 361.865 445.333 361.177 445.257 360.492C443.07 340.834 439.728 321.305 435.259 302.037C430.922 283.343 425.719 264.686 418.99 246.701C413.211 231.258 405.164 215.966 391.374 206.254C385.457 202.086 378.653 199.07 371.455 198.058C362.948 196.86 354.584 198.92 346.586 201.695C344.518 202.413 342.46 203.177 340.399 203.942L340.398 203.942L340.398 203.942L340.398 203.943L340.397 203.943L340.397 203.943L340.396 203.943L340.396 203.943L340.395 203.944L340.395 203.944L340.394 203.944L340.394 203.944L340.393 203.944C333.949 206.337 327.485 208.737 320.661 209.735ZM293.745 207.091C293.739 207.089 293.734 207.088 293.728 207.086L293.717 207.082L293.707 207.078C277.648 200.905 264.726 189.527 252.519 177.737C251.311 176.571 250.106 175.398 248.898 174.224L248.896 174.222C237.818 163.447 226.602 152.538 212.757 145.403C198.898 138.263 182.112 134.838 167.321 141.265C154.243 146.948 145.043 159.158 140.703 172.48C130.201 204.725 150.166 236.452 174.377 256.424C180.123 261.163 186.202 265.461 192.282 269.758L192.282 269.758L192.282 269.759L192.282 269.759L192.283 269.759L192.283 269.759L192.283 269.759L192.283 269.759L192.284 269.759L192.284 269.76L192.284 269.76L192.284 269.76L192.285 269.76C198.769 274.343 205.252 278.926 211.331 284.045C216.933 288.764 222.201 293.944 226.516 299.883C230.992 306.042 234.232 312.9 236.313 320.216C239.08 329.944 239.985 339.982 240.891 350.022C241.511 356.896 242.132 363.771 243.349 370.548C244.883 379.087 247.472 387.376 251.916 394.868C254.309 398.9 257.078 402.677 259.847 406.455L259.847 406.455L259.848 406.456C262.305 409.808 264.763 413.161 266.958 416.692C271.243 423.585 274.666 431.52 274.506 439.781C274.47 441.588 274.259 443.399 273.852 445.16C273.768 445.524 273.679 445.88 273.59 446.232C273.185 447.844 272.803 449.362 273.072 451.1C273.626 454.695 275.985 457.902 278.888 459.999C285.882 465.053 295.398 462.915 303.119 461.076C309.426 459.575 315.727 458.057 322.029 456.539C325.18 455.78 328.331 455.021 331.483 454.264C337.742 452.761 344.002 451.261 350.262 449.762L350.27 449.76L350.279 449.758L350.287 449.756L350.296 449.754L350.304 449.752L350.313 449.75L350.321 449.748L350.33 449.746L350.338 449.744L350.347 449.742L350.355 449.74C362.924 446.729 375.493 443.719 388.056 440.677C402.139 437.266 416.942 433.305 428.675 424.407C434.517 419.977 439.322 414.268 442.219 407.499C445.4 400.068 446.275 391.898 446.228 383.881C446.176 375 445.142 366.108 444.101 357.297C442.968 347.698 441.561 338.132 439.88 328.616C436.538 309.69 432.123 290.955 426.654 272.534L426.398 271.673L426.398 271.673L426.398 271.673C421.354 254.671 416.054 236.808 405.821 222.127C397.121 209.644 383.546 199.207 367.839 198.514C358.184 198.088 349.28 201.4 340.357 204.719C332.809 207.526 325.249 210.337 317.212 210.896C309.195 211.453 301.236 209.892 293.745 207.091ZM297.377 216.298C305.249 219.247 313.682 220.673 322.059 219.448C328.372 218.525 334.351 216.305 340.313 214.092L340.316 214.091C342.222 213.383 344.127 212.676 346.041 212.012C353.441 209.444 361.182 207.538 369.054 208.645C375.716 209.582 382.015 212.374 387.494 216.231C400.254 225.216 407.701 239.366 413.048 253.656C419.273 270.293 424.087 287.555 428.1 304.848C432.235 322.671 435.325 340.736 437.348 358.92C437.419 359.559 437.491 360.201 437.564 360.846L437.565 360.855C439.165 375.094 440.925 390.751 434.598 404.04C428.794 416.232 416.904 423.439 404.661 427.977C398.253 430.353 391.64 432.121 385.008 433.734C379.133 435.162 373.252 436.569 367.371 437.977L367.35 437.982C364.417 438.683 361.483 439.385 358.551 440.09C352.652 441.506 346.755 442.935 340.858 444.364L340.857 444.364C328.891 447.264 316.924 450.163 304.934 452.961C298.212 454.531 290.169 456.059 283.9 452.208C281.422 450.686 279.325 448.4 278.149 445.731C276.905 442.909 277.146 440.459 277.903 437.567C280.101 429.17 277.021 420.412 272.849 413.159C270.552 409.164 267.828 405.453 265.105 401.741C262.889 398.721 260.673 395.701 258.685 392.527C250.274 379.095 248.827 363.496 247.398 348.091L247.307 347.115L247.245 346.445C246.497 338.437 245.632 330.387 243.515 322.605C241.457 315.049 238.056 308.035 233.262 301.838C225.135 291.333 214.156 283.576 203.381 275.964C202.339 275.228 201.299 274.493 200.264 273.757C187.873 264.952 176.098 255.489 167.05 243.127C158.403 231.315 152.204 217.042 152.122 202.211C152.052 189.441 156.55 176.433 164.895 166.717C173.699 156.47 186.413 151.243 199.891 152.371C223.347 154.336 239.855 170.315 256.1 186.04C262.745 192.471 269.346 198.861 276.36 204.231C282.796 209.163 289.797 213.385 297.377 216.298ZM259.011 189.899C270.293 200.795 282.235 211.311 297.071 217.028C297.086 217.036 297.102 217.043 297.12 217.05C304.064 219.65 311.444 221.101 318.878 220.583C326.311 220.066 333.303 217.466 340.283 214.87C348.535 211.801 356.771 208.738 365.7 209.131C380.221 209.77 392.77 219.422 400.813 230.962C410.272 244.536 415.173 261.052 419.837 276.769L420.076 277.575C425.133 294.616 429.218 311.946 432.31 329.452C433.865 338.257 435.167 347.104 436.214 355.983C437.176 364.13 438.132 372.352 438.181 380.566C438.225 387.979 437.415 395.533 434.474 402.404C431.795 408.662 427.354 413.937 421.954 418.032C411.104 426.259 397.416 429.921 384.394 433.074C372.865 435.866 361.327 438.629 349.79 441.392L349.782 441.394C343.876 442.809 337.97 444.223 332.065 445.642C329.253 446.317 326.442 446.994 323.631 447.671L323.608 447.676L323.606 447.677C317.682 449.103 311.757 450.53 305.828 451.942C298.695 453.642 289.899 455.62 283.436 450.951C280.758 449.015 278.58 446.053 278.07 442.736C277.823 441.133 278.175 439.733 278.55 438.246L278.55 438.246L278.55 438.246L278.55 438.246L278.55 438.245C278.632 437.921 278.714 437.593 278.792 437.257C279.17 435.626 279.367 433.949 279.399 432.275C279.548 424.628 276.381 417.283 272.414 410.902C270.385 407.637 268.113 404.538 265.84 401.439C263.277 397.943 260.714 394.447 258.5 390.715C254.392 383.786 251.998 376.122 250.579 368.227C249.452 361.956 248.878 355.596 248.305 349.237L248.305 349.237C247.467 339.95 246.63 330.666 244.07 321.669C242.143 314.897 239.144 308.548 235.001 302.848C231.006 297.351 226.132 292.56 220.948 288.192C215.324 283.455 209.324 279.214 203.324 274.973C197.702 270.998 192.08 267.023 186.766 262.641C164.381 244.177 145.919 214.842 155.63 185.028C159.641 172.71 168.144 161.425 180.237 156.17C193.909 150.229 209.427 153.395 222.236 159.995C235.048 166.596 245.424 176.69 255.673 186.66L255.677 186.663L255.681 186.667L255.684 186.67L255.688 186.674L255.692 186.677L255.695 186.681L255.699 186.684L255.702 186.688L255.706 186.691C256.808 187.763 257.909 188.834 259.011 189.899ZM323.457 229.16C315.765 230.285 308.023 228.976 300.793 226.267C293.83 223.59 287.4 219.713 281.486 215.189C275.04 210.253 268.975 204.383 262.87 198.473C247.937 184.019 232.764 169.334 211.201 167.527C198.807 166.49 187.116 171.296 179.019 180.718C171.345 189.65 167.207 201.613 167.271 213.355C167.347 226.994 173.045 240.116 180.997 250.978C189.314 262.339 200.135 271.037 211.523 279.129C212.474 279.805 213.429 280.48 214.386 281.156C224.285 288.149 234.373 295.276 241.839 304.928C246.241 310.617 249.367 317.059 251.254 323.996C253.201 331.145 253.996 338.543 254.683 345.902L254.727 346.374L254.823 347.409C256.137 361.57 257.467 375.909 265.198 388.256C267.024 391.172 269.061 393.947 271.097 396.722C273.6 400.133 276.103 403.544 278.214 407.215C282.043 413.873 284.873 421.911 282.856 429.62C282.158 432.285 281.937 434.545 283.084 437.146C284.169 439.603 286.1 441.709 288.38 443.11C294.149 446.653 301.548 445.251 307.734 443.807C318.724 441.242 329.695 438.584 340.664 435.926L340.664 435.926L340.665 435.925L340.665 435.925L340.665 435.925L340.665 435.925L340.666 435.925L340.666 435.925L340.666 435.925L340.669 435.924L340.674 435.923L340.678 435.922C346.119 434.604 351.561 433.285 357.004 431.978C359.567 431.363 362.131 430.749 364.695 430.136L364.704 430.134L364.713 430.131L364.722 430.129L364.725 430.128L364.729 430.128L364.732 430.127C370.261 428.804 375.791 427.481 381.315 426.137C387.414 424.653 393.493 423.027 399.384 420.844C410.644 416.671 421.573 410.04 426.91 398.829C432.725 386.612 431.107 372.217 429.636 359.127L429.635 359.119L429.576 358.598L429.539 358.267C429.505 357.961 429.471 357.655 429.437 357.351C427.579 340.641 424.737 324.04 420.938 307.663C417.251 291.768 412.825 275.904 407.104 260.612C402.187 247.474 395.339 234.468 383.609 226.208C378.571 222.66 372.778 220.093 366.649 219.232C359.412 218.214 352.297 219.965 345.494 222.326C343.734 222.936 341.982 223.587 340.228 224.238L340.227 224.238C334.75 226.272 329.257 228.311 323.457 229.16ZM300.563 227.025L300.552 227.021L300.539 227.016C286.879 221.766 275.887 212.089 265.503 202.059C264.479 201.07 263.457 200.076 262.433 199.08C253.017 189.921 243.484 180.649 231.717 174.586C219.957 168.526 205.707 165.619 193.154 171.072C182.05 175.896 174.242 186.26 170.557 197.57C161.638 224.952 178.598 251.897 199.157 268.855C204.04 272.883 209.207 276.535 214.374 280.188C219.887 284.085 225.4 287.981 230.568 292.334C235.335 296.349 239.815 300.753 243.487 305.806C247.296 311.049 250.056 316.887 251.829 323.117C254.181 331.386 254.951 339.919 255.721 348.454C256.248 354.296 256.775 360.139 257.81 365.9C259.113 373.154 261.312 380.192 265.087 386.556C267.12 389.984 269.474 393.195 271.828 396.406L271.828 396.406C273.917 399.256 276.007 402.105 277.872 405.107C281.52 410.975 284.431 417.731 284.294 424.764C284.264 426.305 284.082 427.848 283.734 429.351C283.663 429.659 283.587 429.961 283.512 430.259C283.169 431.618 282.846 432.901 283.073 434.369C283.541 437.408 285.537 440.123 287.991 441.896C293.922 446.181 301.997 444.363 308.543 442.803C314.007 441.502 319.468 440.187 324.928 438.872L324.946 438.868L324.964 438.863L324.982 438.859C327.539 438.243 330.096 437.627 332.653 437.013C337.814 435.774 342.976 434.538 348.138 433.301C359.008 430.698 369.877 428.095 380.741 425.463C392.701 422.567 405.275 419.204 415.241 411.648C420.199 407.888 424.277 403.045 426.736 397.3C429.437 390.988 430.181 384.05 430.142 377.241C430.097 369.697 429.219 362.143 428.335 354.659C427.373 346.501 426.177 338.37 424.747 330.279C421.907 314.193 418.152 298.268 413.505 282.607L413.283 281.858C408.999 267.423 404.498 252.255 395.811 239.788C388.424 229.19 376.903 220.325 363.565 219.737C355.361 219.375 347.793 222.19 340.21 225.01C333.798 227.395 327.375 229.784 320.548 230.26C313.734 230.734 306.968 229.413 300.601 227.035L300.595 227.034L300.581 227.03C300.575 227.029 300.569 227.027 300.563 227.025ZM304.21 236.236C310.796 238.703 317.85 239.897 324.857 238.872C330.146 238.098 335.156 236.238 340.152 234.384C341.75 233.791 343.346 233.198 344.95 232.642C351.156 230.489 357.647 228.893 364.248 229.82C369.841 230.606 375.13 232.947 379.729 236.186C390.43 243.72 396.679 255.583 401.163 267.567C406.381 281.514 410.417 295.98 413.78 310.475C417.244 325.408 419.833 340.545 421.528 355.779C421.588 356.313 421.648 356.85 421.708 357.388L421.709 357.395C423.052 369.338 424.528 382.469 419.223 393.618C414.353 403.849 404.383 409.902 394.108 413.71C388.734 415.702 383.189 417.186 377.625 418.539C372.654 419.748 367.676 420.939 362.7 422.129L362.693 422.131L362.685 422.133L362.678 422.135C360.272 422.71 357.865 423.286 355.46 423.864C350.509 425.052 345.56 426.252 340.611 427.451L340.61 427.451L340.609 427.451L340.608 427.452L340.607 427.452L340.606 427.452L340.604 427.452L340.603 427.453L340.602 427.453L340.582 427.458L340.578 427.459C330.571 429.884 320.563 432.309 310.537 434.648C304.886 435.968 298.133 437.243 292.866 434.008C290.783 432.727 289.016 430.802 288.026 428.556C286.977 426.176 287.178 424.107 287.816 421.667C289.652 414.649 287.072 407.329 283.586 401.266C281.662 397.919 279.379 394.809 277.097 391.698C275.24 389.168 273.383 386.638 271.719 383.98C264.667 372.718 263.453 359.639 262.255 346.722L262.255 346.722C262.212 346.265 262.17 345.809 262.127 345.352C261.502 338.643 260.777 331.898 259.002 325.379C257.282 319.06 254.435 313.192 250.426 308.009C243.621 299.212 234.429 292.718 225.407 286.343C224.532 285.726 223.66 285.109 222.791 284.491C212.406 277.111 202.535 269.178 194.951 258.817C187.694 248.905 182.495 236.934 182.426 224.489C182.368 213.774 186.145 202.857 193.149 194.707C200.537 186.111 211.208 181.724 222.519 182.672C242.186 184.319 256.021 197.709 269.64 210.889C275.208 216.278 280.74 221.632 286.62 226.134C292.003 230.262 297.863 233.797 304.21 236.236ZM271.995 214.22C281.453 223.354 291.461 232.166 303.895 236.962C303.903 236.966 303.911 236.971 303.92 236.975C303.926 236.978 303.932 236.98 303.938 236.983L303.943 236.985L303.953 236.989C309.781 239.172 315.977 240.386 322.216 239.951C328.439 239.518 334.294 237.34 340.139 235.166C347.052 232.594 353.951 230.028 361.429 230.358C373.58 230.893 384.077 238.971 390.805 248.627C398.725 259.994 402.828 273.825 406.732 286.986L406.93 287.653C411.168 301.931 414.59 316.451 417.18 331.118C418.484 338.493 419.574 345.907 420.452 353.346C421.257 360.166 422.057 367.049 422.098 373.924C422.135 380.13 421.457 386.453 418.995 392.205C416.755 397.437 413.039 401.846 408.523 405.271C399.442 412.156 387.982 415.219 377.083 417.858C367.257 420.237 357.425 422.592 347.593 424.947L347.592 424.947L347.591 424.948L347.59 424.948L347.589 424.948L347.588 424.948L347.586 424.949L347.585 424.949L347.584 424.949L347.567 424.953C342.791 426.097 338.015 427.241 333.239 428.388C330.894 428.951 328.548 429.516 326.203 430.081C321.221 431.281 316.24 432.48 311.256 433.668C305.296 435.087 297.942 436.748 292.543 432.847C290.312 431.236 288.499 428.768 288.074 426.006C287.869 424.673 288.163 423.508 288.475 422.274C288.543 422.003 288.612 421.729 288.677 421.449C288.995 420.076 289.162 418.665 289.189 417.257C289.313 410.839 286.659 404.673 283.329 399.317C281.629 396.582 279.725 393.986 277.822 391.39L277.821 391.389L277.821 391.389L277.821 391.389L277.821 391.389L277.821 391.388L277.82 391.388L277.82 391.388L277.82 391.388L277.82 391.387L277.82 391.387C275.672 388.458 273.525 385.529 271.67 382.403C268.229 376.602 266.226 370.187 265.038 363.577C264.095 358.325 263.614 352.998 263.134 347.671L263.134 347.671C262.432 339.889 261.73 332.109 259.586 324.569C257.969 318.883 255.45 313.555 251.972 308.769C248.623 304.159 244.535 300.141 240.186 296.479C235.474 292.509 230.447 288.956 225.42 285.402C220.709 282.072 215.998 278.743 211.547 275.071C192.815 259.618 177.359 235.065 185.485 210.116C188.841 199.812 195.954 190.371 206.071 185.975C217.501 181.006 230.486 183.658 241.196 189.176C251.92 194.702 260.607 203.151 269.188 211.496C270.124 212.407 271.059 213.316 271.995 214.22ZM326.254 248.585C319.931 249.51 313.566 248.432 307.625 246.205C301.896 244.003 296.606 240.812 291.741 237.086C286.43 233.019 281.432 228.183 276.402 223.316C264.097 211.409 251.597 199.313 233.824 197.824C223.599 196.966 213.951 200.933 207.27 208.704C200.935 216.072 197.517 225.942 197.57 235.63C197.631 246.88 202.332 257.703 208.892 266.665C215.744 276.025 224.662 283.192 234.045 289.86C234.829 290.418 235.617 290.974 236.407 291.532C244.553 297.287 252.853 303.151 258.998 311.095C262.616 315.77 265.183 321.065 266.735 326.766C268.339 332.655 268.992 338.748 269.558 344.808L269.633 345.612L269.669 345.995L269.674 346.046C270.757 357.716 271.853 369.533 278.225 379.707C279.729 382.108 281.405 384.394 283.082 386.679C285.144 389.488 287.205 392.297 288.943 395.32C292.086 400.786 294.418 407.389 292.762 413.718C292.183 415.933 292.002 417.81 292.955 419.971C293.851 422.005 295.453 423.751 297.34 424.91C302.107 427.839 308.215 426.688 313.33 425.494C322.362 423.385 331.377 421.201 340.391 419.016C344.896 417.925 349.4 416.834 353.906 415.752C356.101 415.224 358.297 414.699 360.492 414.174L360.5 414.172L360.508 414.17L360.515 414.168L360.523 414.166L360.531 414.165L360.558 414.158L360.585 414.152L360.596 414.149C365.041 413.086 369.486 412.022 373.928 410.942C378.956 409.72 383.968 408.378 388.826 406.577C398.119 403.134 407.124 397.658 411.53 388.408C416.325 378.336 414.991 366.467 413.778 355.676L413.776 355.662L413.691 354.905L413.658 354.609L413.614 354.211C412.083 340.449 409.744 326.779 406.615 313.291C403.577 300.193 399.93 287.124 395.217 274.524C391.165 263.693 385.515 252.975 375.845 246.165C371.684 243.236 366.902 241.119 361.843 240.408C355.877 239.57 350.012 241.012 344.403 242.957C342.954 243.46 341.511 243.995 340.067 244.531L340.067 244.531L340.066 244.531L340.066 244.532L340.065 244.532L340.065 244.532L340.064 244.532L340.064 244.532L340.063 244.532C335.553 246.207 331.029 247.886 326.254 248.585ZM307.37 246.955C296.108 242.626 287.048 234.649 278.487 226.381C277.648 225.57 276.809 224.754 275.969 223.937L275.968 223.936L275.967 223.934L275.965 223.933L275.964 223.932C268.212 216.392 260.365 208.759 250.676 203.766C241.015 198.789 229.3 196.396 218.989 200.876C209.86 204.843 203.442 213.36 200.414 222.66C193.08 245.178 207.033 267.34 223.94 281.286C227.963 284.604 232.219 287.613 236.475 290.621L236.476 290.622C241.014 293.83 245.553 297.039 249.808 300.622C253.737 303.932 257.433 307.561 260.46 311.729C263.606 316.057 265.884 320.874 267.346 326.017C269.284 332.826 269.917 339.852 270.551 346.88L270.551 346.881L270.551 346.881L270.551 346.881L270.551 346.881L270.551 346.882L270.551 346.882L270.551 346.882L270.551 346.883C270.985 351.694 271.419 356.507 272.271 361.251C273.343 367.219 275.153 373.009 278.258 378.245C279.933 381.069 281.872 383.714 283.811 386.359L283.811 386.359L283.812 386.36L283.812 386.36L283.812 386.36L283.812 386.361L283.813 386.361L283.813 386.362L283.813 386.362C285.532 388.707 287.252 391.053 288.788 393.523C291.799 398.367 294.198 403.944 294.084 409.748C294.059 411.023 293.907 412.3 293.62 413.544C293.561 413.794 293.5 414.039 293.438 414.281C293.158 415.392 292.893 416.44 293.076 417.64C293.458 420.126 295.089 422.344 297.097 423.796C301.966 427.312 308.597 425.811 313.971 424.532C318.304 423.501 322.634 422.458 326.964 421.415C329.252 420.864 331.539 420.313 333.827 419.764C338.138 418.729 342.449 417.697 346.76 416.664C355.651 414.535 364.543 412.405 373.429 410.252C383.266 407.87 393.612 405.107 401.809 398.891C405.881 395.803 409.235 391.826 411.257 387.106C413.479 381.913 414.09 376.206 414.057 370.603C414.022 364.397 413.298 358.182 412.572 352.026C411.779 345.307 410.793 338.61 409.617 331.948C407.276 318.699 404.185 305.586 400.359 292.688L400.178 292.079C396.654 280.2 392.951 267.716 385.804 257.457C379.732 248.743 370.261 241.451 359.295 240.967C352.543 240.669 346.313 242.987 340.07 245.309C334.792 247.272 329.505 249.239 323.887 249.632C318.244 250.026 312.642 248.928 307.37 246.955ZM311.041 256.174C316.34 258.159 322.015 259.124 327.652 258.298C331.911 257.674 335.945 256.177 339.968 254.684L339.969 254.684L339.971 254.684L339.972 254.683L339.973 254.683L339.974 254.683L339.975 254.682L339.976 254.682C341.268 254.202 342.559 253.723 343.856 253.274C348.867 251.536 354.109 250.248 359.44 250.997C363.964 251.633 368.242 253.525 371.962 256.145C380.603 262.229 385.652 271.805 389.273 281.482C393.483 292.736 396.741 304.409 399.454 316.107C402.248 328.149 404.336 340.356 405.703 352.644C405.751 353.077 405.8 353.512 405.849 353.95C406.933 363.592 408.126 374.2 403.841 383.198C399.903 391.469 391.858 396.367 383.549 399.446C379.208 401.055 374.73 402.254 370.237 403.347C366.149 404.342 362.056 405.321 357.963 406.299C356.096 406.746 354.228 407.193 352.361 407.641C348.419 408.588 344.479 409.543 340.539 410.498C332.408 412.468 324.277 414.438 316.132 416.339C311.553 417.408 306.09 418.432 301.821 415.81C300.131 414.771 298.696 413.206 297.891 411.386C297.036 409.445 297.197 407.76 297.717 405.77C299.191 400.13 297.11 394.246 294.309 389.376C292.756 386.677 290.916 384.168 289.075 381.66C287.578 379.62 286.081 377.579 284.738 375.435C279.046 366.345 278.066 355.79 277.099 345.365L277.098 345.36C277.064 344.995 277.031 344.63 276.996 344.265C276.491 338.853 275.907 333.414 274.476 328.156C273.093 323.074 270.803 318.353 267.578 314.184C262.091 307.092 254.681 301.857 247.408 296.718C246.705 296.222 246.004 295.726 245.306 295.23C236.926 289.276 228.959 282.873 222.84 274.512C216.975 266.5 212.775 256.828 212.719 246.771C212.671 238.11 215.729 229.288 221.393 222.701C227.367 215.755 235.994 212.21 245.135 212.975C261.014 214.305 272.179 225.108 283.171 235.743C287.663 240.089 292.125 244.406 296.869 248.039C301.209 251.361 305.93 254.21 311.041 256.174ZM284.98 238.542C292.617 245.92 300.701 253.035 310.743 256.906C310.749 256.91 310.756 256.913 310.763 256.916L310.777 256.922L310.786 256.925C315.499 258.691 320.509 259.671 325.554 259.317C330.567 258.966 335.285 257.211 339.996 255.458C345.569 253.385 351.131 251.316 357.157 251.581C366.937 252.011 375.381 258.518 380.797 266.29C387.172 275.441 390.476 286.577 393.619 297.173L393.784 297.727C397.202 309.242 399.962 320.953 402.051 332.782C403.101 338.731 403.982 344.709 404.689 350.709C405.337 356.202 405.982 361.746 406.015 367.285C406.045 372.283 405.501 377.374 403.517 382.009C401.716 386.217 398.724 389.761 395.094 392.514C387.782 398.06 378.55 400.524 369.774 402.649C361.92 404.55 354.062 406.432 346.203 408.314C342.273 409.256 338.344 410.197 334.415 411.14C332.356 411.635 330.298 412.13 328.24 412.626L328.225 412.63C324.379 413.556 320.534 414.482 316.686 415.398C311.901 416.538 305.989 417.881 301.652 414.747C299.869 413.459 298.42 411.487 298.081 409.278C297.919 408.217 298.153 407.289 298.402 406.306L298.402 406.303C298.457 406.086 298.513 405.867 298.565 405.643C298.824 404.528 298.959 403.385 298.982 402.242C299.082 397.053 296.94 392.066 294.248 387.734C292.876 385.527 291.34 383.432 289.804 381.337L289.804 381.337L289.804 381.337L289.804 381.337L289.804 381.337L289.804 381.337L289.804 381.337L289.804 381.336L289.804 381.336L289.803 381.336L289.803 381.336L289.803 381.335L289.803 381.335L289.803 381.335L289.803 381.335C288.072 378.974 286.341 376.613 284.846 374.093C282.074 369.42 280.46 364.257 279.504 358.93C278.743 354.695 278.356 350.399 277.969 346.103C277.402 339.827 276.837 333.552 275.107 327.471C273.799 322.87 271.763 318.564 268.949 314.693C266.243 310.969 262.94 307.726 259.428 304.768C255.628 301.567 251.575 298.702 247.522 295.837C243.722 293.151 239.922 290.465 236.331 287.503C221.251 275.064 208.8 255.293 215.342 235.207C218.042 226.914 223.764 219.318 231.905 215.781C241.097 211.787 251.544 213.921 260.155 218.358C268.801 222.812 275.802 229.621 282.719 236.348C283.473 237.082 284.226 237.814 284.98 238.542ZM329.051 268.011C324.098 268.736 319.113 267.887 314.458 266.143C309.962 264.415 305.812 261.91 301.996 258.985C297.82 255.787 293.891 251.986 289.937 248.162L289.937 248.161C280.259 238.799 270.431 229.291 256.448 228.121C248.391 227.446 240.787 230.571 235.52 236.692C230.528 242.495 227.829 250.272 227.871 257.905C227.92 266.771 231.62 275.292 236.789 282.354C242.177 289.713 249.192 295.35 256.57 300.594C257.182 301.028 257.796 301.461 258.411 301.896C264.812 306.417 271.333 311.023 276.162 317.264C278.995 320.925 281.007 325.075 282.221 329.538C283.481 334.165 283.995 338.952 284.439 343.714C284.469 344.034 284.499 344.355 284.528 344.675C285.381 353.856 286.244 363.151 291.256 371.157C292.438 373.046 293.757 374.843 295.076 376.641L295.076 376.641C296.695 378.847 298.313 381.053 299.678 383.426C302.136 387.701 303.967 392.866 302.674 397.817C302.213 399.581 302.071 401.076 302.83 402.796C303.539 404.405 304.809 405.79 306.304 406.708C310.071 409.023 314.888 408.124 318.931 407.18C326.11 405.505 333.276 403.768 340.441 402.032L340.442 402.032L340.448 402.03C343.903 401.193 347.358 400.356 350.814 399.526C352.494 399.123 354.174 398.721 355.854 398.319L355.863 398.317C359.425 397.465 362.987 396.613 366.547 395.747C370.506 394.785 374.451 393.727 378.274 392.31C385.6 389.596 392.684 385.276 396.155 377.985C399.929 370.056 398.879 360.712 397.924 352.216L397.922 352.204C397.88 351.825 397.837 351.447 397.795 351.071C396.593 340.257 394.754 329.515 392.296 318.917C389.907 308.62 387.04 298.342 383.332 288.436C380.142 279.911 375.692 271.479 368.081 266.12C364.801 263.811 361.028 262.144 357.038 261.583C352.344 260.924 347.725 262.058 343.311 263.589C342.171 263.984 341.035 264.406 339.898 264.827C336.356 266.143 332.803 267.461 329.051 268.011ZM314.179 266.883C305.327 263.475 298.204 257.205 291.472 250.704C290.814 250.069 290.158 249.43 289.501 248.791L289.5 248.791C283.411 242.867 277.246 236.871 269.635 232.949C262.074 229.052 252.894 227.176 244.823 230.683C237.669 233.791 232.643 240.464 230.27 247.751C224.52 265.404 235.468 282.786 248.722 293.717C251.88 296.321 255.222 298.684 258.563 301.046L258.564 301.046C262.133 303.569 265.702 306.093 269.048 308.911C272.141 311.517 275.052 314.373 277.435 317.652C279.917 321.067 281.712 324.862 282.866 328.919C284.387 334.269 284.885 339.789 285.383 345.311L285.383 345.311L285.383 345.312L285.383 345.312L285.383 345.312L285.383 345.312L285.383 345.312L285.383 345.312C285.724 349.094 286.066 352.876 286.736 356.605C287.577 361.288 288.995 365.828 291.432 369.936C292.748 372.155 294.271 374.233 295.795 376.311L295.795 376.311C297.146 378.155 298.498 379.998 299.705 381.94C302.081 385.761 303.965 390.158 303.875 394.733C303.856 395.742 303.734 396.754 303.506 397.736L303.489 397.809L303.483 397.835L303.459 397.936C303.44 398.012 303.421 398.088 303.402 398.162L303.364 398.315C303.146 399.174 302.941 399.984 303.082 400.911C303.378 402.841 304.646 404.567 306.205 405.693C310.011 408.443 315.202 407.259 319.4 406.26C323.073 405.385 326.744 404.5 330.415 403.616C331.944 403.248 333.472 402.88 335.001 402.512C338.461 401.681 341.922 400.852 345.382 400.024C352.295 398.368 359.209 396.712 366.118 395.038C373.832 393.17 381.951 391.005 388.379 386.131C391.567 383.713 394.197 380.602 395.778 376.906C397.522 372.832 398 368.357 397.974 363.962C397.945 359.092 397.378 354.218 396.807 349.388C396.183 344.109 395.41 338.847 394.485 333.611C392.646 323.201 390.217 312.896 387.21 302.763L387.061 302.263C384.299 292.952 381.394 283.162 375.792 275.12C371.033 268.291 363.615 262.57 355.02 262.191C349.719 261.957 344.826 263.778 339.923 265.603C335.78 267.144 331.63 268.689 327.221 268.998C322.773 269.31 318.355 268.448 314.2 266.891C314.192 266.889 314.185 266.886 314.179 266.883ZM317.873 276.112C321.883 277.615 326.18 278.348 330.449 277.724C333.687 277.249 336.755 276.11 339.814 274.975C340.797 274.61 341.779 274.246 342.765 273.904C346.582 272.582 350.575 271.601 354.634 272.172C358.089 272.657 361.356 274.099 364.197 276.099C370.779 280.733 374.628 288.021 377.387 295.392C380.59 303.953 383.07 312.833 385.134 321.732C387.258 330.886 388.845 340.163 389.883 349.502C389.919 349.829 389.956 350.158 389.993 350.488C390.819 357.835 391.728 365.916 388.464 372.775C385.462 379.084 379.335 382.828 372.995 385.177C369.688 386.404 366.276 387.317 362.852 388.151C359.621 388.937 356.386 389.71 353.152 390.484L353.15 390.484L353.148 390.485L353.123 390.491C351.837 390.798 350.551 391.106 349.265 391.414C346.273 392.133 343.283 392.858 340.292 393.582L340.288 393.583L340.263 393.589L340.26 393.59C334.087 395.086 327.914 396.582 321.728 398.026C318.221 398.844 314.049 399.617 310.781 397.61C309.484 396.814 308.379 395.61 307.762 394.212C307.1 392.713 307.222 391.408 307.624 389.87C308.736 385.608 307.155 381.161 305.04 377.484C303.86 375.432 302.461 373.526 301.061 371.618C299.924 370.068 298.786 368.517 297.765 366.888C293.43 359.965 292.685 351.926 291.949 343.986L291.949 343.986L291.873 343.173C291.488 339.061 291.044 334.927 289.957 330.93C288.91 327.084 287.176 323.508 284.736 320.354C280.573 314.972 274.949 310.999 269.428 307.098C268.893 306.72 268.359 306.343 267.827 305.965C261.451 301.434 255.389 296.562 250.732 290.202C246.259 284.09 243.059 276.719 243.017 269.047C242.981 262.442 245.318 255.708 249.641 250.69C254.203 245.395 260.781 242.689 267.756 243.274C279.845 244.286 288.337 252.499 296.702 260.589C300.118 263.893 303.512 267.176 307.122 269.939C310.416 272.461 313.996 274.622 317.873 276.112ZM297.964 262.864C303.782 268.484 309.939 273.901 317.589 276.85C317.598 276.854 317.607 276.858 317.617 276.862C321.217 278.209 325.041 278.955 328.892 278.683C332.698 278.415 336.28 277.082 339.856 275.751L339.857 275.75C344.089 274.175 348.313 272.603 352.887 272.805C360.297 273.131 366.689 278.065 370.79 283.952C375.62 290.888 378.125 299.329 380.507 307.359L380.638 307.802C383.236 316.554 385.334 325.454 386.921 334.444C387.72 338.965 388.388 343.51 388.926 348.069C389.419 352.236 389.908 356.442 389.933 360.642C389.956 364.434 389.543 368.294 388.039 371.809C386.677 374.994 384.409 377.671 381.663 379.754C376.12 383.957 369.116 385.823 362.464 387.434C356.589 388.856 350.711 390.264 344.833 391.672C341.752 392.41 338.67 393.148 335.59 393.888C334.113 394.243 332.637 394.598 331.161 394.954L331.135 394.96L331.109 394.966L331.098 394.969C328.105 395.689 325.111 396.41 322.115 397.124C318.503 397.985 314.033 399.009 310.759 396.643C309.425 395.68 308.338 394.201 308.085 392.548C307.966 391.759 308.141 391.068 308.326 390.338C308.368 390.173 308.41 390.005 308.45 389.834C308.649 388.98 308.755 388.103 308.772 387.226C308.849 383.264 307.22 379.457 305.164 376.15C304.121 374.472 302.953 372.879 301.786 371.287L301.786 371.287L301.785 371.287L301.785 371.286L301.785 371.286L301.785 371.286C300.47 369.492 299.154 367.698 298.018 365.782C295.916 362.237 294.692 358.321 293.967 354.281C293.389 351.063 293.094 347.797 292.8 344.533C292.37 339.762 291.939 334.992 290.624 330.371C289.624 326.858 288.069 323.572 285.921 320.615C283.86 317.779 281.342 315.309 278.667 313.056C275.779 310.624 272.698 308.446 269.617 306.268C266.729 304.227 263.841 302.185 261.112 299.934C249.684 290.507 240.239 275.519 245.197 260.297C247.243 254.016 251.573 248.266 257.74 245.586C264.692 242.565 272.601 244.183 279.115 247.539C285.683 250.923 291.001 256.095 296.255 261.206L296.255 261.206L296.27 261.22C296.835 261.77 297.399 262.318 297.964 262.864ZM332.067 287.401C328.41 287.979 324.731 287.368 321.289 286.081C318.025 284.825 315.015 283.006 312.244 280.882C309.201 278.552 306.341 275.788 303.465 273.007C296.419 266.196 289.271 259.287 279.081 258.423C273.256 257.93 267.726 260.161 263.881 264.557C260.186 268.781 258.174 274.461 258.172 280.057C258.169 286.463 260.791 292.632 264.482 297.767C268.362 303.167 273.456 307.319 278.83 311.146C279.355 311.52 279.884 311.893 280.413 312.267C284.996 315.504 289.654 318.794 293.153 323.225C295.223 325.847 296.718 328.823 297.625 332.036C298.57 335.378 298.958 338.842 299.285 342.289C299.305 342.5 299.325 342.711 299.345 342.922L299.397 343.481C300.004 350.009 300.622 356.639 304.127 362.359C305.027 363.827 306.046 365.216 307.064 366.604L307.064 366.604C308.23 368.194 309.396 369.783 310.384 371.491C312.17 374.581 313.521 378.332 312.583 381.919C312.255 383.176 312.137 384.254 312.647 385.493C313.133 386.676 314.03 387.695 315.091 388.399C317.751 390.163 321.238 389.618 324.159 388.955C329.401 387.765 334.627 386.488 339.851 385.212L339.853 385.211C342.421 384.584 344.988 383.957 347.557 383.34C348.831 383.034 350.105 382.729 351.379 382.424L351.395 382.42C353.939 381.811 356.483 381.202 359.026 380.585C361.896 379.89 364.754 379.128 367.531 378.113C372.897 376.151 378.119 373.025 380.703 367.716C383.516 361.937 382.766 355.13 382.083 348.928L382.08 348.906L382.05 348.635L382.011 348.28C381.154 340.438 379.835 332.646 378.069 324.958C376.336 317.419 374.239 309.905 371.554 302.644C369.239 296.38 366.024 290.17 360.474 286.189C358.118 284.497 355.411 283.267 352.537 282.804C349.154 282.261 345.8 283.001 342.601 284.088C341.651 284.41 340.708 284.761 339.765 285.111L339.765 285.111C337.248 286.045 334.727 286.981 332.067 287.401ZM320.998 286.816C314.619 284.35 309.466 279.857 304.607 275.171C304.393 274.965 304.179 274.758 303.965 274.55C303.646 274.24 303.326 273.93 303.007 273.619C298.673 269.402 294.29 265.138 288.906 262.294C283.403 259.386 276.671 257.918 270.743 260.454C265.536 262.682 261.874 267.511 260.141 272.799C255.942 285.609 263.9 298.24 273.525 306.168C275.815 308.055 278.237 309.767 280.659 311.479L280.659 311.479L280.66 311.48L280.66 311.48L280.66 311.48C283.215 313.287 285.77 315.093 288.17 317.104C292.811 320.991 296.543 325.614 298.286 331.49C299.469 335.481 299.841 339.613 300.214 343.746C300.45 346.368 300.686 348.99 301.129 351.577C301.709 354.958 302.674 358.265 304.387 361.258C305.395 363.017 306.592 364.651 307.789 366.284L307.789 366.285L307.789 366.285L307.789 366.285L307.789 366.285L307.789 366.285L307.789 366.285L307.79 366.286L307.79 366.286C308.7 367.529 309.611 368.772 310.439 370.071C312.189 372.818 313.59 375.95 313.663 379.254C313.681 380.045 313.613 380.833 313.458 381.609C313.411 381.843 313.349 382.073 313.286 382.302L313.286 382.302C313.156 382.78 313.026 383.255 313.045 383.76C313.097 385.239 314.028 386.61 315.173 387.49C317.905 389.591 321.728 388.725 324.792 387.996C327.22 387.419 329.647 386.834 332.074 386.25L332.111 386.241C333.432 385.923 334.752 385.605 336.074 385.288C338.583 384.685 341.093 384.083 343.603 383.482C348.617 382.28 353.631 381.078 358.643 379.868C364.252 378.513 370.162 376.962 374.855 373.446C377.194 371.691 379.132 369.429 380.293 366.729C381.554 363.791 381.906 360.569 381.892 357.398C381.879 353.888 381.471 350.376 381.062 346.893C380.616 343.079 380.059 339.278 379.396 335.495C378.068 327.929 376.311 320.439 374.135 313.072L374.002 312.624L374.002 312.624L374.002 312.623C371.996 305.83 369.884 298.681 365.808 292.815C362.377 287.879 357.049 283.739 350.845 283.423C346.957 283.224 343.363 284.56 339.761 285.899C336.712 287.033 333.657 288.169 330.412 288.377C327.208 288.584 324.03 287.95 321.035 286.832C321.022 286.827 321.01 286.822 320.998 286.816ZM324.706 296.05C327.49 297.087 330.46 297.587 333.419 297.122C335.579 296.782 337.628 296.021 339.673 295.262C340.473 294.965 341.271 294.668 342.075 294.397C344.684 293.518 347.42 292.935 350.173 293.4C352.552 293.802 354.783 294.84 356.722 296.262C361.154 299.513 363.733 304.516 365.598 309.562C367.784 315.478 369.493 321.599 370.903 327.742C372.355 334.068 373.433 340.482 374.128 346.935L374.167 347.295C374.712 352.349 375.309 357.885 372.975 362.589C370.836 366.902 366.546 369.428 362.167 371.013C358.181 372.455 354.002 373.403 349.848 374.345L349.847 374.345C348.512 374.648 347.179 374.95 345.857 375.268C343.797 375.762 341.739 376.266 339.681 376.769L339.681 376.769L339.681 376.769L339.681 376.769C335.447 377.805 331.213 378.841 326.963 379.799C324.597 380.332 321.804 380.746 319.644 379.346C317.881 378.202 316.913 376.222 317.482 374.17C318.797 369.427 315.777 365.3 313.008 361.515C312.271 360.508 311.552 359.525 310.937 358.561C307.83 353.695 307.308 348.049 306.789 342.439L306.789 342.439L306.778 342.327C306.257 336.702 305.447 331.096 301.884 326.505C299.032 322.831 295.194 320.12 291.42 317.455L291.42 317.455C290.995 317.155 290.571 316.856 290.149 316.556C285.755 313.427 281.59 310.03 278.425 305.607C275.434 301.427 273.311 296.41 273.322 291.203C273.33 286.652 274.965 282.038 277.965 278.6C281.102 275.006 285.61 273.18 290.367 273.573C298.672 274.26 304.502 279.894 310.243 285.442C312.552 287.673 314.847 289.891 317.282 291.767C319.556 293.518 322.024 295.014 324.706 296.05ZM311.236 287.463C315.138 291.218 319.28 294.785 324.388 296.775C324.397 296.78 324.407 296.785 324.416 296.79C324.428 296.795 324.439 296.8 324.451 296.804C326.905 297.718 329.502 298.232 332.128 298.061C334.755 297.889 337.23 296.968 339.7 296.049C342.628 294.96 345.549 293.872 348.71 294.038C353.861 294.309 358.249 297.827 361.02 301.969C364.22 306.754 365.91 312.499 367.522 317.979L367.522 317.979L367.604 318.259C369.363 324.237 370.782 330.315 371.852 336.455C372.386 339.524 372.835 342.609 373.195 345.704C373.522 348.517 373.85 351.358 373.85 354.194C373.85 356.758 373.55 359.358 372.512 361.724C371.547 363.924 369.937 365.752 368.011 367.164C364.135 370.007 359.284 371.233 354.683 372.339C348.714 373.773 342.744 375.206 336.773 376.639L336.408 376.727C335.446 376.958 334.485 377.19 333.524 377.422C331.461 377.92 329.399 378.418 327.333 378.906C324.818 379.498 321.659 380.15 319.517 378.263C318.665 377.512 317.983 376.39 318.064 375.217C318.088 374.878 318.179 374.545 318.27 374.213C318.332 373.985 318.395 373.756 318.435 373.526C318.544 372.907 318.58 372.278 318.554 371.65C318.446 369.021 317.338 366.544 315.946 364.353C315.269 363.288 314.523 362.27 313.778 361.253L313.778 361.252L313.778 361.252L313.778 361.252C312.849 359.984 311.92 358.717 311.125 357.359C309.71 354.945 308.897 352.279 308.411 349.535C308.026 347.362 307.828 345.16 307.629 342.958L307.629 342.958C307.335 339.697 307.041 336.437 306.143 333.277C304.785 328.497 301.852 324.708 298.114 321.52C296.073 319.779 293.884 318.232 291.695 316.684C289.807 315.349 287.918 314.013 286.123 312.553C278.233 306.133 271.637 295.833 275.061 285.365C276.463 281.073 279.435 277.153 283.665 275.353C288.521 273.285 294.038 274.542 298.52 276.955C302.801 279.261 306.299 282.664 309.761 286.034L309.762 286.034C310.253 286.512 310.744 286.99 311.236 287.463ZM335.175 306.772C332.782 307.226 330.387 306.858 328.121 306.02C326.023 305.205 324.097 304.029 322.326 302.651C320.494 301.226 318.762 299.554 317.02 297.872L317.02 297.872C312.585 293.59 308.08 289.241 301.657 288.72C298.009 288.424 294.54 289.817 292.119 292.562C289.772 295.222 288.484 298.808 288.472 302.346C288.446 310.831 294.902 317.277 301.328 321.862C301.694 322.123 302.063 322.383 302.432 322.644C305.279 324.654 308.168 326.694 310.347 329.438C313.187 333.018 313.811 337.394 314.22 341.81C314.618 346.125 315.022 350.463 317.401 354.208C317.917 355.019 318.486 355.795 319.056 356.571L319.056 356.572L319.056 356.572C319.833 357.629 320.609 358.686 321.248 359.833C321.84 360.894 322.32 362.025 322.543 363.222C322.76 364.392 322.596 365.383 322.352 366.522C322.03 368.019 322.951 369.513 324.194 370.293C325.852 371.332 327.957 371.043 329.766 370.643C333.12 369.899 336.461 369.078 339.801 368.256C341.422 367.857 343.043 367.459 344.665 367.069C345.654 366.831 346.65 366.605 347.649 366.379L347.65 366.379L347.651 366.379C350.861 365.651 354.093 364.918 357.166 363.778C360.504 362.539 363.724 360.568 365.339 357.269C367.108 353.654 366.652 349.413 366.235 345.536L366.207 345.279C365.664 340.214 364.815 335.182 363.665 330.22C362.575 325.513 361.262 320.816 359.569 316.287C358.118 312.405 356.093 308.574 352.653 306.105C351.202 305.064 349.542 304.304 347.777 303.991C345.701 303.625 343.632 304.023 341.654 304.672C340.959 304.901 340.271 305.156 339.584 305.411C338.139 305.947 336.693 306.484 335.175 306.772ZM327.828 306.754C323.418 305.03 320.109 301.835 316.795 298.635C314.108 296.041 311.417 293.442 308.132 291.621C304.673 289.703 300.373 288.653 296.586 290.254C293.296 291.643 291.004 294.702 289.944 298.043C287.36 306.188 292.652 314.113 298.808 319.006C300.084 320.02 301.414 320.961 302.744 321.903C304.488 323.137 306.232 324.372 307.852 325.768C310.659 328.188 312.853 331.076 313.885 334.675C314.586 337.118 314.814 339.641 315.042 342.164L315.042 342.164L315.042 342.164C315.187 343.769 315.332 345.373 315.598 346.957C315.953 349.066 316.535 351.127 317.592 352.997C318.232 354.131 319.001 355.181 319.77 356.23C320.266 356.906 320.762 357.583 321.223 358.282C322.353 359.997 323.291 361.932 323.437 364.009C323.501 364.911 323.343 365.71 323.152 366.579C322.934 367.563 323.327 368.474 324.034 369.165C325.652 370.745 328.177 370.204 330.136 369.744C331.695 369.377 333.252 369.001 334.809 368.625C335.588 368.436 336.367 368.248 337.146 368.061C338.061 367.841 338.976 367.622 339.891 367.402L341.87 366.928L341.882 366.925L341.894 366.922C345.014 366.174 348.134 365.425 351.253 364.673C354.758 363.827 358.459 362.882 361.404 360.699C362.889 359.598 364.118 358.171 364.842 356.46C365.629 354.598 365.827 352.558 365.807 350.555C365.759 345.966 365.001 341.303 364.2 336.794C363.363 332.086 362.26 327.426 360.897 322.842L360.801 322.522L360.801 322.522C359.537 318.27 358.202 313.775 355.567 310.154C353.365 307.126 349.97 304.646 346.095 304.634C343.826 304.627 341.721 305.41 339.613 306.195C337.69 306.91 335.765 307.627 333.708 307.747C331.707 307.863 329.737 307.462 327.867 306.77C327.859 306.767 327.851 306.764 327.843 306.761C327.838 306.758 327.833 306.756 327.828 306.754ZM331.537 315.988C333.15 316.581 334.829 316.83 336.527 316.488C337.551 316.281 338.529 315.919 339.506 315.556L339.506 315.556C340.044 315.356 340.582 315.157 341.128 314.983C343.878 314.111 346.564 314.431 348.897 316.177C351.303 317.979 352.696 320.709 353.707 323.472C354.882 326.683 355.809 329.997 356.568 333.33C357.344 336.73 357.917 340.176 358.285 343.643L358.297 343.753C358.591 346.514 358.911 349.527 357.629 352.095C356.466 354.424 354.168 355.808 351.798 356.676C349.627 357.47 347.349 357.987 345.085 358.501C344.374 358.662 343.664 358.823 342.96 358.992C341.828 359.264 340.697 359.548 339.565 359.831L339.564 359.832C337.194 360.426 334.82 361.021 332.433 361.512C331.198 361.766 329.766 361.903 328.653 361.178C327.803 360.626 327.164 359.617 327.315 358.577C327.344 358.382 327.378 358.197 327.411 358.016C327.507 357.499 327.596 357.016 327.519 356.435C327.41 355.615 327.109 354.835 326.73 354.105C326.258 353.197 325.653 352.373 325.049 351.549C324.669 351.031 324.29 350.513 323.943 349.975C322.227 347.311 321.934 344.234 321.648 341.156C321.362 338.076 320.925 335.014 318.929 332.527C317.404 330.627 315.401 329.214 313.42 327.817L313.419 327.816C313.059 327.562 312.7 327.309 312.344 327.053C307.851 323.821 303.406 319.118 303.63 313.174C303.817 308.192 307.595 303.49 312.874 303.862C317.444 304.183 320.641 307.265 323.788 310.298C325 311.466 326.204 312.627 327.477 313.62C328.719 314.591 330.067 315.413 331.537 315.988ZM331.283 316.738C331.294 316.742 331.306 316.746 331.317 316.749C332.607 317.218 333.96 317.496 335.339 317.43C336.81 317.359 338.184 316.849 339.556 316.34C341.026 315.795 342.493 315.25 344.073 315.248C346.899 315.244 349.35 317.167 350.866 319.417C352.58 321.961 353.482 325.024 354.341 327.943L354.396 328.13C355.324 331.278 356.077 334.477 356.649 337.709C357.201 340.827 357.726 344.05 357.764 347.223C357.798 350.047 357.013 352.633 354.65 354.347C352.537 355.881 349.893 356.516 347.394 357.116L347.394 357.116L347.366 357.122C345.78 357.504 344.193 357.884 342.607 358.265C340.948 358.663 339.29 359.061 337.631 359.46C337.072 359.594 336.512 359.729 335.953 359.865C334.905 360.119 333.856 360.373 332.806 360.618C331.357 360.953 329.445 361.309 328.441 359.895C328.031 359.318 328.08 358.819 328.229 358.167C328.371 357.545 328.379 356.908 328.292 356.278C328.1 354.88 327.422 353.596 326.644 352.442C326.355 352.015 326.05 351.598 325.744 351.18C325.141 350.356 324.537 349.531 324.064 348.625C323.371 347.301 323.013 345.849 322.79 344.38C322.64 343.392 322.55 342.392 322.46 341.392L322.46 341.391C322.291 339.51 322.122 337.626 321.552 335.818C320.279 331.78 316.994 329.426 313.728 327.085L313.728 327.085C312.803 326.422 311.88 325.761 311.004 325.062C306.728 321.651 303.065 316.12 304.911 310.467C305.682 308.107 307.351 305.956 309.727 305.066C312.415 304.06 315.405 304.918 317.783 306.315C319.943 307.584 321.739 309.315 323.531 311.043L323.531 311.043C325.858 313.285 328.179 315.522 331.283 316.738ZM337.881 326.203C336.877 326.428 335.913 326.3 334.954 325.957C333.231 325.265 331.891 323.984 330.555 322.706C328.923 321.145 327.297 319.59 324.986 319.121C321.545 318.424 318.804 321.315 318.77 324.654C318.736 328.058 321.241 330.72 323.826 332.582C324.037 332.733 324.249 332.883 324.463 333.033C325.631 333.856 326.817 334.691 327.68 335.838C328.77 337.283 328.937 339.062 329.1 340.804C329.112 340.932 329.124 341.06 329.137 341.187C329.317 343.05 329.707 344.666 330.803 346.209C330.902 346.349 331.003 346.487 331.105 346.627C331.589 347.288 332.081 347.96 332.319 348.75C332.477 349.271 332.459 349.722 332.361 350.243C332.31 350.515 332.281 350.745 332.351 351.018C332.733 352.506 334.423 352.53 335.634 352.268C337.024 351.967 338.408 351.624 339.791 351.281C340.481 351.11 341.17 350.939 341.859 350.774C342.245 350.681 342.653 350.593 343.075 350.502C345.693 349.938 348.817 349.265 350.01 346.742C350.708 345.263 350.531 343.559 350.366 341.985C350.154 339.96 349.819 337.948 349.366 335.962C348.926 334.034 348.388 332.114 347.701 330.259C347.129 328.709 346.339 327.194 345.013 326.16C343.818 325.226 342.361 324.875 340.881 325.226C340.382 325.345 339.901 325.525 339.421 325.705C338.915 325.895 338.409 326.085 337.881 326.203ZM334.754 326.724C336.531 327.343 338.045 327.032 339.777 326.406C340.766 326.049 341.788 325.707 342.848 325.953C343.674 326.145 344.418 326.621 345.017 327.21C346.385 328.551 347 330.505 347.556 332.285C348.163 334.229 348.653 336.211 349.024 338.213C349.353 339.997 349.643 341.827 349.713 343.642C349.775 345.248 349.461 346.788 348.131 347.82C346.951 348.737 345.423 349.104 343.996 349.447L343.938 349.461C342.866 349.72 341.795 349.977 340.723 350.234C340.006 350.406 339.289 350.577 338.573 350.75C338.237 350.83 337.901 350.912 337.565 350.993C336.957 351.14 336.349 351.288 335.741 351.429L335.66 351.448C334.881 351.63 333.734 351.899 333.243 351.071C333.065 350.77 333.12 350.498 333.179 350.206C333.203 350.086 333.228 349.962 333.238 349.832C333.263 349.502 333.233 349.164 333.162 348.841C333.016 348.171 332.691 347.546 332.316 346.976C332.131 346.694 331.932 346.422 331.732 346.15C331.427 345.733 331.121 345.316 330.868 344.864C330.462 344.139 330.24 343.347 330.101 342.532C329.993 341.895 329.935 341.249 329.877 340.603C329.787 339.605 329.696 338.606 329.422 337.639C328.709 335.126 326.713 333.689 324.715 332.249C324.432 332.046 324.15 331.843 323.871 331.636C321.311 329.739 318.816 326.655 319.767 323.254C320.153 321.876 321.081 320.578 322.449 320.049C324.029 319.437 325.792 320.003 327.163 320.863C328.313 321.584 329.286 322.514 330.256 323.442C331.59 324.719 332.919 325.991 334.7 326.707C334.718 326.714 334.736 326.72 334.754 326.724Z" fill="url(#paint0_linear_788_931)"/>
<defs>
<linearGradient id="paint0_linear_788_931" x1="493.007" y1="370.944" x2="200.413" y2="56.104" gradientUnits="userSpaceOnUse">
<stop stop-color="#023436"/>
<stop offset="0.34086" stop-color="#00F1B5" stop-opacity="0.16"/>
<stop offset="0.995488" stop-color="#023436"/>
</linearGradient>
</defs>
</svg>
