<svg width="388" height="221" viewBox="0 0 388 221" fill="none" xmlns="http://www.w3.org/2000/svg">
<path d="M0.00260172 -354.756C34.4914 -341.961 60.5724 -320.418 69.3856 -285.835C70.8738 -279.992 72.7969 -272.4 74.7019 -264.879C108.158 -132.791 133.694 -31.973 223.581 21.45C290.346 61.1307 452.602 -5.96282 542.447 -48.9532L542.774 -48.0259C452.749 -4.97235 290.18 62.1752 223.078 22.2966C132.842 -31.3315 107.264 -132.322 73.7504 -264.636C72.1604 -270.916 70.5437 -277.298 68.4301 -285.591C59.7678 -319.585 34.2371 -340.883 0.401707 -353.617L0.000586885 -354.755L0.00260172 -354.756Z" fill="url(#paint0_linear_785_393)"/>
<path d="M4.03318 -343.317C46.2238 -331.488 79.0664 -308.971 89.1764 -269.294C90.6529 -263.503 92.5876 -255.865 94.4927 -248.337C127.949 -116.249 153.483 -15.4289 243.373 37.9934C307.27 75.9666 458.626 16.1479 550.271 -26.7483L550.597 -25.823C458.772 17.1323 307.093 77.0058 242.871 38.8373C152.635 -14.7908 127.056 -115.783 93.5452 -248.096C91.9561 -254.367 90.351 -260.703 88.2256 -269.049C78.2623 -308.149 45.9824 -330.451 4.41436 -342.241L4.03519 -343.317L4.03318 -343.317Z" fill="url(#paint1_linear_785_393)"/>
<path d="M8.54559 -330.509C57.9667 -320.006 97.6733 -297.099 108.977 -252.743C110.458 -246.925 112.389 -239.313 114.293 -231.787C147.749 -99.699 173.284 1.12131 263.173 54.5436C324.349 90.8997 465.701 37.611 558.061 -4.63909L558.385 -3.7178C465.843 38.5902 324.164 91.9351 262.671 55.3875C172.435 1.75938 146.856 -99.2328 113.343 -231.545C111.755 -237.821 110.144 -244.18 108.024 -252.498C96.8685 -296.28 57.7322 -319.001 8.90631 -329.485L8.54559 -330.509Z" fill="url(#paint2_linear_785_393)"/>
<path d="M12.7813 -318.486C68.1852 -309.343 114.028 -286.466 126.315 -238.252C127.792 -232.453 129.725 -224.821 131.63 -217.298C165.086 -85.21 190.621 15.6103 280.51 69.0326C339.4 104.033 472.589 55.9582 564.848 14.6273L565.172 15.5466C472.725 56.9347 339.209 105.063 280.007 69.8792C189.771 16.2511 164.192 -84.7411 130.679 -217.056C129.09 -223.332 127.484 -229.671 125.359 -238.008C113.221 -285.647 67.9605 -308.355 13.1314 -317.492L12.7813 -318.486Z" fill="url(#paint3_linear_785_393)"/>
<path d="M17.087 -306.264C77.9914 -298.563 129.917 -276.004 143.114 -224.209C144.602 -218.375 146.526 -210.772 148.431 -203.253C181.887 -71.1649 207.421 29.6554 297.311 83.0776C354.054 116.799 479.771 73.3964 571.396 33.2139L571.72 34.1312C479.902 74.3703 353.854 117.826 296.809 83.9215C206.573 30.2934 180.994 -70.6968 147.481 -203.011C145.891 -209.293 144.276 -215.662 142.161 -223.966C129.112 -275.18 77.7801 -297.582 17.4321 -305.284L17.087 -306.264Z" fill="url(#paint4_linear_785_393)"/>
<path d="M21.6857 -293.211C87.9405 -287.091 146.275 -265.132 160.379 -209.781C161.866 -203.946 163.791 -196.344 165.695 -188.824C199.151 -56.7362 224.686 44.0841 314.575 97.5063C365.638 127.854 472.566 95.7364 560.238 59.7189L556.02 62.4872C469.018 97.7936 364.537 128.341 314.073 98.3502C223.837 44.7221 198.258 -56.2701 164.746 -188.582C163.155 -194.865 161.541 -201.233 159.426 -209.535C145.47 -264.299 87.7434 -286.114 22.0266 -292.244L21.6857 -293.211Z" fill="url(#paint5_linear_785_393)"/>
<path d="M26.1639 -280.502C97.1975 -275.938 161.756 -254.769 176.695 -196.143C178.175 -190.335 180.105 -182.71 182.011 -175.187C215.467 -43.0986 241.002 57.7217 330.891 111.144C366.495 132.303 429.267 123.09 493.73 103.367L490.955 105.188C427.32 124.33 365.657 132.951 330.388 111.991C240.152 58.3625 214.573 -42.6297 181.06 -174.942C179.471 -181.22 177.862 -187.568 175.741 -195.895C160.952 -253.929 97.0151 -274.965 26.5007 -279.54L26.1619 -280.501L26.1639 -280.502Z" fill="url(#paint6_linear_785_393)"/>
<path d="M31.1434 -266.369C107.041 -263.544 178.539 -243.474 194.365 -181.373C195.852 -175.539 197.777 -167.936 199.681 -160.417C233.137 -28.3289 258.672 72.4913 348.561 125.914C372.08 139.889 407.46 140.609 447.347 133.805L445.439 135.059C406.162 141.525 371.349 140.599 348.058 126.755C257.823 73.1274 232.243 -27.8648 198.731 -160.177C197.14 -166.459 195.528 -172.829 193.411 -181.13C177.739 -242.627 106.877 -262.578 31.4786 -265.418L31.1434 -266.369Z" fill="url(#paint7_linear_785_393)"/>
<defs>
<linearGradient id="paint0_linear_785_393" x1="91.1218" y1="-192.505" x2="428.347" y2="3.52749" gradientUnits="userSpaceOnUse">
<stop stop-color="#003D2B"/>
<stop offset="0.544795" stop-color="#76A738" stop-opacity="0.22"/>
<stop offset="1" stop-color="#003D2B"/>
</linearGradient>
<linearGradient id="paint1_linear_785_393" x1="96.4362" y1="-177.428" x2="439.745" y2="17.4381" gradientUnits="userSpaceOnUse">
<stop stop-color="#003D2B"/>
<stop offset="0.544795" stop-color="#76A738" stop-opacity="0.22"/>
<stop offset="1" stop-color="#003D2B"/>
</linearGradient>
<linearGradient id="paint2_linear_785_393" x1="102.047" y1="-161.503" x2="450.462" y2="32.2839" gradientUnits="userSpaceOnUse">
<stop stop-color="#003D2B"/>
<stop offset="0.544795" stop-color="#76A738" stop-opacity="0.22"/>
<stop offset="1" stop-color="#003D2B"/>
</linearGradient>
<linearGradient id="paint3_linear_785_393" x1="107.135" y1="-147.061" x2="459.447" y2="45.8399" gradientUnits="userSpaceOnUse">
<stop stop-color="#003D2B"/>
<stop offset="0.544795" stop-color="#76A738" stop-opacity="0.22"/>
<stop offset="1" stop-color="#003D2B"/>
</linearGradient>
<linearGradient id="paint4_linear_785_393" x1="112.189" y1="-132.714" x2="467.877" y2="59.3754" gradientUnits="userSpaceOnUse">
<stop stop-color="#003D2B"/>
<stop offset="0.544795" stop-color="#76A738" stop-opacity="0.22"/>
<stop offset="1" stop-color="#003D2B"/>
</linearGradient>
<linearGradient id="paint5_linear_785_393" x1="116.066" y1="-117.165" x2="471.253" y2="61.3443" gradientUnits="userSpaceOnUse">
<stop stop-color="#003D2B"/>
<stop offset="0.544795" stop-color="#76A738" stop-opacity="0.22"/>
<stop offset="1" stop-color="#003D2B"/>
</linearGradient>
<linearGradient id="paint6_linear_785_393" x1="115.359" y1="-101.011" x2="447.975" y2="21.2699" gradientUnits="userSpaceOnUse">
<stop stop-color="#003D2B"/>
<stop offset="0.544795" stop-color="#76A738" stop-opacity="0.22"/>
<stop offset="1" stop-color="#003D2B"/>
</linearGradient>
<linearGradient id="paint7_linear_785_393" x1="116.126" y1="-86.1823" x2="419.126" y2="-4.42152" gradientUnits="userSpaceOnUse">
<stop stop-color="#003D2B"/>
<stop offset="0.544795" stop-color="#76A738" stop-opacity="0.22"/>
<stop offset="1" stop-color="#003D2B"/>
</linearGradient>
</defs>
</svg>
