<svg width="370" height="219" viewBox="0 0 370 219" fill="none" xmlns="http://www.w3.org/2000/svg">
<path d="M0.00260172 575.336C34.4914 562.542 60.5724 540.998 69.3856 506.415C70.8738 500.572 72.7969 492.98 74.7019 485.459C108.158 353.371 133.694 252.553 223.581 199.13C290.346 159.45 452.602 226.543 542.447 269.534L542.774 268.606C452.749 225.553 290.18 158.405 223.078 198.284C132.842 251.912 107.264 352.902 73.7504 485.216C72.1604 491.496 70.5437 497.878 68.4301 506.171C59.7678 540.165 34.2371 561.464 0.401707 574.197L0.000586885 575.335L0.00260172 575.336Z" fill="url(#paint0_linear_778_143)"/>
<path d="M4.03318 563.897C46.2238 552.067 79.0664 529.551 89.1764 489.873C90.6529 484.083 92.5876 476.445 94.4927 468.917C127.949 336.829 153.483 236.009 243.373 182.586C307.27 144.613 458.626 204.432 550.271 247.328L550.597 246.403C458.772 203.448 307.093 143.574 242.871 181.743C152.635 235.371 127.056 336.363 93.5452 468.676C91.9561 474.947 90.351 481.283 88.2256 489.629C78.2623 528.729 45.9824 551.03 4.41436 562.821L4.03519 563.897L4.03318 563.897Z" fill="url(#paint1_linear_778_143)"/>
<path d="M8.54559 551.089C57.9667 540.586 97.6733 517.68 108.977 473.324C110.458 467.505 112.389 459.893 114.293 452.367C147.749 320.279 173.284 219.459 263.173 166.037C324.349 129.681 465.701 182.969 558.061 225.219L558.385 224.298C465.843 181.99 324.164 128.645 262.671 165.193C172.435 218.821 146.856 319.813 113.343 452.126C111.755 458.402 110.144 464.76 108.024 473.078C96.8685 516.86 57.7322 539.581 8.90631 550.065L8.54559 551.089Z" fill="url(#paint2_linear_778_143)"/>
<path d="M12.7813 539.066C68.1852 529.923 114.028 507.046 126.315 458.832C127.792 453.033 129.725 445.401 131.63 437.878C165.086 305.79 190.621 204.97 280.51 151.548C339.4 116.547 472.589 164.622 564.848 205.953L565.172 205.034C472.725 163.645 339.209 115.517 280.007 150.701C189.771 204.329 164.192 305.321 130.679 437.636C129.09 443.912 127.484 450.251 125.359 458.589C113.221 506.228 67.9605 528.935 13.1314 538.072L12.7813 539.066Z" fill="url(#paint3_linear_778_143)"/>
<path d="M17.088 526.844C77.9923 519.143 129.918 496.584 143.115 444.789C144.603 438.955 146.527 431.352 148.432 423.833C181.888 291.745 207.422 190.925 297.312 137.502C354.055 103.781 479.772 147.184 571.397 187.366L571.721 186.449C479.903 146.21 353.855 102.754 296.81 136.659C206.574 190.287 180.995 291.277 147.482 423.591C145.892 429.873 144.277 436.242 142.162 444.546C129.112 495.76 77.7811 518.162 17.4331 525.864L17.088 526.844Z" fill="url(#paint4_linear_778_143)"/>
<path d="M21.6867 513.791C87.9415 507.67 146.276 485.712 160.38 430.36C161.867 424.526 163.792 416.923 165.696 409.404C199.152 277.316 224.687 176.496 314.576 123.074C365.639 92.7259 472.567 124.843 560.239 160.861L556.021 158.093C469.019 122.786 364.538 92.2386 314.074 122.23C223.838 175.858 198.259 276.85 164.747 409.162C163.156 415.444 161.541 421.813 159.427 430.115C145.471 484.879 87.7443 506.694 22.0276 512.824L21.6867 513.791Z" fill="url(#paint5_linear_778_143)"/>
<path d="M26.1639 501.082C97.1975 496.519 161.756 475.349 176.695 416.723C178.175 410.915 180.105 403.29 182.011 395.767C215.467 263.679 241.002 162.858 330.891 109.436C366.495 88.2767 429.267 97.4903 493.73 117.213L490.955 115.392C427.32 96.2502 365.657 87.6287 330.388 108.59C240.152 162.218 214.573 263.21 181.06 395.522C179.471 401.8 177.862 408.148 175.741 416.475C160.952 474.509 97.0151 495.545 26.5007 500.12L26.1619 501.081L26.1639 501.082Z" fill="url(#paint6_linear_778_143)"/>
<path d="M31.1434 486.949C107.041 484.124 178.539 464.054 194.365 401.953C195.852 396.119 197.777 388.516 199.681 380.997C233.137 248.909 258.672 148.089 348.561 94.6665C372.08 80.6909 407.46 79.9712 447.347 86.7748L445.439 85.5212C406.162 79.0547 371.349 79.9813 348.058 93.8246C257.823 147.453 232.243 248.445 198.731 380.757C197.14 387.039 195.528 393.409 193.411 401.71C177.739 463.207 106.877 483.158 31.4786 485.998L31.1434 486.949Z" fill="url(#paint7_linear_778_143)"/>
<defs>
<linearGradient id="paint0_linear_778_143" x1="91.1218" y1="413.085" x2="428.347" y2="217.053" gradientUnits="userSpaceOnUse">
<stop stop-color="#003D2B"/>
<stop offset="0.544795" stop-color="#76A738" stop-opacity="0.22"/>
<stop offset="1" stop-color="#003D2B"/>
</linearGradient>
<linearGradient id="paint1_linear_778_143" x1="96.4362" y1="398.007" x2="439.745" y2="203.142" gradientUnits="userSpaceOnUse">
<stop stop-color="#003D2B"/>
<stop offset="0.544795" stop-color="#76A738" stop-opacity="0.22"/>
<stop offset="1" stop-color="#003D2B"/>
</linearGradient>
<linearGradient id="paint2_linear_778_143" x1="102.047" y1="382.083" x2="450.462" y2="188.296" gradientUnits="userSpaceOnUse">
<stop stop-color="#003D2B"/>
<stop offset="0.544795" stop-color="#76A738" stop-opacity="0.22"/>
<stop offset="1" stop-color="#003D2B"/>
</linearGradient>
<linearGradient id="paint3_linear_778_143" x1="107.135" y1="367.641" x2="459.447" y2="174.74" gradientUnits="userSpaceOnUse">
<stop stop-color="#003D2B"/>
<stop offset="0.544795" stop-color="#76A738" stop-opacity="0.22"/>
<stop offset="1" stop-color="#003D2B"/>
</linearGradient>
<linearGradient id="paint4_linear_778_143" x1="112.19" y1="353.294" x2="467.878" y2="161.205" gradientUnits="userSpaceOnUse">
<stop stop-color="#003D2B"/>
<stop offset="0.544795" stop-color="#76A738" stop-opacity="0.22"/>
<stop offset="1" stop-color="#003D2B"/>
</linearGradient>
<linearGradient id="paint5_linear_778_143" x1="116.067" y1="337.745" x2="471.254" y2="159.236" gradientUnits="userSpaceOnUse">
<stop stop-color="#003D2B"/>
<stop offset="0.544795" stop-color="#76A738" stop-opacity="0.22"/>
<stop offset="1" stop-color="#003D2B"/>
</linearGradient>
<linearGradient id="paint6_linear_778_143" x1="115.359" y1="321.591" x2="447.975" y2="199.31" gradientUnits="userSpaceOnUse">
<stop stop-color="#003D2B"/>
<stop offset="0.544795" stop-color="#76A738" stop-opacity="0.22"/>
<stop offset="1" stop-color="#003D2B"/>
</linearGradient>
<linearGradient id="paint7_linear_778_143" x1="116.126" y1="306.762" x2="419.126" y2="225.002" gradientUnits="userSpaceOnUse">
<stop stop-color="#003D2B"/>
<stop offset="0.544795" stop-color="#76A738" stop-opacity="0.22"/>
<stop offset="1" stop-color="#003D2B"/>
</linearGradient>
</defs>
</svg>
