<svg width="75" height="72" viewBox="0 0 75 72" fill="none" xmlns="http://www.w3.org/2000/svg">
<path fill-rule="evenodd" clip-rule="evenodd" d="M14.3807 2.3623C12.1474 2.3623 10.0964 2.89792 8.22798 3.96562C6.35205 5.03758 4.86242 6.48539 3.74942 8.31653C2.64116 10.1547 2.08105 12.1555 2.08105 14.3484V21.2465C2.08105 23.3768 2.63962 25.3476 3.74878 27.1728C4.86291 29.0062 6.35511 30.4712 8.23529 31.5738C10.1027 32.669 12.1511 33.2177 14.3807 33.2177C16.6103 33.2177 18.6419 32.6691 20.477 31.5764C22.33 30.4731 23.8094 29.0212 24.9245 27.2152C26.0156 25.4241 26.5758 23.4398 26.5758 21.2465V14.3484C26.5758 12.132 26.0413 10.1299 24.9635 8.31031C23.8793 6.47994 22.4192 5.0337 20.574 3.96316C18.7403 2.89937 16.6918 2.3623 14.3807 2.3623ZM7.48378 2.66325C9.58695 1.46144 11.8958 0.862305 14.3807 0.862305C15.2756 0.862305 16.1404 0.935543 16.9757 1.08246C17.5854 0.970106 18.5263 0.923004 19.393 0.899893C20.2827 0.876166 21.1793 0.876769 21.7399 0.877145L21.9195 0.877229C24.4759 0.877229 26.7872 1.47491 28.8655 2.68063C30.9321 3.8796 32.5777 5.50914 33.7929 7.56082C35.0145 9.62324 35.6146 11.8915 35.6146 14.3634V20.6334L46.5273 2.58299L46.5555 2.53633L46.5901 2.49424C46.8343 2.19781 47.2213 1.83281 47.7813 1.83281H59.517C59.6202 1.83281 59.7382 1.84042 59.8591 1.86746V1.83281H67.0409C67.1684 1.83281 67.3186 1.84444 67.469 1.89008C67.62 1.93588 67.8208 2.03181 67.9714 2.23446C68.3015 2.67876 68.0903 3.15582 68.0023 3.32193L67.9926 3.34041L67.9818 3.3583L45.6727 40.3552C45.9215 40.1922 46.1768 40.0358 46.4387 39.8862C48.5418 38.6843 50.8507 38.0852 53.3356 38.0852C54.2599 38.0852 55.1522 38.1633 56.0131 38.3201C56.6256 38.2001 57.5329 38.1456 58.3744 38.1174C59.3313 38.0852 60.2969 38.0852 60.8565 38.0852H60.8595C63.4159 38.0852 65.7272 38.6829 67.8054 39.8886C68.3026 40.1771 68.7755 40.4904 69.2238 40.8286H69.4463V41C70.7621 42.0358 71.8588 43.2931 72.7328 44.7688C73.9544 46.8312 74.5546 49.0994 74.5546 51.5713V58.4694C74.5546 60.9339 73.9207 63.1895 72.6832 65.2203L72.681 65.2239C71.4371 67.2393 69.7815 68.8626 67.7232 70.0881C65.6465 71.3246 63.348 71.9406 60.8595 71.9406C60.6681 71.9406 60.4111 71.9437 60.1143 71.9474H60.114H60.1138H60.1136H60.1135H60.1133H60.1131H60.1128C59.5554 71.9542 58.8577 71.9627 58.1898 71.9555C57.2694 71.9455 56.2549 71.907 55.5864 71.7637C54.8557 71.8816 54.1056 71.9406 53.3356 71.9406C50.847 71.9406 48.5356 71.3247 46.4314 70.0906C44.3399 68.8641 42.6668 67.2234 41.4218 65.1747C40.1719 63.1179 39.5359 60.8781 39.5359 58.4694V51.5713C39.5359 51.1961 39.5506 50.8255 39.5799 50.4594L27.7546 70.0704C27.6545 70.2953 27.5094 70.5138 27.2984 70.6826C27.0586 70.8744 26.7727 70.9701 26.4734 70.9701H19.4111V70.8887C19.2643 70.943 19.1088 70.9701 18.9496 70.9701H7.10933C6.87988 70.9701 6.39835 70.9238 6.13516 70.4785C5.89292 70.0686 6.03641 69.6393 6.11653 69.4434L6.13865 69.3893L6.16887 69.3393L27.9404 33.3272C26.0932 34.2551 24.0891 34.7177 21.9195 34.7177C20.6143 34.7177 19.346 34.5439 18.1401 34.2072C16.9425 34.5478 15.6878 34.7177 14.3807 34.7177C11.8921 34.7177 9.58067 34.1018 7.47647 32.8677C5.38501 31.6412 3.71187 30.0005 2.46691 27.9518C1.21697 25.895 0.581055 23.6552 0.581055 21.2465V14.3484C0.581055 11.8834 1.2152 9.61421 2.46559 7.54078L2.46691 7.5386L2.46691 7.53861C3.71293 5.48819 5.38843 3.86059 7.48378 2.66325ZM60.8595 39.5852C62.8955 39.5852 64.7277 40.002 66.3887 40.8286H61.9658V41.0344C61.4396 40.6167 60.8782 40.2347 60.2816 39.8886C60.1019 39.7844 59.9205 39.6847 59.7374 39.5896C60.1773 39.5852 60.5696 39.5852 60.8595 39.5852ZM65.209 44.7688C64.556 43.6664 63.7789 42.6859 62.8789 41.8286H68.0511C69.4328 42.813 70.5616 44.0464 71.4422 45.5332C71.8942 46.2962 72.2506 47.0914 72.5122 47.9209H66.552C66.2495 46.8218 65.8026 45.771 65.209 44.7688ZM66.785 48.9209H72.7779C72.9626 49.769 73.0546 50.6517 73.0546 51.5713V55.0132H67.0308V51.5713C67.0308 50.6601 66.9492 49.7766 66.785 48.9209ZM67.0308 56.0132H73.0546V58.4694C73.0546 59.7518 72.8631 60.9628 72.4859 62.1055H66.5314C66.8629 60.9502 67.0308 59.7375 67.0308 58.4694V56.0132ZM66.1982 63.1055H72.1009C71.8996 63.5612 71.6669 64.0054 71.4032 64.4383C70.2881 66.2442 68.8087 67.696 66.9558 68.7993C65.1206 69.892 63.0891 70.4406 60.8595 70.4406C60.6311 70.4406 60.3553 70.4441 60.047 70.4479L60.0426 70.448L59.8552 70.4503C59.753 70.4516 59.6479 70.4528 59.5402 70.4539C59.7613 70.339 59.9803 70.2175 60.1972 70.0894L60.1993 70.0881C62.2576 68.8626 63.9132 67.2393 65.1571 65.2239L65.1593 65.2203C65.5737 64.5404 65.9203 63.8352 66.1982 63.1055ZM21.3267 2.6657C21.1547 2.5659 20.981 2.47026 20.8058 2.37879C21.1615 2.37678 21.4826 2.37698 21.7385 2.37715L21.9195 2.37723C24.2306 2.37723 26.2791 2.9143 28.1128 3.97809C28.8032 4.37862 29.4396 4.83174 30.0227 5.33789H24.6359C23.6908 4.28829 22.5871 3.39692 21.3267 2.6657ZM25.4529 6.33789H31.0432C31.5884 6.94091 32.0746 7.60319 32.5023 8.32525C33.2575 9.60032 33.746 10.965 33.9708 12.4302H27.9495C27.715 10.6913 27.1526 9.06291 26.2541 7.54588C26.0051 7.12547 25.738 6.72278 25.4529 6.33789ZM28.0476 13.4302H34.0821C34.1038 13.737 34.1146 14.048 34.1146 14.3634V19.5371H28.0758V14.3484C28.0758 14.0391 28.0664 13.7331 28.0476 13.4302ZM28.0758 20.5371H34.1146V21.2615C34.1146 21.92 34.0586 22.5524 33.9597 23.1742L34.0681 23.1915L31.9897 26.6294H26.931C27.6894 24.9675 28.0758 23.1707 28.0758 21.2465V20.5371ZM26.4207 27.6294H31.3852L29.7233 30.3783C29.198 30.8149 28.6344 31.2133 28.0199 31.574L28.0198 31.574L28.0158 31.5764C26.1802 32.6693 24.1636 33.2177 21.9195 33.2177C21.5143 33.2177 21.1139 33.1991 20.719 33.1623C20.8957 33.0676 21.0708 32.9686 21.2444 32.8652C23.3027 31.6397 24.9583 30.0164 26.2022 28.001L26.2044 27.9974C26.2787 27.8755 26.3508 27.7529 26.4207 27.6294ZM60.4687 3.3404L60.4727 3.33281H66.2455L65.0365 5.33789H59.2642L60.4579 3.3583L60.4687 3.3404ZM24.4305 63.1055L20.5927 69.4701H26.3798C26.3835 69.4623 26.3874 69.4534 26.3915 69.4434L26.4134 69.3897L26.4433 69.3401L30.2028 63.1055H24.4305ZM25.0335 62.1055H30.8058L34.4794 56.0132H28.7072L25.0335 62.1055ZM29.3102 55.0132H35.0824L38.7561 48.9209H32.9838L29.3102 55.0132ZM33.5868 47.9209L37.2604 41.8286H43.0327L39.3591 47.9209H33.5868ZM37.8634 40.8286H43.6357L47.3181 34.7217H41.5459L37.8634 40.8286ZM42.1489 33.7217H47.9211L51.5948 27.6294H45.8225L42.1489 33.7217ZM46.4255 26.6294H52.1978L55.8714 20.5371H50.0991L46.4255 26.6294ZM50.7021 19.5371H56.4744L60.1568 13.4302H54.3846L50.7021 19.5371ZM54.9876 12.4302H60.7598L64.4335 6.33789H58.6612L54.9876 12.4302ZM47.78 3.41016L7.84264 69.4701H18.856L18.8623 69.456L18.8676 69.4434L18.8895 69.3897L18.9195 69.3401L58.7217 3.33281H47.8556C47.851 3.33691 47.8457 3.34166 47.84 3.34715C47.8231 3.36317 47.8032 3.38382 47.78 3.41016ZM10.2585 10.6613C11.3176 9.56745 12.6501 9.02954 14.1866 9.02954C15.726 9.02954 17.033 9.56989 18.0636 10.6704C19.078 11.7535 19.5802 13.0579 19.5802 14.5425V21.2465C19.5802 22.78 19.085 24.1164 18.0659 25.2058C17.0464 26.312 15.721 26.8491 14.1866 26.8491C12.6906 26.8491 11.3949 26.2825 10.3205 25.1749C9.23124 24.0676 8.68856 22.7458 8.68856 21.2465V14.5425C8.68856 13.0502 9.21129 11.7429 10.2585 10.6613ZM14.1866 10.5295C13.0355 10.5295 12.0985 10.9173 11.3361 11.7048C10.5617 12.5045 10.1886 13.4369 10.1886 14.5425V21.2465C10.1886 22.3442 10.5708 23.2912 11.3914 24.1246L11.3955 24.1288L11.3955 24.1288C12.202 24.9609 13.1154 25.3491 14.1866 25.3491C15.3387 25.3491 16.2522 24.9612 16.9644 24.1876L16.9688 24.1829L16.9688 24.1829C16.9857 24.1648 17.0025 24.1467 17.019 24.1284C16.484 23.2598 16.2124 22.3036 16.2124 21.2465V14.5425C16.2124 13.5128 16.4682 12.5576 16.9813 11.7092L16.9688 11.6957C16.2376 10.9149 15.3348 10.5295 14.1866 10.5295ZM18.0802 21.2465C18.0802 21.7056 18.0244 22.1314 17.9128 22.5269C17.7787 22.1254 17.7124 21.7012 17.7124 21.2465V14.5425C17.7124 14.0954 17.7757 13.6753 17.9019 13.2817C18.0212 13.6749 18.0802 14.0943 18.0802 14.5425V21.2465ZM53.3356 39.5852C51.1023 39.5852 49.0513 40.1208 47.1829 41.1885C45.3068 42.2606 43.817 43.7085 42.704 45.5399C41.596 47.378 41.0359 49.3786 41.0359 51.5713V58.4694C41.0359 60.5997 41.5945 62.5705 42.7037 64.3957C43.8178 66.2291 45.31 67.6941 47.1902 68.7967C49.0576 69.8919 51.106 70.4406 53.3356 70.4406C55.563 70.4406 57.5802 69.893 59.4321 68.7992C61.2851 67.6958 62.7645 66.2439 63.8796 64.4378C64.9705 62.6468 65.5308 60.6626 65.5308 58.4694V51.5713C65.5308 49.3549 64.9962 47.3529 63.9184 45.5332C62.8342 43.7028 61.3741 42.2566 59.5288 41.1861C57.6952 40.1223 55.6467 39.5852 53.3356 39.5852ZM49.3071 47.8799C50.3609 46.8089 51.6892 46.2524 53.2311 46.2524C54.7705 46.2524 56.0775 46.7928 57.1081 47.8933C58.1224 48.9764 58.6246 50.2808 58.6246 51.7654V58.4694C58.6246 60.003 58.1295 61.3394 57.1102 62.4289C56.0908 63.5349 54.7654 64.072 53.2311 64.072C51.7334 64.072 50.4232 63.4892 49.3648 62.3975C48.2757 61.2904 47.733 59.9687 47.733 58.4694V51.7654C47.733 50.2731 48.2558 48.9658 49.3029 47.8842L49.3071 47.8799ZM50.3785 48.9298C49.6055 49.7291 49.233 50.6608 49.233 51.7654V58.4694C49.233 59.5671 49.6153 60.5141 50.4359 61.3475L50.4402 61.3518C51.2328 62.1701 52.1615 62.572 53.2311 62.572C54.3832 62.572 55.2967 62.1841 56.0089 61.4105L56.0133 61.4058C56.0321 61.3857 56.0506 61.3655 56.069 61.3452C55.5304 60.4743 55.2569 59.5152 55.2569 58.4545V51.7505C55.2569 50.7193 55.5216 49.7759 56.0266 48.9329L56.0133 48.9186C55.282 48.1378 54.3792 47.7524 53.2311 47.7524C52.0864 47.7524 51.1459 48.1509 50.3785 48.9298ZM57.1246 58.4694C57.1246 58.9253 57.0696 59.3485 56.9596 59.7417C56.8239 59.3381 56.7569 58.9118 56.7569 58.4545V51.7505C56.7569 51.3106 56.821 50.8969 56.9471 50.5069C57.0659 50.8994 57.1246 51.318 57.1246 51.7654V58.4694Z" fill="url(#paint0_linear_1080_1810)"/>
<defs>
<linearGradient id="paint0_linear_1080_1810" x1="24" y1="77.5" x2="71" y2="-9.5" gradientUnits="userSpaceOnUse">
<stop offset="0.0525151" stop-color="#033B38"/>
<stop offset="1" stop-color="#FF6100"/>
</linearGradient>
</defs>
</svg>
