<svg width="668" height="561" viewBox="0 0 668 561" fill="none" xmlns="http://www.w3.org/2000/svg">
<path fill-rule="evenodd" clip-rule="evenodd" d="M179.702 103.088C171.31 123.348 166.99 145.063 166.99 166.993H333.982H500.975C500.975 145.063 496.656 123.348 488.263 103.088C479.87 82.8259 467.57 64.4171 452.064 48.9109C436.558 33.4042 418.147 21.1038 397.887 12.7116C377.627 4.31936 355.912 0 333.982 0C312.052 0 290.338 4.31936 270.077 12.7116C249.817 21.1036 231.408 33.4042 215.901 48.9109C200.395 64.4171 188.093 82.8259 179.702 103.088ZM25.423 355.12C8.63871 314.598 -3.83285e-06 271.169 0 227.309H333.983H667.966C667.966 271.169 659.327 314.598 642.544 355.12C625.759 395.64 601.158 432.458 570.144 463.47C539.131 494.485 502.314 519.085 461.792 535.87C421.272 552.653 377.841 561.292 333.983 561.292C290.123 561.292 246.694 552.653 206.173 535.87C165.652 519.085 128.834 494.485 97.8213 463.47C66.8081 432.458 42.2072 395.64 25.423 355.12Z" fill="url(#paint0_linear_1305_1220)"/>
<defs>
<linearGradient id="paint0_linear_1305_1220" x1="304" y1="-7.5" x2="309.5" y2="1765.5" gradientUnits="userSpaceOnUse">
<stop stop-color="#012A2B"/>
<stop offset="1" stop-color="#00F1B5"/>
</linearGradient>
</defs>
</svg>
