<svg width="773" height="754" viewBox="0 0 773 754" fill="none" xmlns="http://www.w3.org/2000/svg">
<path d="M483.836 753.936C485.073 714.996 474.369 680.804 443.974 658.336C438.837 654.54 432.16 649.619 425.545 644.744C309.367 559.13 220.694 493.784 204.228 384.268C191.998 302.924 322.663 170.604 400.742 99.669L399.963 98.9778C321.751 170.063 190.907 302.669 203.197 384.423C219.724 494.363 308.55 559.82 424.927 645.581C430.45 649.651 436.063 653.787 443.352 659.175C473.231 681.26 483.915 714.814 482.878 753.09L483.834 753.938L483.836 753.936Z" fill="url(#paint0_linear_811_136)"/>
<path d="M474.229 745.413C479.492 699.304 470.536 658.091 435.663 632.315C430.573 628.552 423.856 623.602 417.234 618.724C301.056 533.11 212.38 467.764 195.916 358.246C184.214 280.397 303.387 155.859 382.093 83.1217L381.316 82.4321C302.479 155.323 183.124 280.155 194.887 358.401C211.415 468.341 300.242 533.799 416.619 619.557C422.134 623.622 427.707 627.729 435.043 633.15C469.409 658.552 478.379 699.126 473.327 744.609L474.23 745.411L474.229 745.413Z" fill="url(#paint1_linear_811_136)"/>
<path d="M463.471 735.869C472.926 683.198 466.331 635.098 427.345 606.281C422.231 602.501 415.537 597.566 408.917 592.689C292.739 507.075 204.063 441.729 187.599 332.212C176.395 257.677 285.164 140.341 363.522 66.6451L362.749 65.9585C284.26 139.811 175.306 257.445 186.57 332.367C203.098 442.306 291.925 507.765 408.3 593.524C413.821 597.591 419.413 601.712 426.724 607.117C465.206 635.559 471.846 683.027 462.611 735.105L463.471 735.869Z" fill="url(#paint2_linear_811_136)"/>
<path d="M453.372 726.907C466.552 668.912 462.439 614.805 420.063 583.482C414.966 579.714 408.253 574.768 401.636 569.892C285.459 484.278 196.782 418.932 180.318 309.414C169.531 237.665 269.923 126.251 347.339 52.2851L346.567 51.6C269.019 125.728 168.443 237.44 179.287 309.569C195.814 419.509 284.642 484.968 401.018 570.728C406.539 574.795 412.115 578.905 419.442 584.321C461.314 615.27 465.493 668.738 452.538 726.166L453.372 726.907Z" fill="url(#paint3_linear_811_136)"/>
<path d="M443.107 717.798C459.9 654.985 458.531 595.039 413.006 561.391C407.878 557.6 401.191 552.673 394.577 547.8C278.4 462.185 189.723 396.839 173.259 287.322C162.868 218.189 255.691 112.235 331.728 38.4327L330.957 37.749C254.788 111.718 161.781 217.974 172.231 287.477C188.758 397.416 277.584 462.874 393.961 548.634C399.486 552.705 405.087 556.835 412.386 562.229C457.401 595.5 458.853 654.8 442.284 717.068L443.107 717.798Z" fill="url(#paint4_linear_811_136)"/>
<path d="M432.143 708.069C452.624 640.64 454.406 574.649 405.756 538.69C400.628 534.899 393.941 529.972 387.327 525.098C271.15 439.484 182.473 374.138 166.009 264.621C156.656 202.407 230.9 110.372 301.271 38.781L296.87 41.8117C227.464 113.029 155.738 203.292 164.98 264.776C181.508 374.715 270.335 440.174 386.71 525.933C392.236 530.004 397.837 534.134 405.134 539.526C453.267 575.105 451.588 640.444 431.33 707.348L432.143 708.069Z" fill="url(#paint5_linear_811_136)"/>
<path d="M421.468 698.598C445.387 627.105 450.43 555.324 398.902 517.237C393.798 513.464 387.09 508.523 380.473 503.646C264.296 418.032 175.619 352.686 159.155 243.168C152.635 199.79 186.764 141.906 231.875 86.5655L228.98 88.5592C184.769 143.32 151.664 200.353 158.124 243.323C174.651 353.263 263.479 418.722 379.854 504.481C385.376 508.549 390.958 512.665 398.277 518.074C449.285 555.777 444.359 626.895 420.659 697.884L421.467 698.6L421.468 698.598Z" fill="url(#paint6_linear_811_136)"/>
<path d="M409.597 688.064C437.165 612.495 446.061 534.347 391.479 494.002C386.351 490.211 379.664 485.284 373.05 480.411C256.873 394.796 168.196 329.451 151.732 219.933C147.426 191.279 160.863 156.29 183.481 119.889L181.488 121.26C159.446 157.197 146.438 191.712 150.705 220.089C167.233 330.029 256.06 395.488 372.435 481.247C377.961 485.318 383.563 489.445 390.859 494.84C444.91 534.793 436.151 612.27 408.798 687.355L409.597 688.064Z" fill="url(#paint7_linear_811_136)"/>
<defs>
<linearGradient id="paint0_linear_811_136" x1="401.945" y1="503.331" x2="328.57" y2="206.158" gradientUnits="userSpaceOnUse">
<stop stop-color="#7C29C8"/>
<stop offset="1" stop-color="#742DB6"/>
</linearGradient>
<linearGradient id="paint1_linear_811_136" x1="388.756" y1="491.627" x2="317.291" y2="189.543" gradientUnits="userSpaceOnUse">
<stop stop-color="#7C29C8"/>
<stop offset="1" stop-color="#742DB6"/>
</linearGradient>
<linearGradient id="paint2_linear_811_136" x1="374.93" y1="479.36" x2="305.154" y2="173.151" gradientUnits="userSpaceOnUse">
<stop stop-color="#7C29C8"/>
<stop offset="1" stop-color="#742DB6"/>
</linearGradient>
<linearGradient id="paint3_linear_811_136" x1="362.449" y1="468.285" x2="294.017" y2="158.927" gradientUnits="userSpaceOnUse">
<stop stop-color="#7C29C8"/>
<stop offset="1" stop-color="#742DB6"/>
</linearGradient>
<linearGradient id="paint4_linear_811_136" x1="350.091" y1="457.32" x2="282.862" y2="145.233" gradientUnits="userSpaceOnUse">
<stop stop-color="#7C29C8"/>
<stop offset="1" stop-color="#742DB6"/>
</linearGradient>
<linearGradient id="paint5_linear_811_136" x1="332.998" y1="450.543" x2="275.281" y2="140.011" gradientUnits="userSpaceOnUse">
<stop stop-color="#7C29C8"/>
<stop offset="1" stop-color="#742DB6"/>
</linearGradient>
<linearGradient id="paint6_linear_811_136" x1="304.264" y1="458.571" x2="283.78" y2="170.878" gradientUnits="userSpaceOnUse">
<stop stop-color="#7C29C8"/>
<stop offset="1" stop-color="#742DB6"/>
</linearGradient>
<linearGradient id="paint7_linear_811_136" x1="281.479" y1="461.727" x2="286.938" y2="201.474" gradientUnits="userSpaceOnUse">
<stop stop-color="#7C29C8"/>
<stop offset="1" stop-color="#742DB6"/>
</linearGradient>
</defs>
</svg>
