<svg width="191" height="173" viewBox="0 0 191 173" fill="none" xmlns="http://www.w3.org/2000/svg">
<path fill-rule="evenodd" clip-rule="evenodd" d="M197.327 -286.119L197.728 -286.016L368.568 -242.242L368.969 -242.139L369.18 -241.782L459.028 -90.029L459.239 -89.6726L459.136 -89.2714L415.362 81.5681L415.259 81.9693L414.902 82.1803L263.149 172.028L262.793 172.239L262.391 172.136L91.5519 128.362L91.1507 128.259L90.9396 127.903L1.09195 -23.8506L0.880919 -24.2071L0.983732 -24.6083L44.7581 -195.448L44.8609 -195.849L45.2173 -196.06L196.971 -285.908L197.327 -286.119ZM197.633 -283.976L46.5927 -194.55L3.02396 -24.5132L92.4496 126.527L262.486 170.096L413.527 80.6703L457.096 -89.3665L367.67 -240.407L197.633 -283.976ZM198.826 -275.628L199.227 -275.525L362.209 -233.764L362.611 -233.661L362.822 -233.304L448.537 -88.5309L448.748 -88.1744L448.645 -87.7732L406.884 75.2093L406.781 75.6106L406.425 75.8216L261.651 161.537L261.295 161.748L260.893 161.645L97.911 119.884L97.5097 119.781L97.2987 119.425L11.5835 -25.3488L11.3724 -25.7053L11.4753 -26.1065L53.2364 -189.089L53.3392 -189.49L53.6956 -189.701L198.469 -275.417L198.826 -275.628ZM199.132 -273.485L55.071 -188.191L13.5155 -26.0114L98.8086 118.049L260.989 159.605L405.049 74.3116L446.605 -87.8683L361.312 -231.929L199.132 -273.485ZM200.725 -265.034L200.324 -265.136L199.967 -264.925L62.1735 -183.343L61.8171 -183.132L61.7142 -182.73L21.9666 -27.606L21.8638 -27.2048L22.0748 -26.8484L103.657 110.947L103.868 111.303L104.27 111.406L259.394 151.154L259.795 151.256L260.151 151.045L397.947 69.4616L398.303 69.2506L398.406 68.8493L438.154 -86.2749L438.257 -86.6762L438.045 -87.0326L356.461 -224.827L356.25 -225.183L355.849 -225.286L200.725 -265.034ZM63.5488 -181.833L200.63 -262.993L354.952 -223.451L436.113 -86.3701L396.571 67.9517L259.489 149.113L105.167 109.571L24.0068 -27.5109L63.5488 -181.833ZM201.823 -254.646L202.225 -254.543L349.491 -216.809L349.892 -216.706L350.103 -216.35L427.555 -85.5328L427.766 -85.1764L427.663 -84.7751L389.929 62.4909L389.826 62.8922L389.47 63.1032L258.653 140.555L258.296 140.766L257.895 140.664L110.629 102.929L110.228 102.827L110.017 102.47L32.5646 -28.347L32.3535 -28.7034L32.4564 -29.1046L70.1905 -176.371L70.2933 -176.772L70.6497 -176.983L201.467 -254.435L201.823 -254.646ZM202.129 -252.503L72.0251 -175.473L34.4966 -29.0094L111.527 101.095L257.99 138.623L388.095 61.5933L425.623 -84.8703L348.593 -214.975L202.129 -252.503ZM203.723 -244.052L203.322 -244.155L202.965 -243.944L79.128 -170.624L78.7716 -170.413L78.6688 -170.012L42.9479 -30.6028L42.8451 -30.2016L43.0561 -29.8451L116.376 93.9923L116.587 94.3487L116.988 94.4515L256.397 130.172L256.798 130.275L257.155 130.064L380.992 56.7445L381.349 56.5335L381.452 56.1323L417.172 -83.2769L417.275 -83.6781L417.064 -84.0346L343.745 -207.872L343.534 -208.228L343.132 -208.331L203.723 -244.052ZM80.5034 -169.114L203.628 -242.012L342.235 -206.497L415.132 -83.372L379.617 55.2346L256.492 128.132L117.886 92.6169L44.9881 -30.5076L80.5034 -169.114ZM204.82 -233.664L205.221 -233.561L336.773 -199.853L337.175 -199.75L337.386 -199.394L406.573 -82.5363L406.784 -82.1799L406.681 -81.7787L372.973 49.7736L372.871 50.1748L372.514 50.3858L255.657 119.573L255.3 119.784L254.899 119.681L123.347 85.9735L122.945 85.8707L122.734 85.5143L53.5471 -31.3433L53.3361 -31.6998L53.4389 -32.101L87.1466 -163.653L87.2495 -164.054L87.6059 -164.266L204.464 -233.453L204.82 -233.664ZM205.126 -231.521L88.9812 -162.756L55.4791 -32.0058L124.244 84.1389L254.994 117.641L371.139 48.8759L404.641 -81.8738L335.876 -198.019L205.126 -231.521ZM206.719 -223.07L206.318 -223.173L205.962 -222.962L96.0837 -157.907L95.7273 -157.696L95.6245 -157.294L63.93 -33.5992L63.8271 -33.198L64.0382 -32.8416L129.093 77.0363L129.304 77.3927L129.705 77.4955L253.4 109.19L253.802 109.293L254.158 109.082L364.036 44.0271L364.392 43.8161L364.495 43.4149L396.19 -80.2804L396.293 -80.6817L396.082 -81.0381L331.027 -190.916L330.816 -191.272L330.415 -191.375L206.719 -223.07ZM97.4591 -156.397L206.624 -221.029L329.517 -189.541L394.15 -80.3756L362.661 42.5172L253.496 107.15L130.603 75.6609L65.9702 -33.5041L97.4591 -156.397ZM207.817 -212.683L208.218 -212.58L324.056 -182.898L324.458 -182.796L324.669 -182.439L385.592 -79.5396L385.803 -79.1831L385.7 -78.7819L356.019 37.0565L355.916 37.4577L355.56 37.6688L252.66 98.592L252.303 98.803L251.902 98.7002L136.064 69.0188L135.663 68.916L135.452 68.5596L74.5284 -34.3401L74.3174 -34.6965L74.4202 -35.0978L104.102 -150.936L104.204 -151.337L104.561 -151.548L207.46 -212.472L207.817 -212.683ZM208.123 -210.54L105.936 -150.038L76.4604 -35.0026L136.962 67.1842L251.997 96.6599L354.184 36.1588L383.66 -78.8771L323.159 -181.064L208.123 -210.54ZM209.716 -202.089L209.315 -202.192L208.959 -201.98L113.039 -145.19L112.682 -144.979L112.579 -144.577L84.9112 -36.596L84.8084 -36.1947L85.0194 -35.8383L141.81 60.0816L142.021 60.438L142.422 60.5408L250.404 88.209L250.805 88.3118L251.162 88.1008L347.081 31.3101L347.438 31.099L347.541 30.6978L375.209 -77.2837L375.312 -77.6849L375.101 -78.0414L318.31 -173.961L318.099 -174.318L317.698 -174.421L209.716 -202.089ZM114.414 -143.68L209.621 -200.048L316.8 -172.586L373.169 -77.3789L345.706 29.8001L250.499 86.1688L143.32 58.7062L86.9514 -36.5008L114.414 -143.68ZM210.813 -191.7L211.214 -191.597L311.339 -165.942L311.74 -165.84L311.951 -165.483L364.609 -76.5431L364.82 -76.1866L364.718 -75.7854L339.063 24.3391L338.96 24.7404L338.603 24.9514L249.663 77.6096L249.307 77.8207L248.906 77.7179L148.781 52.0629L148.38 51.9601L148.169 51.6036L95.5105 -37.3365L95.2994 -37.6929L95.4022 -38.0941L121.057 -138.219L121.16 -138.62L121.516 -138.831L210.457 -191.489L210.813 -191.7ZM211.119 -189.557L122.892 -137.321L97.4425 -37.999L149.679 50.2283L249.001 75.6776L337.228 23.4414L362.677 -75.8806L310.441 -164.108L211.119 -189.557ZM212.713 -181.106L212.312 -181.209L211.955 -180.998L129.995 -132.472L129.638 -132.261L129.536 -131.86L105.894 -39.5924L105.791 -39.1912L106.002 -38.8347L154.528 43.1256L154.739 43.482L155.14 43.5848L247.408 67.2267L247.809 67.3295L248.165 67.1184L330.126 18.5927L330.482 18.3816L330.585 17.9804L354.227 -74.2872L354.329 -74.6885L354.118 -75.0449L305.593 -157.005L305.382 -157.362L304.98 -157.464L212.713 -181.106ZM131.37 -130.962L212.618 -179.066L304.083 -155.63L352.186 -74.3824L328.75 17.0827L247.503 65.1864L156.038 41.7502L107.934 -39.4972L131.37 -130.962ZM213.81 -170.719L214.211 -170.616L298.622 -148.988L299.023 -148.885L299.234 -148.529L343.628 -73.5464L343.839 -73.1899L343.737 -72.7887L322.108 11.622L322.005 12.0233L321.649 12.2343L246.667 56.6285L246.31 56.8396L245.909 56.7368L161.498 35.1082L161.097 35.0053L160.886 34.6489L116.492 -40.3333L116.281 -40.6897L116.383 -41.091L138.012 -125.502L138.115 -125.903L138.471 -126.114L213.454 -170.508L213.81 -170.719ZM214.116 -168.576L139.847 -124.604L118.424 -40.9958L162.396 33.2736L246.004 54.6965L320.273 10.7243L341.696 -72.8839L297.724 -147.153L214.116 -168.576ZM215.709 -160.125L215.308 -160.228L214.952 -160.017L146.949 -119.755L146.593 -119.544L146.49 -119.143L126.875 -42.5892L126.772 -42.1879L126.983 -41.8315L167.245 26.1709L167.456 26.5273L167.857 26.6302L244.411 46.2456L244.812 46.3484L245.168 46.1374L313.171 5.87558L313.527 5.66455L313.63 5.26331L333.245 -71.2904L333.348 -71.6917L333.137 -72.0481L292.875 -140.051L292.664 -140.407L292.263 -140.51L215.709 -160.125ZM148.325 -118.245L215.614 -158.085L291.365 -138.675L331.205 -71.3856L311.795 4.36563L244.506 44.2054L168.754 24.7956L128.915 -42.494L148.325 -118.245ZM216.807 -149.737L217.208 -149.634L285.905 -132.032L286.306 -131.929L286.517 -131.573L322.646 -70.5499L322.857 -70.1935L322.754 -69.7923L305.152 -1.09543L305.049 -0.694183L304.693 -0.483154L243.67 35.6461L243.314 35.8572L242.913 35.7544L174.216 18.1521L173.815 18.0493L173.604 17.6929L137.474 -43.3297L137.263 -43.6862L137.366 -44.0874L154.968 -112.784L155.071 -113.186L155.428 -113.397L216.45 -149.526L216.807 -149.737ZM217.113 -147.594L156.803 -111.887L139.406 -43.9922L175.114 16.3175L243.008 33.7141L303.318 -1.99307L320.714 -69.8875L285.007 -130.197L217.113 -147.594ZM218.705 -139.143L218.304 -139.246L217.948 -139.035L163.905 -107.038L163.548 -106.827L163.446 -106.426L147.857 -45.5857L147.754 -45.1844L147.965 -44.828L179.962 9.21484L180.173 9.57129L180.574 9.6741L241.414 25.2632L241.815 25.366L242.172 25.1549L296.214 -6.84189L296.571 -7.05292L296.674 -7.45416L312.263 -68.2941L312.365 -68.6953L312.154 -69.0518L280.158 -123.095L279.947 -123.451L279.545 -123.554L218.705 -139.143ZM165.28 -105.528L218.61 -137.103L278.648 -121.719L310.222 -68.3893L294.839 -8.35184L241.509 23.2229L181.472 7.83951L149.897 -45.4905L165.28 -105.528ZM219.803 -128.754L220.204 -128.652L273.187 -115.076L273.588 -114.973L273.799 -114.617L301.664 -67.5535L301.875 -67.1971L301.772 -66.7958L288.196 -13.8128L288.093 -13.4116L287.737 -13.2005L240.674 14.6638L240.317 14.8748L239.916 14.772L186.933 1.19611L186.532 1.09329L186.321 0.736877L158.456 -46.3261L158.245 -46.6826L158.348 -47.0838L171.924 -100.067L172.027 -100.468L172.383 -100.679L219.446 -128.543L219.803 -128.754ZM220.109 -126.611L173.759 -99.1691L160.388 -46.9886L187.831 -0.638489L240.011 12.7318L286.361 -14.7105L299.732 -66.891L272.289 -113.241L220.109 -126.611ZM221.702 -118.162L221.301 -118.265L220.945 -118.054L180.86 -94.3208L180.503 -94.1098L180.401 -93.7085L168.838 -48.5824L168.735 -48.1812L168.946 -47.8248L192.679 -7.73987L192.89 -7.38345L193.291 -7.28064L238.417 4.28207L238.818 4.38489L239.175 4.17386L279.26 -19.559L279.616 -19.77L279.719 -20.1713L291.282 -65.2973L291.385 -65.6986L291.174 -66.055L267.441 -106.14L267.23 -106.496L266.828 -106.599L221.702 -118.162ZM182.235 -92.8108L221.607 -116.122L265.931 -104.765L289.242 -65.3925L277.884 -21.0689L238.512 2.24185L194.189 -9.11523L170.878 -48.4873L182.235 -92.8108Z" fill="url(#paint0_linear_785_217)"/>
<defs>
<linearGradient id="paint0_linear_785_217" x1="212" y1="-23" x2="90.5" y2="130.5" gradientUnits="userSpaceOnUse">
<stop stop-color="#003D2B" stop-opacity="0.21"/>
<stop offset="1" stop-color="#F3F3F3"/>
</linearGradient>
</defs>
</svg>
