<svg width="422" height="651" viewBox="0 0 422 651" fill="none" xmlns="http://www.w3.org/2000/svg">
<path fill-rule="evenodd" clip-rule="evenodd" d="M98.0963 393.712C111.227 401.731 121.363 413.512 128.941 426.782C136.136 439.637 141.014 453.645 144.28 467.979C147.826 483.558 149.617 500.085 151.42 516.724L151.42 516.724L151.42 516.724L151.42 516.725L151.42 516.725L151.42 516.725L151.42 516.726L151.42 516.726L151.42 516.726L151.42 516.727L151.42 516.727L151.42 516.727L151.42 516.728L151.42 516.728L151.42 516.728L151.42 516.729L151.42 516.729L151.42 516.729L151.42 516.73L151.42 516.73L151.42 516.73C155.827 557.393 160.306 598.728 190.642 628.566C208.042 645.679 231.708 653.088 255.744 649.011C278.529 645.147 299.764 632.274 314.394 614.476C331.388 593.803 339.252 566.821 340.88 540.456C342.585 512.794 337.154 486.022 330.1 459.443C329.511 457.223 328.914 455 328.316 452.772C322.117 429.674 315.798 406.131 316.643 382.068C317.143 367.83 320.536 354.074 326.443 341.118C332.501 327.832 340.615 315.622 348.843 303.606C349.414 302.773 349.986 301.939 350.558 301.105C366.377 278.032 382.391 254.676 386.223 226.278C387.13 219.56 387.54 212.79 387.95 206.021L387.95 206.021L387.95 206.02L387.95 206.02L387.95 206.02L387.95 206.02L387.95 206.019L387.95 206.019L387.95 206.019L387.95 206.019L387.95 206.018L387.95 206.018L387.95 206.018L387.95 206.018L387.95 206.017L387.95 206.017L387.95 206.017L387.95 206.017L387.95 206.016L387.95 206.016L387.95 206.016C388.454 197.695 388.958 189.376 390.383 181.154C392.987 166.138 398.891 150.315 411.745 141.117C416.073 138.02 419.197 134.949 420.705 129.666C422.142 124.636 421.871 119.092 420.199 114.154C415.96 101.625 403.03 94.5001 391.939 88.9462C371.983 78.9534 351.942 69.1284 331.901 59.3038L331.899 59.3029L331.898 59.3025L331.896 59.3014L331.894 59.3005L331.892 59.2996L331.89 59.2987L331.889 59.2979L331.887 59.297L331.885 59.2961L331.883 59.2952L331.881 59.2943L331.879 59.2934L331.878 59.2926L331.876 59.2917L331.874 59.2908L331.872 59.2899L331.87 59.289L331.87 59.2887L331.869 59.2883C322.036 54.4682 312.204 49.6481 302.382 44.8083C297.592 42.4482 292.805 40.0839 288.018 37.7196L288.009 37.7151C278.074 32.8087 268.139 27.9025 258.187 23.0338C247.108 17.6141 235.881 12.4307 224.237 8.33066C202.022 0.507347 177.199 -3.24541 155.082 6.96813C130.951 18.1107 115.317 41.8912 101.101 63.5136L101.099 63.5163L101.093 63.5249L101.08 63.5452L101.071 63.5594L101.058 63.5794L101.046 63.5972L101.042 63.603C100.406 64.5705 99.7727 65.5337 99.1415 66.4911C80.9084 94.1513 64.3022 122.885 49.4286 152.487C35.0096 181.186 21.7411 210.766 11.1603 241.112C2.08259 267.144 -3.93348 295.412 3.41744 322.639C6.56573 334.297 12.0713 345.43 20.2272 354.407C29.889 365.039 42.8448 371.327 56.0971 376.307C59.5172 377.593 62.9754 378.808 66.4369 380.025L66.4379 380.026L66.4399 380.026L66.4429 380.027L66.4459 380.028L66.4489 380.029L66.4519 380.031L66.4549 380.032L66.4579 380.033L66.4609 380.034C77.3304 383.855 88.2321 387.688 98.0963 393.712ZM129.601 426.345C129.606 426.353 129.611 426.361 129.615 426.369C145.102 454.036 148.432 484.77 151.768 515.546C154.608 541.761 157.453 568.008 167.816 592.418C178.06 616.548 196.071 638.992 222.103 646.579C245.097 653.282 270.1 647.391 290.008 634.842C338.171 604.484 346.456 542.131 336.631 490.363C334.305 478.106 331.076 466.06 327.846 454.014C324.402 441.168 320.958 428.321 318.611 415.22C316.451 403.165 315.222 390.876 316.022 378.627C316.848 365.955 320.008 353.69 325.141 342.085C331.993 326.593 341.574 312.695 351.158 298.793C357.72 289.276 364.282 279.757 369.971 269.724C377.148 257.064 382.698 243.589 385 229.161C386.238 221.401 386.716 213.566 387.194 205.731L387.194 205.73L387.194 205.73C387.617 198.785 388.041 191.84 388.993 184.946C390.848 171.528 394.907 157.681 403.925 147.251C405.888 144.98 408.077 142.879 410.474 141.067C410.954 140.704 411.432 140.355 411.905 140.01C414.213 138.326 416.384 136.741 417.935 134.151C421.105 128.865 421.505 122.134 419.994 116.258C416.377 102.186 401.788 94.7002 389.806 88.7686C380.073 83.9503 370.329 79.1558 360.584 74.3615C355.715 71.9659 350.846 69.5704 345.979 67.1719C336.364 62.4339 326.752 57.6899 317.139 52.9458L317.136 52.9442L317.132 52.9425L317.129 52.9408L317.126 52.9392L317.122 52.9375L317.119 52.9359L317.115 52.9342L317.112 52.9325L317.109 52.9309L317.105 52.9292L317.102 52.9275L317.098 52.9259L317.095 52.9242L317.092 52.9226L317.088 52.9209L317.085 52.9192L317.082 52.9176C297.584 43.2952 278.087 33.6726 258.566 24.0994C236.728 13.3903 213.384 2.63514 188.692 1.52965C176.377 0.97778 164.036 3.20799 153.015 8.84559C140.944 15.0202 131.045 24.6235 122.509 35.0146C113.052 46.5289 104.85 59.1082 96.7414 71.589C87.9232 85.1646 79.4939 98.9921 71.4684 113.051C55.5105 141.005 41.1386 169.864 28.4546 199.448L27.8841 200.779C16.1511 228.139 3.82649 256.879 1.28434 286.812C-0.876894 312.273 5.467 340.322 25.0056 358.077C36.9938 368.971 52.0138 374.242 67.0631 379.523C79.8044 383.994 92.5667 388.472 103.528 396.377C114.412 404.227 122.96 414.731 129.587 426.324C129.592 426.331 129.597 426.338 129.601 426.345ZM103.23 385.349C115.771 393.008 125.451 404.259 132.688 416.933C139.559 429.211 144.218 442.59 147.339 456.284C150.728 471.17 152.439 486.96 154.162 502.858L154.162 502.859C158.372 541.701 162.651 581.185 191.631 609.689C208.254 626.04 230.866 633.118 253.83 629.223C275.6 625.532 295.888 613.233 309.866 596.229C326.103 576.476 333.616 550.699 335.17 525.509C336.801 499.085 331.612 473.509 324.873 448.119C324.312 446.009 323.745 443.894 323.176 441.776L323.175 441.77L323.169 441.75C317.247 419.686 311.211 397.197 312.019 374.212C312.496 360.614 315.737 347.478 321.377 335.105C327.164 322.413 334.914 310.749 342.775 299.272C343.32 298.475 343.866 297.679 344.413 296.882L344.416 296.878C359.527 274.837 374.824 252.527 378.484 225.401C379.349 218.984 379.74 212.518 380.131 206.054L380.131 206.053L380.132 206.053C380.613 198.102 381.094 190.152 382.456 182.297C384.943 167.957 390.579 152.847 402.854 144.063C406.991 141.103 409.977 138.164 411.42 133.114C412.792 128.308 412.534 123.009 410.937 118.289C406.884 106.316 394.533 99.5071 383.933 94.199C364.856 84.6463 345.696 75.2534 326.537 65.8611L326.537 65.8609L326.537 65.8607L326.536 65.8606L326.536 65.8604L326.535 65.8602L326.535 65.86L326.535 65.8599L326.534 65.8597L326.534 65.8595L326.534 65.8593L326.533 65.8592L326.533 65.859L326.532 65.8588L326.532 65.8586L326.532 65.8585L326.531 65.8583L326.531 65.8581L326.531 65.8579L326.53 65.8578L326.528 65.8565L326.527 65.856L326.525 65.8554L326.524 65.8548L326.523 65.8543L326.522 65.8537L326.521 65.8532L326.52 65.8526L326.519 65.8521L326.518 65.8515L326.516 65.851L326.515 65.8504L326.514 65.8499L326.513 65.8493L326.512 65.8487L326.511 65.8482L326.51 65.8476L326.508 65.8471L326.507 65.8465L326.506 65.846L326.505 65.8454C317.128 61.2486 307.752 56.6519 298.385 52.0366C293.934 49.843 289.485 47.6458 285.036 45.4487L285.035 45.4481L285.027 45.4438L285.018 45.4394C275.408 40.6934 265.798 35.9476 256.17 31.2372C245.584 26.059 234.859 21.1075 223.735 17.1897C202.509 9.71445 178.795 6.13132 157.664 15.8902C134.611 26.5363 119.674 49.2545 106.093 69.9125C105.467 70.8649 104.843 71.8128 104.222 72.755C86.8059 99.1785 70.9436 126.623 56.7351 154.901C42.9608 182.316 30.2858 210.573 20.1784 239.562C11.5054 264.433 5.75828 291.438 12.7816 317.449C15.7886 328.588 21.0503 339.226 28.8428 347.802C38.0727 357.959 50.4499 363.966 63.1106 368.724C66.3818 369.953 69.6893 371.115 72.9998 372.279C83.3868 375.931 93.8042 379.592 103.23 385.349ZM133.391 416.57C148.161 442.987 151.34 472.327 154.524 501.708C157.238 526.749 159.954 551.821 169.854 575.138C179.636 598.182 196.838 619.617 221.697 626.863C243.657 633.264 267.536 627.638 286.548 615.653C332.547 586.659 340.46 527.105 331.077 477.662C328.856 465.959 325.772 454.457 322.688 442.954C319.397 430.679 316.106 418.403 313.864 405.883C311.801 394.367 310.626 382.627 311.39 370.926C312.18 358.817 315.2 347.1 320.103 336.01C326.648 321.213 335.799 307.938 344.953 294.659L344.954 294.659C351.222 285.567 357.491 276.473 362.925 266.888C369.781 254.798 375.082 241.926 377.281 228.145C378.464 220.732 378.92 213.247 379.377 205.763L379.377 205.762C379.781 199.128 380.186 192.495 381.096 185.91C382.868 173.091 386.746 159.861 395.364 149.895C397.241 147.725 399.333 145.717 401.622 143.985C402.081 143.639 402.537 143.305 402.989 142.976C405.19 141.369 407.261 139.857 408.743 137.386C411.768 132.342 412.15 125.916 410.709 120.307C407.255 106.871 393.323 99.7231 381.882 94.0585C372.501 89.4143 363.108 84.7925 353.715 80.1706L353.698 80.1624C349.137 77.9184 344.577 75.6744 340.018 73.4278C330.833 68.9018 321.651 64.3701 312.469 59.8385L312.449 59.8289C293.813 50.6315 275.178 41.4343 256.519 32.2849C235.662 22.056 213.365 11.7843 189.782 10.7281C178.022 10.2016 166.236 12.3292 155.712 17.713C144.182 23.6111 134.729 32.7822 126.576 42.7075C117.543 53.7041 109.709 65.7202 101.965 77.6405C93.5417 90.6076 85.4893 103.817 77.8233 117.246C62.5785 143.949 48.8508 171.515 36.7363 199.775L36.1885 201.052C24.9834 227.182 13.2128 254.631 10.7859 283.219C8.72178 307.536 14.7791 334.323 33.4394 351.28C44.8906 361.685 59.2376 366.72 73.6122 371.764C85.7825 376.034 97.9726 380.312 108.442 387.862C118.854 395.371 127.03 405.421 133.364 416.515C133.375 416.534 133.383 416.552 133.391 416.57ZM136.433 407.083C129.538 395.007 120.314 384.285 108.364 376.986C99.3807 371.5 89.4524 368.01 79.5532 364.53L79.5529 364.53L79.5502 364.529L79.5475 364.528L79.5449 364.528L79.5422 364.527L79.5395 364.526L79.5369 364.525L79.5342 364.524L79.5315 364.523L79.5289 364.522L79.5262 364.521L79.5235 364.52L79.5209 364.519L79.5182 364.518L79.5155 364.517L79.5129 364.516L79.5102 364.515L79.5075 364.514L79.5048 364.513L79.5022 364.512C76.3632 363.409 73.2271 362.307 70.1256 361.141C58.0578 356.607 46.2591 350.88 37.4606 341.197C30.0315 333.02 25.0151 322.879 22.1466 312.258C15.4522 287.463 20.929 261.72 29.1951 238.012C38.8297 210.381 50.9112 183.447 64.0408 157.316C77.5821 130.364 92.702 104.205 109.302 79.0202C109.894 78.1225 110.488 77.2193 111.084 76.3119C124.031 56.6197 138.27 34.9631 160.246 24.8131C180.392 15.5088 203 18.923 223.236 26.0481C233.839 29.7815 244.065 34.5026 254.154 39.4377C263.164 43.8449 272.157 48.2861 281.151 52.7272C285.563 54.9064 289.976 57.0856 294.391 59.2608C303.321 63.6609 312.26 68.0434 321.2 72.4259C339.468 81.3819 357.738 90.3384 375.929 99.4476C386.036 104.509 397.812 111.002 401.676 122.419C403.2 126.92 403.447 131.974 402.138 136.559C400.762 141.378 397.913 144.182 393.965 147.007C382.271 155.375 376.902 169.774 374.531 183.436C373.233 190.923 372.774 198.499 372.316 206.075L372.316 206.076C371.942 212.239 371.569 218.403 370.744 224.519C367.255 250.377 352.674 271.644 338.269 292.653L337.335 294.015L336.707 294.933C329.217 305.872 321.828 316.989 316.312 329.086C310.936 340.876 307.848 353.394 307.394 366.35C306.625 388.255 312.376 409.684 318.019 430.711C318.564 432.74 319.107 434.766 319.644 436.788C326.068 460.989 331.014 485.369 329.459 510.556C327.977 534.571 320.815 559.143 305.336 577.973C292.01 594.185 272.667 605.909 251.913 609.429C230.021 613.141 208.463 606.392 192.615 590.805C164.99 563.634 160.91 525.999 156.897 488.975C155.255 473.822 153.624 458.772 150.394 444.584C147.422 431.534 142.982 418.784 136.433 407.083ZM137.108 406.669C137.104 406.663 137.1 406.657 137.097 406.651C137.092 406.643 137.087 406.635 137.081 406.627C131.043 396.067 123.257 386.502 113.343 379.353C103.365 372.158 91.7475 368.081 80.1488 364.011C66.4478 359.204 52.7733 354.405 41.8595 344.488C24.077 328.327 18.3056 302.799 20.2734 279.629C22.5862 252.387 33.8028 226.23 44.4799 201.33L45.0052 200.105C56.5538 173.17 69.638 146.896 84.1675 121.445C91.4741 108.645 99.1489 96.0552 107.178 83.6952C114.557 72.3346 122.023 60.8825 130.631 50.4029C138.401 40.9435 147.411 32.2039 158.398 26.5823C168.427 21.4529 179.658 19.426 190.864 19.9278C213.339 20.9346 234.588 30.7242 254.464 40.4716C272.153 49.1464 289.819 57.8653 307.486 66.5841L307.502 66.5922L307.508 66.5953L307.522 66.602L307.525 66.6037C316.366 70.9666 325.206 75.3296 334.049 79.687C338.399 81.8301 342.749 83.9706 347.1 86.1111L347.102 86.1123L347.105 86.1135C356.057 90.5182 365.01 94.9228 373.952 99.3503C384.852 104.746 398.128 111.556 401.419 124.357C402.793 129.698 402.428 135.818 399.547 140.621C398.137 142.972 396.166 144.411 394.072 145.94L394.069 145.942C393.639 146.256 393.204 146.574 392.767 146.904C390.583 148.556 388.588 150.47 386.798 152.54C378.582 162.041 374.883 174.653 373.194 186.875C372.327 193.152 371.941 199.475 371.556 205.797L371.556 205.798C371.121 212.932 370.686 220.065 369.559 227.131C367.465 240.265 362.412 252.53 355.879 264.054C350.7 273.188 344.725 281.855 338.752 290.519C330.026 303.176 321.302 315.83 315.064 329.935C310.388 340.508 307.51 351.679 306.757 363.223C306.028 374.377 307.149 385.57 309.115 396.548C311.252 408.478 314.389 420.176 317.525 431.873L317.525 431.874L317.525 431.875L317.525 431.875L317.525 431.875L317.525 431.875L317.526 431.876L317.526 431.876L317.526 431.876L317.526 431.876L317.526 431.877L317.526 431.877L317.526 431.877L317.526 431.878L317.526 431.878L317.526 431.878L317.527 431.878L317.527 431.879L317.527 431.879L317.527 431.879C320.466 442.843 323.405 453.806 325.522 464.962C334.463 512.078 326.924 568.834 283.089 596.463C264.972 607.882 242.218 613.243 221.291 607.144C197.604 600.239 181.213 579.812 171.891 557.857C162.456 535.632 159.866 511.736 157.279 487.868C154.242 459.845 151.209 431.862 137.108 406.669ZM113.497 368.624C124.856 375.561 133.624 385.753 140.179 397.233C146.406 408.357 150.626 420.479 153.452 432.883C156.523 446.375 158.074 460.685 159.636 475.092C163.453 510.299 167.333 546.086 193.602 571.924C208.675 586.748 229.177 593.167 249.998 589.637C269.736 586.29 288.133 575.14 300.806 559.722C315.528 541.815 322.341 518.445 323.75 495.607C325.227 471.657 320.524 448.476 314.416 425.462C313.906 423.54 313.389 421.615 312.871 419.686C307.505 399.694 302.037 379.319 302.769 358.493C303.2 346.177 306.136 334.276 311.245 323.07C316.489 311.568 323.514 300.998 330.636 290.597C330.878 290.244 331.12 289.89 331.362 289.537L332.118 288.434C345.816 268.457 359.683 248.231 363.001 223.642C363.785 217.826 364.14 211.966 364.494 206.107L364.494 206.106L364.495 206.105C364.931 198.901 365.367 191.697 366.601 184.579C368.852 171.594 373.954 157.906 385.07 149.953C388.828 147.261 391.539 144.593 392.85 140.005C394.097 135.644 393.861 130.834 392.412 126.551C388.736 115.691 377.537 109.513 367.922 104.698C350.646 96.0482 333.295 87.5424 315.945 79.0368C307.425 74.8599 298.905 70.683 290.394 66.4892C286.146 64.3959 281.899 62.2988 277.652 60.2017L277.651 60.2011L277.65 60.2005L277.648 60.1999L277.647 60.1994L277.646 60.1988L277.645 60.1982L277.644 60.1976L277.643 60.1971L277.641 60.1965L277.64 60.1959L277.639 60.1953L277.638 60.1948L277.637 60.1942L277.635 60.1936L277.634 60.193L277.633 60.1925L277.632 60.1919L277.631 60.1913C269.137 55.9971 260.644 51.8031 252.135 47.6403C242.54 42.9454 232.816 38.4577 222.732 34.9064C203.487 28.1302 181.986 24.8848 162.826 33.7345C141.926 43.3873 128.386 63.9817 116.073 82.7096L116.07 82.7149C115.504 83.5752 114.941 84.4315 114.38 85.2827C98.5974 109.229 84.2221 134.102 71.3457 159.729C58.8601 184.577 47.3728 210.187 38.2116 236.462C30.351 259.007 25.1433 283.487 31.5101 307.066C34.2374 317.167 39.0085 326.813 46.0755 334.591C54.4427 343.799 65.6629 349.246 77.1391 353.558C80.107 354.673 83.108 355.728 86.1119 356.784L86.1127 356.785L86.1129 356.785L86.1131 356.785L86.1133 356.785L86.1136 356.785L86.1138 356.785L86.114 356.785L86.1142 356.786L86.1144 356.786L86.1146 356.786L86.1148 356.786L86.1151 356.786L86.1153 356.786L86.1155 356.786L86.1157 356.786L86.1159 356.787L86.1161 356.787L86.1164 356.787C95.5239 360.094 104.96 363.411 113.497 368.624ZM140.866 396.842C154.264 420.79 157.147 447.389 160.033 474.025C162.493 496.721 164.956 519.444 173.929 540.577C182.789 561.447 198.369 580.865 220.886 587.428C240.778 593.227 262.406 588.13 279.63 577.275C321.303 551.009 328.468 497.054 319.969 452.262C317.956 441.654 315.161 431.229 312.366 420.804C309.384 409.68 306.401 398.556 304.369 387.212C302.499 376.772 301.434 366.131 302.125 355.522C302.841 344.542 305.579 333.916 310.026 323.861C315.955 310.453 324.247 298.426 332.542 286.395L332.542 286.395L332.542 286.394L332.542 286.394L332.543 286.393L332.543 286.393L332.543 286.392L332.543 286.392L332.543 286.392L332.544 286.391L332.544 286.391L332.544 286.39L332.544 286.39L332.545 286.389L332.545 286.389L332.545 286.388L332.545 286.388L332.546 286.388L332.546 286.387C338.226 278.147 343.908 269.906 348.833 261.218C355.045 250.263 359.847 238.603 361.839 226.117C362.91 219.399 363.324 212.617 363.738 205.834C364.104 199.822 364.471 193.809 365.296 187.841C366.903 176.216 370.421 164.222 378.236 155.185C379.938 153.216 381.837 151.395 383.916 149.824C384.331 149.511 384.743 149.209 385.151 148.911L385.152 148.911C387.143 147.458 389.016 146.091 390.356 143.857C393.094 139.294 393.44 133.481 392.135 128.408C389.006 116.242 376.386 109.77 366.027 104.642C357.523 100.431 349.008 96.2419 340.493 92.0527L340.492 92.052L340.49 92.0514L340.489 92.0507L340.488 92.05L340.486 92.0494L340.485 92.0487L340.484 92.048L340.482 92.0474L340.481 92.0467L340.48 92.046L340.478 92.0454L340.477 92.0447L340.476 92.044L340.474 92.0434L340.473 92.0427L340.471 92.042L340.47 92.0414L340.469 92.0407C336.341 90.0098 332.213 87.979 328.086 85.9457C319.696 81.8115 311.308 77.6718 302.92 73.5321L302.908 73.5262L302.896 73.5203L302.87 73.5071L302.862 73.5035C286.053 65.2078 269.245 56.9121 252.416 48.6599C233.519 39.394 213.32 30.0852 191.955 29.1285C181.303 28.6513 170.628 30.5784 161.095 35.4533C150.649 40.7963 142.085 49.1059 134.699 58.0995C126.515 68.0635 119.417 78.9503 112.401 89.7503C104.767 101.502 97.4693 113.473 90.523 125.643C76.7088 149.842 64.2667 174.823 53.2868 200.435L52.7848 201.606C42.6347 225.277 31.9724 250.142 29.7727 276.04C27.902 298.067 33.3873 322.335 50.2908 337.695C60.6668 347.123 73.6677 351.685 86.694 356.256C97.722 360.125 108.768 364.001 118.255 370.842C127.697 377.651 135.11 386.763 140.855 396.822C140.859 396.829 140.862 396.835 140.866 396.842ZM143.925 387.383C137.71 376.501 129.4 366.838 118.631 360.261C110.531 355.315 101.578 352.168 92.6513 349.03C89.8062 348.03 86.9638 347.031 84.1524 345.975C73.2685 341.884 62.6262 336.718 54.691 327.986C47.9874 320.608 43.4601 311.458 40.8741 301.876C34.8363 279.513 39.7737 256.296 47.2295 234.913C55.9173 209.995 66.8111 185.706 78.652 162.142C90.8619 137.841 104.494 114.254 119.461 91.5465C119.994 90.7378 120.529 89.9241 121.066 89.1067C132.744 71.3448 145.586 51.8112 165.407 42.6566C183.581 34.263 203.974 37.3372 222.23 43.7654C231.795 47.1331 241.016 51.3903 250.117 55.8415C258.303 59.8454 266.474 63.8805 274.645 67.9156L274.646 67.9165C278.563 69.8506 282.479 71.7848 286.397 73.7154C294.461 77.6891 302.534 81.6466 310.607 85.6042C327.066 93.6728 343.526 101.742 359.915 109.949C369.038 114.518 379.661 120.379 383.148 130.684C384.525 134.748 384.747 139.313 383.565 143.453C382.321 147.809 379.746 150.344 376.177 152.898C365.64 160.437 360.806 173.412 358.673 185.721C357.502 192.47 357.089 199.299 356.675 206.13C356.338 211.688 356.002 217.247 355.257 222.764C352.112 246.082 338.962 265.262 325.973 284.207C325.503 284.892 325.034 285.576 324.565 286.261C317.81 296.125 311.149 306.148 306.177 317.055C301.333 327.679 298.551 338.96 298.14 350.635C297.447 370.383 302.631 389.702 307.718 408.659L307.718 408.659C308.209 410.488 308.699 412.313 309.183 414.136C314.975 435.96 319.436 457.945 318.034 480.658C316.698 502.322 310.235 524.487 296.273 541.473C284.251 556.098 266.801 566.672 248.078 569.846C228.329 573.193 208.882 567.104 194.584 553.043C169.67 528.539 165.991 494.603 162.371 461.215C160.89 447.552 159.418 433.981 156.506 421.186C153.83 409.424 149.829 397.93 143.925 387.383ZM144.6 386.97C144.593 386.957 144.585 386.945 144.577 386.933C139.13 377.404 132.103 368.775 123.158 362.324C114.163 355.84 103.69 352.165 93.2337 348.496C80.8808 344.162 68.5518 339.836 58.7132 330.895C42.6874 316.331 37.4894 293.324 39.2623 272.442C41.3473 247.892 51.4555 224.318 61.0776 201.878L61.0778 201.878L61.5571 200.76C71.9696 176.475 83.7675 152.784 96.8679 129.836C103.455 118.295 110.375 106.944 117.615 95.8C124.267 85.5592 130.997 75.2377 138.756 65.7907C145.759 57.2643 153.879 49.3863 163.783 44.3199C172.82 39.6973 182.939 37.8721 193.037 38.3246C213.292 39.2313 232.446 48.0573 250.361 56.843C266.49 64.7537 282.601 72.7046 298.711 80.6554L298.723 80.661L298.734 80.6665C306.528 84.513 314.322 88.3596 322.118 92.2015C326.205 94.2155 330.292 96.2268 334.38 98.2381L334.386 98.2412C342.293 102.132 350.199 106.022 358.096 109.931C367.915 114.791 379.879 120.923 382.843 132.455C384.079 137.263 383.751 142.768 381.159 147.091C379.891 149.206 378.117 150.5 376.233 151.875L376.232 151.876C375.844 152.158 375.453 152.444 375.059 152.742C373.088 154.233 371.285 155.961 369.669 157.83C362.258 166.403 358.918 177.78 357.394 188.806C356.612 194.467 356.264 200.17 355.916 205.873C355.524 212.303 355.132 218.734 354.116 225.103C352.228 236.942 347.674 247.997 341.785 258.384C337.115 266.62 331.728 274.435 326.342 282.248C318.475 293.66 310.61 305.069 304.985 317.786C300.766 327.324 298.169 337.403 297.49 347.819C296.834 357.881 297.845 367.974 299.619 377.876C301.546 388.63 304.373 399.176 307.201 409.722C309.852 419.611 312.503 429.499 314.413 439.561C322.47 482.026 315.678 533.182 276.169 558.084C259.841 568.375 239.337 573.207 220.479 567.71C199.134 561.489 184.364 543.08 175.965 523.297C167.593 503.575 165.322 482.17 163.078 461.029L163.078 461.029C162.834 458.723 162.589 456.421 162.338 454.124C159.798 430.954 156.141 407.588 144.6 386.97ZM123.765 351.898C133.943 358.115 141.798 367.248 147.671 377.533C153.251 387.504 157.034 398.369 159.568 409.485C162.322 421.584 163.714 434.415 165.114 447.333L165.115 447.334C168.538 478.903 172.018 510.99 195.576 534.16C209.096 547.459 227.489 553.218 246.168 550.053C263.876 547.053 280.38 537.053 291.749 523.221C304.955 507.157 311.066 486.197 312.33 465.708C313.655 444.232 309.438 423.444 303.96 402.809C303.504 401.09 303.042 399.368 302.578 397.642C297.767 379.718 292.864 361.451 293.52 342.778C293.906 331.743 296.536 321.081 301.115 311.04C305.816 300.729 312.114 291.253 318.5 281.927C318.943 281.28 319.386 280.634 319.829 279.987C332.111 262.073 344.546 243.937 347.521 221.888C348.224 216.672 348.542 211.417 348.86 206.162C349.252 199.703 349.643 193.245 350.749 186.864C352.766 175.234 357.333 162.971 367.289 155.846C370.669 153.427 373.106 151.026 374.284 146.903C375.402 142.985 375.191 138.665 373.889 134.818C370.588 125.07 360.543 119.525 351.912 115.202C336.437 107.453 320.894 99.8341 305.353 92.2152L305.343 92.2103C297.693 88.4603 290.044 84.7104 282.403 80.9452C278.65 79.0958 274.898 77.243 271.147 75.3903C263.47 71.5991 255.793 67.808 248.102 64.0455C239.496 59.8353 230.774 55.8107 221.73 52.6252C204.464 46.5458 185.178 43.6404 167.99 51.5794C149.245 60.2381 137.101 78.7095 126.057 95.5071L126.054 95.5122C125.548 96.2826 125.043 97.0495 124.541 97.8118C110.39 119.281 97.5019 141.582 85.9578 164.557C74.763 186.838 64.4626 209.804 56.2475 233.363C49.1959 253.583 44.5289 275.537 50.239 296.685C52.6873 305.748 56.9693 314.402 63.3095 321.38C70.8133 329.638 80.8758 334.522 91.1682 338.391C93.8296 339.391 96.5207 340.337 99.2143 341.284C107.649 344.25 116.11 347.224 123.765 351.898ZM148.362 377.149C159.263 396.64 162.717 418.723 165.119 440.622C165.357 442.798 165.589 444.979 165.821 447.163C167.942 467.145 170.089 487.376 178.003 506.017C185.94 524.714 199.901 542.114 220.072 547.994C237.899 553.189 257.276 548.622 272.709 538.895C310.054 515.358 316.475 467 308.857 426.862C307.052 417.35 304.546 408.001 302.04 398.653C299.367 388.682 296.693 378.711 294.871 368.541C293.193 359.177 292.238 349.632 292.858 340.118C293.5 330.266 295.956 320.735 299.947 311.711C305.264 299.687 312.701 288.9 320.14 278.11C325.232 270.724 330.325 263.336 334.74 255.55C340.308 245.731 344.612 235.281 346.398 224.089C347.358 218.067 347.729 211.987 348.1 205.907C348.429 200.516 348.757 195.125 349.497 189.773C350.94 179.343 354.098 168.583 361.108 160.476C362.637 158.708 364.342 157.072 366.209 155.661C366.579 155.381 366.948 155.112 367.313 154.846C369.094 153.547 370.77 152.325 371.968 150.327C374.417 146.245 374.726 141.046 373.559 136.507C370.758 125.61 359.449 119.817 350.173 115.223C342.709 111.528 335.235 107.851 327.761 104.174L327.758 104.172C323.89 102.269 320.023 100.366 316.157 98.4609C308.783 94.8271 301.411 91.1889 294.039 87.5507C278.803 80.0314 263.567 72.512 248.312 65.0312C231.377 56.7271 213.273 48.3818 194.126 47.5245C184.584 47.0974 175.018 48.8212 166.479 53.1901C157.116 57.98 149.442 65.4259 142.821 73.4857C135.486 82.4157 129.124 92.1731 122.836 101.853C115.991 112.389 109.448 123.122 103.22 134.034C90.8341 155.731 79.679 178.128 69.8352 201.089L69.3907 202.126C60.2907 223.345 50.7308 245.636 48.7588 268.851C47.0817 288.588 51.9944 310.335 67.1432 324.101C76.4441 332.552 88.0995 336.642 99.7776 340.74L99.7781 340.74C109.663 344.208 119.565 347.682 128.068 353.812C136.54 359.921 143.192 368.095 148.347 377.121C148.352 377.13 148.357 377.139 148.362 377.149ZM151.416 367.683C145.883 357.995 138.485 349.39 128.898 343.536C121.688 339.132 113.718 336.33 105.771 333.536L105.771 333.536L105.771 333.536L105.77 333.536L105.77 333.536L105.77 333.536L105.769 333.536L105.769 333.536L105.769 333.536L105.769 333.536L105.768 333.536C103.228 332.643 100.691 331.751 98.1814 330.807C88.4806 327.162 78.9967 322.557 71.9242 314.773C65.9475 308.195 61.9086 300.038 59.6023 291.493C54.2211 271.562 58.6177 250.87 65.2625 231.812C73.0041 209.609 82.7102 187.967 93.2611 166.969C104.139 145.319 116.285 124.305 129.618 104.076C130.091 103.357 130.566 102.635 131.043 101.909L131.046 101.905C141.455 86.0733 152.901 68.6635 170.569 60.5023C186.771 53.0179 204.949 55.7536 221.225 61.485C229.749 64.4861 237.97 68.2809 246.081 72.2488C253.451 75.8546 260.808 79.4878 268.165 83.121L268.169 83.1228C271.58 84.8073 274.991 86.4918 278.403 88.1735C285.601 91.7206 292.807 95.2533 300.013 98.7861L300.017 98.788C314.666 105.969 329.315 113.151 343.902 120.455C352.041 124.531 361.51 129.76 364.622 138.952C365.85 142.58 366.049 146.657 364.993 150.351C363.882 154.243 361.581 156.511 358.391 158.793C349.015 165.504 344.716 177.053 342.816 188.007C341.773 194.02 341.405 200.106 341.036 206.192L341.036 206.192C340.736 211.144 340.437 216.096 339.774 221.01C336.969 241.796 325.244 258.895 313.665 275.782C313.251 276.385 312.838 276.988 312.425 277.591C306.408 286.379 300.472 295.308 296.042 305.025C291.73 314.483 289.253 324.526 288.887 334.92C288.269 352.509 292.887 369.715 297.419 386.599L297.42 386.606C297.857 388.234 298.294 389.859 298.724 391.481C303.886 410.929 307.861 430.52 306.611 450.758C305.419 470.07 299.659 489.827 287.212 504.971C276.495 518.01 260.936 527.436 244.244 530.262C226.637 533.244 209.3 527.816 196.554 515.28C174.35 493.441 171.071 463.202 167.844 433.449C166.524 421.277 165.213 409.187 162.618 397.786C160.238 387.313 156.674 377.077 151.416 367.683ZM167.9 427.12C165.638 406.485 162.382 385.676 152.113 367.309C152.11 367.303 152.107 367.296 152.103 367.289C152.1 367.283 152.097 367.277 152.093 367.271C147.235 358.764 140.965 351.055 132.976 345.3C124.965 339.528 115.639 336.256 106.328 332.988C95.3215 329.126 84.3367 325.272 75.5716 317.306C61.3019 304.337 56.6758 283.853 58.2559 265.259C60.1146 243.39 69.1203 222.39 77.6922 202.402L78.1146 201.417C87.391 179.779 97.9011 158.673 109.573 138.229C115.442 127.948 121.608 117.834 128.057 107.906C133.981 98.7858 139.976 89.5924 146.885 81.1794C153.122 73.5847 160.353 66.5689 169.174 62.0568C177.217 57.9424 186.227 56.3206 195.215 56.723C213.254 57.531 230.311 65.3929 246.265 73.2168C260.568 80.2306 274.852 87.2805 289.136 94.3305L289.141 94.333L289.143 94.3338L289.148 94.3362L289.15 94.337L289.169 94.3468L289.189 94.3565L289.209 94.3663C296.203 97.8183 303.198 101.27 310.195 104.718C313.591 106.391 316.988 108.062 320.384 109.734L320.393 109.738L320.395 109.739L320.396 109.74L320.398 109.74L320.4 109.741L320.401 109.742L320.403 109.743L320.404 109.743L320.406 109.744L320.407 109.745L320.409 109.746L320.411 109.747L320.412 109.747L320.414 109.748L320.415 109.749C327.696 113.331 334.977 116.913 342.249 120.513C350.985 124.838 361.637 130.293 364.275 140.555C365.372 144.825 365.081 149.719 362.776 153.559C361.65 155.437 360.074 156.587 358.4 157.808L358.399 157.809C358.055 158.06 357.707 158.313 357.358 158.577C355.597 159.906 353.988 161.448 352.547 163.116C345.937 170.76 342.957 180.903 341.599 190.735C340.902 195.779 340.592 200.86 340.282 205.941C339.933 211.67 339.583 217.398 338.679 223.072C336.997 233.616 332.941 243.46 327.696 252.712C323.536 260.05 318.736 267.011 313.937 273.972L313.937 273.972L313.937 273.972L313.937 273.973L313.937 273.973L313.937 273.973L313.937 273.973L313.936 273.973L313.936 273.974L313.936 273.974L313.936 273.974L313.936 273.974L313.936 273.975L313.936 273.975L313.936 273.975L313.935 273.975L313.935 273.975C306.927 284.141 299.92 294.304 294.91 305.633C291.148 314.138 288.834 323.125 288.228 332.413C287.643 341.38 288.544 350.377 290.126 359.202C291.842 368.788 294.362 378.187 296.882 387.586L296.882 387.586L296.882 387.587L296.882 387.587L296.882 387.587L296.882 387.588L296.882 387.588L296.883 387.589L296.883 387.589L296.883 387.589L296.883 387.59L296.883 387.59L296.883 387.591L296.883 387.591L296.883 387.591L296.883 387.592C299.244 396.396 301.604 405.201 303.304 414.159C310.481 451.972 304.433 497.529 269.252 519.705C254.712 528.868 236.459 533.17 219.667 528.275C200.669 522.738 187.517 506.347 180.042 488.737C172.581 471.167 170.558 452.099 168.56 433.265C168.342 431.213 168.125 429.164 167.9 427.12ZM134.032 335.173C143.03 340.667 149.971 348.742 155.163 357.834C160.098 366.65 163.442 376.258 165.678 386.094C168.115 396.798 169.346 408.149 170.585 419.577C173.615 447.51 176.695 475.899 197.543 496.404C209.512 508.177 225.795 513.276 242.33 510.476C258.005 507.822 272.619 498.971 282.684 486.726C294.374 472.504 299.783 453.952 300.902 435.814C302.075 416.813 298.342 398.419 293.495 380.161C293.091 378.639 292.682 377.114 292.272 375.587C288.017 359.735 283.681 343.581 284.262 327.067C284.603 317.313 286.93 307.888 290.975 299.015C295.134 289.891 300.705 281.508 306.354 273.258C306.729 272.711 307.105 272.163 307.481 271.614L307.486 271.606L307.492 271.599L307.497 271.59L307.503 271.582L307.52 271.557C318.392 255.702 329.399 239.649 332.031 220.134C332.654 215.52 332.935 210.87 333.217 206.221L333.217 206.221C333.563 200.508 333.909 194.796 334.888 189.153C336.67 178.877 340.702 168.037 349.499 161.741C352.499 159.595 354.663 157.462 355.707 153.801C356.699 150.33 356.511 146.496 355.357 143.088C352.434 134.451 343.542 129.537 335.894 125.707C322.195 118.846 308.436 112.101 294.679 105.357C287.918 102.043 281.158 98.7288 274.405 95.4011C271.146 93.7951 267.889 92.1863 264.631 90.5775L264.63 90.5771C257.779 87.1933 250.927 83.8094 244.062 80.4514C236.445 76.7251 228.726 73.1636 220.721 70.3447C205.435 64.9621 188.362 62.3959 173.148 69.425C156.558 77.0897 145.81 93.4371 136.036 108.304C135.588 108.986 135.141 109.665 134.697 110.34C122.18 129.332 110.778 149.058 100.566 169.383C90.6602 189.096 81.5481 209.418 74.2793 230.262C68.04 248.157 63.9125 267.585 68.966 286.301C71.1339 294.328 74.9261 301.988 80.5407 308.167C87.1813 315.475 96.0866 319.799 105.196 323.223C107.551 324.108 109.933 324.945 112.317 325.783C119.778 328.406 127.261 331.037 134.032 335.173ZM155.815 357.383C155.823 357.395 155.83 357.407 155.838 357.421C165.497 374.676 168.557 394.228 170.683 413.618C170.893 415.532 171.096 417.451 171.3 419.372L171.302 419.387L171.303 419.401C173.179 437.075 175.078 454.968 182.078 471.456C189.094 487.979 201.434 503.361 219.26 508.558C235.018 513.151 252.147 509.114 265.791 500.515C298.808 479.704 304.482 436.945 297.747 401.459C296.151 393.046 293.935 384.778 291.718 376.51L291.718 376.509L291.718 376.509L291.718 376.509L291.718 376.508L291.718 376.508L291.717 376.508L291.717 376.508L291.717 376.507L291.717 376.507L291.717 376.507L291.717 376.507L291.717 376.506L291.717 376.506L291.717 376.506L291.716 376.505L291.716 376.504L291.716 376.503L291.716 376.503L291.716 376.502L291.716 376.501L291.715 376.5L291.715 376.499L291.715 376.499L291.715 376.498L291.715 376.497L291.714 376.496L291.714 376.495L291.714 376.495C289.35 367.677 286.986 358.859 285.375 349.867C283.89 341.58 283.042 333.133 283.592 324.712C284.162 315.988 286.334 307.549 289.868 299.56C294.572 288.924 301.151 279.381 307.732 269.836L307.732 269.835L307.732 269.835C312.237 263.301 316.742 256.766 320.648 249.878C325.571 241.196 329.376 231.956 330.954 222.059C331.804 216.732 332.132 211.354 332.46 205.975C332.751 201.206 333.042 196.436 333.697 191.702C334.973 182.467 337.772 172.942 343.98 165.762C345.336 164.194 346.85 162.752 348.501 161.496C348.843 161.237 349.184 160.987 349.52 160.741C351.072 159.608 352.532 158.541 353.579 156.795C355.738 153.195 356.013 148.607 354.983 144.603C352.509 134.977 342.512 129.86 334.317 125.802C327.639 122.496 320.954 119.207 314.269 115.918L314.261 115.914L314.253 115.91C310.91 114.265 307.567 112.62 304.225 110.973C297.641 107.729 291.059 104.48 284.477 101.232C271.06 94.6103 257.642 87.9884 244.208 81.4005C229.235 74.0582 213.226 66.6771 196.297 65.9191C187.864 65.5414 179.41 67.0634 171.862 70.9233C163.583 75.1589 156.797 81.7439 150.943 88.8706C144.456 96.7673 138.831 105.396 133.271 113.955C127.216 123.277 121.429 132.77 115.918 142.423C104.962 161.615 95.0936 181.429 86.3852 201.741L85.9854 202.673C77.9415 221.431 69.4898 241.139 67.745 261.662C66.2627 279.111 70.6007 298.337 83.9942 310.506C92.2217 317.983 102.533 321.602 112.865 325.227C121.605 328.295 130.36 331.367 137.879 336.784C145.37 342.18 151.254 349.408 155.815 357.383ZM158.909 347.984C154.058 339.49 147.572 331.944 139.166 326.81C132.838 322.945 125.843 320.486 118.87 318.035C116.641 317.251 114.413 316.468 112.211 315.64C103.695 312.439 95.3676 308.396 89.1584 301.562C83.9071 295.783 80.3588 288.618 78.3322 281.111C73.6076 263.611 77.4648 245.445 83.2993 228.712C90.0947 209.224 98.614 190.227 107.874 171.796C117.42 152.797 128.078 134.357 139.779 116.603C140.018 116.242 140.256 115.88 140.495 115.516L141.031 114.702C150.17 100.8 160.22 85.5145 175.734 78.3459C189.962 71.7714 205.928 74.1687 220.224 79.2025C227.709 81.8378 234.927 85.1682 242.048 88.6528C248.415 91.7676 254.77 94.9064 261.126 98.0452L261.13 98.0475L261.132 98.0484L261.134 98.0493L261.136 98.0502C264.228 99.5771 267.319 101.104 270.413 102.628C276.738 105.745 283.07 108.849 289.402 111.953L289.406 111.955L289.41 111.957L289.414 111.959L289.418 111.961L289.421 111.963L289.425 111.965L289.429 111.967L289.43 111.967L289.43 111.967L289.431 111.968L289.431 111.968L289.431 111.968L289.432 111.968L289.432 111.968L289.433 111.969L289.433 111.969L289.433 111.969L289.434 111.969L289.434 111.969L289.435 111.97C302.272 118.263 315.109 124.556 327.891 130.956C335.047 134.539 343.364 139.138 346.098 147.219C347.179 150.41 347.353 153.998 346.425 157.247C345.445 160.676 343.42 162.675 340.61 164.685C332.393 170.567 328.628 180.694 326.962 190.292C326.047 195.569 325.724 200.909 325.401 206.25L325.401 206.25C325.138 210.596 324.874 214.941 324.293 219.254C321.831 237.5 311.54 252.509 301.375 267.333L301.347 267.374C300.994 267.89 300.641 268.405 300.288 268.92C295.007 276.631 289.799 284.469 285.912 292.995C282.131 301.286 279.958 310.093 279.639 319.205C279.097 334.637 283.148 349.734 287.124 364.548L287.126 364.553L287.127 364.559C287.51 365.985 287.892 367.409 288.269 368.831C292.8 385.899 296.29 403.097 295.194 420.862C294.147 437.825 289.088 455.172 278.156 468.472C268.743 479.924 255.075 488.2 240.416 490.681C224.953 493.299 209.725 488.531 198.53 477.521C179.036 458.347 176.157 431.807 173.323 405.692L173.323 405.692C172.164 395.009 171.013 384.398 168.736 374.392C166.646 365.203 163.52 356.224 158.909 347.984ZM173.464 400.116C171.476 381.993 168.617 363.718 159.594 347.589C159.59 347.582 159.586 347.575 159.582 347.568C155.315 340.095 149.804 333.324 142.787 328.269C135.759 323.207 127.576 320.335 119.407 317.468C109.75 314.079 100.112 310.697 92.422 303.71C79.909 292.338 75.8563 274.373 77.2415 258.068C78.8724 238.89 86.7699 220.474 94.2869 202.945L94.6632 202.068C102.804 183.079 112.029 164.558 122.27 146.617C127.421 137.593 132.832 128.718 138.491 120.005C143.687 112.005 148.944 103.941 155.006 96.5614C160.477 89.9005 166.818 83.7477 174.556 79.7893C181.607 76.1817 189.505 74.7618 197.385 75.1148C213.206 75.8235 228.167 82.721 242.159 89.5832C254.637 95.7025 267.1 101.854 279.563 108.005C285.795 111.08 292.027 114.156 298.261 117.228C301.376 118.763 304.493 120.296 307.609 121.83L307.64 121.845L307.647 121.848C313.898 124.924 320.148 127.999 326.39 131.089C334.046 134.879 343.385 139.657 345.697 148.648C346.657 152.384 346.402 156.665 344.386 160.025C343.409 161.653 342.046 162.649 340.598 163.706C340.284 163.936 339.967 164.168 339.648 164.41C338.101 165.585 336.685 166.934 335.416 168.402C329.609 175.116 326.99 184.025 325.796 192.661C325.185 197.085 324.914 201.54 324.642 205.996L324.642 205.996C324.335 211.027 324.029 216.057 323.234 221.039C321.758 230.289 318.201 238.923 313.601 247.039C309.949 253.479 305.737 259.588 301.526 265.697L301.526 265.698C295.375 274.619 289.226 283.538 284.829 293.48C281.524 300.955 279.491 308.846 278.959 317.007C278.445 324.881 279.238 332.78 280.627 340.528C282.133 348.941 284.345 357.189 286.556 365.438C288.628 373.166 290.7 380.893 292.192 388.757C298.485 421.919 293.183 461.878 262.33 481.324C249.581 489.359 233.577 493.133 218.853 488.84C202.198 483.987 190.669 469.613 184.115 454.176C177.57 438.758 175.795 422.026 174.041 405.499C173.85 403.702 173.66 401.907 173.464 400.116ZM144.3 318.447C152.115 323.22 158.144 330.236 162.654 338.134C166.944 345.797 169.85 354.148 171.797 362.693C173.916 372.003 174.988 381.875 176.066 391.813L176.066 391.813C178.703 416.109 181.383 440.799 199.52 458.638C209.938 468.885 224.111 473.324 238.503 470.888C252.147 468.579 264.868 460.876 273.63 450.219C283.804 437.84 288.511 421.698 289.486 405.91C290.505 389.384 287.258 373.383 283.043 357.502C282.691 356.175 282.334 354.844 281.976 353.512C278.279 339.736 274.512 325.698 275.016 311.346C275.313 302.875 277.333 294.687 280.847 286.979C284.464 279.047 289.309 271.757 294.221 264.583L294.734 263.835L295.229 263.111L295.23 263.111C304.687 249.318 314.263 235.352 316.554 218.375C317.096 214.362 317.341 210.318 317.585 206.275L317.585 206.275C317.886 201.308 318.187 196.342 319.038 191.434C320.585 182.511 324.083 173.098 331.72 167.631C334.341 165.756 336.229 163.891 337.142 160.694C338.007 157.666 337.843 154.322 336.837 151.351C334.29 143.826 326.553 139.544 319.888 136.207C307.99 130.249 296.04 124.391 284.091 118.533C278.198 115.644 272.305 112.755 266.419 109.854C263.542 108.437 260.666 107.017 257.79 105.596L257.787 105.595L257.784 105.594L257.782 105.592L257.779 105.591L257.776 105.589L257.773 105.588L257.77 105.587L257.767 105.585L257.764 105.584L257.761 105.582L257.758 105.581L257.755 105.579C251.852 102.664 245.948 99.7485 240.033 96.8554C233.405 93.6137 226.689 90.5153 219.723 88.0621C206.417 83.3765 191.559 81.1488 178.316 87.2687C163.88 93.9385 154.528 108.164 146.023 121.099L146.015 121.112L146.003 121.13L145.976 121.172L145.972 121.177C145.6 121.743 145.23 122.307 144.86 122.867C133.975 139.382 124.061 156.536 115.181 174.21C106.564 191.358 98.6393 209.031 92.3174 227.163C86.8883 242.733 83.3016 259.636 87.6972 275.92C89.5825 282.908 92.887 289.577 97.7748 294.956C103.551 301.315 111.3 305.078 119.224 308.057C121.275 308.827 123.348 309.556 125.424 310.286C131.91 312.566 138.414 314.852 144.3 318.447ZM163.308 337.687C163.311 337.692 163.314 337.696 163.317 337.701L163.323 337.711L163.329 337.72C171.732 352.733 174.395 369.744 176.246 386.614C176.428 388.277 176.605 389.944 176.782 391.614L176.783 391.617L176.783 391.62L176.783 391.624L176.784 391.627L176.784 391.63L176.784 391.633L176.784 391.633C178.415 407.001 180.066 422.559 186.153 436.896C192.245 451.247 202.965 464.611 218.447 469.124C232.137 473.114 247.017 469.606 258.87 462.135C287.559 444.053 292.488 406.892 286.637 376.057C285.249 368.74 283.321 361.549 281.393 354.357L281.393 354.357L281.393 354.357L281.392 354.357L281.392 354.356L281.392 354.356L281.392 354.356L281.392 354.356L281.392 354.355L281.392 354.355L281.392 354.355L281.392 354.354L281.392 354.354L281.391 354.354C279.335 346.684 277.279 339.015 275.878 331.194C274.585 323.984 273.847 316.633 274.324 309.307C274.82 301.71 276.712 294.365 279.789 287.409C283.88 278.159 289.6 269.861 295.322 261.561C299.239 255.879 303.157 250.196 306.554 244.206C310.833 236.659 314.141 228.63 315.512 220.027C316.25 215.399 316.535 210.726 316.82 206.052L316.82 206.052L316.82 206.051L316.82 206.051L316.82 206.05L316.82 206.05L316.82 206.05L316.82 206.049L316.82 206.049L316.82 206.048L316.82 206.048L316.82 206.048L316.821 206.047C317.074 201.898 317.327 197.748 317.897 193.629C319.007 185.589 321.448 177.299 326.852 171.049C328.035 169.682 329.354 168.425 330.793 167.33C331.091 167.104 331.387 166.888 331.68 166.674C333.022 165.693 334.286 164.77 335.19 163.262C337.063 160.143 337.299 156.169 336.407 152.7C334.259 144.343 325.575 139.904 318.462 136.382C312.652 133.505 306.836 130.644 301.02 127.783C298.112 126.352 295.203 124.921 292.295 123.488C286.493 120.629 280.692 117.766 274.89 114.903L274.885 114.9C263.297 109.182 251.709 103.463 240.106 97.7726C227.095 91.3927 213.18 84.9758 198.469 84.3173C191.145 83.9896 183.801 85.3083 177.245 88.6614C170.049 92.3419 164.153 98.0653 159.065 104.26C153.428 111.123 148.538 118.623 143.706 126.063C138.441 134.169 133.408 142.424 128.617 150.817C119.089 167.507 110.508 184.736 102.937 202.399L102.583 203.224L102.583 203.224C95.5941 219.523 88.2508 236.647 86.7339 254.479C85.4443 269.639 89.2119 286.343 100.848 296.917C108 303.416 116.964 306.562 125.947 309.714C133.546 312.38 141.157 315.051 147.694 319.76C154.216 324.456 159.338 330.744 163.308 337.687ZM166.401 328.285C162.232 320.984 156.659 314.497 149.434 310.084C143.989 306.759 137.972 304.643 131.973 302.534C130.053 301.859 128.135 301.185 126.238 300.472C118.906 297.716 111.736 294.233 106.39 288.349C101.865 283.37 98.8061 277.197 97.0584 270.728C92.9897 255.662 96.3083 240.02 101.332 225.613C107.181 208.84 114.513 192.488 122.483 176.625C130.697 160.276 139.868 144.408 149.937 129.132C150.292 128.593 150.649 128.05 151.007 127.505C158.879 115.533 167.534 102.367 180.895 96.1928C193.152 90.5276 206.903 92.5863 219.218 96.9232C225.665 99.1928 231.88 102.06 238.011 105.06C243.44 107.716 248.859 110.392 254.278 113.068L254.282 113.07L254.302 113.08L254.322 113.089C257.021 114.422 259.72 115.755 262.419 117.085C267.862 119.767 273.31 122.438 278.758 125.109C289.814 130.529 300.87 135.949 311.879 141.462C318.051 144.552 325.213 148.518 327.572 155.488C328.504 158.242 328.656 161.34 327.854 164.145C327.006 167.11 325.255 168.84 322.825 170.58C315.766 175.632 312.536 184.335 311.107 192.58C310.32 197.121 310.042 201.716 309.764 206.312C309.537 210.05 309.311 213.79 308.81 217.501C306.692 233.207 297.833 246.127 289.084 258.887C288.772 259.342 288.461 259.796 288.15 260.25C283.606 266.887 279.124 273.63 275.778 280.967C272.53 288.093 270.661 295.662 270.387 303.492C269.921 316.765 273.405 329.749 276.825 342.49C277.155 343.723 277.485 344.952 277.811 346.18C281.711 360.872 284.716 375.676 283.771 390.966C282.87 405.577 278.513 420.516 269.095 431.974C260.986 441.838 249.211 448.966 236.583 451.102C223.263 453.354 210.144 449.247 200.501 439.763C183.719 423.258 181.239 400.417 178.799 377.94C177.801 368.746 176.809 359.613 174.848 350.999C173.052 343.093 170.367 335.37 166.401 328.285ZM179.028 373.111C177.317 357.52 174.857 341.799 167.102 327.919C167.098 327.908 167.092 327.896 167.086 327.884L167.079 327.871C163.401 321.432 158.653 315.599 152.606 311.245C146.56 306.891 139.521 304.421 132.493 301.955C124.185 299.04 115.894 296.13 109.279 290.12C98.521 280.346 95.0415 264.901 96.2333 250.886C97.6363 234.401 104.426 218.567 110.887 203.499L111.218 202.727C118.223 186.389 126.16 170.452 134.974 155.013C139.405 147.248 144.061 139.612 148.931 132.115C153.399 125.235 157.92 118.301 163.133 111.954C167.839 106.225 173.29 100.934 179.945 97.5303C186.005 94.4303 192.793 93.2129 199.562 93.5159C213.165 94.1252 226.032 100.06 238.061 105.96C248.712 111.183 259.35 116.433 269.988 121.683L269.995 121.687C275.442 124.375 280.888 127.063 286.336 129.747C288.936 131.028 291.537 132.308 294.138 133.588C299.607 136.279 305.077 138.97 310.54 141.675C317.112 144.927 325.14 149.029 327.125 156.751C327.947 159.952 327.729 163.621 326.001 166.498C325.165 167.889 323.999 168.74 322.761 169.644L322.761 169.644L322.761 169.644L322.761 169.645L322.761 169.645C322.49 169.842 322.217 170.041 321.943 170.25C320.609 171.263 319.386 172.426 318.291 173.693C313.288 179.478 311.028 187.151 309.999 194.594C309.473 198.402 309.239 202.238 309.005 206.073C308.741 210.4 308.477 214.727 307.794 219.012C306.524 226.967 303.466 234.391 299.51 241.37C296.368 246.911 292.743 252.169 289.119 257.426C283.827 265.103 278.536 272.778 274.753 281.332C271.905 287.772 270.153 294.572 269.695 301.603C269.253 308.385 269.938 315.184 271.133 321.857C272.429 329.095 274.332 336.192 276.234 343.289C278.017 349.939 279.8 356.59 281.084 363.356C286.495 391.865 281.939 426.225 255.413 442.945C244.454 449.853 230.701 453.095 218.043 449.406C203.732 445.234 193.822 432.879 188.191 419.616C182.559 406.35 181.032 391.954 179.524 377.736C179.36 376.192 179.196 374.65 179.028 373.111ZM154.567 301.722C161.202 305.774 166.318 311.73 170.146 318.434C173.79 324.944 176.256 332.037 177.912 339.296C179.713 347.211 180.624 355.601 181.541 364.048L181.541 364.048L181.541 364.048L181.541 364.049L181.541 364.049L181.541 364.049L181.541 364.05L181.541 364.05L181.541 364.05L181.542 364.051L181.542 364.051C183.785 384.712 186.065 405.704 201.492 420.878C210.359 429.599 222.422 433.376 234.672 431.307C246.283 429.344 257.113 422.79 264.57 413.719C273.23 403.183 277.236 389.45 278.065 376.013C278.932 361.96 276.172 348.354 272.587 334.851C272.287 333.723 271.984 332.594 271.681 331.462C268.539 319.757 265.337 307.828 265.766 295.633C266.018 288.444 267.733 281.491 270.716 274.95C273.789 268.208 277.907 262.011 282.083 255.913L282.35 255.522L282.938 254.665C290.981 242.935 299.124 231.058 301.071 216.621C301.532 213.212 301.74 209.776 301.948 206.34C302.203 202.117 302.459 197.894 303.183 193.722C304.494 186.154 307.456 178.163 313.935 173.525C316.175 171.922 317.79 170.325 318.571 167.591C319.308 165.008 319.169 162.154 318.311 159.62C316.14 153.207 309.554 149.555 303.874 146.712C293.781 141.658 283.644 136.688 273.508 131.719L273.507 131.719L273.507 131.719L273.506 131.719L273.506 131.718L273.506 131.718L273.505 131.718L273.505 131.718L273.504 131.718L273.504 131.717L273.504 131.717C268.475 129.252 263.446 126.787 258.423 124.312C256.066 123.15 253.71 121.986 251.354 120.823L251.345 120.819L251.337 120.815L251.328 120.81L251.32 120.806L251.312 120.802L251.309 120.801L251.306 120.799C246.205 118.281 241.105 115.762 235.995 113.262C230.356 110.505 224.641 107.869 218.716 105.782C207.39 101.793 194.747 99.9056 183.476 105.115C171.194 110.792 163.236 122.896 156 133.903L155.995 133.909L155.707 134.348L155.524 134.626C155.355 134.883 155.186 135.14 155.017 135.396C145.764 149.433 137.337 164.016 129.789 179.038C122.464 193.618 115.725 208.647 110.35 224.064C105.732 237.31 102.684 251.689 106.424 265.539C108.03 271.488 110.844 277.165 115.007 281.746C119.921 287.155 126.512 290.357 133.253 292.891C134.996 293.546 136.759 294.166 138.524 294.786L138.525 294.787C144.037 296.724 149.565 298.668 154.567 301.722ZM170.804 317.994L170.811 318.003C170.814 318.009 170.818 318.015 170.821 318.021C177.969 330.791 180.236 345.259 181.809 359.61C181.964 361.025 182.114 362.443 182.265 363.864L182.265 363.864C183.651 376.926 185.055 390.15 190.228 402.335C195.397 414.513 204.497 425.858 217.635 429.689C229.259 433.078 241.888 430.099 251.952 423.757C276.315 408.402 280.498 376.84 275.529 350.657C274.349 344.438 272.71 338.326 271.071 332.214C269.323 325.694 267.575 319.173 266.383 312.522C265.284 306.388 264.654 300.137 265.061 293.904C265.483 287.436 267.092 281.183 269.712 275.259C273.189 267.396 278.052 260.342 282.915 253.287C286.245 248.457 289.575 243.627 292.461 238.536C296.097 232.124 298.905 225.307 300.071 218C300.699 214.064 300.941 210.09 301.183 206.116C301.398 202.589 301.613 199.062 302.098 195.561C303.044 188.717 305.124 181.66 309.725 176.34C310.733 175.174 311.86 174.104 313.088 173.17C313.339 172.98 313.59 172.797 313.837 172.616L313.838 172.615L313.839 172.614C314.972 171.788 316.041 171.008 316.804 169.735C318.387 167.098 318.588 163.735 317.834 160.802C316.012 153.715 308.641 149.952 302.609 146.966C297.576 144.475 292.537 141.995 287.498 139.516L287.481 139.508C285.11 138.341 282.738 137.174 280.368 136.006C275.606 133.66 270.846 131.311 266.087 128.961L266.086 128.961L266.085 128.96L266.084 128.96L266.083 128.959L266.082 128.959L266.081 128.958L266.08 128.958L266.079 128.957L266.078 128.957L266.077 128.956C256.057 124.011 246.038 119.066 236.006 114.148C224.957 108.729 213.138 103.277 200.644 102.717C194.428 102.439 188.195 103.555 182.632 106.402C176.52 109.529 171.513 114.389 167.19 119.65C162.402 125.48 158.248 131.85 154.144 138.17C149.669 145.059 145.39 152.076 141.318 159.212C133.218 173.398 125.926 188.044 119.488 203.058L119.18 203.776C113.246 217.615 107.011 232.156 105.722 247.296C104.627 260.168 107.82 274.351 117.701 283.329C123.778 288.851 131.398 291.525 139.032 294.204C145.488 296.469 151.954 298.738 157.508 302.736C163.051 306.727 167.409 312.068 170.785 317.967L170.791 317.974C170.795 317.98 170.8 317.987 170.804 317.994ZM173.892 308.585C170.404 302.478 165.743 297.05 159.699 293.359C155.137 290.573 150.096 288.8 145.069 287.033C143.461 286.467 141.854 285.903 140.265 285.305C134.117 282.993 128.105 280.071 123.621 275.139C119.822 270.959 117.252 265.777 115.786 260.347C112.374 247.712 115.152 234.595 119.365 222.513C124.267 208.452 130.411 194.748 137.092 181.452C143.974 167.754 151.659 154.459 160.094 141.66C160.391 141.21 160.689 140.757 160.988 140.302C167.59 130.26 174.849 119.218 186.056 114.036C196.341 109.282 207.877 111.001 218.213 114.641C223.619 116.544 228.831 118.948 233.975 121.464C238.571 123.712 243.16 125.978 247.748 128.244L247.754 128.247L247.761 128.251L247.768 128.254C249.986 129.35 252.205 130.445 254.424 131.539C258.991 133.789 263.563 136.031 268.136 138.272L268.137 138.273L268.138 138.273L268.139 138.274L268.14 138.274L268.141 138.275L268.142 138.275L268.143 138.276L268.144 138.276L268.163 138.286L268.166 138.287C277.411 142.82 286.657 147.353 295.863 151.962C301.052 154.56 307.06 157.897 309.043 163.752C309.826 166.068 309.954 168.678 309.279 171.038C308.564 173.539 307.088 175.001 305.037 176.47C299.139 180.693 296.444 187.972 295.248 194.862C294.588 198.666 294.355 202.517 294.122 206.368C293.933 209.5 293.743 212.633 293.324 215.742C291.547 228.909 284.12 239.743 276.784 250.442L276.784 250.443C276.525 250.821 276.265 251.199 276.007 251.577C272.199 257.136 268.444 262.787 265.642 268.935C262.925 274.893 261.363 281.226 261.132 287.774C260.742 298.889 263.659 309.759 266.522 320.428L266.526 320.441C266.802 321.471 267.078 322.499 267.35 323.525C270.618 335.839 273.138 348.249 272.346 361.065C271.59 373.326 267.935 385.856 260.032 395.47C253.228 403.747 243.345 409.726 232.749 411.516C221.572 413.404 210.562 409.957 202.47 401.997C188.4 388.158 186.32 369.017 184.272 350.176C183.435 342.472 182.604 334.818 180.96 327.598C179.46 320.982 177.213 314.518 173.892 308.585ZM184.591 346.108C183.157 333.038 181.094 319.864 174.598 308.228C174.595 308.219 174.591 308.21 174.587 308.202C174.584 308.196 174.581 308.19 174.578 308.184L174.576 308.18L174.571 308.17C171.485 302.765 167.496 297.871 162.42 294.217C157.358 290.573 151.463 288.504 145.578 286.44C138.618 283.998 131.672 281.561 126.133 276.527C117.131 268.348 114.223 255.426 115.222 243.699C116.398 229.896 122.085 216.637 127.495 204.021L127.77 203.381C133.638 189.692 140.288 176.338 147.672 163.404C151.385 156.899 155.286 150.501 159.366 144.219C163.107 138.46 166.892 132.656 171.256 127.343C175.194 122.546 179.757 118.118 185.328 115.269C190.395 112.677 196.072 111.662 201.733 111.916C213.118 112.425 223.888 117.396 233.956 122.334C243.042 126.79 252.117 131.269 261.192 135.748C265.595 137.921 269.999 140.094 274.403 142.264C276.567 143.33 278.731 144.395 280.895 145.459L280.902 145.463C285.497 147.724 290.093 149.985 294.683 152.257C300.174 154.976 306.891 158.4 308.549 164.851C309.235 167.516 309.052 170.572 307.612 172.969C306.918 174.124 305.947 174.832 304.918 175.582C304.693 175.747 304.464 175.913 304.235 176.087C303.113 176.939 302.083 177.918 301.162 178.984C296.964 183.839 295.063 190.277 294.2 196.526C293.759 199.716 293.563 202.931 293.367 206.145L293.367 206.145L293.367 206.145L293.367 206.145L293.367 206.146L293.367 206.146L293.367 206.146L293.367 206.146L293.367 206.146L293.367 206.147C293.146 209.771 292.925 213.396 292.353 216.985C291.291 223.646 288.731 229.859 285.418 235.702C282.787 240.343 279.751 244.747 276.716 249.149L276.715 249.15L276.715 249.151C272.28 255.583 267.846 262.015 264.675 269.184C262.284 274.59 260.815 280.297 260.429 286.201C260.058 291.887 260.634 297.59 261.636 303.186C262.722 309.251 264.316 315.197 265.911 321.144C267.404 326.716 268.898 332.288 269.974 337.957C274.5 361.814 270.69 390.576 248.493 404.567C239.324 410.345 227.819 413.058 217.23 409.971C205.264 406.485 196.974 396.146 192.266 385.056C187.551 373.951 186.272 361.901 185.008 349.998C184.87 348.699 184.733 347.402 184.591 346.108ZM164.835 284.997C170.288 288.327 174.493 293.225 177.639 298.735C180.636 304.09 182.664 309.927 184.023 315.902C185.508 322.424 186.26 329.337 187.016 336.296L187.016 336.296C188.867 353.319 190.747 370.611 203.462 383.118C210.777 390.314 220.732 393.432 230.838 391.727C240.42 390.11 249.357 384.705 255.509 377.221C262.654 368.531 265.958 357.203 266.642 346.118C267.356 334.54 265.08 323.327 262.128 312.202C261.882 311.275 261.633 310.348 261.383 309.418L261.382 309.412L261.38 309.406C258.795 299.773 256.161 289.958 256.514 279.921C256.72 274.013 258.131 268.3 260.582 262.924C263.113 257.371 266.506 252.267 269.944 247.245L270.395 246.587L270.647 246.219C277.274 236.553 283.985 226.765 285.589 214.868C285.968 212.06 286.139 209.231 286.311 206.402L286.311 206.402C286.521 202.924 286.732 199.446 287.328 196.01C288.405 189.797 290.833 183.229 296.152 179.421C298.013 178.088 299.353 176.76 300.001 174.489C300.612 172.352 300.497 169.986 299.786 167.888C297.993 162.588 292.56 159.568 287.863 157.217C279.57 153.065 271.241 148.982 262.913 144.899C258.751 142.859 254.59 140.819 250.433 138.77C248.408 137.772 246.384 136.773 244.359 135.773L244.352 135.77L244.345 135.766L244.338 135.763L244.331 135.759L244.324 135.756L244.299 135.743L244.274 135.731L244.264 135.726C240.166 133.702 236.068 131.678 231.962 129.669C227.314 127.394 222.601 125.223 217.715 123.502C208.367 120.209 197.943 118.664 188.641 122.961C178.515 127.64 171.954 137.62 165.988 146.694L165.987 146.696L165.95 146.753C165.691 147.146 165.434 147.537 165.178 147.925C157.558 159.487 150.618 171.494 144.401 183.867C138.364 195.88 132.814 208.262 128.384 220.964C124.577 231.883 122.069 243.738 125.152 255.156C126.479 260.068 128.804 264.753 132.239 268.534C136.291 272.992 141.723 275.633 147.28 277.723C148.714 278.262 150.163 278.771 151.614 279.281L151.615 279.282L151.617 279.282L151.618 279.283L151.62 279.283L151.621 279.284L151.623 279.284L151.624 279.285C156.163 280.881 160.716 282.482 164.835 284.997ZM178.313 298.322C184.207 308.85 186.075 320.776 187.372 332.607C187.499 333.766 187.622 334.928 187.746 336.092L187.746 336.093L187.746 336.095L187.746 336.097L187.747 336.099L187.747 336.101L187.747 336.103C188.888 346.856 190.043 357.743 194.302 367.776C198.549 377.779 206.029 387.109 216.822 390.255C226.378 393.039 236.758 390.593 245.031 385.377C265.066 372.749 268.504 346.788 264.417 325.255C263.445 320.132 262.095 315.097 260.745 310.062L260.745 310.062L260.745 310.062L260.745 310.061L260.745 310.061L260.745 310.06L260.745 310.06L260.745 310.06L260.745 310.059C259.306 304.691 257.867 299.324 256.886 293.85C255.98 288.792 255.458 283.639 255.794 278.499C256.143 273.159 257.47 267.999 259.633 263.109C262.496 256.635 266.5 250.827 270.506 245.017L270.506 245.017L270.506 245.017L270.506 245.016L270.506 245.016L270.507 245.016L270.507 245.016L270.507 245.015L270.507 245.015C273.249 241.038 275.992 237.06 278.369 232.866C281.36 227.592 283.67 221.982 284.629 215.97C285.147 212.729 285.346 209.455 285.546 206.182L285.546 206.181L285.546 206.181L285.546 206.18L285.546 206.18L285.546 206.179L285.546 206.179L285.546 206.179L285.546 206.178C285.723 203.276 285.9 200.373 286.299 197.491C287.079 191.841 288.8 186.019 292.598 181.629C293.432 180.664 294.365 179.779 295.381 179.007C295.586 178.851 295.79 178.703 295.992 178.556C296.918 177.88 297.792 177.244 298.418 176.204C299.714 174.049 299.877 171.3 299.261 168.9C297.765 163.083 291.706 159.998 286.756 157.547C282.769 155.572 278.777 153.608 274.785 151.645L274.784 151.644L274.782 151.643L274.773 151.639C272.661 150.6 270.55 149.561 268.439 148.52C264.462 146.56 260.486 144.598 256.51 142.636C248.312 138.59 240.114 134.544 231.905 130.518C222.817 126.062 213.095 121.574 202.818 121.113C197.712 120.885 192.59 121.799 188.019 124.137C182.99 126.71 178.872 130.707 175.315 135.037C171.376 139.832 167.959 145.074 164.582 150.272C160.896 155.945 157.374 161.726 154.02 167.601C147.35 179.285 141.344 191.345 136.042 203.709L135.791 204.294C130.907 215.681 125.775 227.649 124.713 240.106C123.811 250.689 126.433 262.351 134.556 269.733C139.558 274.278 145.831 276.479 152.116 278.684C157.43 280.548 162.752 282.415 167.324 285.705C171.915 289.009 175.521 293.434 178.313 298.322ZM181.384 288.885C178.578 283.972 174.831 279.602 169.968 276.634C166.295 274.391 162.235 272.963 158.187 271.539C156.884 271.081 155.583 270.623 154.296 270.139C149.332 268.272 144.477 265.911 140.856 261.927C137.784 258.546 135.703 254.356 134.518 249.963C131.762 239.761 134.001 229.17 137.403 219.414C141.359 208.068 146.316 197.008 151.708 186.279C157.258 175.233 163.455 164.511 170.259 154.188C170.499 153.824 170.74 153.458 170.982 153.09C176.312 144.982 182.176 136.063 191.223 131.881C199.539 128.039 208.856 129.416 217.214 132.36C221.581 133.897 225.791 135.838 229.945 137.869C233.724 139.718 237.498 141.582 241.271 143.445C242.992 144.295 244.714 145.146 246.436 145.995C250.073 147.787 253.713 149.571 257.354 151.356C264.866 155.038 272.378 158.721 279.857 162.466C284.061 164.571 288.916 167.276 290.523 172.02C291.158 173.9 291.262 176.021 290.717 177.935C290.134 179.974 288.933 181.168 287.261 182.365C282.522 185.76 280.362 191.615 279.402 197.151C278.87 200.219 278.682 203.324 278.494 206.43C278.341 208.956 278.188 211.482 277.85 213.989C276.416 224.618 270.422 233.361 264.502 241.996L264.499 242C264.291 242.303 264.084 242.606 263.877 242.908C260.806 247.393 257.778 251.949 255.518 256.906C253.332 261.699 252.076 266.793 251.89 272.061C251.576 281.022 253.927 289.785 256.236 298.386C256.459 299.216 256.681 300.046 256.901 300.873C259.539 310.81 261.572 320.826 260.933 331.168C260.321 341.077 257.368 351.2 250.982 358.97C245.482 365.66 237.491 370.49 228.925 371.934C219.89 373.457 210.99 370.668 204.45 364.236C193.09 353.063 191.41 337.618 189.755 322.413C189.079 316.2 188.408 310.027 187.082 304.201C185.868 298.872 184.059 293.663 181.384 288.885ZM190.154 319.104C188.997 308.548 187.329 297.91 182.082 288.513C182.078 288.505 182.075 288.498 182.071 288.49L182.068 288.485L182.061 288.471C179.565 284.1 176.339 280.145 172.233 277.191C168.154 274.256 163.403 272.59 158.661 270.926C153.05 268.958 147.45 266.994 142.985 262.937C135.74 256.355 133.406 245.953 134.21 236.514C135.157 225.402 139.735 214.726 144.091 204.569L144.319 204.037C149.052 192.997 154.415 182.228 160.371 171.796C163.366 166.549 166.511 161.389 169.802 156.323C172.815 151.686 175.863 147.009 179.379 142.73C182.551 138.866 186.224 135.3 190.712 133.004C194.787 130.919 199.353 130.107 203.905 130.31C213.073 130.719 221.748 134.726 229.855 138.702C237.108 142.26 244.354 145.836 251.6 149.412C255.224 151.201 258.849 152.99 262.474 154.776C264.373 155.712 266.273 156.647 268.172 157.581L268.186 157.588C271.735 159.334 275.284 161.08 278.829 162.835C283.237 165.018 288.642 167.764 289.974 172.946C290.521 175.077 290.375 177.519 289.224 179.435C288.67 180.355 287.896 180.918 287.077 181.516L287.077 181.516L287.076 181.516C286.895 181.648 286.712 181.782 286.528 181.921C285.616 182.613 284.781 183.405 284.033 184.27C280.639 188.196 279.098 193.4 278.399 198.453C278.043 201.027 277.885 203.62 277.727 206.213L277.727 206.213C277.549 209.136 277.37 212.058 276.909 214.953C276.053 220.318 273.994 225.32 271.324 230.027C269.201 233.77 266.753 237.322 264.305 240.873C260.728 246.061 257.152 251.248 254.595 257.03C252.659 261.404 251.472 266.017 251.161 270.793C250.861 275.387 251.328 279.992 252.138 284.511C253.014 289.402 254.3 294.196 255.585 298.99C256.79 303.485 257.995 307.979 258.863 312.553C262.508 331.759 259.443 354.922 241.573 366.186C234.195 370.837 224.939 373.02 216.417 370.536C206.796 367.732 200.126 359.412 196.341 350.495C192.539 341.543 191.509 331.831 190.49 322.237L190.49 322.237C190.379 321.191 190.268 320.146 190.154 319.104ZM175.101 268.27C179.374 270.879 182.665 274.718 185.13 279.035C187.482 283.238 189.072 287.817 190.136 292.506C191.304 297.635 191.895 303.069 192.491 308.538L192.491 308.538C193.948 321.925 195.428 335.519 205.432 345.358C211.197 351.027 219.042 353.485 227.005 352.145C234.554 350.873 241.6 346.618 246.448 340.721C252.077 333.873 254.679 324.955 255.219 316.22C255.78 307.116 253.989 298.297 251.667 289.548C251.484 288.86 251.299 288.171 251.114 287.48L251.104 287.441L251.093 287.401L251.085 287.373L251.084 287.37C249.052 279.802 246.981 272.091 247.259 264.205C247.42 259.578 248.526 255.101 250.445 250.892C252.434 246.529 255.099 242.52 257.802 238.574C257.983 238.308 258.165 238.043 258.347 237.777C263.561 230.173 268.839 222.473 270.103 213.113C270.401 210.904 270.536 208.679 270.671 206.453C270.836 203.722 271.002 200.992 271.469 198.294C272.312 193.435 274.206 188.293 278.365 185.312C279.848 184.25 280.912 183.191 281.428 181.384C281.911 179.693 281.82 177.816 281.257 176.155C279.84 171.966 275.561 169.579 271.848 167.72C265.255 164.418 258.633 161.171 252.012 157.925L252.001 157.92L251.989 157.914L251.978 157.909C248.797 156.349 245.616 154.789 242.438 153.224C240.885 152.459 239.334 151.692 237.782 150.926L237.779 150.924L237.776 150.923L237.773 150.921L237.769 150.92L237.766 150.918L237.763 150.917C234.485 149.298 231.208 147.679 227.924 146.073C224.264 144.281 220.554 142.573 216.708 141.218C209.34 138.623 201.131 137.416 193.801 140.803C185.83 144.489 180.664 152.346 175.968 159.49L175.621 160.017L175.335 160.452C169.347 169.536 163.894 178.972 159.009 188.693C154.263 198.139 149.898 207.875 146.416 217.863C143.42 226.459 141.452 235.787 143.879 244.774C144.925 248.646 146.761 252.34 149.471 255.321C152.659 258.829 156.936 260.91 161.308 262.555C162.438 262.98 163.581 263.381 164.725 263.784L164.725 263.784C168.29 265.037 171.865 266.294 175.101 268.27ZM185.817 278.645C190.445 286.924 191.915 296.299 192.936 305.602C193.035 306.51 193.132 307.421 193.229 308.333C194.125 316.781 195.032 325.333 198.377 333.214C201.701 341.045 207.561 348.356 216.01 350.819C223.498 353.001 231.629 351.083 238.111 346.996C253.818 337.097 256.511 316.732 253.306 299.853C252.543 295.832 251.483 291.879 250.424 287.926L250.424 287.926C249.292 283.704 248.16 279.482 247.389 275.176C246.676 271.194 246.264 267.138 246.527 263.092C246.802 258.88 247.847 254.814 249.554 250.956C251.804 245.87 254.95 241.306 258.096 236.742L258.097 236.742C260.252 233.615 262.408 230.489 264.276 227.192C266.623 223.053 268.435 218.656 269.187 213.939C269.593 211.391 269.75 208.819 269.907 206.247C270.046 203.966 270.185 201.684 270.499 199.419C271.114 194.962 272.476 190.377 275.47 186.916C276.129 186.152 276.87 185.452 277.673 184.842C277.834 184.72 277.994 184.604 278.152 184.488L278.153 184.488C278.869 183.967 279.545 183.475 280.029 182.672C281.035 180.999 281.163 178.861 280.684 176.998C279.515 172.451 274.766 170.043 270.9 168.128C267.523 166.456 264.142 164.793 260.761 163.13L260.747 163.122C259.333 162.427 257.92 161.732 256.507 161.036C253.317 159.464 250.128 157.89 246.939 156.317L246.929 156.312C240.556 153.166 234.182 150.02 227.8 146.891C220.674 143.397 213.047 139.872 204.989 139.511C200.991 139.332 196.98 140.043 193.402 141.875C189.456 143.893 186.228 147.029 183.438 150.425C180.347 154.188 177.667 158.299 175.019 162.378C172.123 166.837 169.355 171.377 166.719 175.995C161.478 185.175 156.758 194.653 152.594 204.367L152.388 204.847C148.56 213.773 144.536 223.158 143.703 232.924C142.997 241.217 145.043 250.358 151.411 256.145C155.338 259.713 160.265 261.441 165.201 263.172C169.373 264.635 173.551 266.1 177.139 268.681C180.76 271.284 183.606 274.771 185.806 278.625C185.81 278.631 185.814 278.638 185.817 278.645ZM188.876 269.186C186.753 265.467 183.918 262.156 180.236 259.908C177.442 258.202 174.355 257.117 171.277 256.034L171.275 256.034L171.274 256.034L171.274 256.033L171.273 256.033L171.272 256.033C170.285 255.686 169.298 255.339 168.323 254.972C164.542 253.549 160.845 251.75 158.088 248.716C155.741 246.134 154.151 242.937 153.245 239.583C151.146 231.812 152.845 223.747 155.435 216.315C158.445 207.684 162.215 199.271 166.316 191.107C170.535 182.711 175.245 174.562 180.416 166.717L180.691 166.299L180.961 165.888C185.023 159.711 189.49 152.915 196.385 149.727C202.727 146.794 209.831 147.832 216.209 150.079C219.536 151.25 222.744 152.728 225.91 154.276C228.897 155.738 231.879 157.21 234.861 158.683C236.055 159.273 237.25 159.863 238.444 160.452C241.204 161.812 243.967 163.166 246.73 164.521L246.734 164.523L246.757 164.534L246.76 164.536C252.463 167.331 258.166 170.127 263.846 172.971C267.066 174.584 270.769 176.656 271.999 180.288C272.487 181.73 272.567 183.362 272.148 184.832C271.698 186.408 270.77 187.333 269.478 188.259C265.898 190.826 264.271 195.256 263.548 199.435C263.143 201.768 263 204.128 262.857 206.49C262.741 208.409 262.625 210.329 262.368 212.234C261.277 220.329 256.71 226.988 252.201 233.564L252.201 233.564L251.739 234.237C249.406 237.646 247.105 241.109 245.386 244.878C243.733 248.504 242.78 252.362 242.64 256.347C242.401 263.148 244.186 269.798 245.938 276.327C246.108 276.96 246.277 277.591 246.444 278.222C248.452 285.782 249.999 293.403 249.514 301.271C249.047 308.831 246.795 316.544 241.923 322.471C237.729 327.573 231.627 331.258 225.094 332.353C218.202 333.509 211.413 331.384 206.423 326.476C197.774 317.97 196.494 306.225 195.233 294.657C194.718 289.933 194.207 285.238 193.198 280.806C192.276 276.761 190.905 272.811 188.876 269.186ZM195.717 292.1C194.836 284.06 193.564 275.958 189.566 268.8C189.562 268.791 189.557 268.782 189.552 268.773C187.645 265.436 185.181 262.418 182.046 260.165C178.948 257.938 175.341 256.674 171.74 255.411L171.74 255.411C167.478 253.917 163.225 252.425 159.836 249.346C154.347 244.358 152.585 236.478 153.196 229.329C153.915 220.908 157.385 212.816 160.686 205.118L160.868 204.694C164.465 196.303 168.542 188.117 173.068 180.189C175.344 176.203 177.736 172.28 180.236 168.43C182.521 164.911 184.833 161.364 187.499 158.118C189.906 155.188 192.691 152.483 196.095 150.742C199.178 149.164 202.633 148.554 206.077 148.708C213.025 149.019 219.604 152.062 225.75 155.075C231.177 157.737 236.597 160.412 242.018 163.087C244.859 164.489 247.7 165.891 250.542 167.292C251.904 167.963 253.266 168.633 254.628 169.304L254.652 169.315L254.676 169.327L254.686 169.332C257.449 170.692 260.212 172.051 262.972 173.417C266.3 175.065 270.392 177.134 271.398 181.046C271.808 182.64 271.698 184.472 270.835 185.905C270.423 186.588 269.847 187.007 269.238 187.451C269.1 187.551 268.96 187.652 268.82 187.759C268.121 188.288 267.479 188.895 266.906 189.558C264.313 192.556 263.132 196.524 262.599 200.382C262.329 202.339 262.209 204.311 262.088 206.282C261.953 208.503 261.818 210.724 261.467 212.923C260.817 216.993 259.255 220.787 257.23 224.357C255.617 227.202 253.756 229.901 251.896 232.6C249.177 236.543 246.459 240.486 244.516 244.88C243.039 248.221 242.134 251.743 241.896 255.389C241.667 258.888 242.026 262.397 242.642 265.839C243.308 269.556 244.285 273.2 245.262 276.845C246.178 280.261 247.094 283.677 247.754 287.152C250.515 301.707 248.197 319.27 234.653 327.807C229.065 331.329 222.059 332.982 215.604 331.101C208.327 328.98 203.278 322.68 200.415 315.935C197.528 309.134 196.744 301.757 195.971 294.468C195.887 293.677 195.803 292.888 195.717 292.1ZM185.178 251.431C188.359 253.324 190.798 256.146 192.622 259.336C194.329 262.389 195.481 265.712 196.254 269.116C197.104 272.853 197.536 276.807 197.971 280.784L197.971 280.784C199.035 290.526 200.115 300.408 207.399 307.587C211.563 311.69 217.242 313.51 223.009 312.587C228.551 311.7 233.728 308.618 237.308 304.317C241.405 299.393 243.332 292.972 243.776 286.664C244.244 280.032 242.982 273.583 241.295 267.204C241.13 266.581 240.963 265.956 240.795 265.33C239.34 259.911 237.861 254.404 238.003 248.759C238.087 245.42 238.84 242.175 240.197 239.124C241.606 235.951 243.522 233.038 245.474 230.18C245.594 230.004 245.713 229.829 245.833 229.654L246.151 229.191C249.856 223.783 253.62 218.29 254.581 211.65C254.827 209.946 254.931 208.227 255.036 206.508L255.036 206.508C255.155 204.54 255.275 202.573 255.607 200.628C256.209 197.11 257.568 193.362 260.582 191.203C261.638 190.446 262.418 189.693 262.818 188.414C263.2 187.193 263.162 185.837 262.796 184.617C261.879 181.56 258.848 179.75 256.178 178.393C251.386 175.956 246.552 173.598 241.719 171.24L241.716 171.238C239.341 170.08 236.966 168.921 234.596 167.753C233.438 167.182 232.28 166.611 231.122 166.039L231.068 166.012L231.055 166.006C228.71 164.849 226.364 163.691 224.015 162.539C221.364 161.24 218.679 159.998 215.894 159.004C210.514 157.083 204.5 156.148 199.119 158.578C193.262 161.224 189.487 166.938 186.048 172.145L186.036 172.163L185.885 172.391L185.689 172.688C181.335 179.267 177.368 186.102 173.812 193.143C170.324 200.049 167.133 207.167 164.556 214.467C162.333 220.764 160.836 227.594 162.558 234.204C163.288 237.011 164.583 239.687 166.498 241.881C168.751 244.461 171.804 246.036 174.959 247.245C175.896 247.604 176.844 247.938 177.794 248.271L177.794 248.272C180.327 249.162 182.864 250.054 185.178 251.431ZM193.316 258.957C196.645 264.931 197.735 271.68 198.476 278.39C198.509 278.685 198.541 278.981 198.573 279.278C198.62 279.72 198.667 280.163 198.714 280.607C199.352 286.62 199.996 292.7 202.318 298.329C204.691 304.084 208.929 309.516 215.109 311.356C220.537 312.97 226.44 311.598 231.153 308.64C242.571 301.473 244.526 286.672 242.193 274.423C241.638 271.508 240.87 268.644 240.102 265.779L240.102 265.778L240.102 265.778L240.102 265.777L240.102 265.777C239.292 262.755 238.482 259.732 237.922 256.652C236.838 250.696 236.923 244.755 239.34 239.122C240.981 235.296 243.336 231.881 245.691 228.466C247.186 226.298 248.681 224.131 249.993 221.858C251.709 218.887 253.081 215.727 253.677 212.33C254.026 210.333 254.15 208.312 254.274 206.29L254.274 206.29L254.274 206.29L254.274 206.289L254.274 206.289C254.369 204.751 254.463 203.213 254.657 201.685C255.067 198.454 255.992 195.15 258.048 192.562C258.54 191.943 259.096 191.379 259.711 190.882C259.897 190.732 260.092 190.595 260.286 190.459L260.286 190.459C260.692 190.175 261.095 189.893 261.404 189.493C262.309 188.322 262.47 186.672 262.152 185.264C261.394 181.901 257.9 180.124 255.078 178.725C252.842 177.617 250.602 176.515 248.362 175.413L248.328 175.396C247.109 174.797 245.89 174.197 244.671 173.596C242.356 172.455 240.042 171.314 237.727 170.172C233.103 167.891 228.479 165.61 223.851 163.336C218.672 160.792 213.135 158.207 207.279 157.911C204.359 157.765 201.422 158.266 198.804 159.6C195.956 161.052 193.625 163.306 191.609 165.753C189.375 168.461 187.444 171.422 185.531 174.362C183.437 177.58 181.435 180.86 179.527 184.193C175.711 190.859 172.274 197.742 169.239 204.798L169.054 205.228L169.054 205.228L169.053 205.229C166.254 211.734 163.308 218.582 162.692 225.699C162.175 231.687 163.626 238.277 168.194 242.486C171.058 245.125 174.675 246.395 178.301 247.668C181.371 248.745 184.446 249.825 187.074 251.738C189.67 253.628 191.709 256.147 193.297 258.921C193.304 258.933 193.31 258.945 193.316 258.957ZM196.367 249.486C194.889 246.909 192.924 244.626 190.353 243.092C188.474 241.972 186.412 241.247 184.353 240.524C183.549 240.241 182.745 239.959 181.954 239.653C179.385 238.662 176.909 237.361 175.089 235.243C173.517 233.413 172.465 231.189 171.883 228.857C170.553 223.523 171.767 218.027 173.56 212.954C175.66 207.008 178.258 201.209 181.101 195.584C184.029 189.79 187.3 184.169 190.891 178.762L191.091 178.461C193.902 174.226 196.983 169.586 201.784 167.461C206.187 165.512 211.1 166.313 215.481 167.893C219.468 169.332 223.288 171.275 227.084 173.206L227.085 173.206C228.305 173.827 229.523 174.446 230.743 175.048C232.643 175.984 234.547 176.912 236.452 177.841L236.452 177.841L236.452 177.841L236.452 177.841C240.37 179.751 244.288 181.661 248.169 183.641C250.329 184.743 252.741 186.211 253.508 188.668C254.132 190.675 253.61 192.817 251.862 194.03C247.818 196.837 247.502 201.941 247.212 206.622C247.135 207.868 247.059 209.083 246.916 210.217C246.194 215.946 242.987 220.621 239.8 225.267L239.8 225.267L239.736 225.36C236.541 230.019 233.58 234.847 233.386 240.656C233.23 245.304 234.449 249.842 235.647 254.304L235.647 254.304C235.782 254.806 235.917 255.308 236.049 255.808C237.429 261.023 238.46 266.298 238.066 271.722C237.694 276.848 236.12 282.064 232.783 286.061C229.867 289.555 225.661 292.058 221.155 292.785C216.446 293.543 211.811 292.065 208.405 288.722C202.458 282.884 201.576 274.826 200.708 266.889C200.359 263.697 200.011 260.525 199.338 257.525C198.708 254.725 197.767 251.997 196.367 249.486ZM201.236 264.7C200.636 259.318 199.731 253.927 197.075 249.132C197.071 249.122 197.067 249.112 197.063 249.102C197.057 249.091 197.052 249.08 197.045 249.069C195.742 246.798 194.074 244.742 191.945 243.195C189.815 241.648 187.323 240.774 184.836 239.901C181.888 238.868 178.947 237.836 176.622 235.688C172.834 232.187 171.708 226.677 172.226 221.721C172.824 215.995 175.197 210.497 177.46 205.252L177.576 204.984C180.045 199.263 182.839 193.682 185.941 188.277C187.493 185.574 189.12 182.916 190.822 180.305C192.369 177.933 193.932 175.539 195.745 173.357C197.384 171.386 199.277 169.579 201.588 168.422C203.736 167.348 206.143 166.972 208.526 167.117C213.324 167.408 217.839 169.567 222.083 171.657C227.591 174.37 233.098 177.085 238.605 179.799L238.942 179.966C239.829 180.403 240.716 180.839 241.604 181.275C243.508 182.21 245.413 183.146 247.313 184.091C249.626 185.244 252.472 186.761 252.913 189.582C253.087 190.704 252.895 192.003 252.083 192.853C251.848 193.099 251.565 193.296 251.283 193.493C251.089 193.629 250.895 193.765 250.716 193.916C250.237 194.323 249.807 194.784 249.426 195.283C247.829 197.374 247.097 199.986 246.767 202.561C246.606 203.813 246.529 205.072 246.452 206.332L246.452 206.332L246.452 206.332L246.452 206.332C246.356 207.901 246.26 209.469 246.003 211.021C245.548 213.783 244.469 216.353 243.088 218.773C241.995 220.69 240.74 222.51 239.485 224.33L239.485 224.331C237.627 227.026 235.769 229.721 234.44 232.725C232.429 237.269 232.261 242.058 233.098 246.899C233.555 249.542 234.249 252.131 234.943 254.721L234.943 254.721L234.943 254.721L234.943 254.722C235.542 256.956 236.14 259.19 236.587 261.46C238.55 271.44 237.038 283.577 227.714 289.439C223.891 291.842 219.1 292.957 214.696 291.638C209.64 290.124 206.201 285.63 204.298 280.909C202.479 276.399 201.965 271.547 201.456 266.742L201.456 266.741C201.384 266.06 201.312 265.379 201.236 264.7ZM195.17 234.548C197.302 235.729 198.908 237.543 200.114 239.636C201.207 241.604 201.936 243.739 202.417 245.931C202.915 248.198 203.178 250.591 203.442 252.998L203.442 252.998C204.116 259.127 204.799 265.35 209.405 269.857C212.022 272.417 215.58 273.562 219.197 273C222.702 272.454 225.985 270.52 228.255 267.807C233.7 261.299 232.856 252.215 230.845 244.581C230.73 244.146 230.613 243.711 230.496 243.274C229.592 239.909 228.674 236.493 228.753 232.99C228.857 228.422 231.175 224.657 233.683 221C236.135 217.427 238.598 213.834 239.163 209.433C239.285 208.479 239.343 207.518 239.401 206.557L239.401 206.557L239.401 206.557C239.48 205.247 239.559 203.938 239.8 202.648C240.023 201.454 240.377 200.277 240.971 199.214C241.552 198.176 242.311 197.518 243.227 196.798C244.432 195.853 244.678 194.116 244.221 192.721C243.611 190.862 241.807 189.739 240.161 188.89C237.106 187.318 234.011 185.814 230.918 184.311C229.416 183.581 227.915 182.851 226.418 182.114C225.505 181.664 224.594 181.201 223.681 180.736L223.681 180.736C220.747 179.244 217.793 177.741 214.701 176.653C211.342 175.472 207.606 174.929 204.256 176.434C200.584 178.083 198.224 181.635 196.066 184.884L195.923 185.099C193.103 189.341 190.54 193.753 188.252 198.305C186.081 202.621 184.088 207.072 182.494 211.637C181.129 215.551 180.237 219.79 181.304 223.888C181.755 225.617 182.545 227.262 183.702 228.63C185.064 230.24 186.91 231.256 188.846 232.021C189.527 232.29 190.218 232.533 190.91 232.777L190.91 232.777C192.365 233.288 193.819 233.8 195.17 234.548ZM200.809 239.259C203.098 243.404 203.6 247.976 204.103 252.556C204.511 256.268 204.92 259.986 206.281 263.487C207.715 267.173 210.35 270.729 214.286 271.919C217.704 272.954 221.421 272.067 224.373 270.175C231.566 265.563 232.563 256.087 230.957 248.389C230.624 246.793 230.203 245.219 229.782 243.645C229.23 241.58 228.679 239.517 228.325 237.407C227.714 233.751 227.873 230.129 229.38 226.701C230.403 224.374 231.84 222.289 233.278 220.203L233.278 220.203L233.278 220.202C234.192 218.876 235.106 217.55 235.914 216.161C236.989 214.313 237.859 212.356 238.242 210.242C238.474 208.96 238.554 207.662 238.633 206.363C238.684 205.526 238.736 204.689 238.828 203.857C239.055 201.816 239.571 199.728 240.786 198.037C241.314 197.302 241.946 196.789 242.649 196.244C243.445 195.626 243.725 194.674 243.623 193.691C243.389 191.441 241.102 190.243 239.301 189.344C237.868 188.63 236.43 187.924 234.992 187.218C234.273 186.865 233.554 186.512 232.835 186.158C231.991 185.742 231.147 185.326 230.302 184.909L228.478 184.01L228.466 184.004L228.455 183.999C225.578 182.58 222.7 181.16 219.821 179.745C216.585 178.155 213.134 176.515 209.475 176.312C207.628 176.209 205.771 176.521 204.121 177.374C202.326 178.303 200.869 179.745 199.604 181.298C196.707 184.857 194.309 188.928 192.043 192.907C189.677 197.062 187.546 201.351 185.664 205.748L185.533 206.055C183.786 210.133 181.94 214.443 181.651 218.912C181.409 222.648 182.434 226.725 185.406 229.212C187.147 230.668 189.266 231.411 191.389 232.155C193.325 232.834 195.264 233.514 196.922 234.737C198.535 235.926 199.794 237.494 200.789 239.221C200.794 239.229 200.798 239.236 200.801 239.243C200.804 239.249 200.806 239.254 200.809 239.259ZM203.86 229.786C202.998 228.3 201.866 227.035 200.342 226.213C199.422 225.717 198.439 225.371 197.455 225.025L197.455 225.025C196.914 224.834 196.372 224.644 195.842 224.428C193.17 223.342 191.308 221.378 190.631 218.544C189.933 215.621 190.607 212.63 191.596 209.859C192.745 206.639 194.15 203.498 195.697 200.45C197.274 197.339 199.036 194.323 200.969 191.422L201.03 191.329C202.569 189.019 204.249 186.496 206.877 185.342C209.26 184.295 211.912 184.699 214.289 185.546C216.467 186.323 218.549 187.382 220.618 188.434L220.62 188.435C221.269 188.765 221.917 189.095 222.566 189.415C223.611 189.929 224.662 190.434 225.714 190.94C227.917 191.998 230.122 193.058 232.273 194.207C233.385 194.801 234.573 195.611 234.965 196.879C235.266 197.847 235.113 199.032 234.331 199.735C234.185 199.867 234.04 199.987 233.899 200.105C233.495 200.441 233.118 200.756 232.806 201.252C232.365 201.952 232.098 202.744 231.923 203.548C231.706 204.548 231.643 205.568 231.581 206.588C231.542 207.229 231.503 207.87 231.426 208.506C231.042 211.651 229.301 214.205 227.553 216.755C225.804 219.306 224.183 221.94 224.128 225.128C224.086 227.564 224.723 229.931 225.353 232.273L225.353 232.274C225.468 232.699 225.582 233.123 225.692 233.547C227.081 238.904 227.493 245.363 223.521 249.791C220.192 253.502 214.281 254.703 210.46 251.042C207.151 247.874 206.662 243.461 206.181 239.116C205.996 237.444 205.812 235.781 205.468 234.204C205.134 232.663 204.622 231.169 203.86 229.786ZM204.534 229.373C204.528 229.362 204.522 229.352 204.516 229.342C203.823 228.157 202.96 227.078 201.858 226.248C200.682 225.362 199.299 224.876 197.919 224.39L197.918 224.39C196.44 223.87 194.963 223.351 193.746 222.342C191.571 220.538 190.915 217.493 191.188 214.794C191.496 211.742 192.761 208.81 193.966 206.016L194.043 205.837C195.342 202.823 196.808 199.882 198.434 197.031C200.003 194.28 201.66 191.466 203.658 189.002C205.438 186.808 207.694 185.321 210.607 185.514C213.213 185.686 215.652 186.887 217.957 188.023L217.957 188.023L217.983 188.036C219.447 188.757 220.91 189.478 222.373 190.2C223.903 190.954 225.433 191.708 226.963 192.462C227.479 192.716 227.996 192.97 228.513 193.223C229.481 193.698 230.45 194.172 231.414 194.656C232.742 195.325 234.44 196.272 234.308 198.003C234.255 198.708 233.898 199.061 233.366 199.466C232.86 199.854 232.447 200.339 232.111 200.878C231.365 202.076 231.065 203.497 230.926 204.882C230.875 205.395 230.843 205.911 230.811 206.427C230.748 207.447 230.685 208.467 230.47 209.467C230.156 210.927 229.503 212.273 228.736 213.546C228.22 214.401 227.65 215.228 227.079 216.054L227.079 216.054C226.006 217.61 224.932 219.166 224.215 220.921C222.613 224.84 223.634 228.75 224.649 232.638L224.649 232.638C224.936 233.739 225.223 234.838 225.45 235.935C226.557 241.291 225.838 247.886 220.805 251.053C218.704 252.375 216.045 252.962 213.649 252.128C210.939 251.183 209.188 248.612 208.252 246.018C207.403 243.661 207.129 241.182 206.855 238.708L206.855 238.708C206.499 235.496 206.144 232.292 204.534 229.373ZM205.512 217.876C206.427 218.345 207.086 219.06 207.605 219.936C208.487 221.57 208.699 223.412 208.909 225.248C209.166 227.492 209.423 229.727 210.9 231.565C213.101 234.302 217.056 233.83 219.217 231.284C221.419 228.689 221.195 225.04 220.397 221.956C220.332 221.705 220.264 221.454 220.196 221.202C219.824 219.823 219.446 218.422 219.515 216.988C219.6 215.18 220.61 213.705 221.597 212.261C221.67 212.155 221.742 212.049 221.814 211.944C222.866 210.395 223.599 208.904 223.744 207.017C223.757 206.846 223.767 206.674 223.778 206.502C223.828 205.684 223.88 204.854 224.202 204.094C224.414 203.592 224.716 203.256 225.124 202.919C225.337 202.742 225.506 202.584 225.627 202.329C226.285 200.941 225 199.841 223.902 199.269C222.639 198.612 221.356 197.991 220.073 197.371C219.434 197.061 218.795 196.752 218.159 196.439C217.803 196.263 217.433 196.07 217.05 195.87C214.677 194.63 211.844 193.151 209.314 194.328C207.832 195.019 206.879 196.443 206 197.759C204.868 199.451 203.839 201.213 202.918 203.029C202.024 204.794 201.21 206.614 200.553 208.48C200.002 210.037 199.64 211.707 199.999 213.35C200.321 214.832 201.217 216.033 202.579 216.71C203.04 216.937 203.524 217.106 204.009 217.275C204.519 217.452 205.03 217.63 205.512 217.876ZM208.25 219.475C207.278 217.863 205.915 217.134 204.183 216.508C203.194 216.151 202.19 215.76 201.531 214.893C201.019 214.218 200.752 213.376 200.667 212.54C200.473 210.635 201.249 208.739 201.959 207.014C202.735 205.131 203.625 203.294 204.62 201.518C205.508 199.935 206.455 198.343 207.56 196.902C208.54 195.627 209.766 194.644 211.448 194.701C212.942 194.75 214.351 195.444 215.668 196.093L215.721 196.119C216.711 196.605 217.699 197.093 218.688 197.58C219.349 197.906 220.01 198.232 220.671 198.558C220.981 198.711 221.291 198.863 221.601 199.015C222.163 199.29 222.725 199.566 223.283 199.846L223.357 199.883C224.073 200.241 225.126 200.767 224.975 201.718C224.919 202.063 224.703 202.237 224.471 202.424C224.376 202.501 224.277 202.58 224.187 202.674C223.957 202.912 223.764 203.19 223.612 203.484C223.295 204.093 223.146 204.782 223.07 205.459C223.032 205.794 223.011 206.131 222.991 206.468C222.959 206.984 222.927 207.5 222.833 208.009C222.682 208.826 222.347 209.578 221.932 210.292C221.608 210.852 221.24 211.385 220.872 211.919C220.303 212.745 219.734 213.57 219.326 214.49C218.269 216.878 218.885 219.259 219.501 221.644C219.588 221.98 219.675 222.317 219.758 222.654C220.514 225.75 220.461 229.717 217.555 231.724C216.377 232.537 214.835 232.942 213.445 232.474C211.838 231.934 210.844 230.372 210.339 228.834C209.916 227.544 209.763 226.207 209.61 224.874C209.4 223.039 209.191 221.211 208.28 219.523C208.27 219.505 208.26 219.489 208.25 219.475Z" fill="url(#paint0_linear_788_454)"/>
<defs>
<linearGradient id="paint0_linear_788_454" x1="114.822" y1="84.3047" x2="138.559" y2="513.458" gradientUnits="userSpaceOnUse">
<stop stop-color="#023436"/>
<stop offset="0.34086" stop-color="#00F1B5" stop-opacity="0.16"/>
<stop offset="0.995488" stop-color="#023436"/>
</linearGradient>
</defs>
</svg>
