<svg width="711" height="679" viewBox="0 0 711 679" fill="none" xmlns="http://www.w3.org/2000/svg">
<path d="M452.946 115.187C465.906 110.456 479.233 105.724 493.193 105.59C504.542 105.481 515.825 108.234 526.061 113.08C548.072 123.502 564.183 143.07 571.496 166.162C579.361 190.999 577.408 218.067 568.198 242.249C558.933 266.578 542.985 287.771 524.154 305.536C504.363 324.207 481.817 339.622 461.538 357.729C451.401 366.778 441.805 376.54 433.8 387.553C426.294 397.878 420.439 409.21 416.198 421.244C400.374 466.136 405.399 516.009 385.999 559.9C366.484 604.056 322.475 635.998 274.799 642.347C268.438 643.194 262.058 643.362 255.661 643.764C250.168 644.109 244.796 644.124 239.357 643.164C229.229 641.376 219.732 636.852 211.588 630.627C193.738 616.982 183.038 596.11 180.154 574.045C172.863 518.27 208.1 469.903 233.452 423.65C247.112 398.724 258.791 372.341 261.632 343.771C264.507 314.852 259.658 285.95 255.56 257.4C251.666 230.282 248.299 202.536 252.899 175.282C256.895 151.601 267.076 127.671 285.99 112.101C302.745 98.3076 326.24 91.0612 347.549 97.1844C359.38 100.584 369.056 108.299 379.233 114.878C384.781 118.464 390.596 121.753 396.958 123.654C403.081 125.484 409.501 125.971 415.854 125.446C428.709 124.381 440.94 119.579 452.946 115.187C453.286 115.062 453.428 115.61 453.088 115.734C441.54 119.958 429.846 124.499 417.535 125.848C405.461 127.171 394.216 124.415 383.766 118.339C373.044 112.104 363.506 103.689 351.817 99.2042C340.986 95.0496 329.033 94.64 317.763 97.1185C293.918 102.363 275.15 119.342 264.394 140.849C252.591 164.453 250.14 191.373 251.665 217.376C253.317 245.532 259.263 273.201 261.846 301.26C263.117 315.063 263.585 328.994 262.29 342.813C261.056 355.97 258.055 368.84 253.659 381.293C235.366 433.114 195.854 475.472 183.407 529.629C177.839 553.857 177.961 580.525 189.523 603.059C199.268 622.054 216.753 638.009 238.065 642.343C243.553 643.46 249.04 643.631 254.611 643.266C261.587 642.811 268.552 642.653 275.486 641.687C287.351 640.033 298.992 636.787 310.043 632.169C332.462 622.8 352.56 607.807 367.736 588.813C382.909 569.822 391.585 547.489 396.507 523.865C401.262 501.045 403.061 477.748 407.148 454.816C411.279 431.634 418.125 408.976 431.733 389.487C446.485 368.358 466.755 351.993 486.764 336.103C507.315 319.781 528.124 303.478 544.387 282.665C560.733 261.747 572.711 236.772 575.305 210.127C577.824 184.236 571.698 156.775 554.98 136.387C539.947 118.054 516.743 105.802 492.787 106.16C479.023 106.366 465.872 111.066 453.089 115.734C452.748 115.859 452.607 115.311 452.946 115.187Z" fill="url(#paint0_linear_788_548)"/>
<path d="M446.155 121.662C458.719 117.074 471.641 112.487 485.173 112.357C496.177 112.251 507.118 114.921 517.041 119.62C538.381 129.725 554.001 148.697 561.091 171.085C568.716 195.164 566.822 221.406 557.894 244.85C548.912 268.438 533.452 288.984 515.195 306.206C496.009 324.307 474.151 339.251 454.493 356.803C444.666 365.576 435.365 375.039 427.605 385.714C420.329 395.723 414.653 406.708 410.541 418.374C395.2 461.894 400.072 510.243 381.265 552.794C362.345 595.601 319.678 626.568 273.458 632.724C267.291 633.546 261.105 633.708 254.903 634.098C249.577 634.433 244.369 634.447 239.095 633.516C229.274 631.782 220.066 627.397 212.17 621.361C194.864 608.131 184.492 587.896 181.695 566.504C174.626 512.431 208.787 465.54 233.364 420.699C246.607 396.537 257.928 370.962 260.682 343.266C263.469 315.232 258.769 287.215 254.795 259.539C251.02 233.247 247.756 206.349 252.216 179.926C256.091 156.967 265.962 133.766 284.299 118.672C300.544 105.298 323.324 98.2719 343.984 104.209C355.454 107.505 364.835 114.985 374.703 121.362C380.08 124.838 385.717 128.026 391.884 129.869C397.819 131.643 404.042 132.115 410.2 131.606C422.661 130.574 434.517 125.918 446.155 121.662C446.496 121.537 446.637 122.085 446.298 122.209C435.102 126.304 423.764 130.706 411.829 132.013C400.123 133.296 389.22 130.623 379.089 124.732C368.695 118.689 359.45 110.532 348.117 106.184C337.619 102.157 326.033 101.759 315.109 104.162C291.995 109.246 273.803 125.704 263.376 146.552C251.935 169.433 249.559 195.53 251.036 220.735C252.637 248.03 258.402 274.855 260.906 302.055C262.137 315.436 262.593 328.941 261.336 342.338C260.141 355.093 257.231 367.571 252.969 379.644C235.235 429.88 196.932 470.944 184.865 523.446C179.467 546.931 179.586 572.782 190.793 594.626C200.239 613.037 217.187 628.504 237.846 632.705C243.165 633.787 248.483 633.952 253.883 633.6C260.645 633.158 267.397 633.006 274.118 632.069C285.62 630.466 296.904 627.319 307.617 622.842C329.349 613.76 348.833 599.226 363.544 580.813C378.252 562.405 386.662 540.755 391.434 517.855C396.043 495.732 397.788 473.148 401.75 450.916C405.754 428.442 412.392 406.475 425.584 387.582C439.886 367.097 459.536 351.234 478.933 335.829C498.856 320.006 519.029 304.201 534.796 284.024C550.64 263.748 562.252 239.538 564.766 213.71C567.209 188.614 561.27 161.993 545.065 142.231C530.492 124.461 508.001 112.583 484.778 112.93C471.435 113.13 458.688 117.686 446.297 122.21C445.957 122.333 445.816 121.786 446.155 121.662Z" fill="url(#paint1_linear_788_548)"/>
<path d="M439.365 128.136C451.534 123.693 464.048 119.251 477.155 119.125C487.814 119.023 498.41 121.61 508.021 126.16C528.69 135.946 543.819 154.323 550.687 176.007C558.072 199.328 556.237 224.745 547.591 247.452C538.892 270.297 523.918 290.196 506.236 306.878C487.655 324.408 466.487 338.88 447.448 355.879C437.932 364.375 428.924 373.539 421.408 383.876C414.362 393.569 408.865 404.206 404.884 415.503C390.026 457.653 394.744 504.478 376.53 545.687C358.206 587.146 316.882 617.139 272.117 623.101C266.144 623.897 260.152 624.054 254.146 624.432C248.986 624.756 243.942 624.77 238.835 623.868C229.322 622.189 220.403 617.941 212.755 612.094C195.994 599.28 185.948 579.682 183.238 558.962C176.392 506.591 209.476 461.178 233.278 417.748C246.103 394.349 257.067 369.582 259.734 342.762C262.434 315.612 257.882 288.479 254.034 261.676C250.378 236.212 247.216 210.16 251.536 184.569C255.289 162.333 264.849 139.863 282.609 125.243C298.344 112.289 320.41 105.483 340.422 111.234C351.531 114.426 360.617 121.671 370.173 127.848C375.381 131.214 380.839 134.3 386.811 136.085C392.558 137.802 398.584 138.26 404.548 137.767C416.612 136.766 428.094 132.259 439.365 128.136C439.705 128.011 439.846 128.559 439.507 128.683C428.663 132.649 417.683 136.913 406.123 138.179C394.784 139.42 384.223 136.833 374.41 131.127C364.345 125.273 355.392 117.374 344.417 113.163C334.252 109.263 323.032 108.879 312.454 111.205C290.072 116.128 272.456 132.066 262.359 152.254C251.279 174.412 248.978 199.683 250.41 224.093C251.96 250.528 257.543 276.505 259.968 302.849C261.161 315.808 261.601 328.887 260.385 341.861C259.227 354.215 256.408 366.299 252.281 377.993C235.107 426.645 198.011 466.415 186.324 517.26C181.097 540.002 181.212 565.036 192.065 586.189C201.213 604.018 217.623 618.995 237.629 623.063C242.779 624.111 247.93 624.271 253.159 623.929C259.707 623.501 266.244 623.353 272.753 622.447C283.892 620.894 294.819 617.848 305.193 613.512C326.24 604.715 345.109 590.64 359.355 572.809C373.598 554.982 381.742 534.016 386.363 511.839C390.827 490.415 392.516 468.541 396.353 447.011C400.232 425.247 406.66 403.97 419.436 385.672C433.288 365.833 452.318 350.469 471.105 335.549C490.4 320.225 509.936 304.919 525.205 285.379C540.55 265.743 551.793 242.298 554.228 217.287C556.593 192.985 550.845 167.206 535.151 148.068C521.039 130.859 499.259 119.358 476.773 119.693C463.851 119.886 451.506 124.3 439.507 128.681C439.166 128.808 439.025 128.26 439.365 128.136Z" fill="url(#paint2_linear_788_548)"/>
<path d="M432.574 134.611C444.348 130.312 456.455 126.014 469.136 125.892C479.45 125.793 489.702 128.295 499.002 132.699C519 142.168 533.639 159.949 540.283 180.929C547.428 203.492 545.654 228.084 537.288 250.053C528.871 272.155 514.384 291.409 497.277 307.548C479.3 324.507 458.822 338.509 440.402 354.954C431.197 363.172 422.483 372.036 415.212 382.037C408.395 391.414 403.078 401.704 399.225 412.633C384.852 453.41 389.415 498.711 371.794 538.579C354.065 578.691 314.083 607.709 270.774 613.478C264.995 614.248 259.197 614.4 253.386 614.766C248.394 615.08 243.512 615.092 238.57 614.22C229.366 612.595 220.737 608.484 213.336 602.826C197.119 590.429 187.399 571.467 184.778 551.42C178.153 500.752 210.16 456.816 233.189 414.798C245.596 392.161 256.202 368.202 258.782 342.257C261.394 315.991 256.99 289.743 253.267 263.813C249.73 239.176 246.672 213.972 250.85 189.213C254.481 167.699 263.731 145.959 280.913 131.814C296.138 119.28 317.489 112.694 336.852 118.258C347.6 121.347 356.391 128.356 365.636 134.331C370.674 137.586 375.953 140.574 381.73 142.299C387.289 143.96 393.119 144.404 398.887 143.926C410.563 142.96 421.672 138.598 432.574 134.611C432.914 134.486 433.055 135.033 432.716 135.158C422.225 138.995 411.601 143.119 400.417 144.344C389.447 145.545 379.227 143.041 369.733 137.52C359.996 131.858 351.335 124.216 340.718 120.143C330.885 116.371 320.033 115.999 309.801 118.248C288.149 123.01 271.109 138.427 261.342 157.957C250.623 179.392 248.399 203.839 249.783 227.452C251.284 253.027 256.684 278.158 259.031 303.644C260.185 316.18 260.611 328.835 259.433 341.386C258.312 353.339 255.586 365.03 251.594 376.344C234.978 423.411 199.091 461.887 187.784 511.077C182.728 533.076 182.838 557.293 193.337 577.755C202.185 595.001 218.06 609.489 237.412 613.424C242.393 614.437 247.375 614.593 252.433 614.263C258.768 613.848 265.092 613.706 271.388 612.829C282.163 611.327 292.734 608.38 302.77 604.186C323.132 595.677 341.385 582.06 355.167 564.81C368.945 547.565 376.824 527.283 381.294 505.829C385.613 485.102 387.247 463.941 390.959 443.111C394.712 422.053 400.931 401.47 413.291 383.767C426.693 364.573 445.104 349.709 463.279 335.274C481.946 320.45 500.846 305.641 515.619 286.737C530.462 267.743 541.339 245.063 543.694 220.87C545.982 197.361 540.422 172.423 525.241 153.911C511.59 137.264 490.521 126.138 468.769 126.463C456.269 126.65 444.327 130.919 432.719 135.157C432.375 135.281 432.234 134.734 432.574 134.611Z" fill="url(#paint3_linear_788_548)"/>
<path d="M425.783 141.084C437.161 136.93 448.862 132.777 461.117 132.659C471.085 132.564 480.994 134.982 489.983 139.238C509.311 148.389 523.458 165.574 529.88 185.851C536.785 207.657 535.07 231.423 526.985 252.653C518.851 274.013 504.851 292.62 488.319 308.217C470.947 324.605 451.158 338.136 433.358 354.028C424.464 361.969 416.042 370.535 409.017 380.198C402.431 389.259 397.293 399.202 393.57 409.762C379.681 449.168 384.091 492.944 367.061 531.472C349.929 570.236 311.29 598.28 269.435 603.854C263.85 604.598 258.247 604.746 252.629 605.098C247.804 605.402 243.087 605.413 238.309 604.57C229.414 602.999 221.073 599.026 213.92 593.557C198.248 581.576 188.853 563.251 186.32 543.877C179.918 494.911 210.849 452.452 233.104 411.844C245.091 389.972 255.341 366.82 257.834 341.75C260.358 316.369 256.103 291.005 252.506 265.948C249.087 242.139 246.133 217.781 250.17 193.853C253.68 173.063 262.62 152.052 279.224 138.382C293.939 126.267 314.574 119.901 333.288 125.28C343.676 128.265 352.172 135.037 361.107 140.813C365.975 143.959 371.076 146.845 376.657 148.512C382.027 150.117 387.66 150.545 393.234 150.084C404.515 149.153 415.248 144.938 425.783 141.084C426.123 140.96 426.264 141.507 425.925 141.631C415.786 145.34 405.519 149.325 394.71 150.509C384.106 151.671 374.23 149.249 365.054 143.914C355.646 138.443 347.276 131.058 337.018 127.122C327.518 123.477 317.032 123.117 307.146 125.291C286.225 129.892 269.761 144.789 260.324 163.659C249.967 184.371 247.818 207.994 249.156 230.811C250.605 255.525 255.824 279.81 258.092 304.438C259.207 316.553 259.618 328.78 258.481 340.91C257.398 352.461 254.764 363.761 250.904 374.693C234.848 420.177 200.167 457.357 189.242 504.891C184.357 526.148 184.463 549.547 194.607 569.318C203.157 585.982 218.495 599.981 237.193 603.783C242.006 604.762 246.821 604.911 251.706 604.592C257.827 604.192 263.937 604.055 270.021 603.207C280.432 601.756 290.647 598.908 300.345 594.856C320.02 586.633 337.658 573.476 350.976 556.807C364.29 540.143 371.901 520.545 376.221 499.816C380.394 479.786 381.974 459.338 385.561 439.21C389.188 418.86 395.198 398.968 407.143 381.859C420.094 363.311 437.885 348.946 455.45 334.996C473.489 320.67 491.753 306.36 506.029 288.092C520.37 269.739 530.881 247.824 533.156 224.447C535.366 201.732 529.995 177.636 515.326 159.749C502.136 143.664 481.779 132.913 460.762 133.227C448.684 133.407 437.144 137.533 425.927 141.629C425.584 141.756 425.443 141.209 425.783 141.084Z" fill="url(#paint4_linear_788_548)"/>
<path d="M418.992 147.559C429.975 143.549 441.269 139.54 453.098 139.428C462.721 139.335 472.286 141.671 480.964 145.779C499.62 154.613 513.277 171.201 519.475 190.775C526.141 211.822 524.486 234.763 516.682 255.255C508.831 275.873 495.317 293.834 479.36 308.888C462.594 324.705 443.493 337.765 426.314 353.103C417.729 360.767 409.602 369.034 402.822 378.36C396.465 387.105 391.507 396.701 387.914 406.893C374.507 444.927 378.763 487.18 362.327 524.367C345.79 561.782 308.494 588.852 268.096 594.233C262.703 594.952 257.295 595.094 251.872 595.434C247.215 595.727 242.661 595.739 238.049 594.925C229.462 593.408 221.41 589.572 214.505 584.293C199.377 572.728 190.309 555.039 187.864 536.339C181.683 489.075 211.537 448.094 233.02 408.898C244.589 387.789 254.482 365.445 256.887 341.25C259.322 316.755 255.216 292.274 251.744 268.092C248.444 245.11 245.592 221.599 249.49 198.502C252.876 178.435 261.507 158.153 277.534 144.958C291.74 133.265 311.66 127.118 329.726 132.31C339.753 135.191 347.953 141.729 356.578 147.304C361.275 150.339 366.198 153.124 371.584 154.734C376.766 156.283 382.202 156.695 387.581 156.25C398.466 155.346 408.826 151.278 418.992 147.559C419.332 147.434 419.473 147.982 419.134 148.106C409.347 151.685 399.437 155.533 389.004 156.675C378.768 157.796 369.234 155.458 360.375 150.308C351.295 145.028 343.218 137.901 333.319 134.103C324.15 130.584 314.032 130.238 304.492 132.336C284.301 136.776 268.413 151.153 259.307 169.362C249.311 189.351 247.237 212.151 248.528 234.171C249.927 258.024 254.965 281.464 257.153 305.234C258.23 316.927 258.627 328.729 257.53 340.436C256.484 351.586 253.942 362.493 250.216 373.045C234.719 416.945 201.247 452.831 190.702 498.71C185.987 519.223 186.089 541.805 195.878 560.885C204.129 576.966 218.93 590.475 236.975 594.145C241.621 595.089 246.265 595.233 250.981 594.926C256.888 594.539 262.784 594.407 268.656 593.589C278.703 592.188 288.562 589.441 297.92 585.53C316.909 577.594 333.932 564.895 346.785 548.807C359.634 532.725 366.98 513.81 371.148 493.805C375.176 474.473 376.701 454.737 380.163 435.309C383.664 415.668 389.465 396.467 400.994 379.955C413.494 362.051 430.667 348.186 447.621 334.722C465.031 320.894 482.66 307.083 496.437 289.451C510.277 271.739 520.421 250.589 522.616 228.029C524.75 206.108 519.567 182.854 505.41 165.591C492.681 150.069 473.037 139.694 452.753 139.996C441.096 140.17 429.959 144.153 419.133 148.105C418.794 148.231 418.652 147.683 418.992 147.559Z" fill="url(#paint5_linear_788_548)"/>
<path d="M412.201 154.034C422.789 150.168 433.676 146.304 445.08 146.195C454.356 146.106 463.579 148.357 471.945 152.318C489.931 160.834 503.096 176.827 509.071 195.697C515.496 215.987 513.901 238.101 506.379 257.856C498.81 277.732 485.784 295.045 470.4 309.558C454.239 324.805 435.828 337.393 419.268 352.178C410.994 359.565 403.16 367.533 396.625 376.521C390.498 384.95 385.719 394.198 382.256 404.021C369.333 440.684 373.435 481.412 357.592 517.258C341.65 553.326 305.697 579.421 266.754 584.608C261.556 585.301 256.341 585.438 251.113 585.767C246.623 586.05 242.232 586.06 237.786 585.275C229.508 583.812 221.744 580.114 215.087 575.024C200.504 563.875 191.762 546.823 189.406 528.795C183.447 483.233 212.225 443.729 232.933 405.944C244.084 385.599 253.619 364.063 255.937 340.741C258.284 317.131 254.327 293.534 250.98 270.225C247.799 248.07 245.05 225.406 248.808 203.141C252.072 183.795 260.392 164.244 275.843 151.524C289.539 140.25 308.743 134.324 326.161 139.33C335.828 142.108 343.732 148.409 352.047 153.783C356.573 156.709 361.318 159.392 366.509 160.944C371.504 162.437 376.742 162.835 381.927 162.406C392.418 161.539 402.402 157.617 412.201 154.034C412.541 153.909 412.683 154.456 412.343 154.58C402.909 158.031 393.355 161.739 383.298 162.84C373.429 163.92 364.237 161.668 355.697 156.701C346.945 151.613 339.16 144.742 329.619 141.082C320.783 137.691 311.031 137.356 301.837 139.379C282.378 143.658 267.065 157.514 258.288 175.064C248.654 194.331 246.656 216.306 247.9 237.53C249.248 260.523 254.104 283.117 256.212 306.03C257.249 317.301 257.632 328.676 256.575 339.961C255.567 350.709 253.115 361.223 249.525 371.396C234.588 413.711 202.322 448.303 192.158 492.526C187.614 512.297 187.713 534.061 197.147 552.45C205.098 567.949 219.364 580.969 236.755 584.505C241.232 585.415 245.708 585.555 250.253 585.257C255.944 584.885 261.628 584.758 267.286 583.97C276.97 582.62 286.473 579.972 295.492 576.203C313.795 568.554 330.203 556.314 342.593 540.807C354.978 525.307 362.058 507.076 366.075 487.794C369.957 469.159 371.427 450.136 374.764 431.408C378.138 412.474 383.731 393.966 394.845 378.049C406.895 360.791 423.448 347.425 439.79 334.445C456.573 321.117 473.564 307.803 486.846 290.808C500.186 273.738 509.962 253.353 512.079 231.61C514.134 210.483 509.14 188.07 495.497 171.432C483.228 156.471 464.296 146.472 444.747 146.764C433.511 146.932 422.777 150.77 412.343 154.58C412.002 154.704 411.861 154.157 412.201 154.034Z" fill="url(#paint6_linear_788_548)"/>
<path d="M405.411 160.506C415.603 156.786 426.084 153.066 437.061 152.96C445.992 152.875 454.871 155.043 462.925 158.856C480.24 167.055 492.914 182.451 498.667 200.617C504.853 220.148 503.317 241.437 496.075 260.455C488.789 279.588 476.251 296.256 461.441 310.226C445.885 324.902 428.162 337.019 412.223 351.251C404.259 358.361 396.72 366.029 390.43 374.68C384.533 382.793 379.932 391.695 376.599 401.149C364.159 436.441 368.107 475.645 352.858 510.15C337.512 544.871 302.902 569.991 265.413 574.984C260.408 575.651 255.387 575.783 250.355 576.1C246.032 576.372 241.805 576.381 237.524 575.625C229.553 574.217 222.079 570.656 215.67 565.756C201.633 555.023 193.216 538.607 190.947 521.252C185.21 477.393 212.911 439.365 232.845 402.993C243.579 383.41 252.756 362.681 254.987 340.236C257.247 317.51 253.437 294.798 250.216 272.362C247.154 251.035 244.507 229.218 248.124 207.784C251.267 189.161 259.277 170.34 274.151 158.096C287.337 147.241 305.825 141.535 322.596 146.355C331.901 149.029 339.511 155.094 347.516 160.268C351.873 163.083 356.439 165.667 361.434 167.16C366.241 168.597 371.283 168.979 376.272 168.566C386.369 167.731 395.98 163.956 405.411 160.506C405.751 160.382 405.892 160.929 405.553 161.053C396.471 164.376 387.274 167.944 377.592 169.005C368.091 170.045 359.241 167.876 351.019 163.095C342.597 158.197 335.103 151.584 325.92 148.061C317.417 144.798 308.033 144.475 299.184 146.422C280.456 150.541 265.719 163.876 257.272 180.766C248 199.31 246.076 220.46 247.274 240.889C248.572 263.02 253.246 284.769 255.276 306.824C256.274 317.673 256.644 328.623 255.625 339.485C254.655 349.832 252.296 359.953 248.839 369.747C234.46 410.478 203.404 443.775 193.619 486.343C189.246 505.37 189.34 526.318 198.42 544.015C206.073 558.932 219.801 571.462 236.539 574.865C240.847 575.741 245.156 575.875 249.529 575.589C255.007 575.23 260.477 575.108 265.922 574.348C275.242 573.049 284.387 570.501 293.069 566.873C310.687 559.511 326.48 547.729 338.404 532.803C350.324 517.885 357.138 500.337 361.004 481.779C364.741 463.843 366.155 445.53 369.368 427.505C372.616 409.279 378 391.462 388.698 376.14C400.297 359.527 416.231 346.66 431.963 334.167C448.118 321.337 464.473 308.523 477.256 292.164C490.095 275.735 499.504 256.116 501.541 235.188C503.52 214.856 498.713 193.283 485.582 177.271C473.775 162.872 455.554 153.248 436.739 153.529C425.925 153.691 415.593 157.385 405.551 161.052C405.212 161.179 405.07 160.631 405.411 160.506Z" fill="url(#paint7_linear_788_548)"/>
<path d="M398.62 166.981C408.416 163.404 418.49 159.83 429.041 159.728C437.628 159.645 446.163 161.73 453.905 165.396C470.55 173.277 482.732 188.078 488.262 205.54C494.207 224.313 492.732 244.777 485.771 263.056C478.767 281.447 466.715 297.468 452.48 310.897C437.529 325.003 420.496 336.648 405.176 350.327C397.523 357.159 390.277 364.529 384.233 372.843C378.565 380.639 374.143 389.193 370.941 398.279C358.986 432.2 362.78 469.88 348.122 503.044C333.372 536.416 300.104 560.561 264.071 565.362C259.261 566.003 254.434 566.13 249.597 566.434C245.441 566.696 241.377 566.705 237.262 565.979C229.6 564.625 222.414 561.201 216.253 556.49C202.759 546.172 194.669 530.394 192.488 513.712C186.974 471.556 213.598 435.004 232.759 400.043C243.073 381.223 251.894 361.302 254.039 339.732C256.21 317.891 252.549 296.064 249.453 274.501C246.51 254.001 243.966 233.031 247.443 212.429C250.463 194.528 258.163 176.437 272.459 164.667C285.137 154.231 302.909 148.747 319.032 153.38C327.977 155.95 335.29 161.78 342.984 166.752C347.171 169.458 351.559 171.941 356.358 173.376C360.978 174.757 365.822 175.123 370.616 174.726C380.32 173.925 389.557 170.297 398.62 166.981C398.96 166.856 399.102 167.404 398.762 167.528C390.032 170.722 381.193 174.151 371.886 175.171C362.754 176.17 354.245 174.084 346.342 169.489C338.247 164.781 331.046 158.427 322.221 155.04C314.05 151.905 305.033 151.595 296.53 153.464C278.533 157.423 264.372 170.236 256.255 186.468C247.343 204.289 245.496 224.615 246.648 244.247C247.894 265.518 252.387 286.421 254.338 307.618C255.298 318.046 255.652 328.569 254.673 339.01C253.741 348.954 251.473 358.684 248.15 368.097C234.331 407.245 204.481 439.247 195.078 480.159C190.876 498.444 190.966 518.574 199.692 535.58C207.046 549.914 220.237 561.954 236.321 565.226C240.461 566.067 244.6 566.196 248.803 565.921C254.067 565.577 259.324 565.459 264.556 564.73C273.513 563.481 282.302 561.033 290.645 557.545C307.576 550.47 322.755 539.148 334.215 524.803C345.67 510.467 352.217 493.602 355.932 475.768C359.525 458.529 360.883 440.929 363.971 423.604C367.093 406.087 372.268 388.96 382.55 374.235C393.7 358.267 409.012 345.9 424.134 333.891C439.659 321.561 455.38 309.244 467.667 293.522C480.003 277.734 489.046 258.879 491.004 238.771C492.906 219.231 488.288 198.501 475.669 183.113C464.323 169.277 446.814 160.028 428.733 160.298C418.341 160.452 408.412 164.004 398.762 167.527C398.421 167.653 398.28 167.106 398.62 166.981Z" fill="url(#paint8_linear_788_548)"/>
<path d="M391.829 173.456C401.231 170.023 410.898 166.593 421.024 166.496C429.265 166.417 437.456 168.417 444.887 171.936C460.861 179.5 472.552 193.705 477.859 210.463C483.563 228.479 482.148 248.117 475.469 265.657C468.748 283.307 457.183 298.681 443.523 311.568C429.176 325.102 412.833 336.277 398.133 349.402C390.79 355.957 383.837 363.028 378.039 371.005C372.601 378.485 368.358 386.692 365.285 395.409C353.813 427.957 357.453 464.115 343.387 495.937C329.233 527.961 297.308 551.133 262.731 555.739C258.114 556.354 253.481 556.476 248.838 556.769C244.849 557.019 240.949 557.028 237 556.331C229.645 555.032 222.749 551.745 216.835 547.223C203.886 537.322 196.123 522.18 194.029 506.171C188.737 465.715 214.283 430.642 232.672 397.093C242.567 379.037 251.031 359.924 253.088 339.228C255.172 318.271 251.66 297.328 248.689 276.639C245.865 256.966 243.424 236.842 246.76 217.072C249.66 199.894 257.048 182.531 270.767 171.238C282.934 161.223 299.991 155.958 315.466 160.405C324.049 162.873 331.069 168.467 338.452 173.239C342.468 175.835 346.677 178.216 351.282 179.592C355.714 180.917 360.361 181.269 364.961 180.889C374.272 180.118 383.133 176.636 391.829 173.456C392.17 173.331 392.311 173.878 391.971 174.003C383.593 177.068 375.111 180.359 366.18 181.336C357.415 182.296 349.248 180.293 341.663 175.883C333.897 171.367 326.988 165.27 318.521 162.02C310.682 159.012 302.033 158.714 293.876 160.508C276.61 164.305 263.025 176.598 255.238 192.171C246.687 209.269 244.915 228.771 246.02 247.607C247.218 268.016 251.528 288.074 253.4 308.414C254.321 318.419 254.661 328.518 253.722 338.536C252.828 348.08 250.652 357.415 247.463 366.448C234.204 404.012 205.562 434.72 196.539 473.975C192.507 491.517 192.594 510.83 200.965 527.146C208.02 540.898 220.674 552.448 236.105 555.586C240.077 556.394 244.048 556.517 248.079 556.253C253.129 555.923 258.171 555.809 263.191 555.11C271.785 553.912 280.218 551.564 288.222 548.218C304.468 541.429 319.03 530.566 330.027 516.803C341.017 503.048 347.298 486.869 350.863 469.757C354.31 453.215 355.614 436.327 358.576 419.704C361.572 402.895 366.538 386.461 376.405 372.329C387.103 357.007 401.798 345.139 416.308 333.616C431.206 321.785 446.29 309.967 458.079 294.88C469.914 279.734 478.591 261.644 480.468 242.352C482.292 223.607 477.863 203.717 465.757 188.955C454.871 175.68 438.074 166.806 420.728 167.066C410.757 167.215 401.231 170.623 391.972 174.004C391.63 174.128 391.49 173.58 391.829 173.456Z" fill="url(#paint9_linear_788_548)"/>
<path d="M385.038 179.93C394.045 176.642 403.304 173.357 413.004 173.263C420.9 173.187 428.748 175.105 435.868 178.476C451.172 185.722 462.372 199.33 467.456 215.384C472.921 232.642 471.565 251.455 465.166 268.258C458.728 285.165 447.65 299.892 434.564 312.238C420.822 325.201 405.168 335.905 391.088 348.476C384.056 354.754 377.396 361.525 371.841 369.165C366.634 376.328 362.57 384.189 359.628 392.537C348.638 423.714 352.126 458.348 338.652 488.83C325.093 519.507 294.512 541.703 261.39 546.116C256.966 546.706 252.528 546.822 248.081 547.102C244.259 547.342 240.523 547.351 236.739 546.682C229.692 545.437 223.084 542.288 217.42 537.955C205.016 528.47 197.578 513.964 195.572 498.628C190.502 459.876 214.972 426.279 232.585 394.141C242.063 376.848 250.17 358.543 252.14 338.722C254.135 318.65 250.772 298.591 247.926 278.775C245.22 259.93 242.883 240.653 246.079 221.715C248.856 205.259 255.935 188.628 269.077 177.809C280.734 168.213 297.076 163.169 311.902 167.429C320.124 169.792 326.849 175.151 333.922 179.723C337.767 182.209 341.798 184.489 346.208 185.808C350.452 187.076 354.903 187.413 359.307 187.049C368.223 186.311 376.71 182.975 385.038 179.93C385.379 179.805 385.52 180.353 385.181 180.477C377.155 183.413 369.029 186.565 360.474 187.501C352.076 188.42 344.252 186.502 336.985 182.277C329.548 177.952 322.93 172.112 314.822 168.999C307.317 166.119 299.034 165.834 291.223 167.552C274.688 171.188 261.679 182.961 254.222 197.873C246.033 214.248 244.337 232.926 245.395 250.965C246.542 270.515 250.67 289.726 252.463 309.208C253.345 318.792 253.671 328.464 252.771 338.059C251.914 347.202 249.83 356.144 246.775 364.798C234.074 400.777 206.64 430.19 197.998 467.791C194.137 484.59 194.219 503.085 202.236 518.711C208.992 531.88 221.11 542.941 235.888 545.947C239.69 546.72 243.493 546.837 247.354 546.585C252.19 546.268 257.019 546.161 261.826 545.49C270.056 544.343 278.133 542.093 285.798 538.89C301.359 532.389 315.305 521.984 325.837 508.801C336.362 495.628 342.378 480.132 345.792 463.745C349.094 447.9 350.343 431.725 353.18 415.803C356.049 399.701 360.806 383.959 370.258 370.423C380.505 355.746 394.581 344.378 408.48 333.34C422.75 322.007 437.198 310.687 448.489 296.236C459.824 281.732 468.133 264.407 469.932 245.931C471.679 227.98 467.439 208.932 455.846 194.794C445.421 182.082 429.336 173.584 412.724 173.831C403.175 173.974 394.051 177.238 385.183 180.475C384.84 180.601 384.698 180.053 385.038 179.93Z" fill="url(#paint10_linear_788_548)"/>
<path d="M378.247 186.404C386.858 183.26 395.712 180.12 404.985 180.03C412.535 179.958 420.039 181.792 426.848 185.015C441.48 191.944 452.189 204.956 457.05 220.306C462.275 236.806 460.979 254.794 454.861 270.858C448.705 287.022 438.114 301.104 425.603 312.907C412.467 325.3 397.502 335.532 384.042 347.55C377.32 353.551 370.954 360.023 365.645 367.326C360.668 374.173 356.783 381.686 353.97 389.666C343.464 419.472 346.798 452.581 333.917 481.723C320.954 511.052 291.716 532.273 260.049 536.492C255.818 537.055 251.575 537.168 247.321 537.435C243.667 537.665 240.094 537.672 236.476 537.033C229.737 535.843 223.419 532.831 218.002 528.688C206.142 519.618 199.031 505.75 197.113 491.087C192.265 454.037 215.657 421.917 232.498 391.191C241.558 374.662 249.307 357.164 251.19 338.219C253.098 319.033 249.882 299.858 247.163 280.914C244.576 262.896 242.341 244.467 245.397 226.36C248.052 210.627 254.821 194.725 267.385 184.381C278.533 175.205 294.159 170.381 308.337 174.455C316.199 176.714 322.627 181.837 329.39 186.208C333.067 188.584 336.919 190.764 341.133 192.024C345.19 193.237 349.442 193.559 353.652 193.21C362.174 192.504 370.287 189.316 378.247 186.404C378.587 186.279 378.729 186.827 378.389 186.951C370.716 189.758 362.947 192.771 354.766 193.667C346.736 194.545 339.255 192.71 332.306 188.669C325.196 184.535 318.872 178.952 311.121 175.979C303.947 173.226 296.031 172.952 288.566 174.595C272.762 178.071 260.329 189.322 253.201 203.576C245.374 219.228 243.753 237.082 244.764 254.323C245.861 273.012 249.807 291.378 251.522 310.002C252.365 319.164 252.677 328.411 251.816 337.583C250.997 346.325 249.005 354.874 246.084 363.149C233.942 397.544 207.716 425.662 199.455 461.607C195.765 477.663 195.842 495.34 203.504 510.275C209.962 522.862 221.543 533.433 235.667 536.306C239.301 537.045 242.935 537.158 246.625 536.916C251.247 536.613 255.862 536.51 260.457 535.87C268.324 534.774 276.044 532.623 283.371 529.562C298.245 523.347 311.577 513.402 321.645 500.8C331.705 488.208 337.454 473.396 340.718 457.733C343.875 442.586 345.069 427.123 347.781 411.902C350.524 396.508 355.072 381.457 364.108 368.516C373.906 354.484 387.36 343.616 400.649 333.064C414.29 322.231 428.102 311.409 438.897 297.595C449.731 283.73 457.673 267.171 459.391 249.513C461.061 232.355 457.01 214.148 445.929 200.636C435.965 188.485 420.593 180.363 404.714 180.6C395.587 180.736 386.866 183.857 378.389 186.951C378.049 187.076 377.908 186.528 378.247 186.404Z" fill="url(#paint11_linear_788_548)"/>
<path d="M371.456 192.878C379.671 189.879 388.118 186.883 396.967 186.798C404.171 186.729 411.333 188.478 417.829 191.554C431.79 198.165 442.008 210.582 446.647 225.228C451.632 240.97 450.396 258.132 444.559 273.459C438.686 288.882 428.582 302.316 416.645 313.577C404.113 325.399 389.838 335.16 376.997 346.624C370.586 352.348 364.514 358.522 359.45 365.487C354.702 372.018 350.997 379.184 348.314 386.796C338.291 415.23 341.471 446.815 329.183 474.615C316.816 502.596 288.92 522.843 258.708 526.869C254.671 527.406 250.622 527.514 246.564 527.769C243.077 527.988 239.667 527.995 236.214 527.385C229.784 526.25 223.754 523.374 218.585 519.421C207.27 510.767 200.485 497.535 198.654 483.546C194.029 448.197 216.345 417.554 232.411 388.24C241.052 372.475 248.443 355.785 250.24 337.713C252.061 319.411 248.993 301.12 246.398 283.051C243.931 265.861 241.798 248.278 244.714 231.002C247.247 215.992 253.705 200.82 265.693 190.951C276.33 182.194 291.242 177.589 304.772 181.478C312.272 183.633 318.406 188.521 324.858 192.691C328.364 194.957 332.038 197.036 336.058 198.238C339.927 199.394 343.982 199.701 347.996 199.368C356.126 198.696 363.864 195.655 371.456 192.878C371.797 192.754 371.938 193.301 371.598 193.425C364.277 196.103 356.866 198.978 349.06 199.832C341.398 200.671 334.258 198.919 327.627 195.064C320.846 191.121 314.814 185.795 307.421 182.959C300.581 180.333 293.031 180.073 285.912 181.638C270.838 184.954 258.981 195.684 252.183 209.279C244.717 224.209 243.172 241.238 244.136 257.684C245.182 275.512 248.947 293.032 250.582 310.798C251.386 319.538 251.683 328.358 250.863 337.109C250.081 345.45 248.181 353.607 245.395 361.5C233.812 394.311 208.793 421.135 200.912 455.425C197.393 470.738 197.467 487.598 204.774 501.842C210.933 513.846 221.977 523.929 235.448 526.669C238.913 527.373 242.38 527.479 245.898 527.249C250.306 526.961 254.708 526.862 259.089 526.252C266.593 525.207 273.956 523.156 280.945 520.236C295.133 514.307 307.849 504.82 317.453 492.8C327.048 480.79 332.531 466.662 335.644 451.722C338.655 437.273 339.793 422.522 342.381 408.001C344.999 393.315 349.338 378.957 357.957 366.611C367.304 353.224 380.14 342.856 392.817 332.788C405.831 322.454 419.006 312.131 429.304 298.952C439.636 285.73 447.211 269.936 448.85 253.095C450.443 236.73 446.58 219.366 436.012 206.478C426.509 194.89 411.848 187.142 396.705 187.368C387.998 187.499 379.68 190.475 371.596 193.427C371.258 193.55 371.117 193.003 371.456 192.878Z" fill="url(#paint12_linear_788_548)"/>
<path d="M364.666 199.353C372.485 196.498 380.526 193.646 388.948 193.566C395.807 193.5 402.624 195.166 408.809 198.094C422.1 204.387 431.827 216.209 436.242 230.151C440.987 245.135 439.811 261.471 434.255 276.06C428.665 290.74 419.048 303.528 407.686 314.248C395.759 325.499 382.173 334.789 369.952 345.7C363.852 351.146 358.073 357.021 353.255 363.649C348.737 369.863 345.211 376.683 342.657 383.925C333.119 410.988 336.144 441.049 324.449 467.509C312.677 494.142 286.123 513.414 257.367 517.246C253.525 517.757 249.67 517.86 245.806 518.103C242.486 518.312 239.241 518.318 235.952 517.737C229.83 516.656 224.09 513.917 219.169 510.154C208.398 501.916 201.939 489.321 200.197 476.005C195.793 442.359 217.033 413.192 232.326 385.289C240.548 370.287 247.583 354.405 249.293 337.208C251.025 319.791 248.106 302.384 245.637 285.188C243.288 268.825 241.258 252.089 244.034 235.645C246.445 221.358 252.593 206.914 264.004 197.52C274.131 189.183 288.328 184.8 301.21 188.501C308.35 190.553 314.187 195.204 320.33 199.175C323.665 201.33 327.16 203.309 330.985 204.452C334.666 205.553 338.524 205.845 342.344 205.529C350.078 204.89 357.441 201.996 364.666 199.353C365.006 199.228 365.147 199.776 364.808 199.9C357.839 202.449 350.783 205.185 343.354 205.997C336.061 206.795 329.262 205.128 322.95 201.457C316.498 197.706 310.757 192.637 303.722 189.937C297.213 187.439 290.031 187.191 283.258 188.681C268.917 191.835 257.635 202.045 251.167 214.98C244.063 229.187 242.592 245.392 243.51 261.041C244.505 278.009 248.089 294.682 249.645 311.592C250.411 319.909 250.693 328.305 249.913 336.632C249.169 344.57 247.361 352.335 244.708 359.849C233.685 391.076 209.874 416.605 202.373 449.239C199.024 463.809 199.094 479.853 206.047 493.405C211.907 504.827 222.415 514.42 235.232 517.027C238.529 517.697 241.827 517.798 245.174 517.579C249.368 517.305 253.557 517.212 257.725 516.631C264.864 515.636 271.872 513.684 278.522 510.906C292.024 505.264 304.126 496.236 313.264 484.797C322.395 473.369 327.612 459.925 330.574 445.709C333.439 431.957 334.523 417.918 336.986 404.099C339.477 390.121 343.607 376.454 351.812 364.704C360.708 351.962 372.926 342.093 384.992 332.511C397.377 322.674 409.916 312.85 419.717 300.308C429.548 287.727 436.757 272.699 438.316 256.674C439.831 241.104 436.156 224.58 426.101 212.317C417.058 201.291 403.11 193.919 388.7 194.134C380.416 194.258 372.5 197.09 364.806 199.899C364.467 200.023 364.326 199.477 364.666 199.353Z" fill="url(#paint13_linear_788_548)"/>
<path d="M357.874 205.827C365.298 203.116 372.932 200.41 380.928 200.332C387.441 200.27 393.915 201.852 399.789 204.633C412.409 210.609 421.645 221.834 425.836 235.073C430.341 249.299 429.224 264.81 423.95 278.661C418.643 292.598 409.513 304.741 398.725 314.918C387.403 325.599 374.506 334.417 362.905 344.774C357.115 349.944 351.629 355.519 347.057 361.81C342.769 367.709 339.422 374.18 336.999 381.055C327.943 406.746 330.815 435.283 319.713 460.402C308.537 485.687 283.326 503.985 256.025 507.622C252.376 508.108 248.716 508.206 245.046 508.437C241.893 508.635 238.811 508.641 235.689 508.09C229.875 507.063 224.423 504.463 219.75 500.887C209.525 493.065 203.392 481.107 201.736 468.463C197.555 436.52 217.717 408.83 232.237 382.339C240.041 368.099 246.718 353.026 248.341 336.704C249.985 320.172 247.215 303.649 244.871 287.327C242.641 271.791 240.714 255.902 243.35 240.289C245.639 226.725 251.476 213.011 262.311 204.093C271.929 196.175 285.41 192.012 297.642 195.528C304.422 197.476 309.965 201.891 315.796 205.66C318.961 207.707 322.278 209.584 325.907 210.669C329.4 211.712 333.061 211.989 336.686 211.69C344.029 211.083 351.019 208.335 357.874 205.827C358.215 205.702 358.356 206.249 358.016 206.373C351.399 208.793 344.701 211.391 337.647 212.163C330.72 212.921 324.265 211.338 318.271 207.852C312.147 204.291 306.698 199.48 300.022 196.917C293.846 194.547 287.031 194.311 280.604 195.725C266.993 198.718 256.288 208.408 250.149 220.684C243.406 234.167 242.012 249.548 242.883 264.401C243.827 280.508 247.229 296.336 248.707 312.387C249.434 320.283 249.702 328.252 248.96 336.158C248.254 343.695 246.536 351.066 244.018 358.201C233.554 387.844 210.951 412.079 203.831 443.057C200.653 456.884 200.719 472.11 207.317 484.971C212.878 495.81 222.849 504.914 235.012 507.388C238.141 508.024 241.27 508.119 244.446 507.912C248.426 507.652 252.401 507.563 256.357 507.012C263.133 506.069 269.783 504.217 276.096 501.58C288.912 496.225 300.399 487.655 309.074 476.798C317.739 465.951 322.69 453.19 325.502 439.698C328.222 426.643 329.251 413.316 331.588 400.198C333.953 386.928 337.875 373.954 345.664 362.797C354.11 350.7 365.707 341.332 377.163 332.235C388.92 322.898 400.823 313.571 410.126 301.666C419.456 289.727 426.298 275.462 427.778 260.255C429.216 245.479 425.73 229.796 416.187 218.159C407.606 207.694 394.369 200.697 380.694 200.902C372.832 201.02 365.318 203.708 358.016 206.375C357.676 206.498 357.535 205.951 357.874 205.827Z" fill="url(#paint14_linear_788_548)"/>
<path d="M351.083 212.301C358.112 209.735 365.339 207.172 372.91 207.1C379.078 207.04 385.208 208.54 390.77 211.174C402.72 216.831 411.465 227.461 415.435 239.997C419.7 253.464 418.642 268.149 413.649 281.263C408.624 294.458 399.981 305.953 389.767 315.589C379.05 325.699 366.843 334.046 355.862 343.85C350.383 348.743 345.191 354.019 340.863 359.972C336.805 365.554 333.637 371.679 331.344 378.185C322.771 402.505 325.489 429.518 314.98 453.296C304.399 477.234 280.531 494.557 254.687 498.001C251.232 498.461 247.766 498.554 244.291 498.772C241.305 498.96 238.386 498.964 235.43 498.442C229.924 497.47 224.762 495.007 220.336 491.62C210.655 484.214 204.849 472.893 203.281 460.922C199.321 430.681 218.408 404.468 232.153 379.388C239.538 365.913 245.858 351.646 247.395 336.199C248.951 320.551 246.328 304.913 244.11 289.464C241.998 274.756 240.175 259.713 242.67 244.932C244.837 232.09 250.365 219.106 260.62 210.663C269.729 203.165 282.495 199.223 294.079 202.552C300.497 204.396 305.745 208.577 311.266 212.145C314.26 214.081 317.399 215.858 320.833 216.884C324.138 217.872 327.602 218.134 331.032 217.85C337.98 217.276 344.595 214.674 351.083 212.301C351.424 212.176 351.565 212.724 351.226 212.848C344.961 215.139 338.62 217.598 331.941 218.329C325.382 219.046 319.268 217.546 313.592 214.246C307.797 210.876 302.641 206.323 296.323 203.898C290.48 201.654 284.031 201.431 277.95 202.768C265.069 205.6 254.941 214.769 249.132 226.387C242.75 239.147 241.431 253.704 242.256 267.761C243.15 283.007 246.369 297.989 247.769 313.183C248.457 320.656 248.71 328.2 248.009 335.684C247.341 342.819 245.716 349.798 243.332 356.553C233.426 384.612 212.031 407.551 205.292 436.874C202.285 449.958 202.346 464.366 208.59 476.537C213.853 486.794 223.286 495.407 234.796 497.749C237.756 498.351 240.717 498.441 243.723 498.244C247.489 497.998 251.25 497.914 254.993 497.393C261.406 496.499 267.7 494.748 273.673 492.252C285.803 487.185 296.675 479.074 304.885 468.797C313.087 458.532 317.771 446.455 320.431 433.686C323.006 421.329 323.98 408.714 326.193 396.297C328.432 383.736 332.144 371.452 339.517 360.892C347.513 349.44 358.491 340.572 369.335 331.959C380.464 323.121 391.731 314.293 400.538 303.024C409.367 291.725 415.841 278.227 417.242 263.836C418.602 249.854 415.306 235.013 406.275 224C398.154 214.098 385.63 207.477 372.688 207.671C365.247 207.781 358.137 210.327 351.227 212.85C350.885 212.973 350.744 212.425 351.083 212.301Z" fill="url(#paint15_linear_788_548)"/>
<path d="M344.293 218.775C350.926 216.354 357.746 213.936 364.891 213.868C370.714 213.811 376.501 215.227 381.752 217.713C393.03 223.053 401.284 233.087 405.031 244.919C409.055 257.629 408.058 271.488 403.345 283.864C398.604 296.317 390.447 307.165 380.808 316.259C370.696 325.798 359.177 333.674 348.816 342.925C343.647 347.541 338.749 352.518 334.666 358.134C330.838 363.399 327.849 369.178 325.686 375.314C317.597 398.262 320.162 423.751 310.245 446.189C300.26 468.779 277.735 485.127 253.344 488.377C250.082 488.812 246.812 488.9 243.531 489.106C240.712 489.284 237.958 489.287 235.167 488.795C229.969 487.877 225.096 485.551 220.918 482.354C211.781 475.365 206.301 464.679 204.821 453.382C201.085 424.843 219.093 400.108 232.065 376.44C239.032 363.728 244.996 350.269 246.444 335.697C247.912 320.934 245.439 306.18 243.347 291.605C241.354 277.724 239.634 263.529 241.987 249.579C244.033 237.459 249.25 225.205 258.929 217.238C267.527 210.16 279.578 206.437 290.515 209.58C296.573 211.321 301.525 215.266 306.735 218.633C309.56 220.459 312.519 222.136 315.758 223.103C318.876 224.034 322.143 224.282 325.377 224.014C331.932 223.469 338.173 221.014 344.293 218.775C344.633 218.651 344.774 219.198 344.435 219.322C338.523 221.484 332.538 223.804 326.235 224.494C320.045 225.171 314.272 223.755 308.915 220.64C303.448 217.461 298.584 213.166 292.624 210.877C287.113 208.762 281.031 208.55 275.296 209.812C263.147 212.485 253.594 221.132 248.115 232.089C242.095 244.127 240.851 257.86 241.63 271.12C242.473 285.505 245.511 299.642 246.831 313.978C247.481 321.029 247.719 328.147 247.057 335.207C246.426 341.942 244.893 348.528 242.643 354.903C233.297 381.377 213.109 403.023 206.75 430.69C203.914 443.031 203.971 456.623 209.86 468.102C214.823 477.777 223.721 485.901 234.578 488.109C237.369 488.677 240.161 488.761 242.996 488.576C246.548 488.344 250.096 488.265 253.626 487.774C259.676 486.931 265.613 485.278 271.247 482.924C282.692 478.143 292.948 470.491 300.694 460.796C308.43 451.113 312.848 439.72 315.359 427.675C317.789 416.016 318.708 404.113 320.795 392.396C322.908 380.542 326.412 368.951 333.369 358.986C340.914 348.179 351.273 339.81 361.507 331.683C372.006 323.344 382.638 315.015 390.948 304.381C399.275 293.724 405.384 280.99 406.704 267.417C407.988 254.229 404.879 240.228 396.361 229.841C388.702 220.501 376.888 214.255 364.682 214.437C357.663 214.542 350.954 216.943 344.436 219.323C344.095 219.447 343.953 218.9 344.293 218.775Z" fill="url(#paint16_linear_788_548)"/>
<path d="M337.502 225.25C343.741 222.973 350.154 220.699 356.871 220.635C362.349 220.582 367.792 221.913 372.731 224.252C383.34 229.274 391.101 238.713 394.625 249.841C398.41 261.792 397.473 274.827 393.042 286.464C388.582 298.175 380.914 308.377 371.848 316.928C362.341 325.898 351.511 333.301 341.77 341.999C336.912 346.337 332.308 351.015 328.469 356.294C324.871 361.244 322.061 366.675 320.028 372.443C312.422 394.02 314.832 417.985 305.508 439.081C296.12 460.323 274.937 475.697 252.002 478.754C248.934 479.163 245.857 479.245 242.772 479.438C240.12 479.606 237.529 479.609 234.903 479.145C230.013 478.282 225.429 476.093 221.498 473.086C212.907 466.513 207.752 456.464 206.36 445.84C202.846 419.003 219.777 395.744 231.976 373.487C238.525 361.538 244.13 348.888 245.493 335.19C246.874 321.312 244.548 307.442 242.581 293.741C240.707 280.687 239.089 267.339 241.303 254.221C243.226 242.824 248.133 231.3 257.235 223.806C265.324 217.148 276.658 213.646 286.948 216.603C292.644 218.24 297.302 221.948 302.202 225.116C304.857 226.831 307.638 228.407 310.682 229.317C313.612 230.192 316.681 230.425 319.721 230.173C325.883 229.661 331.749 227.354 337.502 225.25C337.842 225.125 337.984 225.673 337.644 225.797C332.084 227.831 326.457 230.011 320.529 230.659C314.706 231.296 309.276 229.963 304.237 227.033C299.098 224.045 294.526 220.007 288.924 217.856C283.745 215.868 278.031 215.67 272.641 216.855C261.224 219.366 252.246 227.493 247.097 237.791C241.438 249.107 240.27 262.014 241.001 274.479C241.794 288.004 244.65 301.295 245.891 314.772C246.5 321.402 246.727 328.094 246.104 334.732C245.51 341.065 244.069 347.259 241.953 353.253C233.166 378.144 214.186 398.494 208.208 424.506C205.542 436.104 205.595 448.878 211.13 459.667C215.795 468.759 224.156 476.394 234.358 478.469C236.981 479.002 239.606 479.082 242.269 478.908C245.607 478.69 248.941 478.616 252.26 478.154C257.945 477.361 263.527 475.809 268.823 473.597C279.582 469.102 289.222 461.909 296.505 452.795C303.777 443.694 307.929 432.983 310.289 421.663C312.573 410.701 313.437 399.51 315.4 388.496C317.386 377.35 320.681 366.451 327.223 357.081C334.317 346.919 344.057 339.05 353.679 331.408C363.551 323.568 373.546 315.736 381.358 305.739C389.185 295.723 394.925 283.754 396.167 270.997C397.374 258.602 394.454 245.444 386.448 235.682C379.249 226.904 368.148 221.033 356.676 221.205C350.078 221.304 343.772 223.561 337.645 225.799C337.303 225.921 337.162 225.373 337.502 225.25Z" fill="url(#paint17_linear_788_548)"/>
<path d="M330.712 231.723C336.554 229.59 342.561 227.462 348.854 227.402C353.986 227.353 359.086 228.6 363.714 230.791C373.651 235.496 380.922 244.338 384.223 254.762C387.768 265.956 386.89 278.165 382.74 289.064C378.564 300.033 371.381 309.588 362.891 317.599C353.99 325.997 343.849 332.929 334.727 341.075C330.179 345.136 325.868 349.515 322.276 354.457C318.907 359.09 316.277 364.174 314.374 369.574C307.252 389.779 309.509 412.22 300.777 431.975C291.984 451.869 272.144 466.269 250.665 469.132C247.79 469.515 244.908 469.592 242.017 469.773C239.533 469.929 237.105 469.933 234.644 469.498C230.062 468.689 225.768 466.637 222.085 463.82C214.038 457.663 209.21 448.25 207.905 438.3C204.613 413.165 220.468 391.385 231.893 370.539C238.024 359.353 243.272 347.51 244.547 334.687C245.84 321.693 243.663 308.707 241.822 295.88C240.066 283.654 238.551 271.152 240.625 258.865C242.427 248.191 247.024 237.396 255.549 230.379C263.128 224.14 273.747 220.859 283.388 223.629C288.724 225.163 293.086 228.636 297.676 231.602C300.16 233.208 302.763 234.683 305.611 235.535C308.354 236.354 311.226 236.571 314.071 236.335C319.834 235.855 325.326 233.694 330.712 231.723C331.052 231.598 331.193 232.146 330.854 232.27C325.646 234.176 320.375 236.217 314.823 236.824C309.367 237.42 304.279 236.171 299.558 233.426C294.748 230.629 290.467 226.848 285.223 224.835C280.377 222.973 275.03 222.788 269.986 223.896C259.299 226.247 250.898 233.854 246.077 243.492C240.78 254.084 239.688 266.167 240.372 277.836C241.114 290.501 243.789 302.945 244.951 315.565C245.522 321.774 245.734 328.04 245.151 334.255C244.595 340.186 243.245 345.987 241.264 351.602C233.037 374.91 215.265 393.964 209.667 418.321C207.172 429.175 207.222 441.132 212.402 451.231C216.768 459.74 224.592 466.886 234.141 468.827C236.596 469.327 239.051 469.399 241.543 469.237C244.667 469.033 247.787 468.964 250.892 468.532C256.214 467.79 261.44 466.338 266.397 464.266C276.47 460.059 285.495 453.325 292.313 444.791C299.12 436.271 303.007 426.245 305.214 415.648C307.353 405.384 308.162 394.906 310 384.591C311.86 374.154 314.946 363.945 321.073 355.17C327.717 345.654 336.837 338.284 345.849 331.127C355.093 323.786 364.452 316.454 371.767 307.092C379.092 297.719 384.467 286.514 385.629 274.575C386.758 262.974 384.027 250.657 376.533 241.52C369.796 233.303 359.406 227.808 348.669 227.969C342.492 228.062 336.59 230.176 330.854 232.27C330.512 232.395 330.371 231.848 330.712 231.723Z" fill="url(#paint18_linear_788_548)"/>
<path d="M323.921 238.198C329.368 236.209 334.969 234.226 340.835 234.169C345.621 234.123 350.378 235.288 354.694 237.331C363.961 241.718 370.74 249.964 373.818 259.685C377.123 270.121 376.306 281.504 372.435 291.665C368.541 301.891 361.846 310.8 353.931 318.268C345.635 326.095 336.183 332.558 327.682 340.148C323.445 343.932 319.427 348.012 316.079 352.616C312.941 356.934 310.489 361.67 308.715 366.701C302.077 385.535 304.179 406.452 296.041 424.866C287.844 443.412 269.347 456.837 249.322 459.506C246.642 459.863 243.954 459.935 241.257 460.105C238.94 460.25 236.676 460.252 234.382 459.848C230.108 459.093 226.102 457.179 222.667 454.551C215.165 448.809 210.662 440.034 209.447 430.755C206.377 407.323 221.155 387.019 231.806 367.585C237.518 357.163 242.41 346.128 243.598 334.18C244.802 322.071 242.774 309.97 241.058 298.015C239.421 286.616 238.009 274.962 239.943 263.505C241.622 253.553 245.909 243.49 253.857 236.946C260.925 231.127 270.83 228.066 279.821 230.649C284.796 232.079 288.864 235.317 293.142 238.082C295.456 239.579 297.88 240.952 300.534 241.745C303.089 242.508 305.764 242.71 308.414 242.491C313.786 242.049 318.903 240.034 323.921 238.198C324.261 238.073 324.403 238.62 324.063 238.745C319.207 240.521 314.293 242.424 309.117 242.989C304.028 243.545 299.283 242.38 294.88 239.82C290.399 237.214 286.41 233.691 281.525 231.814C277.011 230.081 272.031 229.906 267.333 230.94C257.377 233.13 249.552 240.216 245.062 249.195C240.127 259.064 239.109 270.324 239.747 281.196C240.44 292.999 242.932 304.598 244.015 316.36C244.547 322.146 244.744 327.986 244.201 333.779C243.682 339.309 242.425 344.718 240.577 349.953C232.909 371.675 216.344 389.437 211.127 412.137C208.802 422.25 208.848 433.389 213.674 442.796C217.74 450.722 225.028 457.379 233.923 459.187C236.209 459.652 238.497 459.72 240.817 459.568C243.727 459.378 246.633 459.315 249.526 458.912C254.485 458.222 259.354 456.867 263.972 454.938C273.36 451.016 281.77 444.741 288.123 436.79C294.466 428.851 298.086 419.509 300.143 409.635C302.137 400.068 302.89 390.302 304.604 380.689C306.337 370.959 309.215 361.443 314.926 353.264C321.12 344.393 329.62 337.523 338.021 330.851C346.637 324.009 355.36 317.174 362.177 308.449C369.001 299.716 374.009 289.278 375.091 278.154C376.143 267.348 373.599 255.872 366.619 247.36C360.342 239.706 350.665 234.586 340.661 234.736C334.906 234.822 329.405 236.793 324.061 238.743C323.722 238.87 323.581 238.322 323.921 238.198Z" fill="url(#paint19_linear_788_548)"/>
<path d="M317.13 244.672C322.182 242.828 327.375 240.989 332.816 240.937C337.257 240.894 341.67 241.974 345.674 243.871C354.27 247.941 360.559 255.591 363.414 264.607C366.479 274.285 365.721 284.843 362.132 294.266C358.521 303.75 352.313 312.013 344.972 318.939C337.281 326.195 328.518 332.186 320.637 339.222C316.709 342.729 312.986 346.511 309.884 350.778C306.975 354.779 304.702 359.168 303.059 363.83C296.904 381.293 298.853 400.685 291.306 417.76C283.704 434.959 266.551 447.408 247.982 449.884C245.496 450.215 243.002 450.282 240.501 450.44C238.35 450.575 236.249 450.576 234.121 450.2C230.155 449.5 226.438 447.723 223.251 445.284C216.293 439.959 212.117 431.82 210.989 423.213C208.141 401.484 221.842 382.657 231.719 364.635C237.013 354.975 241.547 344.748 242.649 333.676C243.765 322.451 241.886 311.234 240.295 300.153C238.778 289.581 237.468 278.774 239.262 268.15C240.818 258.922 244.795 249.587 252.167 243.519C258.726 238.119 267.915 235.279 276.258 237.676C280.872 239.002 284.644 242.004 288.614 244.569C290.758 245.954 293.003 247.229 295.461 247.963C297.828 248.67 300.306 248.856 302.762 248.653C307.738 248.241 312.48 246.373 317.13 244.672C317.471 244.547 317.612 245.095 317.272 245.219C312.769 246.867 308.212 248.631 303.411 249.154C298.691 249.67 294.287 248.589 290.203 246.214C286.049 243.798 282.353 240.532 277.826 238.794C273.646 237.188 269.032 237.026 264.68 237.983C255.455 240.011 248.206 246.577 244.045 254.898C239.472 264.044 238.529 274.48 239.121 284.555C239.763 295.497 242.074 306.251 243.078 317.156C243.572 322.52 243.754 327.934 243.251 333.305C242.77 338.433 241.604 343.449 239.891 348.304C232.782 368.443 217.426 384.908 212.589 405.954C210.436 415.323 210.477 425.645 214.948 434.361C218.716 441.706 225.467 447.873 233.709 449.548C235.826 449.979 237.945 450.041 240.096 449.901C242.792 449.725 245.484 449.666 248.164 449.292C252.759 448.653 257.271 447.399 261.551 445.611C270.252 441.976 278.048 436.16 283.936 428.789C289.813 421.433 293.168 412.775 295.074 403.624C296.922 394.755 297.621 385.701 299.209 376.788C300.817 367.767 303.485 358.942 308.781 351.358C314.524 343.133 322.406 336.762 330.195 330.576C338.183 324.232 346.27 317.896 352.591 309.808C358.914 301.716 363.554 292.043 364.557 281.737C365.531 271.725 363.177 261.09 356.709 253.203C350.893 246.111 341.928 241.367 332.658 241.505C327.325 241.585 322.227 243.412 317.275 245.22C316.931 245.343 316.791 244.796 317.13 244.672Z" fill="url(#paint20_linear_788_548)"/>
<path d="M310.339 251.147C314.995 249.446 319.783 247.752 324.797 247.704C328.893 247.664 332.962 248.661 336.655 250.41C344.58 254.162 350.377 261.217 353.01 269.529C355.835 278.449 355.136 288.182 351.829 296.867C348.5 305.609 342.778 313.226 336.012 319.609C328.926 326.295 320.852 331.815 313.591 338.297C309.974 341.526 306.544 345.01 303.687 348.939C301.008 352.624 298.915 356.666 297.401 360.961C291.73 377.052 293.524 394.92 286.57 410.653C279.564 426.504 263.754 437.979 246.639 440.261C244.345 440.567 242.046 440.629 239.74 440.774C237.756 440.899 235.819 440.9 233.855 440.553C230.198 439.907 226.77 438.267 223.831 436.017C217.418 431.108 213.567 423.605 212.528 415.673C209.903 395.646 222.526 378.296 231.63 361.685C236.506 352.788 240.683 343.369 241.697 333.17C242.725 322.831 240.994 312.498 239.529 302.29C238.13 292.547 236.924 282.585 238.577 272.794C240.012 264.288 243.678 255.683 250.471 250.09C256.521 245.109 264.994 242.489 272.69 244.7C276.943 245.923 280.42 248.689 284.079 251.054C286.052 252.33 288.119 253.503 290.382 254.178C292.561 254.83 294.841 255.001 297.103 254.814C301.689 254.434 306.057 252.712 310.339 251.147C310.68 251.022 310.821 251.569 310.482 251.694C306.33 253.212 302.13 254.837 297.704 255.321C293.352 255.797 289.29 254.798 285.523 252.609C281.699 250.386 278.295 247.376 274.126 245.775C270.277 244.296 266.031 244.147 262.024 245.029C253.531 246.897 246.857 252.941 243.026 260.602C238.813 269.025 237.947 278.637 238.491 287.914C239.083 297.996 241.212 307.904 242.137 317.951C242.591 322.893 242.76 327.881 242.296 332.83C241.852 337.557 240.779 342.181 239.199 346.654C232.648 365.209 218.5 380.38 214.043 399.77C212.06 408.396 212.098 417.901 216.215 425.927C219.684 432.688 225.898 438.366 233.486 439.908C235.435 440.305 237.385 440.362 239.364 440.233C241.847 440.07 244.325 440.016 246.793 439.672C251.024 439.084 255.18 437.929 259.122 436.283C267.137 432.935 274.317 427.577 279.742 420.787C285.154 414.012 288.242 406.038 289.997 397.611C291.7 389.44 292.344 381.098 293.808 372.887C295.289 364.574 297.749 356.441 302.628 349.451C307.921 341.871 315.182 336 322.362 330.298C329.721 324.454 337.172 318.616 342.996 311.163C348.818 303.713 353.091 294.805 354.015 285.315C354.912 276.097 352.747 266.304 346.792 259.041C341.437 252.51 333.183 248.142 324.648 248.27C319.736 248.343 315.041 250.027 310.479 251.692C310.141 251.817 309.999 251.27 310.339 251.147Z" fill="url(#paint21_linear_788_548)"/>
<path d="M303.548 257.62C307.809 256.065 312.189 254.515 316.778 254.471C320.529 254.435 324.255 255.349 327.636 256.949C334.89 260.383 340.196 266.842 342.606 274.451C345.191 282.612 344.552 291.52 341.526 299.467C338.48 307.466 333.245 314.436 327.053 320.278C320.571 326.393 313.187 331.442 306.547 337.371C300.071 343.153 294.659 349.823 291.745 358.089C286.556 372.809 288.198 389.153 281.836 403.545C275.426 418.048 260.958 428.549 245.299 430.637C243.2 430.918 241.095 430.974 238.983 431.108C237.167 431.222 235.394 431.222 233.595 430.905C230.246 430.314 227.107 428.811 224.416 426.751C218.548 422.258 215.023 415.391 214.071 408.132C211.668 389.806 223.215 373.934 231.545 358.734C236.003 350.601 239.823 341.989 240.75 332.666C241.689 323.211 240.108 313.763 238.767 304.428C237.487 295.511 236.384 286.397 237.897 277.437C239.21 269.653 242.567 261.778 248.782 256.66C254.322 252.099 262.079 249.699 269.128 251.724C273.02 252.842 276.202 255.374 279.549 257.537C281.352 258.703 283.241 259.775 285.31 260.393C287.301 260.988 289.385 261.144 291.451 260.973C295.64 260.627 299.634 259.053 303.548 257.62C303.888 257.496 304.03 258.043 303.69 258.167C299.891 259.557 296.048 261.044 291.998 261.486C288.012 261.92 284.293 261.006 280.845 259.001C277.349 256.969 274.237 254.218 270.425 252.754C266.909 251.403 263.03 251.266 259.37 252.071C251.607 253.779 245.509 259.302 242.008 266.304C238.157 274.004 237.366 282.791 237.864 291.273C238.405 300.494 240.353 309.556 241.199 318.746C241.615 323.266 241.769 327.829 241.344 332.354C240.939 336.679 239.956 340.91 238.511 345.004C232.521 361.975 219.579 375.851 215.503 393.586C213.692 401.47 213.725 410.156 217.487 417.491C220.658 423.671 226.335 428.859 233.269 430.268C235.05 430.63 236.832 430.682 238.64 430.565C240.908 430.416 243.173 430.368 245.428 430.053C249.296 429.515 253.095 428.459 256.698 426.955C264.027 423.894 270.593 418.995 275.553 412.787C280.501 406.593 283.323 399.303 284.928 391.6C286.486 384.126 287.075 376.496 288.413 368.986C289.769 361.38 292.019 353.939 296.483 347.546C301.325 340.611 307.968 335.24 314.535 330.023C321.266 324.678 328.08 319.338 333.406 312.521C338.727 305.713 342.633 297.57 343.478 288.897C344.297 280.473 342.321 271.521 336.878 264.883C331.984 258.915 324.443 254.922 316.642 255.038C312.152 255.105 307.859 256.645 303.69 258.167C303.35 258.292 303.209 257.744 303.548 257.62Z" fill="url(#paint22_linear_788_548)"/>
<path d="M296.757 264.095C300.623 262.684 304.597 261.279 308.759 261.239C312.164 261.206 315.546 262.036 318.616 263.489C325.2 266.606 330.015 272.469 332.202 279.373C334.546 286.777 333.967 294.858 331.222 302.068C328.459 309.324 323.712 315.648 318.093 320.948C312.216 326.491 305.522 331.069 299.5 336.446C293.633 341.685 288.726 347.728 286.087 355.218C281.383 368.566 282.87 383.386 277.101 396.438C271.287 409.593 258.161 419.119 243.958 421.013C242.052 421.268 240.141 421.32 238.224 421.441C236.575 421.545 234.965 421.544 233.332 421.256C230.291 420.719 227.442 419.354 224.998 417.484C219.674 413.407 216.475 407.176 215.611 400.59C213.432 383.966 223.899 369.573 231.457 355.783C235.496 348.414 238.959 340.61 239.799 332.162C240.652 323.591 239.217 315.028 238.003 306.566C236.842 298.477 235.841 290.21 237.214 282.08C238.405 275.019 241.45 267.873 247.09 263.232C252.119 259.091 259.163 256.911 265.563 258.75C269.094 259.765 271.98 262.059 275.018 264.023C276.651 265.078 278.361 266.049 280.235 266.609C282.038 267.149 283.926 267.29 285.796 267.135C289.592 266.82 293.211 265.392 296.757 264.095C297.098 263.97 297.239 264.518 296.9 264.642C293.453 265.903 289.966 267.25 286.292 267.651C282.675 268.046 279.297 267.216 276.167 265.395C273 263.553 270.18 261.06 266.727 259.733C263.544 258.51 260.031 258.386 256.716 259.115C249.684 260.661 244.163 265.664 240.992 272.006C237.502 278.984 236.787 286.947 237.237 294.633C237.727 302.993 239.493 311.209 240.261 319.541C240.638 323.64 240.777 327.776 240.392 331.88C240.024 335.803 239.134 339.641 237.823 343.355C232.391 358.742 220.657 371.325 216.962 387.402C215.32 394.544 215.35 402.413 218.757 409.056C221.628 414.653 226.77 419.351 233.05 420.628C234.663 420.957 236.276 421.003 237.913 420.895C239.967 420.761 242.019 420.717 244.061 420.432C247.566 419.945 251.009 418.989 254.274 417.626C260.917 414.852 266.866 410.412 271.362 404.785C275.846 399.174 278.401 392.567 279.855 385.587C281.267 378.811 281.802 371.894 283.015 365.084C284.245 358.186 286.286 351.438 290.335 345.638C294.726 339.348 300.75 334.477 306.706 329.746C312.809 324.899 318.988 320.058 323.817 313.878C328.636 307.711 332.176 300.332 332.941 292.477C333.683 284.846 331.895 276.735 326.965 270.723C322.532 265.317 315.702 261.699 308.635 261.805C304.567 261.866 300.677 263.261 296.899 264.641C296.559 264.767 296.418 264.219 296.757 264.095Z" fill="url(#paint23_linear_788_548)"/>
<path d="M289.967 270.57C293.436 269.303 297.003 268.043 300.741 268.006C303.8 267.977 306.839 268.722 309.597 270.028C315.51 272.828 319.835 278.094 321.798 284.295C323.902 290.942 323.383 298.197 320.919 304.669C318.438 311.184 314.178 316.861 309.134 321.619C303.863 326.593 297.856 330.699 292.456 335.521C287.196 340.218 282.797 345.634 280.43 352.348C276.209 364.324 277.542 377.621 272.367 389.332C267.149 401.136 255.365 409.695 242.618 411.391C240.906 411.619 239.189 411.667 237.467 411.775C235.985 411.869 234.538 411.867 233.071 411.607C230.338 411.125 227.777 409.897 225.583 408.216C220.803 404.556 217.93 398.962 217.155 393.049C215.198 378.127 224.588 365.21 231.371 352.832C234.992 346.227 238.097 339.229 238.85 331.657C239.614 323.971 238.328 316.291 237.239 308.704C236.196 301.442 235.299 294.021 236.53 286.724C237.6 280.385 240.335 273.97 245.397 269.802C249.917 266.081 256.245 264.121 261.996 265.774C265.166 266.686 267.757 268.745 270.485 270.507C271.948 271.453 273.479 272.324 275.157 272.825C276.772 273.308 278.462 273.434 280.138 273.295C283.544 273.013 286.788 271.732 289.967 270.57C290.307 270.445 290.448 270.992 290.109 271.116C287.013 272.249 283.884 273.456 280.586 273.817C277.338 274.172 274.301 273.423 271.489 271.79C268.65 270.139 266.122 267.903 263.027 266.713C260.176 265.617 257.03 265.504 254.062 266.157C247.761 267.542 242.815 272.025 239.974 277.707C236.846 283.962 236.206 291.1 236.61 297.99C237.05 305.49 238.634 312.86 239.322 320.334C239.661 324.011 239.786 327.722 239.441 331.403C239.11 334.926 238.312 338.371 237.135 341.705C232.262 355.508 221.737 366.795 218.422 381.218C216.952 387.616 216.977 394.669 220.029 400.62C222.602 405.635 227.206 409.844 232.834 410.988C234.278 411.281 235.723 411.322 237.188 411.227C239.028 411.107 240.867 411.068 242.695 410.813C245.837 410.376 248.923 409.521 251.849 408.299C257.807 405.812 263.142 401.83 267.174 396.784C271.193 391.754 273.482 385.831 274.786 379.575C276.052 373.496 276.531 367.291 277.62 361.182C278.723 354.992 280.556 348.935 284.189 343.731C288.13 338.086 293.533 333.714 298.879 329.469C304.353 325.121 309.897 320.778 314.228 315.234C318.546 309.709 321.719 303.095 322.404 296.057C323.069 289.219 321.47 281.95 317.052 276.564C313.079 271.719 306.962 268.478 300.63 268.572C296.983 268.626 293.496 269.879 290.109 271.115C289.768 271.24 289.627 270.693 289.967 270.57Z" fill="url(#paint24_linear_788_548)"/>
<path d="M283.175 277.043C286.25 275.92 289.409 274.805 292.721 274.774C295.435 274.748 298.131 275.41 300.577 276.568C305.82 279.05 309.653 283.721 311.393 289.218C313.257 295.106 312.798 301.537 310.614 307.271C308.417 313.043 304.643 318.074 300.174 322.29C295.507 326.693 290.19 330.328 285.408 334.597C280.757 338.751 276.865 343.54 274.772 349.478C271.034 360.082 272.214 371.854 267.63 382.224C263.009 392.68 252.567 400.265 241.275 401.767C239.757 401.969 238.234 402.012 236.707 402.108C235.393 402.191 234.11 402.189 232.808 401.959C230.383 401.531 228.111 400.44 226.164 398.948C221.93 395.703 219.382 390.746 218.694 385.506C216.959 372.285 225.274 360.846 231.284 349.88C234.486 344.037 237.235 337.848 237.9 331.151C238.576 324.35 237.439 317.554 236.475 310.84C235.552 304.406 234.757 297.832 235.848 291.366C236.796 285.75 239.222 280.064 243.706 276.372C247.717 273.07 253.33 271.331 258.432 272.798C261.242 273.605 263.537 275.429 265.954 276.991C267.247 277.826 268.601 278.596 270.082 279.039C271.509 279.466 273.003 279.577 274.483 279.454C277.494 279.206 280.365 278.072 283.175 277.043C283.516 276.919 283.657 277.466 283.317 277.59C280.574 278.593 277.802 279.663 274.878 279.982C271.997 280.297 269.303 279.633 266.809 278.183C264.299 276.724 262.063 274.744 259.327 273.692C256.808 272.723 254.029 272.624 251.407 273.201C245.837 274.425 241.468 278.387 238.956 283.41C236.19 288.942 235.626 295.257 235.983 301.35C236.372 307.989 237.774 314.514 238.384 321.13C238.684 324.385 238.794 327.67 238.488 330.929C238.195 334.049 237.489 337.103 236.445 340.057C232.131 352.275 222.814 362.269 219.879 375.035C218.579 380.69 218.601 386.926 221.3 392.186C223.574 396.618 227.641 400.338 232.615 401.349C233.891 401.608 235.167 401.644 236.462 401.559C238.088 401.453 239.713 401.418 241.329 401.193C244.107 400.807 246.837 400.051 249.424 398.971C254.695 396.77 259.415 393.248 262.982 388.782C266.536 384.334 268.559 379.095 269.712 373.563C270.833 368.182 271.257 362.688 272.22 357.28C273.198 351.799 274.821 346.432 278.038 341.824C281.529 336.824 286.313 332.951 291.048 329.191C295.894 325.343 300.801 321.499 304.636 316.591C308.454 311.706 311.259 305.858 311.865 299.636C312.453 293.594 311.043 287.165 307.137 282.403C303.626 278.121 298.22 275.254 292.621 275.338C289.396 275.386 286.311 276.495 283.316 277.588C282.977 277.715 282.836 277.167 283.175 277.043Z" fill="url(#paint25_linear_788_548)"/>
<path d="M276.385 283.518C279.063 282.54 281.817 281.567 284.702 281.541C287.071 281.52 289.422 282.097 291.558 283.108C296.102 285.26 299.427 289.296 300.961 294.053C302.61 299.173 302.23 304.786 300.345 309.786C298.435 314.852 295.133 319.265 291.216 322.961C287.2 326.75 282.631 329.885 278.506 333.547C274.445 337.153 271.011 341.307 269.164 346.473C265.853 355.742 266.907 366.048 262.895 375.121C258.844 384.284 249.674 390.899 239.777 392.167C238.433 392.339 237.084 392.37 235.734 392.458C234.604 392.532 233.489 392.496 232.376 392.281C230.271 391.875 228.314 390.906 226.631 389.592C222.954 386.722 220.784 382.371 220.215 377.789C218.786 366.265 226.071 356.328 231.292 346.761C234.068 341.672 236.428 336.282 236.971 330.451C237.516 324.598 236.543 318.757 235.713 312.98C234.9 307.317 234.2 301.524 235.198 295.838C236.046 291.005 238.153 286.125 242.016 282.946C245.518 280.063 250.411 278.548 254.868 279.826C257.347 280.536 259.364 282.156 261.5 283.527C262.624 284.249 263.803 284.91 265.095 285.283C266.337 285.641 267.632 285.725 268.917 285.609C271.502 285.376 273.968 284.401 276.385 283.518C276.725 283.393 276.866 283.94 276.527 284.065C274.136 284.939 271.721 285.869 269.172 286.147C266.692 286.417 264.362 285.86 262.208 284.621C259.994 283.347 258.032 281.601 255.627 280.672C253.444 279.829 251.026 279.743 248.753 280.244C243.945 281.304 240.165 284.705 237.978 289.035C235.571 293.799 235.057 299.244 235.344 304.503C235.66 310.286 236.881 315.968 237.426 321.727C237.694 324.559 237.802 327.418 237.553 330.256C237.311 333.011 236.702 335.708 235.789 338.316C232.069 348.937 223.985 357.61 221.38 368.674C220.233 373.545 220.194 378.922 222.443 383.496C224.377 387.432 227.927 390.761 232.299 391.689C233.438 391.93 234.578 391.968 235.736 391.892C237.094 391.803 238.454 391.776 239.805 391.596C242.291 391.265 244.736 390.594 247.048 389.624C251.602 387.712 255.678 384.67 258.767 380.814C261.879 376.931 263.644 372.352 264.647 367.517C265.625 362.809 265.993 358.003 266.843 353.273C267.701 348.503 269.132 343.845 271.945 339.843C275.017 335.472 279.22 332.092 283.37 328.798C287.564 325.47 291.798 322.13 295.104 317.876C298.392 313.647 300.801 308.593 301.328 303.219C301.842 297.974 300.615 292.379 297.223 288.247C294.153 284.506 289.426 282.007 284.533 282.109C281.758 282.167 279.104 283.124 276.526 284.065C276.186 284.189 276.045 283.642 276.385 283.518Z" fill="url(#paint26_linear_788_548)"/>
<path d="M269.594 289.992C271.887 289.154 274.247 288.323 276.717 288.308C278.705 288.296 280.674 288.775 282.47 289.615C286.362 291.433 289.221 294.875 290.544 298.936C291.965 303.301 291.651 308.096 290.049 312.364C288.435 316.666 285.643 320.421 282.326 323.564C278.894 326.816 274.977 329.499 271.445 332.635C267.976 335.713 265.051 339.258 263.482 343.672C260.674 351.574 261.576 360.36 258.129 368.083C254.649 375.879 246.816 381.496 238.375 382.549C237.23 382.692 236.078 382.718 234.927 382.794C233.991 382.855 233.061 382.814 232.14 382.637C230.307 382.285 228.604 381.428 227.147 380.273C224.045 377.811 222.223 374.108 221.752 370.216C220.567 360.432 226.729 352.002 231.167 343.878C233.531 339.549 235.546 334.965 236.015 330.003C236.489 324.98 235.643 319.968 234.933 315.011C234.245 310.204 233.663 305.289 234.517 300.464C235.25 296.321 237.078 292.138 240.414 289.442C243.393 287.034 247.514 285.773 251.279 286.843C253.334 287.426 255.02 288.743 256.781 289.891C258.74 291.167 260.77 291.97 263.145 291.779C265.379 291.599 267.51 290.754 269.594 289.992C269.934 289.867 270.075 290.415 269.736 290.539C267.705 291.282 265.653 292.071 263.49 292.31C261.378 292.543 259.39 292.079 257.553 291.028C255.689 289.963 254.043 288.495 252.033 287.692C250.215 286.966 248.198 286.859 246.288 287.247C242.152 288.087 238.878 290.98 236.987 294.681C234.933 298.706 234.479 303.318 234.711 307.771C234.969 312.724 236.018 317.591 236.487 322.521C236.936 327.238 236.724 331.909 235.184 336.422C232.095 345.477 225.233 352.831 222.911 362.19C221.88 366.343 221.771 370.954 223.636 374.896C225.232 378.271 228.209 381.155 231.917 382.011C232.846 382.226 233.796 382.297 234.748 382.24C235.9 382.17 237.06 382.142 238.207 382.004C240.298 381.754 242.355 381.208 244.309 380.423C248.249 378.841 251.787 376.241 254.467 372.948C257.151 369.65 258.684 365.748 259.552 361.619C260.394 357.614 260.708 353.522 261.425 349.497C262.141 345.472 263.324 341.527 265.664 338.129C268.23 334.403 271.77 331.519 275.282 328.728C278.857 325.887 282.489 323.061 285.339 319.458C288.195 315.846 290.309 311.51 290.782 306.891C291.237 302.437 290.224 297.677 287.362 294.15C284.758 290.941 280.727 288.79 276.549 288.875C274.188 288.922 271.929 289.738 269.736 290.539C269.395 290.663 269.254 290.116 269.594 289.992Z" fill="url(#paint27_linear_788_548)"/>
<path d="M262.803 296.467C264.656 295.791 266.562 295.116 268.556 295.078C270.195 295.045 271.823 295.42 273.313 296.093C276.5 297.53 278.882 300.28 280.038 303.558C282.651 310.974 279.033 318.719 273.709 323.906C268.213 329.261 260.714 332.972 257.911 340.563C255.499 347.096 256.266 354.383 253.468 360.81C250.648 367.29 244.185 371.989 237.206 372.906C236.313 373.023 235.419 373.052 234.52 373.107C233.72 373.155 232.943 373.168 232.15 373.039C230.646 372.796 229.232 372.139 228.019 371.229C225.452 369.303 223.844 366.347 223.364 363.199C222.123 355.064 227.196 347.971 230.914 341.233C232.91 337.615 234.644 333.783 235.054 329.627C235.467 325.447 234.759 321.273 234.169 317.147C233.603 313.192 233.127 309.151 233.823 305.18C234.42 301.77 235.914 298.321 238.641 296.081C241.108 294.055 244.537 292.985 247.678 293.859C249.407 294.34 250.821 295.449 252.302 296.41C253.927 297.466 255.61 298.111 257.576 297.934C259.386 297.768 261.113 297.085 262.803 296.467C263.143 296.342 263.285 296.889 262.945 297.014C261.309 297.613 259.656 298.25 257.915 298.46C256.214 298.667 254.59 298.357 253.085 297.54C251.547 296.704 250.215 295.52 248.614 294.794C247.073 294.096 245.329 293.96 243.678 294.282C240.276 294.945 237.568 297.299 235.999 300.33C234.264 303.678 233.891 307.53 234.092 311.245C234.308 315.287 235.159 319.258 235.547 323.284C235.922 327.177 235.761 331.039 234.499 334.767C231.952 342.299 226.223 348.404 224.327 356.192C223.489 359.634 223.429 363.455 225.022 366.697C226.377 369.455 228.861 371.786 231.929 372.424C232.727 372.589 233.521 372.603 234.33 372.552C235.272 372.493 236.215 372.473 237.151 372.346C238.85 372.117 240.523 371.662 242.106 371.007C245.351 369.666 248.252 367.498 250.439 364.749C252.614 362.016 253.831 358.789 254.527 355.394C255.205 352.086 255.461 348.71 256.066 345.389C256.666 342.098 257.665 338.88 259.595 336.111C261.716 333.069 264.614 330.708 267.493 328.421C270.45 326.072 273.451 323.732 275.803 320.747C278.132 317.792 279.856 314.243 280.246 310.47C280.626 306.784 279.786 302.847 277.406 299.936C275.269 297.322 271.969 295.573 268.554 295.641C266.611 295.68 264.751 296.353 262.946 297.013C262.604 297.137 262.463 296.59 262.803 296.467Z" fill="url(#paint28_linear_788_548)"/>
<path d="M256.013 302.94C257.534 302.385 259.097 301.838 260.736 301.842C262.048 301.845 263.344 302.174 264.526 302.737C267.004 303.92 268.834 306.115 269.709 308.7C271.68 314.524 268.849 320.569 264.683 324.637C260.332 328.888 254.379 331.821 252.193 337.859C250.323 343.029 250.927 348.787 248.668 353.85C246.389 358.955 241.245 362.621 235.72 363.298C234.415 363.457 232.994 363.597 231.693 363.353C230.518 363.132 229.42 362.593 228.477 361.863C226.459 360.302 225.222 357.934 224.873 355.426C223.987 349.062 227.924 343.537 230.837 338.26C232.418 335.398 233.792 332.366 234.11 329.077C234.426 325.794 233.869 322.518 233.406 319.278C232.612 313.726 232.092 306.596 236.98 302.624C238.892 301.07 241.501 300.237 243.94 300.833C245.284 301.163 246.392 301.973 247.525 302.727C248.846 303.607 250.186 304.221 251.808 304.1C253.264 303.992 254.655 303.436 256.013 302.94C256.353 302.815 256.494 303.362 256.155 303.487C253.625 304.412 251.028 305.296 248.468 303.963C247.192 303.299 246.109 302.307 244.791 301.719C243.6 301.187 242.251 301.087 240.978 301.334C238.287 301.856 236.158 303.728 234.931 306.13C233.582 308.77 233.306 311.797 233.47 314.716C233.645 317.827 234.289 320.884 234.598 323.98C234.901 327.016 234.811 330.041 233.86 332.961C231.931 338.885 227.464 343.655 225.862 349.706C225.153 352.385 225.012 355.374 226.152 357.958C227.127 360.17 229.018 362.092 231.401 362.709C232.729 363.052 234.202 362.907 235.55 362.752C236.897 362.598 238.226 362.252 239.487 361.754C242.068 360.734 244.384 359.036 246.136 356.883C249.658 352.551 249.696 346.994 250.619 341.752C251.076 339.158 251.825 336.602 253.312 334.398C254.945 331.976 257.212 330.096 259.477 328.293C261.79 326.451 264.158 324.636 266.034 322.326C267.884 320.048 269.278 317.313 269.665 314.381C270.047 311.495 269.469 308.398 267.697 306.042C266.077 303.888 263.452 302.414 260.731 302.407C259.142 302.402 257.625 302.95 256.152 303.487C255.813 303.612 255.672 303.064 256.013 302.94Z" fill="url(#paint29_linear_788_548)"/>
<path d="M249.222 309.414C250.332 309.01 251.473 308.612 252.67 308.61C253.6 308.608 254.517 308.83 255.363 309.211C257.201 310.038 258.576 311.62 259.261 313.5C260.792 317.699 258.837 322.16 255.858 325.171C252.681 328.382 248.178 330.504 246.539 334.982C245.149 338.779 245.603 343.014 243.936 346.734C242.263 350.471 238.505 353.152 234.463 353.665C232.565 353.905 230.761 353.865 229.172 352.682C227.698 351.585 226.75 349.903 226.448 348.102C225.67 343.471 228.472 339.379 230.619 335.546C231.813 333.415 232.887 331.159 233.147 328.7C233.407 326.226 232.973 323.755 232.627 321.313C232.057 317.285 231.73 312.18 235.206 309.265C236.605 308.092 238.523 307.454 240.336 307.854C242.425 308.316 243.771 310.382 246.038 310.27C247.141 310.214 248.197 309.789 249.222 309.414C249.562 309.29 249.703 309.837 249.364 309.961C247.579 310.615 245.718 311.263 243.883 310.398C242.983 309.974 242.231 309.303 241.355 308.837C240.459 308.36 239.449 308.197 238.447 308.358C233.936 309.084 232.639 314.088 232.838 317.986C233.067 322.472 234.568 326.903 233.158 331.346C231.789 335.661 228.56 339.125 227.333 343.493C226.776 345.477 226.637 347.711 227.478 349.64C228.184 351.258 229.567 352.666 231.312 353.103C232.246 353.336 233.275 353.233 234.223 353.131C235.199 353.025 236.163 352.778 237.079 352.423C238.968 351.688 240.662 350.455 241.945 348.887C244.535 345.724 244.552 341.647 245.231 337.813C245.56 335.957 246.093 334.124 247.14 332.537C248.298 330.781 249.911 329.41 251.54 328.108C254.851 325.462 258.331 322.631 259.091 318.195C259.456 316.065 259.099 313.741 257.832 311.955C256.683 310.335 254.758 309.2 252.75 309.177C251.575 309.164 250.454 309.567 249.365 309.963C249.022 310.086 248.881 309.538 249.222 309.414Z" fill="url(#paint30_linear_788_548)"/>
<path d="M242.431 315.889C243.756 315.407 245.02 315.164 246.351 315.754C247.5 316.264 248.379 317.228 248.84 318.393C249.883 321.028 248.742 323.887 246.89 325.842C244.86 327.985 241.868 329.317 240.829 332.261C239.969 334.7 240.267 337.416 239.133 339.777C238.013 342.106 235.619 343.757 233.062 344.05C231.902 344.184 230.794 344.157 229.808 343.455C228.861 342.781 228.224 341.731 227.999 340.595C227.424 337.686 229.13 335.063 230.496 332.655C231.266 331.299 231.985 329.874 232.183 328.307C232.384 326.716 232.101 325.12 231.878 323.548C231.484 320.761 231.32 317.057 234.124 315.397C235.229 314.743 236.588 314.62 237.735 315.234C238.432 315.608 239.03 316.218 239.826 316.383C240.715 316.565 241.612 316.188 242.431 315.889C242.771 315.764 242.913 316.311 242.573 316.436C241.463 316.841 240.299 317.248 239.147 316.751C237.934 316.228 237.118 315.191 235.668 315.424C232.845 315.877 232.087 319.038 232.217 321.458C232.365 324.197 233.269 326.914 232.481 329.638C231.703 332.329 229.744 334.471 228.863 337.116C228.125 339.334 228.332 342.523 230.938 343.411C232.051 343.79 233.512 343.501 234.587 343.114C235.812 342.673 236.923 341.891 237.752 340.886C239.365 338.93 239.407 336.415 239.812 334.032C240 332.921 240.293 331.811 240.869 330.831C241.534 329.697 242.516 328.801 243.526 327.978C245.841 326.093 248.492 324.107 248.662 320.844C248.741 319.329 248.219 317.772 247.008 316.806C246.417 316.335 245.685 316.016 244.929 315.952C244.108 315.884 243.332 316.158 242.572 316.434C242.231 316.56 242.091 316.012 242.431 315.889Z" fill="url(#paint31_linear_788_548)"/>
<defs>
<linearGradient id="paint0_linear_788_548" x1="562.699" y1="100.257" x2="268.036" y2="623.148" gradientUnits="userSpaceOnUse">
<stop offset="0.1313" stop-color="#012A2B"/>
<stop offset="0.455924" stop-color="#00F1B5" stop-opacity="0.45"/>
<stop offset="0.798522" stop-color="#012A2B"/>
</linearGradient>
<linearGradient id="paint1_linear_788_548" x1="552.561" y1="107.189" x2="266.894" y2="614.112" gradientUnits="userSpaceOnUse">
<stop offset="0.1313" stop-color="#012A2B"/>
<stop offset="0.455924" stop-color="#00F1B5" stop-opacity="0.45"/>
<stop offset="0.798522" stop-color="#012A2B"/>
</linearGradient>
<linearGradient id="paint2_linear_788_548" x1="542.424" y1="114.121" x2="265.754" y2="605.075" gradientUnits="userSpaceOnUse">
<stop offset="0.1313" stop-color="#012A2B"/>
<stop offset="0.455924" stop-color="#00F1B5" stop-opacity="0.45"/>
<stop offset="0.798522" stop-color="#012A2B"/>
</linearGradient>
<linearGradient id="paint3_linear_788_548" x1="532.286" y1="121.05" x2="264.612" y2="596.039" gradientUnits="userSpaceOnUse">
<stop offset="0.1313" stop-color="#012A2B"/>
<stop offset="0.455924" stop-color="#00F1B5" stop-opacity="0.45"/>
<stop offset="0.798522" stop-color="#012A2B"/>
</linearGradient>
<linearGradient id="paint4_linear_788_548" x1="522.149" y1="127.98" x2="263.469" y2="587.001" gradientUnits="userSpaceOnUse">
<stop offset="0.1313" stop-color="#012A2B"/>
<stop offset="0.455924" stop-color="#00F1B5" stop-opacity="0.45"/>
<stop offset="0.798522" stop-color="#012A2B"/>
</linearGradient>
<linearGradient id="paint5_linear_788_548" x1="512.013" y1="134.916" x2="262.332" y2="577.968" gradientUnits="userSpaceOnUse">
<stop offset="0.1313" stop-color="#012A2B"/>
<stop offset="0.455924" stop-color="#00F1B5" stop-opacity="0.45"/>
<stop offset="0.798522" stop-color="#012A2B"/>
</linearGradient>
<linearGradient id="paint6_linear_788_548" x1="501.874" y1="141.844" x2="261.188" y2="568.929" gradientUnits="userSpaceOnUse">
<stop offset="0.1313" stop-color="#012A2B"/>
<stop offset="0.455924" stop-color="#00F1B5" stop-opacity="0.45"/>
<stop offset="0.798522" stop-color="#012A2B"/>
</linearGradient>
<linearGradient id="paint7_linear_788_548" x1="491.737" y1="148.774" x2="260.047" y2="559.892" gradientUnits="userSpaceOnUse">
<stop offset="0.1313" stop-color="#012A2B"/>
<stop offset="0.455924" stop-color="#00F1B5" stop-opacity="0.45"/>
<stop offset="0.798522" stop-color="#012A2B"/>
</linearGradient>
<linearGradient id="paint8_linear_788_548" x1="481.599" y1="155.706" x2="258.906" y2="550.857" gradientUnits="userSpaceOnUse">
<stop offset="0.1313" stop-color="#012A2B"/>
<stop offset="0.455924" stop-color="#00F1B5" stop-opacity="0.45"/>
<stop offset="0.798522" stop-color="#012A2B"/>
</linearGradient>
<linearGradient id="paint9_linear_788_548" x1="471.462" y1="162.637" x2="257.765" y2="541.821" gradientUnits="userSpaceOnUse">
<stop offset="0.1313" stop-color="#012A2B"/>
<stop offset="0.455924" stop-color="#00F1B5" stop-opacity="0.45"/>
<stop offset="0.798522" stop-color="#012A2B"/>
</linearGradient>
<linearGradient id="paint10_linear_788_548" x1="461.326" y1="169.567" x2="256.625" y2="532.784" gradientUnits="userSpaceOnUse">
<stop offset="0.1313" stop-color="#012A2B"/>
<stop offset="0.455924" stop-color="#00F1B5" stop-opacity="0.45"/>
<stop offset="0.798522" stop-color="#012A2B"/>
</linearGradient>
<linearGradient id="paint11_linear_788_548" x1="451.188" y1="176.5" x2="255.484" y2="523.749" gradientUnits="userSpaceOnUse">
<stop offset="0.1313" stop-color="#012A2B"/>
<stop offset="0.455924" stop-color="#00F1B5" stop-opacity="0.45"/>
<stop offset="0.798522" stop-color="#012A2B"/>
</linearGradient>
<linearGradient id="paint12_linear_788_548" x1="441.05" y1="183.429" x2="254.342" y2="514.711" gradientUnits="userSpaceOnUse">
<stop offset="0.1313" stop-color="#012A2B"/>
<stop offset="0.455924" stop-color="#00F1B5" stop-opacity="0.45"/>
<stop offset="0.798522" stop-color="#012A2B"/>
</linearGradient>
<linearGradient id="paint13_linear_788_548" x1="430.912" y1="190.361" x2="253.2" y2="505.675" gradientUnits="userSpaceOnUse">
<stop offset="0.1313" stop-color="#012A2B"/>
<stop offset="0.455924" stop-color="#00F1B5" stop-opacity="0.45"/>
<stop offset="0.798522" stop-color="#012A2B"/>
</linearGradient>
<linearGradient id="paint14_linear_788_548" x1="420.774" y1="197.292" x2="252.059" y2="496.64" gradientUnits="userSpaceOnUse">
<stop offset="0.1313" stop-color="#012A2B"/>
<stop offset="0.455924" stop-color="#00F1B5" stop-opacity="0.45"/>
<stop offset="0.798522" stop-color="#012A2B"/>
</linearGradient>
<linearGradient id="paint15_linear_788_548" x1="410.638" y1="204.224" x2="250.918" y2="487.602" gradientUnits="userSpaceOnUse">
<stop offset="0.1313" stop-color="#012A2B"/>
<stop offset="0.455924" stop-color="#00F1B5" stop-opacity="0.45"/>
<stop offset="0.798522" stop-color="#012A2B"/>
</linearGradient>
<linearGradient id="paint16_linear_788_548" x1="400.502" y1="211.157" x2="249.78" y2="478.57" gradientUnits="userSpaceOnUse">
<stop offset="0.1313" stop-color="#012A2B"/>
<stop offset="0.455924" stop-color="#00F1B5" stop-opacity="0.45"/>
<stop offset="0.798522" stop-color="#012A2B"/>
</linearGradient>
<linearGradient id="paint17_linear_788_548" x1="390.363" y1="218.086" x2="248.636" y2="469.533" gradientUnits="userSpaceOnUse">
<stop offset="0.1313" stop-color="#012A2B"/>
<stop offset="0.455924" stop-color="#00F1B5" stop-opacity="0.45"/>
<stop offset="0.798522" stop-color="#012A2B"/>
</linearGradient>
<linearGradient id="paint18_linear_788_548" x1="380.229" y1="225.019" x2="247.499" y2="460.498" gradientUnits="userSpaceOnUse">
<stop offset="0.1313" stop-color="#012A2B"/>
<stop offset="0.455924" stop-color="#00F1B5" stop-opacity="0.45"/>
<stop offset="0.798522" stop-color="#012A2B"/>
</linearGradient>
<linearGradient id="paint19_linear_788_548" x1="370.089" y1="231.947" x2="246.355" y2="451.458" gradientUnits="userSpaceOnUse">
<stop offset="0.1313" stop-color="#012A2B"/>
<stop offset="0.455924" stop-color="#00F1B5" stop-opacity="0.45"/>
<stop offset="0.798522" stop-color="#012A2B"/>
</linearGradient>
<linearGradient id="paint20_linear_788_548" x1="359.953" y1="238.88" x2="245.216" y2="442.423" gradientUnits="userSpaceOnUse">
<stop offset="0.1313" stop-color="#012A2B"/>
<stop offset="0.455924" stop-color="#00F1B5" stop-opacity="0.45"/>
<stop offset="0.798522" stop-color="#012A2B"/>
</linearGradient>
<linearGradient id="paint21_linear_788_548" x1="349.814" y1="245.81" x2="244.073" y2="433.388" gradientUnits="userSpaceOnUse">
<stop offset="0.1313" stop-color="#012A2B"/>
<stop offset="0.455924" stop-color="#00F1B5" stop-opacity="0.45"/>
<stop offset="0.798522" stop-color="#012A2B"/>
</linearGradient>
<linearGradient id="paint22_linear_788_548" x1="339.677" y1="252.741" x2="242.932" y2="424.351" gradientUnits="userSpaceOnUse">
<stop offset="0.1313" stop-color="#012A2B"/>
<stop offset="0.455924" stop-color="#00F1B5" stop-opacity="0.45"/>
<stop offset="0.798522" stop-color="#012A2B"/>
</linearGradient>
<linearGradient id="paint23_linear_788_548" x1="329.54" y1="259.672" x2="241.792" y2="415.316" gradientUnits="userSpaceOnUse">
<stop offset="0.1313" stop-color="#012A2B"/>
<stop offset="0.455924" stop-color="#00F1B5" stop-opacity="0.45"/>
<stop offset="0.798522" stop-color="#012A2B"/>
</linearGradient>
<linearGradient id="paint24_linear_788_548" x1="319.403" y1="266.603" x2="240.649" y2="406.278" gradientUnits="userSpaceOnUse">
<stop offset="0.1313" stop-color="#012A2B"/>
<stop offset="0.455924" stop-color="#00F1B5" stop-opacity="0.45"/>
<stop offset="0.798522" stop-color="#012A2B"/>
</linearGradient>
<linearGradient id="paint25_linear_788_548" x1="309.264" y1="273.533" x2="239.507" y2="397.241" gradientUnits="userSpaceOnUse">
<stop offset="0.1313" stop-color="#012A2B"/>
<stop offset="0.455924" stop-color="#00F1B5" stop-opacity="0.45"/>
<stop offset="0.798522" stop-color="#012A2B"/>
</linearGradient>
<linearGradient id="paint26_linear_788_548" x1="299.127" y1="280.467" x2="238.368" y2="388.207" gradientUnits="userSpaceOnUse">
<stop offset="0.1313" stop-color="#012A2B"/>
<stop offset="0.455924" stop-color="#00F1B5" stop-opacity="0.45"/>
<stop offset="0.798522" stop-color="#012A2B"/>
</linearGradient>
<linearGradient id="paint27_linear_788_548" x1="288.989" y1="287.397" x2="237.228" y2="379.171" gradientUnits="userSpaceOnUse">
<stop offset="0.1313" stop-color="#012A2B"/>
<stop offset="0.455924" stop-color="#00F1B5" stop-opacity="0.45"/>
<stop offset="0.798522" stop-color="#012A2B"/>
</linearGradient>
<linearGradient id="paint28_linear_788_548" x1="278.853" y1="294.329" x2="236.087" y2="370.137" gradientUnits="userSpaceOnUse">
<stop offset="0.1313" stop-color="#012A2B"/>
<stop offset="0.455924" stop-color="#00F1B5" stop-opacity="0.45"/>
<stop offset="0.798522" stop-color="#012A2B"/>
</linearGradient>
<linearGradient id="paint29_linear_788_548" x1="268.715" y1="301.257" x2="234.945" y2="361.097" gradientUnits="userSpaceOnUse">
<stop offset="0.1313" stop-color="#012A2B"/>
<stop offset="0.455924" stop-color="#00F1B5" stop-opacity="0.45"/>
<stop offset="0.798522" stop-color="#012A2B"/>
</linearGradient>
<linearGradient id="paint30_linear_788_548" x1="258.578" y1="308.189" x2="233.806" y2="352.062" gradientUnits="userSpaceOnUse">
<stop offset="0.1313" stop-color="#012A2B"/>
<stop offset="0.455924" stop-color="#00F1B5" stop-opacity="0.45"/>
<stop offset="0.798522" stop-color="#012A2B"/>
</linearGradient>
<linearGradient id="paint31_linear_788_548" x1="248.439" y1="315.117" x2="232.659" y2="343.023" gradientUnits="userSpaceOnUse">
<stop offset="0.1313" stop-color="#012A2B"/>
<stop offset="0.455924" stop-color="#00F1B5" stop-opacity="0.45"/>
<stop offset="0.798522" stop-color="#012A2B"/>
</linearGradient>
</defs>
</svg>
