<svg width="418" height="572" viewBox="0 0 418 572" fill="none" xmlns="http://www.w3.org/2000/svg">
<path d="M171.555 737.798C196.281 701.435 207.46 660.996 193.939 617.558C191.653 610.219 188.674 600.691 185.722 591.252C133.883 425.476 94.3167 298.946 146.04 182.283C184.458 95.6294 381.433 63.3605 494.202 51.8593L493.926 50.6358C380.945 62.1846 183.638 94.5985 145.024 181.686C93.0995 298.8 132.735 425.546 184.663 591.606C187.128 599.487 189.632 607.496 192.875 617.913C206.166 660.611 195.356 700.425 171.213 736.296L171.552 737.798L171.555 737.798Z" fill="url(#paint0_linear_1699_738)"/>
<path d="M168.142 722.704C200.812 682.39 217.811 636.496 202.297 586.66C200.033 579.386 197.036 569.801 194.08 560.354C142.241 394.578 102.672 268.046 154.397 151.382C191.167 68.4544 373.156 35.3347 487.579 22.5616L487.303 21.3408C372.671 34.1667 190.34 67.4363 153.385 150.788C101.46 267.901 141.095 394.65 193.025 560.706C195.486 568.578 197.972 576.53 201.237 587.011C216.525 636.123 199.925 681.416 167.823 721.284L168.144 722.704L168.142 722.704Z" fill="url(#paint1_linear_1699_738)"/>
<path d="M164.323 705.806C204.717 662.241 228.004 611.461 210.661 555.748C208.385 548.44 205.4 538.886 202.445 529.441C150.606 363.665 111.036 237.133 162.762 120.47C197.966 41.073 366.294 7.33334 480.987 -6.60837L480.713 -7.82391C365.808 6.1739 197.134 40.0644 161.749 119.875C109.824 236.989 149.46 363.737 201.388 529.795C203.852 537.67 206.347 545.651 209.599 556.099C226.718 611.09 203.857 661.297 164.018 704.456L164.323 705.806Z" fill="url(#paint2_linear_1699_738)"/>
<path d="M160.739 689.944C207.689 643.973 236.836 589.238 217.986 528.68C215.718 521.396 212.722 511.818 209.77 502.376C157.931 336.6 118.361 210.068 170.087 93.4043C203.974 16.9723 361.226 -17.1488 475.243 -32.0282L474.969 -33.2411C360.737 -18.3019 203.138 15.9727 169.072 92.808C117.146 209.921 156.782 336.67 208.711 502.73C211.175 510.606 213.662 518.563 216.922 529.035C235.549 588.87 206.849 643.041 160.442 688.633L160.739 689.944Z" fill="url(#paint3_linear_1699_738)"/>
<path d="M157.094 673.817C210.195 625.845 245.334 567.505 225.082 502.449C222.801 495.12 219.816 485.58 216.865 476.143C165.026 310.367 125.457 183.835 177.182 67.1711C209.836 -6.4716 357.016 -40.8325 469.7 -56.5519L469.427 -57.7621C356.523 -41.9792 208.995 -7.4616 176.17 66.577C124.245 183.69 163.88 310.436 215.808 476.496C218.274 484.38 220.772 492.374 224.02 502.804C244.046 567.13 209.372 624.913 156.802 672.525L157.094 673.817Z" fill="url(#paint4_linear_1699_738)"/>
<path d="M153.203 656.596C212.399 606.87 254.02 545.021 232.377 475.497C230.096 468.169 227.111 458.628 224.16 449.191C172.321 283.415 132.752 156.883 184.477 40.2192C213.861 -26.0536 336.003 -60.5112 442.286 -78.2038L436.516 -78.4815C331.323 -60.4493 212.504 -25.8698 183.465 39.6251C131.54 156.738 171.176 283.487 223.103 449.544C225.569 457.428 228.067 465.422 231.314 475.849C252.726 544.635 211.593 605.934 152.915 655.319L153.203 656.596Z" fill="url(#paint5_linear_1699_738)"/>
<path d="M149.412 639.828C214.144 588.695 262.19 523.661 239.267 450.025C236.996 442.73 234.003 433.161 231.05 423.718C179.211 257.943 139.642 131.41 191.367 14.7468C211.856 -31.4618 277.451 -62.2033 351.315 -82.5837L347.519 -82.7665C274.812 -62.2902 210.647 -31.6239 190.352 14.1506C138.427 131.264 178.063 258.013 229.99 424.07C232.455 431.948 234.945 439.916 238.201 450.375C260.892 523.268 213.354 587.752 149.123 638.56L149.41 639.828L149.412 639.828Z" fill="url(#paint6_linear_1699_738)"/>
<path d="M145.199 621.181C215.663 568.783 271.012 500.439 246.731 422.438C244.451 415.109 241.466 405.568 238.515 396.131C186.676 230.356 147.106 103.823 198.832 -12.8404C212.367 -43.3624 245.593 -67.1371 287.875 -85.636L285.264 -85.7629C243.776 -67.2929 211.222 -43.6616 197.82 -13.4318C145.895 103.681 185.531 230.43 237.458 396.487C239.924 404.371 242.425 412.364 245.669 422.792C269.714 500.035 214.894 567.836 144.916 619.926L145.199 621.181Z" fill="url(#paint7_linear_1699_738)"/>
<defs>
<linearGradient id="paint0_linear_1699_738" x1="99.7764" y1="626.978" x2="381.667" y2="91.5165" gradientUnits="userSpaceOnUse">
<stop stop-color="white"/>
<stop offset="0.530624" stop-color="#2047F4" stop-opacity="0.26"/>
<stop offset="1" stop-color="white"/>
</linearGradient>
<linearGradient id="paint1_linear_1699_738" x1="95.7912" y1="609.34" x2="386.634" y2="70.4182" gradientUnits="userSpaceOnUse">
<stop stop-color="white"/>
<stop offset="0.530624" stop-color="#2047F4" stop-opacity="0.26"/>
<stop offset="1" stop-color="white"/>
</linearGradient>
<linearGradient id="paint2_linear_1699_738" x1="91.4805" y1="590.263" x2="389.92" y2="48.5677" gradientUnits="userSpaceOnUse">
<stop stop-color="white"/>
<stop offset="0.530624" stop-color="#2047F4" stop-opacity="0.26"/>
<stop offset="1" stop-color="white"/>
</linearGradient>
<linearGradient id="paint3_linear_1699_738" x1="87.5136" y1="572.709" x2="391.802" y2="28.9794" gradientUnits="userSpaceOnUse">
<stop stop-color="white"/>
<stop offset="0.530624" stop-color="#2047F4" stop-opacity="0.26"/>
<stop offset="1" stop-color="white"/>
</linearGradient>
<linearGradient id="paint4_linear_1699_738" x1="83.5334" y1="555.097" x2="392.923" y2="9.66356" gradientUnits="userSpaceOnUse">
<stop stop-color="white"/>
<stop offset="0.530624" stop-color="#2047F4" stop-opacity="0.26"/>
<stop offset="1" stop-color="white"/>
</linearGradient>
<linearGradient id="paint5_linear_1699_738" x1="81.4239" y1="536.008" x2="401.315" y2="8.88366" gradientUnits="userSpaceOnUse">
<stop stop-color="white"/>
<stop offset="0.530624" stop-color="#2047F4" stop-opacity="0.26"/>
<stop offset="1" stop-color="white"/>
</linearGradient>
<linearGradient id="paint6_linear_1699_738" x1="85.7782" y1="516.342" x2="422.187" y2="81.8396" gradientUnits="userSpaceOnUse">
<stop stop-color="white"/>
<stop offset="0.530624" stop-color="#2047F4" stop-opacity="0.26"/>
<stop offset="1" stop-color="white"/>
</linearGradient>
<linearGradient id="paint7_linear_1699_738" x1="87.5191" y1="496.865" x2="418.269" y2="140.049" gradientUnits="userSpaceOnUse">
<stop stop-color="white"/>
<stop offset="0.530624" stop-color="#2047F4" stop-opacity="0.26"/>
<stop offset="1" stop-color="white"/>
</linearGradient>
</defs>
</svg>
