<svg width="1523" height="728" viewBox="0 0 1523 728" fill="none" xmlns="http://www.w3.org/2000/svg">
<mask id="mask0_288_832" style="mask-type:alpha" maskUnits="userSpaceOnUse" x="0" y="0" width="1523" height="728">
<g opacity="0.3">
<rect x="0.25" y="29.25" width="1522.5" height="0.5" stroke="white" stroke-width="0.5" stroke-dasharray="5 5"/>
<rect x="0.250017" y="727.75" width="727.5" height="0.500033" transform="rotate(-90 0.250017 727.75)" stroke="white" stroke-width="0.500033" stroke-dasharray="5 5"/>
<rect x="726.25" y="727.75" width="727.5" height="0.500033" transform="rotate(-90 726.25 727.75)" stroke="white" stroke-width="0.500033" stroke-dasharray="5 5"/>
<rect x="0.25" y="95.25" width="1522.5" height="0.5" stroke="white" stroke-width="0.5" stroke-dasharray="5 5"/>
<rect x="66.25" y="727.75" width="727.5" height="0.500033" transform="rotate(-90 66.25 727.75)" stroke="white" stroke-width="0.500033" stroke-dasharray="5 5"/>
<rect x="792.25" y="727.75" width="727.5" height="0.500033" transform="rotate(-90 792.25 727.75)" stroke="white" stroke-width="0.500033" stroke-dasharray="5 5"/>
<rect x="0.25" y="161.25" width="1522.5" height="0.5" stroke="white" stroke-width="0.5" stroke-dasharray="5 5"/>
<rect x="132.25" y="727.75" width="727.5" height="0.500033" transform="rotate(-90 132.25 727.75)" stroke="white" stroke-width="0.500033" stroke-dasharray="5 5"/>
<rect x="858.25" y="727.75" width="727.5" height="0.500033" transform="rotate(-90 858.25 727.75)" stroke="white" stroke-width="0.500033" stroke-dasharray="5 5"/>
<rect x="0.25" y="227.25" width="1522.5" height="0.5" stroke="white" stroke-width="0.5" stroke-dasharray="5 5"/>
<rect x="198.25" y="727.75" width="727.5" height="0.500033" transform="rotate(-90 198.25 727.75)" stroke="white" stroke-width="0.500033" stroke-dasharray="5 5"/>
<rect x="924.25" y="727.75" width="727.5" height="0.500033" transform="rotate(-90 924.25 727.75)" stroke="white" stroke-width="0.500033" stroke-dasharray="5 5"/>
<rect x="0.25" y="293.25" width="1522.5" height="0.5" stroke="white" stroke-width="0.5" stroke-dasharray="5 5"/>
<rect x="264.25" y="727.75" width="727.5" height="0.500033" transform="rotate(-90 264.25 727.75)" stroke="white" stroke-width="0.500033" stroke-dasharray="5 5"/>
<rect x="990.25" y="727.75" width="727.5" height="0.500033" transform="rotate(-90 990.25 727.75)" stroke="white" stroke-width="0.500033" stroke-dasharray="5 5"/>
<rect x="0.25" y="359.25" width="1522.5" height="0.5" stroke="white" stroke-width="0.5" stroke-dasharray="5 5"/>
<rect x="330.25" y="727.75" width="727.5" height="0.500033" transform="rotate(-90 330.25 727.75)" stroke="white" stroke-width="0.500033" stroke-dasharray="5 5"/>
<rect x="1056.25" y="727.75" width="727.5" height="0.500033" transform="rotate(-90 1056.25 727.75)" stroke="white" stroke-width="0.500033" stroke-dasharray="5 5"/>
<rect x="0.25" y="425.25" width="1522.5" height="0.5" stroke="white" stroke-width="0.5" stroke-dasharray="5 5"/>
<rect x="396.25" y="727.75" width="727.5" height="0.500033" transform="rotate(-90 396.25 727.75)" stroke="white" stroke-width="0.500033" stroke-dasharray="5 5"/>
<rect x="1122.25" y="727.75" width="727.5" height="0.500033" transform="rotate(-90 1122.25 727.75)" stroke="white" stroke-width="0.500033" stroke-dasharray="5 5"/>
<rect x="0.25" y="491.25" width="1522.5" height="0.5" stroke="white" stroke-width="0.5" stroke-dasharray="5 5"/>
<rect x="462.25" y="727.75" width="727.5" height="0.500033" transform="rotate(-90 462.25 727.75)" stroke="white" stroke-width="0.500033" stroke-dasharray="5 5"/>
<rect x="1188.25" y="727.75" width="727.5" height="0.500033" transform="rotate(-90 1188.25 727.75)" stroke="white" stroke-width="0.500033" stroke-dasharray="5 5"/>
<rect x="0.25" y="557.25" width="1522.5" height="0.5" stroke="white" stroke-width="0.5" stroke-dasharray="5 5"/>
<rect x="528.25" y="727.75" width="727.5" height="0.500033" transform="rotate(-90 528.25 727.75)" stroke="white" stroke-width="0.500033" stroke-dasharray="5 5"/>
<rect x="1254.25" y="727.75" width="727.5" height="0.500033" transform="rotate(-90 1254.25 727.75)" stroke="white" stroke-width="0.500033" stroke-dasharray="5 5"/>
<rect x="0.25" y="623.25" width="1522.5" height="0.5" stroke="white" stroke-width="0.5" stroke-dasharray="5 5"/>
<rect x="594.25" y="727.75" width="727.5" height="0.500033" transform="rotate(-90 594.25 727.75)" stroke="white" stroke-width="0.500033" stroke-dasharray="5 5"/>
<rect x="1320.25" y="727.75" width="727.5" height="0.500033" transform="rotate(-90 1320.25 727.75)" stroke="white" stroke-width="0.500033" stroke-dasharray="5 5"/>
<rect x="1452.25" y="727.75" width="727.5" height="0.500033" transform="rotate(-90 1452.25 727.75)" stroke="white" stroke-width="0.500033" stroke-dasharray="5 5"/>
<rect x="0.25" y="689.25" width="1522.5" height="0.5" stroke="white" stroke-width="0.5" stroke-dasharray="5 5"/>
<rect x="660.25" y="727.75" width="727.5" height="0.500033" transform="rotate(-90 660.25 727.75)" stroke="white" stroke-width="0.500033" stroke-dasharray="5 5"/>
<rect x="1386.25" y="727.75" width="727.5" height="0.500033" transform="rotate(-90 1386.25 727.75)" stroke="white" stroke-width="0.500033" stroke-dasharray="5 5"/>
<rect x="1518.25" y="727.75" width="727.5" height="0.500033" transform="rotate(-90 1518.25 727.75)" stroke="white" stroke-width="0.500033" stroke-dasharray="5 5"/>
<rect x="0.25" y="62.25" width="1522.5" height="0.5" stroke="white" stroke-width="0.5" stroke-dasharray="5 5"/>
<rect x="33.25" y="727.75" width="727.5" height="0.500033" transform="rotate(-90 33.25 727.75)" stroke="white" stroke-width="0.500033" stroke-dasharray="5 5"/>
<rect x="759.25" y="727.75" width="727.5" height="0.500033" transform="rotate(-90 759.25 727.75)" stroke="white" stroke-width="0.500033" stroke-dasharray="5 5"/>
<rect x="0.25" y="128.25" width="1522.5" height="0.5" stroke="white" stroke-width="0.5" stroke-dasharray="5 5"/>
<rect x="99.25" y="727.75" width="727.5" height="0.500033" transform="rotate(-90 99.25 727.75)" stroke="white" stroke-width="0.500033" stroke-dasharray="5 5"/>
<rect x="825.25" y="727.75" width="727.5" height="0.500033" transform="rotate(-90 825.25 727.75)" stroke="white" stroke-width="0.500033" stroke-dasharray="5 5"/>
<rect x="0.25" y="194.25" width="1522.5" height="0.5" stroke="white" stroke-width="0.5" stroke-dasharray="5 5"/>
<rect x="165.25" y="727.75" width="727.5" height="0.500033" transform="rotate(-90 165.25 727.75)" stroke="white" stroke-width="0.500033" stroke-dasharray="5 5"/>
<rect x="891.25" y="727.75" width="727.5" height="0.500033" transform="rotate(-90 891.25 727.75)" stroke="white" stroke-width="0.500033" stroke-dasharray="5 5"/>
<rect x="0.25" y="260.25" width="1522.5" height="0.5" stroke="white" stroke-width="0.5" stroke-dasharray="5 5"/>
<rect x="231.25" y="727.75" width="727.5" height="0.500033" transform="rotate(-90 231.25 727.75)" stroke="white" stroke-width="0.500033" stroke-dasharray="5 5"/>
<rect x="957.25" y="727.75" width="727.5" height="0.500033" transform="rotate(-90 957.25 727.75)" stroke="white" stroke-width="0.500033" stroke-dasharray="5 5"/>
<rect x="0.25" y="326.25" width="1522.5" height="0.5" stroke="white" stroke-width="0.5" stroke-dasharray="5 5"/>
<rect x="297.25" y="727.75" width="727.5" height="0.500033" transform="rotate(-90 297.25 727.75)" stroke="white" stroke-width="0.500033" stroke-dasharray="5 5"/>
<rect x="1023.25" y="727.75" width="727.5" height="0.500033" transform="rotate(-90 1023.25 727.75)" stroke="white" stroke-width="0.500033" stroke-dasharray="5 5"/>
<rect x="0.25" y="392.25" width="1522.5" height="0.5" stroke="white" stroke-width="0.5" stroke-dasharray="5 5"/>
<rect x="363.25" y="727.75" width="727.5" height="0.500033" transform="rotate(-90 363.25 727.75)" stroke="white" stroke-width="0.500033" stroke-dasharray="5 5"/>
<rect x="1089.25" y="727.75" width="727.5" height="0.500033" transform="rotate(-90 1089.25 727.75)" stroke="white" stroke-width="0.500033" stroke-dasharray="5 5"/>
<rect x="0.25" y="458.25" width="1522.5" height="0.5" stroke="white" stroke-width="0.5" stroke-dasharray="5 5"/>
<rect x="429.25" y="727.75" width="727.5" height="0.500033" transform="rotate(-90 429.25 727.75)" stroke="white" stroke-width="0.500033" stroke-dasharray="5 5"/>
<rect x="1155.25" y="727.75" width="727.5" height="0.500033" transform="rotate(-90 1155.25 727.75)" stroke="white" stroke-width="0.500033" stroke-dasharray="5 5"/>
<rect x="0.25" y="524.25" width="1522.5" height="0.5" stroke="white" stroke-width="0.5" stroke-dasharray="5 5"/>
<rect x="495.25" y="727.75" width="727.5" height="0.500033" transform="rotate(-90 495.25 727.75)" stroke="white" stroke-width="0.500033" stroke-dasharray="5 5"/>
<rect x="1221.25" y="727.75" width="727.5" height="0.500033" transform="rotate(-90 1221.25 727.75)" stroke="white" stroke-width="0.500033" stroke-dasharray="5 5"/>
<rect x="0.25" y="590.25" width="1522.5" height="0.5" stroke="white" stroke-width="0.5" stroke-dasharray="5 5"/>
<rect x="561.25" y="727.75" width="727.5" height="0.500033" transform="rotate(-90 561.25 727.75)" stroke="white" stroke-width="0.500033" stroke-dasharray="5 5"/>
<rect x="1287.25" y="727.75" width="727.5" height="0.500033" transform="rotate(-90 1287.25 727.75)" stroke="white" stroke-width="0.500033" stroke-dasharray="5 5"/>
<rect x="0.25" y="656.25" width="1522.5" height="0.5" stroke="white" stroke-width="0.5" stroke-dasharray="5 5"/>
<rect x="627.25" y="727.75" width="727.5" height="0.500033" transform="rotate(-90 627.25 727.75)" stroke="white" stroke-width="0.500033" stroke-dasharray="5 5"/>
<rect x="1353.25" y="727.75" width="727.5" height="0.500033" transform="rotate(-90 1353.25 727.75)" stroke="white" stroke-width="0.500033" stroke-dasharray="5 5"/>
<rect x="1485.25" y="727.75" width="727.5" height="0.500033" transform="rotate(-90 1485.25 727.75)" stroke="white" stroke-width="0.500033" stroke-dasharray="5 5"/>
<rect x="0.25" y="722.25" width="1522.5" height="0.5" stroke="white" stroke-width="0.5" stroke-dasharray="5 5"/>
<rect x="693.25" y="727.75" width="727.5" height="0.500033" transform="rotate(-90 693.25 727.75)" stroke="white" stroke-width="0.500033" stroke-dasharray="5 5"/>
<rect x="1419.25" y="727.75" width="727.5" height="0.500033" transform="rotate(-90 1419.25 727.75)" stroke="white" stroke-width="0.500033" stroke-dasharray="5 5"/>
</g>
</mask>
<g mask="url(#mask0_288_832)">
<g filter="url(#filter0_f_288_832)">
<ellipse cx="732" cy="294" rx="405" ry="54" fill="#8D839A"/>
</g>
<g filter="url(#filter1_f_288_832)">
<ellipse cx="747" cy="281" rx="548" ry="65" fill="#8D839A"/>
</g>
</g>
<defs>
<filter id="filter0_f_288_832" x="227.8" y="140.8" width="1008.4" height="306.4" filterUnits="userSpaceOnUse" color-interpolation-filters="sRGB">
<feFlood flood-opacity="0" result="BackgroundImageFix"/>
<feBlend mode="normal" in="SourceGraphic" in2="BackgroundImageFix" result="shape"/>
<feGaussianBlur stdDeviation="49.6" result="effect1_foregroundBlur_288_832"/>
</filter>
<filter id="filter1_f_288_832" x="99.8" y="116.8" width="1294.4" height="328.4" filterUnits="userSpaceOnUse" color-interpolation-filters="sRGB">
<feFlood flood-opacity="0" result="BackgroundImageFix"/>
<feBlend mode="normal" in="SourceGraphic" in2="BackgroundImageFix" result="shape"/>
<feGaussianBlur stdDeviation="49.6" result="effect1_foregroundBlur_288_832"/>
</filter>
</defs>
</svg>
