<svg width="558" height="519" viewBox="0 0 558 519" fill="none" xmlns="http://www.w3.org/2000/svg">
<path d="M262.431 518.699C266.453 482.134 258.887 449.163 231.924 425.782C227.367 421.833 221.443 416.711 215.574 411.636C112.497 322.52 33.8225 254.501 26.3604 150.203C20.8179 72.7339 153.526 -42.2315 232.229 -103.274L231.547 -103.982C152.707 -42.8073 19.8097 72.4144 25.3781 150.273C32.8673 254.974 111.677 323.109 214.93 412.378C219.831 416.614 224.811 420.92 231.277 426.527C257.781 449.508 265.376 481.878 261.591 517.831L262.429 518.7L262.431 518.699Z" fill="url(#paint0_linear_785_382)"/>
<path d="M254.011 509.968C262.35 466.951 256.944 427.5 226.008 400.677C221.494 396.761 215.534 391.608 209.658 386.53C106.582 297.414 27.9042 229.395 20.4436 125.096C15.1419 50.9558 136.461 -57.528 215.887 -120.221L215.206 -120.927C135.646 -58.0992 14.1335 50.6483 19.4643 125.166C26.9535 229.867 105.765 298.003 209.018 387.269C213.912 391.501 218.856 395.776 225.363 401.417C255.849 427.85 261.315 466.702 253.221 509.145L254.013 509.967L254.011 509.968Z" fill="url(#paint1_linear_785_382)"/>
<path d="M244.586 500.193C257.351 451.307 254.673 405.545 220.09 375.558C215.553 371.626 209.614 366.488 203.74 361.412C100.664 272.296 21.9861 204.277 14.5256 99.9773C9.44982 28.9942 120.447 -73.4735 199.616 -137.095L198.938 -137.798C119.635 -74.0387 8.4412 28.6958 13.5462 100.048C21.0355 204.749 99.8465 272.885 203.099 362.152C207.997 366.386 212.959 370.676 219.444 376.3C253.58 405.897 256.347 451.067 243.832 499.412L244.586 500.193Z" fill="url(#paint2_linear_785_382)"/>
<path d="M235.737 491.017C252.399 437.393 252.499 386.159 214.908 353.564C210.386 349.643 204.431 344.495 198.56 339.419C95.4832 250.303 16.8058 182.283 9.34522 77.9842C4.45659 9.65316 107.134 -87.8548 185.436 -151.799L184.759 -152.5C106.322 -88.4138 3.44934 9.36231 8.36288 78.0545C15.8521 182.756 94.6631 250.892 197.917 340.161C202.815 344.394 207.762 348.672 214.262 354.308C251.405 386.514 251.415 437.151 235.006 490.259L235.737 491.017Z" fill="url(#paint3_linear_785_382)"/>
<path d="M226.742 481.689C247.16 423.795 250.27 367.266 209.887 332.251C205.338 328.306 199.405 323.178 193.537 318.105C90.4599 228.989 11.7825 160.969 4.32196 56.6702C-0.385625 -9.16888 94.766 -102.092 171.757 -165.984L171.082 -166.684C93.9539 -102.645 -1.39304 -9.45069 3.34264 56.7405C10.8319 161.442 89.6414 229.577 192.895 318.845C197.797 323.083 202.767 327.381 209.242 332.995C249.173 367.617 246.188 423.544 226.021 480.942L226.742 481.689Z" fill="url(#paint4_linear_785_382)"/>
<path d="M217.135 471.727C241.364 409.758 247.884 347.77 204.727 310.35C200.178 306.405 194.245 301.277 188.377 296.204C85.3005 207.088 6.62312 139.069 -0.837441 34.7694C-5.07574 -24.4796 71.5658 -105.666 143.062 -167.891L138.696 -165.361C68.1367 -103.417 -6.00476 -23.7141 -1.81679 34.8398C5.67244 139.541 84.4835 207.677 187.736 296.945C192.638 301.183 197.607 305.481 204.081 311.092C246.778 348.116 240.403 409.497 216.423 470.989L217.135 471.727Z" fill="url(#paint5_linear_785_382)"/>
<path d="M207.782 462.028C235.544 396.485 245.56 329.286 199.85 289.653C195.322 285.727 189.371 280.583 183.5 275.507C80.4235 186.391 1.74616 118.371 -5.7144 14.072C-8.66886 -27.2397 27.7054 -79.2218 74.2314 -128.004L71.3596 -126.34C25.7241 -78.037 -9.6238 -26.781 -6.69674 14.1423C0.792496 118.844 79.6035 186.98 182.856 276.247C187.755 280.482 192.708 284.766 199.201 290.395C244.448 329.629 234.592 396.212 207.073 461.295L207.781 462.029L207.782 462.028Z" fill="url(#paint6_linear_785_382)"/>
<path d="M197.381 451.241C228.877 382.13 242.986 309.221 194.568 267.237C190.019 263.292 184.086 258.164 178.218 253.091C75.1413 163.975 -3.53603 95.9553 -10.9966 -8.34399C-12.9468 -35.6322 2.26959 -67.5818 26.2311 -100.187L24.255 -99.0429C0.868464 -66.8321 -13.9085 -35.2974 -11.9745 -8.2721C-4.48522 96.4291 74.3258 164.565 177.578 253.833C182.48 258.071 187.451 262.367 193.923 267.98C241.871 309.556 227.939 381.843 196.68 450.515L197.381 451.241Z" fill="url(#paint7_linear_785_382)"/>
<defs>
<linearGradient id="paint0_linear_785_382" x1="130.333" y1="246.881" x2="166.36" y2="-38.7741" gradientUnits="userSpaceOnUse">
<stop stop-color="#003D2B"/>
<stop offset="0.544795" stop-color="#76A738" stop-opacity="0.22"/>
<stop offset="1" stop-color="#003D2B"/>
</linearGradient>
<linearGradient id="paint1_linear_785_382" x1="117.717" y1="233.796" x2="156.959" y2="-53.7955" gradientUnits="userSpaceOnUse">
<stop stop-color="#003D2B"/>
<stop offset="0.544795" stop-color="#76A738" stop-opacity="0.22"/>
<stop offset="1" stop-color="#003D2B"/>
</linearGradient>
<linearGradient id="paint2_linear_785_382" x1="104.696" y1="220.292" x2="146.656" y2="-68.8699" gradientUnits="userSpaceOnUse">
<stop stop-color="#003D2B"/>
<stop offset="0.544795" stop-color="#76A738" stop-opacity="0.22"/>
<stop offset="1" stop-color="#003D2B"/>
</linearGradient>
<linearGradient id="paint3_linear_785_382" x1="93.0558" y1="208.222" x2="137.104" y2="-82.1048" gradientUnits="userSpaceOnUse">
<stop stop-color="#003D2B"/>
<stop offset="0.544795" stop-color="#76A738" stop-opacity="0.22"/>
<stop offset="1" stop-color="#003D2B"/>
</linearGradient>
<linearGradient id="paint4_linear_785_382" x1="81.6098" y1="196.352" x2="127.475" y2="-94.9599" gradientUnits="userSpaceOnUse">
<stop stop-color="#003D2B"/>
<stop offset="0.544795" stop-color="#76A738" stop-opacity="0.22"/>
<stop offset="1" stop-color="#003D2B"/>
</linearGradient>
<linearGradient id="paint5_linear_785_382" x1="66.5248" y1="187.066" x2="119.106" y2="-94.9427" gradientUnits="userSpaceOnUse">
<stop stop-color="#003D2B"/>
<stop offset="0.544795" stop-color="#76A738" stop-opacity="0.22"/>
<stop offset="1" stop-color="#003D2B"/>
</linearGradient>
<linearGradient id="paint6_linear_785_382" x1="42.8188" y1="187.885" x2="112.502" y2="-47.8473" gradientUnits="userSpaceOnUse">
<stop stop-color="#003D2B"/>
<stop offset="0.544795" stop-color="#76A738" stop-opacity="0.22"/>
<stop offset="1" stop-color="#003D2B"/>
</linearGradient>
<linearGradient id="paint7_linear_785_382" x1="24.3768" y1="186.471" x2="99.5081" y2="-11.4435" gradientUnits="userSpaceOnUse">
<stop stop-color="#003D2B"/>
<stop offset="0.544795" stop-color="#76A738" stop-opacity="0.22"/>
<stop offset="1" stop-color="#003D2B"/>
</linearGradient>
</defs>
</svg>
