<svg width="269" height="150" viewBox="0 0 269 150" fill="none" xmlns="http://www.w3.org/2000/svg">
<path d="M-215.999 142.85C-194.378 155.367 -171.816 159.697 -149.899 149.346C-146.197 147.597 -141.39 145.318 -136.629 143.061C-53.0098 103.417 10.8136 73.159 77.6737 97.0941C127.335 114.872 162.425 228.839 178.799 294.471L179.426 294.241C163.007 228.487 127.81 114.333 77.8991 96.4644C10.7809 72.4356 -53.1514 102.746 -136.914 142.458C-140.889 144.343 -144.929 146.258 -150.185 148.74C-171.728 158.916 -193.924 154.768 -215.23 142.566L-216 142.849L-215.999 142.85Z" fill="url(#paint0_linear_1097_435)"/>
<path d="M-208.267 140.01C-183.819 156.976 -157.821 164.425 -132.677 152.548C-129.007 150.815 -124.172 148.523 -119.407 146.263C-35.7873 106.619 28.0369 76.3587 94.8976 100.295C142.424 117.311 176.606 222.424 193.808 288.958L194.433 288.728C177.184 222.074 142.891 116.769 95.1221 99.6673C28.0039 75.6385 -35.9298 105.95 -119.69 145.662C-123.661 147.544 -127.672 149.445 -132.96 151.944C-157.739 163.648 -183.381 156.401 -207.54 139.744L-208.267 140.011L-208.267 140.01Z" fill="url(#paint1_linear_1097_435)"/>
<path d="M-199.61 136.83C-172.727 158.155 -143.555 169.028 -115.446 155.751C-111.759 154.009 -106.939 151.725 -102.175 149.466C-18.5561 109.822 45.2682 79.5618 112.129 103.498C157.632 119.79 190.902 216.84 208.752 283.468L209.374 283.24C191.476 216.49 158.093 119.245 112.353 102.87C45.2351 78.8416 -18.6985 109.153 -102.46 148.864C-106.432 150.748 -110.458 152.656 -115.729 155.146C-143.474 168.252 -172.303 157.597 -198.918 136.576L-199.61 136.83Z" fill="url(#paint2_linear_1097_435)"/>
<path d="M-191.484 133.845C-162.724 158.89 -130.912 172.988 -100.358 158.557C-96.6826 156.82 -91.8517 154.53 -87.089 152.272C-3.46964 112.628 60.3546 82.368 127.215 106.304C171.019 121.986 203.487 212.507 221.774 278.685L222.395 278.457C204.057 212.155 171.475 121.439 127.441 105.675C60.3224 81.6459 -3.61123 111.957 -87.3737 151.669C-91.3463 153.553 -95.3601 155.455 -100.644 157.951C-130.833 172.211 -162.304 158.345 -190.813 133.598L-191.484 133.845Z" fill="url(#paint3_linear_1097_435)"/>
<path d="M-183.223 130.81C-152.838 159.359 -118.56 176.778 -85.7371 161.274C-82.0394 159.528 -77.2269 157.245 -72.4669 154.989C11.1524 115.345 74.9766 85.0847 141.837 109.021C184.043 124.132 215.723 208.721 234.337 274.07L234.957 273.842C216.289 208.368 184.494 123.583 142.062 108.393C74.9436 84.3646 11.0113 114.675 -72.7512 154.387C-76.7279 156.273 -80.7602 158.183 -86.0224 160.669C-118.477 176 -152.416 158.824 -182.561 130.567L-183.223 130.81Z" fill="url(#paint4_linear_1097_435)"/>
<path d="M-174.4 127.57C-142.527 159.603 -105.791 180.636 -70.7135 164.068C-67.0157 162.322 -62.2033 160.039 -57.4433 157.782C26.176 118.139 90.0003 87.8786 156.861 111.815C194.842 125.412 224.299 195.282 243.383 256.76L243.007 253.354C223.841 192.535 194.621 124.625 157.085 111.187C89.9672 87.1584 26.0336 117.47 -57.7276 157.181C-61.7043 159.066 -65.7366 160.977 -70.9974 163.463C-105.703 179.855 -142.101 159.077 -173.746 127.329L-174.4 127.57Z" fill="url(#paint5_linear_1097_435)"/>
<path d="M-165.81 124.414C-132.684 159.622 -93.6672 184.255 -56.5151 166.707C-52.8345 164.969 -48.0076 162.679 -43.2449 160.422C40.3744 120.778 104.199 90.5177 171.059 114.454C197.542 123.935 219.881 160.781 237.451 203.058L237.204 200.818C219.688 159.225 197.518 123.216 171.285 113.824C104.166 89.7957 40.2328 120.107 -43.5283 159.818C-47.5023 161.703 -51.5215 163.607 -56.7981 166.1C-93.5757 183.471 -132.254 159.106 -165.161 124.174L-165.811 124.413L-165.81 124.414Z" fill="url(#paint6_linear_1097_435)"/>
<path d="M-156.257 120.905C-121.937 159.412 -80.4925 188.153 -41.1375 169.565C-37.4397 167.819 -32.6273 165.537 -27.8673 163.28C55.752 123.636 119.576 93.3761 186.437 117.313C203.929 123.576 219.616 141.785 233.314 165.608L233.145 164.067C219.534 140.709 203.985 122.887 186.66 116.685C119.542 92.6564 55.6082 122.968 -28.153 162.679C-32.1297 164.564 -36.1615 166.477 -41.4228 168.961C-80.3951 187.368 -121.502 158.907 -155.614 120.669L-156.257 120.905Z" fill="url(#paint7_linear_1097_435)"/>
<defs>
<linearGradient id="paint0_linear_1097_435" x1="-150.572" y1="162.698" x2="206.001" y2="219.796" gradientUnits="userSpaceOnUse">
<stop stop-color="#020202"/>
<stop offset="0.544795" stop-color="#FF6100" stop-opacity="0.78"/>
<stop offset="1" stop-color="#020202"/>
</linearGradient>
<linearGradient id="paint1_linear_1097_435" x1="-141.762" y1="159.462" x2="219.946" y2="220.702" gradientUnits="userSpaceOnUse">
<stop stop-color="#020202"/>
<stop offset="0.544795" stop-color="#FF6100" stop-opacity="0.78"/>
<stop offset="1" stop-color="#020202"/>
</linearGradient>
<linearGradient id="paint2_linear_1097_435" x1="-132.182" y1="155.943" x2="233.825" y2="220.767" gradientUnits="userSpaceOnUse">
<stop stop-color="#020202"/>
<stop offset="0.544795" stop-color="#FF6100" stop-opacity="0.78"/>
<stop offset="1" stop-color="#020202"/>
</linearGradient>
<linearGradient id="paint3_linear_1097_435" x1="-123.339" y1="152.695" x2="245.941" y2="220.323" gradientUnits="userSpaceOnUse">
<stop stop-color="#020202"/>
<stop offset="0.544795" stop-color="#FF6100" stop-opacity="0.78"/>
<stop offset="1" stop-color="#020202"/>
</linearGradient>
<linearGradient id="paint4_linear_1097_435" x1="-114.448" y1="149.429" x2="257.662" y2="219.536" gradientUnits="userSpaceOnUse">
<stop stop-color="#020202"/>
<stop offset="0.544795" stop-color="#FF6100" stop-opacity="0.78"/>
<stop offset="1" stop-color="#020202"/>
</linearGradient>
<linearGradient id="paint5_linear_1097_435" x1="-105.704" y1="144.148" x2="262.421" y2="223.604" gradientUnits="userSpaceOnUse">
<stop stop-color="#020202"/>
<stop offset="0.544795" stop-color="#FF6100" stop-opacity="0.78"/>
<stop offset="1" stop-color="#020202"/>
</linearGradient>
<linearGradient id="paint6_linear_1097_435" x1="-99.3635" y1="133.551" x2="234.343" y2="244.137" gradientUnits="userSpaceOnUse">
<stop stop-color="#020202"/>
<stop offset="0.544795" stop-color="#FF6100" stop-opacity="0.78"/>
<stop offset="1" stop-color="#020202"/>
</linearGradient>
<linearGradient id="paint7_linear_1097_435" x1="-91.8838" y1="125.04" x2="204.47" y2="254.348" gradientUnits="userSpaceOnUse">
<stop stop-color="#020202"/>
<stop offset="0.544795" stop-color="#FF6100" stop-opacity="0.78"/>
<stop offset="1" stop-color="#020202"/>
</linearGradient>
</defs>
</svg>
