<svg width="548" height="518" viewBox="0 0 548 518" fill="none" xmlns="http://www.w3.org/2000/svg">
<path fill-rule="evenodd" clip-rule="evenodd" d="M425.01 210.049C422.858 225.284 425.515 240.597 430.946 254.88C436.3 268.604 444.017 281.272 453.01 292.902C462.787 305.539 474.41 317.423 486.113 329.388L486.113 329.389L486.113 329.389L486.113 329.389L486.113 329.389L486.114 329.39L486.114 329.39L486.114 329.39L486.114 329.39L486.115 329.39L486.115 329.391L486.115 329.391L486.115 329.391L486.116 329.391L486.116 329.392L486.116 329.392L486.116 329.392L486.116 329.392L486.117 329.393L486.117 329.393L486.117 329.393C514.716 358.633 543.787 388.357 547.551 430.741C549.709 455.051 540.391 478.033 521.971 494.002C504.508 509.14 481.076 517.357 458.036 517.345C431.275 517.332 405.443 506.259 384.051 490.763C361.608 474.503 344.386 453.298 328.345 430.962C327.006 429.097 325.668 427.223 324.328 425.346C310.431 405.881 296.267 386.043 277.149 371.405C265.838 362.744 253.06 356.623 239.302 352.952C225.194 349.188 210.61 347.694 196.104 346.413C195.097 346.324 194.09 346.235 193.083 346.147C165.215 343.702 137.004 341.227 112.641 326.141C106.878 322.572 101.39 318.587 95.9021 314.602L95.9019 314.602L95.9017 314.602L95.9015 314.602L95.9013 314.601L95.9011 314.601L95.9009 314.601L95.9007 314.601L95.9005 314.601L95.9003 314.601L95.9001 314.601L95.8999 314.6L95.8998 314.6L95.8996 314.6L95.8994 314.6L95.8992 314.6L95.899 314.6L95.8988 314.599L95.8986 314.599L95.8984 314.599L95.8982 314.599C89.1532 309.701 82.4091 304.804 75.1551 300.68C61.9052 293.149 45.9357 287.654 30.6657 291.735C25.5246 293.109 21.1678 293.569 16.1306 291.377C11.3337 289.291 7.22434 285.558 4.4739 281.13C-2.50705 269.895 0.207285 255.384 2.96627 243.291C7.93041 221.532 13.0788 199.813 18.227 178.096L18.2275 178.094L18.2277 178.093L18.2283 178.09L18.2287 178.088L18.2292 178.086L18.2297 178.084L18.2302 178.083L18.2306 178.081L18.2311 178.079L18.2316 178.077L18.232 178.075L18.2325 178.073L18.233 178.071L18.2334 178.069L18.2339 178.067L18.2344 178.065L18.2349 178.063L18.235 178.062L18.2352 178.061C20.7611 167.406 23.2869 156.751 25.7909 146.092C27.0119 140.894 28.2282 135.695 29.4446 130.496L29.4469 130.486C31.9711 119.697 34.4952 108.908 37.0599 98.1295C39.9146 86.1311 43.0461 74.1683 47.2789 62.5722C55.3538 40.4474 68.229 18.8954 90.1692 8.30731C114.106 -3.24551 142.403 -0.207507 168.133 2.5548L168.136 2.55515L168.146 2.55625L168.17 2.55884L168.187 2.56066L168.211 2.56321L168.232 2.56549L168.239 2.56622C169.39 2.68981 170.536 2.81283 171.677 2.93391C204.621 6.43072 237.359 11.8656 269.669 19.1908C300.991 26.2931 332.263 34.843 362.418 45.9551C388.287 55.4868 413.938 68.8039 430.291 91.7806C437.292 101.619 442.39 112.945 444.139 124.946C446.21 139.163 442.833 153.162 438.258 166.56C437.077 170.017 435.818 173.46 434.558 176.906L434.558 176.907L434.557 176.909L434.556 176.912L434.555 176.915L434.554 176.918L434.553 176.921L434.552 176.924L434.551 176.927L434.55 176.93C430.594 187.752 426.626 198.605 425.01 210.049ZM430.189 255.113C430.192 255.121 430.195 255.13 430.198 255.138C441.722 284.677 463.337 306.777 484.982 328.909C503.42 347.76 521.879 366.633 534.143 390.146C546.266 413.389 552.152 441.559 541.469 466.481C532.034 488.495 511.597 504.058 489.258 511.456C435.212 529.356 381.801 496.134 348.07 455.652C340.084 446.068 332.834 435.92 325.585 425.772C317.854 414.95 310.123 404.128 301.498 393.99C293.562 384.662 284.854 375.905 274.888 368.739C264.577 361.325 253.099 355.972 240.877 352.561C224.56 348.008 207.74 346.575 190.916 345.142C179.398 344.161 167.878 343.18 156.516 341.197C142.18 338.695 128.248 334.418 115.644 327.028C108.866 323.053 102.512 318.443 96.1588 313.834L96.1581 313.833L96.1579 313.833C90.5262 309.747 84.8942 305.661 78.9654 302.016C67.4269 294.923 54.1553 289.258 40.3712 289.594C37.3701 289.666 34.3565 290.022 31.4343 290.721C30.8493 290.861 30.2759 291.009 29.7093 291.155C26.9424 291.866 24.3394 292.536 21.3533 292.088C15.2576 291.176 9.80639 287.209 6.22869 282.308C-2.33838 270.574 1.15118 254.552 4.18442 241.531C6.64824 230.954 9.13815 220.383 11.628 209.812C12.8721 204.53 14.1162 199.248 15.357 193.966C17.808 183.531 20.2526 173.094 22.6973 162.657L22.6982 162.654L22.6991 162.65L22.7 162.646L22.7008 162.643L22.7017 162.639L22.7026 162.635L22.7034 162.632L22.7043 162.628L22.7052 162.624L22.7061 162.621L22.7069 162.617L22.7078 162.613L22.7087 162.61L22.7096 162.606L22.7104 162.602L22.7113 162.599L22.7122 162.595C27.6709 141.426 32.6298 120.256 37.6417 99.0996C43.2486 75.4325 49.7774 50.5725 64.6131 30.8043C72.0126 20.9439 81.5764 12.8318 92.9327 7.90377C105.371 2.50643 119.076 0.964773 132.523 0.976553C147.423 0.990883 162.349 2.65032 177.138 4.31993C193.224 6.13693 209.257 8.41439 225.213 11.1505C256.937 16.5908 288.354 23.831 319.258 32.8354L320.648 33.2403C349.23 41.5658 379.253 50.3111 403.982 67.3685C425.015 81.8776 442.642 104.599 443.937 130.968C444.732 147.147 439.257 162.095 433.773 177.071C429.129 189.75 424.478 202.45 423.617 215.937C422.762 229.33 425.441 242.604 430.182 255.088C430.184 255.096 430.187 255.104 430.189 255.113ZM415.29 208.7C413.235 223.25 415.772 237.874 420.96 251.515C426.075 264.622 433.446 276.721 442.036 287.833C451.377 299.908 462.483 311.263 473.663 322.695L473.664 322.696C500.982 350.628 528.751 379.021 532.346 419.51C534.409 442.736 525.506 464.693 507.907 479.951C491.224 494.415 468.836 502.266 446.824 502.254C421.254 502.24 396.576 491.663 376.138 476.857C354.698 461.325 338.246 441.067 322.923 419.73C321.649 417.956 320.377 416.175 319.103 414.39L319.099 414.384L319.087 414.368C305.813 395.775 292.283 376.824 274.022 362.842C263.218 354.571 251.016 348.726 237.878 345.219C224.401 341.623 210.47 340.196 196.613 338.973C195.651 338.888 194.689 338.803 193.727 338.719L193.721 338.719C167.1 336.382 140.153 334.018 116.882 319.607C111.377 316.198 106.136 312.391 100.896 308.586L100.895 308.586L100.895 308.585C94.4496 303.905 88.0054 299.225 81.074 295.285C68.4213 288.093 53.1723 282.844 38.5903 286.741C33.6756 288.055 29.5086 288.493 24.6925 286.398C20.1095 284.404 16.1819 280.837 13.5522 276.605C6.88228 265.867 9.47297 252.004 12.1097 240.446C16.855 219.646 21.7768 198.883 26.6984 178.121L26.6985 178.12L26.6986 178.12L26.6987 178.12L26.6988 178.119L26.6989 178.119L26.699 178.119L26.699 178.118L26.6991 178.118L26.6992 178.117L26.6993 178.117L26.6994 178.117L26.6995 178.116L26.6996 178.116L26.6997 178.115L26.6998 178.115L26.6999 178.115L26.7 178.114L26.7001 178.114L26.7002 178.113L26.7009 178.111L26.7012 178.109L26.7014 178.108L26.7017 178.107L26.702 178.106L26.7023 178.104L26.7026 178.103L26.7029 178.102L26.7032 178.101L26.7035 178.1L26.7038 178.098L26.7041 178.097L26.7044 178.096L26.7047 178.095L26.7049 178.093L26.7052 178.092L26.7055 178.091L26.7058 178.09L26.7061 178.089L26.7064 178.087L26.7067 178.086C29.1154 167.925 31.5241 157.764 33.9119 147.599C35.0462 142.768 36.1766 137.936 37.307 133.105L37.3073 133.104L37.3095 133.094L37.3118 133.085C39.7535 122.648 42.1953 112.212 44.676 101.785C47.4037 90.3206 50.3953 78.8928 54.4384 67.8138C62.1536 46.6741 74.4555 26.0857 95.4183 15.9698C118.287 4.93377 145.32 7.83615 169.902 10.4753C171.035 10.597 172.163 10.7181 173.285 10.8373C204.755 14.1789 236.026 19.3697 266.89 26.3663C296.811 33.1504 326.684 41.3182 355.491 51.934C380.206 61.0402 404.711 73.7622 420.333 95.7135C427.023 105.113 431.894 115.936 433.565 127.402C435.543 140.983 432.317 154.358 427.945 167.157C426.816 170.464 425.612 173.756 424.407 177.052C420.626 187.393 416.834 197.764 415.29 208.7ZM420.233 251.827C431.247 280.018 451.881 301.116 472.545 322.244C490.157 340.251 507.79 358.28 519.505 380.74C531.083 402.936 536.704 429.839 526.503 453.639C517.492 474.663 497.974 489.527 476.639 496.592C425.022 513.688 374.009 481.955 341.793 443.293C334.167 434.141 327.245 424.451 320.323 414.761C312.935 404.42 305.548 394.079 297.305 384.392C289.723 375.482 281.404 367.114 271.884 360.269C262.032 353.185 251.065 348.071 239.386 344.811C223.802 340.462 207.737 339.093 191.667 337.724L191.666 337.724C180.663 336.787 169.657 335.849 158.803 333.955C145.111 331.566 131.804 327.481 119.765 320.422C113.289 316.624 107.22 312.221 101.151 307.818L101.15 307.817C95.7706 303.915 90.3912 300.012 84.7282 296.531C73.7042 289.754 61.0243 284.342 47.8526 284.664C44.9843 284.733 42.1044 285.074 39.3128 285.741C38.754 285.875 38.2063 286.015 37.6652 286.154C35.0254 286.833 32.5416 287.472 29.6924 287.046C23.8753 286.176 18.6707 282.388 15.255 277.712C7.07476 266.507 10.4082 251.207 13.3041 238.774C15.6793 228.578 18.079 218.389 20.4787 208.199L20.4829 208.181C21.648 203.233 22.8131 198.286 23.9754 193.338C26.3169 183.37 28.6522 173.4 30.9875 163.431L30.9924 163.409C35.732 143.175 40.4716 122.942 45.2629 102.72C50.6172 80.1157 56.8538 56.3717 71.0234 37.4906C78.0895 28.0754 87.2217 20.3261 98.0662 15.6207C109.946 10.466 123.035 8.99394 135.879 9.00548C150.11 9.01783 164.366 10.6042 178.492 12.1986C193.857 13.934 209.173 16.1096 224.414 18.7235C254.72 23.9195 284.728 30.8353 314.247 39.4377L315.582 39.8265C342.878 47.7778 371.553 56.1304 395.17 72.422C415.258 86.2793 432.093 107.978 433.329 133.161C434.088 148.615 428.859 162.893 423.62 177.197C419.184 189.309 414.741 201.439 413.919 214.321C413.101 227.132 415.666 239.831 420.208 251.772C420.215 251.792 420.224 251.81 420.233 251.827ZM410.974 248.148C406.031 235.15 403.613 221.215 405.57 207.35C407.042 196.927 410.656 187.044 414.26 177.189L414.26 177.188L414.261 177.186L414.262 177.183L414.263 177.18L414.263 177.178L414.264 177.175L414.265 177.172L414.266 177.17L414.267 177.167L414.268 177.164L414.269 177.162L414.27 177.159L414.271 177.156L414.272 177.154L414.273 177.151L414.274 177.148L414.275 177.146L414.276 177.143L414.277 177.14L414.278 177.138C415.421 174.013 416.562 170.891 417.633 167.755C421.8 155.556 424.875 142.806 422.989 129.86C421.396 118.928 416.752 108.61 410.374 99.6462C395.482 78.7218 372.124 66.5933 348.565 57.9114C321.107 47.7938 292.632 40.008 264.112 33.542C234.697 26.8727 204.89 21.9257 174.895 18.741C173.826 18.6275 172.751 18.5121 171.671 18.3962C148.239 15.8804 122.469 13.1137 100.667 23.6339C80.6817 33.2775 68.9527 52.9038 61.5961 73.0568C57.7413 83.6167 54.8891 94.5125 52.2889 105.439C49.9669 115.197 47.6817 124.963 45.3965 134.729C44.2752 139.521 43.1539 144.314 42.0282 149.105C39.7517 158.796 37.4554 168.483 35.1591 178.171C30.4663 197.968 25.7733 217.766 21.2484 237.601C18.7343 248.622 16.2651 261.84 22.6257 272.079C25.1329 276.116 28.8788 279.518 33.251 281.42C37.8458 283.42 41.8216 283.002 46.5115 281.748C60.4039 278.036 74.9339 283.039 86.9898 289.89C93.5955 293.644 99.7367 298.104 105.879 302.564L105.879 302.565C110.875 306.193 115.872 309.821 121.119 313.071C143.302 326.807 168.989 329.061 194.365 331.288L196.01 331.433L197.117 331.53C210.324 332.698 223.603 334.056 236.449 337.484C248.969 340.824 260.597 346.394 270.89 354.276C288.293 367.601 301.186 385.658 313.836 403.376C315.057 405.086 316.275 406.793 317.496 408.492C332.101 428.831 347.784 448.142 368.22 462.945C387.705 477.06 411.23 487.143 435.606 487.156C456.591 487.168 477.936 479.682 493.841 465.892C510.618 451.347 519.105 430.412 517.14 408.271C513.713 369.674 487.244 342.61 461.205 315.986C450.549 305.089 439.964 294.267 431.06 282.757C422.872 272.17 415.848 260.64 410.974 248.148ZM410.226 248.406C410.224 248.399 410.221 248.393 410.219 248.386C410.216 248.377 410.213 248.368 410.211 248.359C405.893 236.987 403.455 224.897 404.234 212.699C405.018 200.422 409.253 188.861 413.48 177.319C418.474 163.684 423.458 150.076 422.735 135.347C421.555 111.347 405.511 90.6702 386.369 77.4665C363.864 61.9424 336.539 53.9826 310.528 46.4055L309.248 46.0327C281.112 37.835 252.51 31.2432 223.625 26.2902C209.098 23.7987 194.5 21.7251 179.855 20.0711C166.394 18.5504 152.806 17.0385 139.245 17.0266C127.003 17.0153 114.53 18.4191 103.207 23.3312C92.8744 27.8155 84.1725 35.2001 77.4395 44.1718C63.9361 62.1658 57.9933 84.794 52.8901 106.335C48.3489 125.506 43.8556 144.688 39.3624 163.869L39.3582 163.887L39.3566 163.894L39.3531 163.909L39.3523 163.912C37.1038 173.511 34.8554 183.11 32.601 192.707C31.4921 197.427 30.3805 202.146 29.2688 206.866L29.2682 206.869L29.2676 206.871C26.98 216.583 24.6925 226.295 22.4293 236.013C19.6696 247.857 16.4919 262.437 24.2853 273.111C27.5369 277.567 32.4936 281.173 38.0336 282.001C40.7446 282.406 43.1085 281.798 45.6201 281.152L45.6234 281.152C46.1391 281.019 46.661 280.885 47.1933 280.758C49.8563 280.121 52.6025 279.796 55.3381 279.729C67.8955 279.423 79.984 284.58 90.4946 291.043C95.8923 294.361 101.02 298.081 106.146 301.801L106.147 301.802C111.932 305.999 117.716 310.196 123.889 313.815C135.361 320.544 148.042 324.435 161.092 326.713C171.436 328.518 181.924 329.412 192.41 330.305C207.728 331.61 223.042 332.914 237.898 337.06C249.033 340.168 259.487 345.043 268.881 351.797C277.956 358.322 285.886 366.3 293.114 374.793C300.968 384.024 308.008 393.879 315.047 403.734L315.048 403.734L315.048 403.734L315.048 403.735L315.048 403.735L315.049 403.735L315.049 403.735L315.049 403.736L315.049 403.736L315.049 403.736L315.049 403.736L315.049 403.737L315.05 403.737L315.05 403.737L315.05 403.737L315.05 403.738L315.05 403.738L315.05 403.738L315.05 403.738L315.051 403.739C321.649 412.975 328.247 422.211 335.516 430.934C366.215 467.776 414.831 498.019 464.019 481.727C484.349 474.993 502.947 460.829 511.534 440.795C521.254 418.117 515.897 392.481 504.866 371.332C493.7 349.925 476.894 332.741 460.108 315.577C440.399 295.426 420.719 275.303 410.226 248.406ZM395.852 206C393.991 219.179 396.289 232.425 400.988 244.781C405.621 256.658 412.3 267.62 420.082 277.684C428.549 288.628 438.612 298.918 448.745 309.279C473.505 334.598 498.673 360.333 501.933 397.036C503.802 418.094 495.731 438.003 479.775 451.837C464.649 464.952 444.349 472.073 424.391 472.062C401.21 472.05 378.835 462.462 360.305 449.037C340.873 434.96 325.961 416.599 312.073 397.259C310.913 395.644 309.754 394.021 308.594 392.396C296.566 375.549 284.308 358.38 267.762 345.712C257.978 338.219 246.923 332.924 235.024 329.749C222.81 326.489 210.184 325.197 197.627 324.087C197.201 324.05 196.774 324.012 196.348 323.975L195.016 323.858C170.886 321.74 146.457 319.596 125.362 306.534C120.373 303.444 115.622 299.994 110.872 296.545L110.872 296.545L110.871 296.544C105.031 292.303 99.1915 288.062 92.911 284.492C81.4541 277.979 67.643 273.222 54.4385 276.751C49.9721 277.943 46.1889 278.341 41.8136 276.438C37.6534 274.63 34.0897 271.391 31.7032 267.551C25.6529 257.812 27.9991 245.239 30.3907 234.755C34.6889 215.918 39.1457 197.116 43.6024 178.314C45.791 169.081 47.9795 159.848 50.1493 150.612C51.2327 146.001 52.3119 141.389 53.391 136.777L53.3913 136.776L53.3917 136.775L53.392 136.773L53.3923 136.772L53.3926 136.771L53.3929 136.77L53.3932 136.768L53.3935 136.767L53.3938 136.766L53.3941 136.764L53.3944 136.763L53.3947 136.762L53.395 136.761L53.3953 136.759L53.3956 136.758L53.3959 136.757L53.3962 136.756L53.3965 136.754C55.5547 127.531 57.7129 118.308 59.9054 109.092C62.3772 98.7 65.0909 88.3396 68.7561 78.2968C75.7526 59.1304 86.9086 40.4662 105.917 31.2948C126.651 21.2899 151.157 23.921 173.441 26.3136L173.448 26.3143C174.471 26.4242 175.49 26.5336 176.504 26.6412C205.023 29.6704 233.364 34.3752 261.333 40.7158C288.454 46.864 315.529 54.2674 341.639 63.8887C364.042 72.1447 386.253 83.6783 400.415 103.577C406.482 112.102 410.898 121.915 412.413 132.314C414.207 144.626 411.284 156.751 407.321 168.352C406.296 171.353 405.204 174.341 404.111 177.331L404.11 177.332L404.11 177.332L404.11 177.332L404.11 177.333L404.11 177.333L404.11 177.333L404.11 177.333L404.11 177.334L404.11 177.334L404.11 177.334L404.11 177.334L404.11 177.335L404.11 177.335L404.11 177.335L404.11 177.335L404.11 177.336L404.11 177.336L404.11 177.336C400.686 186.702 397.251 196.095 395.852 206ZM400.25 245.064C410.229 270.626 428.936 289.754 447.669 308.908C463.63 325.229 479.611 341.569 490.229 361.926C500.714 382.028 505.808 406.398 496.568 427.955C488.406 447 470.727 460.461 451.401 466.864C404.639 482.352 358.424 453.601 329.238 418.576C322.326 410.281 316.052 401.499 309.778 392.716C303.084 383.345 296.389 373.974 288.921 365.197C282.048 357.119 274.508 349.534 265.877 343.327C256.944 336.903 246.999 332.265 236.409 329.309C222.288 325.369 207.732 324.129 193.172 322.889L193.171 322.889L193.171 322.889L193.17 322.889L193.17 322.889L193.17 322.888L193.169 322.888L193.169 322.888L193.168 322.888L193.168 322.888L193.167 322.888L193.167 322.888L193.166 322.888L193.166 322.888L193.165 322.888L193.165 322.888L193.164 322.887L193.164 322.887L193.163 322.887C183.191 322.038 173.217 321.188 163.38 319.471C150.973 317.306 138.919 313.605 128.011 307.209C122.143 303.768 116.643 299.778 111.142 295.787C106.267 292.25 101.392 288.713 96.259 285.558C86.2614 279.411 74.7647 274.506 62.8212 274.799C60.2187 274.862 57.6061 275.172 55.0716 275.779C54.5666 275.9 54.0715 276.027 53.5824 276.153L53.5821 276.153C51.1951 276.767 48.9488 277.345 46.3724 276.96C41.1095 276.174 36.401 272.748 33.313 268.517C25.9067 258.37 28.9283 244.513 31.5506 233.256C33.7033 224.014 35.8791 214.777 38.0548 205.54L38.0551 205.538L38.0555 205.537L38.0558 205.535L38.0562 205.534L38.0565 205.532L38.0568 205.531L38.0572 205.53L38.0575 205.528L38.0579 205.527L38.0582 205.525L38.0586 205.524L38.0589 205.522L38.0593 205.521L38.0596 205.519L38.06 205.518L38.0603 205.516L38.0607 205.515L38.061 205.513C39.1158 201.036 40.1705 196.558 41.2226 192.079C43.3617 182.974 45.495 173.866 47.6283 164.759L47.6314 164.746L47.6345 164.733L47.6412 164.704L47.6431 164.696C51.9182 146.446 56.1932 128.195 60.5146 109.957C65.3668 89.478 71.0142 67.9654 83.8511 50.8601C90.2511 42.332 98.5224 35.3134 108.344 31.0503C119.107 26.3789 130.965 25.0467 142.603 25.0577C155.498 25.0695 168.414 26.5064 181.211 27.952C195.136 29.5244 209.017 31.4961 222.828 33.8651C250.292 38.575 277.487 44.8412 304.241 52.6373L305.464 52.9936C330.191 60.1969 356.166 67.7636 377.561 82.5209C395.759 95.0729 411.012 114.729 412.132 137.541C412.819 151.544 408.08 164.482 403.333 177.445C399.313 188.419 395.287 199.411 394.541 211.083C393.799 222.701 396.125 234.215 400.242 245.043C400.244 245.05 400.247 245.057 400.25 245.064ZM391.002 241.416C386.548 229.702 384.368 217.146 386.132 204.65C387.46 195.253 390.719 186.34 393.968 177.453C395.003 174.621 396.038 171.791 397.009 168.949C400.766 157.946 403.54 146.446 401.839 134.77C400.402 124.906 396.213 115.596 390.458 107.51C377.026 88.6381 355.961 77.6979 334.712 69.8676C309.951 60.7425 284.274 53.7212 258.555 47.8912C232.031 41.8776 205.157 37.4167 178.112 34.5445C177.149 34.4423 176.181 34.3383 175.208 34.2339C154.073 31.9647 130.829 29.4691 111.166 38.9572C93.1368 47.6566 82.5525 65.3569 75.9158 83.5383C72.4387 93.0637 69.8664 102.889 67.5203 112.745C65.4105 121.61 63.3345 130.483 61.2585 139.357L61.258 139.359C60.263 143.612 59.2679 147.865 58.2691 152.117C56.2133 160.869 54.1395 169.617 52.0657 178.365C47.8377 196.201 43.6095 214.038 39.5329 231.908C37.2637 241.857 35.0392 253.783 40.7803 263.024C43.0442 266.669 46.4281 269.741 50.3756 271.459C54.5295 273.267 58.1233 272.889 62.3635 271.756C74.8799 268.411 87.9706 272.922 98.8304 279.096C104.786 282.481 110.322 286.501 115.86 290.522C120.365 293.794 124.871 297.066 129.604 299.997C149.608 312.385 172.774 314.418 195.656 316.426C196.484 316.499 197.311 316.571 198.137 316.644C210.046 317.696 222.018 318.922 233.6 322.013C244.88 325.024 255.359 330.043 264.635 337.144C280.325 349.158 291.948 365.436 303.353 381.41L303.353 381.41C304.454 382.951 305.552 384.49 306.652 386.021C319.823 404.361 333.964 421.776 352.394 435.125C369.971 447.859 391.192 456.953 413.18 456.965C432.113 456.976 451.366 450.22 465.713 437.78C480.847 424.657 488.502 405.771 486.73 385.797C483.64 350.989 459.773 326.583 436.292 302.573C426.683 292.747 417.139 282.988 409.11 272.609C401.728 263.069 395.395 252.676 391.002 241.416ZM390.255 241.674C390.249 241.66 390.244 241.646 390.241 241.633C386.343 231.372 384.145 220.463 384.849 209.457C385.557 198.391 389.374 187.969 393.185 177.564C397.688 165.271 402.182 153.002 401.529 139.724C400.467 118.095 386.004 99.4621 368.753 87.5623C348.472 73.5726 323.846 66.3986 300.404 59.5697L300.404 59.5696L299.236 59.2293C273.868 51.8386 248.078 45.8945 222.035 41.4292C208.937 39.1822 195.775 37.3129 182.57 35.8218C170.435 34.4512 158.189 33.0891 145.964 33.0778C134.931 33.0673 123.688 34.3313 113.482 38.7601C104.171 42.8002 96.3315 49.4544 90.2646 57.5389C78.0941 73.7555 72.7386 94.1537 68.139 113.57C63.9982 131.051 59.9006 148.543 55.8031 166.035L55.8003 166.048L55.7974 166.06C53.8151 174.522 51.8327 182.985 49.8455 191.446C48.804 195.881 47.7597 200.315 46.7154 204.75L46.7138 204.757C44.6938 213.334 42.6739 221.911 40.6747 230.493C38.1882 241.163 35.3212 254.297 42.3422 263.914C45.2694 267.923 49.7286 271.168 54.714 271.913C57.1522 272.277 59.2786 271.73 61.5375 271.149L61.539 271.149C62.0033 271.029 62.4732 270.908 62.9526 270.794C65.3566 270.219 67.837 269.925 70.3067 269.865C81.6357 269.589 92.5426 274.24 102.026 280.07C106.894 283.062 111.518 286.417 116.143 289.772C121.357 293.556 126.572 297.339 132.135 300.602C142.476 306.666 153.907 310.174 165.669 312.228C174.996 313.855 184.453 314.661 193.909 315.467C207.72 316.644 221.527 317.82 234.921 321.557C244.967 324.36 254.399 328.759 262.874 334.853C271.06 340.74 278.211 347.935 284.73 355.596C291.81 363.918 298.156 372.802 304.503 381.686C310.454 390.017 316.405 398.348 322.961 406.215C350.631 439.42 394.448 466.681 438.781 451.997C457.103 445.928 473.862 433.166 481.601 415.111C490.36 394.677 485.531 371.574 475.592 352.518C465.682 333.522 450.597 318.167 435.699 303.001L435.699 303.001C434.074 301.347 432.451 299.695 430.837 298.041C414.561 281.358 398.841 263.687 390.255 241.674ZM376.413 203.301C374.745 215.11 376.806 226.979 381.017 238.049C385.17 248.694 391.156 258.518 398.129 267.539C405.721 277.353 414.745 286.58 423.83 295.871L423.83 295.871C446.031 318.574 468.597 341.65 471.519 374.564C473.197 393.454 465.956 411.316 451.643 423.727C438.075 435.495 419.866 441.885 401.961 441.875C381.166 441.864 361.098 433.265 344.474 421.221C327.049 408.598 313.678 392.133 301.224 374.792C300.187 373.347 299.151 371.895 298.113 370.441C287.33 355.337 276.34 339.943 261.504 328.584C252.738 321.871 242.833 317.127 232.172 314.282C221.222 311.36 209.903 310.203 198.644 309.207C197.864 309.138 197.083 309.07 196.302 309.001C174.665 307.102 152.759 305.179 133.844 293.466C129.369 290.695 125.109 287.601 120.849 284.508C115.613 280.706 110.379 276.905 104.749 273.704C94.4858 267.871 82.1156 263.606 70.2872 266.766C66.2718 267.839 62.8694 268.195 58.9365 266.485C55.2014 264.859 51.9996 261.95 49.8564 258.502C44.4264 249.758 46.5275 238.478 48.6742 229.066C52.5243 212.193 56.5167 195.351 60.509 178.509L60.5116 178.498C62.4766 170.209 64.4416 161.919 66.3894 153.627C67.3464 149.553 68.2996 145.479 69.2529 141.405C71.2035 133.068 73.1541 124.732 75.1361 116.402C77.3533 107.082 79.7875 97.7897 83.075 88.7815C89.3516 71.5866 99.363 54.8484 116.415 46.6212C135.012 37.6487 156.991 40.0086 176.979 42.1547L176.985 42.1554C177.902 42.2538 178.814 42.3518 179.722 42.4482C205.292 45.1634 230.701 49.3823 255.777 55.0669C280.095 60.5803 304.373 67.2196 327.785 75.8464C347.879 83.2494 367.797 93.596 380.498 111.443C385.94 119.092 389.902 127.897 391.261 137.227C392.87 148.268 390.248 159.142 386.695 169.548C385.776 172.238 384.797 174.917 383.816 177.599C380.746 185.997 377.667 194.42 376.413 203.301ZM380.281 238.338C388.404 259.141 403.261 275.84 418.645 291.61C420.173 293.177 421.71 294.741 423.249 296.308C437.331 310.643 451.588 325.156 460.954 343.112C470.348 361.121 474.912 382.957 466.635 402.269C459.32 419.336 443.48 431.396 426.163 437.132C384.258 451.013 342.838 425.243 316.685 393.856C310.487 386.418 304.861 378.543 299.235 370.668C293.235 362.267 287.234 353.867 280.539 345.998C274.375 338.753 267.612 331.95 259.871 326.383C251.856 320.619 242.935 316.459 233.432 313.807C220.768 310.272 207.713 309.161 194.654 308.048C185.716 307.287 176.775 306.526 167.958 304.987C156.837 303.047 146.034 299.731 136.257 293.998C130.997 290.913 126.066 287.336 121.136 283.759C116.764 280.587 112.392 277.415 107.79 274.586C98.8196 269.072 88.5044 264.674 77.7897 264.935C75.4528 264.993 73.1063 265.269 70.8307 265.815C70.3795 265.923 69.9371 266.037 69.4999 266.149C67.3654 266.699 65.3564 267.216 63.0528 266.872C58.3444 266.169 54.1334 263.104 51.3698 259.319C44.7355 250.232 47.4484 237.819 49.7956 227.737C51.6855 219.626 53.595 211.518 55.5044 203.41L55.5053 203.407C56.4933 199.211 57.4814 195.016 58.4667 190.82C60.3464 182.817 62.2213 174.813 64.0962 166.809C67.9712 150.267 71.8463 133.724 75.7634 117.191C80.1119 98.8378 85.172 79.5551 96.6764 64.2256C102.41 56.5862 109.819 50.2951 118.619 46.4777C128.267 42.2915 138.892 41.0971 149.323 41.1058C160.879 41.1167 172.456 42.4042 183.927 43.6996C196.412 45.109 208.856 46.8765 221.24 49.0012C245.863 53.2238 270.246 58.8419 294.231 65.8311L295.314 66.1465C317.481 72.6027 340.768 79.3854 359.946 92.6136C376.253 103.86 389.923 121.472 390.927 141.916C391.543 154.468 387.294 166.067 383.038 177.688L383.038 177.688C379.435 187.525 375.826 197.378 375.156 207.84C374.49 218.262 376.574 228.594 380.268 238.309C380.272 238.319 380.276 238.329 380.281 238.338ZM371.031 234.682C367.066 224.254 365.122 213.073 366.693 201.951C367.874 193.585 370.775 185.65 373.667 177.739L373.668 177.739L373.668 177.739L373.668 177.738L373.668 177.738L373.668 177.738L373.668 177.737L373.668 177.737L373.669 177.737L373.669 177.737L373.669 177.736C374.593 175.208 375.517 172.682 376.383 170.144C379.732 160.337 382.203 150.088 380.686 139.681C379.404 130.886 375.672 122.584 370.54 115.374C358.569 98.5539 339.797 88.8006 320.86 81.822C298.796 73.6915 275.917 67.4345 252.999 62.239C229.37 56.8814 205.425 52.9081 181.333 50.3486C180.478 50.2578 179.618 50.1655 178.754 50.0728L178.749 50.0723C159.911 48.0496 139.195 45.8253 121.666 54.2823C105.592 62.0372 96.1535 77.8119 90.2366 94.0218C87.1375 102.511 84.8446 111.269 82.7546 120.054C80.8557 128.036 78.9863 136.026 77.1169 144.015L77.1159 144.019C76.2492 147.723 75.3825 151.427 74.5128 155.131C72.6778 162.943 70.8268 170.752 68.9757 178.561L68.9747 178.566C65.2119 194.44 61.449 210.315 57.82 226.219C55.7959 235.094 53.8163 245.729 58.9374 253.972C60.9581 257.226 63.9796 259.97 67.5027 261.502C71.2143 263.117 74.4271 262.781 78.2162 261.768C89.3564 258.792 101.006 262.812 110.672 268.305C115.978 271.32 120.91 274.903 125.844 278.485L125.844 278.486C129.858 281.4 133.873 284.316 138.088 286.926C155.921 297.969 176.574 299.78 196.972 301.569C197.7 301.633 198.428 301.697 199.156 301.761C209.765 302.699 220.432 303.79 230.75 306.543C240.793 309.223 250.122 313.692 258.38 320.014C272.355 330.713 282.707 345.212 292.864 359.44L292.868 359.446C293.848 360.818 294.826 362.187 295.804 363.55C307.541 379.893 320.143 395.411 336.564 407.306C352.234 418.657 371.149 426.763 390.752 426.775C407.63 426.784 424.795 420.76 437.584 409.667C451.075 397.966 457.899 381.13 456.318 363.322C453.564 332.3 432.298 310.553 411.375 289.156C402.814 280.403 394.312 271.708 387.157 262.46C380.583 253.967 374.943 244.711 371.031 234.682ZM406.451 285.178C391.956 270.319 377.957 254.583 370.299 234.982C370.296 234.976 370.293 234.969 370.29 234.962C370.287 234.956 370.285 234.95 370.282 234.943C366.8 225.786 364.832 216.046 365.464 206.221C366.098 196.368 369.497 187.087 372.891 177.821C376.902 166.868 380.906 155.937 380.325 144.107C379.378 124.848 366.5 108.259 351.138 97.6644C333.07 85.2035 311.133 78.8138 290.252 72.7318L289.223 72.4321C266.621 65.8461 243.645 60.5504 220.442 56.5724C208.774 54.5718 197.046 52.9061 185.282 51.5768C174.476 50.3566 163.568 49.1437 152.681 49.1333C142.854 49.1232 132.842 50.2489 123.753 54.1928C115.465 57.7892 108.487 63.716 103.087 70.9119C92.2487 85.3542 87.4808 103.521 83.385 120.811C79.7125 136.312 76.0796 151.822 72.4467 167.331L72.4455 167.337L72.445 167.338L72.4438 167.344L72.4434 167.346L72.4383 167.367L72.4333 167.389L72.4283 167.41C70.6494 175.004 68.8706 182.599 67.087 190.192C66.221 193.878 65.353 197.563 64.485 201.247L64.4827 201.257L64.4823 201.259L64.4819 201.26L64.4815 201.262L64.4811 201.264L64.4807 201.266L64.4803 201.267L64.4799 201.269L64.4794 201.271L64.479 201.272L64.4786 201.274L64.4782 201.276L64.4778 201.278L64.4774 201.279L64.477 201.281C62.6165 209.179 60.7561 217.077 58.9156 224.98C56.7042 234.474 54.1474 246.165 60.3948 254.722C62.9949 258.283 66.9593 261.168 71.3889 261.829C73.5544 262.153 75.4435 261.666 77.4498 261.149L77.452 261.149C77.864 261.043 78.281 260.935 78.7063 260.833C80.8517 260.319 83.0648 260.056 85.2686 260.002C95.3709 259.756 105.096 263.9 113.551 269.098C117.889 271.765 122.009 274.754 126.129 277.743C130.775 281.114 135.42 284.485 140.377 287.391C149.587 292.793 159.766 295.915 170.242 297.744C178.551 299.195 186.977 299.912 195.401 300.63L195.401 300.63L195.401 300.63L195.402 300.63L195.402 300.63L195.402 300.63L195.402 300.63L195.403 300.63L195.403 300.63L195.403 300.63L195.403 300.63L195.404 300.63L195.404 300.63L195.404 300.63L195.404 300.63L195.405 300.63L195.405 300.63C207.707 301.678 220.007 302.725 231.939 306.055C240.897 308.555 249.306 312.479 256.863 317.912C264.159 323.158 270.533 329.571 276.343 336.4C282.654 343.816 288.31 351.734 293.967 359.652L293.967 359.653L293.968 359.653L293.968 359.653L293.968 359.654L293.968 359.654L293.969 359.654L293.969 359.655L293.969 359.655L293.969 359.655L293.97 359.656L293.97 359.656L293.97 359.656L293.97 359.657L293.971 359.657L293.971 359.657C299.269 367.074 304.568 374.491 310.405 381.496C335.043 411.065 374.064 435.343 413.541 422.268C429.856 416.864 444.776 405.503 451.666 389.427C459.462 371.238 455.163 350.667 446.315 333.705C437.489 316.781 424.05 303.102 410.778 289.592C409.332 288.12 407.887 286.65 406.451 285.178ZM356.973 200.601C355.499 211.04 357.323 221.53 361.045 231.317C364.716 240.729 370.011 249.417 376.185 257.393C382.902 266.076 390.885 274.24 398.921 282.459C418.564 302.547 438.529 322.964 441.115 352.091C442.6 368.814 436.191 384.628 423.522 395.616C411.513 406.033 395.392 411.694 379.541 411.684C361.131 411.674 343.369 404.063 328.653 393.402C313.236 382.234 301.404 367.664 290.385 352.319C289.467 351.04 288.55 349.756 287.631 348.468C278.094 335.111 268.376 321.498 255.255 311.452C247.507 305.518 238.751 301.326 229.329 298.811C219.641 296.226 209.628 295.2 199.668 294.321C199.007 294.262 198.345 294.204 197.683 294.146L197.673 294.145L197.664 294.144L197.654 294.143L197.644 294.143L197.613 294.14C178.463 292.46 159.074 290.759 142.332 280.391C138.373 277.94 134.604 275.203 130.835 272.467L130.835 272.466C126.204 269.103 121.574 265.741 116.594 262.911C107.527 257.757 96.5944 253.983 86.1438 256.775C82.5796 257.728 79.5578 258.043 76.0676 256.524C72.7569 255.084 69.9158 252.503 68.0174 249.446C63.2055 241.701 65.0618 231.712 66.9636 223.373C70.3708 208.435 73.9052 193.526 77.4393 178.617C79.176 171.291 80.9126 163.965 82.634 156.636C83.4647 153.1 84.2923 149.562 85.1199 146.024L85.1201 146.024C86.8608 138.583 88.6017 131.142 90.3708 123.707C92.3339 115.458 94.4885 107.234 97.398 99.2624C102.955 84.0389 111.822 69.2251 126.917 61.9436C143.377 54.0035 162.829 56.0921 180.52 57.9917C181.331 58.0788 182.139 58.1656 182.943 58.2509C205.562 60.6536 228.038 64.3844 250.222 69.4133C271.737 74.2904 293.219 80.1671 313.933 87.7995C331.715 94.3522 349.34 103.511 360.581 119.305C365.401 126.079 368.907 133.875 370.11 142.137C371.534 151.908 369.214 161.532 366.069 170.741C365.256 173.123 364.389 175.494 363.521 177.867C360.806 185.295 358.082 192.745 356.973 200.601ZM360.283 231.534C360.287 231.547 360.291 231.561 360.297 231.575C367.483 249.998 380.636 264.785 394.257 278.747C395.602 280.125 396.954 281.502 398.309 282.88L398.319 282.891L398.329 282.901C410.784 295.579 423.394 308.415 431.677 324.298C439.978 340.214 444.014 359.517 436.7 376.584C430.234 391.67 416.233 402.331 400.923 407.402C363.874 419.673 327.251 396.885 304.129 369.136C298.648 362.558 293.672 355.592 288.696 348.627L288.695 348.627L288.695 348.626L288.695 348.626L288.695 348.626L288.695 348.626L288.695 348.625L288.694 348.625L288.694 348.625L288.694 348.625L288.694 348.624L288.694 348.624L288.694 348.624L288.694 348.624L288.693 348.623L288.693 348.623L288.692 348.622L288.692 348.622L288.691 348.621L288.691 348.62L288.69 348.62L288.69 348.619L288.689 348.618L288.689 348.618L288.688 348.617L288.688 348.616L288.687 348.616L288.687 348.615L288.686 348.614C283.38 341.186 278.073 333.757 272.153 326.799C266.698 320.388 260.714 314.365 253.863 309.439C246.765 304.336 238.867 300.651 230.453 298.304C219.251 295.177 207.702 294.193 196.15 293.209L196.15 293.209L196.149 293.209C188.242 292.536 180.333 291.862 172.533 290.501C162.7 288.786 153.147 285.853 144.502 280.783C139.849 278.054 135.488 274.89 131.126 271.726C127.259 268.92 123.391 266.114 119.319 263.611C111.377 258.729 102.244 254.837 92.7555 255.069C90.6829 255.119 88.6072 255.372 86.5887 255.849C86.1708 255.948 85.7618 256.053 85.3579 256.156C83.4969 256.634 81.7447 257.084 79.7319 256.783C75.5796 256.163 71.8629 253.46 69.4254 250.12C63.5648 242.093 65.9658 231.122 68.0398 222.216C69.73 214.959 71.4379 207.707 73.146 200.454L73.1479 200.446L73.1499 200.438C74.004 196.811 74.8581 193.185 75.71 189.557C77.3884 182.412 79.0625 175.265 80.7365 168.119C84.1492 153.551 87.5618 138.982 91.0111 124.423C94.8559 108.196 99.3284 91.1446 109.5 77.591C114.567 70.8387 121.114 65.278 128.891 61.9028C137.422 58.2015 146.819 57.1457 156.042 57.1536C166.261 57.1624 176.498 58.3019 186.641 59.4469C197.685 60.6949 208.693 62.2582 219.648 64.1367C241.43 67.8718 263 72.8419 284.218 79.0243L285.192 79.308C304.787 85.0157 325.375 91.0127 342.331 102.706C356.746 112.649 368.835 128.215 369.722 146.29C370.267 157.393 366.509 167.655 362.744 177.937C359.559 186.635 356.368 195.347 355.773 204.595C355.18 213.809 357.022 222.944 360.283 231.534ZM351.059 227.95C347.582 218.807 345.876 209.004 347.254 199.251C348.29 191.909 350.836 184.946 353.374 178.004C354.186 175.784 354.996 173.567 355.757 171.34C358.696 162.73 360.866 153.731 359.534 144.594C358.408 136.867 355.131 129.575 350.622 123.239C340.111 108.472 323.633 99.9067 307.005 93.7796C287.639 86.6435 267.557 81.1507 247.441 76.5899C226.705 71.8883 205.693 68.4012 184.55 66.1555C184.119 66.1098 183.688 66.0636 183.255 66.0173L182.286 65.9133C165.745 64.1372 147.556 62.1842 132.162 69.6085C118.045 76.4177 109.751 90.2695 104.554 104.506C101.833 111.961 99.8177 119.651 97.9837 127.363C96.3432 134.259 94.7284 141.161 93.1136 148.063L93.1125 148.068L93.112 148.07L93.1115 148.072L93.111 148.074C92.3255 151.431 91.54 154.789 90.7515 158.146C89.1391 165.01 87.5125 171.872 85.8859 178.734L85.8849 178.738L85.8839 178.743L85.8829 178.747L85.8819 178.751L85.8809 178.755L85.8799 178.76L85.8789 178.764L85.8788 178.764L85.8787 178.765L85.8786 178.765L85.8785 178.766L85.8784 178.766L85.8783 178.767L85.8782 178.767L85.8781 178.768L85.878 178.768L85.8779 178.768L85.8778 178.769L85.8777 178.769L85.8776 178.77C82.5799 192.681 79.2821 206.593 76.1023 220.529C74.3214 228.331 72.5882 237.675 77.0909 244.922C78.8683 247.784 81.5279 250.198 84.6263 251.546C87.897 252.968 90.7274 252.675 94.0652 251.782C103.828 249.175 114.04 252.702 122.51 257.515C127.166 260.162 131.494 263.305 135.824 266.449L135.824 266.45C139.347 269.007 142.87 271.566 146.569 273.857C162.223 283.55 180.351 285.14 198.257 286.711L198.306 286.716C198.929 286.77 199.551 286.825 200.173 286.88C209.483 287.701 218.845 288.661 227.898 291.077C236.702 293.426 244.884 297.344 252.122 302.887C264.383 312.274 273.466 324.996 282.378 337.479L282.382 337.484L282.385 337.488C283.243 338.69 284.1 339.89 284.958 341.085C295.259 355.429 306.32 369.051 320.735 379.494C334.498 389.463 351.107 396.58 368.324 396.589C383.147 396.598 398.223 391.303 409.453 381.56C421.3 371.284 427.295 356.495 425.907 340.855C423.488 313.619 404.825 294.532 386.459 275.75L386.459 275.749C378.947 268.067 371.485 260.435 365.205 252.318C359.439 244.866 354.491 236.748 351.059 227.95ZM382.065 272.315C369.333 259.264 357.039 245.444 350.319 228.228C350.316 228.221 350.313 228.214 350.31 228.207C347.251 220.162 345.524 211.605 346.08 202.975C346.637 194.331 349.619 186.188 352.596 178.058C356.115 168.448 359.628 158.856 359.119 148.479C358.289 131.591 346.992 117.046 333.522 107.755C317.677 96.8288 298.438 91.2249 280.127 85.891L279.21 85.6239C259.375 79.8446 239.212 75.1985 218.851 71.7066C208.61 69.9503 198.319 68.4888 187.995 67.3224C178.515 66.2508 168.949 65.1861 159.399 65.1778C150.779 65.1701 141.999 66.1563 134.025 69.6166C126.759 72.7688 120.644 77.9652 115.91 84.2739C106.404 96.9404 102.224 112.875 98.6316 128.04C95.4278 141.564 92.2581 155.096 89.0884 168.628C87.5034 175.394 85.9185 182.161 84.3293 188.926C83.5351 192.307 82.7388 195.688 81.9426 199.069L81.9347 199.103L81.9329 199.11C80.336 205.891 78.7391 212.671 77.1587 219.455C75.2205 227.774 72.9759 238.021 78.4494 245.52C80.7234 248.635 84.1919 251.158 88.0671 251.736C89.9453 252.017 91.5801 251.597 93.3167 251.151C93.6929 251.054 94.074 250.957 94.4633 250.864C96.3534 250.417 98.2951 250.181 100.235 250.133C109.109 249.916 117.652 253.554 125.08 258.12C128.884 260.459 132.497 263.081 136.11 265.702L136.111 265.702C140.19 268.662 144.268 271.621 148.621 274.173C156.701 278.912 165.628 281.651 174.818 283.255C182.111 284.528 189.505 285.158 196.897 285.788L196.898 285.788C207.696 286.707 218.49 287.627 228.961 290.549C236.832 292.747 244.217 296.191 250.857 300.965C257.263 305.572 262.859 311.204 267.959 317.2C273.498 323.708 278.462 330.657 283.426 337.606C288.077 344.116 292.728 350.627 297.851 356.775C319.459 382.706 353.683 404.003 388.304 392.536C402.609 387.797 415.692 377.837 421.733 363.74C428.568 347.796 424.795 329.76 417.04 314.89C409.294 300.04 397.502 288.037 385.854 276.181C384.588 274.892 383.323 273.605 382.065 272.315ZM337.534 197.901C336.254 206.969 337.84 216.082 341.073 224.584C344.265 232.765 348.867 240.316 354.227 247.248C360.069 254.801 367.011 261.901 374 269.049L374 269.049C391.085 286.523 408.447 304.281 410.697 329.621C411.99 344.177 406.411 357.941 395.385 367.507C384.932 376.574 370.902 381.503 357.105 381.496C341.082 381.486 325.626 374.864 312.816 365.585C299.407 355.871 289.116 343.196 279.531 329.851C278.73 328.735 277.929 327.614 277.128 326.491C268.839 314.883 260.393 303.054 248.992 294.324C242.261 289.171 234.656 285.528 226.47 283.343C218.048 281.096 209.34 280.205 200.679 279.439L199.775 279.36L198.902 279.283L198.902 279.283C182.241 277.821 165.373 276.341 150.808 267.322C147.365 265.191 144.087 262.811 140.81 260.43L140.809 260.43C136.783 257.507 132.757 254.583 128.427 252.122C120.554 247.647 111.062 244.367 101.988 246.789C98.8749 247.622 96.2355 247.895 93.1862 246.568C90.2986 245.312 87.8211 243.061 86.1659 240.396C81.974 233.648 83.5836 224.952 85.2421 217.686C88.202 204.713 91.2716 191.763 94.341 178.814C95.8547 172.428 97.3684 166.042 98.8689 159.654C99.6024 156.532 100.333 153.408 101.064 150.285L101.065 150.282L101.065 150.279L101.066 150.276L101.067 150.273L101.068 150.27L101.068 150.267L101.069 150.263L101.07 150.26L101.071 150.257L101.071 150.254L101.072 150.251L101.073 150.248C102.573 143.837 104.073 137.425 105.598 131.019C107.306 123.842 109.181 116.687 111.713 109.75C116.55 96.4977 124.271 83.6095 137.411 77.2725C151.734 70.3635 168.661 72.181 184.054 73.8337L184.069 73.8353L184.09 73.8377L184.14 73.843L184.146 73.8437C184.82 73.916 185.491 73.988 186.158 74.0588C205.826 76.1475 225.372 79.3924 244.662 83.7654C263.378 88.0083 282.06 93.1187 300.078 99.7585C315.55 105.46 330.882 113.431 340.662 127.172C344.86 133.068 347.91 139.858 348.958 147.05C350.198 155.551 348.179 163.925 345.444 171.937C344.737 174.01 343.982 176.074 343.226 178.14C340.866 184.597 338.498 191.073 337.534 197.901ZM340.312 224.804C340.314 224.81 340.316 224.815 340.318 224.821L340.321 224.832L340.325 224.842C346.578 240.87 358.02 253.735 369.871 265.884C371.04 267.081 372.215 268.278 373.391 269.475L373.393 269.478L373.396 269.48L373.398 269.482L373.4 269.484L373.402 269.487L373.405 269.489L373.405 269.489C384.235 280.513 395.199 291.674 402.403 305.484C409.612 319.307 413.12 336.076 406.767 350.898C401.15 364.005 388.986 373.266 375.685 377.671C343.493 388.334 311.667 368.528 291.575 344.416C286.807 338.694 282.479 332.636 278.151 326.578L278.151 326.578L278.151 326.578L278.151 326.578L278.151 326.577L278.151 326.577L278.15 326.577L278.15 326.577L278.15 326.576L278.15 326.576L278.15 326.576L278.15 326.576L278.15 326.575L278.149 326.575C273.534 320.114 268.918 313.653 263.77 307.601C259.023 302.022 253.817 296.78 247.856 292.494C241.675 288.05 234.801 284.843 227.475 282.799C217.733 280.081 207.691 279.225 197.646 278.369C190.77 277.784 183.892 277.198 177.108 276.014C168.562 274.523 160.26 271.975 152.746 267.568C148.703 265.197 144.913 262.447 141.124 259.698L141.123 259.698L141.123 259.697L141.123 259.697L141.122 259.697L141.122 259.697L141.122 259.696L141.121 259.696L141.121 259.696L141.121 259.696L141.12 259.696L141.12 259.695L141.12 259.695C137.755 257.254 134.39 254.813 130.847 252.636C123.933 248.384 115.981 245.001 107.721 245.202C105.914 245.247 104.105 245.467 102.345 245.883C101.982 245.969 101.626 246.06 101.275 246.15C99.6651 246.564 98.1489 246.953 96.4094 246.693C92.8114 246.157 89.5925 243.814 87.4809 240.922C82.3927 233.952 84.483 224.426 86.2835 216.695C87.7536 210.382 89.2399 204.073 90.7262 197.764C91.4695 194.609 92.2128 191.454 92.9541 188.298C94.4335 182 95.909 175.702 97.3845 169.403L97.3859 169.397C100.333 156.815 103.281 144.234 106.26 131.659C109.6 117.559 113.487 102.736 122.327 90.9585C126.728 85.0949 132.413 80.2616 139.167 77.3305C146.582 74.1125 154.748 73.1964 162.764 73.2039C171.645 73.2118 180.543 74.2018 189.359 75.1982C198.963 76.2833 208.536 77.6427 218.061 79.2764C237.003 82.5241 255.759 86.8461 274.208 92.2231L275.07 92.4742L275.071 92.4744C292.097 97.434 309.986 102.645 324.718 112.804C337.244 121.442 347.748 134.965 348.52 150.669C348.994 160.321 345.726 169.242 342.452 178.181C339.683 185.743 336.909 193.317 336.391 201.357C335.873 209.376 337.474 217.327 340.312 224.804ZM331.087 221.218C328.099 213.361 326.631 204.935 327.814 196.552C328.706 190.235 330.896 184.245 333.08 178.271C333.778 176.36 334.476 174.451 335.131 172.533C337.662 165.12 339.529 157.37 338.383 149.504C337.413 142.846 334.59 136.562 330.705 131.102C321.657 118.387 307.47 111.01 293.154 105.735C276.485 99.593 259.199 94.8642 241.887 90.9381C224.043 86.8923 205.963 83.8914 187.77 81.9597C187.128 81.8914 186.482 81.8221 185.833 81.7525C171.587 80.2228 155.921 78.5407 142.664 84.9341C130.501 90.7988 123.353 102.725 118.876 114.99C116.532 121.41 114.797 128.031 113.218 134.672C111.819 140.551 110.442 146.436 109.065 152.32L109.064 152.325L109.058 152.347L109.053 152.369C108.368 155.299 107.682 158.23 106.993 161.16C105.606 167.066 104.207 172.97 102.807 178.875C99.9675 190.855 97.1277 202.837 94.389 214.84C92.8531 221.57 91.3649 229.621 95.2476 235.87C96.7818 238.34 99.0776 240.426 101.753 241.589C104.581 242.819 107.03 242.565 109.918 241.795C118.304 239.555 127.077 242.591 134.351 246.726C138.357 249.004 142.082 251.709 145.808 254.414C148.839 256.615 151.87 258.816 155.053 260.788C168.527 269.132 184.132 270.501 199.545 271.853C200.094 271.902 200.643 271.95 201.192 271.998C209.203 272.706 217.258 273.531 225.05 275.609C232.616 277.629 239.647 280.995 245.868 285.759C256.413 293.833 264.225 304.774 271.891 315.51C272.632 316.549 273.372 317.585 274.113 318.617C282.979 330.963 292.501 342.69 304.908 351.677C316.763 360.265 331.067 366.393 345.898 366.401C358.668 366.408 371.653 361.845 381.327 353.451C391.53 344.597 396.695 331.857 395.499 318.384C393.417 294.939 377.357 278.511 361.551 262.343C355.086 255.731 348.664 249.162 343.259 242.174C338.295 235.763 334.038 228.783 331.087 221.218ZM357.677 259.452C346.725 248.225 336.149 236.335 330.359 221.528C330.353 221.517 330.347 221.505 330.342 221.492L330.337 221.479C327.702 214.548 326.214 207.175 326.695 199.739C327.175 192.304 329.74 185.299 332.302 178.305C335.33 170.038 338.352 161.787 337.914 152.86C337.203 138.342 327.488 125.842 315.908 117.856C302.287 108.465 285.747 103.646 270.007 99.0609L269.2 98.8258C252.133 93.8535 234.783 89.8555 217.262 86.8508C208.45 85.3391 199.596 84.0819 190.712 83.0784C182.56 82.1572 174.333 81.242 166.12 81.2343C158.706 81.2271 151.157 82.0751 144.3 85.0505C138.056 87.7602 132.803 92.2276 128.735 97.6476C120.562 108.538 116.969 122.245 113.88 135.282C111.146 146.825 108.44 158.375 105.735 169.926L105.733 169.934C104.348 175.847 102.963 181.761 101.574 187.673C100.911 190.495 100.246 193.317 99.5816 196.138C98.1842 202.071 96.7868 208.005 95.4042 213.942C93.7398 221.083 91.8053 229.889 96.5067 236.328C98.4563 238.997 101.429 241.16 104.748 241.653C106.353 241.892 107.751 241.533 109.236 241.151L109.236 241.151L109.236 241.151L109.236 241.151L109.236 241.151C109.56 241.068 109.888 240.983 110.223 240.904C111.853 240.517 113.529 240.313 115.203 240.272C122.848 240.085 130.209 243.215 136.61 247.15C139.885 249.163 142.995 251.42 146.106 253.677C149.615 256.222 153.123 258.768 156.866 260.963C163.816 265.038 171.491 267.393 179.394 268.773C185.669 269.868 192.032 270.41 198.394 270.952C207.685 271.744 216.973 272.535 225.983 275.049C232.765 276.942 239.129 279.91 244.849 284.025C250.366 287.993 255.181 292.842 259.575 298.004C264.34 303.605 268.611 309.583 272.882 315.562C276.885 321.164 280.887 326.767 285.296 332.058C303.871 354.351 333.298 372.667 363.063 362.808C375.361 358.735 386.604 350.176 391.798 338.057C397.671 324.356 394.427 308.854 387.763 296.078C381.099 283.299 370.954 272.973 360.933 262.773C359.845 261.666 358.758 260.56 357.677 259.452ZM318.096 195.202C317.008 202.9 318.356 210.635 321.101 217.851C323.813 224.801 327.722 231.212 332.275 237.103C337.242 243.523 343.142 249.559 349.081 255.634L349.082 255.634L349.082 255.634L349.082 255.634L349.082 255.635L349.083 255.635L349.083 255.635L349.083 255.635L349.083 255.635L349.084 255.636L349.084 255.636C363.612 270.497 378.373 285.596 380.287 307.15C381.386 319.539 376.638 331.254 367.257 339.397C358.363 347.116 346.421 351.314 334.678 351.308C321.04 351.3 307.889 345.667 296.987 337.769C285.585 329.509 276.833 318.732 268.685 307.384C268.004 306.436 267.325 305.484 266.644 304.531C259.601 294.667 252.425 284.615 242.735 277.197C237.025 272.823 230.566 269.73 223.62 267.877C216.461 265.966 209.059 265.208 201.697 264.558L201.226 264.516L200.19 264.425C186.022 263.182 171.677 261.923 159.292 254.253C156.367 252.442 153.581 250.419 150.796 248.397C147.373 245.911 143.95 243.425 140.268 241.333C133.591 237.536 125.539 234.747 117.84 236.802C115.179 237.513 112.92 237.745 110.313 236.611C107.85 235.539 105.735 233.618 104.323 231.345C100.751 225.594 102.116 218.188 103.529 211.995C106.04 200.99 108.644 190.005 111.248 179.021L111.248 179.02L111.248 179.02L111.248 179.02L111.248 179.019L111.248 179.019L111.249 179.018L111.249 179.018L111.249 179.017L111.249 179.017L111.249 179.016C112.541 173.567 113.832 168.118 115.113 162.666C115.714 160.108 116.312 157.549 116.911 154.99L116.913 154.981L116.915 154.972L116.918 154.963L116.92 154.954L116.922 154.945L116.923 154.942L116.923 154.938C118.22 149.4 119.516 143.861 120.832 138.326C122.286 132.22 123.882 126.133 126.036 120.232C130.153 108.951 136.729 97.9892 147.913 92.5964C160.101 86.7201 174.504 88.2665 187.601 89.6728L187.609 89.6736L188.13 89.7295L188.461 89.765C188.768 89.7979 189.073 89.8305 189.378 89.8629C206.097 91.6376 222.712 94.3965 239.108 98.1134C255.021 101.722 270.907 106.068 286.227 111.713C299.389 116.565 312.429 123.348 320.747 135.036C324.321 140.057 326.916 145.837 327.808 151.961C328.862 159.194 327.147 166.317 324.82 173.132C324.218 174.895 323.576 176.65 322.934 178.407L322.934 178.408C320.928 183.895 318.916 189.399 318.096 195.202ZM320.343 218.079L320.346 218.09C320.348 218.097 320.351 218.103 320.353 218.109C325.671 231.743 335.403 242.687 345.485 253.021C346.479 254.039 347.478 255.057 348.479 256.076L348.48 256.076C357.685 265.446 367.004 274.933 373.126 286.67C379.245 298.399 382.223 312.635 376.832 325.214C372.063 336.343 361.738 344.202 350.447 347.943C323.11 356.998 296.08 340.173 279.02 319.699C274.968 314.836 271.29 309.687 267.612 304.538C263.687 299.045 259.763 293.551 255.385 288.405C251.347 283.658 246.92 279.201 241.849 275.554C236.587 271.77 230.735 269.039 224.496 267.297C216.216 264.987 207.679 264.259 199.141 263.532C193.296 263.034 187.45 262.536 181.685 261.53C174.424 260.263 167.375 258.099 160.992 254.356C157.554 252.34 154.331 250.002 151.109 247.664C148.249 245.589 145.389 243.514 142.378 241.664C136.491 238.045 129.721 235.168 122.689 235.339C121.148 235.377 119.606 235.567 118.105 235.922C117.798 235.995 117.498 236.072 117.201 236.149L117.199 236.149L117.198 236.149C115.84 236.499 114.559 236.828 113.091 236.608C110.049 236.155 107.324 234.173 105.539 231.728C101.224 225.818 103.002 217.735 104.529 211.18C105.803 205.711 107.091 200.244 108.379 194.778L108.383 194.76C108.989 192.187 109.595 189.615 110.199 187.042C111.413 181.874 112.623 176.706 113.834 171.538L113.834 171.537L113.834 171.536L113.835 171.535L113.835 171.534L113.835 171.533L113.835 171.532L113.836 171.531L113.836 171.53L113.836 171.528L113.836 171.527C116.384 160.649 118.933 149.77 121.509 138.898C124.346 126.923 127.646 114.333 135.153 104.329C138.887 99.3525 143.71 95.2497 149.443 92.7626C155.742 90.0298 162.676 89.2518 169.485 89.2569C177.029 89.2642 184.587 90.1048 192.075 90.9508C200.238 91.8726 208.375 93.028 216.473 94.4174C232.573 97.1775 248.517 100.853 264.2 105.422L264.95 105.641C279.407 109.852 294.597 114.278 307.107 122.902C317.742 130.236 326.664 141.713 327.319 155.048C327.721 163.25 324.944 170.832 322.161 178.429C319.808 184.853 317.452 191.288 317.01 198.117C316.57 204.933 317.924 211.692 320.334 218.047L320.336 218.056C320.338 218.064 320.34 218.072 320.343 218.079ZM311.115 214.485C308.616 207.911 307.386 200.863 308.377 193.851C309.124 188.558 310.959 183.539 312.789 178.534C313.374 176.933 313.958 175.334 314.507 173.727C316.628 167.51 318.192 161.011 317.233 154.416C316.419 148.826 314.051 143.549 310.789 138.966C303.201 128.303 291.308 122.113 279.301 117.689C265.329 112.54 250.843 108.576 236.331 105.286C221.381 101.896 206.232 99.3827 190.989 97.7635C190.453 97.7065 189.914 97.6487 189.373 97.5905C177.423 96.3074 164.285 94.8966 153.163 100.257C142.956 105.178 136.953 115.178 133.196 125.472C131.23 130.856 129.775 136.408 128.449 141.978C127.265 146.956 126.099 151.939 124.933 156.922L124.931 156.929L124.93 156.936L124.928 156.943C124.364 159.353 123.8 161.762 123.235 164.17C122.071 169.127 120.896 174.082 119.722 179.037L119.721 179.038L119.721 179.039L119.721 179.04L119.721 179.041L119.72 179.042L119.72 179.043L119.72 179.044L119.72 179.045L119.715 179.066L119.714 179.069C117.339 189.088 114.964 199.108 112.674 209.146C111.383 214.803 110.141 221.563 113.403 226.814C114.694 228.89 116.627 230.648 118.878 231.626C121.264 232.664 123.331 232.453 125.768 231.802C132.777 229.931 140.11 232.475 146.19 235.93C149.547 237.838 152.668 240.105 155.79 242.372C158.329 244.216 160.869 246.06 163.535 247.712C174.832 254.707 187.917 255.855 200.84 256.99L200.84 256.99C201.297 257.03 201.754 257.07 202.21 257.11C208.922 257.702 215.671 258.394 222.199 260.137C228.526 261.825 234.409 264.643 239.612 268.625C248.442 275.387 254.982 284.546 261.401 293.536L261.409 293.547C262.029 294.415 262.647 295.281 263.266 296.143C270.699 306.491 278.68 316.323 289.079 323.855C299.027 331.062 311.024 336.201 323.47 336.208C334.185 336.213 345.082 332.381 353.197 325.337C361.756 317.906 366.091 307.214 365.086 295.908C363.341 276.249 349.882 262.481 336.634 248.928C331.218 243.386 325.836 237.881 321.305 232.024C317.15 226.662 313.586 220.819 311.115 214.485ZM333.291 246.589C324.111 237.177 315.249 227.213 310.391 214.803C310.387 214.795 310.382 214.787 310.378 214.778C310.375 214.772 310.373 214.766 310.37 214.76L310.368 214.756L310.364 214.745C308.151 208.928 306.906 202.739 307.31 196.497C307.713 190.272 309.862 184.406 312.007 178.55C314.544 171.625 317.075 164.713 316.709 157.237C316.113 145.088 307.983 134.632 298.293 127.952C286.887 120.09 273.035 116.055 259.856 112.217L259.188 112.022C244.888 107.855 230.352 104.505 215.672 101.988C208.29 100.721 200.871 99.668 193.428 98.8276C186.604 98.0568 179.716 97.2911 172.841 97.2843C166.635 97.2778 160.316 97.9876 154.577 100.478C149.355 102.744 144.965 106.483 141.563 111.015C134.723 120.13 131.717 131.605 129.133 142.517C126.8 152.365 124.492 162.218 122.184 172.071C121.064 176.852 119.944 181.633 118.821 186.413C118.27 188.761 117.717 191.108 117.164 193.456L117.162 193.463C115.988 198.449 114.813 203.434 113.651 208.422C112.262 214.389 110.637 221.751 114.565 227.131C116.187 229.354 118.664 231.155 121.428 231.566C122.762 231.764 123.925 231.464 125.158 231.147C125.429 231.077 125.703 231.006 125.983 230.94C127.353 230.615 128.763 230.441 130.171 230.408C136.589 230.251 142.768 232.875 148.141 236.178C150.885 237.865 153.491 239.756 156.098 241.647L156.098 241.647L156.098 241.648L156.098 241.648L156.098 241.648L156.098 241.648L156.099 241.648L156.099 241.648L156.099 241.648L156.099 241.648C159.038 243.781 161.977 245.913 165.113 247.752C170.93 251.165 177.355 253.135 183.972 254.291C189.228 255.208 194.557 255.662 199.885 256.115L199.886 256.115L199.887 256.115C207.672 256.778 215.455 257.441 223.006 259.548C228.7 261.137 234.04 263.629 238.843 267.083C243.47 270.41 247.508 274.478 251.193 278.808C255.185 283.5 258.764 288.509 262.343 293.519C265.696 298.213 269.049 302.907 272.743 307.34C288.288 325.994 312.919 341.328 337.827 333.078C348.114 329.67 357.52 322.51 361.865 312.372C366.776 300.917 364.06 287.946 358.489 277.264C352.909 266.567 344.418 257.922 336.03 249.383C335.114 248.451 334.2 247.521 333.291 246.589ZM298.657 192.503C297.763 198.83 298.873 205.189 301.129 211.119C303.36 216.837 306.578 222.111 310.327 226.957C314.421 232.249 319.281 237.222 324.173 242.227L324.174 242.228C336.142 254.473 348.3 266.912 349.878 284.678C350.786 294.898 346.868 304.567 339.13 311.286C331.793 317.658 321.941 321.125 312.253 321.12C301.003 321.115 290.156 316.468 281.162 309.953C271.768 303.147 264.556 294.265 257.842 284.916C257.283 284.137 256.724 283.355 256.165 282.572L256.161 282.567L256.158 282.562C250.362 274.445 244.457 266.174 236.483 260.069C231.79 256.475 226.482 253.934 220.773 252.41C214.876 250.836 208.78 250.213 202.718 249.677L201.923 249.607L201.479 249.568C189.803 248.543 177.982 247.505 167.776 241.184C165.367 239.693 163.074 238.027 160.78 236.362L160.78 236.362C157.961 234.314 155.141 232.267 152.109 230.544C146.628 227.428 140.013 225.13 133.693 226.816C131.481 227.407 129.604 227.597 127.438 226.655C125.4 225.769 123.647 224.176 122.478 222.295C119.526 217.542 120.646 211.428 121.814 206.307C123.878 197.265 126.018 188.239 128.157 179.214C129.226 174.705 130.295 170.195 131.354 165.684C131.871 163.486 132.385 161.288 132.899 159.089L132.901 159.082L132.903 159.074L132.905 159.067L132.907 159.059L132.908 159.051L132.915 159.024L132.921 158.996L132.924 158.986C133.965 154.536 135.006 150.085 136.064 145.638C137.261 140.603 138.578 135.585 140.354 130.718C143.752 121.408 149.182 112.376 158.411 107.925C168.459 103.079 180.334 104.354 191.131 105.513L191.133 105.514L191.201 105.521C191.668 105.571 192.134 105.621 192.597 105.67C206.366 107.133 220.048 109.403 233.552 112.465C246.664 115.437 259.752 119.019 272.374 123.67C283.225 127.668 293.972 133.264 300.83 142.9C303.78 147.046 305.92 151.818 306.656 156.873C307.524 162.835 306.111 168.707 304.194 174.326C303.7 175.775 303.172 177.218 302.644 178.662L302.644 178.664L302.643 178.665L302.643 178.667L302.642 178.668L302.641 178.67L302.641 178.671L302.64 178.673C300.988 183.192 299.332 187.724 298.657 192.503ZM300.381 211.378C304.766 222.618 312.788 231.638 321.099 240.158C321.913 240.992 322.732 241.826 323.552 242.661L323.554 242.662L323.555 242.663L323.556 242.665L323.557 242.666L323.559 242.667L323.56 242.669C331.139 250.383 338.811 258.192 343.851 267.856C348.877 277.492 351.328 289.195 346.899 299.529C342.978 308.677 334.493 315.137 325.209 318.212C302.727 325.658 280.496 311.816 266.466 294.978C263.128 290.972 260.098 286.73 257.068 282.489L257.068 282.489L257.067 282.488L257.067 282.488L257.067 282.488L257.067 282.487L257.066 282.487L257.066 282.487L257.066 282.486C253.835 277.965 250.605 273.443 247.002 269.207C243.672 265.294 240.024 261.616 235.842 258.61C231.497 255.486 226.669 253.232 221.519 251.795C214.701 249.892 207.672 249.293 200.64 248.695L200.64 248.695L200.64 248.695L200.639 248.695L200.639 248.695L200.639 248.694L200.639 248.694L200.638 248.694L200.638 248.694C195.824 248.285 191.01 247.875 186.261 247.046C180.288 246.003 174.489 244.223 169.237 241.143C166.405 239.483 163.751 237.557 161.096 235.631L161.096 235.631L161.095 235.631L161.095 235.63L161.095 235.63L161.094 235.63L161.094 235.63L161.093 235.629L161.093 235.629C158.739 233.922 156.385 232.214 153.907 230.69C149.049 227.703 143.46 225.332 137.656 225.475C136.381 225.506 135.105 225.664 133.863 225.958C133.613 226.018 133.368 226.081 133.126 226.143C132.016 226.429 130.97 226.699 129.769 226.522C127.282 226.153 125.055 224.533 123.594 222.532C120.053 217.681 121.521 211.042 122.773 205.662C123.782 201.329 124.802 196.998 125.822 192.669L125.822 192.666L125.823 192.664L125.825 192.655C126.364 190.364 126.904 188.074 127.442 185.782C128.456 181.466 129.467 177.149 130.478 172.832C132.563 163.931 134.648 155.03 136.756 146.133C139.09 136.284 141.801 125.925 147.976 117.698C151.044 113.61 155.004 110.236 159.714 108.191C164.896 105.943 170.6 105.303 176.203 105.308C182.409 105.313 188.627 106.005 194.787 106.701C201.51 107.46 208.212 108.413 214.879 109.556C228.139 111.83 241.268 114.856 254.185 118.618L254.795 118.796C266.691 122.261 279.194 125.902 289.488 132.998C298.232 139.026 305.571 148.461 306.11 159.424C306.442 166.174 304.155 172.416 301.864 178.671C299.927 183.958 297.986 189.255 297.622 194.875C297.256 200.519 298.381 206.116 300.381 211.378ZM291.143 207.753C289.133 202.464 288.139 196.794 288.937 191.153C289.539 186.891 291.016 182.849 292.489 178.818C292.963 177.521 293.437 176.226 293.88 174.924C295.593 169.905 296.855 164.656 296.079 159.328C295.421 154.808 293.508 150.539 290.869 146.832C284.742 138.222 275.141 133.22 265.446 129.648C254.172 125.494 242.482 122.294 230.771 119.64C218.715 116.906 206.498 114.879 194.203 113.573C193.77 113.527 193.334 113.48 192.896 113.433C183.249 112.397 172.636 111.258 163.658 115.587C155.407 119.566 150.55 127.636 147.513 135.96C145.925 140.309 144.748 144.792 143.678 149.291C142.703 153.384 141.745 157.482 140.786 161.579C140.349 163.449 139.911 165.319 139.473 167.188C138.545 171.135 137.61 175.08 136.675 179.025C134.745 187.165 132.815 195.306 130.955 203.46C129.909 208.044 128.912 213.512 131.555 217.768C132.603 219.453 134.175 220.88 135.999 221.676C137.944 222.521 139.629 222.352 141.616 221.822C147.248 220.32 153.142 222.372 158.027 225.148C160.734 226.687 163.251 228.516 165.769 230.344C167.817 231.831 169.864 233.318 172.015 234.65C181.133 240.296 191.693 241.223 202.123 242.139L202.128 242.14C202.493 242.172 202.859 242.204 203.224 242.236C208.638 242.714 214.08 243.271 219.344 244.676C224.434 246.033 229.166 248.301 233.351 251.504C240.471 256.956 245.742 264.339 250.917 271.587C251.417 272.287 251.916 272.986 252.415 273.682C258.412 282.032 264.854 289.967 273.246 296.045C281.286 301.869 290.979 306.021 301.037 306.027C309.697 306.031 318.505 302.93 325.063 297.233C331.979 291.224 335.481 282.58 334.671 273.443C333.261 257.571 322.403 246.46 311.713 235.521C307.345 231.051 303.005 226.61 299.35 221.884C296.006 217.561 293.133 212.854 291.143 207.753ZM308.905 233.726C301.489 226.125 294.334 218.077 290.413 208.055C290.409 208.047 290.405 208.039 290.402 208.032L290.4 208.027L290.394 208.012C288.604 203.308 287.6 198.303 287.928 193.256C288.254 188.241 289.986 183.514 291.715 178.795C293.76 173.212 295.802 167.64 295.506 161.614C295.028 151.837 288.479 143.425 280.68 138.049C271.498 131.719 260.345 128.47 249.734 125.38L249.179 125.218C237.647 121.858 225.923 119.156 214.083 117.126C208.128 116.105 202.146 115.254 196.143 114.577C190.647 113.957 185.1 113.339 179.561 113.334C174.563 113.328 169.475 113.898 164.85 115.905C160.65 117.727 157.122 120.737 154.387 124.381C148.877 131.719 146.459 140.964 144.378 149.751C142.516 157.613 140.673 165.48 138.83 173.347C137.909 177.282 136.987 181.217 136.063 185.152C135.579 187.213 135.093 189.273 134.608 191.334L134.604 191.349C133.697 195.199 132.791 199.049 131.893 202.901C130.777 207.692 129.464 213.61 132.619 217.932C133.917 219.708 135.896 221.147 138.106 221.476C139.168 221.632 140.095 221.393 141.077 221.14L141.077 221.14L141.077 221.14C141.294 221.084 141.514 221.027 141.739 220.974C142.853 220.709 143.995 220.568 145.137 220.54C150.326 220.414 155.324 222.53 159.669 225.201C161.883 226.562 163.986 228.088 166.089 229.614L166.089 229.614C168.459 231.333 170.828 233.052 173.357 234.535C178.043 237.284 183.215 238.872 188.546 239.801C192.785 240.541 197.083 240.907 201.38 241.273C207.66 241.808 213.937 242.342 220.026 244.042C224.634 245.326 228.95 247.342 232.835 250.136C236.573 252.823 239.832 256.11 242.808 259.607C246.027 263.391 248.912 267.43 251.797 271.469C254.502 275.255 257.207 279.042 260.187 282.618C272.701 297.636 292.534 309.989 312.587 303.347C320.867 300.605 328.434 294.845 331.93 286.686C335.879 277.475 333.692 267.038 329.212 258.45C324.716 249.826 317.872 242.859 311.11 235.976L311.11 235.976C310.373 235.226 309.637 234.476 308.905 233.726ZM279.218 189.802C278.517 194.759 279.39 199.739 281.157 204.386C282.908 208.873 285.434 213.01 288.378 216.811C291.597 220.972 295.417 224.882 299.261 228.816L299.262 228.817C308.672 238.448 318.228 248.229 319.469 262.206C320.183 270.259 317.097 277.878 311.002 283.175C305.223 288.197 297.46 290.934 289.827 290.93C280.961 290.925 272.422 287.268 265.334 282.134C257.948 276.783 252.276 269.796 246.996 262.444C246.581 261.866 246.166 261.285 245.751 260.703L245.727 260.67L245.703 260.636L245.686 260.613L245.685 260.61C241.132 254.232 236.494 247.733 230.228 242.936C226.553 240.121 222.393 238.13 217.924 236.937C213.291 235.701 208.502 235.211 203.737 234.791C203.417 234.762 203.096 234.734 202.775 234.706C193.591 233.899 184.291 233.083 176.261 228.111C174.366 226.938 172.562 225.628 170.758 224.318C168.544 222.71 166.33 221.103 163.95 219.75C159.662 217.313 154.489 215.508 149.544 216.826C147.782 217.295 146.288 217.444 144.564 216.695C142.952 215.993 141.561 214.73 140.635 213.24C138.302 209.484 139.177 204.663 140.1 200.615C141.74 193.426 143.441 186.25 145.142 179.074L145.145 179.062L145.148 179.05L145.151 179.038C145.968 175.59 146.785 172.143 147.595 168.694C147.991 167.009 148.385 165.324 148.779 163.639L148.78 163.636L148.781 163.632L148.782 163.629L148.783 163.625L148.783 163.622L148.784 163.618C149.617 160.059 150.45 156.5 151.296 152.943C152.238 148.979 153.276 145.029 154.674 141.198C157.352 133.859 161.636 126.754 168.91 123.246C176.821 119.433 186.17 120.437 194.67 121.35L195.298 121.417L195.816 121.472C206.635 122.621 217.386 124.406 227.996 126.811C238.305 129.149 248.597 131.965 258.522 135.623C267.063 138.771 275.517 143.179 280.914 150.763C283.239 154.031 284.925 157.796 285.505 161.783C286.188 166.474 285.077 171.098 283.568 175.52C283.178 176.662 282.763 177.8 282.346 178.939L282.346 178.939C281.049 182.488 279.748 186.047 279.218 189.802ZM280.419 204.668C283.872 213.503 290.177 220.595 296.711 227.294C297.349 227.949 297.991 228.602 298.634 229.256C304.588 235.316 310.615 241.451 314.575 249.042C318.51 256.584 320.431 265.754 316.965 273.843C313.892 281.012 307.244 286.072 299.969 288.48C282.345 294.319 264.909 283.458 253.912 270.258C251.291 267.113 248.913 263.783 246.534 260.453L246.533 260.453C243.992 256.896 241.451 253.34 238.616 250.008C235.995 246.928 233.125 244.031 229.833 241.665C226.407 239.2 222.603 237.423 218.539 236.29C213.182 234.795 207.66 234.325 202.135 233.854L202.135 233.854C198.352 233.532 194.568 233.21 190.835 232.558C186.148 231.74 181.601 230.345 177.481 227.928C175.255 226.623 173.17 225.11 171.084 223.597C169.234 222.255 167.383 220.913 165.435 219.715C161.603 217.359 157.197 215.497 152.622 215.609C151.613 215.633 150.602 215.76 149.621 215.992C149.425 216.039 149.233 216.089 149.043 216.138L149.043 216.138C148.185 216.36 147.376 216.569 146.448 216.433C144.517 216.147 142.784 214.887 141.651 213.333C138.882 209.541 140.04 204.344 141.018 200.142C141.873 196.473 142.737 192.805 143.601 189.137L143.605 189.121C143.966 187.588 144.327 186.055 144.688 184.522C145.501 181.06 146.312 177.598 147.123 174.135L147.126 174.124C148.747 167.204 150.368 160.284 152.007 153.368C153.836 145.645 155.961 137.515 160.803 131.063C163.205 127.863 166.303 125.218 169.99 123.619C174.056 121.854 178.529 121.354 182.924 121.358C187.794 121.362 192.671 121.905 197.503 122.452C202.786 123.05 208.052 123.797 213.292 124.696C223.71 126.482 234.028 128.86 244.175 131.817L244.676 131.963C254.001 134.679 263.805 137.535 271.875 143.097C278.728 147.821 284.486 155.211 284.907 163.804C285.168 169.104 283.371 174.006 281.571 178.918C280.05 183.069 278.526 187.226 278.239 191.636C277.949 196.086 278.833 200.5 280.411 204.647C280.413 204.655 280.416 204.662 280.419 204.668ZM271.171 201.02C269.649 197.017 268.894 192.725 269.498 188.453C269.956 185.212 271.079 182.138 272.2 179.074L272.2 179.072L272.2 179.072L272.201 179.071L272.201 179.07L272.201 179.07C272.561 178.086 272.92 177.104 273.256 176.118C274.559 172.294 275.52 168.297 274.929 164.24C274.427 160.787 272.968 157.528 270.954 154.696C266.288 148.138 258.98 144.325 251.595 141.603C243.018 138.443 234.127 136.007 225.217 133.988C216.053 131.909 206.768 130.368 197.424 129.377L196.927 129.324L196.438 129.271C189.087 128.482 181.001 127.614 174.158 130.912C167.864 133.945 164.151 140.09 161.833 146.443C160.623 149.756 159.727 153.173 158.91 156.6C158.141 159.836 157.383 163.074 156.625 166.312C156.322 167.609 156.019 168.907 155.714 170.204C155.011 173.199 154.301 176.193 153.591 179.187L153.59 179.191L153.584 179.216L153.584 179.219C152.119 185.399 150.654 191.58 149.24 197.772C148.439 201.284 147.687 205.46 149.71 208.717C150.513 210.01 151.723 211.11 153.124 211.72C154.626 212.374 155.931 212.246 157.467 211.836C161.723 210.702 166.178 212.261 169.865 214.358C171.923 215.528 173.836 216.918 175.751 218.308C177.306 219.438 178.863 220.568 180.497 221.58C187.442 225.881 195.485 226.586 203.427 227.283L203.428 227.283L204.241 227.354C208.355 227.718 212.492 228.142 216.494 229.209C220.344 230.237 223.93 231.953 227.095 234.377C232.498 238.514 236.499 244.117 240.428 249.619C240.808 250.152 241.188 250.684 241.569 251.214C246.131 257.568 251.033 263.605 257.417 268.23C263.551 272.673 270.937 275.836 278.61 275.84C285.214 275.843 291.937 273.473 296.934 269.124C302.206 264.537 304.879 257.945 304.26 250.973C303.187 238.89 294.931 230.438 286.8 222.114C283.479 218.714 280.18 215.336 277.398 211.741C274.86 208.459 272.681 204.89 271.171 201.02ZM284.519 220.863C278.87 215.074 273.422 208.943 270.435 201.308C270.431 201.299 270.427 201.29 270.423 201.28C269.059 197.687 268.294 193.867 268.546 190.014C268.795 186.207 270.111 182.618 271.424 179.035L271.424 179.035C272.978 174.795 274.529 170.563 274.305 165.99C273.941 158.582 268.976 152.214 263.068 148.143C256.109 143.348 247.655 140.885 239.613 138.543L239.17 138.414C230.405 135.86 221.494 133.806 212.496 132.264C207.972 131.488 203.423 130.842 198.861 130.326C194.692 129.855 190.484 129.386 186.284 129.382C182.492 129.379 178.634 129.811 175.126 131.333C171.949 132.71 169.282 134.991 167.213 137.748C163.038 143.311 161.207 150.325 159.629 156.985C158.236 162.867 156.857 168.752 155.479 174.637C154.756 177.722 154.033 180.807 153.309 183.891C152.962 185.369 152.614 186.847 152.266 188.325L152.259 188.351L152.253 188.377L152.251 188.387C151.545 191.385 150.839 194.382 150.14 197.382C149.297 200.998 148.296 205.473 150.678 208.735C151.648 210.064 153.132 211.144 154.786 211.388C155.576 211.504 156.266 211.325 156.995 211.136C157.16 211.094 157.327 211.05 157.498 211.01C158.351 210.806 159.228 210.696 160.104 210.675C164.067 210.578 167.881 212.188 171.198 214.228C172.882 215.262 174.48 216.422 176.079 217.582C177.88 218.889 179.681 220.195 181.601 221.322C185.157 223.406 189.079 224.611 193.122 225.316C196.344 225.878 199.611 226.156 202.877 226.434C207.65 226.841 212.422 227.247 217.049 228.539C220.567 229.522 223.861 231.06 226.828 233.194C229.675 235.24 232.157 237.746 234.424 240.41C236.87 243.286 239.063 246.356 241.257 249.426C243.312 252.304 245.368 255.182 247.633 257.9C257.116 269.28 272.151 278.651 287.349 273.617C293.62 271.54 299.348 267.181 301.997 261.001C304.983 254.034 303.326 246.132 299.938 239.635C296.521 233.085 291.322 227.792 286.185 222.563C285.628 221.996 285.072 221.43 284.519 220.863ZM259.812 186.883C259.252 190.542 259.881 194.218 261.185 197.654C262.458 200.912 264.292 203.912 266.43 206.673C268.775 209.704 271.553 212.55 274.348 215.413L274.348 215.413C281.194 222.425 288.139 229.538 289.054 239.724C289.576 245.546 287.373 251.088 282.995 254.955C278.79 258.67 273.12 260.71 267.524 260.741C261.118 260.775 254.936 258.184 249.783 254.519C244.364 250.666 240.187 245.593 236.333 240.237C235.956 239.714 235.581 239.187 235.204 238.66C231.944 234.093 228.631 229.452 224.182 225.975C221.55 223.918 218.567 222.438 215.349 221.547C212.003 220.619 208.537 220.247 205.089 219.938C204.878 219.919 204.666 219.9 204.455 219.881L203.896 219.832C197.365 219.257 190.732 218.673 184.995 215.196C183.522 214.303 182.128 213.291 180.735 212.28L180.735 212.28C179.139 211.122 177.544 209.964 175.831 208.984C172.732 207.214 168.975 205.882 165.392 206.837C164.137 207.172 163.06 207.296 161.818 206.791C160.632 206.311 159.609 205.42 158.9 204.362C157.123 201.711 157.65 198.221 158.299 195.297C159.463 190.048 160.713 184.817 161.964 179.587L161.964 179.584C162.579 177.013 163.193 174.443 163.797 171.871C164.092 170.614 164.387 169.357 164.681 168.1L164.695 168.041L164.698 168.027C165.295 165.48 165.891 162.934 166.495 160.388C167.175 157.515 167.924 154.653 168.925 151.871C170.86 146.496 173.96 141.258 179.256 138.647C185.02 135.806 191.831 136.522 198.037 137.174L198.058 137.177L198.33 137.205L198.685 137.242C206.531 138.061 214.329 139.341 222.026 141.069C229.574 142.764 237.099 144.823 244.373 147.472C250.648 149.756 256.874 152.94 260.883 158.47C262.587 160.817 263.83 163.518 264.307 166.39C264.867 169.77 264.144 173.128 263.073 176.333C262.755 177.284 262.41 178.228 262.064 179.174L262.064 179.174C261.142 181.695 260.219 184.221 259.812 186.883ZM260.452 197.949C262.95 204.316 267.468 209.446 272.179 214.281C272.386 214.494 272.594 214.707 272.803 214.92C273.114 215.238 273.427 215.556 273.739 215.874C277.977 220.187 282.263 224.548 285.134 229.918C288.069 235.407 289.571 242.131 287.065 248.072C284.862 253.29 280.052 256.975 274.773 258.735C261.984 262.998 249.313 255.103 241.337 245.518C239.439 243.237 237.715 240.824 235.991 238.41L235.99 238.41L235.99 238.41L235.99 238.409L235.989 238.409C234.17 235.863 232.351 233.317 230.329 230.927C226.418 226.305 221.777 222.597 215.892 220.883C211.895 219.72 207.761 219.368 203.627 219.017C201.004 218.793 198.38 218.57 195.792 218.14C192.407 217.577 189.096 216.628 186.094 214.93C184.33 213.931 182.69 212.742 181.05 211.553L181.05 211.553L181.05 211.553L181.05 211.553L181.049 211.553C179.802 210.648 178.554 209.744 177.251 208.922C174.496 207.186 171.356 205.801 168.052 205.744C167.261 205.731 166.473 205.802 165.698 205.961C165.464 206.009 165.235 206.072 165.006 206.136L165.006 206.136C164.529 206.269 164.054 206.401 163.55 206.385C162.07 206.34 160.694 205.416 159.809 204.276C157.694 201.553 158.541 197.727 159.255 194.659C159.82 192.228 160.392 189.798 160.965 187.368L160.973 187.332C161.285 186.009 161.596 184.687 161.907 183.364C162.497 180.851 163.086 178.339 163.675 175.826C164.852 170.806 166.029 165.786 167.214 160.768C168.541 155.153 170.062 149.234 173.556 144.524C175.298 142.177 177.551 140.227 180.244 139.053C183.176 137.777 186.397 137.409 189.568 137.407C193.078 137.403 196.592 137.793 200.077 138.184C203.893 138.612 207.697 139.15 211.483 139.794C219.056 141.085 226.554 142.804 233.932 144.944L234.381 145.074L234.381 145.074L234.382 145.074C241.184 147.046 248.344 149.123 254.23 153.169C259.183 156.575 263.349 161.883 263.697 168.085C263.915 171.972 262.597 175.573 261.275 179.182C260.157 182.236 259.037 185.297 258.844 188.542C258.654 191.748 259.303 194.923 260.436 197.911C260.441 197.924 260.446 197.937 260.452 197.949ZM251.2 194.287C250.149 191.508 249.635 188.54 250.085 185.58C250.414 183.417 251.164 181.364 251.914 179.316C252.207 178.515 252.499 177.715 252.766 176.909C253.633 174.296 254.202 171.558 253.723 168.807C253.309 166.43 252.26 164.204 250.829 162.272C247.555 157.856 242.54 155.302 237.484 153.463C231.558 151.306 225.428 149.628 219.279 148.249C212.945 146.828 206.526 145.781 200.07 145.119L199.709 145.082C194.653 144.562 189.113 143.992 184.421 146.349C180.119 148.511 177.615 152.813 176.051 157.2C174.629 161.193 173.702 165.377 172.781 169.535L172.781 169.536C172.485 170.873 172.189 172.207 171.878 173.531C171.394 175.593 170.9 177.654 170.407 179.714L170.407 179.714L170.407 179.715L170.407 179.715C169.392 183.953 168.377 188.192 167.441 192.447C166.919 194.816 166.52 197.61 167.93 199.764C169.083 201.521 171.068 202.479 173.117 201.9C177.853 200.562 181.995 203.561 185.794 206.311C186.805 207.043 187.791 207.757 188.758 208.367C193.64 211.45 199.288 211.944 204.901 212.435L204.901 212.435L205.013 212.445C210.641 212.938 216.251 213.72 220.859 217.261C224.548 220.094 227.277 223.918 229.961 227.679L229.961 227.679C230.263 228.102 230.565 228.525 230.867 228.945C234.017 233.324 237.435 237.472 241.874 240.615C246.068 243.585 251.096 245.683 256.303 245.646C260.854 245.615 265.459 243.958 268.883 240.94C272.461 237.786 274.265 233.268 273.848 228.513C273.119 220.212 267.457 214.41 261.88 208.697C259.637 206.399 257.408 204.115 255.52 201.689C253.758 199.424 252.249 196.964 251.2 194.287ZM259.854 207.714C256.08 203.831 252.492 199.706 250.477 194.608C250.472 194.599 250.467 194.59 250.462 194.58C250.456 194.569 250.451 194.557 250.447 194.545C249.521 192.096 248.994 189.502 249.152 186.875C249.311 184.247 250.219 181.768 251.126 179.293C252.201 176.36 253.274 173.433 253.092 170.273C252.795 165.123 249.256 160.753 245.1 158.003C240.299 154.827 234.546 153.165 229.058 151.58L228.778 151.499C222.791 149.771 216.706 148.382 210.561 147.343C207.489 146.824 204.402 146.391 201.305 146.046C198.49 145.733 195.648 145.419 192.812 145.433C190.248 145.445 187.649 145.759 185.288 146.808C183.093 147.784 181.274 149.404 179.872 151.337C177.047 155.226 175.846 160.084 174.763 164.69C173.358 170.667 171.955 176.644 170.552 182.621L170.466 182.987C170.24 183.95 170.012 184.912 169.785 185.875C169.297 187.939 168.81 190.004 168.332 192.072C167.752 194.591 167.116 197.753 169.014 199.885C169.77 200.733 170.895 201.41 172.067 201.323C172.406 201.297 172.738 201.205 173.07 201.112C173.298 201.049 173.526 200.985 173.756 200.943C174.375 200.832 175.004 200.792 175.632 200.815C178.261 200.911 180.743 202.006 182.942 203.387C184.01 204.058 185.031 204.799 186.053 205.54L186.053 205.54L186.053 205.54L186.053 205.54C187.325 206.463 188.598 207.385 189.959 208.173C192.381 209.576 195.051 210.376 197.797 210.848C199.971 211.222 202.175 211.409 204.378 211.597L204.378 211.597C207.64 211.875 210.902 212.152 214.066 213.035C218.852 214.369 222.656 217.283 225.863 221.005C227.614 223.038 229.172 225.219 230.73 227.4L230.731 227.4L230.731 227.4L230.731 227.401C232.076 229.283 233.421 231.165 234.889 232.952C241.348 240.809 251.681 247.354 262.132 243.878C266.417 242.454 270.322 239.463 272.101 235.224C274.145 230.358 272.861 224.847 270.425 220.378C268.098 216.108 264.678 212.627 261.291 209.181L261.29 209.181C260.81 208.692 260.33 208.204 259.854 207.714ZM240.426 183.871C239.983 186.267 240.364 188.66 241.214 190.921C242.038 193.015 243.224 194.936 244.611 196.699C246.045 198.525 247.725 200.248 249.416 201.981L249.416 201.982C253.721 206.396 258.092 210.879 258.645 217.299C258.959 220.946 257.583 224.421 254.85 226.856C252.202 229.216 248.623 230.522 245.085 230.551C236.6 230.62 230.121 224.196 225.505 217.793C225.242 217.428 224.98 217.061 224.717 216.693C222.693 213.856 220.639 210.977 217.884 208.812C214.29 205.99 209.91 205.388 205.493 205.001C201.176 204.624 196.836 204.242 193.079 201.881C192.265 201.37 191.486 200.804 190.708 200.238L190.707 200.238L190.707 200.238C189.646 199.467 188.585 198.696 187.435 198.063C186.371 197.476 185.238 197.001 184.039 196.785C182.869 196.573 181.879 196.742 180.741 196.992C179.245 197.321 177.747 196.408 176.961 195.168C175.913 193.516 176.192 191.41 176.583 189.599C177.31 186.241 178.115 182.896 178.92 179.552C179.31 177.929 179.701 176.306 180.082 174.682C180.315 173.691 180.536 172.693 180.758 171.693L180.758 171.692C181.47 168.479 182.187 165.243 183.311 162.164C184.534 158.82 186.488 155.59 189.779 153.959C193.385 152.172 197.628 152.607 201.508 153.005L201.765 153.031C206.832 153.549 211.868 154.373 216.836 155.499C221.548 156.565 226.252 157.854 230.789 159.525C234.679 160.957 238.52 162.962 241.006 166.39C242.054 167.836 242.822 169.492 243.144 171.255C243.521 173.33 243.133 175.401 242.493 177.382C242.269 178.078 242.017 178.767 241.765 179.456L241.765 179.456C241.236 180.904 240.707 182.352 240.426 183.871ZM240.481 191.218C242.227 195.62 245.438 198.912 248.655 202.211C251.262 204.885 253.874 207.563 255.712 210.839C257.647 214.288 258.718 218.582 257.136 222.378C255.764 225.675 252.716 227.981 249.381 229.058C241.248 231.682 233.297 226.431 228.374 220.299C227.353 219.028 226.405 217.703 225.457 216.377C224.214 214.639 222.971 212.902 221.566 211.289C219.132 208.494 216.234 206.314 212.629 205.3C210.183 204.612 207.659 204.396 205.135 204.181L205.135 204.181L205.135 204.181C203.53 204.044 201.924 203.907 200.339 203.648C198.229 203.304 196.165 202.732 194.289 201.684C193.152 201.05 192.099 200.286 191.045 199.522C190.367 199.03 189.688 198.538 188.987 198.08C187.266 196.958 185.326 196.03 183.248 195.894C182.346 195.834 181.548 195.997 180.68 196.193C179.697 196.416 178.784 196.026 178.09 195.323C176.501 193.713 177.03 191.186 177.48 189.224C177.839 187.663 178.207 186.104 178.576 184.545C178.76 183.766 178.945 182.986 179.128 182.206C179.343 181.29 179.558 180.374 179.773 179.457L180.238 177.476L180.241 177.464L180.243 177.452C180.976 174.329 181.709 171.205 182.446 168.082C183.274 164.573 184.201 160.867 186.369 157.912C187.462 156.421 188.883 155.185 190.591 154.453C192.449 153.657 194.488 153.448 196.491 153.458C201.08 153.483 205.747 154.218 210.259 154.996C214.972 155.81 219.638 156.89 224.228 158.23L224.549 158.324C228.807 159.566 233.309 160.88 236.943 163.496C239.981 165.684 242.478 169.066 242.51 172.941C242.528 175.21 241.755 177.318 240.981 179.43C240.275 181.357 239.568 183.286 239.459 185.344C239.352 187.345 239.763 189.313 240.464 191.179C240.467 191.187 240.47 191.195 240.474 191.202C240.476 191.208 240.478 191.213 240.481 191.218ZM231.228 187.555C230.628 185.946 230.37 184.267 230.704 182.568C230.905 181.543 231.263 180.563 231.621 179.584L231.621 179.584C231.818 179.045 232.015 178.506 232.185 177.959C233.044 175.205 232.711 172.52 230.952 170.196C229.139 167.8 226.402 166.42 223.634 165.423C220.417 164.264 217.098 163.353 213.762 162.611C210.358 161.852 206.909 161.296 203.441 160.945L203.33 160.934C200.568 160.654 197.553 160.348 194.992 161.644C192.669 162.818 191.296 165.123 190.44 167.497C189.656 169.672 189.151 171.953 188.648 174.219L188.648 174.221C188.49 174.932 188.333 175.642 188.168 176.347C187.901 177.48 187.623 178.612 187.345 179.746C186.763 182.12 186.18 184.496 185.7 186.886C185.452 188.123 185.323 189.555 186.053 190.664C186.609 191.511 187.622 192.146 188.661 191.989C188.856 191.96 189.041 191.925 189.221 191.89C189.738 191.792 190.22 191.7 190.801 191.775C191.622 191.879 192.404 192.176 193.136 192.552C194.046 193.02 194.873 193.62 195.7 194.22C196.22 194.597 196.74 194.974 197.28 195.319C199.952 197.021 203.03 197.299 206.11 197.569C209.191 197.84 212.256 198.262 214.752 200.246C216.66 201.761 218.083 203.757 219.49 205.731L219.491 205.732C219.746 206.091 220.002 206.449 220.259 206.803C223.513 211.28 228.239 215.702 234.182 215.448C239.162 215.236 243.846 211.434 243.447 206.158C243.103 201.589 240.006 198.408 236.957 195.276C235.783 194.07 234.616 192.871 233.616 191.604C232.639 190.367 231.811 189.022 231.228 187.555ZM230.48 187.813C230.475 187.802 230.471 187.79 230.468 187.779C229.993 186.491 229.708 185.139 229.767 183.761C229.831 182.29 230.334 180.913 230.836 179.538L230.836 179.538C231.374 178.066 231.911 176.596 231.906 175.015C231.896 172.189 229.961 169.748 227.703 168.244C225.151 166.543 222.083 165.656 219.16 164.811L218.973 164.757C215.82 163.845 212.617 163.108 209.382 162.552C206.262 162.016 203.036 161.507 199.863 161.484C197.039 161.464 194.457 162.262 192.754 164.633C191.232 166.754 190.61 169.401 190.022 171.903L190.022 171.903L190.015 171.931C189.642 173.52 189.269 175.108 188.897 176.696C188.507 178.357 188.117 180.017 187.727 181.678C187.595 182.238 187.463 182.798 187.33 183.358C187.081 184.408 186.832 185.457 186.593 186.509C186.265 187.96 185.918 189.873 187.338 190.87C187.917 191.277 188.415 191.226 189.067 191.073C189.687 190.928 190.325 190.917 190.955 191.001C192.353 191.186 193.641 191.857 194.799 192.63C195.228 192.916 195.646 193.22 196.065 193.523C196.892 194.122 197.72 194.722 198.629 195.191C199.956 195.877 201.41 196.228 202.88 196.444C203.869 196.589 204.869 196.674 205.87 196.758L205.87 196.758C207.753 196.918 209.637 197.078 211.449 197.639C215.492 198.892 217.863 202.165 220.22 205.419L220.22 205.419C220.887 206.341 221.554 207.261 222.256 208.133C225.689 212.392 231.238 216.027 236.882 214.153C239.238 213.37 241.381 211.691 242.259 209.31C243.251 206.617 242.379 203.632 240.97 201.261C239.689 199.107 237.95 197.32 236.214 195.536L236.213 195.536C233.96 193.221 231.711 190.911 230.48 187.813ZM220.982 181.263C220.762 182.267 220.895 183.231 221.242 184.188C221.943 185.907 223.231 187.241 224.515 188.57C226.084 190.195 227.647 191.813 228.128 194.121C228.843 197.559 225.964 200.314 222.626 200.365C219.223 200.416 216.548 197.925 214.673 195.348C214.521 195.139 214.37 194.927 214.219 194.714C213.39 193.551 212.549 192.369 211.398 191.511C209.947 190.428 208.167 190.27 206.424 190.115C206.296 190.104 206.169 190.093 206.042 190.081C204.177 189.91 202.56 189.528 201.011 188.44C200.871 188.342 200.732 188.241 200.592 188.14C199.928 187.659 199.254 187.171 198.463 186.937C197.94 186.781 197.49 186.802 196.97 186.902C196.698 186.954 196.468 186.985 196.195 186.916C194.705 186.541 194.672 184.851 194.928 183.639C195.223 182.247 195.559 180.862 195.895 179.477C196.062 178.787 196.23 178.097 196.392 177.406C196.482 177.02 196.568 176.611 196.657 176.189C197.208 173.568 197.866 170.441 200.382 169.236C201.858 168.53 203.563 168.699 205.138 168.856C207.163 169.058 209.178 169.383 211.166 169.826C213.096 170.257 215.018 170.785 216.877 171.463C218.43 172.027 219.949 172.809 220.99 174.13C221.929 175.321 222.287 176.775 221.944 178.257C221.827 178.757 221.65 179.238 221.472 179.72C221.285 180.227 221.097 180.734 220.982 181.263ZM220.476 184.392C219.849 182.618 220.152 181.102 220.769 179.367C221.122 178.376 221.459 177.353 221.207 176.293C221.011 175.469 220.531 174.727 219.94 174.131C218.592 172.77 216.635 172.165 214.852 171.618C212.904 171.02 210.921 170.54 208.917 170.18C207.13 169.859 205.299 169.579 203.484 169.517C201.877 169.463 200.34 169.785 199.314 171.12C198.403 172.305 198.043 173.834 197.707 175.263L197.694 175.321C197.44 176.394 197.189 177.467 196.937 178.54C196.769 179.258 196.601 179.975 196.432 180.693C196.353 181.029 196.273 181.365 196.194 181.702C196.049 182.31 195.905 182.919 195.767 183.528L195.748 183.609C195.57 184.389 195.307 185.537 196.138 186.024C196.439 186.2 196.71 186.144 197.002 186.084C197.122 186.059 197.246 186.033 197.376 186.023C197.706 185.996 198.044 186.025 198.367 186.094C199.039 186.236 199.665 186.559 200.236 186.93C200.519 187.114 200.793 187.312 201.066 187.51C201.484 187.814 201.903 188.117 202.356 188.368C203.083 188.77 203.876 188.989 204.691 189.123C205.329 189.228 205.975 189.283 206.621 189.338C207.62 189.423 208.619 189.508 209.588 189.778C212.104 190.479 213.552 192.467 215.001 194.459C215.206 194.74 215.411 195.021 215.618 195.299C217.528 197.85 220.625 200.33 224.021 199.361C225.398 198.968 226.691 198.034 227.212 196.664C227.816 195.08 227.241 193.32 226.375 191.953C225.648 190.807 224.713 189.839 223.78 188.874C222.497 187.546 221.218 186.223 220.494 184.446C220.487 184.428 220.481 184.41 220.476 184.392Z" fill="url(#paint0_linear_816_186)"/>
<defs>
<linearGradient id="paint0_linear_816_186" x1="135.365" y1="18.6293" x2="452.127" y2="389.718" gradientUnits="userSpaceOnUse">
<stop offset="0.190013" stop-color="#6F2BAE"/>
<stop offset="0.489262" stop-color="#D9FF43" stop-opacity="0.18"/>
<stop offset="0.995488" stop-color="#6527A3"/>
</linearGradient>
</defs>
</svg>
