<svg width="85" height="126" viewBox="0 0 85 126" fill="none" xmlns="http://www.w3.org/2000/svg">
<path fill-rule="evenodd" clip-rule="evenodd" d="M24.5059 22.2597C27.0302 33.6038 32.4043 48.3909 40.0402 63.9187C47.6761 79.4465 56.1062 92.7308 63.5493 101.656C67.2748 106.123 70.7257 109.465 73.6806 111.456C76.6898 113.483 78.9393 113.951 80.4332 113.216C81.9271 112.482 82.9302 110.414 83.1618 106.794C83.3892 103.238 82.8493 98.4644 81.5859 92.7864C79.0616 81.4424 73.6875 66.6553 66.0516 51.1275C58.4157 35.5997 49.9856 22.3154 42.5425 13.3902C38.817 8.92295 35.3661 5.58102 32.4112 3.59024C29.402 1.56289 27.1525 1.09538 25.6586 1.83002L25.6391 1.83972L25.6399 1.84139L25.5636 1.87891C24.1222 2.65365 23.1566 4.70899 22.93 8.25265C22.7026 11.8084 23.2425 16.5818 24.5059 22.2597ZM21.4227 8.32702C21.21 12.0636 21.7837 16.9321 23.0417 22.5855C23.103 22.8614 23.1661 23.1391 23.2307 23.4188L3.23464 33.2512C3.19809 33.0906 3.1621 32.9307 3.12667 32.7715C1.863 27.0929 1.3232 22.3189 1.55067 18.7632C1.56586 18.5258 1.58436 18.2951 1.60609 18.0711L21.4227 8.32702ZM28.5286 40.8944C26.2981 34.7591 24.5542 29.0263 23.3475 23.9186L3.34988 33.7517C4.5342 38.8379 6.26909 44.5781 8.50438 50.7406L28.5286 40.8944ZM28.7011 41.3668C30.8329 47.1851 33.3983 53.3578 36.3545 59.6968L16.3251 69.5455C13.3631 63.1954 10.7997 57.0206 8.67646 51.2131L28.7011 41.3668ZM16.5369 69.9985L36.5663 60.1498C37.2549 61.6189 37.9643 63.0966 38.6941 64.5806C40.914 69.0949 43.2025 73.4243 45.5166 77.5167L25.4884 87.3649C23.1766 83.2788 20.8883 78.9508 18.6674 74.4329L18.6673 74.4327C17.9363 72.9471 17.226 71.4683 16.5369 69.9985ZM25.7355 87.8005C29.4343 94.3061 33.1891 100.188 36.8205 105.234L56.831 95.388C53.196 90.3202 49.4492 84.4386 45.7636 77.9525L25.7355 87.8005ZM42.1711 112.171C40.5282 110.201 38.8372 108.018 37.1174 105.645L57.1272 95.7994C58.9193 98.2801 60.6829 100.561 62.3973 102.617C64.4544 105.083 66.4489 107.236 68.3443 109.025L48.4021 118.831C46.4495 117.029 44.3575 114.794 42.1711 112.171ZM48.7991 119.193C50.0279 120.3 51.1992 121.231 52.3014 121.974C55.3105 124.003 57.56 124.471 59.0537 123.738L77.2073 114.813C75.8293 114.46 74.3564 113.72 72.8425 112.7C71.5429 111.824 70.1685 110.714 68.7352 109.39L48.7991 119.193ZM21.4626 7.75025C21.5973 6.10125 21.9021 4.63164 22.4173 3.42562L4.27926 12.3422L4.27899 12.3424C2.97174 12.9843 2.04004 14.6476 1.67271 17.4812L21.4626 7.75025ZM24.8761 0.545422L3.61778 10.9959L3.6175 10.9961C1.33407 12.1176 0.289979 14.9745 0.0537337 18.6674C-0.186709 22.4258 0.385085 27.357 1.66248 33.0973C4.21989 44.5897 9.64425 59.4932 17.3213 75.0947C24.9909 90.6962 33.4803 104.09 41.019 113.132C44.7844 117.648 48.3399 121.113 51.463 123.218C54.5317 125.287 57.4316 126.205 59.7149 125.084L59.7152 125.084L81.0758 114.583L81.0713 114.574L81.0951 114.562C83.3785 113.439 84.4226 110.582 84.6588 106.889C84.8992 103.131 84.3273 98.2002 83.0501 92.4606C80.4931 80.9696 75.0702 66.0679 67.3977 50.4655C59.7252 34.8632 51.2341 21.4702 43.6945 12.4294C39.9285 7.91368 36.3727 4.45044 33.2493 2.34618C30.1803 0.278478 27.28 -0.638942 24.9967 0.483919C24.9561 0.503874 24.9159 0.524376 24.8761 0.545422ZM27.1891 23.4499C30.0022 34.0319 35.3606 47.9393 42.5996 62.6601C49.8387 77.381 57.5816 90.1157 64.2449 98.8043C67.5779 103.15 70.6327 106.473 73.2122 108.527C74.5024 109.555 75.6623 110.255 76.6691 110.612C77.6754 110.968 78.5022 110.972 79.1563 110.651C79.8105 110.329 80.312 109.672 80.6442 108.657C80.9765 107.642 81.1298 106.296 81.1039 104.647C81.0521 101.35 80.2853 96.9014 78.8782 91.6084C76.0651 81.0264 70.7068 67.119 63.4677 52.3981C56.2287 37.6773 48.4857 24.9426 41.8224 16.2539C38.4895 11.908 35.4346 8.58487 32.8552 6.53095C31.5649 5.50356 30.405 4.80301 29.3982 4.44652C28.392 4.09021 27.5651 4.08603 26.911 4.40771C26.2569 4.72938 25.7554 5.38677 25.4232 6.40126C25.0908 7.41629 24.9375 8.76262 24.9634 10.4118C25.0153 13.7086 25.782 18.1569 27.1891 23.4499ZM24.948 6.24567C25.3046 5.15653 25.8729 4.36101 26.6904 3.95901C27.5078 3.55701 28.4848 3.59265 29.5651 3.97517C30.6449 4.35751 31.8543 5.09481 33.1667 6.13979C35.7925 8.23064 38.8761 11.5904 42.2192 15.9497C48.9079 24.6714 56.6674 37.4363 63.9164 52.1775C71.1655 66.9187 76.5377 80.8575 79.3615 91.4799C80.7728 96.789 81.5511 101.283 81.6039 104.639C81.6302 106.316 81.4758 107.724 81.1194 108.813C80.7627 109.902 80.1945 110.697 79.377 111.099C78.5595 111.501 77.5825 111.466 76.5022 111.083C75.4224 110.701 74.213 109.963 72.9007 108.918C70.2749 106.828 67.1913 103.468 63.8482 99.1086C57.1594 90.3868 49.3999 77.622 42.1509 62.8808C34.9019 48.1396 29.5297 34.2007 26.7059 23.5784C25.2945 18.2692 24.5163 13.7758 24.4635 10.4196C24.4371 8.74226 24.5916 7.33426 24.948 6.24567ZM61.3121 76.454C61.2074 76.4989 61.1176 76.454 61.0428 76.3044L59.3824 73.0584C57.7969 73.1033 56.1664 72.5199 54.4911 71.2933C52.8157 70.0667 51.4545 68.4363 50.4074 66.387L49.3154 64.2629C49.2406 64.1133 49.2556 64.0086 49.3603 63.9637L52.9204 62.3033C52.9952 62.2734 53.07 62.3183 53.1448 62.4679L54.2367 64.592C54.7304 65.5643 55.4035 66.2972 56.2561 66.7909C57.1088 67.2994 57.8567 67.3892 58.5149 67.09C59.188 66.7759 59.5769 66.1477 59.6517 65.2053C59.7414 64.2629 59.547 63.3504 59.0982 62.4529C58.5149 61.3011 57.4977 60.5532 56.0617 60.2091C55.568 60.0745 54.8201 59.895 53.8029 59.6706C53.3312 59.5666 52.8755 59.4689 52.4359 59.3748L52.4342 59.3744C51.9266 59.2657 51.4405 59.1615 50.9758 59.0574C49.2556 58.6684 47.7298 57.8307 46.3836 56.5593C45.0373 55.2878 43.8855 53.7172 42.9132 51.8175C41.8512 49.7382 41.3426 47.7189 41.4024 45.7743C41.4623 43.8297 41.9858 42.2889 42.973 41.1222L41.3127 37.8762C41.2379 37.7266 41.2528 37.6219 41.3576 37.577L44.7531 35.9914C44.8877 35.9316 44.9924 35.9765 45.0672 36.1261L46.7575 39.4169C48.2982 39.387 49.8689 39.9704 51.4994 41.1521C53.1149 42.3338 54.4462 43.9344 55.4783 45.9388L57.393 49.6784C57.4528 49.7831 57.4378 49.8579 57.363 49.9028L53.773 51.5781C53.6982 51.6081 53.6234 51.5781 53.5636 51.4585L51.604 47.7338C51.0506 46.6568 50.3625 45.8939 49.5547 45.4751C48.732 45.0563 48.014 44.9815 47.4007 45.2806C46.7426 45.5798 46.3836 46.1931 46.2788 47.1205C46.1891 48.0479 46.3836 48.9903 46.8772 49.9477C47.3559 50.8751 47.8944 51.6081 48.5226 52.1166C49.1359 52.6402 49.9886 53.0291 51.0656 53.3133L55.6279 54.3604C57.1087 54.6745 58.485 55.3177 59.7265 56.2601C60.9681 57.2025 62.06 58.6086 63.0173 60.4634C64.1093 62.5875 64.6329 64.6069 64.6179 66.5366C64.6029 68.4662 64.1093 70.0219 63.137 71.2036L64.8273 74.4944C64.9021 74.644 64.8722 74.7487 64.7525 74.8086L61.3121 76.454Z" fill="url(#paint0_linear_1095_650)"/>
<defs>
<linearGradient id="paint0_linear_1095_650" x1="69" y1="174.5" x2="-0.989635" y2="-6.33421" gradientUnits="userSpaceOnUse">
<stop stop-color="#020202"/>
<stop offset="1" stop-color="#FF6100"/>
</linearGradient>
</defs>
</svg>
