<svg width="159" height="409" viewBox="0 0 159 409" fill="none" xmlns="http://www.w3.org/2000/svg">
<rect y="10" width="158" height="1" fill="#020202"/>
<rect y="23" width="158" height="1" fill="#020202"/>
<rect y="36" width="158" height="1" fill="#020202"/>
<rect y="49" width="158" height="1" fill="#020202"/>
<rect y="62" width="158" height="1" fill="#020202"/>
<rect y="75" width="158" height="1" fill="#020202"/>
<rect y="88" width="158" height="1" fill="#020202"/>
<rect y="101" width="158" height="1" fill="#020202"/>
<rect y="114" width="158" height="1" fill="#020202"/>
<rect y="127" width="158" height="1" fill="#020202"/>
<rect y="140" width="158" height="1" fill="#020202"/>
<rect y="153" width="158" height="1" fill="#020202"/>
<rect y="166" width="158" height="1" fill="#020202"/>
<rect y="179" width="158" height="1" fill="#020202"/>
<rect y="192" width="158" height="1" fill="#020202"/>
<rect y="205" width="158" height="1" fill="#020202"/>
<rect y="218" width="158" height="1" fill="#020202"/>
<rect y="231" width="158" height="1" fill="#020202"/>
<rect y="244" width="158" height="1" fill="#020202"/>
<rect y="257" width="158" height="1" fill="#020202"/>
<rect y="270" width="158" height="1" fill="#020202"/>
<rect y="283" width="158" height="1" fill="#020202"/>
<rect y="296" width="158" height="1" fill="#020202"/>
<rect y="309" width="158" height="1" fill="#020202"/>
<rect y="322" width="158" height="1" fill="#020202"/>
<rect y="335" width="158" height="1" fill="#020202"/>
<rect y="348" width="158" height="1" fill="#020202"/>
<rect y="361" width="158" height="1" fill="#020202"/>
<rect y="374" width="158" height="1" fill="#020202"/>
<rect y="387" width="158" height="1" fill="#020202"/>
<rect y="400" width="158" height="1" fill="#020202"/>
<rect x="158" width="0.5" height="409" fill="#020202"/>
<rect x="145" width="0.5" height="409" fill="#020202"/>
<rect x="132" width="0.5" height="409" fill="#020202"/>
<rect x="119" width="0.5" height="409" fill="#020202"/>
<rect x="106" width="0.5" height="409" fill="#020202"/>
<rect x="93" width="0.5" height="409" fill="#020202"/>
<rect x="80" width="0.5" height="409" fill="#020202"/>
<rect x="67" width="0.5" height="409" fill="#020202"/>
<rect x="54" width="0.5" height="409" fill="#020202"/>
<rect x="41" width="0.5" height="409" fill="#020202"/>
<rect x="28" width="0.5" height="409" fill="#020202"/>
<rect x="15" width="0.5" height="409" fill="#020202"/>
<rect x="2" width="0.5" height="409" fill="#020202"/>
</svg>
