<svg width="222" height="653" viewBox="0 0 222 653" fill="none" xmlns="http://www.w3.org/2000/svg">
<path fill-rule="evenodd" clip-rule="evenodd" d="M134.139 381.704C121.976 391.126 113.205 403.957 107.141 417.983C101.411 431.554 98.1125 446.016 96.4513 460.623C94.6499 476.499 94.6977 493.122 94.7457 509.859L94.7457 509.859L94.7457 509.859L94.7457 509.86L94.7457 509.86L94.7457 509.86L94.7457 509.861L94.7458 509.861L94.7458 509.861L94.7458 509.862L94.7458 509.862L94.7458 509.862L94.7458 509.863L94.7458 509.863L94.7458 509.863L94.7458 509.864L94.7458 509.864L94.7458 509.864L94.7458 509.865L94.7458 509.865L94.7458 509.865C94.8634 550.766 94.9829 592.343 68.1318 625.352C52.7308 644.285 30.0293 654.265 5.69026 652.871C-17.3827 651.55 -39.9102 641.104 -56.419 625.033C-75.5953 606.367 -86.3949 580.42 -90.9275 554.397C-95.682 527.093 -93.2445 499.884 -89.1728 472.688C-88.8327 470.417 -88.4855 468.141 -88.1377 465.861C-84.5306 442.219 -80.8542 418.122 -84.3548 394.299C-86.4259 380.204 -91.32 366.908 -98.6233 354.685C-106.113 342.15 -115.527 330.912 -125.034 319.88C-125.693 319.115 -126.354 318.349 -127.014 317.583C-145.289 296.402 -163.787 274.96 -170.736 247.16C-172.38 240.583 -173.536 233.9 -174.692 227.218L-174.692 227.217L-174.692 227.217L-174.692 227.217L-174.692 227.217L-174.692 227.216L-174.693 227.216L-174.693 227.216L-174.693 227.216L-174.693 227.216L-174.693 227.215L-174.693 227.215L-174.693 227.215L-174.693 227.215L-174.693 227.214L-174.693 227.214L-174.693 227.214L-174.693 227.214L-174.693 227.213L-174.693 227.213L-174.693 227.213C-176.114 218.999 -177.535 210.786 -179.86 202.773C-184.109 188.136 -191.727 173.064 -205.519 165.344C-210.163 162.744 -213.607 160.037 -215.69 154.954C-217.674 150.114 -218.018 144.573 -216.903 139.481C-214.075 126.56 -202.012 118.049 -191.603 111.302C-172.875 99.164 -154.043 87.1831 -135.211 75.2024L-135.21 75.2014L-135.209 75.2009L-135.207 75.1995L-135.205 75.1984L-135.203 75.1974L-135.202 75.1963L-135.2 75.1952L-135.198 75.1941L-135.196 75.1931L-135.195 75.192L-135.193 75.1909L-135.191 75.1898L-135.19 75.1887L-135.188 75.1877L-135.186 75.1866L-135.184 75.1855L-135.183 75.1844L-135.182 75.184L-135.181 75.1836C-125.942 69.3057 -116.703 63.4278 -107.476 57.5316C-102.977 54.6563 -98.4807 51.7771 -93.9843 48.8979L-93.9757 48.8925C-84.6445 42.9175 -75.3136 36.9428 -65.9602 31.0034C-55.5488 24.3918 -44.9637 17.9986 -33.8448 12.6361C-12.6312 2.4042 11.6244 -4.07054 34.7353 3.63458C59.9503 12.0404 78.1189 33.9461 94.6386 53.8638L94.6407 53.8663L94.6473 53.8742L94.6627 53.8929L94.6736 53.906L94.6889 53.9244L94.7025 53.9408L94.7069 53.9461C95.4461 54.8374 96.182 55.7246 96.9151 56.6064C118.095 82.0807 137.777 108.801 155.833 136.578C173.337 163.506 189.795 191.437 203.667 220.427C215.568 245.295 224.673 272.725 220.378 300.598C218.538 312.532 214.297 324.206 207.184 334.03C198.757 345.666 186.576 353.347 173.956 359.762C170.699 361.418 167.397 363.009 164.091 364.601L164.09 364.601L164.088 364.602L164.085 364.604L164.082 364.605L164.079 364.606L164.077 364.608L164.074 364.609L164.071 364.611L164.068 364.612C153.688 369.612 143.277 374.627 134.139 381.704ZM106.436 417.622C106.432 417.63 106.428 417.638 106.425 417.647C94.0926 446.857 94.1812 477.77 94.2699 508.727C94.3455 535.095 94.4212 561.495 86.8209 586.902C79.3082 612.017 63.8888 636.315 38.8559 646.734C16.7439 655.939 -8.75727 652.849 -29.9305 642.578C-81.1553 617.732 -96.285 556.678 -92.2447 504.141C-91.2887 491.702 -89.4111 479.373 -87.5335 467.044C-85.5311 453.895 -83.5287 440.747 -82.6443 427.466C-81.8314 415.246 -81.9682 402.897 -84.1175 390.812C-86.3402 378.308 -90.8376 366.468 -97.2223 355.502C-105.745 340.863 -116.805 328.109 -127.867 315.353C-135.441 306.619 -143.015 297.885 -149.779 288.542C-158.312 276.754 -165.318 263.974 -169.202 249.889C-171.29 242.314 -172.631 234.58 -173.973 226.846L-173.973 226.845L-173.973 226.845C-175.162 219.989 -176.351 213.134 -178.06 206.387C-181.387 193.257 -186.952 179.944 -197.068 170.575C-199.27 168.535 -201.679 166.689 -204.261 165.153C-204.778 164.845 -205.292 164.551 -205.8 164.261C-208.28 162.842 -210.613 161.507 -212.441 159.105C-216.176 154.201 -217.318 147.556 -216.466 141.549C-214.427 127.164 -200.756 118.11 -189.503 110.89C-180.363 105.025 -171.208 99.1822 -162.054 93.3397C-157.479 90.4204 -152.905 87.5011 -148.333 84.5791C-139.301 78.8069 -130.272 73.0291 -121.243 67.2511L-121.24 67.2491L-121.237 67.2471L-121.234 67.245L-121.231 67.243L-121.227 67.241L-121.224 67.2389L-121.221 67.2369L-121.218 67.2349L-121.215 67.2329L-121.211 67.2308L-121.208 67.2288L-121.205 67.2268L-121.202 67.2248L-121.199 67.2227L-121.196 67.2207L-121.192 67.2187L-121.189 67.2166C-102.876 55.4972 -84.5619 43.7776 -66.2195 32.1044C-45.6999 19.0461 -23.6879 5.77536 0.729783 1.94619C12.9088 0.0358049 25.4207 0.887632 36.9978 5.27189C49.6775 10.0737 60.5779 18.5235 70.2103 27.907C80.8823 38.3049 90.4255 49.9 99.8643 61.4076C110.13 73.9247 120.036 86.7353 129.567 99.8203C148.518 125.838 165.994 152.931 181.871 180.931L182.586 182.19C197.272 208.085 212.699 235.286 218.536 264.755C223.5 289.82 220.296 318.399 202.841 338.206C192.131 350.359 177.786 357.258 163.413 364.171C151.244 370.024 139.055 375.886 129.036 384.954C119.086 393.96 111.752 405.344 106.448 417.599C106.444 417.607 106.44 417.614 106.436 417.622ZM128.112 373.961C116.495 382.96 108.119 395.212 102.328 408.608C96.8564 421.571 93.7058 435.383 92.1178 449.339C90.3962 464.508 90.4415 480.391 90.4871 496.381L90.4871 496.382C90.5985 535.452 90.7118 575.167 65.0614 606.7C50.3489 624.79 28.6584 634.324 5.40413 632.993C-16.6403 631.731 -38.164 621.752 -53.9367 606.398C-72.258 588.562 -82.5757 563.774 -86.9063 538.91C-91.4486 512.828 -89.1199 486.836 -85.2297 460.856C-84.9063 458.697 -84.5761 456.532 -84.2453 454.364L-84.2442 454.358L-84.2412 454.338C-80.7953 431.753 -77.2831 408.735 -80.6275 385.98C-82.6058 372.519 -87.279 359.821 -94.2534 348.148C-101.408 336.174 -110.401 325.439 -119.482 314.901C-120.112 314.17 -120.743 313.439 -121.374 312.707L-121.378 312.703C-138.834 292.469 -156.504 271.987 -163.141 245.432C-164.71 239.15 -165.814 232.768 -166.918 226.386L-166.918 226.386L-166.918 226.385C-168.276 218.536 -169.633 210.688 -171.856 203.032C-175.913 189.055 -183.186 174.661 -196.356 167.288C-200.796 164.804 -204.088 162.213 -206.081 157.353C-207.976 152.729 -208.305 147.433 -207.24 142.566C-204.536 130.218 -193.013 122.085 -183.065 115.638C-165.162 104.034 -147.158 92.5798 -129.156 81.1264L-129.155 81.1262L-129.155 81.126L-129.155 81.1258L-129.154 81.1256L-129.154 81.1254L-129.154 81.1251L-129.153 81.1249L-129.153 81.1247L-129.152 81.1245L-129.152 81.1243L-129.152 81.1241L-129.151 81.1239L-129.151 81.1236L-129.151 81.1234L-129.15 81.1232L-129.15 81.123L-129.15 81.1228L-129.149 81.1226L-129.149 81.1224L-129.147 81.1208L-129.146 81.1201L-129.144 81.1195L-129.143 81.1188L-129.142 81.1181L-129.141 81.1174L-129.14 81.1168L-129.139 81.1161L-129.138 81.1154L-129.137 81.1147L-129.136 81.1141L-129.135 81.1134L-129.134 81.1127L-129.133 81.112L-129.132 81.1114L-129.131 81.1107L-129.13 81.11L-129.129 81.1093L-129.127 81.1087L-129.126 81.108L-129.125 81.1073C-120.314 75.5018 -111.504 69.8964 -102.705 64.2736C-98.5241 61.6012 -94.3453 58.9255 -90.1666 56.2499L-90.1655 56.2492L-90.1574 56.244L-90.149 56.2386C-81.1227 50.459 -72.0965 44.6796 -63.0483 38.9333C-53.1005 32.6164 -42.9888 26.5093 -32.3663 21.3854C-12.0974 11.6087 11.0755 5.42513 33.1564 12.7874C57.2453 20.8189 74.6022 41.7461 90.385 60.7755C91.1126 61.6527 91.8368 62.526 92.5582 63.3937C112.79 87.7292 131.59 113.252 148.838 139.784C165.56 165.508 181.282 192.19 194.533 219.884C205.903 243.643 214.601 269.847 210.497 296.475C208.74 307.878 204.687 319.033 197.891 328.418C189.841 339.533 178.204 346.873 166.147 353.001C163.032 354.584 159.873 356.106 156.712 357.628C146.792 362.406 136.844 367.197 128.112 373.961ZM101.589 408.326C89.831 436.214 89.9155 465.725 90.0002 495.278C90.0724 520.466 90.1446 545.684 82.8847 569.954C75.7106 593.938 60.9846 617.143 37.0795 627.094C15.9614 635.885 -8.39286 632.934 -28.6138 623.124C-77.5372 599.395 -91.9865 541.081 -88.1287 490.904C-87.2155 479.027 -85.4226 467.254 -83.6298 455.481C-81.7165 442.917 -79.8032 430.353 -78.9591 417.662C-78.1828 405.988 -78.3127 394.19 -80.3659 382.645C-82.4907 370.698 -86.7873 359.386 -92.887 348.906C-101.028 334.924 -111.591 322.743 -122.158 310.558L-122.158 310.558C-129.393 302.214 -136.629 293.87 -143.09 284.944C-151.24 273.686 -157.933 261.48 -161.642 248.026C-163.637 240.789 -164.919 233.402 -166.2 226.013L-166.2 226.012C-167.336 219.464 -168.472 212.916 -170.104 206.472C-173.283 193.928 -178.6 181.208 -188.268 172.256C-190.373 170.307 -192.674 168.543 -195.141 167.075C-195.635 166.781 -196.125 166.5 -196.61 166.223C-198.976 164.869 -201.202 163.595 -202.948 161.303C-206.512 156.625 -207.602 150.28 -206.791 144.546C-204.844 130.811 -191.787 122.166 -181.043 115.271C-172.232 109.618 -163.408 103.986 -154.584 98.3535L-154.568 98.3436C-150.284 95.609 -145.999 92.8744 -141.716 90.1374C-133.088 84.6235 -124.464 79.1042 -115.839 73.585L-115.821 73.5733C-98.3165 62.3715 -80.8124 51.1699 -63.2798 40.0133C-43.6822 27.5407 -22.6577 14.8663 0.663908 11.2087C12.2936 9.38503 24.2431 10.1961 35.2981 14.3832C47.4088 18.9701 57.8184 27.0396 67.0186 36.0025C77.2124 45.9327 86.3268 57.0088 95.3419 67.9996C105.148 79.9557 114.611 92.1935 123.715 104.693C141.819 129.546 158.511 155.425 173.677 182.172L174.362 183.381C188.388 208.111 203.122 234.09 208.695 262.234C213.436 286.174 210.378 313.466 193.707 332.383C183.477 343.991 169.775 350.581 156.046 357.184C144.423 362.774 132.78 368.373 123.21 377.035C113.692 385.649 106.678 396.542 101.609 408.268C101.601 408.288 101.594 408.307 101.589 408.326ZM97.516 399.233C103.034 386.469 111.016 374.792 122.085 366.217C130.406 359.771 139.888 355.205 149.342 350.652L149.342 350.652L149.344 350.65L149.347 350.649L149.349 350.648L149.352 350.647L149.355 350.645L149.357 350.644L149.36 350.643L149.362 350.642L149.365 350.64L149.367 350.639L149.37 350.638L149.372 350.637L149.375 350.635L149.378 350.634L149.38 350.633L149.383 350.632L149.385 350.63L149.388 350.629L149.39 350.628C152.388 349.184 155.383 347.742 158.337 346.241C169.829 340.4 180.922 333.403 188.596 322.807C195.075 313.859 198.939 303.224 200.616 292.352C204.527 266.968 196.237 241.989 185.4 219.34C172.769 192.944 157.783 167.511 141.844 142.992C125.406 117.704 107.486 93.3768 88.2021 70.1823C87.5148 69.3555 86.8247 68.5235 86.1315 67.6877C71.0865 49.5479 54.5406 29.5986 31.5762 21.9412C10.5252 14.9217 -11.5661 20.815 -30.8901 30.1341C-41.0156 35.0173 -50.6565 40.8402 -60.1382 46.8607C-68.6055 52.2372 -77.0526 57.6457 -85.4996 63.0541C-89.6444 65.7079 -93.7892 68.3617 -97.9364 71.0117C-106.325 76.3724 -114.725 81.7165 -123.125 87.0607C-140.291 97.982 -157.458 108.904 -174.53 119.969C-184.016 126.117 -195.001 133.872 -197.579 145.647C-198.596 150.289 -198.283 155.339 -196.474 159.751C-194.574 164.388 -191.433 166.86 -187.196 169.231C-174.649 176.255 -167.72 189.971 -163.853 203.288C-161.735 210.585 -160.441 218.063 -159.148 225.543L-159.148 225.543C-158.095 231.627 -157.043 237.712 -155.546 243.7C-149.22 269.013 -132.376 288.537 -115.736 307.825L-114.658 309.076L-113.932 309.918C-105.277 319.962 -96.7048 330.193 -89.8849 341.606C-83.238 352.729 -78.7848 364.829 -76.9003 377.656C-73.7138 399.341 -77.0599 421.275 -80.3432 442.797C-80.6601 444.874 -80.9764 446.947 -81.2862 449.016C-84.9949 473.779 -87.2141 498.557 -82.8839 523.417C-78.7552 547.121 -68.9196 570.75 -51.4528 587.753C-36.4162 602.392 -15.8953 611.905 5.12046 613.108C27.2887 614.377 47.9684 605.285 61.9956 588.041C86.4466 557.982 86.339 520.127 86.2331 482.886C86.1898 467.645 86.1468 452.506 87.7877 438.048C89.2982 424.749 92.3009 411.587 97.516 399.233ZM96.7998 398.897C96.8027 398.89 96.8057 398.883 96.8087 398.877C96.8128 398.868 96.8171 398.86 96.8215 398.852C101.655 387.689 108.335 377.322 117.398 369.12C126.519 360.866 137.615 355.529 148.692 350.202C161.778 343.908 174.838 337.627 184.588 326.564C200.474 308.536 203.387 282.526 198.869 259.715C193.558 232.896 179.518 208.14 166.153 184.574L165.495 183.414C151.039 157.921 135.129 133.256 117.874 109.567C109.197 97.6537 100.177 85.9899 90.8305 74.5936C82.2403 64.1188 73.5536 53.5625 63.8392 44.0991C55.0712 35.5569 45.1502 27.8673 33.6084 23.4952C23.0743 19.5062 11.6875 18.7337 0.605835 20.4716C-21.6197 23.9576 -41.6557 36.0369 -60.3322 47.9225C-76.953 58.5003 -93.547 69.1193 -110.141 79.7383L-110.156 79.7481L-110.162 79.7518L-110.175 79.76L-110.178 79.7621C-118.482 85.0759 -126.786 90.3896 -135.093 95.6983C-139.178 98.3092 -143.266 100.918 -147.353 103.526L-147.355 103.528L-147.357 103.529C-155.768 108.897 -164.179 114.264 -172.576 119.654C-182.812 126.221 -195.255 134.458 -197.109 147.544C-197.884 153.005 -196.845 159.046 -193.45 163.502C-191.789 165.682 -189.671 166.894 -187.42 168.183L-187.417 168.184C-186.955 168.449 -186.487 168.716 -186.017 168.996C-183.664 170.397 -181.469 172.078 -179.461 173.937C-170.245 182.472 -165.174 194.597 -162.144 206.558C-160.588 212.7 -159.506 218.941 -158.424 225.183L-158.423 225.183C-157.202 232.225 -155.981 239.267 -154.08 246.165C-150.546 258.987 -144.168 270.618 -136.4 281.348C-130.243 289.854 -123.347 297.806 -116.452 305.757C-106.38 317.372 -96.3105 328.983 -88.551 342.312C-82.7344 352.303 -78.6387 363.087 -76.613 374.478C-74.6551 385.483 -74.532 396.73 -75.2716 407.858C-76.0767 419.952 -77.9001 431.924 -79.7236 443.897L-79.7236 443.898L-79.7237 443.898L-79.7238 443.899L-79.7239 443.899L-79.7239 443.899L-79.724 443.9L-79.7241 443.9L-79.7242 443.9L-79.7242 443.9L-79.7243 443.901L-79.7244 443.901L-79.7244 443.901L-79.7245 443.902L-79.7246 443.902L-79.7247 443.902L-79.7247 443.902L-79.7248 443.903L-79.7249 443.903L-79.7249 443.903C-81.4337 455.125 -83.1425 466.346 -84.0126 477.667C-87.6889 525.483 -73.92 581.057 -27.2979 603.669C-8.02896 613.015 15.1783 615.827 35.3024 607.451C58.0806 597.969 72.1124 575.855 78.9487 553.003C85.8683 529.871 85.7997 505.835 85.7312 481.828C85.6508 453.641 85.5705 425.494 96.7998 398.897ZM116.059 358.474C105.536 366.625 97.9495 377.723 92.7043 389.858C87.7456 401.602 84.8916 414.117 83.4542 426.757C81.8943 440.506 81.9349 454.899 81.9758 469.391C82.0757 504.804 82.1772 540.8 58.9262 569.385C45.5852 585.785 25.9186 594.431 4.8352 593.226C-15.152 592.083 -34.6691 583.035 -48.9696 569.113C-65.5808 552.944 -74.9364 530.471 -78.8622 507.928C-82.9789 484.289 -80.8688 460.73 -77.3425 437.182C-77.048 435.215 -76.7474 433.244 -76.4461 431.27C-73.324 410.807 -70.1422 389.953 -73.1724 369.335C-74.9632 357.142 -79.1974 345.639 -85.5145 335.067C-91.9974 324.215 -100.148 314.487 -108.377 304.937C-108.657 304.613 -108.936 304.289 -109.216 303.964L-110.089 302.952C-125.912 284.611 -141.931 266.043 -147.948 241.972C-149.37 236.279 -150.371 230.494 -151.371 224.709L-151.371 224.709L-151.371 224.708C-152.602 217.596 -153.831 210.484 -155.845 203.546C-159.518 190.89 -166.103 177.851 -178.03 171.175C-182.063 168.916 -185.052 166.564 -186.863 162.149C-188.584 157.952 -188.881 153.146 -187.915 148.729C-185.463 137.529 -175.015 130.151 -165.991 124.302C-149.778 113.794 -133.475 103.422 -117.172 93.05C-109.166 87.9566 -101.16 82.8632 -93.1649 77.7539C-89.1736 75.2036 -85.1847 72.6497 -81.1959 70.0958L-81.1948 70.0951L-81.1937 70.0944L-81.1926 70.0937L-81.1915 70.093L-81.1904 70.0923L-81.1893 70.0916L-81.1882 70.0909L-81.1871 70.0902L-81.186 70.0895L-81.1849 70.0888L-81.1838 70.0881L-81.1827 70.0874L-81.1816 70.0867L-81.1804 70.086L-81.1793 70.0853L-81.1782 70.0846L-81.1771 70.0839L-81.176 70.0832C-73.1986 64.9755 -65.2214 59.868 -57.2248 54.7898C-48.2077 49.0626 -39.0393 43.5271 -29.4102 38.8825C-11.0322 30.0196 9.97773 24.4165 29.9988 31.0931C51.8383 38.3755 67.5725 57.3464 81.8806 74.5978L81.8847 74.6026C82.542 75.3951 83.1962 76.1839 83.8479 76.9678C102.182 99.0223 119.22 122.153 134.851 146.198C150.008 169.513 164.257 193.697 176.267 218.797C186.573 240.334 194.456 264.088 190.735 288.227C189.142 298.568 185.467 308.682 179.303 317.193C172.005 327.271 161.457 333.925 150.527 339.479C147.701 340.916 144.835 342.297 141.967 343.678L141.966 343.679L141.966 343.679L141.965 343.679L141.965 343.679L141.965 343.679L141.965 343.68L141.965 343.68L141.964 343.68L141.964 343.68L141.964 343.68L141.964 343.68L141.964 343.68L141.963 343.681L141.963 343.681L141.963 343.681L141.963 343.681L141.963 343.681L141.962 343.681C132.978 348.008 123.967 352.349 116.059 358.474ZM91.9781 389.545C81.3107 414.828 81.3869 441.582 81.4632 468.375C81.5281 491.203 81.5932 514.059 75.0126 536.055C68.5148 557.776 55.1773 578.799 33.5247 587.812C14.3955 595.774 -7.66351 593.101 -25.9823 584.217C-70.3039 562.72 -83.392 509.889 -79.8979 464.431C-79.0703 453.666 -77.4453 442.995 -75.8203 432.325C-74.0864 420.94 -72.3526 409.555 -71.5876 398.055C-70.8833 387.472 -71.0013 376.778 -72.8612 366.311C-74.787 355.478 -78.6836 345.22 -84.2148 335.718C-91.5906 323.048 -101.162 312.012 -110.736 300.972L-110.736 300.971L-110.736 300.971L-110.737 300.97L-110.737 300.97L-110.737 300.97L-110.737 300.969L-110.738 300.969L-110.738 300.968L-110.738 300.968L-110.739 300.968L-110.739 300.967L-110.739 300.967L-110.739 300.966L-110.74 300.966L-110.74 300.966L-110.74 300.965L-110.741 300.965L-110.741 300.964C-117.298 293.403 -123.856 285.841 -129.711 277.751C-137.096 267.55 -143.158 256.493 -146.519 244.303C-148.327 237.745 -149.488 231.05 -150.649 224.354C-151.679 218.42 -152.708 212.485 -154.188 206.644C-157.07 195.268 -161.893 183.737 -170.659 175.62C-172.569 173.851 -174.658 172.251 -176.898 170.919C-177.344 170.654 -177.788 170.4 -178.226 170.149L-178.227 170.149C-180.366 168.925 -182.379 167.773 -183.958 165.701C-187.183 161.469 -188.17 155.73 -187.434 150.544C-185.67 138.106 -173.843 130.279 -164.115 124.036C-156.128 118.911 -148.129 113.806 -140.13 108.701L-140.128 108.7L-140.127 108.699L-140.126 108.698L-140.124 108.697L-140.123 108.697L-140.122 108.696L-140.121 108.695L-140.119 108.694L-140.118 108.693L-140.117 108.693L-140.116 108.692L-140.114 108.691L-140.113 108.69L-140.112 108.689L-140.11 108.688L-140.109 108.688L-140.108 108.687L-140.107 108.686C-136.229 106.211 -132.351 103.736 -128.474 101.259C-120.593 96.2225 -112.714 91.1806 -104.835 86.1388L-104.824 86.1315L-104.813 86.1243L-104.788 86.1083L-104.781 86.1039C-88.9923 76.0003 -73.2039 65.8967 -57.3906 55.834C-39.6351 44.5355 -20.5887 33.05 0.539529 29.7365C11.0732 28.0844 21.8961 28.8191 31.9093 32.61C42.8825 36.765 52.3123 44.0767 60.6481 52.1983C69.8839 61.1961 78.1421 71.2312 86.3088 81.1892C95.1955 92.0245 103.773 103.116 112.022 114.442C128.428 136.966 143.556 160.418 157.301 184.658L157.929 185.767C170.634 208.17 183.981 231.703 189.031 257.199C193.326 278.884 190.558 303.609 175.457 320.744C166.187 331.262 153.77 337.234 141.33 343.217C130.797 348.283 120.247 353.356 111.575 361.204C102.944 369.015 96.5838 378.892 91.9865 389.524C91.9835 389.531 91.9807 389.538 91.9781 389.545ZM87.8913 380.483C92.8647 368.98 100.055 358.458 110.032 350.73C117.535 344.918 126.085 340.801 134.61 336.695C137.327 335.386 140.041 334.079 142.719 332.718C153.083 327.449 163.089 321.138 170.01 311.582C175.857 303.508 179.344 293.914 180.855 284.105C184.383 261.211 176.908 238.682 167.133 218.254C155.743 194.45 142.23 171.515 127.856 149.405C113.034 126.603 96.8772 104.669 79.4911 83.7551C78.8719 83.0103 78.2502 82.2607 77.6257 81.5078C64.0556 65.1462 49.1318 47.1525 28.4201 40.2459C9.42985 33.9135 -10.4981 39.224 -27.9315 47.6316C-37.065 52.0363 -45.7592 57.2872 -54.3124 62.7175C-62.0052 67.6021 -69.6796 72.516 -77.354 77.4299L-77.3557 77.431C-81.0341 79.7863 -84.7125 82.1416 -88.393 84.4937C-95.9683 89.3348 -103.554 94.1608 -111.14 98.9869C-126.606 108.826 -142.072 118.666 -157.453 128.635C-166.015 134.185 -175.925 141.185 -178.251 151.812C-179.17 156.003 -178.885 160.565 -177.253 164.549C-175.535 168.74 -172.695 170.975 -168.866 173.119C-157.56 179.447 -151.321 191.807 -147.839 203.804C-145.93 210.383 -144.764 217.125 -143.597 223.868C-142.648 229.355 -141.699 234.842 -140.349 240.243C-134.644 263.07 -119.453 280.678 -104.449 298.071C-103.906 298.699 -103.364 299.328 -102.823 299.956C-95.0182 309.013 -87.2899 318.238 -81.1418 328.529C-75.1537 338.551 -71.1403 349.455 -69.4411 361.013C-66.5684 380.564 -69.5846 400.338 -72.5442 419.74L-72.5443 419.741C-72.8298 421.613 -73.1149 423.481 -73.394 425.346C-76.7375 447.676 -78.7402 470.02 -74.8348 492.439C-71.111 513.822 -62.2372 535.136 -46.4819 550.474C-32.9166 563.681 -14.4042 572.26 4.55442 573.344C24.553 574.487 43.2077 566.285 55.8624 550.729C77.9139 523.62 77.8179 489.485 77.7234 455.901C77.6848 442.158 77.6464 428.508 79.1261 415.469C80.4851 403.484 83.1903 391.618 87.8913 380.483ZM87.1752 380.147C87.181 380.133 87.1874 380.12 87.1941 380.107C91.5534 370.035 97.583 360.681 105.761 353.281C113.983 345.841 123.986 341.031 133.972 336.228C145.77 330.555 157.545 324.892 166.334 314.918C180.651 298.671 183.273 275.23 179.202 254.672C174.415 230.503 161.762 208.192 149.717 186.953L149.717 186.953L149.117 185.895C136.083 162.911 121.737 140.669 106.18 119.312C98.3563 108.57 90.224 98.0539 81.7962 87.7784C74.0523 78.336 66.2226 68.822 57.4662 60.291C49.5635 52.5913 40.6223 45.6595 30.218 41.7194C20.726 38.1244 10.4668 37.4295 0.481195 38.9959C-19.5496 42.1369 -37.6099 53.0269 -54.4434 63.7397C-69.5995 73.3856 -84.7321 83.0694 -99.8645 92.753L-99.875 92.7597L-99.8855 92.7664C-107.206 97.4513 -114.527 102.136 -121.851 106.817C-125.689 109.27 -129.53 111.721 -133.37 114.172L-133.376 114.176C-140.804 118.917 -148.231 123.658 -155.648 128.416C-164.869 134.332 -176.081 141.75 -177.752 153.539C-178.448 158.454 -177.514 163.889 -174.459 167.899C-172.965 169.86 -171.059 170.95 -169.035 172.108L-169.034 172.109C-168.617 172.347 -168.196 172.588 -167.773 172.84C-165.648 174.104 -163.665 175.622 -161.853 177.301C-153.539 185.001 -148.962 195.939 -146.228 206.73C-144.824 212.27 -143.848 217.899 -142.871 223.528C-141.77 229.876 -140.67 236.223 -138.956 242.441C-135.77 253.999 -130.021 264.482 -123.02 274.154C-117.468 281.824 -111.25 288.995 -105.033 296.164C-95.952 306.637 -86.8735 317.106 -79.8771 329.123C-74.6292 338.136 -70.9335 347.866 -69.1068 358.143C-67.3422 368.07 -67.231 378.214 -67.8987 388.251C-68.6246 399.153 -70.2685 409.946 -71.9125 420.74C-73.4539 430.861 -74.9954 440.983 -75.7803 451.194C-79.0928 494.289 -66.6852 544.381 -24.6649 564.761C-7.29853 573.183 13.6135 575.718 31.7488 568.169C52.2743 559.626 64.9187 539.696 71.0778 519.106C77.2174 498.579 77.1079 477.054 76.9997 455.795L76.9997 455.795C76.9879 453.476 76.9761 451.161 76.9724 448.85C76.9346 425.542 77.9848 401.914 87.1752 380.147ZM104.004 342.986C94.5757 350.29 87.7788 360.235 83.0795 371.108C78.6358 381.634 76.0784 392.851 74.7889 404.179C73.3896 416.508 73.4255 429.414 73.4617 442.408L73.4616 442.409C73.5501 474.163 73.6399 506.438 52.7884 532.071C40.8221 546.784 23.1785 554.541 4.26471 553.461C-13.6666 552.437 -31.1753 544.324 -44.0046 531.834C-58.9053 517.329 -67.297 497.174 -70.8189 476.95C-74.5108 455.752 -72.6181 434.626 -69.4561 413.512C-69.1927 411.752 -68.9236 409.99 -68.6541 408.223C-65.8545 389.877 -63.0013 371.18 -65.7181 352.693C-67.3224 341.769 -71.1157 331.463 -76.7763 321.991C-82.5887 312.262 -89.8966 303.541 -97.2744 294.978C-97.7857 294.385 -98.2976 293.791 -98.8098 293.197C-112.997 276.752 -127.361 260.102 -132.756 238.516C-134.032 233.411 -134.93 228.223 -135.827 223.035C-136.93 216.659 -138.033 210.285 -139.837 204.065C-143.129 192.729 -149.023 181.047 -159.707 175.066C-163.333 173.036 -166.021 170.919 -167.648 166.951C-169.192 163.181 -169.46 158.864 -168.592 154.897C-166.389 144.843 -157.019 138.221 -148.918 132.971C-134.395 123.558 -119.791 114.267 -105.187 104.976L-105.177 104.97C-97.9896 100.397 -90.802 95.8246 -83.6242 91.2375C-80.0983 88.9844 -76.5746 86.7281 -73.0508 84.4719C-65.8402 79.855 -58.6298 75.2383 -51.4017 70.6483C-43.3144 65.5123 -35.0913 60.5478 -26.4543 56.3817C-9.96688 48.4303 8.87967 43.41 26.8399 49.3997C46.4277 55.9323 60.5398 72.9476 73.373 88.4208L73.377 88.4256C73.9656 89.1352 74.5515 89.8417 75.1351 90.5437C91.5731 110.316 106.849 131.056 120.863 152.613C134.453 173.519 147.229 195.205 157.999 217.712C167.244 237.027 174.31 258.331 170.973 279.981C169.542 289.258 166.244 298.333 160.714 305.969C154.169 315.006 144.709 320.974 134.907 325.956C132.373 327.245 129.803 328.483 127.23 329.722C119.175 333.602 111.095 337.494 104.004 342.986ZM82.3506 370.802C73.6714 391.379 72.6801 413.708 72.7152 435.739C72.7186 437.928 72.7297 440.121 72.7409 442.317C72.8426 462.411 72.9457 482.756 67.1415 502.158C61.3209 521.617 49.37 540.454 29.9722 548.529C12.8296 555.664 -6.93408 553.268 -23.3481 545.307C-63.067 526.043 -74.7956 478.693 -71.6634 437.958C-70.9215 428.305 -69.4643 418.737 -68.0072 409.169C-66.4529 398.963 -64.8987 388.757 -64.2126 378.448C-63.5803 368.956 -63.6858 359.364 -65.3542 349.977C-67.0819 340.257 -70.5767 331.055 -75.541 322.528C-82.156 311.166 -90.7402 301.267 -99.3268 291.366C-105.204 284.588 -111.083 277.81 -116.332 270.559C-122.951 261.416 -128.385 251.506 -131.397 240.58C-133.017 234.701 -134.058 228.7 -135.099 222.698C-136.022 217.376 -136.945 212.054 -138.272 206.817C-140.859 196.611 -145.188 186.267 -153.051 178.984C-154.767 177.396 -156.642 175.958 -158.653 174.763C-159.052 174.526 -159.449 174.299 -159.841 174.075C-161.754 172.981 -163.555 171.951 -164.967 170.098C-167.852 166.312 -168.734 161.179 -168.077 156.539C-166.498 145.399 -155.899 138.391 -147.188 132.8C-140.178 128.302 -133.156 123.821 -126.135 119.339L-126.132 119.337C-122.499 117.018 -118.865 114.7 -115.234 112.378C-108.307 107.951 -101.383 103.52 -94.4583 99.0892C-80.1476 89.9313 -65.8364 80.7731 -51.5019 71.6512C-35.5895 61.5254 -18.5186 51.2292 0.416155 48.2597C9.85246 46.7801 19.5503 47.4355 28.52 50.8333C38.3554 54.5585 46.8057 61.1101 54.2775 68.3882C62.5545 76.4524 69.9566 85.4465 77.2769 94.372C85.2449 104.086 92.9343 114.03 100.331 124.186C115.04 144.38 128.604 165.406 140.926 187.138L141.483 188.12C152.873 208.202 164.839 229.3 169.366 252.154C173.216 271.585 170.738 293.741 157.205 309.098C148.895 318.526 137.764 323.879 126.61 329.243L126.61 329.243C117.169 333.784 107.712 338.331 99.9392 345.364C92.1948 352.372 86.4869 361.232 82.3621 370.772C82.3579 370.782 82.3541 370.792 82.3506 370.802ZM78.268 361.732C82.6955 351.491 89.0967 342.121 97.9774 335.242C104.657 330.068 112.268 326.402 119.857 322.747L119.857 322.747L119.857 322.747L119.858 322.747L119.858 322.747L119.858 322.746L119.859 322.746L119.859 322.746L119.859 322.746L119.859 322.746L119.86 322.746C122.285 321.578 124.709 320.41 127.098 319.195C136.337 314.499 145.253 308.874 151.421 300.356C156.634 293.157 159.746 284.603 161.093 275.856C164.237 255.452 157.58 235.373 148.868 217.167C138.719 195.956 126.679 175.52 113.871 155.818C100.666 135.503 86.2697 115.962 70.7819 97.3305C70.2321 96.6691 69.68 96.0035 69.1255 95.3349L69.1225 95.3312C57.027 80.7476 43.726 64.7104 25.2636 58.5529C8.33324 52.9061 -9.43058 57.6353 -24.9734 65.1314C-33.1135 69.0568 -40.8635 73.7373 -48.486 78.5778C-55.4122 82.9765 -62.3224 87.401 -69.2326 91.8255L-69.236 91.8277C-72.4398 93.879 -75.6436 95.9303 -78.849 97.9791C-85.611 102.301 -92.3821 106.608 -99.1534 110.916L-99.1571 110.919C-112.922 119.676 -126.687 128.433 -140.376 137.305C-148.015 142.257 -156.848 148.501 -158.924 157.981C-159.743 161.722 -159.49 165.796 -158.033 169.351C-156.498 173.096 -153.96 175.095 -150.538 177.011C-140.476 182.644 -134.927 193.647 -131.827 204.324C-130.125 210.184 -129.086 216.192 -128.047 222.2L-128.047 222.2C-127.202 227.088 -126.356 231.977 -125.154 236.787C-120.067 257.136 -106.524 272.833 -93.1484 288.336C-92.6706 288.89 -92.1931 289.443 -91.7162 289.997C-84.7639 298.066 -77.8776 306.283 -72.3999 315.452C-67.0683 324.374 -63.4958 334.082 -61.9831 344.371C-59.4233 361.785 -62.1104 379.396 -64.7472 396.677L-64.7483 396.685C-65.0025 398.351 -65.2563 400.014 -65.5049 401.674C-68.4844 421.573 -70.2685 441.483 -66.7887 461.459C-63.4684 480.521 -55.5589 499.52 -41.5132 513.195C-29.42 524.968 -12.9143 532.616 3.98758 533.579C21.8166 534.596 38.4471 527.284 49.7283 513.415C69.3812 489.254 69.2967 458.838 69.2134 428.911C69.1794 416.668 69.1455 404.507 70.4636 392.889C71.6711 382.217 74.0807 371.65 78.268 361.732ZM68.4575 422.627C68.4246 401.869 69.3592 380.827 77.5344 361.437C77.5366 361.43 77.539 361.424 77.5416 361.417C77.544 361.41 77.5466 361.404 77.5493 361.398C81.4369 352.405 86.8167 344.05 94.1194 337.447C101.443 330.825 110.35 326.541 119.243 322.264C129.755 317.208 140.246 312.163 148.077 303.277C160.825 288.809 163.157 267.939 159.53 249.634C155.265 228.104 143.992 208.229 133.262 189.312L132.734 188.379C121.121 167.9 108.342 148.086 94.4805 129.058C87.5105 119.489 80.264 110.119 72.7571 100.964C65.8605 92.5557 58.8859 84.0816 51.0884 76.4842C44.0501 69.6258 36.0874 63.4527 26.822 59.9437C18.3731 56.744 9.2388 56.1285 0.350512 57.5223C-17.4882 60.3202 -33.5715 70.02 -48.5619 79.5602C-62.0015 88.1127 -75.4186 96.6989 -88.8359 105.285L-88.8406 105.288L-88.8421 105.289L-88.8468 105.292L-88.8483 105.293L-88.8669 105.305L-88.8855 105.317L-88.904 105.329C-95.4738 109.533 -102.044 113.738 -108.616 117.938C-111.806 119.976 -114.998 122.013 -118.189 124.049L-118.197 124.055L-118.199 124.056L-118.2 124.057L-118.202 124.058L-118.203 124.059L-118.205 124.06L-118.206 124.06L-118.208 124.061L-118.209 124.062L-118.211 124.063L-118.212 124.064L-118.214 124.065L-118.215 124.066L-118.216 124.067L-118.218 124.068C-125.058 128.433 -131.898 132.798 -138.727 137.181C-146.931 142.446 -156.915 149.045 -158.402 159.535C-159.02 163.9 -158.19 168.733 -155.475 172.294C-154.148 174.036 -152.454 175.004 -150.656 176.033L-150.654 176.034C-150.284 176.245 -149.911 176.459 -149.535 176.682C-147.638 177.809 -145.868 179.163 -144.251 180.661C-136.836 187.527 -132.753 197.279 -130.316 206.9C-129.065 211.836 -128.195 216.851 -127.326 221.867C-126.345 227.522 -125.364 233.177 -123.838 238.716C-121 249.009 -115.88 258.345 -109.644 266.959C-104.698 273.792 -99.1585 280.18 -93.6194 286.568L-93.6191 286.568L-93.619 286.568L-93.6189 286.568L-93.6187 286.568L-93.6186 286.569L-93.6184 286.569L-93.6183 286.569L-93.6181 286.569L-93.618 286.569L-93.6179 286.57L-93.6177 286.57L-93.6176 286.57L-93.6174 286.57L-93.6173 286.57L-93.6171 286.571L-93.617 286.571C-85.5274 295.899 -77.4398 305.225 -71.2073 315.93C-66.5284 323.968 -63.2348 332.643 -61.605 341.807C-60.0319 350.654 -59.9331 359.696 -60.5287 368.641C-61.175 378.358 -62.6398 387.978 -64.1047 397.599L-64.1047 397.599L-64.1048 397.599L-64.1048 397.6L-64.1049 397.6L-64.1049 397.601L-64.105 397.601L-64.105 397.601L-64.1051 397.602L-64.1051 397.602L-64.1051 397.603L-64.1052 397.603L-64.1052 397.603L-64.1053 397.604L-64.1053 397.604L-64.1054 397.605C-65.4776 406.616 -66.8499 415.628 -67.5489 424.719C-70.4999 463.094 -59.4512 507.703 -22.0341 525.852C-6.57025 533.351 12.0465 535.608 28.1943 528.886C46.4638 521.282 57.7227 503.537 63.2046 485.208C68.6763 466.921 68.5785 447.746 68.4818 428.808C68.4713 426.744 68.4608 424.684 68.4575 422.627ZM91.95 327.498C83.6156 333.954 77.6095 342.747 73.4547 352.358C69.5251 361.665 67.2642 371.584 66.1294 381.607C64.8916 392.515 64.9231 403.933 64.9549 415.428C65.0325 443.524 65.1113 472.079 46.6586 494.764C36.0649 507.788 20.4451 514.657 3.70214 513.702C-12.1698 512.798 -27.6731 505.618 -39.0302 494.56C-52.2213 481.718 -59.6489 463.878 -62.7672 445.976C-66.0335 427.221 -64.3581 408.527 -61.5601 389.845C-61.3269 388.287 -61.0887 386.727 -60.8502 385.163C-58.3743 368.938 -55.8514 352.404 -58.2541 336.055C-59.6718 326.399 -63.0266 317.289 -68.0284 308.917C-73.1713 300.31 -79.6346 292.594 -86.1615 285.02C-86.595 284.517 -87.029 284.014 -87.4632 283.511L-87.4695 283.503L-87.4758 283.496L-87.4821 283.489L-87.4884 283.481L-87.5087 283.458C-100.067 268.902 -112.781 254.165 -117.556 235.061C-118.685 230.544 -119.479 225.954 -120.273 221.365L-120.273 221.364C-121.249 215.725 -122.224 210.086 -123.821 204.585C-126.728 194.569 -131.935 184.242 -141.373 178.958C-144.593 177.156 -146.979 175.275 -148.422 171.753C-149.791 168.412 -150.029 164.581 -149.259 161.066C-147.309 152.159 -139.015 146.292 -131.837 141.64C-118.98 133.306 -106.052 125.081 -93.1249 116.857C-86.7723 112.816 -80.42 108.774 -74.0765 104.72C-71.0152 102.764 -67.9556 100.805 -64.8959 98.8454L-64.8953 98.845C-58.46 94.7243 -52.0244 90.6034 -45.5729 86.5069C-38.414 81.961 -31.1365 77.5678 -23.4929 73.881C-8.89597 66.8411 7.78858 62.4026 23.6868 67.7062C41.0229 73.4893 53.5122 88.548 64.8707 102.243C65.3917 102.871 65.9104 103.497 66.427 104.118C80.9676 121.61 94.4803 139.954 106.878 159.025C118.902 177.521 130.206 196.711 139.735 216.624C147.915 233.718 154.166 252.572 151.213 271.731C149.946 279.949 147.024 287.981 142.127 294.743C136.336 302.741 127.963 308.023 119.288 312.433C117.045 313.573 114.77 314.669 112.494 315.765C105.368 319.197 98.2221 322.64 91.95 327.498ZM72.7576 351.982C72.7508 351.994 72.7445 352.007 72.7386 352.021C65.047 370.238 64.1677 390.009 64.1992 409.515C64.2021 411.441 64.212 413.37 64.2218 415.303L64.2218 415.317L64.2219 415.332C64.3121 433.104 64.4035 451.098 59.2695 468.259C54.124 485.457 43.5606 502.109 26.4189 509.245C11.2651 515.553 -6.20467 513.435 -20.7162 506.397C-55.832 489.365 -66.2002 447.495 -63.4308 411.482C-62.7746 402.945 -61.4859 394.482 -60.1973 386.019L-60.1973 386.019L-60.1972 386.019L-60.1971 386.018L-60.197 386.018L-60.197 386.018L-60.1969 386.017L-60.1968 386.017L-60.1968 386.017L-60.1967 386.017L-60.1966 386.016L-60.1965 386.016L-60.1965 386.016L-60.1964 386.016L-60.1963 386.015L-60.1962 386.014L-60.1961 386.014L-60.1961 386.013L-60.196 386.012L-60.1959 386.011L-60.1958 386.01L-60.1957 386.01L-60.1956 386.009L-60.1955 386.008L-60.1954 386.007L-60.1953 386.006L-60.1953 386.005L-60.1952 386.005L-60.1951 386.004C-58.8205 376.979 -57.446 367.954 -56.8392 358.838C-56.2803 350.439 -56.3713 341.949 -57.8491 333.641C-59.3798 325.034 -62.4725 316.886 -66.8682 309.337C-72.7195 299.286 -80.3133 290.529 -87.9092 281.77L-87.9095 281.77L-87.91 281.77C-93.1093 275.774 -98.3096 269.778 -102.953 263.364C-108.806 255.279 -113.61 246.517 -116.273 236.855C-117.706 231.655 -118.627 226.346 -119.548 221.036C-120.364 216.328 -121.181 211.62 -122.355 206.987C-124.645 197.95 -128.48 188.793 -135.444 182.344C-136.965 180.935 -138.629 179.669 -140.409 178.604C-140.777 178.383 -141.144 178.174 -141.505 177.966C-143.173 177.011 -144.742 176.112 -145.975 174.493C-148.52 171.154 -149.3 166.625 -148.72 162.532C-147.325 152.691 -137.955 146.5 -130.259 141.56C-123.988 137.536 -117.708 133.528 -111.427 129.519L-111.42 129.515L-111.412 129.51C-108.272 127.506 -105.131 125.501 -101.992 123.494C-95.8068 119.542 -89.6244 115.586 -83.4419 111.629C-70.839 103.564 -58.236 95.4994 -45.6128 87.4663C-31.5433 78.5132 -16.4495 69.4071 0.291836 66.7818C8.6321 65.4737 17.2024 66.0515 25.1304 69.0531C33.8269 72.3472 41.2996 78.1414 47.9062 84.577C55.2265 91.7079 61.7712 99.6618 68.2443 107.554C75.2922 116.148 82.094 124.943 88.6381 133.927C101.65 151.791 113.648 170.391 124.55 189.616L125.05 190.498C135.119 208.251 145.698 226.904 149.702 247.109C153.105 264.286 150.919 283.874 138.954 297.45C131.603 305.79 121.755 310.527 111.888 315.273C103.54 319.288 95.1795 323.31 88.3055 329.525C81.4565 335.717 76.408 343.551 72.7576 351.982ZM68.6431 342.982C72.5248 334.004 78.1361 325.786 85.923 319.755C91.7852 315.213 98.4646 311.996 105.124 308.789C107.253 307.763 109.38 306.739 111.478 305.672C119.587 301.549 127.417 296.61 132.832 289.132C137.412 282.807 140.146 275.294 141.33 267.609C144.091 249.694 138.248 232.066 130.599 216.081C121.69 197.463 111.123 179.525 99.8813 162.231C88.2933 144.405 75.6606 127.256 62.0681 110.905C61.7915 110.573 61.5143 110.239 61.2364 109.904L60.6143 109.154C49.9937 96.3481 38.3154 82.2674 22.1037 76.8583C7.23543 71.8976 -8.36759 76.0458 -22.0186 82.6294C-29.1666 86.0764 -35.9721 90.1845 -42.6639 94.4352C-48.6473 98.235 -54.6168 102.057 -60.5863 105.88L-60.5906 105.882L-60.5923 105.884L-60.5941 105.885L-60.5958 105.886C-63.4998 107.745 -66.4037 109.605 -69.3093 111.462C-75.2509 115.259 -81.2008 119.044 -87.1508 122.83L-87.1545 122.832L-87.1582 122.834L-87.1619 122.837L-87.1656 122.839L-87.1693 122.841L-87.173 122.844L-87.1767 122.846L-87.1771 122.846L-87.1775 122.846L-87.1779 122.847L-87.1782 122.847L-87.1786 122.847L-87.179 122.847L-87.1794 122.848L-87.1798 122.848L-87.1801 122.848L-87.1805 122.848L-87.1809 122.849L-87.1813 122.849L-87.1816 122.849C-99.2442 130.523 -111.307 138.198 -123.303 145.972C-130.019 150.324 -137.776 155.814 -139.6 164.149C-140.321 167.439 -140.097 171.024 -138.816 174.151C-137.463 177.451 -135.229 179.214 -132.213 180.901C-123.397 185.838 -118.535 195.486 -115.818 204.842C-114.325 209.985 -113.413 215.256 -112.501 220.528L-112.501 220.529C-111.759 224.818 -111.017 229.108 -109.962 233.33C-105.498 251.192 -93.61 264.971 -81.8684 278.58L-81.836 278.618C-81.4277 279.091 -81.0197 279.564 -80.6122 280.037C-74.5107 287.117 -68.4681 294.331 -63.6619 302.375C-58.9876 310.197 -55.8542 318.71 -54.5289 327.73C-52.2838 343.008 -54.6412 358.46 -56.9545 373.623L-56.9553 373.629L-56.9561 373.634C-57.1789 375.094 -57.4012 376.552 -57.619 378.006C-60.2342 395.471 -61.8009 412.949 -58.7471 430.484C-55.8308 447.227 -48.8852 463.908 -36.5487 475.918C-25.9277 486.259 -11.4283 492.972 3.41518 493.817C19.0733 494.709 33.6808 488.287 43.5896 476.106C60.8432 454.894 60.7701 428.199 60.6982 401.93L60.6982 401.93C60.6688 391.185 60.6396 380.512 61.7964 370.314C62.8577 360.952 64.9708 351.682 68.6431 342.982ZM59.9422 396.404C59.9134 378.172 60.7345 359.693 67.9187 342.666C67.9214 342.658 67.9243 342.651 67.9275 342.644C71.3424 334.744 76.0702 327.405 82.4859 321.606C88.911 315.797 96.726 312.038 104.528 308.285C113.751 303.849 122.956 299.422 129.826 291.627C141.005 278.941 143.046 260.638 139.866 244.587C136.124 225.707 126.239 208.277 116.83 191.687L116.359 190.856C106.168 172.885 94.9515 155.497 82.7888 138.798C76.6716 130.4 70.3127 122.177 63.7247 114.144C57.6756 106.767 51.5595 99.334 44.7186 92.6699C38.5443 86.6549 31.5623 81.241 23.4335 78.1626C16.0267 75.3569 8.02003 74.8191 0.227778 76.0413C-15.4175 78.4951 -29.5237 87.0047 -42.6712 95.3721C-54.3964 102.834 -66.1028 110.325 -77.8093 117.817C-83.6628 121.563 -89.5164 125.309 -95.3724 129.051C-98.299 130.921 -101.227 132.79 -104.155 134.659L-104.184 134.677L-104.19 134.681C-110.062 138.429 -115.934 142.177 -121.797 145.938C-128.986 150.551 -137.739 156.333 -139.043 165.525C-139.584 169.343 -138.857 173.57 -136.482 176.686C-135.331 178.197 -133.866 179.036 -132.31 179.927C-131.973 180.12 -131.632 180.315 -131.288 180.52C-129.621 181.517 -128.065 182.702 -126.641 184.02C-120.127 190.051 -116.539 198.615 -114.397 207.067C-113.301 211.396 -112.538 215.794 -111.775 220.192L-111.775 220.193C-110.914 225.158 -110.053 230.124 -108.712 234.987C-106.223 244.018 -101.733 252.205 -96.263 259.762C-91.9222 265.759 -87.0603 271.365 -82.1992 276.971L-82.1987 276.971C-75.0991 285.158 -68.0015 293.342 -62.532 302.738C-58.4212 309.801 -55.5281 317.419 -54.0965 325.47C-52.7153 333.239 -52.6298 341.177 -53.1534 349.032C-53.7202 357.56 -55.0059 366.002 -56.2916 374.445C-57.4962 382.354 -58.7008 390.264 -59.3142 398.244C-61.9015 431.898 -52.2132 471.026 -19.3988 486.941C-5.83961 493.517 10.484 495.497 24.6429 489.603C40.6586 482.938 50.5278 467.377 55.3347 451.31C60.1345 435.263 60.0485 418.437 59.9636 401.818C59.9543 400.01 59.9451 398.205 59.9422 396.404ZM79.8958 312.011C72.6565 317.619 67.4402 325.258 63.8313 333.607C60.4153 341.697 58.4509 350.319 57.4601 359.026C56.3836 368.513 56.4104 378.443 56.4373 388.439L56.4373 388.44C56.5033 412.879 56.5703 437.713 40.5177 457.449C31.2964 468.785 17.7009 474.764 3.12757 473.934C-10.6882 473.148 -24.1825 466.9 -34.0688 457.276C-45.5494 446.098 -52.0131 430.576 -54.7274 414.993C-57.5682 398.68 -56.1101 382.419 -53.6773 366.169C-53.474 364.811 -53.2663 363.449 -53.0583 362.085C-50.9077 347.985 -48.7162 333.616 -50.8034 319.409C-52.0359 311.022 -54.9485 303.108 -59.2939 295.836C-63.7654 288.353 -69.3867 281.643 -75.0622 275.056L-75.6545 274.369L-76.2272 273.705L-76.2274 273.705C-87.1524 261.042 -98.2139 248.22 -102.368 231.601C-103.35 227.673 -104.041 223.681 -104.731 219.689L-104.731 219.689C-105.579 214.786 -106.428 209.883 -107.816 205.1C-110.34 196.403 -114.858 187.434 -123.053 182.845C-125.865 181.271 -127.948 179.627 -129.209 176.55C-130.403 173.636 -130.61 170.295 -129.939 167.231C-128.239 159.471 -121.023 154.359 -114.768 150.305C-103.602 143.069 -92.373 135.925 -81.1451 128.781C-75.6077 125.258 -70.0705 121.736 -64.5411 118.202C-61.8384 116.475 -59.1373 114.745 -56.4361 113.016L-56.4334 113.014L-56.4306 113.012L-56.4279 113.011L-56.4252 113.009L-56.4225 113.007L-56.4198 113.005L-56.417 113.004L-56.4143 113.002L-56.4116 113L-56.4089 112.999L-56.4061 112.997L-56.4034 112.995C-50.8584 109.445 -45.3131 105.894 -39.7543 102.365C-33.5251 98.4099 -27.193 94.5878 -20.5415 91.3794C-7.83511 85.2511 6.68517 81.394 20.5235 86.0119C35.6088 91.0444 46.4768 104.148 56.3595 116.064L56.3691 116.076L56.3832 116.093L56.4149 116.131L56.4191 116.136C56.8516 116.657 57.2821 117.176 57.7111 117.692C70.3556 132.902 82.106 148.855 92.8864 165.438C103.346 181.528 113.177 198.216 121.465 215.538C128.583 230.412 134.017 246.815 131.449 263.485C130.348 270.638 127.801 277.632 123.538 283.519C118.5 290.478 111.215 295.074 103.669 298.911C101.716 299.904 99.7356 300.858 97.7535 301.812C91.5598 304.795 85.3478 307.787 79.8958 312.011ZM63.1321 333.234C63.1294 333.24 63.1268 333.245 63.1242 333.25L63.1193 333.261L63.1151 333.27C56.4238 349.12 55.6575 366.321 55.684 383.292C55.6867 384.965 55.6952 386.642 55.7037 388.321L55.7037 388.324L55.7037 388.327L55.7037 388.331L55.7038 388.334L55.7038 388.337L55.7038 388.34L55.7038 388.34C55.7823 403.794 55.8617 419.44 51.3983 434.362C46.9301 449.298 37.7542 463.766 22.8663 469.963C9.70143 475.443 -5.47524 473.602 -18.082 467.487C-48.5951 452.689 -57.603 416.301 -55.1973 385.008C-54.6267 377.582 -53.5059 370.221 -52.3851 362.861L-52.385 362.861L-52.385 362.861L-52.3849 362.86L-52.3848 362.86L-52.3847 362.86L-52.3847 362.859L-52.3846 362.859L-52.3845 362.859L-52.3845 362.859L-52.3844 362.858L-52.3843 362.858L-52.3842 362.858L-52.3841 362.857C-51.1887 355.008 -49.9934 347.158 -49.4652 339.23C-48.9782 331.921 -49.0568 324.534 -50.3418 317.305C-51.6743 309.81 -54.3674 302.719 -58.1942 296.146C-63.2829 287.405 -69.8859 279.791 -76.4907 272.174C-81.0122 266.96 -85.5345 261.745 -89.5724 256.167C-94.6599 249.14 -98.8355 241.526 -101.15 233.128C-102.395 228.609 -103.195 223.996 -103.995 219.383L-103.995 219.383L-103.995 219.382L-103.995 219.382L-103.996 219.381L-103.996 219.381L-103.996 219.381L-103.996 219.38L-103.996 219.38L-103.996 219.38L-103.996 219.379L-103.996 219.379L-103.996 219.378C-104.707 215.282 -105.417 211.186 -106.439 207.156C-108.432 199.288 -111.775 191.318 -117.836 185.704C-119.163 184.476 -120.614 183.373 -122.165 182.444C-122.485 182.252 -122.804 182.07 -123.119 181.889C-124.561 181.064 -125.919 180.286 -126.985 178.886C-129.191 175.994 -129.865 172.07 -129.362 168.524C-128.151 159.981 -120.011 154.609 -113.331 150.322C-107.876 146.82 -102.412 143.333 -96.9475 139.847C-94.2151 138.103 -91.4826 136.359 -88.7511 134.614C-83.3001 131.13 -77.8512 127.643 -72.4023 124.157L-72.3969 124.153C-61.5124 117.188 -50.6278 110.223 -39.7254 103.284C-27.5003 95.5049 -14.38 87.5885 0.167948 85.3072C7.41087 84.1716 14.8561 84.67 21.742 87.2777C29.301 90.1398 35.794 95.1761 41.5361 100.77C47.8976 106.968 53.5861 113.881 59.2116 120.741C65.3407 128.215 71.2557 135.863 76.9452 143.674C88.2608 159.209 98.6944 175.383 108.172 192.1L108.615 192.881L108.615 192.882C117.364 208.307 126.556 224.515 130.035 242.069C132.993 256.994 131.096 274.012 120.7 285.808C114.311 293.058 105.749 297.176 97.1702 301.302C89.9132 304.792 82.644 308.288 76.6675 313.691C70.7053 319.079 66.3099 325.896 63.1321 333.234ZM59.0182 324.232C62.354 316.516 67.1756 309.452 73.8687 304.267C78.9121 300.36 84.6581 297.592 90.3879 294.832C92.221 293.949 94.0525 293.067 95.8588 292.149C102.841 288.598 109.583 284.344 114.245 277.905C118.191 272.456 120.549 265.983 121.571 259.36C123.948 243.937 118.92 228.758 112.335 214.995C104.666 198.971 95.5708 183.53 85.8963 168.646C75.9246 153.305 65.0551 138.549 53.3586 124.481C52.9457 123.984 52.5312 123.484 52.1148 122.982C42.9677 111.953 32.9093 99.8255 18.9478 95.1665C6.13942 90.8914 -7.29934 94.4582 -19.0598 100.13C-25.2157 103.099 -31.0758 106.636 -36.8378 110.295C-41.9393 113.535 -47.0292 116.794 -52.119 120.053L-52.1233 120.055L-52.1421 120.067L-52.1607 120.079C-54.6955 121.702 -57.2303 123.325 -59.7665 124.946C-64.8788 128.213 -69.9982 131.47 -75.1178 134.727C-85.506 141.336 -95.8948 147.946 -106.227 154.642C-112.02 158.396 -118.699 163.13 -120.273 170.318C-120.895 173.158 -120.703 176.254 -119.595 178.953C-118.425 181.806 -116.494 183.332 -113.886 184.792C-106.312 189.033 -102.139 197.326 -99.8074 205.362C-98.5231 209.788 -97.7384 214.324 -96.9535 218.861C-96.315 222.551 -95.6764 226.243 -94.7687 229.876C-90.9266 245.251 -80.6935 257.112 -70.5868 268.827C-70.2267 269.244 -69.8667 269.661 -69.5072 270.079C-64.2571 276.172 -59.0574 282.378 -54.9207 289.3C-50.9043 296.023 -48.2103 303.339 -47.0716 311.09C-45.1406 324.231 -47.1678 337.52 -49.1572 350.562C-49.3496 351.823 -49.5416 353.082 -49.7297 354.338C-51.9809 369.371 -53.3303 384.416 -50.7009 399.508C-48.1894 413.93 -42.2066 428.295 -31.5797 438.642C-22.4296 447.549 -9.939 453.33 2.84817 454.058C16.3358 454.823 28.9203 449.289 37.4553 438.797C52.3086 420.538 52.2474 397.563 52.1873 374.954C52.1627 365.706 52.1383 356.519 53.1346 347.741C54.0456 339.685 55.86 331.713 59.0182 324.232ZM51.4261 370.18C51.4018 354.496 52.1089 338.598 58.2807 323.947C58.2842 323.934 58.2884 323.922 58.2932 323.909L58.2986 323.896C61.2419 317.09 65.3155 310.767 70.8443 305.772C76.3719 300.775 83.0948 297.542 89.8065 294.314C97.741 290.498 105.66 286.69 111.569 279.985C121.181 269.081 122.931 253.346 120.197 239.549C116.979 223.32 108.481 208.334 100.393 194.073L99.9782 193.342C91.2095 177.879 81.5583 162.917 71.092 148.548C65.8285 141.321 60.3573 134.247 54.688 127.334C49.4862 120.99 44.2262 114.599 38.3432 108.867C33.0333 103.693 27.0299 99.038 20.0398 96.3908C13.6739 93.9799 6.79351 93.5205 0.0986221 94.5703C-13.3533 96.6801 -25.4851 104.001 -36.7882 111.195C-46.7957 117.564 -56.7879 123.958 -66.78 130.353L-66.787 130.357C-71.9028 133.631 -77.0185 136.905 -82.1362 140.175C-84.5788 141.736 -87.0222 143.295 -89.4657 144.855C-94.6038 148.134 -99.7422 151.413 -104.872 154.706C-111.044 158.665 -118.57 163.629 -119.689 171.524C-120.152 174.796 -119.529 178.419 -117.493 181.087C-116.51 182.377 -115.256 183.094 -113.926 183.855L-113.926 183.856L-113.926 183.856L-113.925 183.856L-113.925 183.856C-113.635 184.022 -113.341 184.19 -113.046 184.367C-111.608 185.226 -110.264 186.247 -109.035 187.385C-103.424 192.582 -100.329 199.957 -98.4831 207.241C-97.5391 210.967 -96.8824 214.754 -96.2257 218.54C-95.485 222.811 -94.7442 227.082 -93.5912 231.266C-91.4497 239.031 -87.5893 246.071 -82.8857 252.57C-79.1504 257.73 -74.9665 262.555 -70.7834 267.378C-64.6743 274.423 -58.5669 281.466 -53.8611 289.55C-50.3189 295.635 -47.8257 302.199 -46.5931 309.137C-45.4039 315.828 -45.3326 322.661 -45.782 329.425C-46.2704 336.762 -47.3763 344.026 -48.4823 351.29C-49.5188 358.097 -50.5552 364.904 -51.0834 371.771C-53.3088 400.703 -44.9808 434.349 -16.7683 448.032C-5.11294 453.686 8.91461 455.388 21.0869 450.321C34.8491 444.593 43.3316 431.218 47.4613 417.412C51.5922 403.605 51.5179 389.129 51.4445 374.831C51.4366 373.278 51.4286 371.728 51.4261 370.18ZM67.8424 296.524C61.6961 301.284 57.2696 307.77 54.2066 314.856C51.3056 321.729 49.6381 329.051 48.7958 336.449C47.8809 344.514 47.9032 352.954 47.9257 361.45L47.9257 361.45L47.9257 361.451L47.9257 361.451L47.9257 361.451L47.9257 361.452L47.9257 361.452L47.9257 361.452L47.9257 361.453L47.9257 361.453L47.9257 361.453C47.9806 382.236 48.0364 403.352 34.3818 420.138C26.533 429.786 14.9618 434.874 2.55893 434.172C-9.19875 433.505 -20.6865 428.189 -29.1006 419.998C-38.8728 410.485 -44.3736 397.278 -46.6831 384.016C-49.0991 370.145 -47.8597 356.317 -45.79 342.5C-45.6173 341.347 -45.4409 340.191 -45.2642 339.032C-43.4363 327.051 -41.5734 314.841 -43.3481 302.768C-44.3931 295.651 -46.8667 288.931 -50.5546 282.76C-54.3544 276.399 -59.1324 270.696 -63.9571 265.097L-64.2663 264.738L-64.9457 263.951C-74.2356 253.183 -83.6424 242.279 -87.1744 228.146C-88.0088 224.808 -88.5954 221.416 -89.182 218.025C-89.9031 213.856 -90.6241 209.687 -91.8051 205.62C-93.9454 198.244 -97.773 190.63 -104.725 186.736C-107.129 185.391 -108.91 183.983 -109.988 181.352C-111.006 178.866 -111.184 176.014 -110.611 173.4C-109.163 166.787 -103.021 162.429 -97.6903 158.975C-88.2182 152.836 -78.6931 146.776 -69.1684 140.717L-69.168 140.716L-69.1676 140.716L-69.1673 140.716L-69.1669 140.716L-69.1665 140.715L-69.1661 140.715L-69.1658 140.715L-69.1654 140.715L-69.165 140.714L-69.1646 140.714C-64.4394 137.708 -59.7144 134.702 -54.9959 131.686C-52.7816 130.271 -50.5684 128.854 -48.3552 127.437L-48.3473 127.432L-48.3395 127.427L-48.3316 127.422L-48.3237 127.417L-48.3158 127.412L-48.3129 127.41L-48.3101 127.408C-43.5195 124.341 -38.7286 121.274 -33.9267 118.224C-28.6273 114.86 -23.2394 111.608 -17.5812 108.879C-6.76542 103.663 5.59149 100.388 17.3691 104.319C30.2039 108.604 39.4512 119.753 47.8605 129.893L47.8653 129.898L48.2 130.302L48.4127 130.558C48.6095 130.795 48.8058 131.032 49.0018 131.268C59.7502 144.195 69.7383 157.757 78.9016 171.852C87.7942 185.533 96.153 199.724 103.201 214.452C109.254 227.106 113.874 241.06 111.689 255.239C110.75 261.329 108.581 267.283 104.951 272.295C100.665 278.215 94.4688 282.126 88.0494 285.389C86.389 286.234 84.7053 287.045 83.0202 287.856L83.0191 287.857C77.7551 290.392 72.476 292.935 67.8424 296.524ZM53.5039 314.491L53.4988 314.502C53.4959 314.508 53.4931 314.514 53.4905 314.52C47.7985 328.002 47.1452 342.633 47.169 357.069C47.1713 358.493 47.1785 359.919 47.1858 361.347L47.1858 361.348C47.2525 374.483 47.3201 387.781 43.5263 400.463C39.7354 413.138 31.9461 425.42 19.3118 430.68C8.13433 435.333 -4.74706 433.77 -15.4504 428.579C-41.3617 416.013 -49.0093 385.107 -46.9664 358.535C-46.481 352.224 -45.5282 345.968 -44.5755 339.712C-43.5589 333.038 -42.5424 326.364 -42.0935 319.623C-41.6795 313.404 -41.7453 307.122 -42.8383 300.972C-43.9731 294.591 -46.264 288.554 -49.5226 282.956C-53.8479 275.526 -59.4608 269.053 -65.0751 262.579C-68.9182 258.147 -72.762 253.715 -76.1937 248.974C-80.5157 243.004 -84.0608 236.538 -86.0274 229.405C-87.0867 225.563 -87.767 221.64 -88.4473 217.717C-89.051 214.236 -89.6548 210.754 -90.5234 207.329C-92.2209 200.631 -95.0684 193.848 -100.229 189.069C-101.36 188.021 -102.598 187.082 -103.922 186.29C-104.193 186.128 -104.462 185.974 -104.728 185.822L-104.729 185.821L-104.73 185.821C-105.948 185.125 -107.096 184.468 -107.995 183.286C-109.86 180.841 -110.432 177.521 -110.007 174.522C-108.98 167.278 -102.07 162.723 -96.4054 159.088C-91.679 156.055 -86.9446 153.034 -82.2107 150.012L-82.1951 150.003C-79.9671 148.581 -77.7392 147.159 -75.5122 145.736C-71.0396 142.877 -66.5687 140.016 -62.0979 137.155L-62.0969 137.154L-62.096 137.154L-62.0951 137.153L-62.0941 137.152L-62.0932 137.152L-62.0923 137.151L-62.0914 137.151L-62.0904 137.15L-62.0895 137.149L-62.0886 137.149C-52.6774 131.126 -43.2665 125.104 -33.8397 119.105C-23.4576 112.499 -12.3143 105.773 0.0415717 103.834C6.18845 102.87 12.5061 103.291 18.3499 105.505C24.771 107.937 30.2845 112.213 35.1626 116.964C40.5661 122.229 45.3986 128.101 50.1768 133.928C55.3862 140.279 60.4145 146.781 65.2511 153.422C74.8695 166.626 83.7369 180.376 91.7953 194.585L92.1806 195.265C99.6087 208.363 107.414 222.126 110.369 237.03C112.88 249.702 111.276 264.151 102.448 274.166C97.0191 280.327 89.742 283.827 82.4505 287.334C76.285 290.299 70.1092 293.269 65.0317 297.857C59.9641 302.437 56.223 308.226 53.5199 314.462L53.5152 314.47C53.5113 314.477 53.5075 314.484 53.5039 314.491ZM49.395 305.481C52.1862 299.026 56.218 293.116 61.8168 288.779C66.0424 285.506 70.8573 283.187 75.6579 280.874C77.1936 280.135 78.7278 279.395 80.2408 278.626C86.096 275.648 91.748 272.079 95.6584 266.682C98.9718 262.107 100.953 256.673 101.81 251.113C103.804 238.179 99.5929 225.45 94.0694 213.908C87.6422 200.476 80.0204 187.535 71.9106 175.059C63.5561 162.206 54.4476 149.842 44.6486 138.055C44.304 137.64 43.9581 137.223 43.6106 136.804C35.9383 127.553 27.5025 117.382 15.7917 113.471C5.0441 109.883 -6.23136 112.867 -16.1013 117.628C-21.2638 120.117 -26.1784 123.083 -31.012 126.152C-35.3316 128.895 -39.6413 131.655 -43.9507 134.414L-43.9569 134.418L-43.9632 134.422L-43.9695 134.426C-46.0533 135.76 -48.137 137.094 -50.2217 138.427C-54.5119 141.169 -58.8082 143.902 -63.1046 146.635L-63.1056 146.636L-63.1065 146.637L-63.1074 146.637L-63.1084 146.638L-63.1093 146.638L-63.1102 146.639L-63.1112 146.64L-63.1121 146.64L-63.1299 146.652L-63.1328 146.653C-71.8204 152.181 -80.5086 157.708 -89.148 163.308C-94.018 166.464 -99.6206 170.444 -100.943 176.482C-101.465 178.871 -101.304 181.479 -100.373 183.749C-99.3856 186.157 -97.7564 187.447 -95.5559 188.679C-89.2267 192.224 -85.7431 199.16 -83.793 205.876C-82.7166 209.584 -82.0592 213.385 -81.4017 217.187C-80.8669 220.279 -80.3321 223.372 -79.5716 226.415C-76.3497 239.305 -67.7697 249.251 -59.2958 259.074L-59.2956 259.074C-58.9961 259.421 -58.6967 259.768 -58.3977 260.115C-53.9985 265.219 -49.6421 270.42 -46.1771 276.22C-42.8181 281.842 -40.5654 287.963 -39.612 294.446C-37.9951 305.449 -39.692 316.575 -41.3576 327.496L-41.3597 327.509C-41.5204 328.563 -41.6808 329.615 -41.838 330.664C-43.724 343.265 -44.856 355.877 -42.6522 368.527C-40.5446 380.629 -35.527 392.678 -26.6094 401.359C-18.9313 408.833 -8.44743 413.683 2.28169 414.29C13.5984 414.93 24.16 410.287 31.3216 401.481C43.7756 386.171 43.726 366.917 43.6772 347.965C43.6572 340.216 43.6374 332.517 44.4725 325.159C45.2316 318.418 46.7504 311.745 49.395 305.481ZM42.9111 343.957C42.8909 330.81 43.4843 317.488 48.6537 305.205C48.656 305.196 48.6587 305.187 48.6618 305.178C48.6639 305.171 48.6661 305.165 48.6685 305.159L48.6702 305.155L48.6744 305.144C51.1438 299.431 54.5663 294.126 59.2073 289.933C63.8359 285.751 69.4657 283.044 75.086 280.341C81.733 277.145 88.3669 273.954 93.3157 268.339C101.358 259.214 102.819 246.05 100.529 234.505C97.8343 220.917 90.7162 208.368 83.9436 196.428L83.6002 195.823C76.2542 182.866 68.168 170.33 59.3989 158.292C54.9901 152.237 50.4055 146.31 45.655 140.518C41.3004 135.208 36.8965 129.857 31.9724 125.059C27.5278 120.728 22.5029 116.832 16.6517 114.615C11.3288 112.6 5.57466 112.219 -0.0241908 113.097C-11.2827 114.863 -21.4374 120.994 -30.8976 127.015C-39.4351 132.449 -47.959 137.903 -56.4831 143.358C-60.619 146.005 -64.7549 148.652 -68.8925 151.296C-70.9248 152.594 -72.9577 153.892 -74.9907 155.189L-74.9973 155.194C-79.3148 157.949 -83.6323 160.704 -87.9428 163.47C-93.0991 166.779 -99.3963 170.925 -100.331 177.52C-100.718 180.244 -100.198 183.262 -98.5023 185.484C-97.6845 186.556 -96.6416 187.152 -95.5359 187.784C-95.2934 187.923 -95.0478 188.063 -94.801 188.21C-93.5918 188.933 -92.4599 189.792 -91.427 190.749C-86.7173 195.111 -84.1164 201.299 -82.5676 207.414C-81.7765 210.536 -81.2262 213.709 -80.676 216.882L-80.676 216.882L-80.676 216.882L-80.6759 216.882L-80.6759 216.882L-80.6758 216.883L-80.6758 216.883L-80.6758 216.883L-80.6757 216.883L-80.6757 216.883C-80.0552 220.461 -79.4348 224.039 -78.4689 227.543C-76.6775 234.046 -73.4454 239.937 -69.5074 245.379C-66.3785 249.7 -62.8744 253.741 -59.3708 257.781L-59.3701 257.782L-59.3698 257.782C-54.2507 263.685 -49.1328 269.587 -45.1886 276.361C-42.214 281.47 -40.1231 286.98 -39.0873 292.804C-38.0896 298.415 -38.0308 304.146 -38.4081 309.819C-38.817 315.967 -39.7438 322.053 -40.6707 328.139C-41.5392 333.842 -42.4077 339.545 -42.8501 345.299C-44.7105 369.51 -37.7429 397.674 -14.1343 409.125C-4.38334 413.853 7.35107 415.278 17.5345 411.039C29.0416 406.25 36.137 395.058 39.5903 383.515C43.0477 371.957 42.9866 359.839 42.9262 347.87C42.9197 346.564 42.9131 345.259 42.9111 343.957ZM55.7881 281.036C50.7369 284.949 47.0989 290.282 44.5817 296.107C42.1949 301.76 40.8248 307.785 40.1345 313.874C39.3801 320.521 39.3976 327.474 39.4153 334.474L39.4153 334.474C39.4585 351.597 39.5025 368.991 28.248 382.827C21.7739 390.788 12.2243 394.988 1.99235 394.41C-7.70951 393.864 -17.1896 389.48 -24.1316 382.723C-32.1937 374.875 -36.7299 363.982 -38.6358 353.041C-40.6262 341.613 -39.6042 330.217 -37.8997 318.834C-37.7578 317.886 -37.6129 316.936 -37.4678 315.985L-37.4669 315.979L-37.466 315.973C-35.9619 306.113 -34.4293 296.066 -35.8899 286.13C-36.7483 280.281 -38.7824 274.759 -41.8126 269.687C-44.9427 264.448 -48.8788 259.75 -52.8513 255.14L-53.3721 254.536L-53.6637 254.198C-61.3193 245.324 -69.071 236.338 -71.9809 224.691C-72.6678 221.943 -73.151 219.15 -73.6341 216.357L-73.6342 216.357C-74.2281 212.923 -74.822 209.49 -75.7943 206.141C-77.552 200.086 -80.6914 193.827 -86.3987 190.629C-88.396 189.51 -89.8742 188.339 -90.7701 186.153C-91.6136 184.097 -91.7603 181.733 -91.2864 179.569C-90.0897 174.104 -85.024 170.502 -80.6162 167.645C-72.8328 162.601 -65.0067 157.622 -57.181 152.644C-53.2706 150.156 -49.3604 147.668 -45.4556 145.172C-43.5533 143.957 -41.652 142.739 -39.7507 141.522L-39.7441 141.518L-39.7375 141.514L-39.7309 141.509L-39.7243 141.505L-39.7177 141.501L-39.694 141.486L-39.6702 141.471L-39.6614 141.465C-35.8121 139 -31.9626 136.535 -28.1041 134.085C-23.7363 131.31 -19.2928 128.63 -14.6268 126.38C-5.70024 122.074 4.48946 119.385 14.2089 122.627C24.7907 126.158 32.4152 135.351 39.3474 143.709L39.3491 143.711L39.3925 143.764C39.6925 144.126 39.9912 144.486 40.2889 144.844C49.1407 155.492 57.3662 166.658 64.9131 178.267C72.2411 189.539 79.1268 201.232 84.9338 213.366C89.9257 223.797 93.7286 235.302 91.927 246.991C91.1517 252.019 89.3593 256.933 86.3629 261.07C82.8288 265.949 77.7221 269.174 72.4302 271.866C71.0653 272.56 69.6812 273.227 68.2958 273.894L68.2944 273.895L68.2929 273.895L68.2915 273.896L68.2901 273.897L68.2886 273.897L68.2872 273.898L68.2858 273.899C63.9509 275.987 59.6035 278.081 55.7881 281.036ZM43.8656 295.77C39.1727 306.886 38.635 318.945 38.6538 330.847C38.6557 332.013 38.6617 333.181 38.6677 334.352L38.6677 334.353L38.6677 334.355L38.6677 334.357L38.6677 334.359L38.6677 334.361L38.6677 334.363C38.7229 345.177 38.7788 356.124 35.6551 366.566C32.5405 376.978 26.1384 387.077 15.7592 391.398C6.56977 395.222 -4.01681 393.938 -12.8163 389.67C-34.1244 379.335 -40.4121 353.912 -38.7316 332.06C-38.3319 326.861 -37.5472 321.707 -36.7626 316.554L-36.7626 316.554L-36.7625 316.554L-36.7625 316.553L-36.7624 316.553L-36.7624 316.552L-36.7623 316.552L-36.7623 316.552L-36.7622 316.551C-35.9256 311.057 -35.0891 305.564 -34.7194 300.015C-34.3787 294.888 -34.4299 289.708 -35.3323 284.637C-36.269 279.369 -38.1591 274.387 -40.8491 269.766C-44.4103 263.648 -49.0325 258.319 -53.656 252.988L-53.6562 252.987L-53.6564 252.987L-53.6566 252.987L-53.6568 252.987L-53.6569 252.986L-53.6571 252.986L-53.6573 252.986L-53.6575 252.986C-56.8228 249.336 -59.9887 245.686 -62.8152 241.781C-66.3707 236.869 -69.2871 231.55 -70.9049 225.681C-71.7776 222.516 -72.338 219.285 -72.8984 216.053L-72.8985 216.053L-72.8986 216.053L-72.8987 216.052L-72.8988 216.052L-72.8989 216.051L-72.899 216.051L-72.8991 216.05L-72.8992 216.05C-73.3961 213.185 -73.8931 210.319 -74.6076 207.499C-76.0082 201.971 -78.362 196.375 -82.622 192.431C-83.5579 191.564 -84.5832 190.788 -85.6786 190.133C-85.8992 190.001 -86.1187 189.876 -86.3354 189.752C-87.3308 189.183 -88.2693 188.647 -89.0064 187.683C-90.5326 185.684 -90.9994 182.97 -90.652 180.517C-89.8081 174.571 -84.1276 170.835 -79.4791 167.851C-75.735 165.447 -71.9849 163.054 -68.235 160.661L-68.2332 160.66L-68.2314 160.659L-68.2234 160.654C-66.2395 159.387 -64.2556 158.121 -62.2727 156.854C-58.5366 154.466 -54.8021 152.076 -51.0675 149.686C-43.3672 144.758 -35.6669 139.831 -27.9532 134.922C-19.4142 129.488 -10.2479 123.952 -0.0854193 122.358C4.9641 121.567 10.1555 121.909 14.9575 123.727C20.2398 125.728 24.7748 129.245 28.7885 133.155C33.2344 137.485 37.2095 142.317 41.1405 147.11C45.4311 152.341 49.5714 157.697 53.5547 163.164C61.4754 174.039 68.7783 185.361 75.4153 197.064L75.7288 197.616C81.842 208.394 88.2667 219.721 90.7 231.985C92.7658 242.402 91.45 254.283 84.193 262.518C79.7247 267.589 73.7337 270.469 67.7306 273.356C62.6556 275.796 57.572 278.24 53.3927 282.015C49.1952 285.807 46.1003 290.604 43.8656 295.77ZM39.7701 286.731C42.0154 281.538 45.2565 276.781 49.761 273.292C53.164 270.657 57.0411 268.789 60.9069 266.926C62.1508 266.327 63.3936 265.728 64.6191 265.104C69.3463 262.7 73.9103 259.816 77.0682 255.456C79.7475 251.757 81.3524 247.362 82.0447 242.865C83.6551 232.421 80.2593 222.142 75.799 212.822C70.6125 201.984 64.4629 191.54 57.9176 181.473C51.1804 171.108 43.835 161.137 35.9312 151.63C35.6526 151.295 35.3728 150.957 35.0917 150.618C28.8975 143.15 22.0834 134.934 12.6293 131.778C3.93979 128.879 -5.16844 131.278 -13.1491 135.128C-17.3195 137.138 -21.2887 139.533 -25.1925 142.011C-28.7447 144.267 -32.2887 146.536 -35.8323 148.805C-37.4496 149.841 -39.0668 150.877 -40.6846 151.911C-44.1007 154.094 -47.5214 156.27 -50.9422 158.446C-58.0007 162.937 -65.0595 167.427 -72.0785 171.977C-76.024 174.534 -80.5506 177.759 -81.6229 182.652C-82.0463 184.591 -81.9149 186.71 -81.1617 188.552C-80.3566 190.514 -79.0308 191.567 -77.2366 192.573C-72.1513 195.422 -69.3568 201.003 -67.7907 206.398C-66.9229 209.389 -66.3926 212.455 -65.8622 215.521C-65.4309 218.014 -64.9995 220.508 -64.3865 222.962C-61.7858 233.367 -54.8617 241.394 -48.0229 249.321L-48.0196 249.325C-47.78 249.603 -47.5404 249.881 -47.3011 250.158C-43.7532 254.276 -40.2396 258.469 -37.4452 263.146C-34.7427 267.668 -32.9307 272.592 -32.1638 277.807C-30.8604 286.678 -32.2287 295.647 -33.5718 304.451C-33.7015 305.301 -33.831 306.15 -33.9578 306.997C-35.4808 317.164 -36.3941 327.343 -34.615 337.551C-32.911 347.332 -28.8568 357.067 -21.6506 364.082C-15.4447 370.123 -6.96831 374.04 1.70497 374.528C10.8521 375.042 19.3897 371.286 25.1785 364.171C35.233 351.81 35.1952 336.274 35.1579 320.979C35.1427 314.729 35.1276 308.52 35.801 302.584C36.4182 297.153 37.6396 291.776 39.7701 286.731ZM34.3958 317.735C34.3784 307.115 34.8593 296.358 39.0356 286.438C39.0381 286.43 39.0408 286.422 39.0439 286.414L39.0458 286.409L39.0517 286.394C41.0484 281.774 43.8178 277.486 47.5717 274.097C51.3015 270.729 55.8385 268.547 60.3681 266.369C65.7269 263.793 71.0752 261.221 75.0638 256.696C81.5371 249.353 82.7067 238.756 80.8638 229.465C78.694 218.525 72.9629 208.421 67.5105 198.808L67.225 198.305C61.3004 187.856 54.779 177.746 47.7063 168.036C44.149 163.153 40.4534 158.373 36.6218 153.701C33.1144 149.425 29.5679 145.115 25.6005 141.25C22.0212 137.762 17.976 134.623 13.2614 132.837C8.98068 131.216 4.35288 130.913 -0.148616 131.619C-9.21463 133.039 -17.3937 137.981 -25.0108 142.83C-31.8268 147.168 -38.6327 151.523 -45.4387 155.878C-48.8429 158.057 -52.2471 160.235 -55.6526 162.412C-57.4365 163.552 -59.2212 164.691 -61.0057 165.83L-61.0188 165.838C-64.3531 167.966 -67.6872 170.094 -71.0161 172.23C-75.1563 174.887 -80.2237 178.213 -80.9746 183.512C-81.2828 185.69 -80.8673 188.101 -79.5118 189.878C-78.8593 190.73 -78.0282 191.205 -77.1476 191.708L-77.1474 191.708L-77.1473 191.708C-76.9526 191.819 -76.7554 191.932 -76.5572 192.05C-75.5743 192.637 -74.657 193.332 -73.8182 194.109C-70.0105 197.636 -67.9033 202.637 -66.6501 207.581C-66.0117 210.1 -65.5677 212.66 -65.1238 215.22L-65.1238 215.22C-64.6236 218.105 -64.1233 220.99 -63.3447 223.815C-61.9008 229.053 -59.3006 233.797 -56.1268 238.18C-53.6033 241.666 -50.7771 244.925 -47.9514 248.183C-43.8226 252.944 -39.6948 257.704 -36.5142 263.167C-34.1064 267.3 -32.4173 271.754 -31.5797 276.466C-30.7739 280.999 -30.7284 285.627 -31.0337 290.208C-31.3636 295.165 -32.1109 300.072 -32.8583 304.979C-33.5589 309.58 -34.2596 314.18 -34.6163 318.822C-36.1152 338.313 -30.5079 360.995 -11.5012 370.214C-3.65402 374.02 5.78645 375.166 13.9811 371.755C23.2334 367.904 28.9421 358.898 31.7181 349.617C34.5063 340.3 34.4569 330.534 34.408 320.885L34.4081 320.885C34.4027 319.833 34.3974 318.783 34.3958 317.735ZM43.7351 265.548C39.7768 268.613 36.9308 272.793 34.9582 277.356C33.085 281.793 32.0114 286.52 31.4722 291.298C30.879 296.524 30.8919 301.99 30.9049 307.491L30.9049 307.492C30.9368 320.957 30.9691 334.632 22.1142 345.517C17.0117 351.788 9.48724 355.099 1.42488 354.647C-6.21852 354.218 -13.6924 350.769 -19.1622 345.444C-25.5147 339.26 -29.087 330.685 -30.589 322.063C-32.1538 313.077 -31.3492 304.114 -30.0086 295.162C-29.903 294.458 -29.7954 293.753 -29.6876 293.046L-29.6814 293.006L-29.6751 292.965L-29.6707 292.936L-29.6702 292.933C-28.4872 285.186 -27.2819 277.294 -28.4295 269.487C-29.1014 264.906 -30.6956 260.579 -33.0683 256.608C-35.528 252.492 -38.6199 248.802 -41.7423 245.179C-41.9523 244.935 -42.1625 244.691 -42.3728 244.447C-48.395 237.466 -54.4928 230.397 -56.7835 221.234C-57.3242 219.072 -57.7044 216.875 -58.0845 214.679C-58.551 211.983 -59.0175 209.287 -59.7805 206.657C-61.1551 201.921 -63.606 197.02 -68.0694 194.518C-69.6604 193.626 -70.8351 192.692 -71.5482 190.952C-72.2146 189.325 -72.3317 187.45 -71.9566 185.737C-71.0114 181.417 -67.0229 178.571 -63.5382 176.312C-57.3507 172.302 -51.1283 168.343 -44.9064 164.385L-44.8959 164.378L-44.8853 164.371L-44.8748 164.364C-41.8854 162.463 -38.8962 160.561 -35.9111 158.653C-34.4527 157.721 -32.9953 156.788 -31.538 155.855L-31.535 155.853L-31.532 155.851L-31.5291 155.849L-31.5261 155.847L-31.5231 155.845L-31.5202 155.843C-28.4415 153.872 -25.3633 151.901 -22.2771 149.941C-18.8378 147.756 -15.3398 145.648 -11.6671 143.876C-4.63108 140.482 3.39434 138.374 11.0539 140.931C19.384 143.712 25.3865 150.95 30.8439 157.53L31.2473 158.016L31.58 158.417C38.5357 166.783 44.9988 175.558 50.9286 184.679C56.6897 193.542 62.1046 202.736 66.6697 212.278C70.598 220.489 73.5854 229.543 72.1675 238.743C71.556 242.707 70.14 246.581 67.7763 249.844C64.9951 253.683 60.9751 256.224 56.8112 258.342C55.7349 258.889 54.6437 259.415 53.5515 259.941L53.5512 259.941C50.1466 261.582 46.7328 263.226 43.7351 265.548ZM34.2319 277.044C30.5479 285.784 30.1238 295.264 30.1377 304.622C30.1392 305.537 30.1439 306.453 30.1486 307.37C30.1921 315.865 30.2362 324.464 27.7831 332.668C25.3457 340.818 20.3303 348.732 12.2058 352.114C5.00515 355.111 -3.28833 354.104 -10.1831 350.759C-26.8885 342.657 -31.8167 322.715 -30.4981 305.585C-30.1841 301.504 -29.5682 297.458 -28.9522 293.413L-28.9521 293.412C-28.2942 289.091 -27.6363 284.77 -27.3462 280.405C-27.0776 276.369 -27.1163 272.292 -27.8259 268.3C-28.5644 264.144 -30.0527 260.219 -32.1759 256.573C-34.9745 251.767 -38.6057 247.579 -42.238 243.391L-42.2381 243.391C-44.7259 240.522 -47.2141 237.653 -49.4358 234.583C-52.2257 230.729 -54.5129 226.559 -55.7819 221.954C-56.4674 219.467 -56.9078 216.928 -57.3482 214.389C-57.7389 212.137 -58.1296 209.885 -58.6914 207.668C-59.796 203.307 -61.6565 198.9 -65.0144 195.791C-65.7548 195.105 -66.5678 194.491 -67.4337 193.974C-67.6069 193.871 -67.7792 193.773 -67.9493 193.676L-67.9496 193.675C-68.719 193.237 -69.445 192.823 -70.015 192.078C-71.2003 190.526 -71.5641 188.415 -71.2937 186.511C-70.6349 181.863 -66.1816 178.944 -62.5506 176.613C-59.3796 174.579 -56.2033 172.552 -53.0269 170.525L-53.0129 170.516C-51.6852 169.668 -50.3574 168.821 -49.0301 167.973C-46.0336 166.059 -43.0382 164.142 -40.0428 162.225L-40.0333 162.219C-34.0468 158.388 -28.0601 154.557 -22.0636 150.741C-15.3676 146.48 -8.17705 142.133 -0.207965 140.883C3.7455 140.263 7.81063 140.527 11.5692 141.951C15.7139 143.52 19.2691 146.28 22.4176 149.347C25.9055 152.745 29.0236 156.535 32.1069 160.296C35.4774 164.407 38.7314 168.614 41.8618 172.911C48.0853 181.456 53.8242 190.353 59.0376 199.548L59.2949 200.002C64.0865 208.45 69.1242 217.332 71.0319 226.946C72.6509 235.11 71.6275 244.422 65.9386 250.877C62.4305 254.858 57.725 257.12 53.0102 259.386C49.026 261.301 45.0351 263.22 41.7546 266.181C38.4441 269.169 36.0013 272.949 34.2404 277.023C34.2374 277.03 34.2345 277.037 34.2319 277.044ZM30.1455 267.981C31.8449 264.05 34.2963 260.446 37.707 257.804C40.2953 255.8 43.2433 254.38 46.1829 252.964L46.1845 252.963L46.1851 252.963L46.1857 252.963L46.1864 252.963L46.187 252.962C47.13 252.508 48.0721 252.054 49.0011 251.581C52.6009 249.749 56.0764 247.552 58.4813 244.232C60.528 241.407 61.7551 238.053 62.285 234.62C63.5117 226.664 60.9313 218.836 57.5347 211.736C53.5888 203.491 48.9122 195.546 43.9329 187.887C38.812 180.008 33.2297 172.43 27.2221 165.205L26.9028 164.821L26.5887 164.442C21.8692 158.751 16.6777 152.491 9.47281 150.085C2.8454 147.872 -4.10078 149.689 -10.1909 152.627C-13.3679 154.159 -16.393 155.983 -19.3683 157.871C-22.1752 159.654 -24.9759 161.448 -27.7768 163.241C-28.8987 163.96 -30.0205 164.678 -31.1428 165.396C-33.7354 167.052 -36.3315 168.704 -38.9277 170.356L-38.9316 170.358L-38.9531 170.372L-38.9556 170.374C-44.3145 173.783 -49.6738 177.193 -55.0041 180.647C-58.0266 182.606 -61.4773 185.075 -62.2977 188.821C-62.6233 190.308 -62.5227 191.939 -61.9434 193.353C-61.3225 194.87 -60.2978 195.687 -58.911 196.464C-55.0695 198.619 -52.9627 202.842 -51.7814 206.916C-51.1214 209.189 -50.7184 211.52 -50.3152 213.851C-49.9874 215.745 -49.6597 217.641 -49.1937 219.506C-47.2136 227.431 -41.9389 233.544 -36.7302 239.58L-36.7301 239.58L-36.1968 240.199C-33.5011 243.328 -30.8308 246.515 -28.7059 250.071C-26.6621 253.492 -25.2878 257.222 -24.7084 261.166C-23.7188 267.899 -24.757 274.706 -25.7764 281.389C-25.8752 282.036 -25.9738 282.683 -26.0703 283.328C-27.2294 291.063 -27.924 298.809 -26.5719 306.575C-25.2718 314.037 -22.1813 321.454 -16.6835 326.806C-11.9507 331.413 -5.47922 334.4 1.13511 334.766C8.11309 335.153 14.6248 332.29 19.0415 326.861C26.6968 317.45 26.6703 305.636 26.6442 293.999C26.6335 289.247 26.6229 284.524 27.1355 280.007C27.6042 275.886 28.53 271.808 30.1455 267.981ZM25.8809 291.512C25.8671 283.423 26.2355 275.23 29.417 267.674C29.4204 267.665 29.424 267.655 29.4281 267.646C30.9544 264.118 33.0695 260.846 35.9366 258.26C38.7689 255.705 42.2141 254.049 45.6534 252.396L45.6537 252.396C49.7241 250.439 53.7861 248.487 56.8135 245.052C61.7178 239.488 62.5972 231.461 61.1998 224.423C59.5541 216.134 55.21 208.474 51.0779 201.189L50.8502 200.787C46.347 192.846 41.3905 185.161 36.015 177.782C33.3124 174.072 30.5013 170.438 27.5907 166.888C24.9309 163.643 22.2405 160.374 19.232 157.443C16.5157 154.796 13.4491 152.416 9.87335 151.062C6.63475 149.834 3.13317 149.61 -0.27226 150.145C-7.14399 151.222 -13.346 154.974 -19.121 158.648C-24.2201 161.894 -29.3116 165.152 -34.4029 168.41C-37.0715 170.118 -39.7401 171.825 -42.4097 173.531C-43.689 174.349 -44.9688 175.166 -46.2487 175.982L-46.2712 175.997L-46.2938 176.011L-46.3029 176.017C-48.8984 177.674 -51.4942 179.331 -54.0865 180.994C-57.2118 182.999 -61.0497 185.509 -61.6165 189.508C-61.8477 191.137 -61.5364 192.946 -60.5205 194.274C-60.035 194.908 -59.4163 195.261 -58.7616 195.634C-58.6134 195.718 -58.4634 195.804 -58.3126 195.894C-57.5592 196.343 -56.8541 196.875 -56.2107 197.471C-53.3029 200.164 -51.6905 203.977 -50.7341 207.752C-50.2486 209.667 -49.9111 211.613 -49.5737 213.559C-49.1936 215.752 -48.8136 217.944 -48.2219 220.091C-47.1256 224.063 -45.154 227.661 -42.7466 230.986C-40.8288 233.635 -38.6808 236.112 -36.5332 238.588C-33.3949 242.207 -30.2574 245.825 -27.8403 249.978C-26.0038 253.134 -24.7146 256.534 -24.0748 260.132C-23.4605 263.584 -23.4286 267.111 -23.6606 270.601C-23.9116 274.368 -24.4796 278.098 -25.0477 281.828C-25.5801 285.325 -26.1126 288.821 -26.384 292.348C-27.5191 307.119 -23.2731 324.318 -8.86813 331.305C-2.92444 334.187 4.22083 335.056 10.4288 332.472C17.4263 329.56 21.7471 322.739 23.8471 315.719C25.9648 308.641 25.9273 301.222 25.8902 293.893C25.8862 293.098 25.8822 292.304 25.8809 291.512ZM31.8578 249.926C28.9054 252.16 26.7937 255.233 25.3335 258.606C23.9745 261.829 23.1974 265.259 22.8054 268.728C22.3732 272.536 22.3812 276.513 22.3891 280.514L22.3892 280.514C22.4088 290.314 22.4286 300.255 15.9824 308.195C12.2982 312.734 6.85537 315.17 1.02123 314.89C-4.58411 314.622 -10.071 312.132 -14.104 308.253C-18.7206 303.811 -21.3458 297.644 -22.4851 291.424C-23.6838 284.883 -23.1421 278.334 -22.1712 271.808C-22.0763 271.17 -21.9787 270.531 -21.881 269.89C-21.0343 264.344 -20.1739 258.707 -20.9391 253.112C-21.3918 249.803 -22.4988 246.662 -24.1845 243.779C-25.9365 240.781 -28.1627 238.098 -30.4187 235.473C-30.5568 235.312 -30.6952 235.151 -30.8338 234.99L-31.2003 234.565C-35.4811 229.6 -39.8292 224.557 -41.5184 218.064C-41.9518 216.398 -42.2456 214.701 -42.5394 213.004L-42.5394 213.004C-42.8757 211.061 -43.212 209.119 -43.7576 207.223C-44.7445 203.793 -46.5099 200.218 -49.7445 198.406C-50.8777 197.771 -51.7362 197.108 -52.2749 195.881C-52.7899 194.71 -52.9019 193.358 -52.6727 192.105C-52.0991 188.966 -49.2877 186.831 -46.7838 185.187C-42.2904 182.236 -37.7469 179.357 -33.2042 176.479L-33.2018 176.478C-30.9692 175.063 -28.7369 173.649 -26.5107 172.226C-25.4227 171.531 -24.3352 170.835 -23.2477 170.139L-23.1968 170.106L-23.1849 170.099C-20.9817 168.689 -18.7785 167.279 -16.5713 165.874C-14.0805 164.29 -11.5484 162.759 -8.89119 161.463C-3.75655 158.959 2.11715 157.364 7.73403 159.185C13.8479 161.167 18.2313 166.428 22.2255 171.222L22.2394 171.239L22.4143 171.449L22.6426 171.723C27.6969 177.78 32.3952 184.134 36.7086 190.739C40.9384 197.216 44.897 203.939 48.2652 210.908C51.1714 216.921 53.4149 223.544 52.434 230.303C52.0191 233.174 51.0273 235.977 49.3674 238.369C47.4127 241.182 44.553 243.085 41.5509 244.636C40.66 245.096 39.7538 245.533 38.847 245.969L38.8466 245.97C36.428 247.135 34.0051 248.302 31.8578 249.926ZM24.6021 258.306C21.9539 264.612 21.6167 271.44 21.6223 278.19C21.6226 278.488 21.6234 278.785 21.6245 279.083C21.6261 279.528 21.6285 279.974 21.6308 280.42C21.6624 286.467 21.6943 292.581 20.0094 298.432C18.2867 304.414 14.6754 310.282 8.73659 312.793C3.52046 314.998 -2.49812 314.287 -7.50918 311.868C-19.6499 306.009 -23.2296 291.514 -22.2651 279.082C-22.0357 276.124 -21.5894 273.192 -21.1431 270.26L-21.1431 270.259L-21.143 270.259L-21.143 270.258L-21.1429 270.258C-20.6721 267.164 -20.2014 264.071 -19.9851 260.947C-19.5665 254.908 -20.3084 249.013 -23.333 243.682C-25.3873 240.061 -28.1057 236.927 -30.8243 233.793C-32.5494 231.804 -34.2746 229.816 -35.8302 227.702C-37.8642 224.939 -39.577 221.95 -40.5449 218.64C-41.1133 216.694 -41.46 214.699 -41.8068 212.703L-41.8069 212.703L-41.8069 212.702L-41.807 212.702L-41.807 212.702C-42.0708 211.184 -42.3347 209.666 -42.6963 208.168C-43.461 205.003 -44.7459 201.821 -47.0752 199.476C-47.6329 198.915 -48.2476 198.417 -48.9142 197.991C-49.1149 197.862 -49.3238 197.748 -49.5322 197.634L-49.5327 197.634C-49.9672 197.396 -50.3993 197.16 -50.7498 196.797C-51.7792 195.733 -52.1214 194.111 -51.9612 192.677C-51.5795 189.251 -48.3042 187.098 -45.6542 185.396C-43.554 184.047 -41.4497 182.705 -39.345 181.361L-39.3135 181.341C-38.1683 180.611 -37.023 179.88 -35.8782 179.148C-33.7035 177.758 -31.5294 176.367 -29.3554 174.977C-25.0119 172.198 -20.6683 169.42 -16.32 166.649C-11.4545 163.547 -6.23741 160.365 -0.449566 159.424C2.4365 158.956 5.41067 159.129 8.1601 160.165C11.1519 161.294 13.7173 163.276 15.9918 165.485C18.5109 167.929 20.7581 170.659 22.9838 173.369C25.4216 176.336 27.7736 179.374 30.0389 182.475C34.568 188.679 38.7453 195.139 42.5426 201.817L42.7737 202.223L42.7738 202.223L42.7742 202.224C46.2757 208.38 49.9614 214.861 51.3601 221.865C52.5365 227.76 51.823 234.47 47.7483 239.158C45.1942 242.097 41.739 243.759 38.2761 245.425C35.3446 246.836 32.4076 248.249 30.0071 250.441C27.636 252.606 25.8879 255.335 24.6165 258.268C24.611 258.281 24.6062 258.293 24.6021 258.306ZM20.5219 249.23C21.7062 246.505 23.4062 244.019 25.7927 242.21C27.536 240.89 29.5055 239.941 31.4711 238.995C32.2392 238.625 33.0067 238.256 33.7599 237.864C36.203 236.595 38.5198 235.028 40.0946 232.722C41.4549 230.73 42.2544 228.403 42.5752 226.02C43.3071 220.572 41.492 215.244 39.1499 210.401C36.4052 204.723 33.181 199.247 29.7334 193.97C26.1829 188.537 22.311 183.311 18.1442 178.335L17.9118 178.057C14.6491 174.159 11.0748 169.889 6.0677 168.308C1.47681 166.858 -3.31847 168.196 -7.497 170.251C-11.3013 172.123 -14.8823 174.476 -18.4413 176.815L-18.4426 176.815C-19.5866 177.567 -20.7284 178.318 -21.8747 179.05C-23.6595 180.191 -25.4496 181.324 -27.2398 182.457L-27.24 182.457L-27.2401 182.457L-27.2402 182.458C-30.9227 184.789 -34.6056 187.12 -38.2434 189.517C-40.2686 190.852 -42.5032 192.577 -42.9937 195.104C-43.3924 197.168 -42.6369 199.239 -40.7646 200.252C-36.4358 202.594 -35.557 207.632 -34.751 212.252C-34.5365 213.481 -34.3273 214.681 -34.0596 215.792C-32.7087 221.406 -29.0039 225.698 -25.3226 229.963L-25.3224 229.963L-25.2488 230.048C-21.5585 234.325 -18.0814 238.797 -17.246 244.548C-16.5769 249.151 -17.2866 253.795 -17.9843 258.363L-17.9844 258.363C-18.0629 258.877 -18.1413 259.39 -18.2175 259.902C-19.0117 265.238 -19.4537 270.594 -18.4623 275.942C-17.5259 280.995 -15.384 286.005 -11.6256 289.608C-8.34116 292.758 -3.88392 294.781 0.674221 295.005C5.43874 295.238 9.88126 293.256 12.8972 289.557C18.1619 283.098 18.1471 274.991 18.1325 267.007C18.1266 263.796 18.1208 260.605 18.4584 257.549C18.7745 254.697 19.408 251.881 20.5219 249.23ZM17.3651 264.889C17.367 259.475 17.6703 254.016 19.7795 248.956C19.7821 248.946 19.7851 248.936 19.7885 248.926C19.7924 248.914 19.7968 248.902 19.8018 248.891C20.8459 246.49 22.2767 244.262 24.2209 242.489C26.1669 240.716 28.5468 239.571 30.9222 238.43C33.7379 237.076 36.5472 235.726 38.6198 233.334C41.9976 229.435 42.5073 223.834 41.4448 218.966C40.2175 213.341 37.2512 208.139 34.4216 203.177L34.2771 202.924C31.1902 197.51 27.7959 192.272 24.1153 187.243C22.2744 184.729 20.3635 182.267 18.3834 179.861C16.5835 177.674 14.7645 175.468 12.7219 173.5C10.8754 171.722 8.79347 170.135 6.36922 169.241C4.11534 168.411 1.68193 168.303 -0.671069 168.711C-5.4073 169.531 -9.65558 172.176 -13.6426 174.723C-18.8165 178.028 -23.9895 181.335 -29.1625 184.642L-29.4792 184.845C-30.3126 185.377 -31.1466 185.908 -31.9806 186.44C-33.7698 187.58 -35.5591 188.721 -37.3427 189.87C-39.5144 191.272 -42.1752 193.095 -42.3013 195.947C-42.3507 197.082 -42.0154 198.351 -41.1146 199.106C-40.8536 199.324 -40.5511 199.489 -40.2489 199.654C-40.041 199.768 -39.8331 199.881 -39.6388 200.012C-39.1178 200.363 -38.6392 200.773 -38.2052 201.227C-36.3869 203.128 -35.3709 205.644 -34.7575 208.167C-34.4597 209.393 -34.2438 210.636 -34.028 211.879L-34.0279 211.88L-34.0279 211.88L-34.0279 211.88C-33.759 213.428 -33.4901 214.977 -33.0632 216.491C-32.305 219.185 -30.9488 221.62 -29.3089 223.873C-28.0108 225.657 -26.562 227.327 -25.1135 228.997L-25.1134 228.998C-22.9682 231.471 -20.8237 233.944 -19.1703 236.783C-16.6692 241.076 -15.9734 245.817 -16.2697 250.721C-16.4316 253.399 -16.8348 256.049 -17.238 258.699L-17.2381 258.699L-17.2381 258.7L-17.2382 258.7C-17.5861 260.987 -17.9341 263.273 -18.1271 265.579C-18.9744 275.714 -16.1294 287.61 -6.21419 292.404C-2.14921 294.371 2.73608 294.949 6.96643 293.151C11.8245 291.087 14.7453 286.241 16.1149 281.338C17.4239 276.655 17.3979 271.775 17.3722 266.943L17.3722 266.943C17.3686 266.257 17.365 265.572 17.3651 264.889ZM20.0596 234.252C18.072 235.661 16.6764 237.642 15.7088 239.855C14.8404 241.932 14.3514 244.135 14.1164 246.366C13.872 248.675 13.8753 251.081 13.8786 253.503L13.8786 253.504C13.8872 259.669 13.8958 265.93 9.81646 270.918C7.49873 273.752 4.08955 275.284 0.432826 275.125C-3.11108 274.97 -6.58783 273.411 -9.14427 270.966C-15.2754 265.1 -15.4412 255.978 -14.2868 248.168C-14.221 247.724 -14.1528 247.278 -14.0845 246.831C-13.5579 243.386 -13.0234 239.89 -13.4894 236.417C-14.0981 231.889 -16.8182 228.403 -19.7154 225.046C-22.5473 221.766 -25.3926 218.467 -26.4402 214.155C-26.6671 213.221 -26.8309 212.272 -26.9948 211.324L-26.9949 211.324L-26.9949 211.323C-27.2182 210.031 -27.4415 208.738 -27.824 207.483C-28.1778 206.32 -28.6593 205.19 -29.3676 204.199C-30.0598 203.231 -30.8866 202.662 -31.8769 202.048C-33.1787 201.241 -33.6159 199.542 -33.3154 198.105C-32.9145 196.19 -31.2466 194.875 -29.7036 193.849C-26.8414 191.948 -23.9322 190.112 -21.024 188.276C-19.6123 187.384 -18.2009 186.493 -16.7952 185.595C-15.9375 185.047 -15.083 184.485 -14.2267 183.923L-14.2265 183.923C-11.4757 182.115 -8.70658 180.295 -5.75372 178.872C-2.54574 177.327 1.10724 176.374 4.60354 177.499C8.43489 178.732 11.1733 182.001 13.6771 184.991L13.8431 185.189C17.1151 189.094 20.1508 193.195 22.9279 197.466C25.5625 201.515 28.0359 205.718 30.1242 210.079C31.9141 213.818 33.2697 217.933 32.6621 222.124C32.4054 223.892 31.8022 225.614 30.8031 227.102C29.6273 228.852 27.9051 230.067 26.0656 231.041C25.419 231.383 24.7584 231.702 24.0977 232.02L24.0975 232.02C22.7088 232.689 21.3197 233.359 20.0596 234.252ZM14.9768 239.557C13.1598 243.93 13.1663 248.529 13.1728 253.137C13.178 256.872 13.1833 260.612 12.2171 264.242C11.1997 268.064 8.9738 271.889 5.19391 273.508C1.91136 274.914 -1.88146 274.443 -5.02379 272.89C-12.6833 269.102 -14.7222 259.794 -13.977 251.965C-13.8225 250.343 -13.5783 248.731 -13.3341 247.12C-13.0139 245.008 -12.6937 242.895 -12.576 240.76C-12.3723 237.059 -12.9307 233.476 -14.8076 230.235C-16.0817 228.037 -17.7409 226.123 -19.4003 224.208L-19.4004 224.208L-19.4005 224.208C-20.4556 222.991 -21.5109 221.774 -22.4672 220.483C-23.7402 218.765 -24.8209 216.916 -25.4354 214.857C-25.8084 213.61 -26.0309 212.328 -26.2534 211.046C-26.3968 210.22 -26.5403 209.394 -26.724 208.577C-27.1757 206.573 -27.9193 204.555 -29.3138 203.009C-29.9193 202.337 -30.605 201.897 -31.3635 201.433C-32.2233 200.907 -32.6067 199.992 -32.6138 199.003C-32.6303 196.742 -30.4896 195.298 -28.7989 194.206C-27.4536 193.337 -26.1026 192.476 -24.7517 191.616C-24.076 191.185 -23.4003 190.755 -22.7253 190.323C-21.9322 189.817 -21.1392 189.31 -20.3462 188.803L-18.6321 187.707L-18.6216 187.7L-18.6111 187.693C-15.9081 185.965 -13.2049 184.236 -10.4998 182.511C-7.45946 180.572 -4.2114 178.562 -0.596925 177.954C1.22672 177.648 3.10683 177.753 4.84168 178.418C6.72839 179.143 8.33582 180.415 9.76451 181.818C13.0377 185.036 15.8708 188.816 18.5632 192.52C21.3744 196.389 23.9666 200.416 26.3225 204.577L26.4875 204.868C28.6741 208.727 30.9856 212.807 31.7671 217.217C32.4202 220.903 31.8525 225.068 29.1736 227.868C27.6046 229.508 25.5808 230.481 23.5533 231.455C21.7043 232.344 19.8523 233.234 18.3394 234.633C16.8679 235.994 15.7904 237.691 14.9918 239.518C14.9885 239.526 14.9853 239.533 14.9825 239.541C14.9805 239.547 14.9786 239.552 14.9768 239.557ZM10.8971 230.48C11.5886 228.908 12.574 227.525 13.9982 226.54C14.8571 225.945 15.7963 225.492 16.7355 225.04L16.7356 225.04C17.2527 224.79 17.7698 224.541 18.2734 224.268C20.8087 222.893 22.4416 220.735 22.8014 217.843C23.1721 214.861 22.1716 211.964 20.8823 209.319C19.3841 206.246 17.64 203.279 15.7656 200.421C13.8543 197.504 11.7697 194.701 9.52742 192.031L9.45621 191.946C7.67115 189.82 5.72258 187.499 2.9833 186.642C0.499003 185.865 -2.09212 186.56 -4.36051 187.665C-6.43881 188.678 -8.39141 189.96 -10.3317 191.235L-10.3333 191.236C-10.942 191.636 -11.5495 192.035 -12.1593 192.425C-13.1404 193.052 -14.1292 193.67 -15.1187 194.288C-17.1911 195.584 -19.2659 196.882 -21.2762 198.261C-22.3159 198.974 -23.407 199.911 -23.657 201.215C-23.849 202.21 -23.5653 203.371 -22.7111 203.983C-22.5511 204.098 -22.394 204.202 -22.2403 204.303C-21.8017 204.592 -21.3918 204.863 -21.0272 205.322C-20.5116 205.969 -20.1584 206.727 -19.8956 207.506C-19.569 208.476 -19.3945 209.483 -19.22 210.49C-19.1104 211.123 -19.0007 211.755 -18.8533 212.379C-18.1245 215.462 -16.1115 217.807 -14.092 220.148C-12.0717 222.491 -10.1692 224.93 -9.76212 228.092C-9.45073 230.508 -9.82223 232.931 -10.1897 235.328L-10.1898 235.329C-10.2566 235.764 -10.3232 236.199 -10.3856 236.632C-11.1741 242.11 -10.8689 248.575 -6.43143 252.536C-2.71302 255.856 3.295 256.396 6.68789 252.335C9.62635 248.821 9.62393 244.381 9.62155 240.01C9.62063 238.327 9.61973 236.654 9.78677 235.048C9.94876 233.48 10.2924 231.939 10.8971 230.48ZM10.181 230.144C10.1856 230.133 10.1906 230.122 10.1958 230.112C10.7534 228.857 11.4915 227.689 12.4951 226.742C13.5664 225.732 14.8868 225.095 16.205 224.46L16.2052 224.46C17.6174 223.78 19.0272 223.1 20.1255 221.963C22.088 219.93 22.4029 216.831 21.8327 214.178C21.1891 211.18 19.6081 208.405 18.1017 205.762L18.0053 205.592C16.3811 202.741 14.5981 199.979 12.6667 197.326C10.8035 194.765 8.84563 192.151 6.58702 189.923C4.57577 187.94 2.16874 186.712 -0.705217 187.225C-3.27546 187.684 -5.56646 189.148 -7.73201 190.532L-7.73221 190.532L-7.75645 190.548C-9.13144 191.426 -10.5059 192.305 -11.8802 193.183C-13.3176 194.102 -14.7548 195.021 -16.1922 195.939C-16.6769 196.25 -17.1625 196.558 -17.6481 196.867C-18.5583 197.446 -19.4685 198.025 -20.3729 198.612C-21.6195 199.424 -23.2021 200.554 -22.8798 202.258C-22.7482 202.954 -22.3551 203.265 -21.7815 203.609C-21.2357 203.938 -20.7713 204.375 -20.3773 204.874C-19.5039 205.982 -19.0488 207.361 -18.7577 208.722C-18.6497 209.226 -18.561 209.735 -18.4722 210.245C-18.2969 211.251 -18.1215 212.258 -17.797 213.228C-17.3238 214.645 -16.526 215.91 -15.6225 217.09C-15.0149 217.883 -14.3569 218.641 -13.6986 219.4L-13.6984 219.4C-12.4601 220.827 -11.2207 222.255 -10.3135 223.92C-8.28807 227.638 -8.87026 231.637 -9.4491 235.613L-9.44913 235.613C-9.61302 236.739 -9.77666 237.863 -9.88075 238.978C-10.3893 244.425 -8.94539 250.9 -3.5929 253.49C-1.35792 254.572 1.34909 254.862 3.63826 253.767C6.22706 252.528 7.68302 249.78 8.32606 247.098C8.90949 244.661 8.90825 242.167 8.90701 239.678L8.90704 239.678C8.90543 236.447 8.90384 233.223 10.181 230.144ZM7.93823 218.826C7.08004 219.393 6.50382 220.176 6.08524 221.105C5.38902 222.826 5.3828 224.68 5.37659 226.529C5.36902 228.787 5.36148 231.037 4.09648 233.027C2.21211 235.99 -1.77171 235.958 -4.20069 233.667C-6.67599 231.331 -6.85677 227.68 -6.40451 224.526C-6.36778 224.27 -6.32817 224.013 -6.28844 223.755C-6.0711 222.343 -5.85037 220.909 -6.07732 219.491C-6.36237 217.704 -7.52848 216.35 -8.67002 215.024C-8.75376 214.927 -8.83737 214.829 -8.92049 214.732C-10.1375 213.31 -11.0308 211.908 -11.3828 210.049C-11.4147 209.881 -11.4443 209.712 -11.4739 209.541C-11.6146 208.734 -11.7574 207.914 -12.1616 207.195C-12.4279 206.719 -12.7652 206.419 -13.2076 206.129C-13.4391 205.977 -13.6251 205.838 -13.7732 205.598C-14.5804 204.291 -13.4254 203.057 -12.3967 202.367C-11.215 201.574 -10.0081 200.815 -8.80199 200.056C-8.20079 199.678 -7.59979 199.3 -7.0022 198.918C-6.66824 198.705 -6.3213 198.471 -5.96319 198.23C-3.74124 196.736 -1.08946 194.952 1.55491 195.843C3.10454 196.365 4.20921 197.675 5.22859 198.886C6.54033 200.443 7.75771 202.08 8.87428 203.783C9.95762 205.438 10.9678 207.157 11.8276 208.939C12.5472 210.426 13.0911 212.045 12.9167 213.718C12.76 215.227 12.0027 216.519 10.7233 217.342C10.2912 217.619 9.82813 217.84 9.36507 218.062C8.87743 218.295 8.38978 218.528 7.93823 218.826ZM5.39372 220.717C6.18079 219.008 7.45517 218.133 9.10683 217.319C10.0509 216.854 11.0058 216.356 11.5642 215.421C11.9982 214.693 12.1712 213.827 12.1629 212.987C12.1453 211.072 11.1645 209.273 10.2676 207.638C9.28791 205.852 8.20081 204.125 7.01522 202.469C5.95793 200.994 4.8409 199.516 3.5826 198.207C2.4684 197.048 1.14111 196.207 -0.525149 196.449C-2.00403 196.663 -3.32785 197.509 -4.56463 198.299L-4.61512 198.331C-5.54461 198.924 -6.47311 199.517 -7.40163 200.111C-8.02252 200.508 -8.64341 200.906 -9.26459 201.302C-9.55546 201.489 -9.84707 201.674 -10.1387 201.86C-10.6665 202.195 -11.1944 202.531 -11.7184 202.871L-11.7875 202.916C-12.4592 203.351 -13.4481 203.991 -13.1923 204.919C-13.0994 205.255 -12.8654 205.405 -12.614 205.565C-12.5106 205.631 -12.4041 205.699 -12.3034 205.782C-12.0487 205.993 -11.8262 206.249 -11.6424 206.523C-11.2606 207.094 -11.0364 207.762 -10.8856 208.426C-10.8108 208.755 -10.753 209.088 -10.6953 209.42C-10.6068 209.93 -10.5183 210.439 -10.3685 210.935C-10.128 211.73 -9.71144 212.44 -9.22058 213.104C-8.83639 213.624 -8.4116 214.114 -7.98679 214.604C-7.33002 215.362 -6.67323 216.119 -6.16647 216.988C-4.85123 219.244 -5.19988 221.679 -5.54898 224.117C-5.59829 224.461 -5.6476 224.806 -5.69224 225.15C-6.10138 228.31 -5.61035 232.247 -2.50037 233.92C-1.23967 234.598 0.338375 234.83 1.6679 234.211C3.2048 233.497 4.01993 231.834 4.35192 230.251C4.63016 228.922 4.63428 227.576 4.63839 226.234C4.64405 224.387 4.64968 222.547 5.3692 220.768C5.37661 220.75 5.38482 220.733 5.39372 220.717Z" fill="url(#paint0_linear_786_650)"/>
<defs>
<linearGradient id="paint0_linear_786_650" x1="59.9405" y1="42.5433" x2="16.0989" y2="623.38" gradientUnits="userSpaceOnUse">
<stop stop-color="#F3F3F3"/>
<stop offset="0.34086" stop-color="#76A738" stop-opacity="0.2"/>
<stop offset="0.995488" stop-color="#F3F3F3"/>
</linearGradient>
</defs>
</svg>
