<svg width="116" height="646" viewBox="0 0 116 646" fill="none" xmlns="http://www.w3.org/2000/svg">
<path fill-rule="evenodd" clip-rule="evenodd" d="M304.953 247.159C291.316 240.037 280.414 228.96 271.965 216.227C263.925 203.883 258.122 190.232 253.903 176.149C249.323 160.84 246.43 144.468 243.517 127.984C236.4 87.7079 229.165 46.7649 196.899 19.0241C178.393 3.11325 154.285 -2.69502 130.576 2.98087C108.1 8.36155 87.7746 22.6264 74.3681 41.3636C58.795 63.1272 52.7541 90.5748 52.8948 116.989C53.0437 144.703 60.2543 171.052 69.0713 197.1C69.8075 199.275 70.5517 201.453 71.2972 203.636C79.0285 226.268 86.9083 249.335 87.6756 273.401C88.1298 287.641 85.6642 301.593 80.6374 314.915C75.4826 328.576 68.204 341.302 60.798 353.842C60.2842 354.711 59.7696 355.582 59.2548 356.452C45.0145 380.531 30.5991 404.907 28.6759 433.497C28.2209 440.263 28.2649 447.047 28.3089 453.83L28.3089 453.831L28.3089 453.831C28.363 462.166 28.417 470.5 27.545 478.798C25.9518 493.956 21.1196 510.138 8.90972 520.175C4.79901 523.555 1.88785 526.829 0.73666 532.2C-0.36054 537.315 0.280495 542.829 2.27916 547.644C7.34703 559.861 20.7248 566.105 32.1626 570.904C52.753 579.544 73.4182 588.01 94.0827 596.476L94.0828 596.476L94.0846 596.477L94.0864 596.477L94.0883 596.478L94.0901 596.479L94.0919 596.48L94.0937 596.48L94.0955 596.481L94.0973 596.482L94.0991 596.483L94.1009 596.483L94.1028 596.484L94.1046 596.485L94.1064 596.486L94.1082 596.486L94.11 596.487L94.1118 596.488L94.1136 596.489L94.1154 596.489L94.1173 596.49L94.1191 596.491C104.24 600.637 114.361 604.784 124.473 608.95C129.409 610.985 134.343 613.023 139.277 615.061L139.287 615.065C149.528 619.296 159.769 623.527 170.026 627.719C181.442 632.385 192.991 636.806 204.883 640.117C227.572 646.436 252.59 648.52 273.974 636.849C297.305 624.117 311.314 599.343 324.051 576.818L324.054 576.813L324.067 576.79C324.649 575.76 325.229 574.735 325.806 573.716C342.148 544.898 356.794 515.118 369.654 484.586C382.12 454.987 393.379 424.586 401.906 393.6C409.221 367.019 413.332 338.411 404.176 311.737C400.254 300.316 394.016 289.576 385.278 281.165C374.926 271.203 361.579 265.796 348.023 261.714C344.517 260.658 340.978 259.675 337.435 258.69L337.433 258.689C326.332 255.604 315.199 252.51 304.953 247.159ZM271.351 216.727C271.34 216.714 271.33 216.7 271.32 216.684C254.016 190.115 248.637 159.674 243.25 129.189C238.661 103.223 234.067 77.2257 222.094 53.5637C210.258 30.1732 190.785 8.98435 164.304 3.15607C140.913 -1.99326 116.36 5.55798 97.3364 19.4111C51.3127 52.9241 47.2182 115.691 60.4857 166.686C63.6264 178.76 67.6547 190.563 71.683 202.366C75.979 214.953 80.275 227.54 83.494 240.455C86.4551 252.339 88.5043 264.517 88.5259 276.792C88.5495 289.492 86.2168 301.941 81.8719 313.863C76.0721 329.779 67.4422 344.287 58.8099 358.799C52.9003 368.734 46.9896 378.67 41.9851 389.062C35.6711 402.173 31.0348 415.99 29.7032 430.54C28.9877 438.365 29.0352 446.214 29.0828 454.064L29.0828 454.065L29.0828 454.065C29.1249 461.022 29.1671 467.98 28.6778 474.923C27.7253 488.434 24.6021 502.522 16.3022 513.532C14.4956 515.93 12.4516 518.172 10.1813 520.141C9.72678 520.535 9.27295 520.915 8.82455 521.291C6.63481 523.126 4.57474 524.852 3.1997 527.54C0.391319 533.027 0.442329 539.769 2.34301 545.531C6.89367 559.329 21.9508 565.822 34.3026 570.939C44.3353 575.095 54.3783 579.226 64.4212 583.357L64.4236 583.358C69.4419 585.423 74.4601 587.487 79.4769 589.554C89.3828 593.636 99.2864 597.725 109.19 601.813L109.194 601.814L109.197 601.816L109.201 601.817L109.204 601.819L109.208 601.82L109.211 601.822L109.215 601.823L109.218 601.824L109.222 601.826L109.225 601.827L109.229 601.829L109.232 601.83L109.236 601.832L109.239 601.833L109.243 601.834L109.246 601.836L109.265 601.844L109.275 601.848L109.289 601.853C129.377 610.146 149.467 618.439 169.576 626.681C192.081 635.905 216.093 645.074 240.803 644.524C253.128 644.251 265.292 641.2 275.911 634.838C287.542 627.869 296.777 617.625 304.598 606.686C313.263 594.565 320.605 581.465 327.86 568.469C335.75 554.334 343.235 539.973 350.302 525.409C364.354 496.45 376.762 466.694 387.438 436.327L387.919 434.961L387.919 434.961C397.794 406.877 408.168 377.377 408.701 347.341C409.154 321.793 400.948 294.231 380.265 277.823C367.574 267.755 352.235 263.502 336.866 259.24C323.854 255.631 310.821 252.017 299.356 244.863C287.97 237.759 278.739 227.851 271.351 216.727ZM300.391 255.847C287.366 249.044 276.955 238.466 268.886 226.305C261.208 214.514 255.665 201.476 251.634 188.022C247.257 173.396 244.493 157.756 241.71 142.009L241.71 142.008C234.911 103.535 227.999 64.4255 197.176 37.9249C179.497 22.7227 156.462 17.1742 133.81 22.5962C112.336 27.7366 92.9159 41.3647 80.1072 59.2666C65.2287 80.0616 59.4572 106.283 59.5917 131.521C59.7333 157.995 66.6219 183.166 75.0451 208.048C75.7482 210.125 76.4588 212.206 77.1708 214.29C84.5562 235.908 92.0834 257.942 92.8157 280.93C93.2492 294.53 90.8951 307.853 86.0948 320.576C81.1704 333.626 74.2178 345.782 67.1431 357.76C66.9148 358.147 66.6863 358.534 66.4576 358.92L65.6662 360.259C52.0632 383.261 38.2935 406.545 36.4574 433.855C36.0235 440.315 36.0657 446.793 36.1079 453.269L36.1079 453.269L36.1079 453.27C36.1597 461.235 36.2116 469.199 35.3779 477.128C33.8566 491.602 29.2439 507.056 17.5847 516.641C13.6545 519.871 10.8718 523.004 9.77041 528.139C8.72266 533.026 9.33541 538.296 11.2446 542.899C16.0895 554.574 28.8685 560.54 39.7999 565.127C59.4758 573.383 79.2244 581.474 98.9718 589.565L98.9728 589.565C108.644 593.527 118.315 597.489 127.977 601.471C132.558 603.359 137.138 605.251 141.718 607.143L141.723 607.145L141.728 607.147L141.732 607.149L141.737 607.151C151.649 611.246 161.562 615.341 171.49 619.399C182.398 623.857 193.43 628.08 204.791 631.244C226.47 637.283 250.371 639.271 270.802 628.12C293.091 615.955 306.473 592.288 318.642 570.768L318.644 570.764C319.205 569.773 319.762 568.787 320.318 567.806C335.928 540.277 349.918 511.832 362.202 482.667C374.111 454.392 384.867 425.35 393.012 395.749C400.001 370.354 403.928 343.025 395.18 317.542C391.435 306.63 385.473 296.367 377.124 288.331C367.235 278.815 354.484 273.65 341.533 269.75C338.187 268.743 334.809 267.804 331.428 266.864L331.428 266.864C320.82 263.916 310.181 260.959 300.391 255.847ZM268.209 226.714C251.704 201.344 246.569 172.283 241.426 143.181C237.043 118.377 232.654 93.5436 221.217 70.9408C209.915 48.6034 191.317 28.3677 166.029 22.8009C143.689 17.8836 120.241 25.0951 102.073 38.3254C58.1169 70.3322 54.2076 130.282 66.878 178.987C69.8772 190.515 73.7237 201.785 77.5701 213.056C81.6752 225.083 85.7802 237.111 88.8553 249.453C91.6838 260.806 93.6423 272.441 93.663 284.167C93.6843 296.301 91.4559 308.194 87.3056 319.588C81.7659 334.789 73.523 348.647 65.2779 362.508L65.2777 362.508C59.6321 372 53.9855 381.492 49.205 391.42C43.1739 403.942 38.7456 417.139 37.4736 431.037C36.7899 438.512 36.8352 446.01 36.8805 453.508L36.8805 453.509C36.9206 460.155 36.9608 466.801 36.4933 473.432C35.5832 486.341 32.5992 499.8 24.6673 510.321C22.9401 512.612 20.9866 514.755 18.8185 516.636C18.3844 517.013 17.9511 517.376 17.5229 517.735C15.4339 519.486 13.4684 521.133 12.1554 523.697C9.47482 528.933 9.5235 535.37 11.3364 540.87C15.6816 554.045 30.0607 560.244 41.8551 565.13C51.5226 569.135 61.1997 573.116 70.8771 577.097L70.8783 577.098L70.8795 577.098L70.8887 577.102L70.8973 577.106L70.9059 577.109C75.6064 579.043 80.307 580.977 85.0065 582.913C94.4801 586.817 103.951 590.727 113.422 594.637L113.424 594.638C132.633 602.567 151.842 610.497 171.071 618.377C192.565 627.187 215.5 635.944 239.101 635.42C250.87 635.158 262.487 632.246 272.628 626.17C283.736 619.514 292.555 609.731 300.025 599.282C308.302 587.706 315.314 575.193 322.244 562.781C329.78 549.279 336.931 535.561 343.681 521.648C357.105 493.985 368.957 465.563 379.154 436.556L379.615 435.244C389.046 408.423 398.954 380.248 399.462 351.562C399.894 327.162 392.058 300.84 372.305 285.169C360.183 275.554 345.531 271.49 330.852 267.42L330.851 267.419C318.423 263.973 305.974 260.521 295.023 253.688C284.131 246.892 275.302 237.412 268.239 226.767C268.233 226.758 268.227 226.749 268.222 226.74C268.218 226.731 268.213 226.722 268.209 226.714ZM265.808 236.383C273.496 247.971 283.417 258.052 295.828 264.535C305.158 269.407 315.298 272.225 325.408 275.034C328.631 275.93 331.851 276.825 335.041 277.785C347.385 281.501 359.54 286.427 368.967 295.498C376.927 303.16 382.611 312.943 386.183 323.348C394.522 347.64 390.78 373.691 384.119 397.899C376.355 426.113 366.103 453.796 354.751 480.747C343.043 508.544 329.708 535.656 314.83 561.895C314.3 562.83 313.768 563.771 313.233 564.717C301.633 585.231 288.876 607.792 267.628 619.39C248.15 630.021 225.364 628.127 204.697 622.372C193.867 619.357 183.349 615.331 172.952 611.082C163.667 607.287 154.396 603.457 145.124 599.628C140.576 597.749 136.028 595.87 131.478 593.996C122.274 590.203 113.062 586.428 103.849 582.654C85.0217 574.94 66.1938 567.226 47.4344 559.355C37.0108 554.981 24.8271 549.291 20.2073 538.158C18.3854 533.769 17.8011 528.742 18.8007 524.08C19.8508 519.181 22.5059 516.192 26.2561 513.109C37.364 503.977 41.7578 489.251 43.2087 475.461C44.0032 467.905 43.9538 460.315 43.9045 452.725L43.9045 452.724C43.8643 446.55 43.8242 440.375 44.2382 434.217C45.9887 408.184 59.1143 385.989 72.0808 364.063L72.9215 362.641L73.487 361.684C80.2289 350.267 86.8569 338.681 91.551 326.242C96.1261 314.119 98.3694 301.422 97.9559 288.464C97.2573 266.557 90.0852 245.561 83.0477 224.959C82.3685 222.971 81.6906 220.986 81.0198 219.004C72.9905 195.287 66.4245 171.293 66.2902 146.059C66.162 121.998 71.6641 97.0023 85.8486 77.1779C98.0596 60.1113 116.575 47.1184 137.047 42.2184C158.641 37.0494 180.603 42.3406 197.458 56.8321C226.839 82.0937 233.428 119.371 239.909 156.044L239.909 156.044L239.91 156.045L239.91 156.045L239.91 156.045L239.91 156.046L239.91 156.046L239.91 156.046L239.91 156.047L239.91 156.047L239.91 156.047L239.91 156.048L239.91 156.048L239.91 156.048L239.91 156.049L239.91 156.049L239.91 156.049L239.91 156.05L239.91 156.05L239.91 156.05C242.563 171.057 245.197 185.962 249.369 199.901C253.207 212.722 258.49 225.147 265.808 236.383ZM265.162 236.841C265.172 236.855 265.181 236.869 265.191 236.881C271.922 247.014 280.331 256.036 290.701 262.506C301.138 269.017 313.003 272.307 324.848 275.592C338.84 279.472 352.805 283.345 364.358 292.51C383.182 307.444 390.649 332.528 390.236 355.779C389.751 383.114 380.31 409.964 371.323 435.522L370.881 436.779C361.16 464.427 349.864 491.517 337.07 517.884C330.636 531.144 323.821 544.219 316.637 557.089C310.034 568.917 303.351 580.843 295.464 591.876C288.344 601.834 279.94 611.157 269.353 617.501C259.69 623.29 248.62 626.064 237.405 626.313C214.913 626.812 193.057 618.466 172.573 610.071C154.329 602.593 136.105 595.07 117.88 587.547C108.768 583.786 99.6565 580.025 90.5422 576.269C86.0589 574.421 81.5746 572.577 77.0903 570.732C67.8616 566.936 58.6329 563.14 49.4132 559.32C38.177 554.666 24.4743 548.759 20.3346 536.207C18.606 530.97 18.5604 524.84 21.1138 519.854C22.3632 517.414 24.2337 515.846 26.2212 514.181L26.2238 514.178C26.6319 513.836 27.0448 513.49 27.4583 513.132C29.5264 511.337 31.3896 509.294 33.0372 507.109C40.599 497.079 43.4454 484.248 44.3124 471.94C44.7579 465.62 44.7194 459.285 44.6809 452.951C44.6374 445.804 44.594 438.657 45.246 431.531C46.4563 418.287 50.6772 405.711 56.4248 393.776C60.9808 384.315 66.362 375.269 71.7422 366.224C79.6016 353.011 87.4589 339.802 92.7391 325.311C96.6971 314.449 98.8212 303.111 98.8008 291.542C98.7816 280.364 96.9138 269.272 94.2179 258.45C91.2869 246.69 87.375 235.228 83.463 223.766L83.4628 223.765L83.4626 223.765L83.4625 223.765L83.4624 223.764L83.4623 223.764L83.4621 223.764L83.462 223.764L83.4619 223.763L83.4618 223.763L83.4617 223.763L83.4615 223.763L83.4614 223.762L83.4613 223.762L83.4612 223.762L83.4611 223.762L83.4609 223.761L83.4608 223.761L83.4607 223.761L83.4606 223.761C79.7943 213.018 76.1281 202.276 73.2696 191.287C61.1957 144.875 64.9197 87.7418 106.808 57.2411C124.121 44.6356 146.465 37.764 167.753 42.4492C191.849 47.7531 209.57 67.0372 220.34 88.3201C231.241 109.864 235.424 133.533 239.602 157.174C244.508 184.931 249.406 212.649 265.162 236.841ZM291.266 273.221C279.468 267.06 270.038 257.477 262.73 246.462C255.772 235.779 250.75 223.967 247.1 211.779C243.134 198.524 240.628 184.35 238.106 170.08C231.941 135.207 225.676 99.7597 197.736 75.7372C181.705 61.955 160.82 56.9226 140.282 61.8378C120.812 66.4974 103.202 78.8537 91.589 95.085C78.099 113.937 72.865 137.71 72.9875 160.592C73.1161 184.587 79.3592 207.402 86.9941 229.955C87.6317 231.838 88.2762 233.725 88.9218 235.615C95.6134 255.203 102.433 275.166 103.097 295.995C103.49 308.312 101.357 320.382 97.0089 331.905C92.5472 343.732 86.2453 354.749 79.8347 365.603C79.586 366.024 79.3372 366.445 79.0883 366.867L78.5006 367.86C66.1707 388.71 53.688 409.818 52.0228 434.574C51.6295 440.429 51.6677 446.3 51.7059 452.17L51.7059 452.17L51.7059 452.171C51.7529 459.389 51.7999 466.606 51.0448 473.79C49.6679 486.897 45.4929 500.895 34.9343 509.575C31.3647 512.512 28.838 515.355 27.837 520.02C26.8848 524.456 27.4423 529.239 29.1747 533.415C33.5686 544.005 45.1565 549.419 55.0721 553.58C72.8885 561.055 90.7692 568.381 108.65 575.706C117.43 579.304 126.21 582.901 134.982 586.516C139.362 588.32 143.74 590.129 148.118 591.937L148.119 591.938L148.121 591.938L148.122 591.939L148.123 591.939L148.124 591.94L148.125 591.94L148.127 591.941L148.128 591.941L148.129 591.942L148.13 591.942L148.131 591.943L148.133 591.943L148.134 591.944L148.135 591.944L148.136 591.945L148.138 591.945L148.139 591.946L148.14 591.946C156.894 595.562 165.649 599.179 174.417 602.762C184.305 606.805 194.308 610.632 204.606 613.5C224.262 618.974 245.932 620.773 264.457 610.661C284.664 599.631 296.795 578.177 307.827 558.667C308.335 557.769 308.841 556.875 309.344 555.987C323.49 531.037 336.168 505.258 347.301 478.828C358.096 453.2 367.844 426.878 375.226 400.049C381.561 377.029 385.119 352.255 377.188 329.155C373.791 319.259 368.385 309.954 360.814 302.667C351.849 294.039 340.289 289.355 328.55 285.821C325.514 284.906 322.449 284.054 319.381 283.202C309.772 280.531 300.134 277.852 291.266 273.221ZM262.07 246.898C247.1 223.9 242.444 197.554 237.781 171.17C233.808 148.69 229.83 126.183 219.463 105.697C209.227 85.4674 192.382 67.1349 169.477 62.0932C149.241 57.6387 128.002 64.1711 111.543 76.1546C71.7216 105.151 68.1825 159.464 79.6602 203.586C82.3785 214.036 85.8649 224.251 89.3513 234.466C93.0711 245.365 96.7909 256.264 99.5775 267.447C102.142 277.738 103.917 288.285 103.938 298.916C103.958 309.919 101.937 320.704 98.1731 331.035C93.1527 344.812 85.6829 357.37 78.211 369.931L78.2105 369.932L78.2101 369.933C73.094 378.534 67.9768 387.137 63.6444 396.134C58.1798 407.48 54.1689 419.435 53.0167 432.027C52.3969 438.801 52.4381 445.596 52.4792 452.392C52.5156 458.415 52.5521 464.438 52.1284 470.448C51.3031 482.155 48.5957 494.357 41.4026 503.897C39.836 505.976 38.0631 507.919 36.0937 509.626C35.7013 509.966 35.3095 510.295 34.9223 510.619C33.0329 512.202 31.255 513.692 30.0677 516.01C27.6415 520.746 27.6854 526.57 29.3269 531.544C33.2625 543.473 46.2872 549.086 56.966 553.51C65.7421 557.146 74.5273 560.759 83.3123 564.373C87.5662 566.123 91.8201 567.873 96.0729 569.625C104.739 573.196 113.402 576.772 122.066 580.349C139.395 587.502 156.723 594.655 174.069 601.764C193.543 609.745 214.32 617.681 235.701 617.206C246.361 616.969 256.884 614.332 266.069 608.83C276.134 602.8 284.122 593.936 290.891 584.468C298.39 573.979 304.743 562.642 311.02 551.397C317.851 539.16 324.331 526.727 330.448 514.121C342.612 489.051 353.354 463.293 362.596 437.004L363.018 435.802C371.562 411.505 380.536 385.982 380.998 359.996C381.39 337.893 374.294 314.046 356.4 299.852C345.416 291.139 332.139 287.457 318.836 283.768C307.574 280.645 296.294 277.517 286.37 271.327C276.494 265.165 268.487 256.569 262.082 246.917L262.076 246.907L262.07 246.898ZM259.651 256.54C266.58 266.982 275.518 276.067 286.704 281.909C295.117 286.302 304.26 288.843 313.376 291.376C316.282 292.184 319.185 292.99 322.061 293.856C333.194 297.209 344.158 301.651 352.66 309.833C359.842 316.746 364.972 325.572 368.193 334.96C375.714 356.869 372.341 380.364 366.333 402.199C359.332 427.642 350.088 452.605 339.85 476.909C329.294 501.973 317.27 526.418 303.856 550.077C303.379 550.919 302.899 551.767 302.418 552.619C291.955 571.122 280.448 591.471 261.285 601.932C243.713 611.522 223.16 609.82 204.515 604.628C194.747 601.907 185.261 598.277 175.882 594.445C167.446 590.997 159.023 587.518 150.6 584.038L150.578 584.029L150.548 584.017C146.529 582.356 142.509 580.696 138.488 579.038C130.176 575.613 121.856 572.205 113.536 568.796L113.535 568.796C96.5738 561.847 79.6113 554.897 62.7104 547.806C53.3011 543.857 42.31 538.72 38.1411 528.672C36.4961 524.709 35.969 520.169 36.871 515.959C37.8207 511.53 40.2205 508.828 43.6109 506.041C53.6189 497.814 57.5743 484.544 58.8794 472.121C59.5953 465.308 59.551 458.466 59.5067 451.623C59.4706 446.055 59.4346 440.486 59.808 434.932C61.3861 411.455 73.2235 391.438 84.9158 371.667L84.9606 371.591L85.0243 371.484L85.541 370.61L86.1829 369.523C92.2628 359.229 98.238 348.783 102.469 337.567C106.591 326.644 108.613 315.202 108.241 303.526C107.611 283.775 101.146 264.846 94.8014 246.272L94.7984 246.264C94.1873 244.475 93.5774 242.689 92.9739 240.906C85.7342 219.518 79.8117 197.881 79.6911 175.125C79.5748 153.42 84.5394 130.873 97.3341 112.99C108.35 97.5931 125.053 85.875 143.522 81.4557C163.003 76.7942 182.814 81.5685 198.02 94.6413C224.518 117.423 230.46 151.037 236.306 184.108C238.698 197.641 241.075 211.084 244.837 223.655C248.294 235.211 253.055 246.412 259.651 256.54ZM259.005 256.998C259.014 257.01 259.022 257.022 259.031 257.033C265.103 266.176 272.692 274.316 282.049 280.153C291.457 286.022 302.153 288.987 312.831 291.948C325.446 295.446 338.037 298.937 348.452 307.2C365.416 320.659 372.142 343.267 371.771 364.22C371.333 388.855 362.825 413.053 354.726 436.087L354.322 437.234C345.558 462.161 335.372 486.588 323.837 510.361C318.036 522.317 311.892 534.105 305.414 545.709C299.462 556.372 293.438 567.121 286.328 577.066C279.912 586.042 272.337 594.445 262.794 600.163C254.087 605.38 244.112 607.878 234.007 608.103C213.736 608.553 194.035 601.029 175.572 593.462C158.951 586.649 142.347 579.795 125.743 572.941L125.742 572.94L125.734 572.937L125.725 572.933L125.717 572.93L125.708 572.926L125.699 572.923L125.691 572.919L125.682 572.916L125.674 572.912L125.665 572.908L125.656 572.905L125.648 572.901L125.639 572.898L125.63 572.894L125.622 572.891L125.613 572.887C117.612 569.584 109.612 566.282 101.61 562.984C97.4086 561.253 93.2065 559.524 89.0045 557.795L88.9969 557.792L88.9745 557.783L88.9641 557.778C80.8151 554.426 72.6664 551.074 64.5258 547.701C54.4037 543.509 42.0564 538.192 38.3269 526.884C36.7724 522.17 36.731 516.655 39.0285 512.168C40.1521 509.974 41.8351 508.564 43.623 507.066L43.6242 507.065C43.9917 506.757 44.3636 506.445 44.7361 506.122C46.6033 504.503 48.2863 502.657 49.7735 500.684C56.595 491.635 59.1654 480.06 59.9484 468.956C60.3504 463.256 60.3157 457.542 60.2811 451.829C60.242 445.387 60.203 438.945 60.7901 432.522C61.882 420.583 65.6862 409.248 70.8666 398.49C74.9747 389.96 79.8268 381.802 84.6781 373.646C91.764 361.733 98.848 349.824 103.609 336.759C107.18 326.96 109.097 316.73 109.078 306.292C109.059 296.208 107.375 286.205 104.943 276.445C102.3 265.843 98.7734 255.51 95.2465 245.177C91.9395 235.488 88.6325 225.799 86.0542 215.887C75.1729 174.057 78.5268 122.561 116.281 95.0709C131.884 83.7103 152.018 77.5176 171.203 81.74C192.915 86.5189 208.885 103.898 218.588 123.075C228.261 142.193 231.96 163.398 235.613 184.341L235.613 184.341L235.616 184.359C236.013 186.637 236.41 188.912 236.814 191.181C240.899 214.129 246.111 237.198 259.005 256.998ZM282.14 290.596C271.569 285.075 263.12 276.488 256.572 266.619C250.337 257.044 245.836 246.456 242.564 235.534C239.007 223.647 236.76 210.938 234.497 198.143L234.497 198.142C228.969 166.873 223.35 135.09 198.294 113.548C183.914 101.184 165.177 96.6691 146.752 101.077C129.285 105.255 113.487 116.336 103.068 130.899C90.9675 147.81 86.2723 169.132 86.3823 189.66C86.4971 211.176 92.0961 231.635 98.942 251.857C99.5124 253.542 100.089 255.23 100.667 256.92C106.666 274.482 112.781 292.38 113.376 311.056C113.729 322.091 111.818 332.906 107.922 343.23C103.921 353.834 98.271 363.709 92.5237 373.442C92.1254 374.117 91.7265 374.791 91.3274 375.466C80.2716 394.162 69.0784 413.089 67.5858 435.288C67.233 440.539 67.2671 445.804 67.3012 451.069C67.3432 457.539 67.3851 464.008 66.7086 470.449C65.474 482.189 61.738 494.729 52.2807 502.505C49.0702 505.144 46.7995 507.703 45.8997 511.896C45.0464 515.879 45.5466 520.176 47.1022 523.927C51.0481 533.433 61.4419 538.293 70.3433 542.029C86.3022 548.724 102.319 555.287 118.336 561.849L118.346 561.853C126.229 565.082 134.113 568.312 141.988 571.558C145.857 573.152 149.724 574.749 153.591 576.347C161.505 579.616 169.418 582.885 177.344 586.124C186.212 589.749 195.183 593.181 204.421 595.754C222.055 600.665 241.492 602.273 258.11 593.202C276.234 583.308 287.115 564.065 297.009 546.566L297.012 546.561C297.466 545.759 297.918 544.96 298.368 544.165C311.051 521.798 322.418 498.684 332.399 474.988C342.077 452.008 350.818 428.404 357.438 404.348C363.121 383.702 366.308 361.484 359.196 340.766C356.147 331.887 351.295 323.539 344.502 317.001C336.463 309.264 326.096 305.063 315.568 301.893C312.845 301.073 310.097 300.309 307.346 299.544C298.731 297.15 290.091 294.748 282.14 290.596ZM255.909 267.049C243.728 248.33 238.803 226.528 234.942 204.838C234.558 202.684 234.181 200.523 233.804 198.359C230.351 178.564 226.854 158.522 217.711 140.452C208.541 122.329 193.447 105.902 172.927 101.385C154.793 97.3938 135.764 103.247 121.017 113.985C85.3303 139.969 82.1601 188.648 92.4464 228.186C94.8837 237.556 98.01 246.716 101.136 255.876C104.471 265.646 107.805 275.416 110.304 285.441C112.604 294.671 114.197 304.131 114.215 313.665C114.233 323.538 112.421 333.212 109.043 342.483C104.541 354.836 97.8428 366.097 91.1425 377.36C86.5561 385.07 81.9689 392.782 78.0849 400.846C73.1867 411.016 69.5913 421.73 68.5589 433.017C68.0036 439.09 68.0404 445.181 68.0772 451.272C68.1099 456.673 68.1425 462.074 67.7624 467.464C67.0211 477.966 64.5898 488.913 58.1384 497.472C56.7308 499.338 55.1396 501.085 53.371 502.617C53.0203 502.921 52.67 503.214 52.324 503.504C50.634 504.919 49.0435 506.251 47.982 508.324C45.8116 512.561 45.8513 517.77 47.3187 522.22C50.8426 532.905 62.5141 537.929 72.0768 541.891C79.7718 545.078 87.4749 548.247 95.178 551.416L95.1814 551.418C99.1674 553.058 103.153 554.697 107.138 556.34C114.739 559.472 122.338 562.609 129.936 565.746C145.641 572.228 161.346 578.711 177.068 585.155C194.52 592.307 213.143 599.422 232.304 598.996C241.854 598.784 251.283 596.424 259.51 591.493C268.532 586.088 275.69 578.145 281.757 569.66C288.478 560.259 294.173 550.098 299.799 540.019C305.924 529.048 311.734 517.902 317.218 506.598C328.124 484.121 337.755 461.027 346.04 437.459L346.415 436.394C354.074 414.614 362.121 391.733 362.535 368.439C362.888 348.633 356.531 327.264 340.495 314.543C330.65 306.732 318.747 303.432 306.82 300.125L306.82 300.125C296.725 297.326 286.613 294.522 277.719 288.974C268.857 283.447 261.672 275.736 255.926 267.076C255.92 267.067 255.914 267.058 255.909 267.049ZM253.495 276.697C259.663 285.993 267.621 294.085 277.578 299.284C285.067 303.196 293.206 305.458 301.322 307.713L301.326 307.714L301.329 307.715C303.921 308.436 306.512 309.155 309.078 309.928C319.001 312.917 328.771 316.876 336.349 324.17C342.752 330.333 347.328 338.202 350.201 346.573C356.904 366.099 353.902 387.039 348.547 406.499C342.309 429.17 334.072 451.413 324.95 473.07C315.546 495.4 304.832 517.179 292.883 538.255C292.459 539.004 292.034 539.756 291.606 540.513L291.604 540.517C282.278 557.009 272.022 575.146 254.94 584.471C239.275 593.023 220.955 591.51 204.331 586.88C195.625 584.456 187.17 581.22 178.812 577.804C171.22 574.701 163.64 571.569 156.06 568.438L156.052 568.435L156.045 568.432C152.529 566.98 149.013 565.527 145.496 564.078C138.075 561.02 130.648 557.977 123.22 554.933L123.219 554.933L123.219 554.933L123.219 554.933L123.218 554.933L123.218 554.933L123.217 554.932L123.217 554.932L123.216 554.932L123.216 554.932L123.216 554.932L123.215 554.931L123.215 554.931L123.214 554.931L123.214 554.931L123.214 554.931C108.119 548.747 93.0246 542.562 77.984 536.252C69.5905 532.729 59.792 528.146 56.0726 519.182C54.6043 515.645 54.1331 511.59 54.939 507.834C55.7876 503.876 57.9312 501.46 60.9612 498.969C69.8678 491.646 73.3843 479.835 74.5471 468.778C75.1853 462.709 75.1456 456.612 75.106 450.515C75.0737 445.555 75.0414 440.593 75.3742 435.646C76.7818 414.718 87.3356 396.874 97.7592 379.249C98.1315 378.62 98.5036 377.991 98.8752 377.362C104.291 368.191 109.616 358.885 113.386 348.892C117.055 339.167 118.855 328.981 118.524 318.586C117.964 300.995 112.205 284.136 106.554 267.593L106.551 267.587C106.006 265.991 105.463 264.399 104.924 262.809C98.4729 243.751 93.196 224.47 93.0884 204.194C92.9855 184.845 97.4105 164.747 108.817 148.804C118.637 135.077 133.53 124.631 149.995 120.695C167.364 116.541 185.025 120.796 198.581 132.452C222.197 152.756 227.492 182.708 232.703 212.178C234.834 224.234 236.952 236.21 240.303 247.411C243.379 257.702 247.62 267.676 253.495 276.697ZM233.07 218.497C236.709 238.934 241.35 259.478 252.825 277.117L252.831 277.128L252.835 277.134C252.838 277.141 252.842 277.147 252.846 277.153C258.263 285.317 265.036 292.589 273.391 297.796C281.77 303.019 291.295 305.66 300.803 308.297L300.804 308.297C312.044 311.414 323.262 314.525 332.54 321.886C347.646 333.871 353.632 354 353.3 372.658C352.909 394.603 345.328 416.158 338.113 436.675L337.758 437.686C329.95 459.896 320.876 481.658 310.598 502.837C305.43 513.488 299.955 523.992 294.185 534.329C288.884 543.825 283.518 553.399 277.187 562.256C271.472 570.251 264.727 577.735 256.228 582.827C248.478 587.47 239.596 589.691 230.602 589.891C212.549 590.292 195.004 583.589 178.563 576.85C163.83 570.812 149.113 564.737 134.396 558.662L134.39 558.659L134.389 558.659L134.384 558.657L134.382 558.656L134.377 558.654L134.375 558.653L134.37 558.651L134.368 558.65L134.363 558.648L134.361 558.647L134.341 558.639L134.321 558.631L134.3 558.622C127.09 555.646 119.88 552.67 112.669 549.698C109.182 548.261 105.694 546.827 102.207 545.392L102.187 545.384L102.166 545.375C94.651 542.284 87.1366 539.193 79.6293 536.083C70.6233 532.352 59.6298 527.622 56.3114 517.56C54.9311 513.373 54.8937 508.47 56.9362 504.484C57.9341 502.535 59.4297 501.283 61.0182 499.953L61.0199 499.951C61.3461 499.678 61.6762 499.402 62.0067 499.115C63.6745 497.671 65.1769 496.025 66.5035 494.264C72.587 486.195 74.8812 475.876 75.5787 465.975C75.937 460.896 75.9061 455.805 75.8752 450.715C75.8403 444.976 75.8055 439.237 76.3286 433.515C77.3007 422.882 80.6896 412.788 85.3035 403.207C88.9632 395.607 93.2862 388.34 97.6084 381.074L97.6086 381.073L97.6088 381.073L97.6089 381.073L97.609 381.073L97.6091 381.072L97.6092 381.072L97.6093 381.072L97.6094 381.072L97.6095 381.072L97.6096 381.071L97.6097 381.071L97.6098 381.071L97.6099 381.071L97.61 381.07L97.6101 381.07L97.6102 381.07C103.923 370.458 110.234 359.849 114.475 348.21C117.659 339.472 119.366 330.351 119.35 321.043C119.334 312.057 117.832 303.141 115.664 294.442C113.309 284.992 110.166 275.783 107.023 266.573L107.023 266.573L107.023 266.572L107.023 266.572L107.023 266.571L107.023 266.571L107.022 266.571L107.022 266.57L107.022 266.57L107.022 266.57L107.022 266.569L107.022 266.569L107.022 266.568L107.022 266.568L107.022 266.568L107.021 266.567C104.077 257.94 101.133 249.314 98.8373 240.489C89.1466 203.241 92.1324 157.381 125.75 132.902C139.644 122.786 157.569 117.272 174.65 121.032C193.977 125.286 208.196 140.76 216.833 157.831C225.452 174.862 228.747 193.752 232.001 212.409C232.356 214.442 232.71 216.472 233.07 218.497ZM273.015 307.972C263.671 303.092 256.204 295.5 250.415 286.775C244.902 278.309 240.922 268.946 238.033 259.282C234.886 248.765 232.898 237.521 230.896 226.202C226.004 198.535 221.032 170.416 198.858 151.352C186.128 140.406 169.54 136.408 153.23 140.308C137.768 144.005 123.779 153.814 114.556 166.705C103.844 181.678 99.6883 200.55 99.7849 218.722C99.8867 237.759 104.842 255.862 110.899 273.755C111.403 275.243 111.912 276.733 112.422 278.226L112.426 278.237L112.426 278.238C117.732 293.769 123.139 309.596 123.665 326.112C123.978 335.866 122.287 345.426 118.844 354.551C115.304 363.932 110.308 372.669 105.223 381.278C104.873 381.87 104.523 382.462 104.173 383.054C94.3868 399.601 84.4788 416.354 83.1582 436.001C82.8457 440.647 82.8758 445.305 82.9059 449.962L82.9059 449.963C82.9429 455.686 82.9799 461.408 82.3811 467.105C81.2908 477.477 77.9925 488.562 69.6373 495.432C66.7872 497.775 64.7712 500.048 63.974 503.77C63.2168 507.3 63.6605 511.113 65.0399 514.436C68.5342 522.858 77.7355 527.166 85.6226 530.476C99.7503 536.404 113.929 542.213 128.107 548.022C135.074 550.876 142.041 553.731 149.002 556.599C152.346 557.977 155.688 559.358 159.031 560.739L159.037 560.742L159.043 560.744L159.049 560.746L159.055 560.749L159.061 560.751L159.067 560.754L159.073 560.756L159.078 560.759C166.141 563.676 173.203 566.594 180.277 569.485C188.127 572.693 196.067 575.73 204.242 578.007C219.853 582.355 237.06 583.773 251.77 575.741C267.81 566.984 277.439 549.954 286.197 534.466L286.203 534.454L286.213 534.437C286.609 533.736 287.004 533.038 287.397 532.345C298.615 512.558 308.671 492.113 317.501 471.15C326.065 450.819 333.797 429.933 339.655 408.649C344.683 390.377 347.501 370.715 341.206 352.38C338.506 344.516 334.21 337.127 328.194 331.337C321.079 324.49 311.905 320.771 302.587 317.965C300.177 317.24 297.745 316.564 295.31 315.887C287.69 313.769 280.048 311.645 273.015 307.972ZM249.796 287.268L249.789 287.259C249.785 287.255 249.782 287.25 249.778 287.245L249.77 287.233C238.978 270.663 234.616 251.359 231.198 232.155C230.859 230.25 230.525 228.339 230.192 226.426C227.138 208.918 224.046 191.192 215.958 175.209C207.852 159.192 194.51 144.67 176.377 140.678C160.346 137.15 143.527 142.323 130.488 151.817C98.9379 174.79 96.1373 217.833 105.232 252.789C107.388 261.077 110.153 269.18 112.919 277.283C115.869 285.926 118.819 294.57 121.029 303.438C123.064 311.606 124.476 319.978 124.491 328.416C124.506 337.159 122.903 345.725 119.912 353.932C115.93 364.86 110.004 374.821 104.077 384.786C100.02 391.606 95.9617 398.428 92.5259 405.562C88.1949 414.555 85.0162 424.028 84.1037 434.009C83.6123 439.381 83.6449 444.769 83.6776 450.157C83.7065 454.935 83.7355 459.714 83.399 464.482C82.7432 473.781 80.588 483.472 74.8747 491.051C73.6269 492.707 72.2126 494.247 70.6493 495.61C70.3256 495.892 70.002 496.163 69.6826 496.431C68.2106 497.666 66.8247 498.829 65.8973 500.64C63.9835 504.377 64.0163 508.973 65.3117 512.899C68.4246 522.338 78.7415 526.774 87.1901 530.275C94.0736 533.127 100.964 535.961 107.854 538.796L107.862 538.799L107.87 538.802C111.316 540.22 114.762 541.637 118.207 543.057C124.994 545.854 131.779 548.655 138.565 551.456C152.395 557.165 166.224 562.874 180.068 568.547C195.499 574.871 211.965 581.165 228.907 580.788C237.347 580.601 245.68 578.517 252.952 574.16C260.929 569.38 267.26 562.356 272.624 554.853C278.568 546.54 283.603 537.554 288.578 528.642C293.995 518.937 299.135 509.077 303.987 499.078C313.635 479.195 322.155 458.765 329.484 437.916L329.821 436.959C336.592 417.705 343.706 397.476 344.073 376.882C344.385 359.373 338.77 340.481 324.592 329.234C315.883 322.325 305.352 319.405 294.801 316.478C285.875 314.003 276.935 311.523 269.07 306.621C261.234 301.738 254.88 294.921 249.796 287.268ZM247.337 296.854C252.745 305.004 259.722 312.1 268.452 316.659C275.025 320.092 282.168 322.077 289.29 324.057C291.567 324.689 293.842 325.322 296.095 326C304.806 328.624 313.385 332.101 320.037 338.504C325.664 343.919 329.683 350.83 332.208 358.185C338.093 375.329 335.46 393.713 330.758 410.799C325.282 430.698 318.053 450.223 310.047 469.231C301.794 488.826 292.393 507.939 281.906 526.436C281.534 527.092 281.161 527.753 280.785 528.416C272.597 542.898 263.592 558.823 248.593 567.013C234.836 574.525 218.745 573.202 204.145 569.136C196.5 567.007 189.076 564.167 181.738 561.167C175.175 558.484 168.622 555.777 162.069 553.07L162.047 553.061C158.866 551.747 155.684 550.432 152.501 549.121C145.982 546.434 139.456 543.761 132.931 541.087L132.926 541.085L132.922 541.084L132.918 541.082L132.914 541.081L132.91 541.079L132.906 541.077L132.902 541.076L132.902 541.075L132.901 541.075L132.901 541.075L132.9 541.075L132.9 541.075L132.9 541.074L132.899 541.074L132.899 541.074L132.898 541.074L132.898 541.074L132.898 541.074L132.897 541.073L132.897 541.073C119.667 535.653 106.437 530.233 93.2558 524.703C85.8759 521.607 77.2706 517.575 74.0014 509.694C72.7099 506.583 72.2961 503.015 73.0044 499.711C73.7525 496.224 75.6393 494.094 78.3089 491.9C86.1134 485.482 89.1922 475.126 90.2121 465.437C90.7718 460.111 90.7371 454.762 90.7024 449.411L90.7024 449.41C90.6742 445.057 90.6459 440.704 90.9377 436.362C92.1728 417.992 101.437 402.328 110.587 386.857L110.612 386.814L110.657 386.737C110.96 386.225 111.263 385.713 111.566 385.201C116.319 377.154 120.99 368.984 124.298 360.217C127.516 351.692 129.094 342.759 128.804 333.647C128.312 318.213 123.259 303.421 118.3 288.906C117.822 287.505 117.344 286.106 116.871 284.71C111.209 267.983 106.576 251.057 106.481 233.258C106.39 216.264 110.277 198.617 120.295 184.615C128.92 172.559 142.003 163.387 156.464 159.931C171.717 156.283 187.23 160.022 199.137 170.259C219.87 188.084 224.519 214.372 229.093 240.24C230.964 250.82 232.823 261.331 235.765 271.163C238.465 280.191 242.184 288.94 247.337 296.854ZM229.326 245.812C232.522 263.762 236.598 281.804 246.68 297.293C246.684 297.3 246.688 297.307 246.693 297.313C251.451 304.485 257.402 310.872 264.742 315.445C272.093 320.026 280.45 322.344 288.793 324.658C298.655 327.393 308.497 330.123 316.637 336.58C329.883 347.089 335.129 364.742 334.838 381.103C334.494 400.347 327.847 419.251 321.519 437.243L321.203 438.144C314.35 457.635 306.386 476.732 297.368 495.318C292.832 504.666 288.028 513.883 282.964 522.955C278.315 531.286 273.61 539.683 268.055 547.452C263.042 554.464 257.127 561.027 249.671 565.494C242.877 569.566 235.092 571.511 227.206 571.686C211.373 572.037 195.985 566.157 181.565 560.246C168.707 554.976 155.863 549.674 143.018 544.372L143.011 544.369C136.588 541.717 130.164 539.065 123.738 536.418C120.528 535.095 117.317 533.774 114.106 532.453L114.104 532.452L114.101 532.451L114.098 532.449L114.095 532.448L114.093 532.447L114.09 532.446L114.087 532.445L114.085 532.444L114.082 532.443L114.079 532.442L114.077 532.441L114.074 532.439L114.071 532.438C107.627 529.787 101.182 527.136 94.7443 524.469C86.8524 521.2 77.2149 517.058 74.3061 508.241C73.0979 504.579 73.0666 500.29 74.8533 496.803C75.7186 495.112 77.012 494.028 78.3859 492.876C78.6836 492.626 78.985 492.374 79.2867 492.111C80.7514 490.835 82.0738 489.394 83.2421 487.845C88.5867 480.757 90.6036 471.693 91.217 462.996C91.5307 458.541 91.5036 454.077 91.4765 449.613L91.4765 449.613C91.4459 444.573 91.4153 439.534 91.8751 434.51C92.728 425.182 95.6994 416.33 99.7468 407.924C102.959 401.254 106.753 394.876 110.546 388.5L110.546 388.499C116.086 379.186 121.625 369.875 125.346 359.661C128.143 351.982 129.644 343.972 129.629 335.795C129.614 327.904 128.295 320.076 126.39 312.437C124.325 304.145 121.566 296.063 118.808 287.98C116.223 280.409 113.639 272.837 111.624 265.091C103.126 232.424 105.742 192.2 135.225 170.733C147.408 161.862 163.124 157.027 178.102 160.324C195.044 164.053 207.509 177.623 215.082 192.586C222.644 207.531 225.535 224.108 228.39 240.48C228.7 242.261 229.011 244.039 229.326 245.812ZM263.889 325.347C255.772 321.108 249.287 314.511 244.259 306.932C239.466 299.573 236.008 291.435 233.493 283.041C230.756 273.893 229.026 264.114 227.285 254.271C223.028 230.206 218.702 205.75 199.412 189.165C188.332 179.638 173.893 176.158 159.696 179.551C146.237 182.769 134.061 191.305 126.032 202.525C116.709 215.557 113.092 231.977 113.176 247.795C113.265 264.352 117.576 280.1 122.844 295.663C123.284 296.964 123.729 298.268 124.175 299.573C128.785 313.071 133.483 326.826 133.942 341.179C134.212 349.651 132.744 357.956 129.754 365.882C126.676 374.037 122.33 381.635 117.908 389.123C117.606 389.634 117.304 390.146 117.001 390.658C108.487 405.054 99.8673 419.629 98.7177 436.721C98.4458 440.761 98.472 444.812 98.4982 448.862L98.4982 448.863C98.5304 453.839 98.5626 458.814 98.042 463.768C97.0955 472.774 94.2348 482.4 86.9809 488.367C84.4913 490.413 82.7321 492.399 82.0352 495.651C81.375 498.73 81.762 502.055 82.9646 504.952C86.0094 512.29 94.016 516.045 100.889 518.928C113.16 524.076 125.475 529.122 137.79 534.167C143.862 536.656 149.935 539.143 156.002 541.644C158.967 542.865 161.931 544.09 164.896 545.314L164.899 545.316L164.902 545.317L164.905 545.318L164.907 545.319L164.91 545.32L164.913 545.322L164.916 545.323L164.919 545.324L164.922 545.325L164.925 545.326L164.928 545.328L164.931 545.329C171.017 547.843 177.103 550.357 183.199 552.848C190.029 555.639 196.937 558.281 204.051 560.262C217.641 564.047 232.615 565.276 245.418 558.283C259.376 550.662 267.755 535.843 275.375 522.368C275.59 521.988 275.804 521.61 276.017 521.233C276.151 520.997 276.284 520.761 276.417 520.526C286.173 503.32 294.917 485.541 302.595 467.312C310.044 449.626 316.769 431.462 321.864 412.948C326.239 397.05 328.686 379.944 323.211 363.992C320.862 357.145 317.119 350.712 311.882 345.672C305.693 339.714 297.71 336.478 289.604 334.036C287.508 333.405 285.392 332.817 283.275 332.228L283.274 332.228L283.274 332.228L283.273 332.228L283.273 332.228L283.272 332.227L283.272 332.227L283.271 332.227L283.271 332.227L283.27 332.227L283.27 332.227L283.269 332.227L283.269 332.227C276.645 330.386 270.002 328.54 263.889 325.347ZM243.636 307.422C243.629 307.412 243.621 307.401 243.613 307.39C234.225 292.973 230.429 276.179 227.454 259.471C227.159 257.817 226.87 256.159 226.58 254.499L226.58 254.498C223.925 239.275 221.236 223.862 214.204 209.964C207.165 196.053 195.575 183.436 179.826 179.969C165.9 176.904 151.288 181.4 139.961 189.647C112.546 209.609 110.115 247.016 118.016 277.39C119.891 284.598 122.296 291.645 124.701 298.691L124.701 298.691L124.701 298.691L124.701 298.691L124.701 298.692L124.701 298.692L124.701 298.692L124.702 298.692L124.702 298.693L124.702 298.693L124.702 298.693L124.702 298.694L124.702 298.694L124.702 298.694C127.267 306.209 129.832 313.723 131.754 321.433C133.525 328.541 134.754 335.826 134.768 343.167C134.782 350.78 133.385 358.236 130.781 365.382C127.318 374.884 122.166 383.547 117.012 392.211C113.484 398.142 109.955 404.075 106.967 410.279C103.203 418.096 100.439 426.328 99.6467 435.003C99.2201 439.672 99.2483 444.355 99.2766 449.039L99.2766 449.04C99.3016 453.197 99.3267 457.353 99.0338 461.501C98.4635 469.597 96.5829 478.032 91.6098 484.63C90.521 486.073 89.2883 487.416 87.9258 488.604C87.6443 488.85 87.3629 489.086 87.085 489.319C85.8118 490.386 84.6124 491.392 83.8109 492.958C82.1514 496.195 82.1816 500.176 83.3034 503.577C86.0061 511.772 94.9677 515.62 102.301 518.658C108.29 521.14 114.284 523.605 120.279 526.071C123.276 527.304 126.274 528.537 129.271 529.772C135.253 532.236 141.232 534.705 147.212 537.173C159.159 542.105 171.105 547.036 183.065 551.938C196.473 557.433 210.786 562.904 225.508 562.577C232.838 562.413 240.078 560.606 246.394 556.822C253.328 552.668 258.828 546.563 263.49 540.042C268.655 532.817 273.032 525.007 277.355 517.26C282.066 508.82 286.535 500.246 290.754 491.552C299.144 474.262 306.553 456.497 312.925 438.367L313.223 437.52C319.105 420.791 325.286 403.213 325.607 385.32C325.879 370.107 321.002 353.693 308.685 343.921C301.114 337.915 291.959 335.376 282.785 332.832C275.025 330.681 267.252 328.525 260.415 324.264C253.594 320.015 248.062 314.083 243.636 307.422ZM241.18 317.01C245.828 324.015 251.822 330.115 259.327 334.035C264.982 336.988 271.127 338.696 277.254 340.399L277.257 340.4C279.216 340.945 281.174 341.489 283.113 342.073C290.614 344.333 298.001 347.327 303.729 352.84C308.576 357.506 312.042 363.46 314.218 369.798C319.286 384.558 317.022 400.387 312.973 415.097C308.26 432.224 302.038 449.031 295.148 465.391C288.047 482.253 279.958 498.699 270.934 514.614C270.616 515.174 270.298 515.736 269.979 516.302L269.974 516.309C262.922 528.782 255.166 542.497 242.249 549.552C230.398 556.024 216.541 554.89 203.963 551.387C197.379 549.554 190.986 547.109 184.667 544.526C179.07 542.239 173.482 539.93 167.893 537.622L167.873 537.613C165.085 536.462 162.298 535.311 159.509 534.162C153.9 531.85 148.285 529.55 142.671 527.249L142.67 527.249C131.277 522.581 119.883 517.913 108.53 513.149C102.164 510.479 94.7527 507 91.9329 500.205C90.8183 497.519 90.4597 494.438 91.0725 491.586C91.7196 488.57 93.3511 486.728 95.6594 484.829C102.364 479.315 105.004 470.415 105.878 462.094C106.36 457.511 106.33 452.907 106.3 448.303C106.276 444.558 106.252 440.812 106.503 437.075C107.565 421.263 115.54 407.779 123.415 394.462L123.914 393.618L124.257 393.039C128.346 386.113 132.367 379.085 135.214 371.54C137.978 364.213 139.336 356.537 139.086 348.706C138.663 335.431 134.317 322.71 130.053 310.225C129.641 309.018 129.229 307.813 128.822 306.61C123.948 292.212 119.959 277.642 119.878 262.323C119.8 247.684 123.148 232.488 131.777 220.425C139.208 210.04 150.48 202.141 162.937 199.164C176.076 196.026 189.441 199.246 199.697 208.064C217.545 223.409 221.548 246.032 225.487 268.296C227.098 277.402 228.699 286.449 231.232 294.912C233.553 302.68 236.748 310.206 241.18 317.01ZM225.582 273.129C228.332 288.57 231.839 304.092 240.504 317.421C240.512 317.437 240.521 317.453 240.531 317.468C244.631 323.646 249.759 329.149 256.084 333.088C262.408 337.028 269.597 339.022 276.773 341.012C285.258 343.365 293.725 345.713 300.727 351.267C312.116 360.299 316.621 375.476 316.369 389.54C316.073 406.082 310.358 422.335 304.92 437.801L304.641 438.594C298.745 455.364 291.892 471.797 284.131 487.79C280.229 495.834 276.095 503.765 271.737 511.571C267.739 518.734 263.693 525.956 258.916 532.637C254.605 538.668 249.519 544.312 243.107 548.154C237.268 551.652 230.577 553.321 223.802 553.472C210.189 553.774 196.954 548.714 184.557 543.632C173.581 539.133 162.615 534.606 151.649 530.08L151.641 530.077C146.027 527.759 140.414 525.442 134.799 523.128C132.125 522.027 129.451 520.927 126.777 519.827L126.755 519.817L126.754 519.817C121.118 517.498 115.482 515.18 109.851 512.847C103.076 510.041 94.7913 506.486 92.294 498.914C91.26 495.776 91.2322 492.1 92.7638 489.114C93.5042 487.67 94.6108 486.743 95.7855 485.758L95.7857 485.758L95.7859 485.758L95.786 485.758L95.7861 485.757C96.0424 485.543 96.302 485.325 96.5616 485.099C97.8248 483.999 98.9672 482.756 99.975 481.419C104.579 475.312 106.321 467.506 106.85 460.01C107.12 456.176 107.096 452.333 107.073 448.49C107.047 444.155 107.021 439.821 107.416 435.499C108.15 427.477 110.705 419.866 114.185 412.638C116.949 406.898 120.214 401.409 123.478 395.922L123.478 395.922C128.245 387.908 133.011 379.896 136.213 371.108C138.623 364.492 139.916 357.59 139.902 350.544C139.89 343.748 138.751 337.01 137.113 330.432C135.335 323.297 132.962 316.343 130.589 309.389C128.365 302.873 126.141 296.357 124.407 289.691C117.1 261.609 119.347 227.02 144.695 208.564C155.167 200.937 168.672 196.782 181.549 199.616C196.107 202.821 206.821 214.485 213.327 227.342C219.835 240.201 222.321 254.462 224.778 268.548L224.778 268.553L224.779 268.558L224.78 268.563L224.781 268.568L224.782 268.573L224.783 268.578L224.784 268.583L224.784 268.588L224.785 268.593C225.05 270.107 225.313 271.62 225.582 273.129ZM254.764 342.721C247.873 339.123 242.369 333.522 238.101 327.089C234.031 320.837 231.095 313.926 228.958 306.794C226.631 299.016 225.16 290.704 223.679 282.337C220.058 261.873 216.379 241.08 199.971 226.973C190.54 218.865 178.251 215.903 166.168 218.787C154.714 221.523 144.347 228.787 137.514 238.336C129.578 249.428 126.499 263.399 126.572 276.861C126.647 290.94 130.312 304.331 134.792 317.564C135.166 318.669 135.544 319.776 135.923 320.885C139.841 332.354 143.834 344.042 144.222 356.238C144.452 363.428 143.206 370.479 140.667 377.205C138.052 384.138 134.358 390.597 130.6 396.96L130.353 397.378L129.829 398.263C122.59 410.505 115.26 422.9 114.283 437.435C114.052 440.868 114.074 444.31 114.096 447.751C114.124 451.982 114.152 456.213 113.708 460.424C112.906 468.063 110.485 476.234 104.332 481.295C102.204 483.045 100.699 484.746 100.104 487.526C99.5409 490.152 99.8705 492.991 100.896 495.462C103.492 501.715 110.307 504.918 116.165 507.375C126.575 511.743 137.022 516.024 147.47 520.304L147.475 520.306L147.479 520.308L147.484 520.31L147.489 520.311L147.494 520.313L147.498 520.315L147.503 520.317L147.508 520.319C152.678 522.437 157.847 524.555 163.012 526.684C165.452 527.689 167.891 528.697 170.331 529.704L170.339 529.708L170.348 529.712L170.351 529.713L170.354 529.714L170.357 529.716C175.612 531.886 180.867 534.056 186.13 536.208C191.94 538.581 197.819 540.829 203.87 542.515C215.438 545.737 228.179 546.774 239.076 540.822C250.951 534.336 258.081 521.726 264.565 510.26C264.859 509.739 265.152 509.22 265.445 508.705C273.738 494.08 281.17 478.966 287.696 463.472C294.029 448.435 299.747 432.989 304.079 417.247C307.8 403.722 309.879 389.17 305.221 375.602C303.22 369.773 300.032 364.297 295.573 360.006C290.307 354.937 283.517 352.184 276.622 350.107C274.838 349.57 273.038 349.069 271.236 348.568L271.235 348.568C265.605 347.003 259.96 345.434 254.764 342.721ZM237.495 327.598C237.482 327.583 237.469 327.566 237.456 327.547C229.47 315.284 226.239 300.999 223.71 286.786C223.46 285.385 223.215 283.979 222.97 282.572C220.713 269.632 218.428 256.532 212.451 244.72C206.478 232.916 196.64 222.205 183.274 219.262C171.45 216.658 159.048 220.475 149.432 227.476C126.151 244.427 124.089 276.199 130.799 301.99C132.392 308.115 134.436 314.102 136.48 320.089L136.48 320.09L136.48 320.09L136.48 320.091L136.48 320.091L136.48 320.091L136.48 320.092L136.48 320.092L136.481 320.092L136.481 320.093L136.481 320.093C138.662 326.482 140.842 332.872 142.476 339.427C143.983 345.475 145.03 351.67 145.041 357.916C145.053 364.397 143.866 370.744 141.648 376.831C138.705 384.908 134.325 392.271 129.945 399.636C126.946 404.678 123.946 409.72 121.407 414.993C118.209 421.634 115.863 428.624 115.189 435.992C114.826 439.962 114.85 443.943 114.874 447.924L114.874 447.924L114.874 447.925L114.874 447.925L114.874 447.925L114.874 447.925L114.874 447.925L114.874 447.925L114.874 447.925L114.874 447.926L114.874 447.926C114.895 451.458 114.917 454.991 114.668 458.516C114.182 465.409 112.578 472.589 108.344 478.205C107.416 479.436 106.364 480.579 105.201 481.592C104.962 481.8 104.724 482 104.488 482.197C103.413 483.098 102.399 483.948 101.723 485.269C100.32 488.006 100.345 491.375 101.293 494.251C103.585 501.2 111.192 504.461 117.409 507.037C122.598 509.186 127.792 511.323 132.986 513.459L133.004 513.467L133.021 513.474L133.038 513.481C135.47 514.481 137.903 515.482 140.334 516.484C145.233 518.503 150.131 520.524 155.028 522.546L155.049 522.555C165.382 526.821 175.715 531.086 186.06 535.325C197.446 539.992 209.604 544.641 222.107 544.364C228.328 544.226 234.472 542.694 239.832 539.482C245.722 535.952 250.392 530.769 254.353 525.23C258.74 519.092 262.458 512.459 266.131 505.879C270.135 498.706 273.934 491.418 277.52 484.026C284.652 469.329 290.948 454.228 296.367 438.817L296.626 438.08C301.62 423.875 306.869 408.949 307.142 393.757C307.373 380.841 303.238 366.903 292.779 358.607C286.345 353.503 278.564 351.345 270.767 349.183C264.175 347.355 257.571 345.524 251.762 341.907C245.965 338.295 241.259 333.258 237.495 327.598ZM235.024 337.167C238.913 343.027 243.926 348.131 250.204 351.409C254.942 353.884 260.091 355.315 265.225 356.742C266.867 357.199 268.508 357.655 270.133 358.144C276.422 360.04 282.616 362.553 287.42 367.174C291.49 371.091 294.401 376.089 296.228 381.409C300.477 393.787 298.584 407.06 295.188 419.397C291.238 433.754 286.025 447.839 280.249 461.553C274.299 475.68 267.52 489.46 259.96 502.794C259.695 503.262 259.43 503.732 259.163 504.204L259.16 504.209C253.244 514.671 246.74 526.173 235.906 532.093C225.962 537.526 214.336 536.583 203.78 533.642C198.259 532.105 192.897 530.055 187.597 527.889C182.86 525.953 178.131 523.999 173.401 522.046L173.394 522.043L173.387 522.04L173.381 522.037C171.094 521.093 168.807 520.148 166.519 519.205C161.812 517.265 157.1 515.335 152.388 513.404L152.387 513.404L152.386 513.403L152.385 513.403L152.384 513.402L152.383 513.402L152.382 513.402L152.381 513.401L152.38 513.401L152.36 513.393L152.357 513.391C142.829 509.488 133.3 505.584 123.807 501.6C118.455 499.355 112.237 496.429 109.868 490.719C108.931 488.46 108.629 485.865 109.144 483.466C109.69 480.922 111.065 479.364 113.013 477.762C118.616 473.154 120.818 465.711 121.549 458.756C121.953 454.916 121.928 451.058 121.903 447.2C121.882 444.062 121.862 440.924 122.072 437.794C122.964 424.537 129.65 413.231 136.253 402.064L136.253 402.064C136.487 401.669 136.72 401.275 136.953 400.88C140.38 395.079 143.748 389.189 146.133 382.868C148.445 376.741 149.579 370.318 149.372 363.769C149.017 352.653 145.379 342.003 141.809 331.549C141.463 330.536 141.117 329.524 140.776 328.515C136.691 316.446 133.347 304.233 133.279 291.393C133.213 279.108 136.021 266.363 143.263 256.241C149.498 247.527 158.959 240.9 169.412 238.405C180.437 235.773 191.653 238.476 200.259 245.877C215.224 258.743 218.58 277.702 221.884 296.364C223.234 303.995 224.576 311.576 226.699 318.67C228.639 325.17 231.314 331.47 235.024 337.167ZM221.838 300.444C224.144 313.388 227.083 326.395 234.343 337.571C234.347 337.579 234.352 337.587 234.356 337.596C234.359 337.602 234.363 337.607 234.366 337.613L234.369 337.617L234.375 337.627C237.815 342.812 242.122 347.429 247.431 350.735C252.726 354.033 258.746 355.702 264.756 357.368C271.864 359.339 278.957 361.305 284.821 365.957C294.35 373.516 298.116 386.214 297.904 397.982C297.654 411.833 292.868 425.443 288.313 438.392L288.082 439.049C283.143 453.1 277.401 466.869 270.899 480.268C267.631 487.007 264.167 493.652 260.515 500.192C257.168 506.188 253.78 512.234 249.782 517.827C246.173 522.876 241.917 527.599 236.55 530.815C231.667 533.74 226.071 535.133 220.405 535.259C209.012 535.512 197.933 531.273 187.557 527.02C178.202 523.185 168.857 519.328 159.512 515.47L159.511 515.47L159.51 515.469L159.509 515.469L159.508 515.468L159.507 515.468L159.506 515.467L159.504 515.467L159.503 515.467L159.487 515.46C154.947 513.586 150.408 511.712 145.867 509.841C143.637 508.922 141.405 508.004 139.174 507.086C134.436 505.137 129.697 503.188 124.964 501.227C119.304 498.882 112.373 495.915 110.287 489.589C109.424 486.976 109.402 483.915 110.678 481.427C111.293 480.228 112.215 479.457 113.191 478.639C113.405 478.46 113.622 478.278 113.839 478.09C114.901 477.164 115.863 476.119 116.711 474.994C120.575 469.868 122.041 463.318 122.484 457.026C122.71 453.813 122.691 450.594 122.671 447.375L122.671 447.375L122.671 447.375L122.671 447.374L122.671 447.374L122.671 447.374L122.671 447.373L122.671 447.373L122.671 447.373L122.671 447.372L122.671 447.372C122.649 443.74 122.627 440.109 122.958 436.488C123.571 429.772 125.711 423.401 128.624 417.349C130.94 412.542 133.674 407.945 136.408 403.349L136.409 403.349C140.403 396.633 144.397 389.92 147.081 382.555C149.105 377.001 150.189 371.208 150.178 365.292C150.168 359.593 149.212 353.942 147.838 348.425C146.348 342.447 144.36 336.62 142.371 330.794C140.508 325.334 138.644 319.875 137.192 314.29C131.079 290.79 132.956 261.837 154.168 246.392C162.929 240.013 174.226 236.536 184.999 238.908C197.171 241.586 206.134 251.347 211.574 262.097C217.021 272.862 219.104 284.799 221.161 296.591C221.386 297.878 221.61 299.163 221.838 300.444ZM245.639 360.096C239.976 357.138 235.452 352.533 231.945 347.245C228.595 342.103 226.182 336.415 224.425 330.545C222.507 324.136 221.295 317.288 220.075 310.396C217.089 293.535 214.056 276.407 200.533 264.78C192.753 258.089 182.611 255.645 172.642 258.022C163.19 260.276 154.635 266.267 148.997 274.146C142.45 283.295 139.911 294.819 139.97 305.924C140.032 317.524 143.053 328.56 146.744 339.463C147.053 340.374 147.364 341.287 147.677 342.202C150.901 351.64 154.186 361.257 154.505 371.295C154.695 377.204 153.669 382.999 151.584 388.527C149.43 394.237 146.386 399.556 143.292 404.797L142.881 405.492L142.685 405.823L142.659 405.867C136.693 415.955 130.653 426.17 129.848 438.148C129.658 440.975 129.676 443.809 129.695 446.644C129.717 450.128 129.74 453.612 129.375 457.081C128.716 463.351 126.733 470.067 121.681 474.223C119.913 475.677 118.665 477.092 118.17 479.401C117.704 481.575 117.977 483.927 118.826 485.973C120.971 491.141 126.594 493.79 131.437 495.822C139.99 499.41 148.573 502.927 157.156 506.443C161.444 508.2 165.733 509.957 170.018 511.723C172.105 512.583 174.191 513.445 176.278 514.307L176.285 514.31L176.292 514.313L176.3 514.316L176.307 514.319L176.314 514.322L176.34 514.333L176.366 514.343L176.376 514.347C180.601 516.093 184.825 517.838 189.056 519.567C193.846 521.526 198.693 523.378 203.684 524.768C213.231 527.427 223.736 528.272 232.729 523.362C242.519 518.016 248.398 507.619 253.743 498.166L253.75 498.154L254.125 497.49L254.271 497.232L254.469 496.883C261.298 484.838 267.419 472.393 272.794 459.632C278.013 447.242 282.723 434.516 286.293 421.546C289.361 410.397 291.07 398.401 287.229 387.215C285.577 382.402 282.944 377.883 279.263 374.341C274.922 370.164 269.325 367.893 263.641 366.179C262.172 365.737 260.69 365.325 259.206 364.912L259.206 364.912L259.205 364.912L259.205 364.912L259.204 364.912L259.204 364.912L259.203 364.911L259.203 364.911L259.202 364.911C254.566 363.623 249.917 362.33 245.639 360.096ZM231.299 347.703C224.715 337.593 222.053 325.819 219.967 314.101C219.762 312.952 219.561 311.799 219.36 310.645L219.359 310.643L219.359 310.642L219.359 310.64L219.358 310.638C217.501 299.985 215.62 289.2 210.699 279.475C205.792 269.778 197.705 260.97 186.725 258.553C177.004 256.414 166.811 259.55 158.905 265.307C139.761 279.247 138.068 305.381 143.586 326.592C144.899 331.638 146.583 336.571 148.266 341.504L148.266 341.505C150.062 346.765 151.857 352.025 153.202 357.423C154.444 362.408 155.31 367.515 155.318 372.666C155.328 378.017 154.349 383.255 152.518 388.278C150.095 394.929 146.488 400.992 142.88 407.057L142.88 407.057L142.88 407.058L142.88 407.058L142.88 407.058L142.88 407.058L142.879 407.059L142.879 407.059L142.879 407.059C140.409 411.211 137.939 415.364 135.847 419.707C133.216 425.17 131.287 430.921 130.732 436.984C130.433 440.253 130.453 443.532 130.473 446.812L130.473 446.813L130.473 446.813L130.473 446.813L130.473 446.814L130.473 446.814L130.472 446.815L130.472 446.815L130.472 446.816C130.49 449.724 130.508 452.632 130.303 455.533C129.902 461.223 128.575 467.147 125.08 471.782C124.312 472.8 123.44 473.746 122.478 474.584C122.284 474.753 122.09 474.915 121.899 475.075C121.019 475.811 120.191 476.505 119.635 477.584C118.487 479.821 118.507 482.575 119.283 484.928C121.165 490.631 127.417 493.304 132.52 495.419C136.635 497.124 140.754 498.819 144.873 500.513C147.049 501.408 149.224 502.303 151.4 503.2C155.498 504.889 159.596 506.58 163.694 508.272C172.145 511.761 180.596 515.249 189.057 518.716C198.422 522.555 208.423 526.382 218.707 526.154C223.817 526.04 228.866 524.785 233.271 522.147C238.116 519.243 241.958 514.979 245.217 510.422C248.827 505.373 251.885 499.915 254.906 494.502C258.204 488.595 261.332 482.592 264.286 476.506C270.158 464.401 275.344 451.966 279.807 439.275L280.018 438.675C284.129 426.986 288.449 414.702 288.675 402.201C288.866 391.582 285.47 380.122 276.871 373.299C271.577 369.099 265.171 367.323 258.752 365.544C253.325 364.04 247.89 362.533 243.109 359.556C238.307 356.567 234.412 352.393 231.299 347.703ZM228.867 357.324C231.995 362.038 236.026 366.147 241.077 368.784C244.892 370.776 249.038 371.929 253.173 373.079L253.174 373.079L253.175 373.08L253.176 373.08L253.177 373.08L253.178 373.081L253.179 373.081L253.18 373.081C254.508 373.45 255.834 373.819 257.149 374.216C262.226 375.746 267.228 377.777 271.108 381.51C274.399 384.678 276.756 388.719 278.232 393.022C281.664 403.018 280.14 413.735 277.398 423.697C274.21 435.282 270.004 446.648 265.342 457.714C260.544 469.107 255.078 480.22 248.98 490.975C248.765 491.354 248.549 491.736 248.332 492.119C243.556 500.565 238.303 509.857 229.556 514.634C221.516 519.024 212.127 518.274 203.591 515.896C199.131 514.655 194.801 513 190.52 511.251C186.625 509.659 182.736 508.052 178.847 506.445C177.072 505.712 175.297 504.979 173.522 504.247C169.773 502.703 166.022 501.166 162.27 499.629C154.529 496.457 146.787 493.286 139.074 490.049C134.739 488.23 129.713 485.857 127.792 481.23C127.033 479.397 126.787 477.288 127.203 475.341C127.648 473.268 128.767 471.997 130.355 470.69C134.856 466.986 136.62 460.999 137.207 455.412C137.532 452.315 137.512 449.204 137.492 446.092C137.476 443.562 137.459 441.031 137.629 438.507C138.348 427.806 143.744 418.682 149.073 409.67L149.075 409.665C149.262 409.349 149.449 409.034 149.635 408.718C152.399 404.038 155.116 399.29 157.039 394.192C158.899 389.264 159.812 384.097 159.645 378.829C159.359 369.866 156.426 361.281 153.547 352.853C153.269 352.039 152.992 351.227 152.717 350.416C149.42 340.678 146.721 330.821 146.667 320.459C146.614 310.531 148.883 300.233 154.735 292.054C159.775 285.01 167.425 279.656 175.876 277.643C184.788 275.519 193.855 277.705 200.811 283.685C212.893 294.074 215.603 309.371 218.271 324.431C219.361 330.585 220.444 336.699 222.157 342.423C223.725 347.659 225.878 352.735 228.867 357.324ZM218.094 327.76C219.955 338.214 222.331 348.718 228.196 357.742C228.199 357.749 228.203 357.755 228.206 357.762L228.214 357.774L228.219 357.782C231.001 361.977 234.485 365.707 238.78 368.38C243.046 371.035 247.898 372.38 252.741 373.722C258.471 375.31 264.19 376.896 268.916 380.644C276.585 386.727 279.61 396.95 279.44 406.421C279.239 417.571 275.385 428.53 271.718 438.956L271.526 439.501C267.543 450.833 262.912 461.938 257.668 472.745C255.03 478.18 252.238 483.539 249.293 488.814C246.597 493.643 243.869 498.512 240.647 503.018C237.741 507.084 234.315 510.889 229.99 513.48C226.064 515.833 221.563 516.949 217.007 517.051C207.833 517.256 198.909 513.838 190.554 510.413C183.078 507.349 175.608 504.265 168.139 501.182C164.404 499.64 160.669 498.098 156.933 496.559C154.975 495.752 153.017 494.947 151.059 494.141L151.045 494.135C147.387 492.631 143.729 491.126 140.075 489.612C135.53 487.729 129.954 485.351 128.278 480.269C127.59 478.18 127.572 475.733 128.592 473.745C129.084 472.79 129.818 472.176 130.596 471.525L130.597 471.524C130.769 471.38 130.943 471.235 131.116 471.084C131.98 470.333 132.76 469.486 133.448 468.574C136.572 464.429 137.762 459.134 138.121 454.046C138.303 451.454 138.288 448.856 138.272 446.259L138.272 446.259L138.272 446.258L138.272 446.258L138.272 446.258L138.272 446.258L138.272 446.258L138.272 446.257L138.272 446.257L138.272 446.257L138.272 446.257L138.272 446.256L138.272 446.256L138.272 446.256L138.272 446.256C138.254 443.328 138.237 440.401 138.503 437.483C138.998 432.072 140.718 426.943 143.067 422.068C144.934 418.191 147.14 414.484 149.345 410.777C152.566 405.361 155.787 399.947 157.952 394.007C159.591 389.513 160.466 384.831 160.457 380.045C160.448 375.441 159.675 370.878 158.564 366.422C157.363 361.602 155.759 356.904 154.156 352.207C152.653 347.803 151.15 343.399 149.978 338.894C145.056 319.975 146.563 296.658 163.64 284.224C170.691 279.09 179.78 276.292 188.449 278.201C198.236 280.354 205.447 288.21 209.821 296.853C214.213 305.53 215.891 315.152 217.549 324.657C217.73 325.693 217.911 326.728 218.094 327.76ZM236.515 377.472C232.077 375.155 228.537 371.545 225.789 367.403C223.16 363.367 221.268 358.904 219.892 354.297C218.384 349.257 217.43 343.875 216.47 338.459L216.47 338.458C214.12 325.199 211.734 311.735 201.093 302.587C194.962 297.317 186.971 295.389 179.115 297.259C171.668 299.033 164.922 303.749 160.48 309.958C155.322 317.168 153.322 326.24 153.368 334.991C153.417 344.112 155.794 352.792 158.697 361.365C158.937 362.076 159.18 362.787 159.424 363.5C161.958 370.915 164.54 378.47 164.791 386.357C164.94 390.984 164.136 395.525 162.503 399.853C160.81 404.339 158.42 408.518 155.987 412.636C155.824 412.913 155.66 413.19 155.496 413.467C150.803 421.404 146.052 429.44 145.417 438.863C145.267 441.087 145.282 443.316 145.296 445.546C145.314 448.281 145.331 451.017 145.045 453.741C144.53 458.645 142.984 463.902 139.034 467.154C137.626 468.313 136.635 469.441 136.24 471.279C135.872 472.998 136.089 474.865 136.761 476.484C138.455 480.569 142.884 482.665 146.713 484.271C153.512 487.125 160.337 489.921 167.161 492.716L167.172 492.721L167.184 492.726L167.195 492.731C170.474 494.074 173.752 495.417 177.028 496.767C178.627 497.426 180.226 498.086 181.825 498.747C185.211 500.146 188.596 501.545 191.987 502.931C195.759 504.473 199.575 505.929 203.503 507.023C211.028 509.12 219.3 509.775 226.386 505.905C234.093 501.694 238.721 493.509 242.929 486.067C243.119 485.731 243.308 485.397 243.497 485.064C248.863 475.6 253.673 465.82 257.896 455.794C261.999 446.052 265.703 436.045 268.509 425.847C270.923 417.07 272.262 407.631 269.24 398.827C267.937 395.033 265.858 391.471 262.955 388.677C259.538 385.39 255.132 383.6 250.66 382.252C249.504 381.904 248.337 381.579 247.169 381.255C243.528 380.242 239.877 379.227 236.515 377.472ZM225.129 367.838C219.957 359.887 217.864 350.631 216.222 341.418C216.062 340.518 215.905 339.616 215.747 338.712C214.288 330.343 212.81 321.871 208.945 314.231C205.105 306.641 198.769 299.738 190.175 297.846C182.557 296.17 174.573 298.627 168.378 303.139C153.369 314.067 152.045 334.566 156.372 351.193C157.403 355.155 158.724 359.028 160.046 362.901C161.458 367.038 162.87 371.175 163.927 375.419C164.905 379.344 165.588 383.364 165.595 387.418C165.604 391.639 164.833 395.766 163.388 399.729C161.483 404.955 158.65 409.719 155.815 414.484L155.815 414.484C153.874 417.747 151.932 421.011 150.289 424.425C148.224 428.712 146.71 433.221 146.276 437.978C146.041 440.547 146.057 443.123 146.072 445.699L146.072 445.699L146.072 445.699L146.072 445.7L146.072 445.7L146.072 445.7L146.072 445.7C146.086 447.986 146.1 450.272 145.939 452.553C145.623 457.04 144.571 461.707 141.815 465.361C141.208 466.167 140.516 466.915 139.756 467.577C139.603 467.709 139.451 467.837 139.301 467.962L139.301 467.962C138.621 468.53 137.98 469.066 137.55 469.9C136.658 471.637 136.673 473.778 137.276 475.605C138.747 480.064 143.646 482.149 147.632 483.801C151.11 485.242 154.593 486.674 158.075 488.106L158.097 488.115C159.554 488.715 161.011 489.314 162.467 489.914C165.756 491.269 169.045 492.626 172.333 493.984C178.905 496.697 185.477 499.409 192.056 502.106C199.4 505.116 207.246 508.122 215.311 507.943C219.311 507.854 223.266 506.876 226.713 504.809C230.515 502.532 233.526 499.187 236.083 495.611C238.915 491.65 241.314 487.369 243.683 483.122C246.274 478.479 248.732 473.763 251.053 468.98C255.668 459.47 259.743 449.697 263.248 439.726L263.421 439.234C266.643 430.071 270.031 420.438 270.208 410.639C270.358 402.317 267.704 393.333 260.963 387.986C256.807 384.688 251.775 383.294 246.734 381.897C242.474 380.716 238.207 379.534 234.454 377.199C230.667 374.844 227.594 371.555 225.141 367.857C225.137 367.851 225.133 367.845 225.129 367.838ZM222.71 377.481C225.077 381.049 228.127 384.163 231.951 386.16C234.853 387.674 238.006 388.551 241.15 389.425C242.16 389.705 243.169 389.986 244.168 390.287C248.035 391.454 251.844 393.001 254.799 395.844C257.313 398.263 259.113 401.347 260.242 404.633C262.856 412.246 261.701 420.407 259.613 427.995C257.188 436.808 253.99 445.455 250.444 453.874C246.797 462.534 242.642 470.98 238.007 479.154C237.845 479.44 237.682 479.728 237.519 480.017C233.88 486.453 229.877 493.532 223.211 497.174C217.08 500.524 209.922 499.965 203.408 498.149C200.01 497.204 196.71 495.943 193.448 494.611C190.37 493.353 187.297 492.083 184.223 490.813L184.221 490.812L184.22 490.811L184.196 490.802C182.973 490.297 181.751 489.792 180.528 489.287C177.684 488.115 174.836 486.949 171.989 485.782L171.985 485.78L171.961 485.771L171.958 485.77C166.081 483.362 160.203 480.953 154.346 478.496C151.025 477.103 147.192 475.282 145.722 471.741C145.139 470.335 144.949 468.712 145.269 467.217C145.612 465.615 146.476 464.629 147.704 463.619C151.104 460.819 152.43 456.29 152.873 452.071C153.12 449.717 153.105 447.352 153.089 444.986C153.077 443.064 153.064 441.14 153.193 439.222C153.741 431.072 157.851 424.123 161.91 417.26L161.91 417.26L162.326 416.557C164.426 413 166.49 409.391 167.953 405.516C169.36 401.787 170.053 397.873 169.925 393.888C169.709 387.087 167.483 380.571 165.298 374.174C165.086 373.554 164.875 372.935 164.666 372.317C162.157 364.908 160.104 357.407 160.061 349.525C160.021 341.95 161.751 334.104 166.216 327.864C170.06 322.493 175.901 318.408 182.346 316.878C189.146 315.264 196.061 316.929 201.368 321.492C210.567 329.401 212.63 341.034 214.662 352.492C215.492 357.171 216.317 361.821 217.62 366.176C218.811 370.15 220.443 374 222.71 377.481ZM214.351 355.075C215.768 363.039 217.579 371.037 222.047 377.912C222.052 377.92 222.057 377.929 222.063 377.938C224.189 381.139 226.849 383.986 230.128 386.024C233.368 388.038 237.052 389.059 240.729 390.078L240.729 390.078C245.082 391.284 249.425 392.487 253.012 395.333C258.823 399.942 261.108 407.687 260.977 414.86C260.823 423.31 257.902 431.617 255.124 439.518L254.971 439.954C251.943 448.567 248.423 457.007 244.437 465.22C242.434 469.35 240.309 473.424 238.072 477.432C236.028 481.096 233.958 484.79 231.516 488.207C229.31 491.292 226.713 494.177 223.433 496.142C220.462 497.923 217.056 498.762 213.609 498.839C206.655 498.994 199.888 496.398 193.554 493.803C187.962 491.51 182.375 489.204 176.788 486.898C173.859 485.689 170.93 484.48 168 483.273C166.597 482.694 165.193 482.116 163.788 481.539L163.764 481.529L163.739 481.518L163.729 481.514C160.881 480.343 158.034 479.171 155.188 477.992C151.757 476.572 147.536 474.78 146.271 470.944C145.755 469.381 145.742 467.546 146.507 466.059C146.873 465.349 147.419 464.893 147.998 464.41C148.129 464.301 148.261 464.19 148.394 464.075C149.056 463.5 149.656 462.851 150.183 462.151C152.569 458.986 153.482 454.948 153.756 451.063C153.895 449.093 153.883 447.118 153.871 445.143L153.871 445.143L153.871 445.142L153.871 445.142L153.871 445.142L153.871 445.142C153.857 442.917 153.844 440.692 154.046 438.475C154.423 434.371 155.727 430.481 157.509 426.783C158.928 423.837 160.604 421.019 162.28 418.202C164.729 414.085 167.177 409.969 168.821 405.454C170.071 402.023 170.738 398.448 170.732 394.794C170.726 391.288 170.134 387.811 169.288 384.417C168.375 380.754 167.156 377.183 165.938 373.612C164.795 370.265 163.653 366.918 162.762 363.494C159.033 349.157 160.17 331.478 173.113 322.054C178.453 318.166 185.332 316.047 191.899 317.492C199.301 319.122 204.76 325.07 208.068 331.608C211.404 338.2 212.679 345.509 213.939 352.729L213.939 352.73L213.943 352.75C214.078 353.526 214.213 354.302 214.351 355.075ZM227.587 394.948C224.287 393.272 221.665 390.62 219.631 387.559C217.723 384.627 216.352 381.389 215.353 378.043C214.254 374.372 213.558 370.456 212.859 366.517C211.145 356.868 209.407 347.08 201.658 340.405C197.229 336.589 191.441 335.154 185.748 336.461C180.279 337.716 175.319 341.138 172.035 345.669C168.277 350.856 166.784 357.391 166.763 363.715C166.739 370.364 168.431 376.714 170.54 382.965C170.746 383.576 170.956 384.189 171.165 384.802C172.979 390.111 174.823 395.507 175.059 401.149C175.199 404.486 174.665 407.774 173.515 410.909C172.321 414.169 170.605 417.203 168.848 420.187C168.646 420.53 168.443 420.874 168.24 421.218C164.904 426.862 161.517 432.595 161.002 439.284C160.87 441 160.881 442.722 160.892 444.444L160.892 444.444L160.892 444.445L160.892 444.445L160.892 444.445C160.905 446.416 160.917 448.387 160.715 450.35C160.351 453.9 159.245 457.731 156.382 460.087C155.379 460.912 154.651 461.716 154.338 463.02C154.038 464.263 154.167 465.614 154.614 466.806C155.734 469.795 158.878 471.398 161.634 472.574C166.578 474.684 171.559 476.714 176.539 478.743L176.542 478.744C178.989 479.741 181.437 480.739 183.879 481.746C185.091 482.245 186.302 482.745 187.513 483.245L187.527 483.251C189.946 484.249 192.364 485.247 194.785 486.239C197.517 487.359 200.28 488.417 203.124 489.223C208.621 490.78 214.684 491.31 219.891 488.525C225.558 485.493 228.941 479.54 232.025 474.115L232.156 473.884L232.347 473.548C236.25 466.693 239.751 459.608 242.828 452.345C245.846 445.221 248.554 437.905 250.636 430.449C252.433 424.018 253.47 417.102 251.309 410.623C250.393 407.871 248.921 405.287 246.865 403.227C244.443 400.803 241.292 399.436 238.063 398.441C237.105 398.145 236.136 397.876 235.166 397.606L235.166 397.606C232.579 396.887 229.988 396.167 227.587 394.948ZM218.964 387.984C215.243 382.245 213.703 375.585 212.515 368.94C212.385 368.209 212.257 367.477 212.129 366.743C211.091 360.786 210.041 354.763 207.348 349.302C204.595 343.719 200.002 338.582 193.713 337.161C188.189 335.913 182.391 337.677 177.887 340.944C166.974 348.858 166.014 363.757 169.162 375.823C169.911 378.694 170.869 381.502 171.827 384.31C172.837 387.271 173.847 390.232 174.613 393.268C176.093 399.139 176.405 405.072 174.371 410.854C172.989 414.781 170.868 418.346 168.746 421.911C167.4 424.174 166.054 426.437 164.896 428.792C163.383 431.871 162.226 435.116 161.858 438.545C161.643 440.561 161.655 442.585 161.666 444.611L161.666 444.611L161.666 444.611L161.666 444.611L161.666 444.611L161.666 444.612L161.666 444.612L161.666 444.612L161.666 444.612C161.675 446.153 161.684 447.694 161.593 449.232C161.4 452.483 160.698 455.842 158.82 458.561C158.37 459.212 157.853 459.811 157.273 460.349C157.098 460.511 156.912 460.66 156.727 460.809L156.727 460.809C156.341 461.12 155.958 461.429 155.677 461.848C154.852 463.077 154.802 464.734 155.213 466.118C156.195 469.422 159.799 470.961 162.709 472.168C165.014 473.124 167.323 474.074 169.632 475.024L169.666 475.038C170.923 475.555 172.179 476.071 173.435 476.589C175.822 477.573 178.207 478.557 180.593 479.541L180.604 479.546C185.367 481.511 190.129 483.476 194.896 485.433C200.233 487.625 205.931 489.834 211.794 489.737C214.717 489.687 217.614 488.992 220.137 487.485C222.882 485.845 225.056 483.441 226.904 480.864C228.951 478.013 230.68 474.929 232.392 471.868C234.266 468.517 236.044 465.111 237.725 461.658C241.086 454.751 244.055 447.654 246.611 440.41L246.767 439.969L246.767 439.969L246.767 439.968C249.125 433.289 251.607 426.26 251.745 419.118C251.86 413.108 249.971 406.63 245.132 402.736C242.098 400.295 238.403 399.27 234.7 398.243C231.566 397.373 228.425 396.502 225.675 394.768C222.958 393.057 220.755 390.68 218.985 388.018C218.977 388.007 218.97 387.995 218.964 387.984ZM216.554 397.638C218.201 400.11 220.314 402.257 222.983 403.615C224.932 404.606 227.038 405.191 229.14 405.775C229.962 406.003 230.782 406.231 231.593 406.483C234.222 407.301 236.779 408.433 238.737 410.424C240.428 412.145 241.627 414.294 242.364 416.582C244.048 421.815 243.203 427.38 241.755 432.561C240.057 438.635 237.852 444.595 235.392 450.398C232.858 456.374 229.972 462.201 226.75 467.836L226.571 468.15C224.049 472.564 221.286 477.399 216.638 479.841C212.375 482.08 207.419 481.61 202.943 480.327C198.868 479.158 194.927 477.475 191.01 475.802L191.009 475.802C189.75 475.264 188.494 474.727 187.236 474.209C185.277 473.402 183.315 472.603 181.353 471.804L181.353 471.804L181.352 471.804L181.352 471.804C177.316 470.161 173.278 468.517 169.274 466.802C167.045 465.846 164.54 464.543 163.611 462.143C162.853 460.182 163.231 458.01 164.894 456.682C168.741 453.611 168.715 448.497 168.691 443.807C168.685 442.56 168.679 441.342 168.745 440.201C169.082 434.437 171.97 429.557 174.839 424.708L174.839 424.708L174.896 424.611C177.772 419.749 180.404 414.733 180.209 408.925C180.053 404.277 178.534 399.83 177.039 395.459L177.039 395.458C176.871 394.966 176.703 394.475 176.538 393.985C174.812 388.874 173.43 383.68 173.46 378.241C173.488 373.102 174.71 367.792 177.772 363.581C180.448 359.9 184.477 357.121 188.924 356.095C193.572 355.023 198.295 356.187 201.918 359.295C208.242 364.721 209.661 372.703 211.058 380.564C211.62 383.725 212.179 386.867 213.051 389.815C213.867 392.566 214.988 395.226 216.554 397.638ZM210.677 382.784C211.637 388.113 212.901 393.432 215.871 398.038C215.876 398.048 215.88 398.057 215.885 398.067C215.891 398.078 215.898 398.088 215.905 398.099C217.357 400.278 219.159 402.217 221.386 403.619C223.615 405.02 226.16 405.725 228.7 406.429C231.711 407.263 234.714 408.095 237.177 410.083C241.191 413.323 242.683 418.746 242.499 423.725C242.285 429.478 240.286 435.122 238.378 440.507L238.378 440.507L238.281 440.782C236.2 446.656 233.785 452.411 231.052 458.012C229.685 460.812 228.239 463.573 226.716 466.292C225.331 468.763 223.931 471.256 222.269 473.554C220.766 475.63 218.997 477.56 216.769 478.869C214.698 480.085 212.322 480.621 209.934 480.635C205.127 480.666 200.478 478.814 196.103 477.012C190.427 474.674 184.75 472.334 179.074 469.994L178.727 469.851C177.812 469.474 176.897 469.099 175.982 468.723C174.02 467.917 172.057 467.111 170.098 466.295C167.713 465.3 164.772 463.976 164.143 461.191C163.894 460.083 163.999 458.774 164.752 457.872C164.971 457.611 165.239 457.395 165.508 457.179C165.692 457.031 165.877 456.882 166.045 456.719C166.495 456.281 166.894 455.793 167.241 455.27C168.694 453.077 169.249 450.421 169.407 447.829C169.483 446.57 169.476 445.308 169.469 444.046L169.469 444.046L169.469 444.046L169.469 444.046C169.459 442.474 169.45 440.903 169.603 439.337C169.873 436.552 170.777 433.915 171.992 431.408C172.955 429.422 174.085 427.522 175.215 425.622L175.215 425.622C176.889 422.808 178.563 419.995 179.688 416.908C181.391 412.24 181.237 407.451 180.078 402.676C179.445 400.07 178.58 397.533 177.714 394.996C176.967 392.806 176.22 390.617 175.623 388.382C172.996 378.555 173.693 366.344 182.604 359.872C186.257 357.218 190.963 355.785 195.445 356.807C200.591 357.979 204.323 362.232 206.538 366.815C208.655 371.193 209.492 376.001 210.321 380.761L210.321 380.761C210.439 381.437 210.556 382.111 210.677 382.784ZM218.747 412.461C216.542 411.426 214.818 409.724 213.474 407.716C212.252 405.826 211.381 403.744 210.756 401.589C210.107 399.36 209.684 396.991 209.259 394.607L209.259 394.607C208.177 388.537 207.079 382.373 202.182 378.185C199.399 375.806 195.773 374.901 192.202 375.704C188.741 376.483 185.595 378.632 183.511 381.491C178.514 388.349 179.964 397.356 182.481 404.838C182.625 405.264 182.771 405.691 182.917 406.119C184.044 409.416 185.189 412.763 185.344 416.264C185.546 420.828 183.485 424.74 181.227 428.557C179.02 432.285 176.803 436.036 176.534 440.465C176.476 441.424 176.483 442.387 176.489 443.349L176.489 443.35L176.489 443.35C176.498 444.662 176.507 445.973 176.352 447.276C176.21 448.483 175.936 449.681 175.414 450.782C174.904 451.856 174.19 452.563 173.324 453.343C172.186 454.367 172.056 456.116 172.606 457.477C173.339 459.292 175.213 460.291 176.913 461.028C180.067 462.392 183.255 463.686 186.442 464.979C187.989 465.606 189.535 466.234 191.078 466.869C192.018 467.257 192.958 467.658 193.9 468.06L193.901 468.061L193.902 468.061C196.929 469.354 199.976 470.655 203.134 471.534C206.565 472.487 210.329 472.779 213.571 471.054C217.124 469.163 219.241 465.46 221.177 462.075L221.305 461.85C223.835 457.429 226.098 452.855 228.076 448.161C229.953 443.709 231.644 439.135 232.928 434.473C234.028 430.477 234.635 426.187 233.296 422.17C232.731 420.475 231.832 418.887 230.586 417.599C229.119 416.084 227.209 415.193 225.226 414.56C224.529 414.337 223.823 414.141 223.116 413.944C221.631 413.531 220.146 413.118 218.747 412.461ZM212.806 408.139C210.245 404.156 209.438 399.628 208.629 395.092C207.974 391.415 207.318 387.733 205.725 384.331C204.048 380.749 201.18 377.378 197.174 376.453C193.694 375.65 190.045 376.784 187.226 378.868C180.358 383.951 179.997 393.473 182.115 401.047C182.554 402.616 183.079 404.159 183.604 405.702C184.293 407.724 184.982 409.747 185.475 411.828C186.33 415.434 186.414 419.059 185.14 422.581C184.275 424.97 182.98 427.147 181.685 429.325L181.685 429.325L181.685 429.325C180.862 430.71 180.039 432.094 179.326 433.534C178.377 435.45 177.64 437.461 177.399 439.596C177.253 440.89 177.26 442.191 177.268 443.492C177.273 444.33 177.278 445.169 177.241 446.005C177.151 448.058 176.776 450.175 175.677 451.943C175.2 452.712 174.603 453.266 173.938 453.857C173.185 454.527 172.97 455.495 173.137 456.47C173.521 458.699 175.883 459.741 177.741 460.517C179.218 461.134 180.7 461.742 182.182 462.35C182.923 462.654 183.664 462.959 184.405 463.264C185.275 463.622 186.145 463.981 187.016 464.34L188.897 465.116L188.908 465.12L188.92 465.125C191.886 466.349 194.852 467.572 197.819 468.791C201.155 470.162 204.707 471.566 208.372 471.525C210.221 471.504 212.053 471.069 213.643 470.106C215.372 469.06 216.729 467.523 217.887 465.889C220.539 462.144 222.659 457.922 224.654 453.8C226.737 449.496 228.576 445.074 230.159 440.562L230.27 440.246L230.27 440.246C231.74 436.061 233.293 431.636 233.283 427.158C233.274 423.414 231.978 419.415 228.846 417.133C227.012 415.797 224.848 415.197 222.68 414.596C220.703 414.049 218.723 413.5 216.987 412.391C215.298 411.312 213.937 409.831 212.828 408.175C212.823 408.168 212.819 408.161 212.815 408.153C212.812 408.149 212.809 408.144 212.806 408.139ZM210.396 417.794C211.355 419.219 212.569 420.406 214.145 421.124C215.096 421.558 216.1 421.837 217.105 422.117L217.105 422.117C217.658 422.27 218.211 422.424 218.755 422.604C221.493 423.509 223.482 425.344 224.348 428.127C225.24 430.996 224.767 434.025 223.966 436.856C223.035 440.146 221.843 443.374 220.504 446.519C219.138 449.728 217.582 452.855 215.847 455.88L215.792 455.976C214.411 458.384 212.904 461.013 210.36 462.341C208.052 463.545 205.379 463.32 202.951 462.633C200.726 462.004 198.577 461.086 196.442 460.175C195.772 459.889 195.103 459.603 194.433 459.327C193.357 458.884 192.274 458.45 191.191 458.016L191.19 458.016C188.921 457.107 186.65 456.197 184.428 455.195C183.278 454.677 182.039 453.948 181.562 452.709C181.197 451.763 181.271 450.571 182.003 449.817C182.141 449.676 182.277 449.546 182.41 449.419C182.791 449.056 183.146 448.718 183.424 448.202C183.817 447.473 184.031 446.665 184.151 445.851C184.301 444.839 184.295 443.817 184.289 442.795C184.285 442.153 184.281 441.511 184.316 440.871C184.488 437.708 186.054 435.044 187.628 432.382C189.202 429.72 190.644 426.983 190.485 423.798C190.364 421.365 189.57 419.046 188.784 416.752L188.784 416.751C188.641 416.334 188.499 415.918 188.361 415.503C186.616 410.25 185.773 403.834 189.44 399.15C192.513 395.225 198.331 393.631 202.388 397.028C205.902 399.967 206.685 404.338 207.456 408.64C207.752 410.297 208.047 411.944 208.496 413.495C208.932 415.009 209.543 416.466 210.396 417.794ZM209.751 418.252C209.757 418.262 209.764 418.272 209.771 418.281C210.542 419.417 211.475 420.436 212.63 421.191C213.863 421.996 215.275 422.389 216.685 422.781C218.196 423.201 219.703 423.62 220.985 424.545C223.276 426.199 224.134 429.194 224.042 431.905C223.939 434.971 222.874 437.981 221.858 440.849L221.794 441.033C220.699 444.127 219.433 447.16 218.001 450.113C216.62 452.963 215.155 455.882 213.326 458.474C211.697 460.782 209.545 462.417 206.626 462.419C204.015 462.422 201.501 461.386 199.125 460.407L199.125 460.407L199.098 460.396C197.59 459.774 196.081 459.153 194.573 458.531C192.996 457.881 191.419 457.231 189.842 456.581C189.31 456.362 188.778 456.144 188.245 455.925C187.247 455.516 186.249 455.108 185.255 454.69C183.884 454.111 182.127 453.279 182.142 451.544C182.149 450.837 182.481 450.461 182.985 450.021C183.464 449.601 183.843 449.089 184.143 448.528C184.807 447.283 185.011 445.845 185.057 444.454C185.074 443.938 185.071 443.421 185.068 442.904C185.063 441.883 185.057 440.861 185.205 439.849C185.42 438.371 185.982 436.984 186.662 435.663C187.12 434.775 187.634 433.912 188.148 433.049L188.148 433.049C189.114 431.426 190.081 429.801 190.68 428.001C192.016 423.985 190.736 420.151 189.463 416.34L189.463 416.34C189.102 415.261 188.743 414.184 188.443 413.104C186.979 407.834 187.255 401.206 192.065 397.709C194.074 396.249 196.687 395.486 199.134 396.158C201.901 396.92 203.82 399.367 204.927 401.893C205.932 404.188 206.372 406.643 206.811 409.093L206.811 409.093C207.381 412.274 207.949 415.447 209.751 418.252ZM209.545 429.788C208.6 429.382 207.894 428.713 207.318 427.873C206.329 426.302 205.995 424.478 205.662 422.66C205.255 420.439 204.849 418.226 203.252 416.491C200.874 413.907 196.958 414.643 194.973 417.328C192.95 420.065 193.417 423.69 194.42 426.714C194.502 426.96 194.586 427.206 194.671 427.453C195.134 428.804 195.605 430.176 195.633 431.612C195.668 433.421 194.76 434.96 193.871 436.467C193.806 436.578 193.74 436.688 193.676 436.798C192.729 438.414 192.098 439.951 192.08 441.843C192.079 442.014 192.08 442.186 192.081 442.359C192.085 443.179 192.089 444.011 191.819 444.791C191.641 445.306 191.362 445.66 190.978 446.025C190.777 446.215 190.618 446.384 190.515 446.647C189.952 448.076 191.307 449.087 192.441 449.584C193.744 450.156 195.067 450.689 196.388 451.222C197.046 451.488 197.705 451.754 198.36 452.024C198.727 452.175 199.11 452.344 199.505 452.517C201.956 453.595 204.881 454.882 207.327 453.538C208.759 452.75 209.615 451.265 210.404 449.893C211.42 448.129 212.329 446.302 213.126 444.428C213.9 442.608 214.59 440.737 215.121 438.831C215.567 437.241 215.816 435.551 215.348 433.935C214.927 432.478 213.953 431.339 212.548 430.756C212.074 430.56 211.579 430.424 211.084 430.288C210.563 430.145 210.042 430.002 209.545 429.788ZM206.706 428.377C207.783 429.92 209.192 430.556 210.962 431.065C211.973 431.355 213.001 431.677 213.716 432.498C214.272 433.138 214.595 433.96 214.736 434.788C215.057 436.676 214.41 438.62 213.816 440.388C213.168 442.319 212.403 444.211 211.529 446.05C210.749 447.689 209.911 449.341 208.904 450.852C208.013 452.19 206.855 453.253 205.172 453.309C203.679 453.36 202.226 452.762 200.869 452.203L200.814 452.18C199.794 451.761 198.775 451.341 197.756 450.92C197.075 450.639 196.394 450.358 195.712 450.078C195.393 449.946 195.073 449.815 194.753 449.684C194.174 449.447 193.595 449.21 193.02 448.967L192.944 448.936C192.206 448.626 191.119 448.171 191.207 447.212C191.239 446.865 191.443 446.677 191.662 446.475C191.752 446.391 191.845 446.306 191.929 446.206C192.142 445.954 192.316 445.662 192.448 445.359C192.723 444.73 192.826 444.033 192.857 443.353C192.872 443.016 192.87 442.678 192.868 442.341C192.865 441.823 192.862 441.306 192.922 440.792C193.018 439.967 193.303 439.195 193.668 438.454C193.955 437.874 194.286 437.317 194.617 436.76C195.13 435.898 195.642 435.036 195.988 434.092C196.883 431.638 196.109 429.303 195.335 426.965C195.225 426.635 195.116 426.305 195.011 425.974C194.049 422.936 193.837 418.975 196.602 416.778C197.723 415.888 199.235 415.38 200.653 415.754C202.292 416.185 203.388 417.678 203.995 419.178C204.504 420.436 204.746 421.76 204.987 423.081C205.319 424.897 205.65 426.707 206.673 428.331C206.683 428.347 206.695 428.363 206.706 428.377Z" fill="url(#paint0_linear_1212_2911)"/>
<defs>
<linearGradient id="paint0_linear_1212_2911" x1="144.396" y1="636.203" x2="173.704" y2="157.809" gradientUnits="userSpaceOnUse">
<stop offset="0.117231" stop-color="#F3F3F3"/>
<stop offset="0.49173" stop-color="#2047F4" stop-opacity="0.26"/>
<stop offset="0.995488" stop-color="#F3F3F3"/>
</linearGradient>
</defs>
</svg>
