<svg width="366" height="533" viewBox="0 0 366 533" fill="none" xmlns="http://www.w3.org/2000/svg">
<path d="M379.398 532.88C377.645 504.574 367.561 480.523 344.004 466.308C340.023 463.907 334.849 460.795 329.723 457.712C239.702 403.57 170.992 362.246 151.607 283.998C137.209 225.878 222.901 121.092 274.66 64.371L274.049 63.9231C222.203 120.762 136.401 225.767 150.87 284.18C170.328 362.732 239.156 404.126 329.332 458.36C333.612 460.934 337.961 463.55 343.611 466.959C366.767 480.931 376.793 504.521 378.646 532.331L379.397 532.881L379.398 532.88Z" fill="url(#paint0_linear_816_339)"/>
<path d="M371.861 527.359C372.538 493.585 363.243 464.327 336.215 448.019C332.271 445.638 327.066 442.507 321.935 439.423C231.913 385.281 163.201 343.957 143.817 265.708C130.04 210.085 207.933 111.721 260.024 53.6509L259.414 53.204C207.239 111.394 129.233 209.984 143.082 265.89C162.541 344.441 231.37 385.836 321.546 440.068C325.82 442.639 330.138 445.237 335.823 448.666C362.458 464.737 371.719 493.532 371.152 526.838L371.862 527.358L371.861 527.359Z" fill="url(#paint1_linear_816_339)"/>
<path d="M363.415 521.174C366.683 482.36 358.631 447.949 328.416 429.717C324.453 427.326 319.265 424.205 314.136 421.121C224.114 366.98 155.402 325.656 136.018 247.406C122.827 194.151 193.671 101.715 245.444 42.9736L244.837 42.5287C192.98 101.392 122.022 194.057 135.283 247.588C154.742 326.139 223.571 367.535 313.746 421.768C318.023 424.34 322.357 426.946 328.023 430.365C357.846 448.36 365.889 482.309 362.74 520.68L363.415 521.174Z" fill="url(#paint2_linear_816_339)"/>
<path d="M355.487 515.367C361.092 472.44 354.43 433.507 321.588 413.69C317.637 411.306 312.436 408.179 307.309 405.095C217.287 350.953 148.575 309.629 129.191 231.38C116.491 180.115 181.666 92.5402 232.739 33.6678L232.133 33.2238C180.976 92.2223 115.688 180.026 128.454 231.562C147.912 310.113 216.741 351.509 306.918 405.743C311.195 408.315 315.516 410.914 321.195 414.34C353.646 433.921 360.313 472.386 354.831 514.887L355.487 515.367Z" fill="url(#paint3_linear_816_339)"/>
<path d="M347.427 509.464C355.323 462.8 350.252 419.449 314.97 398.161C310.996 395.762 305.814 392.646 300.689 389.565C210.668 335.423 141.955 294.099 122.572 215.849C110.337 166.454 170.399 83.3515 220.482 24.6913L219.877 24.2483C169.709 83.0382 109.535 166.372 121.837 216.032C141.295 294.583 210.123 335.977 300.299 390.211C304.581 392.786 308.921 395.397 314.578 398.81C349.464 419.859 354.552 462.737 346.781 508.991L347.427 509.464Z" fill="url(#paint4_linear_816_339)"/>
<path d="M338.819 503.16C349.074 452.899 345.875 404.952 308.17 382.202C304.196 379.803 299.014 376.688 293.89 373.606C203.868 319.464 135.156 278.14 115.772 199.891C104.761 155.44 152.304 83.6876 198.433 27.0159L195.45 29.5119C149.995 85.847 104.155 156.143 115.037 200.073C134.496 278.624 203.325 320.019 293.5 374.253C297.781 376.827 302.121 379.439 307.777 382.85C345.081 405.36 348.31 452.827 338.181 502.692L338.819 503.16Z" fill="url(#paint5_linear_816_339)"/>
<path d="M330.438 497.022C342.908 443.581 341.679 391.217 301.744 367.121C297.788 364.733 292.591 361.609 287.463 358.525C197.441 304.383 128.729 263.059 109.345 184.81C101.668 153.816 122.464 109.544 151.392 66.368L149.429 68.0098C121.114 110.705 101.003 154.29 108.608 184.992C128.067 263.543 196.896 304.939 287.071 359.172C291.35 361.745 295.676 364.348 301.348 367.77C340.88 391.623 342.149 443.499 329.803 496.559L330.437 497.023L330.438 497.022Z" fill="url(#paint6_linear_816_339)"/>
<path d="M321.118 490.195C335.956 433.553 337.085 376.312 294.783 350.787C290.809 348.388 285.627 345.273 280.503 342.191C190.481 288.049 121.769 246.725 102.385 168.476C97.3146 148.003 104.672 121.731 118.587 93.8115L117.236 94.9404C103.706 122.485 96.6281 148.383 101.651 168.659C121.11 247.21 189.939 288.605 280.114 342.838C284.395 345.413 288.736 348.023 294.391 351.436C336.282 376.713 335.205 433.458 320.49 489.736L321.118 490.195Z" fill="url(#paint7_linear_816_339)"/>
<defs>
<linearGradient id="paint0_linear_816_339" x1="334.839" y1="464.394" x2="202.654" y2="154.709" gradientUnits="userSpaceOnUse">
<stop stop-color="#150132"/>
<stop offset="0.581592" stop-color="#6A29A7"/>
<stop offset="1" stop-color="#150132"/>
</linearGradient>
<linearGradient id="paint1_linear_816_339" x1="326.006" y1="457.922" x2="194.673" y2="142.236" gradientUnits="userSpaceOnUse">
<stop stop-color="#150132"/>
<stop offset="0.581592" stop-color="#6A29A7"/>
<stop offset="1" stop-color="#150132"/>
</linearGradient>
<linearGradient id="paint2_linear_816_339" x1="316.448" y1="450.923" x2="185.924" y2="130.162" gradientUnits="userSpaceOnUse">
<stop stop-color="#150132"/>
<stop offset="0.581592" stop-color="#6A29A7"/>
<stop offset="1" stop-color="#150132"/>
</linearGradient>
<linearGradient id="paint3_linear_816_339" x1="307.658" y1="444.484" x2="177.809" y2="119.825" gradientUnits="userSpaceOnUse">
<stop stop-color="#150132"/>
<stop offset="0.581592" stop-color="#6A29A7"/>
<stop offset="1" stop-color="#150132"/>
</linearGradient>
<linearGradient id="paint4_linear_816_339" x1="298.84" y1="438.026" x2="169.619" y2="109.975" gradientUnits="userSpaceOnUse">
<stop stop-color="#150132"/>
<stop offset="0.581592" stop-color="#6A29A7"/>
<stop offset="1" stop-color="#150132"/>
</linearGradient>
<linearGradient id="paint5_linear_816_339" x1="288.715" y1="432.301" x2="169.213" y2="103.127" gradientUnits="userSpaceOnUse">
<stop stop-color="#150132"/>
<stop offset="0.581592" stop-color="#6A29A7"/>
<stop offset="1" stop-color="#150132"/>
</linearGradient>
<linearGradient id="paint6_linear_816_339" x1="276.601" y1="430.184" x2="199.669" y2="114.414" gradientUnits="userSpaceOnUse">
<stop stop-color="#150132"/>
<stop offset="0.581592" stop-color="#6A29A7"/>
<stop offset="1" stop-color="#150132"/>
</linearGradient>
<linearGradient id="paint7_linear_816_339" x1="265.286" y1="426.605" x2="221.73" y2="132.424" gradientUnits="userSpaceOnUse">
<stop stop-color="#150132"/>
<stop offset="0.581592" stop-color="#6A29A7"/>
<stop offset="1" stop-color="#150132"/>
</linearGradient>
</defs>
</svg>
