<svg width="399" height="528" viewBox="0 0 399 528" fill="none" xmlns="http://www.w3.org/2000/svg">
<path d="M80.0031 527.302C98.8684 505.329 108.605 480.541 101.475 453.364C100.27 448.772 98.6965 442.811 97.1377 436.904C69.7629 333.182 48.8689 254.014 90.3747 182.922C121.204 130.117 258.537 114.391 336.811 109.704L336.682 108.94C258.261 113.653 120.691 129.462 89.7051 182.531C48.0376 253.898 68.9681 333.2 96.39 437.101C97.6919 442.032 99.0142 447.043 100.724 453.56C107.733 480.274 98.282 504.684 79.8431 526.365L80.0014 527.302L80.0031 527.302Z" fill="url(#paint0_linear_1230_704)"/>
<path d="M78.4129 517.886C102.95 493.639 116.971 465.599 108.79 434.419C107.596 429.868 106.014 423.871 104.452 417.96C77.0776 314.238 56.1817 235.069 97.6892 163.976C127.195 113.442 254.247 96.866 333.724 91.4269L333.595 90.6653C253.972 96.1326 126.676 112.794 97.0215 163.587C55.3541 234.953 76.2848 314.258 103.708 418.156C105.007 423.081 106.32 428.056 108.042 434.614C116.104 465.34 102.388 493.017 78.2649 517L78.4146 517.886L78.4129 517.886Z" fill="url(#paint1_linear_1230_704)"/>
<path d="M76.6318 507.346C106.654 481.252 125.253 450.324 116.107 415.467C114.907 410.895 113.331 404.917 111.77 399.008C84.3952 295.286 63.4993 216.117 105.007 145.024C133.257 96.6416 250.927 79.3875 330.649 73.2309L330.521 72.4727C250.651 78.6594 132.734 95.9994 104.339 144.635C62.6716 216.001 83.6023 295.305 111.024 399.204C112.325 404.132 113.643 409.125 115.358 415.662C124.386 450.067 106.109 480.649 76.4894 506.503L76.6318 507.346Z" fill="url(#paint2_linear_1230_704)"/>
<path d="M74.9592 497.45C109.62 470.009 132.456 436.759 122.515 398.871C121.319 394.314 119.737 388.321 118.178 382.414C90.8031 278.691 69.9072 199.522 111.415 128.43C138.607 81.8536 248.667 64.1247 327.97 57.3731L327.842 56.6165C248.388 63.4004 138.082 81.2169 110.745 128.039C69.0776 199.405 90.0083 278.71 117.43 382.61C118.732 387.538 120.045 392.516 121.764 399.068C131.587 436.504 109.088 469.414 74.821 496.632L74.9592 497.45Z" fill="url(#paint3_linear_1230_704)"/>
<path d="M73.2601 487.39C112.259 458.843 139.404 423.492 128.724 382.79C127.522 378.204 125.945 372.235 124.387 366.33C97.0119 262.608 76.116 183.439 117.623 112.346C143.826 67.47 246.958 49.3755 325.386 42.0753L325.258 41.3204C246.676 48.6551 143.297 66.8391 116.956 111.957C75.2884 183.323 96.2188 262.626 123.641 366.526C124.943 371.459 126.262 376.46 127.975 382.986C138.535 423.232 111.739 458.248 73.1239 486.584L73.2601 487.39Z" fill="url(#paint4_linear_1230_704)"/>
<path d="M71.4438 476.647C114.73 447.146 146.517 409.762 135.104 366.265C133.901 361.68 132.325 355.71 130.767 349.806C103.392 246.083 82.4959 166.914 124.003 95.8219C147.582 55.4364 233.469 36.7424 307.585 28.0829L303.624 27.7867C230.241 36.6798 146.638 55.521 123.336 95.4323C81.6682 166.799 102.599 246.103 130.021 350.002C131.323 354.934 132.642 359.936 134.354 366.46C145.645 409.496 114.222 446.549 71.3093 475.851L71.4438 476.647Z" fill="url(#paint5_linear_1230_704)"/>
<path d="M69.6769 466.187C116.848 435.934 153.222 396.718 141.134 350.648C139.937 346.084 138.356 340.096 136.797 334.189C109.422 230.466 88.5258 151.297 130.033 80.2049C146.474 52.0462 193.215 34.4332 245.13 23.4112L242.524 23.2163C191.4 34.3225 145.65 51.9199 129.364 79.8139C87.6962 151.18 108.627 230.485 136.049 334.383C137.35 339.313 138.665 344.298 140.382 350.841C152.348 396.447 116.351 435.334 69.5415 465.396L69.6752 466.188L69.6769 466.187Z" fill="url(#paint6_linear_1230_704)"/>
<path d="M67.7121 454.555C118.896 423.643 160.468 382.535 147.665 333.734C146.462 329.148 144.886 323.179 143.327 317.274C115.952 213.552 95.0565 134.383 136.564 63.2905C147.425 44.6911 171.513 30.6922 201.575 20.154L199.782 20.0192C170.269 30.5566 146.651 44.4812 135.896 62.9026C94.229 134.269 115.16 213.573 142.581 317.472C143.884 322.405 145.204 327.406 146.915 333.93C159.595 382.257 118.414 423.04 67.5798 453.772L67.7121 454.555Z" fill="url(#paint7_linear_1230_704)"/>
<defs>
<linearGradient id="paint0_linear_1230_704" x1="80.8223" y1="380.802" x2="238.214" y2="117.113" gradientUnits="userSpaceOnUse">
<stop stop-color="white"/>
<stop offset="0.544795" stop-color="#023436" stop-opacity="0.31"/>
<stop offset="1" stop-color="white"/>
</linearGradient>
<linearGradient id="paint1_linear_1230_704" x1="78.7277" y1="368.391" x2="240.754" y2="103.184" gradientUnits="userSpaceOnUse">
<stop stop-color="white"/>
<stop offset="0.544795" stop-color="#023436" stop-opacity="0.31"/>
<stop offset="1" stop-color="white"/>
</linearGradient>
<linearGradient id="paint2_linear_1230_704" x1="76.5131" y1="355.285" x2="242.467" y2="88.8718" gradientUnits="userSpaceOnUse">
<stop stop-color="white"/>
<stop offset="0.544795" stop-color="#023436" stop-opacity="0.31"/>
<stop offset="1" stop-color="white"/>
</linearGradient>
<linearGradient id="paint3_linear_1230_704" x1="74.5042" y1="343.398" x2="243.48" y2="76.1074" gradientUnits="userSpaceOnUse">
<stop stop-color="white"/>
<stop offset="0.544795" stop-color="#023436" stop-opacity="0.31"/>
<stop offset="1" stop-color="white"/>
</linearGradient>
<linearGradient id="paint4_linear_1230_704" x1="72.5097" y1="331.59" x2="244.119" y2="63.5697" gradientUnits="userSpaceOnUse">
<stop stop-color="white"/>
<stop offset="0.544795" stop-color="#023436" stop-opacity="0.31"/>
<stop offset="1" stop-color="white"/>
</linearGradient>
<linearGradient id="paint5_linear_1230_704" x1="69.2438" y1="319.403" x2="245.691" y2="60.9256" gradientUnits="userSpaceOnUse">
<stop stop-color="white"/>
<stop offset="0.544795" stop-color="#023436" stop-opacity="0.31"/>
<stop offset="1" stop-color="white"/>
</linearGradient>
<linearGradient id="paint6_linear_1230_704" x1="62.5919" y1="308.551" x2="244.957" y2="97.4049" gradientUnits="userSpaceOnUse">
<stop stop-color="white"/>
<stop offset="0.544795" stop-color="#023436" stop-opacity="0.31"/>
<stop offset="1" stop-color="white"/>
</linearGradient>
<linearGradient id="paint7_linear_1230_704" x1="57.4601" y1="298.047" x2="234.897" y2="126.106" gradientUnits="userSpaceOnUse">
<stop stop-color="white"/>
<stop offset="0.544795" stop-color="#023436" stop-opacity="0.31"/>
<stop offset="1" stop-color="white"/>
</linearGradient>
</defs>
</svg>
