<svg width="251" height="181" viewBox="0 0 251 181" fill="none" xmlns="http://www.w3.org/2000/svg">
<path d="M-268 81.883C-246.342 100.192 -221.996 109.541 -195.437 102.356C-190.949 101.141 -185.124 99.5557 -179.352 97.9851C-77.9889 70.4028 -0.6225 49.3504 69.3034 89.4618C121.242 119.255 137.669 253.618 142.845 330.231L143.592 330.099C138.39 253.342 121.88 118.748 69.6812 88.8032C-0.514466 48.5355 -78.013 69.6246 -179.55 97.2544C-184.368 98.5662 -189.266 99.8986 -195.635 101.622C-221.741 108.685 -245.715 99.6129 -267.084 81.7193L-268 81.8814L-268 81.883Z" fill="url(#paint0_linear_816_465)"/>
<path d="M-258.8 80.2563C-234.873 104.102 -207.311 117.622 -176.84 109.378C-172.392 108.175 -166.531 106.58 -160.755 105.007C-59.3923 77.4247 17.9755 56.3705 87.9017 96.4835C137.607 124.998 154.79 249.287 160.71 327.072L161.455 326.94C155.506 249.012 138.238 124.486 88.2782 95.8268C18.0825 55.5591 -59.4176 76.6485 -160.952 104.28C-165.765 105.589 -170.627 106.911 -177.036 108.647C-207.064 116.771 -234.268 103.547 -257.934 80.1048L-258.8 80.2579L-258.8 80.2563Z" fill="url(#paint1_linear_816_465)"/>
<path d="M-248.492 78.433C-222.715 107.636 -192.291 125.617 -158.227 116.401C-153.759 115.191 -147.917 113.603 -142.142 112.031C-40.7789 84.4482 36.5888 63.3939 106.515 103.507C154.104 130.808 171.88 245.905 178.506 323.925L179.247 323.794C172.591 245.629 154.729 130.291 106.891 102.85C36.6958 62.5825 -40.8043 83.6719 -142.339 111.301C-147.155 112.613 -152.035 113.94 -158.423 115.668C-192.046 124.766 -222.129 107.098 -247.667 78.2873L-248.492 78.433Z" fill="url(#paint2_linear_816_465)"/>
<path d="M-238.814 76.7222C-211.683 110.458 -178.954 132.57 -141.927 122.552C-137.474 121.347 -131.618 119.753 -125.844 118.182C-24.4813 90.5998 52.8864 69.5456 122.813 109.659C168.625 135.938 186.809 243.578 194.014 321.183L194.754 321.052C187.516 243.3 169.244 135.419 123.19 109C52.9947 68.7323 -24.5054 89.8217 -126.042 117.452C-130.858 118.763 -135.723 120.086 -142.126 121.818C-178.711 131.718 -211.105 109.932 -238.014 76.5808L-238.814 76.7222Z" fill="url(#paint3_linear_816_465)"/>
<path d="M-228.976 74.9825C-200.73 112.958 -165.91 139.275 -126.134 128.512C-121.653 127.3 -115.819 125.711 -110.049 124.141C-8.68574 96.5587 68.682 75.5044 138.608 115.617C182.748 140.94 201.239 241.794 208.974 318.538L209.713 318.407C201.942 241.513 183.362 140.417 138.985 114.961C68.789 74.6931 -8.70949 95.7822 -110.246 123.412C-115.067 124.724 -119.954 126.053 -126.331 127.779C-165.662 138.421 -200.152 112.444 -228.188 74.8431L-228.976 74.9825Z" fill="url(#paint4_linear_816_465)"/>
<path d="M-218.47 73.125C-189.257 115.291 -152.412 146.138 -109.904 134.637C-105.423 133.425 -99.5895 131.836 -93.8194 130.266C7.54356 102.684 84.9113 81.6295 154.838 121.743C194.56 144.529 213.509 228.492 222.543 301.004L222.804 297.122C213.546 225.331 194.471 143.606 155.214 121.086C85.0183 80.8182 7.51817 101.908 -94.0168 129.537C-98.8374 130.849 -103.725 132.178 -110.101 133.904C-152.158 145.283 -188.677 114.789 -217.691 72.9873L-218.47 73.125Z" fill="url(#paint5_linear_816_465)"/>
<path d="M-208.24 71.3161C-178.263 117.281 -139.589 152.606 -94.5664 140.424C-90.1061 139.217 -84.2549 137.624 -78.4815 136.054C22.8814 108.471 100.249 87.4169 170.175 127.53C197.872 143.419 215.469 189.056 226.65 239.81L226.822 237.257C215.564 187.279 197.99 142.61 170.553 126.871C100.357 86.6037 22.8574 107.693 -78.6776 135.323C-83.4949 136.634 -88.3668 137.959 -94.7613 139.689C-139.33 151.748 -177.678 116.789 -207.467 71.1776L-208.241 71.3145L-208.24 71.3161Z" fill="url(#paint6_linear_816_465)"/>
<path d="M-196.864 69.3049C-166.211 119.194 -125.646 159.595 -77.9545 146.692C-73.4735 145.48 -67.6398 143.892 -61.8697 142.322C39.4932 114.739 116.861 93.6851 186.787 133.798C205.082 144.294 218.97 167.777 229.514 197.136L229.633 195.379C219.093 166.558 205.281 143.535 187.162 133.142C116.966 92.874 39.4662 113.963 -62.0687 141.593C-66.8893 142.905 -71.7768 144.236 -78.1525 145.96C-125.381 158.738 -165.624 118.718 -196.098 69.1695L-196.864 69.3049Z" fill="url(#paint7_linear_816_465)"/>
<defs>
<linearGradient id="paint0_linear_816_465" x1="-187.716" y1="97.0597" x2="127.389" y2="215.745" gradientUnits="userSpaceOnUse">
<stop stop-color="#150132"/>
<stop offset="0.581592" stop-color="#6A29A7"/>
<stop offset="1" stop-color="#150132"/>
</linearGradient>
<linearGradient id="paint1_linear_816_465" x1="-176.933" y1="95.1545" x2="141.918" y2="218.606" gradientUnits="userSpaceOnUse">
<stop stop-color="#150132"/>
<stop offset="0.581592" stop-color="#6A29A7"/>
<stop offset="1" stop-color="#150132"/>
</linearGradient>
<linearGradient id="paint2_linear_816_465" x1="-165.268" y1="93.0913" x2="156.69" y2="220.637" gradientUnits="userSpaceOnUse">
<stop stop-color="#150132"/>
<stop offset="0.581592" stop-color="#6A29A7"/>
<stop offset="1" stop-color="#150132"/>
</linearGradient>
<linearGradient id="paint3_linear_816_465" x1="-154.537" y1="91.1944" x2="169.768" y2="221.923" gradientUnits="userSpaceOnUse">
<stop stop-color="#150132"/>
<stop offset="0.581592" stop-color="#6A29A7"/>
<stop offset="1" stop-color="#150132"/>
</linearGradient>
<linearGradient id="paint4_linear_816_465" x1="-143.775" y1="89.2912" x2="182.547" y2="222.819" gradientUnits="userSpaceOnUse">
<stop stop-color="#150132"/>
<stop offset="0.581592" stop-color="#6A29A7"/>
<stop offset="1" stop-color="#150132"/>
</linearGradient>
<linearGradient id="paint5_linear_816_465" x1="-132.637" y1="85.9372" x2="187.774" y2="227.262" gradientUnits="userSpaceOnUse">
<stop stop-color="#150132"/>
<stop offset="0.581592" stop-color="#6A29A7"/>
<stop offset="1" stop-color="#150132"/>
</linearGradient>
<linearGradient id="paint6_linear_816_465" x1="-122.731" y1="78.6505" x2="158.559" y2="241.455" gradientUnits="userSpaceOnUse">
<stop stop-color="#150132"/>
<stop offset="0.581592" stop-color="#6A29A7"/>
<stop offset="1" stop-color="#150132"/>
</linearGradient>
<linearGradient id="paint7_linear_816_465" x1="-112.321" y1="72.9529" x2="130.294" y2="244.935" gradientUnits="userSpaceOnUse">
<stop stop-color="#150132"/>
<stop offset="0.581592" stop-color="#6A29A7"/>
<stop offset="1" stop-color="#150132"/>
</linearGradient>
</defs>
</svg>
