<svg width="489" height="491" viewBox="0 0 489 491" fill="none" xmlns="http://www.w3.org/2000/svg">
<path d="M0.0010136 296.58C24.9063 298.549 47.1306 292.726 62.4406 273.936C65.0269 270.761 68.3807 266.633 71.7032 262.543C130.053 190.716 174.589 135.893 245.234 128.656C297.707 123.281 378.512 210.975 421.588 263.131L422.055 262.653C378.886 210.407 297.903 122.59 245.166 127.991C174.247 135.254 129.636 190.171 71.1862 262.122C68.4124 265.537 65.5933 269.007 61.9216 273.513C46.8728 291.983 25.0575 297.813 0.572383 295.992L-1.32084e-05 296.579L0.0010136 296.58Z" fill="url(#paint0_linear_819_196)"/>
<path d="M5.75255 290.683C35.1274 295.448 61.7959 290.957 79.3604 269.398C81.9245 266.252 85.2984 262.099 88.6229 258.005C146.972 186.178 191.508 131.353 262.155 124.117C312.373 118.975 388.541 199.072 432.753 251.684L433.218 251.207C388.912 198.507 312.561 118.284 262.087 123.454C191.168 130.717 146.555 185.635 88.1081 257.586C85.3373 260.996 82.5383 264.441 78.8444 268.976C61.5352 290.221 35.275 294.74 6.2947 290.129L5.7536 290.684L5.75255 290.683Z" fill="url(#paint1_linear_819_196)"/>
<path d="M12.1917 284.08C45.6426 291.728 76.6517 288.958 96.2881 264.857C98.8633 261.696 102.227 257.557 105.551 253.464C163.9 181.637 208.436 126.812 279.083 119.577C327.163 114.653 399.032 187.869 443.868 240.287L444.331 239.812C399.399 187.306 327.344 113.962 279.015 118.913C208.096 126.177 163.483 181.095 105.035 253.044C102.263 256.457 99.4539 259.915 95.7711 264.434C76.39 288.223 45.7853 291.042 12.7064 283.553L12.1917 284.08Z" fill="url(#paint2_linear_819_196)"/>
<path d="M18.2365 277.883C54.9853 288.077 89.7669 287.079 111.111 260.882C113.678 257.731 117.049 253.581 120.373 249.49C178.722 177.663 223.258 122.838 293.905 115.603C340.188 110.862 408.517 178.533 453.555 230.356L454.017 229.882C408.88 177.97 340.365 110.172 293.836 114.937C222.918 122.201 178.305 177.119 119.856 249.069C117.084 252.482 114.283 255.929 110.592 260.459C89.5031 286.344 55.1292 287.404 18.7361 277.371L18.2365 277.883Z" fill="url(#paint3_linear_819_196)"/>
<path d="M24.3813 271.582C64.1071 284.237 102.545 285.172 125.474 257.029C128.057 253.859 131.415 249.725 134.737 245.636C193.086 173.809 237.622 118.984 308.269 111.748C352.865 107.182 417.925 169.84 462.899 220.774L463.361 220.301C418.283 169.277 353.035 106.493 308.201 111.085C237.282 118.349 192.67 173.266 134.221 245.216C131.446 248.632 128.632 252.095 124.956 256.607C102.285 284.434 64.2572 283.572 24.8738 271.077L24.3813 271.582Z" fill="url(#paint4_linear_819_196)"/>
<path d="M30.9439 264.854C73.5149 280.011 115.73 283.146 140.234 253.071C142.817 249.901 146.175 245.767 149.496 241.678C207.846 169.851 252.382 115.026 323.028 107.791C363.16 103.68 419.868 154.017 463.597 201.256L461.788 198.345C418.27 151.736 362.621 103.065 322.96 107.127C252.041 114.391 207.429 169.309 148.98 241.258C146.206 244.674 143.391 248.137 139.717 252.648C115.473 282.403 73.6723 279.353 31.4304 264.355L30.9439 264.854Z" fill="url(#paint5_linear_819_196)"/>
<path d="M37.3335 258.303C82.4041 275.784 128.229 281.184 154.182 249.33C156.753 246.174 160.121 242.028 163.445 237.937C221.794 166.109 266.33 111.285 336.977 104.049C364.959 101.183 401.004 124.793 435.087 155.361L433.898 153.447C400.158 123.473 364.628 100.545 336.909 103.384C265.99 110.647 221.377 165.565 162.929 237.514C160.156 240.928 157.351 244.38 153.665 248.905C127.974 280.437 82.5698 275.132 37.8159 257.806L37.3325 258.301L37.3335 258.303Z" fill="url(#paint6_linear_819_196)"/>
<path d="M44.4393 251.017C92.0102 270.959 141.797 279.019 169.289 245.277C171.872 242.107 175.23 237.973 178.552 233.884C236.901 162.057 281.437 107.232 352.084 99.9966C370.567 98.1046 392.573 107.769 415.205 123.356L414.387 122.039C392.034 106.833 370.32 97.4588 352.015 99.3342C281.096 106.598 236.483 161.516 178.035 233.465C175.26 236.881 172.447 240.345 168.771 244.855C141.546 278.269 92.1852 270.317 44.9176 250.527L44.4393 251.017Z" fill="url(#paint7_linear_819_196)"/>
<defs>
<linearGradient id="paint0_linear_819_196" x1="102.496" y1="222.641" x2="366.279" y2="198.198" gradientUnits="userSpaceOnUse">
<stop stop-color="#023436"/>
<stop offset="0.544795" stop-color="#00F1B5" stop-opacity="0.28"/>
<stop offset="1" stop-color="#023436"/>
</linearGradient>
<linearGradient id="paint1_linear_819_196" x1="110.078" y1="214.87" x2="377.276" y2="192.883" gradientUnits="userSpaceOnUse">
<stop stop-color="#023436"/>
<stop offset="0.544795" stop-color="#00F1B5" stop-opacity="0.28"/>
<stop offset="1" stop-color="#023436"/>
</linearGradient>
<linearGradient id="paint2_linear_819_196" x1="118.084" y1="206.661" x2="388.121" y2="186.798" gradientUnits="userSpaceOnUse">
<stop stop-color="#023436"/>
<stop offset="0.544795" stop-color="#00F1B5" stop-opacity="0.28"/>
<stop offset="1" stop-color="#023436"/>
</linearGradient>
<linearGradient id="paint3_linear_819_196" x1="125.346" y1="199.216" x2="397.53" y2="181.013" gradientUnits="userSpaceOnUse">
<stop stop-color="#023436"/>
<stop offset="0.544795" stop-color="#00F1B5" stop-opacity="0.28"/>
<stop offset="1" stop-color="#023436"/>
</linearGradient>
<linearGradient id="paint4_linear_819_196" x1="132.559" y1="191.82" x2="406.591" y2="175.081" gradientUnits="userSpaceOnUse">
<stop stop-color="#023436"/>
<stop offset="0.544795" stop-color="#00F1B5" stop-opacity="0.28"/>
<stop offset="1" stop-color="#023436"/>
</linearGradient>
<linearGradient id="paint5_linear_819_196" x1="139.39" y1="183.347" x2="409.233" y2="174.832" gradientUnits="userSpaceOnUse">
<stop stop-color="#023436"/>
<stop offset="0.544795" stop-color="#00F1B5" stop-opacity="0.28"/>
<stop offset="1" stop-color="#023436"/>
</linearGradient>
<linearGradient id="paint6_linear_819_196" x1="143.569" y1="173.193" x2="383.442" y2="192.874" gradientUnits="userSpaceOnUse">
<stop stop-color="#023436"/>
<stop offset="0.544795" stop-color="#00F1B5" stop-opacity="0.28"/>
<stop offset="1" stop-color="#023436"/>
</linearGradient>
<linearGradient id="paint7_linear_819_196" x1="148.277" y1="164.274" x2="358.327" y2="200.461" gradientUnits="userSpaceOnUse">
<stop stop-color="#023436"/>
<stop offset="0.544795" stop-color="#00F1B5" stop-opacity="0.28"/>
<stop offset="1" stop-color="#023436"/>
</linearGradient>
</defs>
</svg>
