<svg width="474" height="675" viewBox="0 0 474 675" fill="none" xmlns="http://www.w3.org/2000/svg">
<path d="M93.1433 674.393C113.169 645.089 121.697 613.582 109.356 581.435C107.27 576.004 104.552 568.953 101.858 561.968C54.561 439.297 18.4609 345.668 59.4608 253.482C89.9142 185.01 255.096 147.383 349.817 131.145L349.557 130.232C254.66 146.52 89.2009 184.281 58.5925 253.096C17.4325 345.637 53.5952 439.427 100.974 562.308C103.223 568.14 105.508 574.066 108.467 581.776C120.599 613.375 112.368 644.382 92.8224 673.273L93.1413 674.393L93.1433 674.393Z" fill="url(#paint0_linear_1212_2817)"/>
<path d="M89.9397 663.138C116.569 630.3 129.878 594.257 115.718 557.375C113.653 551.991 110.918 544.898 108.221 537.908C60.9237 415.237 24.8211 321.606 65.8229 229.42C94.9699 163.892 247.512 126.612 343.598 109.297L343.339 108.386C247.078 125.756 94.2509 163.172 64.9572 229.035C23.7972 321.576 59.9605 415.368 107.341 538.246C109.586 544.071 111.854 549.955 114.833 557.712C128.787 594.058 115.801 629.618 89.6403 662.078L89.9417 663.137L89.9397 663.138Z" fill="url(#paint1_linear_1212_2817)"/>
<path d="M86.3505 650.537C119.413 614.712 137.911 574.535 122.082 533.303C120.005 527.895 117.281 520.825 114.585 513.836C67.2871 391.166 31.1844 297.534 72.1863 205.349C100.092 142.611 241.116 105.766 337.403 87.5441L337.145 86.6376C240.681 104.916 99.3692 141.899 71.3206 204.964C30.1606 297.505 66.3239 391.297 113.702 514.175C115.95 520.003 118.227 525.909 121.195 533.641C136.82 574.338 118.668 614.051 86.0638 649.529L86.3505 650.537Z" fill="url(#paint2_linear_1212_2817)"/>
<path d="M82.9837 638.706C121.516 600.616 144.862 557.041 127.657 512.224C125.587 506.833 122.854 499.746 120.16 492.759C72.8627 370.088 36.7601 276.457 77.762 184.271C104.623 123.876 236.311 87.4766 332.008 68.5863L331.75 67.6818C235.874 86.6319 103.898 123.171 76.8937 183.885C35.7338 276.426 71.897 370.218 119.276 493.099C121.524 498.927 123.793 504.815 126.769 512.565C143.77 556.847 120.788 599.963 82.7054 637.728L82.9837 638.706Z" fill="url(#paint3_linear_1212_2817)"/>
<path d="M79.5604 626.681C123.229 586.661 151.542 539.946 133.057 491.8C130.976 486.376 128.253 479.316 125.56 472.333C78.2625 349.662 42.1599 256.031 83.1618 163.845C109.046 105.653 232.245 69.7405 326.802 50.2996L326.545 49.3971C231.805 68.9009 108.316 104.956 82.296 163.46C41.1361 256.001 77.2987 349.791 124.677 472.672C126.927 478.506 129.207 484.421 132.171 492.14C150.448 539.746 122.515 586.006 79.286 625.717L79.5604 626.681Z" fill="url(#paint4_linear_1212_2817)"/>
<path d="M75.9063 613.838C124.669 572.078 158.364 522.263 138.61 470.811C136.528 465.387 133.805 458.327 131.113 451.344C83.8152 328.673 47.7126 235.042 88.7144 142.856C112.006 90.4882 214.117 56.1643 303.239 35.6474L298.374 35.8192C210.177 56.5222 110.868 90.7181 87.8487 142.471C46.6887 235.012 82.852 328.804 130.23 451.683C132.48 457.517 134.759 463.432 137.723 471.149C157.265 522.055 123.969 571.419 75.6353 612.886L75.9063 613.838Z" fill="url(#paint5_linear_1212_2817)"/>
<path d="M72.3464 601.334C125.74 558.136 164.777 505.472 143.855 450.976C141.782 445.577 139.051 438.496 136.357 431.509C89.0597 308.838 52.9571 215.207 93.959 123.021C110.2 86.5079 164.769 58.7659 226.529 38.3569L223.328 38.4699C162.544 58.875 109.179 86.4649 93.0907 122.635C51.9308 215.176 88.094 308.968 135.472 431.847C137.721 437.677 139.993 443.573 142.965 451.313C163.675 505.259 125.054 557.472 72.0752 600.388L72.3445 601.334L72.3464 601.334Z" fill="url(#paint6_linear_1212_2817)"/>
<path d="M68.3882 587.428C126.582 542.887 171.696 487.219 149.535 429.493C147.453 424.069 144.73 417.009 142.037 410.026C94.74 287.355 58.6374 193.724 99.6392 101.538C110.368 77.4198 137.829 57.127 173.032 40.2464L170.831 40.3233C136.296 57.1291 109.397 77.2682 98.7741 101.155C57.6141 193.696 93.7773 287.488 141.155 410.367C143.405 416.201 145.687 422.115 148.648 429.833C170.594 486.998 125.913 542.217 68.1218 586.491L68.3882 587.428Z" fill="url(#paint7_linear_1212_2817)"/>
<defs>
<linearGradient id="paint0_linear_1212_2817" x1="30.2598" y1="594.853" x2="204.813" y2="148.791" gradientUnits="userSpaceOnUse">
<stop stop-color="#2047F4"/>
<stop offset="0.530624" stop-color="white" stop-opacity="0.23"/>
<stop offset="1" stop-color="#2047F4"/>
</linearGradient>
<linearGradient id="paint1_linear_1212_2817" x1="26.5184" y1="581.701" x2="207.911" y2="131.564" gradientUnits="userSpaceOnUse">
<stop stop-color="#2047F4"/>
<stop offset="0.530624" stop-color="white" stop-opacity="0.23"/>
<stop offset="1" stop-color="#2047F4"/>
</linearGradient>
<linearGradient id="paint2_linear_1212_2817" x1="22.4667" y1="567.475" x2="209.697" y2="114.004" gradientUnits="userSpaceOnUse">
<stop stop-color="#2047F4"/>
<stop offset="0.530624" stop-color="white" stop-opacity="0.23"/>
<stop offset="1" stop-color="#2047F4"/>
</linearGradient>
<linearGradient id="paint3_linear_1212_2817" x1="18.7409" y1="554.383" x2="210.486" y2="98.4234" gradientUnits="userSpaceOnUse">
<stop stop-color="#2047F4"/>
<stop offset="0.530624" stop-color="white" stop-opacity="0.23"/>
<stop offset="1" stop-color="#2047F4"/>
</linearGradient>
<linearGradient id="paint4_linear_1212_2817" x1="15.0022" y1="541.251" x2="210.701" y2="83.174" gradientUnits="userSpaceOnUse">
<stop stop-color="#2047F4"/>
<stop offset="0.530624" stop-color="white" stop-opacity="0.23"/>
<stop offset="1" stop-color="#2047F4"/>
</linearGradient>
<linearGradient id="paint5_linear_1212_2817" x1="12.8072" y1="526.867" x2="218.933" y2="80.7271" gradientUnits="userSpaceOnUse">
<stop stop-color="#2047F4"/>
<stop offset="0.530624" stop-color="white" stop-opacity="0.23"/>
<stop offset="1" stop-color="#2047F4"/>
</linearGradient>
<linearGradient id="paint6_linear_1212_2817" x1="16.0436" y1="511.618" x2="246.655" y2="132.476" gradientUnits="userSpaceOnUse">
<stop stop-color="#2047F4"/>
<stop offset="0.530624" stop-color="white" stop-opacity="0.23"/>
<stop offset="1" stop-color="#2047F4"/>
</linearGradient>
<linearGradient id="paint7_linear_1212_2817" x1="17.0816" y1="496.685" x2="253.296" y2="177.722" gradientUnits="userSpaceOnUse">
<stop stop-color="#2047F4"/>
<stop offset="0.530624" stop-color="white" stop-opacity="0.23"/>
<stop offset="1" stop-color="#2047F4"/>
</linearGradient>
</defs>
</svg>
