<svg width="218" height="373" viewBox="0 0 218 373" fill="none" xmlns="http://www.w3.org/2000/svg">
<path d="M326.173 372.657C325.433 347.685 317.237 326.222 296.898 313.038C293.462 310.811 288.994 307.924 284.569 305.064C206.843 254.84 147.517 216.506 132.67 147.06C121.641 95.4779 200.064 5.64779 247.246 -42.8252L246.72 -43.2369C199.459 5.33772 120.933 95.358 132.015 147.2C146.92 216.914 206.347 255.314 284.206 305.624C287.901 308.011 291.656 310.438 296.534 313.6C316.526 326.559 324.684 347.614 325.527 372.152L326.172 372.658L326.173 372.657Z" fill="url(#paint0_linear_1097_426)"/>
<path d="M319.687 367.578C321.242 337.86 313.888 311.835 290.553 296.709C287.148 294.501 282.654 291.597 278.224 288.736C200.498 238.511 141.17 200.177 126.323 130.731C115.771 81.365 187.145 -3.03236 234.657 -52.6835L234.132 -53.0943C186.543 -3.33975 115.063 81.2533 125.671 130.87C140.576 200.585 200.004 238.985 277.863 289.293C281.553 291.678 285.281 294.087 290.189 297.268C313.185 312.174 320.522 337.79 319.078 367.099L319.688 367.577L319.687 367.578Z" fill="url(#paint1_linear_1097_426)"/>
<path d="M312.426 361.892C316.405 327.809 310.291 297.283 284.205 280.373C280.783 278.156 276.305 275.26 271.876 272.4C194.15 222.175 134.823 183.841 119.976 114.394C109.872 67.1309 174.871 -12.2476 222.122 -62.4988L221.6 -62.9078C174.271 -12.5512 109.166 67.0252 119.323 114.534C134.228 184.249 193.656 222.649 271.514 272.958C275.207 275.344 278.949 277.762 283.841 280.933C309.589 297.623 315.707 327.742 311.846 361.437L312.426 361.892Z" fill="url(#paint2_linear_1097_426)"/>
<path d="M305.61 356.554C311.763 318.917 307.002 284.448 278.648 266.068C275.237 263.857 270.746 260.956 266.319 258.095C188.593 207.871 129.266 169.537 114.419 100.09C104.692 54.5927 164.561 -20.6657 211.2 -71.0526L210.679 -71.4607C163.962 -20.9652 103.987 54.492 113.765 100.23C128.669 169.945 188.097 208.345 265.956 258.655C269.65 261.041 273.38 263.452 278.283 266.63C306.3 284.79 311.079 318.847 305.047 356.113L305.61 356.554Z" fill="url(#paint3_linear_1097_426)"/>
<path d="M298.681 351.128C306.957 310.265 303.722 271.952 273.261 252.207C269.83 249.982 265.356 247.092 260.931 244.233C183.205 194.009 123.878 155.675 109.031 86.2284C99.6603 42.3898 154.901 -29.0761 200.662 -79.3041L200.142 -79.7113C154.302 -29.3715 98.9561 42.2952 108.379 86.368C123.283 156.082 182.71 194.482 260.569 244.792C264.266 247.18 268.013 249.603 272.897 252.768C303.017 272.291 306.28 310.188 298.126 350.693L298.681 351.128Z" fill="url(#paint4_linear_1097_426)"/>
<path d="M291.282 345.333C301.737 301.371 300.281 259.064 267.728 237.963C264.297 235.739 259.823 232.848 255.398 229.99C177.672 179.765 118.345 141.431 103.498 71.9844C95.0637 32.534 138.96 -29.2931 181.184 -77.8825L178.486 -75.7695C136.866 -27.4573 94.511 33.1364 102.846 72.1241C117.75 141.839 177.178 180.239 255.036 230.548C258.733 232.936 262.48 235.359 267.363 238.523C299.57 259.401 301.066 301.285 290.733 344.904L291.282 345.333Z" fill="url(#paint5_linear_1097_426)"/>
<path d="M284.077 339.691C296.572 292.992 296.976 246.851 262.497 224.502C259.082 222.288 254.595 219.389 250.168 216.528C172.442 166.304 113.115 127.97 98.2676 58.5233C92.3872 31.0162 111.953 -7.37399 138.649 -44.5689L136.874 -43.179C110.732 -6.39045 91.7882 31.4146 97.6135 58.6631C112.518 128.378 171.946 166.778 249.804 217.087C253.498 219.474 257.233 221.888 262.131 225.062C296.261 247.186 295.907 292.897 283.531 339.265L284.076 339.692L284.077 339.691Z" fill="url(#paint6_linear_1097_426)"/>
<path d="M276.064 333.416C290.735 283.965 293.353 233.598 256.831 209.923C253.4 207.699 248.926 204.808 244.502 201.95C166.776 151.725 107.449 113.391 92.6016 43.9444C88.7182 25.7746 95.9416 2.85189 108.985 -21.3359L107.764 -20.3802C95.0699 3.48815 88.103 26.0904 91.9506 44.0849C106.855 113.799 166.283 152.2 244.141 202.509C247.838 204.897 251.586 207.318 256.468 210.484C292.634 233.928 290.077 283.86 275.524 332.994L276.064 333.416Z" fill="url(#paint7_linear_1097_426)"/>
<defs>
<linearGradient id="paint0_linear_1097_426" x1="308.604" y1="306.581" x2="169.436" y2="-26.6406" gradientUnits="userSpaceOnUse">
<stop stop-color="#020202"/>
<stop offset="0.544795" stop-color="#FF6100" stop-opacity="0.78"/>
<stop offset="1" stop-color="#020202"/>
</linearGradient>
<linearGradient id="paint1_linear_1097_426" x1="301.215" y1="300.794" x2="162.864" y2="-38.9737" gradientUnits="userSpaceOnUse">
<stop stop-color="#020202"/>
<stop offset="0.544795" stop-color="#FF6100" stop-opacity="0.78"/>
<stop offset="1" stop-color="#020202"/>
</linearGradient>
<linearGradient id="paint2_linear_1097_426" x1="293.179" y1="294.501" x2="155.613" y2="-50.808" gradientUnits="userSpaceOnUse">
<stop stop-color="#020202"/>
<stop offset="0.544795" stop-color="#FF6100" stop-opacity="0.78"/>
<stop offset="1" stop-color="#020202"/>
</linearGradient>
<linearGradient id="paint3_linear_1097_426" x1="285.762" y1="288.693" x2="148.857" y2="-60.8762" gradientUnits="userSpaceOnUse">
<stop stop-color="#020202"/>
<stop offset="0.544795" stop-color="#FF6100" stop-opacity="0.78"/>
<stop offset="1" stop-color="#020202"/>
</linearGradient>
<linearGradient id="paint4_linear_1097_426" x1="278.305" y1="282.853" x2="142.018" y2="-70.4263" gradientUnits="userSpaceOnUse">
<stop stop-color="#020202"/>
<stop offset="0.544795" stop-color="#FF6100" stop-opacity="0.78"/>
<stop offset="1" stop-color="#020202"/>
</linearGradient>
<linearGradient id="paint5_linear_1097_426" x1="269.212" y1="278.199" x2="142.971" y2="-76.6137" gradientUnits="userSpaceOnUse">
<stop stop-color="#020202"/>
<stop offset="0.544795" stop-color="#FF6100" stop-opacity="0.78"/>
<stop offset="1" stop-color="#020202"/>
</linearGradient>
<linearGradient id="paint6_linear_1097_426" x1="256.865" y1="278.387" x2="175.21" y2="-63.5517" gradientUnits="userSpaceOnUse">
<stop stop-color="#020202"/>
<stop offset="0.544795" stop-color="#FF6100" stop-opacity="0.78"/>
<stop offset="1" stop-color="#020202"/>
</linearGradient>
<linearGradient id="paint7_linear_1097_426" x1="245.691" y1="276.508" x2="199.618" y2="-43.5282" gradientUnits="userSpaceOnUse">
<stop stop-color="#020202"/>
<stop offset="0.544795" stop-color="#FF6100" stop-opacity="0.78"/>
<stop offset="1" stop-color="#020202"/>
</linearGradient>
</defs>
</svg>
