<svg width="130" height="135" viewBox="0 0 130 135" fill="none" xmlns="http://www.w3.org/2000/svg">
<g opacity="0.6">
<path d="M6.05095 86.9592L1.00292 3.67271C0.957549 2.99208 1.44535 2.40222 2.11463 2.32281C15.3529 0.655265 133.828 -11.5961 82.2816 89.4662C82.2816 89.4662 56.6331 77.9295 7.60505 88.1276C6.83367 88.2864 6.09632 87.7419 6.05095 86.9592Z" stroke="url(#paint0_linear_1080_1862)" stroke-width="1.5" stroke-miterlimit="10"/>
<path d="M84.0522 85.8929C75.8959 83.2384 49.9526 76.8291 13.5615 83.1477C13.4367 81.0264 11.4856 79.4836 9.387 79.8466L5.11035 9.26523C7.05015 9.09507 8.50217 7.42753 8.37738 5.47639C25.6427 4.03572 71.3584 3.03747 93.8532 34.7435" stroke="url(#paint1_linear_1080_1862)" stroke-width="1.5" stroke-miterlimit="10"/>
<path d="M82.2816 89.4662L78.6969 96.3519C78.1524 97.3955 78.7196 98.666 79.8653 98.9723C86.2633 100.663 105.196 107.548 123.426 132.686C125.229 135.171 129.154 133.424 128.519 130.417C123.017 104.383 109.654 50.1938 89.0992 24.0122" stroke="url(#paint2_linear_1080_1862)" stroke-width="1.5" stroke-miterlimit="10"/>
<path d="M114.521 77.4303C119.773 91.8256 122.995 111.167 124.424 121.331C123.267 119.947 120.987 120.945 121.259 122.738C110.471 109.67 94.6241 100.039 88.2602 96.4766C89.043 94.9225 88.4644 93.0394 86.9443 92.1887C91.2323 83.7488 103.041 57.7488 97.6189 37.0236" stroke="url(#paint3_linear_1080_1862)" stroke-width="1.5" stroke-miterlimit="10" stroke-linecap="round" stroke-linejoin="round"/>
<path d="M93.0582 33.4047L87.0914 32.5085C86.9099 32.4859 86.8078 32.5653 86.7737 32.7468L86.1838 36.7171C83.847 37.0688 81.7824 38.0784 80.0241 39.7573C78.2545 41.4361 77.1768 43.5461 76.8025 46.1098C76.4508 48.4353 76.6323 50.6133 77.3357 52.6325C78.039 54.6517 79.3662 56.4213 81.34 57.9301C82.3496 58.6901 83.4387 59.5069 84.6184 60.3804C85.7982 61.2538 86.6489 61.9231 87.1935 62.3769C88.827 63.6474 89.5303 64.9973 89.3261 66.4039C89.1673 67.5043 88.6114 68.4345 87.6812 69.2059C86.751 69.9772 85.6847 70.2722 84.505 70.102C83.3592 69.9319 82.4404 69.342 81.7257 68.321C81.0111 67.3001 80.7502 66.1997 80.9203 65.0086L81.306 62.3996C81.3287 62.2181 81.2833 62.116 81.1472 62.0933L74.9081 61.1631C74.7266 61.1404 74.6245 61.2085 74.5904 61.4013L74.2047 64.0104C73.8304 66.5174 74.2388 68.8882 75.4185 71.0889C76.6096 73.301 78.2885 74.9118 80.4666 75.9441L79.8767 79.9144C79.854 80.0959 79.9221 80.198 80.1149 80.2321L85.9456 81.1056C86.1612 80.7993 86.3654 80.493 86.5696 80.1867L87.0687 76.8629C87.6132 76.7722 88.135 76.6361 88.6455 76.4773C89.6778 74.3446 90.5399 72.1212 91.3907 69.9319C92.1734 67.9353 92.6839 65.8821 93.1376 63.8062C92.9448 63.4659 92.8427 63.0575 92.8994 62.5924C93.0582 61.2425 93.2511 59.8926 93.4439 58.554C92.9108 57.9981 92.3322 57.465 91.6629 56.9659L86.4448 52.9615C85.231 51.9859 84.4369 51.0671 84.0625 50.1936C83.6769 49.3201 83.5748 48.3105 83.7449 47.1648C83.9264 45.9737 84.4709 45.0095 85.4011 44.2608C86.3313 43.5121 87.3636 43.2285 88.5093 43.3986C89.6097 43.5574 90.5172 44.1019 91.2432 45.0321C91.9692 45.9623 92.2301 47.0854 92.0373 48.4126L91.4134 53.0182C91.3907 53.1543 91.4474 53.2337 91.5835 53.2564L94.1132 53.6308C94.3741 51.5548 94.601 49.4676 94.669 47.369C94.7484 44.7258 94.7031 42.0487 94.5216 39.4056C94.5102 39.2127 94.4762 39.0312 94.4535 38.8384C93.9317 38.4527 93.3759 38.1011 92.7746 37.8061L93.3759 33.7677C93.3872 33.5408 93.2965 33.4387 93.0582 33.4047Z" fill="url(#paint4_linear_1080_1862)"/>
<path d="M40.1431 56.7437C44.8667 54.2049 46.6378 48.3176 44.0991 43.594C41.5603 38.8704 35.673 37.0992 30.9493 39.638C26.2257 42.1768 24.4546 48.0641 26.9934 52.7877C29.5321 57.5113 35.4195 59.2825 40.1431 56.7437Z" stroke="url(#paint5_linear_1080_1862)" stroke-width="1.5" stroke-miterlimit="10"/>
<path d="M116.891 84.679C115.076 85.8815 112.852 86.494 110.516 86.2558C105.173 85.7113 101.293 80.9355 101.849 75.5926C102.325 70.9189 106.046 67.3683 110.538 66.9146" stroke="url(#paint6_linear_1080_1862)" stroke-width="1.5" stroke-miterlimit="10"/>
</g>
<defs>
<linearGradient id="paint0_linear_1080_1862" x1="48.0996" y1="1" x2="48.0996" y2="89.4662" gradientUnits="userSpaceOnUse">
<stop offset="0.5" stop-color="#FF6100"/>
<stop offset="0.56" stop-color="#FF6100"/>
<stop offset="1" stop-color="#020202"/>
</linearGradient>
<linearGradient id="paint1_linear_1080_1862" x1="49.4818" y1="4.9231" x2="49.4818" y2="85.8929" gradientUnits="userSpaceOnUse">
<stop offset="0.5" stop-color="#FF6100"/>
<stop offset="0.56" stop-color="#FF6100"/>
<stop offset="1" stop-color="#020202"/>
</linearGradient>
<linearGradient id="paint2_linear_1080_1862" x1="103.538" y1="24.0122" x2="103.538" y2="133.87" gradientUnits="userSpaceOnUse">
<stop offset="0.5" stop-color="#FF6100"/>
<stop offset="0.56" stop-color="#FF6100"/>
<stop offset="1" stop-color="#020202"/>
</linearGradient>
<linearGradient id="paint3_linear_1080_1862" x1="105.684" y1="37.0236" x2="105.684" y2="122.738" gradientUnits="userSpaceOnUse">
<stop offset="0.5" stop-color="#FF6100"/>
<stop offset="0.56" stop-color="#FF6100"/>
<stop offset="1" stop-color="#020202"/>
</linearGradient>
<linearGradient id="paint4_linear_1080_1862" x1="84.3884" y1="32.5048" x2="84.3884" y2="81.1055" gradientUnits="userSpaceOnUse">
<stop stop-color="#020202"/>
<stop offset="1" stop-color="#FF6100"/>
</linearGradient>
<linearGradient id="paint5_linear_1080_1862" x1="30.9493" y1="39.638" x2="40.1431" y2="56.7437" gradientUnits="userSpaceOnUse">
<stop offset="0.5" stop-color="#FF6100"/>
<stop offset="0.56" stop-color="#FF6100"/>
<stop offset="1" stop-color="#020202"/>
</linearGradient>
<linearGradient id="paint6_linear_1080_1862" x1="109.343" y1="66.9146" x2="109.343" y2="86.3066" gradientUnits="userSpaceOnUse">
<stop offset="0.5" stop-color="#FF6100"/>
<stop offset="0.56" stop-color="#FF6100"/>
<stop offset="1" stop-color="#020202"/>
</linearGradient>
</defs>
</svg>
