<svg width="287" height="682" viewBox="0 0 287 682" fill="none" xmlns="http://www.w3.org/2000/svg">
<path d="M260.281 565.664C247.364 570.51 234.08 575.361 220.122 575.619C208.774 575.828 197.467 573.176 187.189 568.421C165.086 558.195 148.801 538.771 141.284 515.745C133.198 490.979 134.911 463.895 143.905 439.631C152.954 415.221 168.712 393.887 187.384 375.956C207.009 357.11 229.417 341.494 249.534 323.208C259.59 314.069 269.099 304.222 277.006 293.139C284.42 282.748 290.174 271.364 294.308 259.293C309.732 214.262 304.264 164.435 323.273 120.374C342.395 76.0459 386.119 43.7141 433.736 36.9413C440.09 36.0376 446.468 35.8132 452.86 35.3547C458.35 34.961 463.722 34.8981 469.169 35.8099C479.313 37.5079 488.85 41.947 497.049 48.0991C515.019 61.5852 525.904 82.3609 528.984 104.4C536.771 160.108 501.965 208.786 477.025 255.263C463.587 280.308 452.143 306.794 449.556 335.389C446.938 364.332 452.044 393.19 456.396 421.702C460.531 448.785 464.144 476.499 459.787 503.794C456.001 527.509 446.034 551.529 427.258 567.266C410.627 581.208 387.197 588.663 365.835 582.729C353.974 579.435 344.23 571.806 333.994 565.318C328.415 561.781 322.571 558.544 316.192 556.7C310.054 554.925 303.629 554.494 297.281 555.076C284.436 556.255 272.248 561.165 260.281 565.664C259.942 565.792 259.796 565.245 260.134 565.118C271.645 560.791 283.298 556.147 295.596 554.689C307.658 553.259 318.928 555.915 329.431 561.898C340.208 568.037 349.82 576.367 361.549 580.747C372.416 584.806 384.372 585.109 395.62 582.53C419.418 577.075 438.034 559.929 448.598 538.327C460.191 514.619 462.403 487.678 460.646 461.69C458.744 433.55 452.553 405.935 449.72 377.899C448.327 364.108 447.735 350.182 448.907 336.353C450.023 323.185 452.911 310.289 457.196 297.797C475.027 245.816 514.161 203.108 526.126 148.843C531.479 124.566 531.119 97.9008 519.357 75.4697C509.444 56.5629 491.818 40.763 470.468 36.6186C464.971 35.5511 459.482 35.4285 453.915 35.8428C446.944 36.3604 439.98 36.5797 433.055 37.6078C421.205 39.3673 409.593 42.7162 398.584 47.4326C376.249 57.0005 356.285 72.1715 341.279 91.2999C326.275 110.424 317.798 132.834 313.086 156.501C308.534 179.362 306.942 202.674 303.059 225.642C299.134 248.859 292.489 271.578 279.056 291.187C264.492 312.446 244.368 328.99 224.502 345.057C204.096 361.561 183.433 378.049 167.356 399.005C151.196 420.068 139.44 445.148 137.084 471.815C134.795 497.727 141.164 525.133 158.063 545.372C173.259 563.57 196.571 575.615 220.522 575.045C234.284 574.717 247.393 569.899 260.133 565.119C260.474 564.991 260.62 565.537 260.281 565.664Z" fill="url(#paint0_linear_788_341)"/>
<path d="M267.014 559.129C254.492 563.828 241.611 568.53 228.08 568.78C217.078 568.984 206.114 566.412 196.15 561.801C174.721 551.886 158.933 533.054 151.644 510.73C143.805 486.719 145.466 460.461 154.185 436.939C162.957 413.272 178.234 392.589 196.337 375.206C215.362 356.935 237.085 341.798 256.587 324.071C266.335 315.211 275.552 305.666 283.217 294.923C290.404 284.849 295.982 273.814 299.99 262.113C314.943 218.457 309.642 170.154 328.07 127.438C346.608 84.4639 388.999 53.1187 435.162 46.552C441.322 45.6759 447.506 45.4583 453.704 45.0132C459.027 44.6315 464.234 44.5708 469.517 45.455C479.352 47.1012 488.599 51.4043 496.549 57.3705C513.971 70.446 524.523 90.5875 527.51 111.954C535.06 165.962 501.317 213.154 477.139 258.213C464.112 282.491 453.018 308.166 450.511 335.885C447.973 363.943 452.921 391.917 457.141 419.557C461.15 445.814 464.653 472.682 460.428 499.143C456.757 522.136 447.093 545.424 428.891 560.681C412.765 574.198 390.049 581.427 369.336 575.673C357.837 572.479 348.391 565.083 338.467 558.794C333.058 555.366 327.394 552.228 321.21 550.44C315.26 548.719 309.033 548.302 302.88 548.866C290.428 550.009 278.614 554.769 267.014 559.129C266.675 559.257 266.529 558.711 266.867 558.584C278.026 554.389 289.324 549.887 301.247 548.473C312.942 547.086 323.868 549.662 334.051 555.463C344.498 561.413 353.815 569.488 365.186 573.735C375.72 577.669 387.309 577.963 398.211 575.464C421.279 570.174 439.324 553.555 449.565 532.615C460.802 509.634 462.946 483.517 461.245 458.326C459.401 431.046 453.399 404.274 450.653 377.097C449.302 363.728 448.727 350.227 449.865 336.819C450.947 324.054 453.746 311.551 457.9 299.44C475.187 249.049 513.123 207.645 524.723 155.039C529.912 131.507 529.563 105.657 518.163 83.9145C508.553 65.5881 491.469 50.2722 470.773 46.255C465.445 45.2205 460.125 45.1019 454.728 45.5024C447.971 46.0043 441.221 46.2169 434.508 47.2132C423.02 48.9187 411.766 52.165 401.093 56.7371C379.442 66.0122 360.088 80.7186 345.541 99.2616C330.997 117.8 322.78 139.524 318.212 162.466C313.799 184.629 312.256 207.227 308.491 229.494C304.687 252.002 298.245 274.028 285.221 293.037C271.101 313.648 251.594 329.685 232.334 345.262C212.552 361.261 192.521 377.245 176.934 397.561C161.271 417.978 149.874 442.29 147.59 468.139C145.371 493.256 151.545 519.823 167.926 539.44C182.656 557.08 205.252 568.758 228.47 568.204C241.811 567.886 254.518 563.216 266.867 558.582C267.206 558.456 267.352 559.002 267.014 559.129Z" fill="url(#paint1_linear_788_341)"/>
<path d="M273.747 552.595C261.617 557.146 249.144 561.698 236.039 561.941C225.381 562.138 214.762 559.646 205.111 555.181C184.355 545.579 169.064 527.338 162.004 505.715C154.411 482.461 156.02 457.028 164.464 434.246C172.96 411.324 187.757 391.292 205.289 374.455C223.715 356.76 244.753 342.1 263.64 324.932C273.08 316.353 282.006 307.109 289.429 296.706C296.39 286.951 301.791 276.264 305.672 264.932C320.154 222.653 315.021 175.871 332.867 134.502C350.822 92.8818 391.878 62.5223 436.588 56.1627C442.554 55.3141 448.544 55.1033 454.547 54.6722C459.704 54.3019 464.747 54.2435 469.863 55.1001C479.39 56.6947 488.346 60.8633 496.046 66.6419C512.92 79.3059 523.141 98.8137 526.034 119.509C533.346 171.818 500.666 217.523 477.251 261.163C464.635 284.674 453.891 309.538 451.463 336.381C449.005 363.554 453.797 390.645 457.884 417.413C461.766 442.844 465.159 468.866 461.067 494.495C457.512 516.763 448.151 539.317 430.522 554.094C414.903 567.187 392.898 574.189 372.836 568.617C361.699 565.524 352.549 558.36 342.938 552.268C337.701 548.949 332.216 545.911 326.228 544.179C320.466 542.513 314.436 542.109 308.477 542.654C296.422 543.763 284.98 548.372 273.747 552.595C273.408 552.722 273.262 552.176 273.6 552.049C284.408 547.986 295.35 543.626 306.898 542.257C318.225 540.915 328.809 543.408 338.672 549.027C348.789 554.791 357.812 562.61 368.824 566.723C379.024 570.533 390.246 570.817 400.803 568.397C423.141 563.275 440.615 547.182 450.531 526.904C461.414 504.649 463.49 479.358 461.842 454.962C460.056 428.542 454.243 402.615 451.584 376.295C450.276 363.347 449.719 350.272 450.82 337.287C451.868 324.924 454.58 312.815 458.602 301.084C475.343 252.282 512.085 212.183 523.319 161.237C528.344 138.449 528.006 113.417 516.966 92.362C507.66 74.615 491.117 59.7841 471.076 55.8939C465.917 54.8924 460.764 54.7775 455.539 55.1661C448.995 55.6523 442.459 55.8582 435.958 56.8227C424.834 58.4743 413.934 61.6176 403.599 66.0459C382.631 75.0287 363.888 89.2714 349.801 107.228C335.717 125.181 327.76 146.219 323.336 168.436C319.063 189.899 317.569 211.786 313.922 233.35C310.237 255.148 303.998 276.481 291.386 294.892C277.711 314.853 258.818 330.386 240.165 345.472C221.006 360.967 201.607 376.446 186.512 396.121C171.343 415.893 160.308 439.437 158.096 464.468C155.946 488.791 161.924 514.518 177.787 533.515C192.051 550.598 213.933 561.905 236.416 561.37C249.335 561.062 261.64 556.539 273.6 552.052C273.939 551.921 274.085 552.467 273.747 552.595Z" fill="url(#paint2_linear_788_341)"/>
<path d="M280.48 546.06C268.745 550.463 256.676 554.868 243.997 555.103C233.684 555.294 223.41 552.883 214.072 548.562C193.99 539.271 179.194 521.621 172.364 500.701C165.019 478.202 166.574 453.595 174.745 431.553C182.965 409.377 197.28 389.995 214.243 373.704C232.068 356.586 252.421 342.403 270.694 325.795C279.826 317.495 288.461 308.554 295.642 298.489C302.376 289.052 307.601 278.715 311.357 267.752C325.367 226.849 320.401 181.59 337.667 141.567C355.039 101.299 394.761 71.9266 438.017 65.7731C443.79 64.9521 449.586 64.7481 455.394 64.3309C460.383 63.9727 465.264 63.9168 470.213 64.7454C479.431 66.2883 488.097 70.3224 495.548 75.9146C511.875 88.167 521.762 107.042 524.562 127.064C531.637 177.672 500.022 221.891 477.367 264.112C465.162 286.857 454.769 310.91 452.42 336.877C450.042 363.165 454.679 389.373 458.632 415.268C462.388 439.873 465.669 465.049 461.712 489.845C458.272 511.39 449.216 533.211 432.16 547.508C417.047 560.177 395.756 566.953 376.344 561.561C365.568 558.568 356.716 551.637 347.418 545.744C342.352 542.534 337.046 539.594 331.254 537.919C325.68 536.308 319.847 535.916 314.083 536.445C302.416 537.515 291.347 541.976 280.48 546.06C280.141 546.188 279.995 545.641 280.333 545.514C290.79 541.584 301.377 537.366 312.549 536.041C323.509 534.742 333.75 537.156 343.293 542.592C353.08 548.167 361.809 555.732 372.461 559.711C382.327 563.395 393.182 563.671 403.394 561.33C425.002 556.376 441.905 540.808 451.498 521.193C462.026 499.663 464.033 475.198 462.438 451.597C460.711 426.037 455.087 400.954 452.514 375.491C451.249 362.965 450.711 350.315 451.776 337.754C452.791 325.792 455.413 314.076 459.305 302.728C475.501 255.514 511.045 216.721 521.914 167.432C526.775 145.39 526.449 121.175 515.769 100.807C506.768 83.6397 490.765 69.2934 471.379 65.5303C466.389 64.5617 461.406 64.4509 456.35 64.8258C450.02 65.2962 443.697 65.4945 437.409 66.4281C426.648 68.0258 416.103 71.0661 406.105 75.3495C385.82 84.039 367.689 97.8176 354.06 115.19C340.436 132.557 332.738 152.908 328.459 174.401C324.324 195.165 322.878 216.34 319.351 237.202C315.786 258.292 309.75 278.93 297.548 296.742C284.317 316.054 266.039 331.082 247.993 345.677C229.458 360.667 210.69 375.643 196.087 394.677C181.413 413.803 170.738 436.579 168.598 460.792C166.519 484.32 172.3 509.207 187.645 527.584C201.444 544.109 222.611 555.047 244.359 554.529C256.857 554.231 268.761 549.856 280.331 545.514C280.673 545.387 280.819 545.934 280.48 546.06Z" fill="url(#paint3_linear_788_341)"/>
<path d="M287.213 539.526C275.872 543.781 264.209 548.038 251.956 548.265C241.988 548.45 232.058 546.119 223.032 541.943C203.624 532.964 189.324 515.906 182.723 495.687C175.624 473.943 177.127 450.163 185.024 428.862C192.968 407.431 206.802 388.699 223.194 372.957C240.42 356.414 260.088 342.708 277.745 326.659C286.569 318.639 294.914 309.999 301.853 300.273C308.359 291.154 313.408 281.166 317.036 270.573C330.575 231.045 325.777 187.31 342.462 148.632C359.25 109.718 397.638 81.3315 439.441 75.3852C445.02 74.5917 450.622 74.3944 456.236 73.9916C461.058 73.6455 465.775 73.5918 470.56 74.3927C479.468 75.8845 487.845 79.7835 495.046 85.1882C510.824 97.0296 520.381 115.271 523.086 134.621C529.924 183.528 499.371 226.26 477.478 267.064C465.686 289.042 455.642 312.285 453.372 337.376C451.074 362.778 455.554 388.103 459.374 413.127C463.004 436.905 466.175 461.236 462.35 485.199C459.026 506.02 450.273 527.109 433.791 540.926C419.183 553.171 398.606 559.72 379.845 554.508C369.431 551.615 360.875 544.919 351.889 539.223C346.993 536.12 341.867 533.28 336.271 531.662C330.887 530.105 325.25 529.727 319.681 530.238C308.409 531.269 297.713 535.58 287.213 539.526C286.874 539.654 286.728 539.108 287.066 538.981C297.172 535.182 307.403 531.106 318.201 529.826C328.794 528.57 338.692 530.904 347.915 536.157C357.371 541.544 365.806 548.854 376.098 552.699C385.63 556.259 396.119 556.526 405.985 554.265C426.865 549.478 443.197 534.435 452.465 515.482C462.638 494.679 464.577 471.037 463.036 448.233C461.367 423.533 455.932 399.295 453.446 374.688C452.223 362.584 451.703 350.361 452.732 338.221C453.712 326.661 456.247 315.339 460.009 304.372C475.66 258.747 510.009 221.261 520.511 173.631C525.207 152.332 524.893 128.935 514.574 109.255C505.876 92.6671 490.414 78.8059 471.683 75.1699C466.861 74.2333 462.046 74.127 457.163 74.4895C451.047 74.9442 444.938 75.1359 438.862 76.0376C428.464 77.5814 418.275 80.5197 408.613 84.6582C389.012 93.0549 371.491 106.369 358.322 123.156C345.157 139.937 337.72 159.602 333.584 180.369C329.59 200.434 328.192 220.896 324.783 241.055C321.337 261.437 315.504 281.382 303.712 298.595C290.927 317.258 273.264 331.78 255.824 345.886C237.913 360.372 219.777 374.843 205.664 393.238C191.487 411.718 181.17 433.725 179.104 457.121C177.095 479.855 182.68 503.903 197.507 521.659C210.84 537.626 231.292 548.195 252.306 547.695C264.381 547.407 275.884 543.179 287.064 538.983C287.406 538.853 287.552 539.399 287.213 539.526Z" fill="url(#paint4_linear_788_341)"/>
<path d="M293.946 532.992C283 537.099 271.741 541.208 259.914 541.426C250.292 541.604 240.706 539.353 231.993 535.322C213.258 526.655 199.455 510.189 193.083 490.671C186.23 469.683 187.681 446.729 195.303 426.168C202.97 405.481 216.324 387.401 232.147 372.206C248.771 356.24 267.755 343.011 284.798 327.521C293.314 319.78 301.367 311.442 308.064 302.056C314.343 293.255 319.216 283.615 322.718 273.392C335.786 235.24 331.155 193.026 347.259 155.695C363.463 118.134 400.517 90.7341 440.866 84.9938C446.252 84.2273 451.659 84.0374 457.078 83.6486C461.732 83.3145 466.286 83.2624 470.905 84.0353C479.505 85.4754 487.591 89.2399 494.543 94.4571C509.773 105.888 518.998 123.495 521.609 142.172C528.21 189.38 498.721 230.625 477.588 270.01C466.207 291.221 456.513 313.652 454.323 337.867C452.106 362.384 456.429 386.826 460.116 410.977C463.62 433.929 466.681 457.414 462.989 480.544C459.781 500.641 451.331 520.998 435.421 534.335C421.32 546.155 401.456 552.477 383.344 547.447C373.292 544.655 365.034 538.19 356.36 532.692C351.636 529.698 346.689 526.957 341.289 525.396C336.093 523.893 330.653 523.529 325.278 524.022C314.402 525.023 304.079 529.183 293.946 532.992C293.607 533.119 293.461 532.573 293.799 532.446C303.554 528.78 313.429 524.844 323.852 523.61C334.077 522.398 343.632 524.651 352.536 529.722C361.663 534.921 369.803 541.976 379.736 545.686C388.935 549.123 399.056 549.379 408.577 547.196C428.728 542.577 444.487 528.06 453.431 509.77C463.249 489.693 465.121 466.876 463.633 444.868C462.022 421.028 456.777 397.634 454.377 373.884C453.196 362.201 452.695 350.404 453.687 338.687C454.634 327.528 457.079 316.6 460.711 306.014C475.818 261.978 508.969 225.797 519.106 179.825C523.638 159.271 523.335 136.691 513.377 117.699C504.984 101.692 490.063 88.3146 471.986 84.8058C467.333 83.9026 462.687 83.7999 457.974 84.1492C452.071 84.5881 446.176 84.7731 440.312 85.643C430.277 87.1329 420.443 89.9681 411.121 93.9623C392.203 102.067 375.294 114.916 362.583 131.118C349.879 147.313 342.7 166.293 338.71 186.334C334.855 205.701 333.505 225.45 330.216 244.908C326.89 264.579 321.26 283.831 309.877 300.445C297.537 318.459 280.488 332.476 263.655 346.091C246.368 360.073 228.863 374.039 215.243 391.794C201.561 409.627 191.605 430.867 189.611 453.445C187.672 475.385 193.061 498.592 207.371 515.728C220.238 531.137 239.973 541.337 260.254 540.854C271.909 540.577 283.01 536.495 293.8 532.447C294.138 532.318 294.285 532.864 293.946 532.992Z" fill="url(#paint5_linear_788_341)"/>
<path d="M300.679 526.457C290.127 530.416 279.274 534.377 267.872 534.588C258.596 534.759 249.354 532.59 240.953 528.703C222.892 520.347 209.586 504.472 203.443 485.656C196.838 465.425 198.236 443.297 205.583 423.476C212.974 403.533 225.846 386.105 241.1 371.456C257.125 356.066 275.423 343.315 291.852 328.383C300.059 320.923 307.822 312.886 314.277 303.84C320.329 295.357 325.026 286.067 328.401 276.214C340.998 239.437 336.534 198.747 352.058 162.761C367.679 126.553 403.398 100.14 442.293 94.6066C447.486 93.8676 452.698 93.6845 457.924 93.3091C462.411 92.9865 466.801 92.9366 471.254 93.6829C479.545 95.0713 487.342 98.7008 494.043 103.731C508.725 114.75 517.618 131.724 520.135 149.73C526.498 195.237 498.073 234.996 477.702 272.963C466.732 293.407 457.389 315.027 455.278 338.368C453.141 361.998 457.308 385.558 460.861 408.837C464.239 430.963 467.189 453.601 463.63 475.899C460.538 495.273 452.392 514.898 437.055 527.754C423.459 539.15 404.309 545.246 386.846 540.396C377.156 537.704 369.196 531.472 360.834 526.173C356.281 523.287 351.513 520.647 346.308 519.141C341.3 517.692 336.058 517.341 330.877 517.816C320.395 518.776 310.446 522.786 300.679 526.457C300.34 526.585 300.194 526.039 300.532 525.911C309.936 522.377 319.456 518.584 329.503 517.394C339.362 516.226 348.574 518.397 357.158 523.287C365.954 528.298 373.8 535.099 383.374 538.674C392.24 541.986 401.994 542.234 411.169 540.131C430.589 535.678 445.779 521.687 454.399 504.059C463.862 484.708 465.664 462.716 464.232 441.503C462.68 418.524 457.623 395.973 455.311 373.081C454.174 361.819 453.69 350.447 454.647 339.154C455.559 328.398 457.917 317.862 461.417 307.658C475.978 265.211 507.935 230.334 517.705 186.022C522.073 166.212 521.781 144.449 512.183 126.145C504.095 110.718 489.714 97.8249 472.292 94.4432C467.807 93.573 463.331 93.4733 458.789 93.8108C453.1 94.2334 447.418 94.4114 441.767 95.2499C432.095 96.6858 422.617 99.418 413.631 103.267C395.397 111.079 379.099 123.464 366.847 139.08C354.6 154.689 347.683 172.983 343.837 192.3C340.121 210.969 338.82 230.004 335.649 248.761C332.444 267.724 327.015 286.281 316.044 302.297C304.147 319.661 287.714 333.173 271.488 346.298C254.824 359.774 237.952 373.239 224.822 390.351C211.634 407.539 202.039 428.01 200.116 449.771C198.249 470.916 203.442 493.284 217.232 509.799C229.633 524.651 248.654 534.481 268.2 534.016C279.433 533.748 290.133 529.815 300.532 525.911C300.872 525.785 301.018 526.331 300.679 526.457Z" fill="url(#paint6_linear_788_341)"/>
<path d="M307.412 519.924C297.253 523.735 286.806 527.547 275.83 527.751C266.9 527.916 258.003 525.827 249.915 522.086C232.527 514.041 219.717 498.758 213.803 480.644C207.444 461.168 208.79 439.867 215.862 420.785C222.978 401.588 235.368 384.809 250.053 370.708C265.478 355.894 283.092 343.62 298.904 329.247C306.805 322.067 314.276 314.332 320.488 305.625C326.313 297.461 330.835 288.518 334.083 279.035C346.209 243.634 341.913 204.466 356.855 169.826C371.892 134.971 406.277 109.545 443.72 104.218C448.719 103.507 453.738 103.33 458.768 102.969C463.088 102.658 467.315 102.612 471.602 103.329C479.585 104.666 487.091 108.161 493.543 113.004C507.675 123.612 516.237 139.952 518.661 157.286C524.787 201.092 497.426 239.365 477.815 275.913C467.256 295.59 458.264 316.4 456.232 338.864C454.174 361.61 458.186 384.286 461.606 406.693C464.857 427.992 467.698 449.785 464.272 471.25C461.295 489.9 453.452 508.792 438.688 521.168C425.599 532.139 407.162 538.009 390.349 533.339C381.021 530.747 373.357 524.75 365.307 519.648C360.925 516.871 356.336 514.328 351.328 512.879C346.508 511.485 341.463 511.148 336.478 511.605C326.389 512.53 316.812 516.39 307.412 519.924C307.073 520.052 306.927 519.505 307.265 519.378C316.317 515.975 325.481 512.325 335.154 511.178C344.645 510.054 353.514 512.144 361.778 516.852C370.244 521.675 377.796 528.221 387.01 531.662C395.542 534.849 404.928 535.089 413.76 533.063C432.45 528.778 447.068 515.313 455.364 498.348C464.471 479.723 466.207 458.556 464.827 438.139C463.333 416.02 458.466 394.314 456.24 372.277C455.146 361.437 454.679 350.491 455.6 339.62C456.479 329.266 458.747 319.124 462.118 309.3C476.134 268.443 506.893 234.871 516.299 192.218C520.503 173.153 520.222 152.206 510.986 134.59C503.2 119.742 489.361 107.335 472.594 104.08C468.278 103.243 463.969 103.147 459.598 103.472C454.124 103.879 448.655 104.051 443.217 104.858C433.908 106.24 424.786 108.87 416.137 112.575C398.585 120.093 382.898 132.015 371.106 147.046C359.319 162.07 352.662 179.677 348.961 198.269C345.384 216.238 344.133 234.562 341.08 252.616C337.994 270.869 332.769 288.734 322.207 304.15C310.756 320.865 294.938 333.874 279.317 346.506C263.277 359.479 247.037 372.438 234.399 388.91C221.707 405.452 212.472 425.155 210.622 446.099C208.824 466.449 213.821 487.978 227.094 503.873C239.029 518.165 257.335 527.628 276.147 527.18C286.959 526.922 297.258 523.135 307.267 519.379C307.605 519.25 307.751 519.796 307.412 519.924Z" fill="url(#paint7_linear_788_341)"/>
<path d="M314.145 513.389C304.381 517.053 294.339 520.717 283.789 520.912C275.204 521.072 266.651 519.062 258.876 515.466C242.162 507.733 229.849 493.041 224.164 475.629C218.052 456.909 219.346 436.433 226.144 418.093C232.984 399.641 244.893 383.513 259.008 369.957C273.833 355.72 290.762 343.923 305.96 330.109C313.551 323.209 320.732 315.775 326.702 307.408C332.301 299.562 336.646 290.968 339.767 281.854C351.421 247.829 347.292 210.184 361.654 176.891C376.107 143.389 409.159 118.949 445.148 113.828C449.952 113.144 454.778 112.974 459.612 112.627C463.765 112.329 467.829 112.284 471.95 112.973C479.625 114.258 486.84 117.619 493.043 122.275C506.628 132.473 514.858 148.178 517.187 164.84C523.076 206.946 496.778 243.732 477.928 278.863C467.782 297.773 459.138 317.771 457.185 339.36C455.208 361.22 459.063 383.013 462.351 404.548C465.476 425.021 468.206 445.967 464.913 466.6C462.051 484.526 454.513 502.686 440.321 514.582C427.737 525.13 410.014 530.772 393.851 526.283C384.884 523.792 377.519 518.027 369.781 513.123C365.57 510.456 361.16 508.012 356.348 506.619C351.716 505.28 346.869 504.956 342.079 505.395C332.383 506.283 323.179 509.993 314.145 513.389C313.806 513.517 313.66 512.971 313.998 512.844C322.7 509.572 331.508 506.065 340.806 504.962C349.928 503.881 358.455 505.892 366.399 510.417C374.535 515.052 381.793 521.342 390.648 524.651C398.846 527.713 407.865 527.943 416.351 525.998C434.312 521.88 448.359 508.941 456.331 492.637C465.084 474.738 466.751 454.397 465.425 434.776C463.989 413.517 459.311 392.654 457.171 371.475C456.119 361.057 455.671 350.537 456.557 340.088C457.401 330.135 459.582 320.386 462.821 310.944C476.293 271.675 505.856 239.409 514.895 198.415C518.935 180.093 518.666 159.965 509.789 143.036C502.308 128.769 489.011 116.846 472.898 113.718C468.751 112.913 464.61 112.821 460.41 113.133C455.149 113.524 449.894 113.689 444.669 114.465C435.723 115.793 426.956 118.319 418.644 121.881C401.777 129.106 386.7 140.563 375.367 155.009C364.041 169.447 357.643 186.368 354.086 204.235C350.647 221.506 349.445 239.116 346.512 256.469C343.546 274.013 338.523 291.184 328.372 306.001C317.365 322.067 302.163 334.57 287.149 346.712C271.733 359.18 256.123 371.636 243.977 387.467C231.781 403.364 222.905 422.298 221.127 442.424C219.399 461.979 224.2 482.668 236.956 497.943C248.424 511.677 266.015 520.771 284.092 520.34C294.483 520.093 304.38 516.453 313.999 512.845C314.338 512.715 314.484 513.261 314.145 513.389Z" fill="url(#paint8_linear_788_341)"/>
<path d="M320.878 506.855C311.507 510.371 301.871 513.886 291.746 514.073C283.506 514.226 275.297 512.298 267.836 508.846C251.795 501.424 239.978 487.324 234.523 470.614C228.658 452.649 229.899 432.999 236.422 415.4C242.985 397.692 254.414 382.215 267.959 369.207C282.184 355.546 298.428 344.227 313.011 330.972C320.295 324.351 327.185 317.219 332.912 309.191C338.283 301.663 342.453 293.418 345.448 284.675C356.631 252.026 352.669 215.901 366.451 183.955C380.321 151.807 412.038 128.352 446.573 123.439C451.185 122.783 455.816 122.619 460.456 122.286C464.443 122 468.342 121.956 472.298 122.618C479.664 123.852 486.589 127.078 492.543 131.547C505.579 141.333 513.477 156.404 515.713 172.395C521.364 212.801 496.131 248.1 478.041 281.812C468.307 299.955 460.013 319.142 458.14 339.856C456.243 360.83 459.941 381.741 463.095 402.404C466.094 422.05 468.713 442.151 465.553 461.951C462.807 479.153 455.573 496.581 441.955 507.996C429.878 518.119 412.868 523.535 397.354 519.226C388.749 516.835 381.68 511.303 374.255 506.597C370.216 504.037 365.986 501.693 361.369 500.358C356.925 499.072 352.275 498.762 347.679 499.183C338.375 500.036 329.546 503.597 320.878 506.855C320.539 506.982 320.392 506.436 320.731 506.309C329.081 503.17 337.534 499.803 346.456 498.747C355.212 497.709 363.397 499.639 371.02 503.982C378.826 508.428 385.789 514.464 394.285 517.638C402.15 520.576 410.802 520.798 418.942 518.931C436.173 514.981 449.649 502.567 457.298 486.925C465.696 469.752 467.294 450.235 466.022 431.41C464.643 411.012 460.155 390.993 458.102 370.671C457.093 360.674 456.663 350.579 457.512 340.554C458.322 331.002 460.414 321.647 463.523 312.586C476.448 274.906 504.816 243.945 513.489 204.611C517.365 187.034 517.107 167.723 508.591 151.482C501.414 137.793 488.658 126.356 473.199 123.355C469.221 122.582 465.248 122.495 461.22 122.795C456.173 123.17 451.132 123.328 446.119 124.072C437.536 125.346 429.124 127.77 421.149 131.186C404.965 138.119 390.5 149.112 379.626 162.971C368.758 176.824 362.621 193.058 359.209 210.201C355.909 226.773 354.755 243.672 351.941 260.32C349.095 277.155 344.275 293.633 334.534 307.852C323.972 323.269 309.384 335.267 294.976 346.918C280.184 358.881 265.206 370.833 253.552 386.024C241.851 401.275 233.336 419.441 231.631 438.749C229.973 457.51 234.578 477.359 246.815 492.013C257.819 505.19 274.694 513.915 292.037 513.501C302.006 513.263 311.502 509.77 320.73 506.308C321.071 506.181 321.216 506.727 320.878 506.855Z" fill="url(#paint9_linear_788_341)"/>
<path d="M327.611 500.32C318.634 503.688 309.404 507.056 299.705 507.235C291.81 507.381 283.946 505.533 276.796 502.226C261.429 495.116 250.108 481.608 244.882 465.6C239.263 448.391 240.452 429.567 246.701 412.708C252.988 395.744 263.936 380.919 276.911 368.458C290.537 355.373 306.096 344.531 320.064 331.834C327.04 325.494 333.639 318.664 339.125 310.975C344.269 303.766 348.262 295.869 351.131 287.495C361.843 256.222 358.048 221.621 371.25 191.02C384.536 160.224 414.918 137.757 448 133.05C452.418 132.42 456.855 132.265 461.3 131.945C465.119 131.671 468.854 131.629 472.645 132.265C479.702 133.446 486.338 136.537 492.041 140.819C504.528 150.194 512.094 164.633 514.237 179.95C519.651 218.656 495.481 252.469 478.154 284.763C468.83 302.139 460.887 320.515 459.093 340.353C457.276 360.442 460.817 380.471 463.839 400.26C466.712 419.081 469.221 438.335 466.193 457.302C463.562 473.781 456.632 490.475 443.587 501.411C432.015 511.11 415.719 516.299 400.855 512.17C392.612 509.88 385.841 504.582 378.727 500.072C374.86 497.621 370.809 495.376 366.387 494.097C362.132 492.866 357.679 492.569 353.278 492.973C344.369 493.79 335.912 497.201 327.611 500.32C327.272 500.448 327.126 499.902 327.464 499.774C335.463 496.767 343.56 493.543 352.107 492.531C360.496 491.537 368.337 493.385 375.641 497.546C383.117 501.804 389.786 507.586 397.921 510.626C405.452 513.44 413.737 513.651 421.532 511.864C438.034 508.081 450.938 496.193 458.263 481.215C466.305 464.768 467.835 446.075 466.617 428.046C465.296 408.508 460.998 389.334 459.032 369.869C458.064 360.293 457.653 350.624 458.467 341.022C459.243 331.871 461.248 322.911 464.225 314.23C476.606 278.14 503.778 248.484 512.085 210.808C515.797 193.975 515.55 175.482 507.395 159.928C500.522 146.82 488.306 135.866 473.502 132.992C469.693 132.253 465.889 132.169 462.031 132.456C457.198 132.815 452.37 132.966 447.569 133.679C439.349 134.899 431.293 137.221 423.657 140.492C408.155 147.131 394.301 157.66 383.886 170.936C373.479 184.202 367.601 199.751 364.333 216.167C361.172 232.041 360.067 248.226 357.372 264.173C354.646 280.3 350.029 296.084 340.698 309.703C330.581 324.471 316.607 335.964 302.806 347.125C288.638 358.584 274.291 370.031 263.129 384.582C251.924 399.187 243.768 416.585 242.134 435.076C240.547 453.042 244.956 472.052 256.674 486.086C267.211 498.705 283.371 507.06 299.981 506.665C309.527 506.437 318.623 503.092 327.461 499.776C327.804 499.648 327.95 500.194 327.611 500.32Z" fill="url(#paint10_linear_788_341)"/>
<path d="M334.344 493.786C325.762 497.007 316.936 500.226 307.665 500.397C300.115 500.537 292.595 498.77 285.758 495.607C271.065 488.809 260.24 475.892 255.243 460.585C249.872 444.133 251.008 426.134 256.983 410.016C262.994 393.798 273.46 379.622 285.865 367.709C298.891 355.2 313.764 344.835 327.117 332.698C333.786 326.637 340.093 320.109 345.337 312.76C350.253 305.868 354.072 298.321 356.813 290.316C367.054 260.418 363.426 227.34 376.048 198.085C388.75 168.642 417.798 147.162 449.426 142.662C453.652 142.061 457.893 141.911 462.145 141.605C465.797 141.343 469.37 141.304 472.994 141.911C479.742 143.041 486.087 145.997 491.541 150.091C503.481 159.056 510.715 172.86 512.763 187.505C517.94 224.51 494.834 256.837 478.267 287.711C469.355 304.321 461.762 321.887 460.047 340.848C458.31 360.051 461.696 379.196 464.583 398.115C467.33 416.109 469.729 434.518 466.834 452.651C464.319 468.407 457.692 484.369 445.22 494.823C434.154 504.099 418.571 509.061 404.358 505.113C396.476 502.925 390.003 497.858 383.201 493.548C379.504 491.205 375.632 489.059 371.407 487.837C367.34 486.66 363.085 486.376 358.878 486.762C350.362 487.543 342.278 490.803 334.344 493.786C334.005 493.914 333.859 493.368 334.197 493.241C341.846 490.366 349.587 487.284 357.76 486.315C365.782 485.365 373.279 487.133 380.264 491.113C387.41 495.183 393.783 500.71 401.561 503.615C408.758 506.304 416.677 506.507 424.127 504.798C439.899 501.181 452.232 489.82 459.233 475.503C466.92 459.783 468.382 441.915 467.218 424.683C465.956 406.005 461.846 387.675 459.966 369.066C459.042 359.913 458.648 350.669 459.426 341.489C460.168 332.741 462.084 324.174 464.931 315.874C476.767 281.372 502.742 253.022 510.684 217.005C514.231 200.917 513.996 183.241 506.201 168.375C499.632 155.846 487.958 145.378 473.809 142.63C470.168 141.924 466.533 141.844 462.846 142.118C458.226 142.462 453.612 142.606 449.024 143.287C441.167 144.453 433.466 146.672 426.167 149.798C411.349 156.145 398.106 166.209 388.15 178.899C378.202 191.58 372.585 206.443 369.46 222.134C366.438 237.309 365.381 252.782 362.805 268.027C360.199 283.444 355.785 298.535 346.864 311.555C337.192 325.674 323.834 336.661 310.64 347.331C297.095 358.285 283.38 369.229 272.708 383.139C261.998 397.099 254.203 413.728 252.642 431.401C251.125 448.573 255.338 466.744 266.538 480.156C276.61 492.218 292.054 500.204 307.93 499.825C317.055 499.608 325.749 496.41 334.197 493.241C334.536 493.113 334.683 493.659 334.344 493.786Z" fill="url(#paint11_linear_788_341)"/>
<path d="M341.078 487.252C332.89 490.324 324.47 493.395 315.622 493.558C308.419 493.692 301.242 492.006 294.719 488.988C280.699 482.502 270.371 470.176 265.602 455.571C260.477 439.875 261.561 422.702 267.262 407.324C272.997 391.85 282.982 378.327 294.818 366.96C307.244 355.027 321.432 345.139 334.171 333.561C340.531 327.78 346.548 321.553 351.55 314.543C356.239 307.971 359.88 300.772 362.495 293.136C372.265 264.614 368.805 233.058 380.845 205.15C392.963 177.06 420.678 156.567 450.853 152.272C454.885 151.699 458.932 151.556 462.989 151.264C466.474 151.014 469.883 150.977 473.341 151.556C479.782 152.634 485.836 155.456 491.04 159.363C502.432 167.916 509.334 181.087 511.289 195.06C516.229 230.366 494.186 261.206 478.381 290.662C469.881 306.504 462.638 323.259 461.001 341.346C459.344 359.663 462.574 377.926 465.329 395.971C467.95 413.139 470.238 430.702 467.476 448.003C465.076 463.035 458.753 478.264 446.854 488.239C436.295 497.09 421.424 501.827 407.861 498.059C400.341 495.971 394.164 491.138 387.675 487.025C384.15 484.791 380.458 482.744 376.427 481.578C372.548 480.456 368.49 480.185 364.479 480.554C356.355 481.298 348.645 484.408 341.078 487.252C340.738 487.379 340.592 486.833 340.931 486.706C348.228 483.963 355.613 481.023 363.411 480.099C371.065 479.193 378.221 480.88 384.886 484.677C391.702 488.559 397.781 493.831 405.198 496.602C412.062 499.166 419.614 499.36 426.719 497.731C441.762 494.282 453.523 483.446 460.2 469.791C467.533 454.796 468.927 437.754 467.817 421.317C466.613 403.499 462.692 386.013 460.899 368.262C460.017 359.53 459.642 350.713 460.384 341.955C461.092 333.608 462.92 325.434 465.636 317.516C476.926 284.604 501.706 257.558 509.281 223.199C512.664 207.856 512.441 190.997 505.007 176.818C498.741 164.87 487.608 154.886 474.114 152.266C470.642 151.592 467.175 151.517 463.659 151.778C459.254 152.106 454.853 152.244 450.477 152.892C442.983 154.004 435.638 156.12 428.676 159.103C414.541 165.157 401.91 174.757 392.413 186.862C382.925 198.957 377.568 213.133 374.588 228.1C371.705 242.576 370.698 257.336 368.24 271.879C365.753 286.587 361.542 300.984 353.032 313.406C343.804 326.876 331.061 337.357 318.474 347.537C305.553 357.987 292.47 368.426 282.29 381.696C272.076 395.01 264.641 410.87 263.152 427.726C261.705 444.104 265.722 461.433 276.404 474.227C286.009 485.73 300.739 493.347 315.879 492.986C324.584 492.778 332.875 489.728 340.934 486.704C341.27 486.578 341.416 487.124 341.078 487.252Z" fill="url(#paint12_linear_788_341)"/>
<path d="M347.81 480.717C340.016 483.641 332.001 486.564 323.58 486.72C316.722 486.846 309.89 485.241 303.679 482.368C290.334 476.193 280.501 464.459 275.963 450.556C271.085 435.615 272.116 419.269 277.541 404.631C283 389.902 292.504 377.029 303.77 366.209C315.596 354.852 329.1 345.441 341.223 334.423C347.274 328.922 353.001 322.996 357.76 316.326C362.222 310.072 365.687 303.221 368.177 295.956C377.475 268.81 374.182 238.777 385.642 212.214C397.176 185.477 423.558 165.97 452.278 161.883C456.117 161.337 459.97 161.2 463.831 160.923C467.15 160.685 470.395 160.65 473.688 161.201C479.82 162.228 485.584 164.916 490.539 168.635C501.382 176.776 507.952 189.314 509.813 202.614C514.516 236.219 493.536 265.574 478.492 293.612C470.403 308.686 463.51 324.631 461.953 341.842C460.376 359.274 463.449 376.654 466.071 393.827C468.566 410.169 470.744 426.886 468.114 443.354C465.83 457.662 459.811 472.16 448.484 481.655C438.431 490.081 424.274 494.591 411.36 491.004C404.202 489.016 398.323 484.416 392.146 480.501C388.792 478.375 385.279 476.427 381.444 475.318C377.753 474.25 373.893 473.993 370.076 474.343C362.348 475.05 355.01 478.01 347.81 480.717C347.471 480.845 347.325 480.298 347.663 480.171C354.609 477.56 361.64 474.762 369.062 473.883C376.348 473.02 383.161 474.628 389.506 478.242C395.99 481.936 401.776 486.953 408.835 489.59C415.365 492.031 422.549 492.214 429.309 490.665C443.622 487.383 454.812 477.073 461.165 464.081C468.143 449.812 469.469 433.595 468.412 417.954C467.266 400.996 463.535 384.355 461.828 367.46C460.989 359.15 460.632 350.757 461.338 342.423C462.011 334.478 463.751 326.698 466.337 319.161C477.082 287.837 500.665 262.097 507.875 229.398C511.094 214.799 510.881 198.757 503.808 185.266C497.847 173.897 487.255 164.398 474.415 161.905C471.112 161.264 467.814 161.192 464.468 161.441C460.277 161.753 456.089 161.883 451.926 162.501C444.796 163.559 437.806 165.573 431.181 168.41C417.73 174.172 405.708 183.307 396.672 194.827C387.643 206.336 382.546 219.826 379.711 234.068C376.967 247.845 376.009 261.892 373.669 275.733C371.302 289.733 367.294 303.435 359.193 315.258C350.411 328.079 338.281 338.056 326.301 347.745C314.004 357.691 301.553 367.627 291.863 380.255C282.145 392.922 275.07 408.015 273.653 424.053C272.277 439.635 276.098 456.126 286.262 468.299C295.402 479.245 309.416 486.492 323.823 486.149C332.106 485.951 339.996 483.049 347.664 480.172C348.003 480.044 348.148 480.59 347.81 480.717Z" fill="url(#paint13_linear_788_341)"/>
<path d="M354.544 474.183C347.144 476.96 339.534 479.734 331.54 479.882C325.027 480.002 318.539 478.478 312.641 475.749C299.969 469.886 290.633 458.743 286.324 445.542C281.693 431.357 282.672 415.836 287.823 401.939C293.006 387.955 302.028 375.732 312.725 365.459C323.951 354.678 336.769 345.746 348.278 335.286C354.022 330.065 359.458 324.441 363.974 318.109C368.209 312.173 371.499 305.672 373.86 298.776C382.687 273.006 379.562 244.495 390.441 219.279C401.391 193.896 426.439 175.374 453.706 171.494C457.351 170.976 461.01 170.845 464.677 170.582C467.828 170.356 470.91 170.323 474.038 170.846C479.861 171.821 485.335 174.372 490.04 177.907C500.334 185.637 506.573 197.541 508.341 210.169C512.806 242.074 492.891 269.942 478.607 296.561C470.93 310.87 464.387 326.001 462.909 342.337C461.412 358.884 464.329 375.381 466.818 391.682C469.186 407.197 471.254 423.068 468.757 438.704C466.589 452.288 460.874 466.053 450.119 475.068C440.571 483.071 427.128 487.354 414.865 483.946C408.068 482.059 402.486 477.692 396.621 473.975C393.439 471.958 390.105 470.11 386.466 469.057C382.964 468.045 379.301 467.8 375.679 468.132C368.342 468.804 361.377 471.614 354.544 474.183C354.204 474.311 354.058 473.765 354.396 473.638C360.992 471.159 367.667 468.502 374.714 467.667C381.633 466.848 388.102 468.374 394.127 471.806C400.282 475.313 405.774 480.075 412.472 482.578C418.669 484.893 425.487 485.069 431.9 483.598C445.484 480.484 456.103 470.699 462.132 458.369C468.755 444.827 470.012 429.434 469.01 414.589C467.922 398.491 464.38 382.694 462.76 366.657C461.962 358.768 461.623 350.801 462.295 342.889C462.934 335.346 464.586 327.96 467.041 320.803C477.241 291.068 499.628 266.633 506.472 235.593C509.527 221.739 509.326 206.513 502.614 193.711C496.957 182.922 486.905 173.908 474.72 171.542C471.586 170.933 468.456 170.866 465.282 171.102C461.304 171.397 457.331 171.521 453.38 172.107C446.612 173.111 439.979 175.022 433.69 177.715C420.922 183.183 409.512 191.855 400.934 202.789C392.365 213.713 387.528 226.517 384.836 240.034C382.232 253.112 381.322 266.447 379.101 279.586C376.854 292.876 373.048 305.885 365.358 317.11C357.02 329.282 345.507 338.753 334.132 347.952C322.459 357.392 310.639 366.825 301.442 378.812C292.219 390.834 285.504 405.159 284.159 420.379C282.852 435.167 286.478 450.818 296.123 462.37C304.797 472.758 318.096 479.637 331.768 479.311C339.63 479.123 347.119 476.368 354.397 473.636C354.736 473.51 354.882 474.056 354.544 474.183Z" fill="url(#paint14_linear_788_341)"/>
<path d="M361.277 467.648C354.272 470.277 347.067 472.904 339.497 473.043C333.33 473.158 327.187 471.713 321.601 469.129C309.602 463.578 300.763 453.026 296.682 440.526C292.297 427.097 293.224 412.403 298.101 399.246C303.009 386.007 311.549 374.435 321.677 364.709C332.303 354.504 344.436 346.049 355.329 336.147C360.765 331.206 365.91 325.884 370.185 319.893C374.193 314.275 377.306 308.122 379.542 301.595C387.897 277.201 384.939 250.213 395.237 226.342C405.605 202.311 429.317 184.777 455.131 181.103C458.581 180.613 462.046 180.489 465.519 180.24C468.503 180.025 471.422 179.995 474.382 180.491C479.897 181.414 485.081 183.831 489.536 187.178C499.283 194.498 505.19 205.767 506.864 217.724C511.092 247.929 492.239 274.31 478.718 299.511C471.453 313.052 465.259 327.374 463.86 342.834C462.444 358.495 465.205 374.109 467.56 389.538C469.803 404.227 471.759 419.252 469.396 434.055C467.343 446.916 461.931 459.948 451.751 468.482C442.709 476.061 429.979 480.117 418.366 476.891C411.931 475.103 406.647 470.97 401.094 467.45C398.083 465.541 394.928 463.793 391.485 462.796C388.171 461.838 384.706 461.607 381.278 461.922C374.336 462.557 367.744 465.218 361.277 467.648C360.938 467.776 360.792 467.23 361.13 467.103C367.374 464.756 373.693 462.241 380.365 461.451C386.917 460.676 393.044 462.12 398.749 465.37C404.574 468.688 409.771 473.195 416.11 475.565C421.973 477.756 428.424 477.922 434.492 476.531C447.347 473.584 457.394 464.326 463.1 452.657C469.367 439.84 470.557 425.272 469.607 411.224C468.578 395.986 465.225 381.033 463.691 365.852C462.937 358.385 462.616 350.844 463.25 343.355C463.855 336.214 465.418 329.22 467.742 322.445C477.398 294.299 498.588 271.171 505.067 241.789C507.958 228.678 507.768 214.271 501.416 202.157C496.063 191.947 486.553 183.417 475.022 181.179C472.057 180.603 469.095 180.539 466.092 180.762C462.328 181.042 458.568 181.16 454.829 181.714C448.425 182.664 442.146 184.471 436.196 187.02C424.111 192.196 413.312 200.402 405.194 210.752C397.083 221.089 392.507 233.207 389.96 246C387.495 258.38 386.634 271.002 384.531 283.438C382.404 296.019 378.801 308.335 371.522 318.96C363.629 330.483 352.729 339.449 341.962 348.157C330.912 357.094 319.724 366.022 311.018 377.369C302.29 388.745 295.936 402.301 294.663 416.704C293.427 430.697 296.855 445.508 305.984 456.44C314.193 466.27 326.775 472.779 339.714 472.471C347.154 472.294 354.241 469.685 361.129 467.101C361.469 466.975 361.615 467.521 361.277 467.648Z" fill="url(#paint15_linear_788_341)"/>
<path d="M368.01 461.114C361.399 463.594 354.6 466.072 347.457 466.205C341.634 466.313 335.835 464.949 330.562 462.509C319.236 457.27 310.894 447.309 307.042 435.512C302.905 422.838 303.779 408.97 308.381 396.553C313.012 384.058 321.073 373.138 330.63 363.959C340.657 354.33 352.105 346.352 362.384 337.009C367.512 332.348 372.365 327.328 376.398 321.676C380.179 316.377 383.116 310.571 385.225 304.416C393.11 281.397 390.318 255.932 400.036 233.407C409.819 210.729 432.198 194.182 456.559 190.714C459.817 190.251 463.087 190.134 466.365 189.899C469.182 189.696 471.937 189.668 474.732 190.135C479.938 191.007 484.831 193.289 489.037 196.449C498.236 203.357 503.811 213.994 505.391 225.277C509.381 253.782 491.594 278.676 478.832 302.458C471.978 315.232 466.135 328.743 464.815 343.328C463.479 358.103 466.083 372.834 468.305 387.39C470.421 401.253 472.267 415.432 470.038 429.402C468.1 441.54 462.993 453.84 453.384 461.893C444.849 469.047 432.832 472.876 421.868 469.831C415.795 468.144 410.807 464.243 405.568 460.922C402.727 459.122 399.753 457.471 396.505 456.533C393.379 455.629 390.11 455.411 386.878 455.707C380.329 456.311 374.11 458.821 368.01 461.114C367.671 461.242 367.525 460.696 367.863 460.568C373.756 458.354 379.72 455.981 386.016 455.235C392.2 454.503 397.985 455.868 403.37 458.935C408.865 462.065 413.768 466.317 419.747 468.553C425.276 470.619 431.36 470.777 437.084 469.464C449.209 466.683 458.684 457.951 464.066 446.946C469.978 434.855 471.1 421.112 470.204 407.859C469.233 393.482 466.069 379.373 464.622 365.049C463.91 358.004 463.608 350.888 464.207 343.822C464.779 337.083 466.253 330.483 468.446 324.089C477.556 297.532 497.552 275.708 503.664 247.985C506.39 235.619 506.212 222.029 500.221 210.602C495.172 200.972 486.203 192.927 475.327 190.816C472.531 190.273 469.738 190.213 466.905 190.424C463.355 190.687 459.808 190.797 456.282 191.321C450.241 192.217 444.318 193.922 438.705 196.326C427.303 201.209 417.116 208.952 409.456 218.716C401.806 228.467 397.49 239.899 395.086 251.966C392.76 263.646 391.946 275.556 389.963 287.291C387.957 299.164 384.556 310.786 377.687 320.812C370.238 331.686 359.954 340.146 349.794 348.364C339.368 356.796 328.811 365.22 320.596 375.927C312.364 386.657 306.369 399.445 305.169 413.029C304.003 426.228 307.235 440.2 315.846 450.511C323.588 459.783 335.456 465.924 347.66 465.633C354.678 465.466 361.365 463.005 367.863 460.567C368.202 460.441 368.348 460.987 368.01 461.114Z" fill="url(#paint16_linear_788_341)"/>
<path d="M374.743 454.579C368.525 456.912 362.132 459.242 355.415 459.366C349.938 459.468 344.484 458.185 339.524 455.89C328.871 450.962 321.026 441.594 317.404 430.497C313.512 418.58 314.334 405.538 318.662 393.861C323.017 382.111 330.594 371.841 339.584 363.21C349.01 354.156 359.774 346.657 369.437 337.873C374.257 333.492 378.819 328.773 382.611 323.46C386.165 318.478 388.927 313.023 390.908 307.236C398.322 285.593 395.699 261.65 404.835 240.473C414.034 219.148 435.079 203.586 457.986 200.325C461.051 199.889 464.126 199.78 467.21 199.559C469.86 199.368 472.452 199.342 475.081 199.782C479.979 200.602 484.582 202.75 488.539 205.722C497.188 212.219 502.433 222.221 503.919 232.833C507.672 259.637 490.948 283.045 478.948 305.41C472.505 317.417 467.012 330.117 465.771 343.825C464.514 357.716 466.963 371.564 469.052 385.247C471.042 398.284 472.778 411.617 470.681 424.755C468.859 436.168 464.055 447.735 455.02 455.309C446.991 462.04 435.687 465.642 425.372 462.777C419.661 461.19 414.971 457.523 410.043 454.4C407.373 452.708 404.578 451.157 401.526 450.274C398.588 449.425 395.517 449.219 392.479 449.498C386.322 450.065 380.477 452.424 374.743 454.579C374.404 454.707 374.258 454.161 374.596 454.034C380.138 451.95 385.745 449.72 391.667 449.019C397.484 448.33 402.926 449.616 407.991 452.501C413.157 455.443 417.764 459.44 423.385 461.541C428.581 463.483 434.297 463.631 439.676 462.398C451.071 459.785 459.976 451.578 465.033 441.235C470.591 429.87 471.644 416.953 470.803 404.494C469.89 390.977 466.915 377.712 465.555 364.246C464.887 357.622 464.601 350.933 465.164 344.289C465.702 337.951 467.087 331.745 469.151 325.732C477.716 300.764 496.514 280.246 502.261 254.182C504.824 242.56 504.657 229.788 499.026 219.048C494.281 209.998 485.853 202.438 475.632 200.453C473.004 199.944 470.379 199.887 467.717 200.085C464.381 200.332 461.049 200.436 457.734 200.928C452.056 201.771 446.488 203.373 441.212 205.632C430.493 210.222 420.917 217.5 413.716 226.679C406.525 235.845 402.468 246.591 400.21 257.932C398.023 268.914 397.258 280.112 395.394 291.144C393.507 302.307 390.308 313.235 383.85 322.662C376.846 332.887 367.177 340.842 357.623 348.57C347.821 356.497 337.896 364.417 330.173 374.484C322.436 384.568 316.802 396.588 315.673 409.355C314.577 421.76 317.614 434.893 325.706 444.583C332.983 453.296 344.136 459.068 355.606 458.795C362.203 458.637 368.488 456.324 374.595 454.032C374.936 453.907 375.082 454.453 374.743 454.579Z" fill="url(#paint17_linear_788_341)"/>
<path d="M381.475 448.046C375.652 450.232 369.664 452.413 363.372 452.529C358.241 452.623 353.13 451.421 348.483 449.272C338.504 444.655 331.155 435.878 327.761 425.484C324.117 414.322 324.886 402.106 328.939 391.17C333.018 380.165 340.115 370.546 348.534 362.46C357.36 353.983 367.439 346.961 376.488 338.735C381 334.633 385.272 330.216 388.82 325.242C392.147 320.579 394.732 315.472 396.587 310.055C403.529 289.788 401.073 267.368 409.629 247.536C418.245 227.565 437.955 212.989 459.409 209.936C462.28 209.527 465.161 209.424 468.05 209.217C470.533 209.039 472.961 209.014 475.425 209.427C480.014 210.195 484.327 212.209 488.034 214.993C496.136 221.078 501.048 230.448 502.44 240.386C505.956 265.491 490.295 287.411 479.056 308.357C473.025 319.597 467.882 331.486 466.721 344.32C465.544 357.325 467.836 370.291 469.791 383.102C471.655 395.312 473.281 407.8 471.317 420.105C469.61 430.794 465.109 441.629 456.647 448.722C449.124 455.029 438.534 458.404 428.869 455.72C423.52 454.233 419.127 450.799 414.511 447.874C412.013 446.29 409.397 444.838 406.541 444.012C403.791 443.217 400.917 443.026 398.074 443.286C392.315 443.818 386.844 446.028 381.475 448.046C381.136 448.174 380.99 447.628 381.328 447.501C386.519 445.549 391.772 443.461 397.318 442.805C402.768 442.16 407.867 443.364 412.613 446.067C417.447 448.821 421.762 452.563 427.023 454.53C431.885 456.348 437.234 456.487 442.268 455.333C452.934 452.888 461.267 445.207 466.002 435.526C471.204 424.887 472.189 412.794 471.401 401.132C470.546 388.475 467.761 376.055 466.487 363.445C465.861 357.242 465.594 350.978 466.121 344.758C466.624 338.822 467.922 333.009 469.853 327.377C477.873 303.997 495.475 284.785 500.856 260.38C503.254 249.504 503.099 237.548 497.829 227.496C493.387 219.026 485.5 211.95 475.935 210.094C473.476 209.616 471.02 209.565 468.529 209.75C465.407 209.981 462.288 210.078 459.186 210.538C453.871 211.327 448.659 212.825 443.72 214.941C433.685 219.238 424.72 226.051 417.978 234.646C411.247 243.225 407.45 253.285 405.336 263.902C403.289 274.185 402.573 284.669 400.827 295C399.06 305.454 396.065 315.689 390.016 324.519C383.457 334.093 374.403 341.544 365.455 348.781C356.277 356.204 346.983 363.619 339.751 373.045C332.51 382.483 327.235 393.735 326.179 405.685C325.154 417.295 327.993 429.587 335.568 438.657C342.379 446.814 352.816 452.216 363.552 451.96C369.728 451.812 375.611 449.646 381.328 447.501C381.668 447.372 381.814 447.919 381.475 448.046Z" fill="url(#paint18_linear_788_341)"/>
<path d="M388.209 441.511C382.779 443.549 377.197 445.582 371.331 445.69C366.546 445.779 361.778 444.657 357.445 442.652C348.139 438.347 341.286 430.161 338.122 420.469C334.725 410.062 335.441 398.673 339.221 388.477C343.024 378.217 349.64 369.249 357.488 361.711C365.715 353.811 375.109 347.264 383.542 339.599C387.745 335.777 391.727 331.661 395.033 327.028C398.133 322.682 400.542 317.924 402.272 312.878C408.742 293.986 406.454 273.089 414.429 254.603C422.46 235.985 440.837 222.396 460.837 219.549C463.514 219.168 466.202 219.072 468.897 218.878C471.213 218.713 473.477 218.69 475.774 219.074C480.055 219.791 484.078 221.669 487.535 224.267C495.089 229.941 499.669 238.676 500.967 247.944C504.245 271.348 489.647 291.782 479.17 311.31C473.551 321.783 468.757 332.861 467.675 344.819C466.579 356.939 468.715 369.021 470.537 380.96C472.275 392.344 473.79 403.985 471.959 415.458C470.368 425.425 466.171 435.526 458.281 442.14C451.265 448.022 441.388 451.171 432.374 448.667C427.386 447.283 423.29 444.08 418.987 441.353C416.66 439.878 414.224 438.526 411.563 437.756C409.001 437.016 406.325 436.838 403.677 437.081C398.309 437.571 393.21 439.631 388.209 441.511C387.869 441.639 387.723 441.093 388.062 440.966C392.902 439.146 397.798 437.2 402.97 436.589C408.053 435.987 412.809 437.11 417.234 439.631C421.738 442.197 425.759 445.685 430.66 447.518C435.189 449.211 440.17 449.341 444.859 448.266C454.795 445.988 462.557 438.832 466.967 429.814C471.814 419.901 472.731 408.633 471.997 397.767C471.199 385.971 468.604 374.394 467.417 362.642C466.833 356.861 466.585 351.023 467.076 345.225C467.546 339.691 468.755 334.271 470.556 329.02C478.031 307.23 494.437 289.322 499.453 266.577C501.687 256.444 501.542 245.305 496.633 235.942C492.497 228.051 485.149 221.46 476.239 219.731C473.948 219.286 471.66 219.239 469.342 219.411C466.433 219.627 463.528 219.716 460.639 220.145C455.686 220.879 450.83 222.277 446.228 224.247C436.876 228.252 428.522 234.602 422.24 242.609C415.968 250.604 412.431 259.977 410.462 269.869C408.553 279.454 407.887 289.226 406.259 298.854C404.612 308.599 401.819 318.14 396.181 326.37C390.065 335.295 381.627 342.241 373.285 348.987C364.731 355.905 356.069 362.817 349.329 371.603C342.584 380.396 337.668 390.879 336.686 402.011C335.73 412.826 338.375 424.279 345.431 432.729C351.776 440.327 361.498 445.361 371.5 445.122C377.254 444.985 382.737 442.965 388.064 440.967C388.402 440.838 388.548 441.384 388.209 441.511Z" fill="url(#paint19_linear_788_341)"/>
<defs>
<linearGradient id="paint0_linear_788_341" x1="150.665" y1="581.569" x2="440.669" y2="56.0799" gradientUnits="userSpaceOnUse">
<stop stop-color="#F3F3F3"/>
<stop offset="0.55141" stop-color="#76A738"/>
<stop offset="1" stop-color="#F3F3F3"/>
</linearGradient>
<linearGradient id="paint1_linear_788_341" x1="160.742" y1="574.547" x2="441.891" y2="65.1055" gradientUnits="userSpaceOnUse">
<stop stop-color="#F3F3F3"/>
<stop offset="0.55141" stop-color="#76A738"/>
<stop offset="1" stop-color="#F3F3F3"/>
</linearGradient>
<linearGradient id="paint2_linear_788_341" x1="170.817" y1="567.525" x2="443.112" y2="74.1314" gradientUnits="userSpaceOnUse">
<stop stop-color="#F3F3F3"/>
<stop offset="0.55141" stop-color="#76A738"/>
<stop offset="1" stop-color="#F3F3F3"/>
</linearGradient>
<linearGradient id="paint3_linear_788_341" x1="180.893" y1="560.506" x2="444.335" y2="83.1568" gradientUnits="userSpaceOnUse">
<stop stop-color="#F3F3F3"/>
<stop offset="0.55141" stop-color="#76A738"/>
<stop offset="1" stop-color="#F3F3F3"/>
</linearGradient>
<linearGradient id="paint4_linear_788_341" x1="190.968" y1="553.487" x2="445.557" y2="92.1849" gradientUnits="userSpaceOnUse">
<stop stop-color="#F3F3F3"/>
<stop offset="0.55141" stop-color="#76A738"/>
<stop offset="1" stop-color="#F3F3F3"/>
</linearGradient>
<linearGradient id="paint5_linear_788_341" x1="201.041" y1="546.461" x2="446.774" y2="101.207" gradientUnits="userSpaceOnUse">
<stop stop-color="#F3F3F3"/>
<stop offset="0.55141" stop-color="#76A738"/>
<stop offset="1" stop-color="#F3F3F3"/>
</linearGradient>
<linearGradient id="paint6_linear_788_341" x1="211.118" y1="539.443" x2="447.999" y2="110.236" gradientUnits="userSpaceOnUse">
<stop stop-color="#F3F3F3"/>
<stop offset="0.55141" stop-color="#76A738"/>
<stop offset="1" stop-color="#F3F3F3"/>
</linearGradient>
<linearGradient id="paint7_linear_788_341" x1="221.193" y1="532.423" x2="449.219" y2="119.262" gradientUnits="userSpaceOnUse">
<stop stop-color="#F3F3F3"/>
<stop offset="0.55141" stop-color="#76A738"/>
<stop offset="1" stop-color="#F3F3F3"/>
</linearGradient>
<linearGradient id="paint8_linear_788_341" x1="231.269" y1="525.402" x2="450.441" y2="128.287" gradientUnits="userSpaceOnUse">
<stop stop-color="#F3F3F3"/>
<stop offset="0.55141" stop-color="#76A738"/>
<stop offset="1" stop-color="#F3F3F3"/>
</linearGradient>
<linearGradient id="paint9_linear_788_341" x1="241.344" y1="518.381" x2="451.662" y2="137.312" gradientUnits="userSpaceOnUse">
<stop stop-color="#F3F3F3"/>
<stop offset="0.55141" stop-color="#76A738"/>
<stop offset="1" stop-color="#F3F3F3"/>
</linearGradient>
<linearGradient id="paint10_linear_788_341" x1="251.419" y1="511.36" x2="452.883" y2="146.339" gradientUnits="userSpaceOnUse">
<stop stop-color="#F3F3F3"/>
<stop offset="0.55141" stop-color="#76A738"/>
<stop offset="1" stop-color="#F3F3F3"/>
</linearGradient>
<linearGradient id="paint11_linear_788_341" x1="261.495" y1="504.338" x2="454.104" y2="155.364" gradientUnits="userSpaceOnUse">
<stop stop-color="#F3F3F3"/>
<stop offset="0.55141" stop-color="#76A738"/>
<stop offset="1" stop-color="#F3F3F3"/>
</linearGradient>
<linearGradient id="paint12_linear_788_341" x1="271.571" y1="497.319" x2="455.327" y2="164.391" gradientUnits="userSpaceOnUse">
<stop stop-color="#F3F3F3"/>
<stop offset="0.55141" stop-color="#76A738"/>
<stop offset="1" stop-color="#F3F3F3"/>
</linearGradient>
<linearGradient id="paint13_linear_788_341" x1="281.646" y1="490.297" x2="456.548" y2="173.416" gradientUnits="userSpaceOnUse">
<stop stop-color="#F3F3F3"/>
<stop offset="0.55141" stop-color="#76A738"/>
<stop offset="1" stop-color="#F3F3F3"/>
</linearGradient>
<linearGradient id="paint14_linear_788_341" x1="291.722" y1="483.276" x2="457.77" y2="182.441" gradientUnits="userSpaceOnUse">
<stop stop-color="#F3F3F3"/>
<stop offset="0.55141" stop-color="#76A738"/>
<stop offset="1" stop-color="#F3F3F3"/>
</linearGradient>
<linearGradient id="paint15_linear_788_341" x1="301.796" y1="476.255" x2="458.992" y2="191.468" gradientUnits="userSpaceOnUse">
<stop stop-color="#F3F3F3"/>
<stop offset="0.55141" stop-color="#76A738"/>
<stop offset="1" stop-color="#F3F3F3"/>
</linearGradient>
<linearGradient id="paint16_linear_788_341" x1="311.871" y1="469.232" x2="460.21" y2="200.49" gradientUnits="userSpaceOnUse">
<stop stop-color="#F3F3F3"/>
<stop offset="0.55141" stop-color="#76A738"/>
<stop offset="1" stop-color="#F3F3F3"/>
</linearGradient>
<linearGradient id="paint17_linear_788_341" x1="321.948" y1="462.213" x2="461.434" y2="209.516" gradientUnits="userSpaceOnUse">
<stop stop-color="#F3F3F3"/>
<stop offset="0.55141" stop-color="#76A738"/>
<stop offset="1" stop-color="#F3F3F3"/>
</linearGradient>
<linearGradient id="paint18_linear_788_341" x1="332.02" y1="455.19" x2="462.651" y2="218.541" gradientUnits="userSpaceOnUse">
<stop stop-color="#F3F3F3"/>
<stop offset="0.55141" stop-color="#76A738"/>
<stop offset="1" stop-color="#F3F3F3"/>
</linearGradient>
<linearGradient id="paint19_linear_788_341" x1="342.098" y1="448.172" x2="463.876" y2="227.57" gradientUnits="userSpaceOnUse">
<stop stop-color="#F3F3F3"/>
<stop offset="0.55141" stop-color="#76A738"/>
<stop offset="1" stop-color="#F3F3F3"/>
</linearGradient>
</defs>
</svg>
