<svg width="588" height="599" viewBox="0 0 588 599" fill="none" xmlns="http://www.w3.org/2000/svg">
<path d="M315.278 598.537C316.447 561.77 306.34 529.487 277.641 508.273C272.792 504.69 266.487 500.043 260.241 495.441C150.55 414.606 66.8262 352.908 51.2798 249.505C39.7326 172.702 163.103 47.7689 236.824 -19.2062L236.088 -19.8587C162.241 47.2585 38.7026 172.462 50.3059 249.652C65.9107 353.454 149.778 415.257 259.658 496.23C264.873 500.073 270.173 503.978 277.055 509.066C305.265 529.918 315.353 561.599 314.374 597.737L315.277 598.539L315.278 598.537Z" fill="url(#paint0_linear_778_134)"/>
<path d="M306.206 590.487C311.176 546.952 302.72 508.04 269.793 483.703C264.987 480.15 258.645 475.476 252.393 470.87C142.701 390.035 58.9744 328.337 43.4294 224.933C32.381 151.43 144.901 33.8446 219.213 -34.8322L218.48 -35.4833C144.044 33.3385 31.3517 151.202 42.4585 225.08C58.0633 328.882 141.932 390.686 251.812 471.656C257.019 475.495 262.281 479.373 269.207 484.491C301.655 508.475 310.124 546.784 305.354 589.728L306.207 590.485L306.206 590.487Z" fill="url(#paint1_linear_778_134)"/>
<path d="M296.049 581.475C304.975 531.745 298.749 486.329 261.94 459.121C257.111 455.553 250.79 450.892 244.54 446.288C134.848 365.454 51.1214 303.756 35.5764 200.352C24.9986 129.978 127.696 19.1926 201.679 -50.3895L200.949 -51.0378C126.842 18.6923 23.9699 129.759 34.6055 200.498C50.2103 304.3 134.079 366.105 243.957 447.076C249.17 450.916 254.45 454.808 261.353 459.911C297.686 486.765 303.956 531.583 295.237 580.754L296.049 581.475Z" fill="url(#paint2_linear_778_134)"/>
<path d="M286.514 573.014C298.957 518.257 295.074 467.17 255.064 437.596C250.251 434.039 243.913 429.369 237.666 424.764C127.974 343.93 44.2476 282.232 28.7026 178.828C18.5175 111.084 113.305 5.88975 186.4 -63.9472L185.671 -64.594C112.452 5.39548 17.4907 110.872 27.7287 178.974C43.3335 282.777 127.202 344.581 237.082 425.554C242.294 429.394 247.559 433.274 254.478 438.388C294.012 467.609 297.957 518.092 285.726 572.315L286.514 573.014Z" fill="url(#paint3_linear_778_134)"/>
<path d="M276.821 564.414C292.677 505.107 291.384 448.508 248.401 416.738C243.559 413.158 237.245 408.507 231.001 403.905C121.309 323.071 37.5825 261.372 22.0375 157.969C12.2266 92.6947 99.8677 -7.34363 171.66 -77.0263L170.932 -77.6718C99.015 -7.83188 11.2004 92.4921 21.0667 158.115C36.6715 261.917 120.539 323.72 230.418 404.693C235.636 408.537 240.924 412.436 247.816 417.529C290.317 448.943 291.688 504.933 276.044 563.724L276.821 564.414Z" fill="url(#paint4_linear_778_134)"/>
<path d="M266.469 555.228C285.807 491.564 287.489 429.256 241.555 395.304C236.713 391.725 230.399 387.073 224.155 382.472C114.463 301.637 30.7367 239.939 15.1917 136.535C6.36093 77.7949 76.4601 -9.10288 142.903 -76.6971L138.748 -73.8355C73.2162 -6.59413 5.49423 78.6303 14.2208 136.681C29.8256 240.484 113.694 302.288 223.573 383.26C228.79 387.104 234.078 391.003 240.968 396.094C286.414 429.687 284.829 491.378 265.702 554.548L266.469 555.228Z" fill="url(#paint5_linear_778_134)"/>
<path d="M256.39 546.285C278.974 478.783 283.735 411.009 235.084 375.049C230.264 371.486 223.931 366.82 217.684 362.216C107.992 281.381 24.2656 219.683 8.72058 116.28C2.56397 75.3225 34.7877 20.6704 77.3812 -31.5809L74.6475 -29.6986C32.9045 22.0055 1.64758 75.854 7.74667 116.426C23.3515 220.228 107.22 282.033 217.098 363.004C222.312 366.846 227.583 370.732 234.494 375.839C282.654 411.437 278.003 478.585 255.626 545.61L256.388 546.287L256.39 546.285Z" fill="url(#paint6_linear_778_134)"/>
<path d="M245.182 536.34C271.211 464.989 279.61 391.204 228.075 353.111C223.234 349.531 216.92 344.88 210.675 340.278C100.983 259.443 17.2571 197.745 1.71208 94.3416C-2.35333 67.2875 10.3337 34.2518 31.6883 -0.117174L29.8072 1.17703C8.99506 35.1081 -3.28607 67.696 0.742763 94.4893C16.3476 198.292 100.216 260.096 210.095 341.068C215.312 344.912 220.601 348.809 227.49 353.902C278.524 391.625 270.254 464.776 244.427 535.67L245.182 536.34Z" fill="url(#paint7_linear_778_134)"/>
<defs>
<linearGradient id="paint0_linear_778_134" x1="199.417" y1="452.92" x2="145.16" y2="66.6477" gradientUnits="userSpaceOnUse">
<stop stop-color="#003D2B"/>
<stop offset="0.544795" stop-color="#76A738" stop-opacity="0.22"/>
<stop offset="1" stop-color="#003D2B"/>
</linearGradient>
<linearGradient id="paint1_linear_778_134" x1="187.461" y1="442.307" x2="136.58" y2="50.8424" gradientUnits="userSpaceOnUse">
<stop stop-color="#003D2B"/>
<stop offset="0.544795" stop-color="#76A738" stop-opacity="0.22"/>
<stop offset="1" stop-color="#003D2B"/>
</linearGradient>
<linearGradient id="paint2_linear_778_134" x1="174.832" y1="431.102" x2="126.877" y2="35.3153" gradientUnits="userSpaceOnUse">
<stop stop-color="#003D2B"/>
<stop offset="0.544795" stop-color="#76A738" stop-opacity="0.22"/>
<stop offset="1" stop-color="#003D2B"/>
</linearGradient>
<linearGradient id="paint3_linear_778_134" x1="163.378" y1="420.939" x2="117.715" y2="21.8781" gradientUnits="userSpaceOnUse">
<stop stop-color="#003D2B"/>
<stop offset="0.544795" stop-color="#76A738" stop-opacity="0.22"/>
<stop offset="1" stop-color="#003D2B"/>
</linearGradient>
<linearGradient id="paint4_linear_778_134" x1="152" y1="410.844" x2="108.362" y2="8.96291" gradientUnits="userSpaceOnUse">
<stop stop-color="#003D2B"/>
<stop offset="0.544795" stop-color="#76A738" stop-opacity="0.22"/>
<stop offset="1" stop-color="#003D2B"/>
</linearGradient>
<linearGradient id="paint5_linear_778_134" x1="139.064" y1="401.384" x2="107.813" y2="5.09371" gradientUnits="userSpaceOnUse">
<stop stop-color="#003D2B"/>
<stop offset="0.544795" stop-color="#76A738" stop-opacity="0.22"/>
<stop offset="1" stop-color="#003D2B"/>
</linearGradient>
<linearGradient id="paint6_linear_778_134" x1="123.839" y1="395.943" x2="136.138" y2="41.7753" gradientUnits="userSpaceOnUse">
<stop stop-color="#003D2B"/>
<stop offset="0.544795" stop-color="#76A738" stop-opacity="0.22"/>
<stop offset="1" stop-color="#003D2B"/>
</linearGradient>
<linearGradient id="paint7_linear_778_134" x1="110.395" y1="389.636" x2="149.041" y2="78.1866" gradientUnits="userSpaceOnUse">
<stop stop-color="#003D2B"/>
<stop offset="0.544795" stop-color="#76A738" stop-opacity="0.22"/>
<stop offset="1" stop-color="#003D2B"/>
</linearGradient>
</defs>
</svg>
