<svg width="159" height="107" viewBox="0 0 159 107" fill="none" xmlns="http://www.w3.org/2000/svg">
<path d="M1.18074 50.5275L48.5307 84.1275C48.6707 84.2275 48.8507 84.2375 49.0007 84.1475L157.151 21.1375C157.461 20.9575 157.431 20.4975 157.101 20.3675L111.431 1.0375C111.321 0.9875 111.191 0.9875 111.081 1.0375L1.25073 49.7775C0.95073 49.9175 0.910738 50.3375 1.18074 50.5275Z" stroke="#FF6100" stroke-opacity="0.35" stroke-width="1.5" stroke-miterlimit="10"/>
<path d="M12.4109 48.8275L108.061 6.3775C110.131 7.2575 112.481 7.2375 114.531 6.3175L144.581 19.0375C142.581 20.1975 142.771 23.1375 144.901 24.0375L51.8709 78.2375C50.1909 77.0475 47.9609 76.9475 46.1809 77.9775L11.9209 53.6675C13.9109 52.7975 14.1909 50.0875 12.4109 48.8275Z" stroke="#FF6100" stroke-opacity="0.35" stroke-width="1.5" stroke-miterlimit="10"/>
<path d="M1.00098 50.2075L1.48097 70.1275C1.49097 70.4375 1.63098 70.7175 1.88098 70.9075L47.581 105.177C47.911 105.427 48.371 105.447 48.721 105.217L157.411 36.3975C157.711 36.2075 157.891 35.8675 157.881 35.5175L157.321 20.5675" stroke="#FF6100" stroke-opacity="0.35" stroke-width="1.5" stroke-miterlimit="10"/>
<path d="M48.7606 84.2975L48.1406 105.598" stroke="#FF6100" stroke-opacity="0.35" stroke-width="1.5" stroke-miterlimit="10"/>
<path d="M89.0303 53.3375C88.9303 53.4075 88.8503 53.3975 88.7803 53.3075L87.2104 51.2275C85.7504 51.7775 84.2303 51.8175 82.6703 51.3675C81.1103 50.9175 79.8303 50.0375 78.8403 48.7275L77.8103 47.3675C77.7403 47.2675 77.7503 47.1875 77.8403 47.1175L81.1004 44.6475C81.1704 44.5975 81.2404 44.6175 81.3204 44.7075L82.3504 46.0675C82.8204 46.6875 83.4503 47.0675 84.2503 47.1975C85.0403 47.3275 85.7403 47.1675 86.3403 46.7175C86.9603 46.2475 87.3003 45.6175 87.3703 44.8375C87.4303 44.0575 87.2504 43.3775 86.8204 42.8075C86.2604 42.0675 85.3203 41.7875 83.9903 41.9675C83.5303 42.0075 82.8403 42.1075 81.9003 42.2575C80.9603 42.4075 80.0903 42.5375 79.2803 42.6675C77.6903 42.8975 76.2603 42.7175 75.0103 42.1275C73.7603 41.5375 72.6704 40.6375 71.7404 39.4175C70.7304 38.0775 70.2303 36.6275 70.2603 35.0475C70.2903 33.4675 70.7503 32.0575 71.6403 30.8175L70.0704 28.7375C70.0004 28.6375 70.0104 28.5575 70.1004 28.4875L73.2104 26.1275C73.3304 26.0375 73.4303 26.0375 73.5003 26.1375L75.1004 28.2475C76.5204 27.7375 77.9803 27.6975 79.4903 28.1275C81.0003 28.5575 82.2403 29.4175 83.2203 30.7075L85.0404 33.1075C85.0904 33.1775 85.0903 33.2375 85.0103 33.2975L81.7203 35.7975C81.6503 35.8475 81.5903 35.8475 81.5303 35.7675L79.6804 33.3975C79.1604 32.7075 78.5103 32.3175 77.7603 32.2375C77.0003 32.1575 76.3403 32.3275 75.7603 32.7675C75.1603 33.2175 74.8303 33.8275 74.7503 34.5975C74.6803 35.3675 74.8703 36.0575 75.3403 36.6875C75.7903 37.2875 76.3103 37.6875 76.8903 37.9075C77.4703 38.1275 78.2603 38.1775 79.2603 38.0575L83.4803 37.4575C84.8603 37.2375 86.1203 37.3175 87.2803 37.6775C88.4403 38.0375 89.4703 38.8175 90.3703 40.0075C91.4003 41.3675 91.9204 42.8275 91.9304 44.3775C91.9404 45.9275 91.5103 47.3375 90.6304 48.6075L92.2303 50.7175C92.3003 50.8175 92.2803 50.9075 92.1603 50.9975L89.0303 53.3375Z" fill="#FF6100" fill-opacity="0.28"/>
<path d="M58.5703 48.2775C60.4503 51.1975 59.6103 55.0975 56.6903 56.9875C53.7703 58.8675 49.8703 58.0275 47.9803 55.1075C46.1003 52.1875 46.9403 48.2875 49.8603 46.3975C52.7803 44.5075 56.6803 45.3575 58.5703 48.2775Z" stroke="#FF6100" stroke-opacity="0.35" stroke-width="1.5" stroke-miterlimit="10"/>
<path d="M112.101 19.7775C113.981 22.6975 113.141 26.5975 110.221 28.4875C107.301 30.3675 103.401 29.5275 101.511 26.6075C99.6305 23.6875 100.471 19.7875 103.391 17.8975C106.321 16.0075 110.211 16.8475 112.101 19.7775Z" stroke="#FF6100" stroke-opacity="0.35" stroke-width="1.5" stroke-miterlimit="10"/>
<path d="M1.18066 52.9975L48.7607 86.7675L157.151 23.6075" stroke="#FF6100" stroke-opacity="0.35" stroke-miterlimit="10"/>
<path d="M1.18066 55.7975L48.7607 89.5675L157.151 26.4075" stroke="#FF6100" stroke-opacity="0.35" stroke-miterlimit="10"/>
<path d="M1.18066 58.5975L48.7607 92.3675L157.151 29.2075" stroke="#FF6100" stroke-opacity="0.35" stroke-miterlimit="10"/>
<path d="M1.18066 61.3975L48.7607 95.1675L157.151 32.0075" stroke="#FF6100" stroke-opacity="0.35" stroke-miterlimit="10"/>
<path d="M1.18066 64.1975L48.7607 97.9675L157.881 34.3875" stroke="#FF6100" stroke-opacity="0.35" stroke-miterlimit="10"/>
<path d="M1.18066 66.9975L48.7607 100.757L134.221 50.9675" stroke="#FF6100" stroke-opacity="0.35" stroke-miterlimit="10"/>
<path d="M1.18066 69.7975L48.7607 103.557L79.4407 85.6875" stroke="#FF6100" stroke-opacity="0.35" stroke-miterlimit="10"/>
</svg>
