<svg width="260" height="668" viewBox="0 0 260 668" fill="none" xmlns="http://www.w3.org/2000/svg">
<path d="M96.3612 667.107C120.567 639.408 133.209 608.031 124.454 573.433C122.974 567.588 121.042 559.998 119.127 552.479C85.5079 420.433 59.8477 319.647 113.355 229.81C153.098 163.082 327.706 144.63 427.177 139.545L427.022 138.574C327.363 143.69 152.454 162.243 112.509 229.306C58.7932 319.489 84.4982 420.447 118.176 552.72C119.775 558.998 121.398 565.377 123.498 573.675C132.104 607.683 119.829 638.582 96.1684 665.916L96.3591 667.108L96.3612 667.107Z" fill="url(#paint0_linear_786_717)"/>
<path d="M94.4448 655.131C125.88 624.605 144 589.147 133.954 549.453C132.489 543.659 130.545 536.024 128.627 528.499C95.0078 396.453 69.3452 295.665 122.854 205.827C160.892 141.969 322.45 122.324 423.458 116.297L423.303 115.328C322.109 121.39 160.24 141.14 122.011 205.325C68.2952 295.509 94.0006 396.469 127.68 528.739C129.275 535.009 130.887 541.343 133.002 549.692C142.901 588.808 125.173 623.809 94.2666 654.004L94.4469 655.131L94.4448 655.131Z" fill="url(#paint1_linear_786_717)"/>
<path d="M92.2998 641.722C130.722 608.912 154.688 569.836 143.459 525.461C141.985 519.641 140.049 512.03 138.132 504.508C104.513 372.461 78.8502 271.673 132.359 181.836C168.777 120.696 318.428 100.086 419.755 93.1506L419.601 92.1861C318.085 99.1582 168.121 119.874 131.516 181.334C77.8002 271.517 103.506 372.477 137.183 504.748C138.781 511.022 140.399 517.378 142.504 525.7C153.59 569.5 130.036 608.141 92.1283 640.65L92.2998 641.722Z" fill="url(#paint2_linear_786_717)"/>
<path d="M90.2859 629.135C134.614 594.665 163.988 552.687 151.782 504.453C150.313 498.652 148.371 491.023 146.456 483.502C112.837 351.455 87.1739 250.667 140.683 160.83C175.738 101.973 315.727 80.6755 416.528 72.9797L416.374 72.0173C315.38 79.7525 175.078 101.158 139.837 160.326C86.1215 250.51 111.827 351.47 145.504 483.743C147.103 490.016 148.715 496.354 150.826 504.695C162.888 552.353 133.946 593.904 90.1195 628.095L90.2859 629.135Z" fill="url(#paint3_linear_786_717)"/>
<path d="M88.2393 616.339C138.09 580.513 172.961 535.912 159.847 484.096C158.37 478.259 156.435 470.659 154.521 463.142C120.901 331.096 95.2384 230.308 148.748 140.471C182.527 83.7616 313.72 61.9229 413.416 53.5207L413.262 52.5604C313.37 61.0049 181.861 82.9544 147.904 139.968C94.1885 230.152 119.893 331.11 153.571 463.383C155.17 469.663 156.79 476.03 158.893 484.337C171.86 535.572 137.437 579.751 88.0752 615.313L88.2393 616.339Z" fill="url(#paint4_linear_786_717)"/>
<path d="M86.0534 602.674C141.36 565.683 182.15 518.553 168.136 463.178C166.659 457.341 164.723 449.741 162.809 442.225C129.19 310.178 103.527 209.39 157.036 119.553C187.433 68.5189 296.729 45.7274 390.963 35.5508L385.935 35.1306C292.63 45.6121 186.233 68.6158 156.192 119.051C102.477 209.234 128.182 310.194 161.859 442.465C163.459 448.745 165.078 455.112 167.181 463.417C181.045 518.204 140.721 564.919 85.8913 601.661L86.0534 602.674Z" fill="url(#paint5_linear_786_717)"/>
<path d="M83.9247 589.368C144.174 551.466 190.81 502.059 175.967 443.409C174.497 437.599 172.555 429.976 170.641 422.455C137.021 290.409 111.359 189.621 164.868 99.7834C186.063 64.2002 245.625 42.3476 311.687 28.9239L308.38 28.6475C243.322 42.1868 185.017 64.0306 164.022 99.2795C110.306 189.463 136.012 290.423 169.689 422.694C171.287 428.97 172.902 435.316 175.011 443.646C189.703 501.705 143.55 550.698 83.7615 588.362L83.9226 589.369L83.9247 589.368Z" fill="url(#paint6_linear_786_717)"/>
<path d="M81.5571 574.572C146.911 535.877 200.17 484.125 184.449 421.998C182.972 416.161 181.036 408.561 179.122 401.044C145.503 268.998 119.84 168.21 173.349 78.3722C187.35 54.8687 218.101 37.3552 256.401 24.3037L254.126 24.1126C216.523 37.1693 186.37 54.5935 172.506 77.8722C118.79 168.056 144.496 269.016 178.173 401.287C179.772 407.567 181.394 413.933 183.495 422.239C199.063 483.762 146.305 535.105 81.3977 573.576L81.5571 574.572Z" fill="url(#paint7_linear_786_717)"/>
<defs>
<linearGradient id="paint0_linear_786_717" x1="99.0268" y1="481.04" x2="301.862" y2="147.862" gradientUnits="userSpaceOnUse">
<stop stop-color="#F3F3F3"/>
<stop offset="0.544795" stop-color="#76A738" stop-opacity="0.22"/>
<stop offset="1" stop-color="#F3F3F3"/>
</linearGradient>
<linearGradient id="paint1_linear_786_717" x1="96.5029" y1="465.254" x2="305.241" y2="130.199" gradientUnits="userSpaceOnUse">
<stop stop-color="#F3F3F3"/>
<stop offset="0.544795" stop-color="#76A738" stop-opacity="0.22"/>
<stop offset="1" stop-color="#F3F3F3"/>
</linearGradient>
<linearGradient id="paint2_linear_786_717" x1="93.8359" y1="448.582" x2="307.577" y2="112.039" gradientUnits="userSpaceOnUse">
<stop stop-color="#F3F3F3"/>
<stop offset="0.544795" stop-color="#76A738" stop-opacity="0.22"/>
<stop offset="1" stop-color="#F3F3F3"/>
</linearGradient>
<linearGradient id="paint3_linear_786_717" x1="91.4169" y1="433.462" x2="309.006" y2="95.8378" gradientUnits="userSpaceOnUse">
<stop stop-color="#F3F3F3"/>
<stop offset="0.544795" stop-color="#76A738" stop-opacity="0.22"/>
<stop offset="1" stop-color="#F3F3F3"/>
</linearGradient>
<linearGradient id="paint4_linear_786_717" x1="89.0144" y1="418.442" x2="309.957" y2="79.9202" gradientUnits="userSpaceOnUse">
<stop stop-color="#F3F3F3"/>
<stop offset="0.544795" stop-color="#76A738" stop-opacity="0.22"/>
<stop offset="1" stop-color="#F3F3F3"/>
</linearGradient>
<linearGradient id="paint5_linear_786_717" x1="85.0032" y1="402.926" x2="311.984" y2="76.5792" gradientUnits="userSpaceOnUse">
<stop stop-color="#F3F3F3"/>
<stop offset="0.544795" stop-color="#76A738" stop-opacity="0.22"/>
<stop offset="1" stop-color="#F3F3F3"/>
</linearGradient>
<linearGradient id="paint6_linear_786_717" x1="76.6744" y1="389.068" x2="310.647" y2="122.905" gradientUnits="userSpaceOnUse">
<stop stop-color="#F3F3F3"/>
<stop offset="0.544795" stop-color="#76A738" stop-opacity="0.22"/>
<stop offset="1" stop-color="#F3F3F3"/>
</linearGradient>
<linearGradient id="paint7_linear_786_717" x1="70.2716" y1="375.67" x2="297.55" y2="159.247" gradientUnits="userSpaceOnUse">
<stop stop-color="#F3F3F3"/>
<stop offset="0.544795" stop-color="#76A738" stop-opacity="0.22"/>
<stop offset="1" stop-color="#F3F3F3"/>
</linearGradient>
</defs>
</svg>
