<svg width="646" height="611" viewBox="0 0 646 611" fill="none" xmlns="http://www.w3.org/2000/svg">
<path d="M0.00090247 322.784C31.5013 330.21 61.1032 327.13 84.4052 306.086C88.3418 302.529 93.4487 297.904 98.5079 293.321C187.359 212.843 255.175 151.418 347.053 156.061C415.297 159.51 501.493 287.699 546.378 362.959L547.069 362.439C502.083 287.046 415.684 158.663 347.097 155.195C254.864 150.533 186.932 212.064 97.929 292.68C93.7051 296.507 89.4123 300.395 83.824 305.441C60.9194 326.128 31.84 329.296 0.848234 322.144L-0.000217176 322.783L0.00090247 322.784Z" fill="url(#paint0_linear_1230_692)"/>
<path d="M8.52612 316.367C45.1989 328.251 80.2288 327.751 106.962 303.606C110.865 300.083 116.003 295.43 121.065 290.842C209.916 210.364 277.733 148.936 369.612 153.58C434.922 156.883 516.677 274.434 562.926 350.502L563.615 349.982C517.263 273.784 435.299 156.036 369.655 152.718C277.422 148.055 209.489 209.588 120.488 290.204C116.269 294.025 112.007 297.885 106.385 302.964C80.0399 326.758 45.5272 327.374 9.32926 315.764L8.52725 316.368L8.52612 316.367Z" fill="url(#paint1_linear_1230_692)"/>
<path d="M18.0701 309.181C59.3943 325.559 99.6431 328.117 129.53 301.126C133.45 297.585 138.571 292.948 143.633 288.362C232.483 207.883 300.3 146.455 392.179 151.1C454.709 154.262 532.314 262.156 579.401 338.098L580.088 337.581C532.894 261.507 455.078 153.413 392.222 150.237C299.989 145.575 232.056 207.107 143.055 287.722C138.834 291.546 134.556 295.42 128.951 300.482C99.4526 327.125 59.7121 324.709 18.8331 308.607L18.0701 309.181Z" fill="url(#paint2_linear_1230_692)"/>
<path d="M27.03 302.436C72.0753 322.724 116.806 328.293 149.292 298.954C153.199 295.425 158.332 290.775 163.393 286.191C252.244 205.713 320.06 144.285 411.939 148.93C472.133 151.972 546.297 252.069 593.759 327.289L594.444 326.773C546.872 251.419 472.495 151.123 411.983 148.064C319.75 143.402 251.817 204.934 162.814 285.55C158.593 289.375 154.328 293.237 148.71 298.31C116.612 327.3 72.392 321.891 27.7706 301.879L27.03 302.436Z" fill="url(#paint3_linear_1230_692)"/>
<path d="M36.1384 295.579C84.5109 319.603 133.542 328.368 168.441 296.849C172.372 293.299 177.486 288.666 182.543 284.085C271.394 203.607 339.211 142.178 431.09 146.823C489.088 149.756 560.054 242.791 607.611 316.861L608.294 316.346C560.624 242.141 489.442 148.907 431.133 145.96C338.9 141.298 270.968 202.829 181.966 283.445C177.74 287.273 173.455 291.152 167.861 296.206C133.354 327.372 84.8341 318.781 36.8685 295.029L36.1384 295.579Z" fill="url(#paint4_linear_1230_692)"/>
<path d="M45.8655 288.256C97.3884 316.044 150.823 328.37 188.117 294.687C192.049 291.137 197.162 286.504 202.22 281.923C291.071 201.445 358.888 140.016 450.767 144.661C502.96 147.299 565.657 222.914 612.346 292.007L610.604 287.924C564.059 219.679 502.391 146.406 450.81 143.798C358.577 139.136 290.644 200.668 201.642 281.283C197.417 285.111 193.132 288.99 187.539 294.043C150.639 327.368 97.7194 315.233 46.5865 287.713L45.8655 288.256Z" fill="url(#paint5_linear_1230_692)"/>
<path d="M55.3361 281.126C109.602 312.382 167.212 328.318 206.713 292.643C210.626 289.109 215.755 284.462 220.816 279.879C309.667 199.401 377.483 137.972 469.362 142.617C505.754 144.457 547.256 181.783 584.878 227.632L583.732 224.946C546.434 179.926 505.456 143.574 469.406 141.751C377.173 137.089 309.24 198.621 220.238 279.236C216.016 283.062 211.745 286.929 206.135 291.996C167.032 327.311 109.942 311.58 56.0515 280.585L55.3349 281.124L55.3361 281.126Z" fill="url(#paint6_linear_1230_692)"/>
<path d="M65.8691 273.197C122.852 308.096 185.011 328.218 226.854 290.428C230.786 286.878 235.899 282.246 240.957 277.664C329.808 197.186 397.624 135.758 489.503 140.402C513.542 141.619 539.814 158.325 565.723 182.739L564.935 180.891C539.309 157.022 513.352 140.743 489.545 139.541C397.312 134.878 329.379 196.411 240.377 277.026C236.152 280.853 231.868 284.735 226.274 289.786C184.837 327.208 123.202 307.308 66.5782 272.663L65.8691 273.197Z" fill="url(#paint7_linear_1230_692)"/>
<defs>
<linearGradient id="paint0_linear_1230_692" x1="145.791" y1="248.295" x2="488.345" y2="268.932" gradientUnits="userSpaceOnUse">
<stop stop-color="white"/>
<stop offset="0.544795" stop-color="#023436" stop-opacity="0.31"/>
<stop offset="1" stop-color="white"/>
</linearGradient>
<linearGradient id="paint1_linear_1230_692" x1="157.029" y1="239.837" x2="503.472" y2="264.292" gradientUnits="userSpaceOnUse">
<stop stop-color="white"/>
<stop offset="0.544795" stop-color="#023436" stop-opacity="0.31"/>
<stop offset="1" stop-color="white"/>
</linearGradient>
<linearGradient id="paint2_linear_1230_692" x1="168.895" y1="230.903" x2="518.554" y2="258.636" gradientUnits="userSpaceOnUse">
<stop stop-color="white"/>
<stop offset="0.544795" stop-color="#023436" stop-opacity="0.31"/>
<stop offset="1" stop-color="white"/>
</linearGradient>
<linearGradient id="paint3_linear_1230_692" x1="179.658" y1="222.8" x2="531.741" y2="253.081" gradientUnits="userSpaceOnUse">
<stop stop-color="white"/>
<stop offset="0.544795" stop-color="#023436" stop-opacity="0.31"/>
<stop offset="1" stop-color="white"/>
</linearGradient>
<linearGradient id="paint4_linear_1230_692" x1="190.35" y1="214.751" x2="544.51" y2="247.27" gradientUnits="userSpaceOnUse">
<stop stop-color="white"/>
<stop offset="0.544795" stop-color="#023436" stop-opacity="0.31"/>
<stop offset="1" stop-color="white"/>
</linearGradient>
<linearGradient id="paint5_linear_1230_692" x1="200.764" y1="205.248" x2="547.942" y2="247.472" gradientUnits="userSpaceOnUse">
<stop stop-color="white"/>
<stop offset="0.544795" stop-color="#023436" stop-opacity="0.31"/>
<stop offset="1" stop-color="white"/>
</linearGradient>
<linearGradient id="paint6_linear_1230_692" x1="208.114" y1="193.069" x2="511.367" y2="265.494" gradientUnits="userSpaceOnUse">
<stop stop-color="white"/>
<stop offset="0.544795" stop-color="#023436" stop-opacity="0.31"/>
<stop offset="1" stop-color="white"/>
</linearGradient>
<linearGradient id="paint7_linear_1230_692" x1="215.899" y1="182.577" x2="477.718" y2="270.264" gradientUnits="userSpaceOnUse">
<stop stop-color="white"/>
<stop offset="0.544795" stop-color="#023436" stop-opacity="0.31"/>
<stop offset="1" stop-color="white"/>
</linearGradient>
</defs>
</svg>
