<svg width="563" height="487" viewBox="0 0 563 487" fill="none" xmlns="http://www.w3.org/2000/svg">
<path fill-rule="evenodd" clip-rule="evenodd" d="M144.682 183.033C145.369 198.403 141.262 213.393 134.492 227.092C127.852 240.242 118.96 252.115 108.898 262.833C97.9573 274.48 85.2506 285.202 72.4572 295.996C41.1971 322.371 9.4197 349.183 1.6263 391.014C-2.84338 415.007 4.23663 438.773 21.0481 456.429C36.985 473.165 59.5259 483.582 82.4613 485.77C109.102 488.313 135.872 479.758 158.646 466.375C182.54 452.333 201.708 432.869 219.809 412.167C221.316 410.443 222.823 408.71 224.332 406.974L224.334 406.972L224.344 406.96C240.036 388.912 256.03 370.517 276.458 357.771C288.545 350.23 301.849 345.358 315.894 343.017C330.297 340.617 344.957 340.523 359.52 340.633C360.531 340.64 361.541 340.649 362.553 340.657C390.527 340.884 418.845 341.114 444.537 328.424C450.615 325.422 456.459 321.979 462.302 318.536L462.302 318.536L462.302 318.536L462.302 318.536L462.302 318.536L462.303 318.535L462.303 318.535L462.303 318.535L462.303 318.535L462.303 318.535L462.304 318.535L462.304 318.535L462.304 318.535L462.304 318.534L462.304 318.534L462.305 318.534L462.305 318.534L462.305 318.534L462.305 318.534L462.305 318.534L462.306 318.534C469.488 314.302 476.669 310.071 484.283 306.659C498.192 300.428 514.613 296.483 529.423 302.003C534.41 303.862 538.703 304.736 543.926 303.035C548.901 301.416 553.348 298.094 556.508 293.948C564.53 283.431 563.214 268.727 561.623 256.426C558.759 234.29 555.707 212.176 552.656 190.063L552.656 190.062L552.656 190.06L552.656 190.059L552.655 190.057L552.655 190.057L552.655 190.055L552.655 190.054L552.655 190.052L552.654 190.051L552.654 190.049L552.654 190.048L552.654 190.046L552.654 190.045L552.653 190.043L552.653 190.043L552.653 190.041L552.653 190.04L552.653 190.038L552.653 190.037L552.652 190.036C551.156 179.189 549.659 168.341 548.184 157.491C547.465 152.197 546.75 146.902 546.035 141.608L546.035 141.603C544.553 130.624 543.07 119.645 541.547 108.672C539.851 96.4559 537.876 84.2487 534.77 72.3014C528.845 49.5066 518.087 26.8236 497.258 14.1887C474.533 0.40278 446.076 0.724652 420.2 1.01731L420.197 1.01735L420.187 1.01748L420.186 1.01748C418.997 1.03092 417.813 1.0443 416.636 1.05624C383.509 1.39108 350.401 3.67472 317.54 7.8811C285.682 11.9597 253.737 17.4842 222.658 25.6659C195.997 32.6837 169.192 43.4903 150.72 64.8004C142.811 73.9254 136.654 84.7124 133.767 96.4921C130.348 110.446 132.373 124.704 135.648 138.477C136.495 142.04 137.421 145.595 138.349 149.154C141.253 160.304 144.166 171.486 144.682 183.033ZM135.232 227.372C135.227 227.388 135.22 227.404 135.211 227.42C120.92 255.724 97.2933 275.659 73.6333 295.622C53.4801 312.626 33.3026 329.651 18.8496 351.885C4.56223 373.864 -3.98672 401.343 4.26698 427.171C11.5567 449.986 30.4137 467.429 51.9449 476.927C104.034 499.906 160.373 471.936 197.816 434.861C206.681 426.083 214.866 416.674 223.051 407.265L223.052 407.264C231.781 397.23 240.51 387.195 250.064 377.928C258.855 369.401 268.359 361.515 278.964 355.333C289.935 348.937 301.873 344.705 314.365 342.478C331.041 339.503 347.921 339.683 364.806 339.863C376.364 339.987 387.925 340.11 399.425 339.221C413.934 338.1 428.211 335.173 441.463 329.02C448.59 325.71 455.355 321.729 462.119 317.747C468.116 314.217 474.113 310.688 480.363 307.625C492.526 301.666 506.278 297.294 519.967 298.945C522.947 299.304 525.913 299.946 528.755 300.921C529.324 301.116 529.881 301.318 530.431 301.517C533.117 302.49 535.644 303.405 538.66 303.244C544.814 302.919 550.62 299.49 554.649 294.953C564.297 284.091 562.354 267.809 560.578 254.558C559.135 243.794 557.666 233.033 556.197 222.273C555.463 216.896 554.729 211.52 553.999 206.143C552.556 195.525 551.12 184.906 549.683 174.287L549.683 174.284L549.682 174.28L549.682 174.276L549.681 174.272L549.681 174.269L549.68 174.265L549.68 174.261L549.679 174.257L549.679 174.254L549.678 174.25L549.678 174.246L549.677 174.242L549.676 174.239L549.676 174.235L549.675 174.231L549.675 174.227L549.674 174.224L549.674 174.22L549.673 174.216L549.673 174.212C546.758 152.667 543.844 131.12 540.875 109.582C537.554 85.4878 533.429 60.118 520.549 39.0233C514.125 28.5014 505.379 19.5131 494.546 13.5231C482.68 6.96266 469.184 4.11924 455.797 2.84679C440.964 1.43818 425.949 1.66474 411.067 1.91439C394.881 2.18695 378.704 2.9229 362.56 4.12286C330.461 6.5087 298.497 10.7157 266.874 16.7278L265.452 16.9981C236.205 22.5561 205.484 28.3943 179.239 43.0122C156.917 55.4465 137.2 76.3808 133.393 102.506C131.057 118.535 135.079 133.937 139.109 149.368C142.52 162.433 145.938 175.52 145.507 189.027C145.079 202.44 141.144 215.398 135.232 227.372ZM154.486 182.617C155.141 197.297 151.22 211.612 144.753 224.696C138.41 237.255 129.917 248.594 120.305 258.835C109.853 269.963 97.7142 280.206 85.4927 290.518L85.4924 290.518C55.632 315.714 25.2784 341.325 17.8333 381.286C13.5614 404.208 20.3268 426.915 36.3884 443.784C51.6145 459.775 73.1501 469.729 95.063 471.819C120.517 474.247 146.092 466.074 167.851 453.288C190.676 439.875 208.987 421.281 226.278 401.504C227.71 399.867 229.14 398.221 230.573 396.573L230.604 396.537L230.609 396.532L230.609 396.532L230.609 396.532L230.609 396.532L230.61 396.531L230.61 396.531C245.599 379.291 260.876 361.72 280.388 349.546C291.932 342.344 304.637 337.691 318.05 335.455C331.809 333.163 345.813 333.073 359.723 333.178C360.396 333.183 361.07 333.188 361.743 333.194L362.62 333.201L362.626 333.201C389.348 333.418 416.398 333.637 440.939 321.514C446.744 318.646 452.325 315.358 457.905 312.07L457.905 312.07C464.768 308.026 471.63 303.983 478.906 300.724C492.188 294.773 507.868 291.004 522.011 296.275C526.778 298.053 530.884 298.887 535.878 297.261C540.631 295.714 544.881 292.538 547.903 288.576C555.568 278.525 554.313 264.478 552.792 252.721C550.055 231.563 547.138 210.424 544.222 189.287L544.222 189.287L544.222 189.286L544.221 189.286L544.221 189.286L544.221 189.285L544.221 189.285L544.221 189.284L544.221 189.284L544.221 189.284L544.221 189.283L544.221 189.283L544.221 189.282L544.221 189.282L544.221 189.282L544.221 189.281L544.221 189.281L544.221 189.28L544.221 189.28L544.221 189.28L544.22 189.277L544.22 189.276L544.22 189.274L544.22 189.273L544.219 189.272L544.219 189.271L544.219 189.269L544.219 189.268L544.219 189.267L544.219 189.266L544.218 189.264L544.218 189.263L544.218 189.262L544.218 189.261L544.218 189.259L544.218 189.258L544.217 189.257L544.217 189.256L544.217 189.254L544.217 189.253L544.217 189.252C542.789 178.907 541.362 168.562 539.956 158.216C539.288 153.299 538.624 148.381 537.96 143.464L537.96 143.463L537.959 143.453L537.958 143.443C536.524 132.821 535.09 122.2 533.616 111.583C531.995 99.911 530.109 88.2497 527.142 76.8353C521.481 55.0554 511.201 33.3863 491.3 21.3148C469.59 8.1453 442.403 8.45288 417.682 8.73256C416.543 8.74545 415.408 8.75829 414.28 8.76974C382.634 9.09088 351.01 11.2716 319.62 15.289C289.187 19.1847 258.671 24.4625 228.982 32.2788C203.51 38.9832 177.903 49.307 160.255 69.6661C152.698 78.3838 146.816 88.6917 144.058 99.9466C140.792 113.276 142.726 126.898 145.855 140.056C146.664 143.456 147.548 146.848 148.433 150.244C151.209 160.898 153.993 171.584 154.486 182.617ZM145.446 225.076C131.792 252.086 109.236 271.117 86.6493 290.175C67.3982 306.418 48.124 322.681 34.3178 343.92C20.6735 364.909 12.5092 391.152 20.3902 415.817C27.3527 437.606 45.3614 454.265 65.9244 463.335C115.673 485.282 169.483 458.566 205.244 423.157C213.709 414.776 221.525 405.791 229.341 396.806C237.682 387.218 246.024 377.629 255.154 368.774C263.552 360.628 272.632 353.093 282.762 347.189C293.246 341.078 304.65 337.035 316.588 334.904C332.516 332.064 348.639 332.236 364.766 332.408C375.809 332.525 386.854 332.643 397.839 331.794C411.697 330.723 425.333 327.928 437.991 322.051C444.8 318.889 451.262 315.085 457.724 311.282L457.725 311.281C463.452 307.91 469.18 304.539 475.149 301.614C486.77 295.921 499.909 291.745 512.99 293.323C515.838 293.666 518.673 294.28 521.388 295.211C521.931 295.397 522.463 295.59 522.988 295.78C525.551 296.707 527.963 297.58 530.839 297.428C536.713 297.118 542.256 293.845 546.102 289.516C555.315 279.144 553.458 263.595 551.763 250.942C550.372 240.566 548.956 230.194 547.541 219.822L547.538 219.803C546.851 214.767 546.163 209.731 545.479 204.695C544.1 194.549 542.728 184.402 541.355 174.255L541.352 174.233C538.566 153.639 535.781 133.045 532.942 112.458C529.771 89.4458 525.83 65.2148 513.529 45.0668C507.394 35.0198 499.044 26.4339 488.698 20.7144C477.364 14.4487 464.476 11.7335 451.69 10.5184C437.522 9.17171 423.18 9.38945 408.967 9.62765C393.506 9.88778 378.052 10.5908 362.631 11.7373C331.968 14.0155 301.436 18.034 271.23 23.7782L269.865 24.0378C241.934 29.346 212.593 34.9222 187.528 48.884C166.209 60.7597 147.378 80.7512 143.742 105.702C141.512 121.013 145.353 135.724 149.202 150.464C152.461 162.943 155.725 175.443 155.314 188.344C154.904 201.175 151.138 213.571 145.477 225.023C145.468 225.042 145.458 225.06 145.446 225.076ZM155.016 222.298C161.177 209.832 164.915 196.19 164.291 182.202C163.821 171.687 161.167 161.503 158.522 151.349C157.678 148.112 156.835 144.877 156.064 141.637C153.082 129.095 151.238 116.11 154.352 103.403C156.982 92.6726 162.59 82.8455 169.794 74.532C186.617 55.1253 211.026 45.2828 235.307 38.8904C263.605 31.4411 292.693 26.41 321.7 22.6972C351.618 18.8674 381.761 16.7894 411.923 16.4837C412.999 16.4728 414.079 16.4605 415.165 16.4483C438.731 16.1817 464.647 15.8885 485.345 28.4426C504.318 39.9507 514.119 60.6074 519.517 81.3707C522.346 92.2506 524.145 103.369 525.69 114.494C527.069 124.428 528.411 134.368 529.754 144.308C530.412 149.186 531.071 154.063 531.734 158.94C533.074 168.804 534.435 178.666 535.796 188.529C538.576 208.684 541.357 228.84 543.967 249.016C545.418 260.227 546.613 273.62 539.304 283.205C536.423 286.984 532.369 290.013 527.835 291.489C523.071 293.04 519.153 292.245 514.604 290.549C501.13 285.527 486.188 289.12 473.533 294.788C466.599 297.894 460.06 301.747 453.52 305.601L453.52 305.601C448.2 308.735 442.88 311.87 437.346 314.604C413.953 326.159 388.168 325.95 362.696 325.743L362.668 325.743C361.756 325.736 360.844 325.728 359.932 325.722C346.674 325.622 333.326 325.707 320.212 327.892C307.43 330.021 295.324 334.455 284.324 341.318C265.729 352.92 251.171 369.664 236.886 386.093C235.508 387.679 234.132 389.261 232.755 390.836C216.274 409.687 198.819 427.412 177.062 440.196C156.318 452.386 131.938 460.176 107.672 457.861C86.7815 455.869 66.2495 446.379 51.7342 431.134C36.4227 415.053 29.9734 393.403 34.0443 371.55C41.1414 333.458 70.0735 309.045 98.5359 285.029C110.184 275.2 121.754 265.437 131.716 254.831C140.878 245.074 148.971 234.268 155.016 222.298ZM155.735 222.626C155.743 222.611 155.75 222.596 155.755 222.581C161.139 211.673 164.721 199.871 165.11 187.654C165.502 175.359 162.391 163.446 159.285 151.553C155.616 137.504 151.955 123.482 154.081 108.889C157.547 85.1119 175.492 66.0614 195.808 54.746C219.692 41.442 247.652 36.1279 274.268 31.0694L275.578 30.8205C304.369 25.3472 333.469 21.5169 362.695 19.3449C377.393 18.2519 392.122 17.5819 406.859 17.3341C420.404 17.1058 434.073 16.8983 447.574 18.1816C459.761 19.3393 472.043 21.9278 482.845 27.8988C492.702 33.3493 500.659 41.5311 506.505 51.1048C518.228 70.3061 521.983 93.3983 525.006 115.329C527.695 134.846 530.336 154.369 532.977 173.892L532.98 173.91L532.981 173.917L532.983 173.932L532.983 173.935C534.305 183.705 535.626 193.474 536.954 203.243C537.607 208.047 538.263 212.851 538.919 217.655L538.919 217.658L538.92 217.661C540.269 227.547 541.619 237.432 542.944 247.322C544.56 259.376 546.331 274.192 537.553 284.074C533.891 288.198 528.613 291.315 523.019 291.61C520.282 291.754 517.987 290.924 515.548 290.041L515.545 290.04C515.044 289.859 514.538 289.675 514.02 289.498C511.43 288.61 508.727 288.024 506.011 287.696C493.54 286.192 481.014 290.172 469.934 295.601C464.244 298.389 458.785 301.602 453.327 304.815L453.326 304.816C447.167 308.441 441.008 312.067 434.518 315.08C422.456 320.683 409.461 323.345 396.253 324.367C385.784 325.176 375.259 325.063 364.735 324.951C349.362 324.787 333.994 324.623 318.811 327.331C307.429 329.362 296.557 333.217 286.562 339.042C276.904 344.671 268.249 351.855 260.243 359.619C251.547 368.054 243.602 377.188 235.657 386.322L235.656 386.322L235.656 386.323L235.655 386.323L235.654 386.324L235.654 386.325L235.653 386.325L235.653 386.326L235.652 386.326L235.652 386.327L235.651 386.328L235.651 386.328L235.65 386.329L235.649 386.329L235.649 386.33L235.648 386.33L235.648 386.331L235.647 386.332L235.647 386.332L235.646 386.333L235.646 386.333L235.646 386.333L235.646 386.334L235.645 386.334L235.645 386.334L235.645 386.334L235.645 386.335L235.645 386.335L235.645 386.335L235.644 386.335L235.644 386.335L235.644 386.336L235.644 386.336L235.644 386.336L235.644 386.336L235.643 386.337L235.643 386.337L235.643 386.337L235.643 386.337C228.193 394.901 220.743 403.465 212.674 411.454C178.596 445.196 127.315 470.658 79.9072 449.743C60.3138 441.099 43.1534 425.224 36.5181 404.461C29.0083 380.959 36.7895 355.952 49.7891 335.953C62.9484 315.709 81.3189 300.209 99.6675 284.727C121.21 266.55 142.722 248.398 155.735 222.626ZM174.094 181.787C174.688 195.083 171.135 208.049 165.277 219.9C159.531 231.28 151.836 241.554 143.129 250.829C133.656 260.914 122.655 270.197 111.58 279.542C84.5149 302.381 57.0041 325.595 50.2548 361.819C46.3833 382.602 52.5163 403.191 67.0779 418.486C80.8824 432.985 100.409 442.012 120.277 443.907C143.354 446.109 166.542 438.701 186.27 427.107C206.957 414.95 223.554 398.097 239.226 380.172C240.534 378.676 241.841 377.173 243.15 375.667L243.153 375.663L243.154 375.663C256.735 360.042 270.576 344.122 288.257 333.091C298.711 326.568 310.221 322.353 322.37 320.328C334.838 318.249 347.53 318.169 360.136 318.264C361.009 318.27 361.883 318.277 362.757 318.284C386.979 318.481 411.501 318.68 433.747 307.691C439.009 305.092 444.067 302.111 449.125 299.131C455.344 295.467 461.562 291.803 468.154 288.849C480.181 283.46 494.383 280.043 507.19 284.818C511.523 286.43 515.251 287.188 519.788 285.712C524.101 284.309 527.958 281.425 530.7 277.83C537.653 268.714 536.518 255.974 535.139 245.309C532.659 226.149 530.018 207.007 527.377 187.865C526.08 178.466 524.784 169.066 523.506 159.664C522.87 154.988 522.238 150.311 521.607 145.634L521.605 145.62L521.603 145.605L521.602 145.601L521.6 145.587L521.6 145.583C520.331 136.188 519.063 126.793 517.759 117.403C516.291 106.822 514.579 96.2499 511.89 85.903C506.756 66.156 497.433 46.5117 479.388 35.5671C459.704 23.6278 435.059 23.9067 412.647 24.1603L412.641 24.1604C411.611 24.172 410.587 24.1836 409.567 24.194C380.889 24.4858 352.228 26.4627 323.781 30.1034C296.198 33.6335 268.539 38.4176 241.63 45.5016C218.541 51.5804 195.33 60.9402 179.332 79.396C172.479 87.3021 167.146 96.6487 164.645 106.855C161.683 118.94 163.435 131.289 166.272 143.215C167.006 146.3 167.808 149.378 168.61 152.46L168.611 152.461L168.611 152.461L168.611 152.461L168.611 152.461L168.611 152.462L168.611 152.462L168.611 152.462L168.611 152.462L168.611 152.463L168.611 152.463L168.611 152.463L168.611 152.463L168.611 152.463L168.611 152.464L168.611 152.464L168.611 152.464L168.611 152.464L168.611 152.465C171.125 162.115 173.647 171.793 174.094 181.787ZM165.986 220.251C153.611 244.744 133.163 261.997 112.687 279.276C95.2392 293.997 77.7709 308.737 65.2581 327.987C52.9014 346.996 45.5033 370.768 52.642 393.109C58.9486 412.846 75.2607 427.935 93.8875 436.153C138.956 456.036 187.706 431.83 220.103 399.752C227.775 392.156 234.859 384.012 241.943 375.869L241.944 375.868L241.944 375.868L241.944 375.868L241.945 375.868L241.945 375.867L241.945 375.867L241.946 375.867L241.946 375.866L241.946 375.866L241.946 375.866L241.947 375.865L241.947 375.865L241.947 375.865L241.948 375.865L241.948 375.864L241.948 375.864L241.948 375.864L241.949 375.863L241.949 375.863C249.506 367.176 257.063 358.489 265.334 350.467C272.947 343.082 281.177 336.252 290.361 330.898C299.866 325.356 310.209 321.69 321.033 319.758C335.468 317.184 350.079 317.339 364.694 317.495C374.702 317.602 384.711 317.709 394.668 316.939C407.224 315.969 419.577 313.436 431.045 308.111C437.215 305.246 443.071 301.799 448.927 298.352L448.928 298.352L448.929 298.351L448.929 298.351C454.119 295.296 459.31 292.241 464.72 289.59C475.259 284.427 487.172 280.642 499.032 282.074C501.617 282.385 504.188 282.943 506.653 283.789C507.144 283.958 507.625 284.132 508.1 284.304L508.1 284.304C510.418 285.143 512.598 285.933 515.2 285.796C520.514 285.516 525.528 282.555 529.006 278.638C537.347 269.245 535.663 255.163 534.127 243.707C532.867 234.302 531.584 224.901 530.3 215.5L530.3 215.499L530.3 215.497L530.3 215.496L530.299 215.494L530.299 215.493L530.299 215.491L530.299 215.49L530.299 215.488L530.298 215.487L530.298 215.485L530.298 215.484L530.298 215.482L530.298 215.481L530.297 215.479L530.297 215.478L530.297 215.476L530.297 215.475L530.296 215.469L530.295 215.461L530.294 215.452L530.292 215.443L530.291 215.435C529.671 210.888 529.05 206.342 528.432 201.795C527.171 192.517 525.915 183.238 524.66 173.959L524.656 173.929C522.143 155.352 519.63 136.775 517.07 118.205C514.196 97.3567 510.629 75.4031 499.484 57.1501C493.928 48.0498 486.364 40.2735 476.995 35.0919C466.727 29.414 455.05 26.9555 443.464 25.8551C430.628 24.6354 417.633 24.8324 404.756 25.0492C390.745 25.2846 376.739 25.9218 362.765 26.961C334.977 29.0268 307.307 32.6673 279.931 37.8729L278.68 38.1109C253.378 42.9198 226.799 47.9715 204.092 60.6182C184.78 71.375 167.719 89.4845 164.426 112.086C162.405 125.959 165.886 139.29 169.374 152.647C172.327 163.955 175.285 175.281 174.913 186.972C174.543 198.607 171.128 209.846 165.996 220.232C165.992 220.238 165.989 220.244 165.986 220.251ZM175.539 217.504C181.092 206.269 184.461 193.978 183.898 181.371C183.474 171.89 181.081 162.707 178.696 153.551C177.935 150.632 177.176 147.716 176.481 144.795C173.791 133.483 172.129 121.77 174.936 110.31C177.309 100.628 182.368 91.7609 188.869 84.2621C204.042 66.7588 226.055 57.8803 247.955 52.1149C273.474 45.3962 299.704 40.8589 325.863 37.5117C352.839 34.0584 380.017 32.1844 407.212 31.9079C408.18 31.8981 409.154 31.8871 410.132 31.876C431.388 31.6355 454.763 31.371 473.431 42.6935C490.547 53.0749 499.392 71.705 504.263 90.4371C506.814 100.251 508.436 110.277 509.831 120.312C511.084 129.338 512.303 138.369 513.523 147.4L513.523 147.402C514.107 151.731 514.692 156.059 515.28 160.387C516.49 169.293 517.718 178.197 518.947 187.101L518.948 187.109L518.948 187.11C521.454 205.268 523.959 223.426 526.311 241.603C527.619 251.723 528.695 263.808 522.097 272.458C519.496 275.87 515.834 278.605 511.74 279.938C507.433 281.341 503.892 280.621 499.779 279.088C487.639 274.564 474.178 277.804 462.778 282.913C456.527 285.713 450.632 289.187 444.735 292.661C439.938 295.487 435.14 298.314 430.149 300.779C409.053 311.201 385.799 311.012 362.829 310.826L361.968 310.819C361.425 310.815 360.882 310.81 360.339 310.806C348.384 310.716 336.35 310.792 324.526 312.764C313.01 314.684 302.099 318.679 292.187 324.862C275.422 335.322 262.297 350.417 249.419 365.229C248.176 366.658 246.936 368.084 245.695 369.503C230.833 386.501 215.093 402.486 195.473 414.015C176.76 425.012 154.768 432.038 132.879 429.95C114.032 428.152 95.512 419.589 82.4184 405.836C68.6067 391.328 62.7898 371.797 66.4619 352.083C72.8619 317.729 98.9502 295.715 124.617 274.056C135.12 265.193 145.552 256.39 154.536 246.825C162.795 238.034 170.092 228.293 175.539 217.504ZM176.259 217.832C176.266 217.819 176.272 217.806 176.277 217.793C181.136 207.951 184.366 197.302 184.717 186.278C185.069 175.195 182.264 164.456 179.464 153.735C176.156 141.068 172.854 128.427 174.772 115.271C177.895 93.8429 194.071 76.6761 212.379 66.478C233.904 54.489 259.103 49.6995 283.089 45.1402L284.284 44.9131C310.242 39.9787 336.482 36.5246 362.833 34.5667C376.085 33.5808 389.365 32.9769 402.653 32.7537C414.863 32.5481 427.183 32.3617 439.353 33.5179C450.337 34.5611 461.408 36.8929 471.144 42.2761C480.027 47.1869 487.195 54.5593 492.462 63.1863C503.028 80.491 506.412 101.307 509.136 121.074C511.588 138.869 513.996 156.67 516.404 174.471L516.404 174.472L516.406 174.48L516.407 174.49L516.408 174.499L516.409 174.508L516.411 174.517L516.412 174.527L516.413 174.536L516.414 174.545L516.416 174.555L516.417 174.564L516.418 174.573L516.419 174.582L516.421 174.592L516.422 174.601L516.423 174.61C517.583 183.187 518.744 191.765 519.909 200.341C520.522 204.855 521.138 209.369 521.754 213.883L521.755 213.89C522.947 222.621 524.139 231.352 525.309 240.085C526.765 250.944 528.365 264.292 520.458 273.195C517.161 276.906 512.412 279.71 507.379 279.976C504.917 280.105 502.852 279.358 500.659 278.564L500.658 278.563C500.207 278.4 499.751 278.235 499.284 278.075C496.946 277.273 494.505 276.744 492.053 276.448C480.802 275.091 469.501 278.679 459.504 283.577C454.372 286.091 449.449 288.989 444.525 291.887C438.973 295.155 433.421 298.423 427.571 301.14C416.698 306.189 404.985 308.59 393.081 309.51C383.641 310.24 374.15 310.139 364.661 310.038C350.8 309.89 336.944 309.743 323.255 312.184C312.987 314.015 303.177 317.493 294.16 322.75C285.449 327.828 277.643 334.307 270.422 341.31C262.58 348.918 255.414 357.156 248.248 365.393C241.529 373.118 234.81 380.842 227.532 388.048C196.818 418.458 150.598 441.411 107.869 422.56C90.2107 414.769 74.7469 400.465 68.7676 381.753C62 360.576 69.0135 338.04 80.727 320.02C92.405 302.057 108.887 288.213 125.166 274.539L125.166 274.539L125.18 274.528C126.951 273.04 128.719 271.555 130.479 270.066C148.274 255.014 165.609 238.924 176.259 217.832ZM193.702 180.956C194.234 192.871 191.049 204.488 185.801 215.106C180.65 225.305 173.753 234.513 165.95 242.826C157.457 251.869 147.594 260.192 137.665 268.571L137.664 268.572L137.664 268.572L137.663 268.573L137.663 268.573L137.663 268.573L137.663 268.574L137.662 268.574L137.662 268.574L137.662 268.574L137.661 268.575L137.661 268.575L137.661 268.575C113.393 289.055 88.7274 309.87 82.6755 342.354C79.2011 360.998 84.7033 379.469 97.7651 393.191C110.148 406.2 127.663 414.3 145.487 416C166.188 417.975 186.985 411.331 204.684 400.931C223.235 390.029 238.117 374.916 252.17 358.843C253.34 357.504 254.511 356.158 255.683 354.81C267.859 340.804 280.268 326.53 296.121 316.64C305.488 310.795 315.801 307.018 326.685 305.205C337.864 303.341 349.242 303.27 360.544 303.355C361.328 303.36 362.111 303.367 362.896 303.373C384.615 303.549 406.604 303.727 426.552 293.873C431.27 291.542 435.807 288.87 440.342 286.197C445.917 282.913 451.491 279.629 457.401 276.98C468.174 272.154 480.895 269.09 492.367 273.365C496.262 274.817 499.615 275.496 503.693 274.169C507.566 272.907 511.031 270.318 513.494 267.089C519.734 258.904 518.72 247.475 517.482 237.901C515.261 220.738 512.895 203.591 510.529 186.445L510.528 186.434C509.363 177.995 508.199 169.556 507.052 161.115C506.488 156.969 505.928 152.822 505.368 148.676C504.223 140.191 503.077 131.706 501.9 123.225C500.583 113.735 499.047 104.254 496.635 94.9726C492.029 77.2569 483.662 59.6391 467.474 49.8212C449.818 39.1137 427.714 39.3639 407.613 39.5915C406.689 39.6019 405.769 39.6124 404.854 39.6217C379.142 39.8827 353.446 41.6557 327.942 44.9198C303.208 48.0857 278.407 52.3762 254.278 58.7279C233.569 64.1781 212.754 72.5754 198.407 89.1278C192.259 96.2222 187.475 104.609 185.231 113.766C182.575 124.604 184.147 135.678 186.69 146.375C187.347 149.139 188.065 151.896 188.784 154.657L188.784 154.657L188.784 154.658L188.784 154.658L188.784 154.659L188.785 154.659L188.785 154.66L188.785 154.66L188.785 154.661L188.785 154.661L188.785 154.662L188.785 154.662L188.786 154.663L188.786 154.663L188.786 154.664L188.786 154.664L188.786 154.665C191.04 163.317 193.301 171.996 193.702 180.956ZM186.506 215.463C176.433 235.396 160.049 250.6 143.229 264.829C141.558 266.242 139.879 267.653 138.197 269.066C122.811 281.99 107.233 295.075 96.1955 312.055C85.125 329.084 78.4962 350.385 84.891 370.399C90.5433 388.086 105.159 401.604 121.849 408.968C162.237 426.787 205.928 405.09 234.959 376.344C241.839 369.532 248.191 362.23 254.543 354.928L254.544 354.928C261.319 347.139 268.095 339.351 275.511 332.157C282.338 325.533 289.72 319.407 297.957 314.605C306.486 309.633 315.763 306.343 325.476 304.611C338.42 302.302 351.521 302.442 364.627 302.582C373.597 302.678 382.569 302.774 391.494 302.084C402.748 301.215 413.819 298.946 424.098 294.172C429.63 291.604 434.879 288.514 440.129 285.424C444.783 282.684 449.438 279.945 454.29 277.568C463.745 272.936 474.433 269.543 485.074 270.826C487.395 271.106 489.704 271.606 491.917 272.366C492.354 272.516 492.782 272.671 493.204 272.824L493.206 272.825L493.208 272.825L493.21 272.826C495.282 273.577 497.233 274.284 499.559 274.161C504.313 273.911 508.797 271.262 511.91 267.759C519.381 259.347 517.866 246.731 516.492 236.471C515.386 228.215 514.259 219.961 513.132 211.707L513.128 211.675C512.547 207.415 511.965 203.155 511.386 198.895C510.28 190.749 509.178 182.602 508.076 174.456C505.798 157.619 503.52 140.782 501.2 123.95C498.624 105.266 495.428 85.5881 485.441 69.2301C480.463 61.078 473.688 54.1081 465.294 49.4678C456.089 44.3794 445.626 42.1758 435.242 41.1884C423.738 40.0957 412.091 40.2717 400.549 40.4658C387.987 40.6765 375.43 41.2476 362.901 42.18C337.986 44.0319 313.178 47.2958 288.636 51.9626L287.527 52.1732C264.845 56.4831 241.017 61.0109 220.663 72.3472C203.357 81.9851 188.068 98.2107 185.116 118.466C183.304 130.902 186.425 142.853 189.553 154.828C192.2 164.964 194.851 175.117 194.519 185.594C194.187 196.033 191.125 206.118 186.521 215.436C186.516 215.445 186.511 215.454 186.506 215.463ZM196.062 212.708C201.005 202.706 204.008 191.762 203.506 180.54C203.129 172.1 200.999 163.925 198.875 155.773L198.875 155.773L198.875 155.773L198.875 155.773L198.875 155.772L198.875 155.772L198.875 155.772L198.875 155.771L198.875 155.771L198.874 155.771L198.874 155.771C198.196 153.165 197.518 150.562 196.898 147.954C194.5 137.872 193.02 127.434 195.523 117.219C197.639 108.587 202.147 100.679 207.944 93.9918C221.467 78.3919 241.084 70.4758 260.602 65.3376C283.341 59.3512 306.713 55.3076 330.022 52.3244C354.055 49.2478 378.27 47.5792 402.496 47.3322C403.356 47.3235 404.221 47.3137 405.09 47.3039L405.094 47.3038C424.04 47.0894 444.874 46.8535 461.515 56.9458C476.775 66.2003 484.664 82.8042 489.006 99.5051C491.28 108.251 492.726 117.189 493.968 126.133C495.096 134.26 496.194 142.393 497.292 150.525L497.292 150.527L497.292 150.529L497.292 150.532L497.293 150.534L497.293 150.536L497.293 150.539L497.294 150.541L497.294 150.543L497.294 150.546L497.295 150.548L497.295 150.55L497.295 150.552L497.296 150.555L497.296 150.557L497.296 150.559C497.804 154.318 498.311 158.078 498.822 161.836C499.903 169.789 500.999 177.739 502.096 185.69L502.097 185.694L502.097 185.695L502.097 185.695L502.097 185.696L502.097 185.697L502.097 185.697L502.097 185.698L502.098 185.698L502.098 185.699L502.098 185.7L502.098 185.7L502.098 185.701L502.098 185.702L502.098 185.702L502.098 185.703L502.098 185.704C504.327 201.861 506.557 218.019 508.65 234.194C509.817 243.221 510.772 253.997 504.887 261.713C502.565 264.759 499.295 267.202 495.642 268.391C491.793 269.644 488.627 269.003 484.952 267.633C474.147 263.607 462.167 266.495 452.02 271.04C446.451 273.535 441.199 276.63 435.945 279.725C431.671 282.244 427.397 284.762 422.951 286.958C404.145 296.247 383.414 296.078 362.939 295.911L362.929 295.911L362.92 295.911C362.195 295.905 361.47 295.899 360.746 295.894C350.095 295.814 339.374 295.881 328.839 297.637C318.586 299.346 308.874 302.903 300.049 308.408C285.116 317.723 273.428 331.168 261.958 344.36C260.85 345.634 259.745 346.906 258.638 348.171C245.395 363.318 231.369 377.562 213.887 387.834C197.205 397.637 177.601 403.9 158.087 402.039C141.285 400.437 124.774 392.801 113.103 380.537C100.791 367.602 95.6055 350.191 98.8802 332.615C104.584 301.998 127.83 282.381 150.701 263.081C160.058 255.184 169.352 247.341 177.357 238.819C184.712 230.993 191.21 222.318 196.062 212.708ZM155.981 259.591C171.83 246.184 187.268 231.856 196.762 213.077C196.769 213.065 196.776 213.053 196.782 213.04C201.123 204.257 204.012 194.749 204.321 184.908C204.631 175.04 202.134 165.476 199.641 155.929C196.694 144.643 193.752 133.379 195.461 121.659C198.242 102.578 212.646 87.2955 228.949 78.2161C248.124 67.5375 270.571 63.2719 291.938 59.2118L292.991 59.0117C316.118 54.6143 339.495 51.5369 362.972 49.7928C374.777 48.9156 386.611 48.3775 398.448 48.1776C409.321 47.995 420.295 47.8293 431.133 48.8585C440.917 49.787 450.775 51.8637 459.446 56.6575C467.353 61.0289 473.732 67.595 478.421 75.2736C487.83 90.685 490.842 109.224 493.268 126.826C495.44 142.584 497.572 158.346 499.704 174.109L499.704 174.112L499.708 174.139L499.709 174.148L499.71 174.153L499.71 174.155L499.711 174.161L499.711 174.162L499.712 174.168L499.712 174.17L499.713 174.175L499.713 174.177L499.714 174.183L499.714 174.184L499.715 174.19L499.715 174.192L499.718 174.214L499.721 174.235L499.724 174.257C500.77 181.987 501.815 189.717 502.866 197.447C503.376 201.197 503.888 204.946 504.4 208.696C505.499 216.748 506.599 224.8 507.678 232.856C508.972 242.517 510.401 254.4 503.365 262.321C500.437 265.617 496.215 268.111 491.742 268.345C489.556 268.461 487.722 267.796 485.774 267.09L485.772 267.089C485.372 266.944 484.967 266.797 484.553 266.655C482.467 265.938 480.289 265.465 478.101 265.202C468.068 263.991 457.991 267.188 449.078 271.555C444.506 273.795 440.119 276.377 435.732 278.96L435.732 278.96C430.786 281.871 425.84 284.783 420.629 287.203C410.945 291.7 400.514 293.836 389.911 294.656C381.501 295.306 373.046 295.216 364.592 295.126L364.592 295.126L364.591 295.126L364.591 295.126L364.591 295.126L364.591 295.126L364.59 295.126L364.59 295.126L364.59 295.126L364.59 295.126L364.589 295.126L364.589 295.126L364.589 295.126L364.589 295.126L364.588 295.126L364.588 295.126L364.588 295.126C352.241 294.994 339.898 294.862 327.703 297.037C318.547 298.671 309.801 301.773 301.76 306.46C293.997 310.985 287.039 316.76 280.604 323.003C273.614 329.783 267.227 337.125 260.84 344.466C254.856 351.345 248.871 358.224 242.391 364.641C215.042 391.722 173.881 412.162 135.832 395.377C120.108 388.44 106.341 375.706 101.018 359.045C94.9943 340.195 101.238 320.129 111.666 304.089C122.068 288.085 136.751 275.752 151.253 263.572L151.258 263.567L151.263 263.563C152.84 262.239 154.414 260.916 155.981 259.591ZM213.309 180.125C213.78 190.657 210.963 200.925 206.323 210.312C201.769 219.331 195.67 227.473 188.762 234.823C181.247 242.825 172.521 250.189 163.737 257.602L163.736 257.603C142.264 275.724 120.442 294.14 115.086 322.888C112.01 339.393 116.88 355.746 128.442 367.894C139.401 379.41 154.907 386.584 170.687 388.089C189.013 389.836 207.422 383.956 223.089 374.75C239.502 365.104 252.671 351.731 265.104 337.509C266.138 336.326 267.172 335.138 268.207 333.947L268.214 333.938C278.983 321.552 289.956 308.93 303.976 300.183C312.256 295.016 321.372 291.68 330.992 290.076C340.882 288.428 350.947 288.363 360.945 288.438L361.917 288.446L363.008 288.455C382.232 288.611 401.695 288.77 419.35 280.048C423.525 277.986 427.538 275.621 431.551 273.257L431.551 273.257C436.482 270.352 441.413 267.447 446.64 265.105C456.158 260.841 467.4 258.128 477.537 261.905C480.994 263.194 483.971 263.797 487.591 262.618C491.024 261.5 494.098 259.202 496.28 256.341C501.81 249.091 500.916 238.971 499.819 230.488C497.854 215.293 495.759 200.114 493.665 184.936C492.636 177.477 491.607 170.019 490.593 162.56C490.106 158.976 489.622 155.392 489.139 151.808L489.138 151.801L489.137 151.795L489.136 151.789L489.135 151.782L489.134 151.776L489.134 151.77L489.133 151.763L489.132 151.757C488.11 144.184 487.087 136.611 486.036 129.042C484.87 120.643 483.511 112.251 481.376 104.038C477.298 88.3533 469.886 72.7604 455.556 64.0707C439.929 54.5949 420.366 54.8165 402.575 55.018C401.759 55.0272 400.946 55.0364 400.138 55.0446C377.393 55.2764 354.663 56.8437 332.101 59.7312C310.218 62.5314 288.273 66.3298 266.925 71.9492C248.598 76.7738 230.179 84.2072 217.482 98.8562C212.036 105.139 207.803 112.564 205.816 120.673C203.466 130.264 204.855 140.066 207.107 149.533C207.689 151.981 208.325 154.424 208.962 156.87C210.956 164.523 212.955 172.199 213.309 180.125ZM207.052 210.622L207.049 210.628L207.043 210.64C198.13 228.292 183.625 241.756 168.733 254.353C167.267 255.594 165.793 256.832 164.317 258.071L164.306 258.081L164.294 258.09L164.283 258.1C150.675 269.531 136.897 281.104 127.134 296.123C117.351 311.174 111.49 330.003 117.141 347.69C122.137 363.325 135.056 375.274 149.812 381.784C185.52 397.537 224.151 378.35 249.817 352.936C255.902 346.911 261.521 340.453 267.139 333.995L267.139 333.994L267.14 333.994L267.14 333.994L267.14 333.994L267.14 333.994L267.14 333.993L267.14 333.993L267.141 333.993L267.141 333.993L267.141 333.992L267.141 333.992L267.141 333.992L267.141 333.992L267.142 333.991L267.142 333.991L267.143 333.99L267.143 333.99L267.144 333.989L267.144 333.988L267.145 333.988L267.145 333.987L267.146 333.987L267.147 333.986L267.147 333.985L267.148 333.985L267.148 333.984L267.149 333.984L267.149 333.983C273.141 327.095 279.133 320.208 285.69 313.847C291.733 307.985 298.264 302.561 305.555 298.313C313.108 293.91 321.321 290.996 329.921 289.463C341.371 287.421 352.961 287.544 364.554 287.668C372.49 287.753 380.427 287.838 388.322 287.228C398.273 286.459 408.062 284.452 417.152 280.231C422.045 277.959 426.688 275.226 431.332 272.492C435.45 270.068 439.568 267.644 443.86 265.542C452.232 261.44 461.695 258.439 471.118 259.575C473.176 259.823 475.218 260.273 477.182 260.941C477.589 261.079 477.986 261.223 478.378 261.365C480.185 262.018 481.886 262.633 483.919 262.525C488.111 262.305 492.069 259.969 494.814 256.878C501.415 249.447 500.072 238.297 498.858 229.233C497.869 221.85 496.862 214.47 495.854 207.09L495.853 207.083L495.852 207.075L495.851 207.066C495.347 203.375 494.843 199.683 494.342 195.991C493.355 188.728 492.372 181.465 491.39 174.201L491.385 174.167L491.383 174.152C489.378 159.331 487.373 144.509 485.331 129.693C483.053 113.173 480.229 95.7728 471.398 81.3098C466.999 74.1044 461.013 67.944 453.595 63.8415C445.456 59.3425 436.203 57.3942 427.021 56.5213C416.848 55.5541 406.548 55.7108 396.343 55.882C385.23 56.0696 374.123 56.5745 363.039 57.3984C340.999 59.0362 319.054 61.9238 297.342 66.0518L296.346 66.2412C276.295 70.0515 255.228 74.055 237.233 84.0759C221.934 92.5965 208.414 106.937 205.805 124.845C204.202 135.845 206.963 146.419 209.729 157.013C212.069 165.976 214.413 174.953 214.122 184.215C213.833 193.444 211.127 202.362 207.061 210.6C207.058 210.608 207.055 210.615 207.052 210.622ZM216.585 207.914C220.919 199.145 223.553 189.55 223.114 179.71C222.783 172.302 220.914 165.127 219.05 157.975C218.454 155.688 217.859 153.403 217.315 151.114C215.211 142.263 213.911 133.098 216.109 124.129C217.967 116.545 221.926 109.599 227.02 103.723C238.893 90.0269 256.114 83.0748 273.251 78.5636C293.21 73.3095 313.725 69.7595 334.184 67.1405C355.274 64.4406 376.523 62.9759 397.784 62.7596C398.229 62.7551 398.675 62.7502 399.122 62.7453L400.06 62.7347C416.696 62.5463 434.988 62.3392 449.602 71.1996C463.005 79.3259 469.938 93.9064 473.752 108.574C475.749 116.255 477.02 124.102 478.109 131.954C479.084 138.978 480.033 146.005 480.982 153.032C481.443 156.45 481.904 159.869 482.369 163.287C483.319 170.277 484.283 177.266 485.247 184.255L485.248 184.259L485.249 184.263L485.249 184.268L485.25 184.272L485.25 184.276L485.251 184.279L485.251 184.28L485.251 184.28L485.251 184.281L485.251 184.281L485.251 184.282L485.251 184.282L485.251 184.283L485.251 184.283L485.251 184.283L485.251 184.284L485.251 184.284L485.251 184.285C487.205 198.446 489.16 212.608 490.994 226.784C492.021 234.721 492.855 244.187 487.68 250.971C485.638 253.65 482.76 255.799 479.547 256.845C476.155 257.949 473.366 257.386 470.128 256.179C460.66 252.651 450.157 255.187 441.266 259.169C436.379 261.359 431.77 264.075 427.16 266.791C423.409 269.001 419.658 271.211 415.756 273.139C399.249 281.293 381.051 281.145 363.077 280.998L363.028 280.998C362.403 280.993 361.778 280.988 361.154 280.983C351.808 280.912 342.398 280.973 333.155 282.514C324.167 284.011 315.648 287.13 307.913 291.956C294.813 300.13 284.556 311.927 274.492 323.502L274.479 323.516L274.441 323.56L274.402 323.605C273.461 324.688 272.521 325.768 271.58 326.844C259.957 340.139 247.645 352.642 232.299 361.661C217.647 370.271 200.434 375.769 183.295 374.134C168.538 372.727 154.038 366.016 143.789 355.246C132.977 343.885 128.422 328.592 131.298 313.155C136.306 286.275 156.707 269.057 176.782 252.114L176.782 252.114C184.993 245.184 193.15 238.3 200.176 230.82C206.628 223.952 212.328 216.343 216.585 207.914ZM181.484 249.115C195.404 237.34 208.961 224.757 217.295 208.262C217.299 208.255 217.303 208.248 217.306 208.241C221.12 200.525 223.656 192.172 223.926 183.528C224.198 174.871 222.007 166.48 219.82 158.103C217.234 148.201 214.654 138.318 216.151 128.036C218.59 111.305 231.224 97.9052 245.52 89.9432C262.336 80.5797 282.022 76.8386 300.759 73.2777L301.697 73.0994C321.994 69.2407 342.508 66.5414 363.11 65.0098C373.471 64.2394 383.855 63.7674 394.243 63.5922C403.782 63.4308 413.406 63.2845 422.914 64.1882C431.495 65.0037 440.14 66.8239 447.747 71.0298C454.679 74.8615 460.27 80.6181 464.38 87.3501C472.633 100.866 475.272 117.128 477.4 132.566C479.297 146.331 481.16 160.1 483.022 173.87L483.023 173.877C483.955 180.765 484.886 187.653 485.822 194.54C486.292 197.994 486.763 201.447 487.235 204.901C488.177 211.805 489.119 218.708 490.045 225.614C491.18 234.08 492.435 244.495 486.271 251.437C483.71 254.32 480.016 256.501 476.104 256.706C474.207 256.806 472.62 256.232 470.934 255.622C470.569 255.49 470.199 255.356 469.82 255.227C467.981 254.601 466.071 254.181 464.144 253.948C455.332 252.884 446.48 255.69 438.65 259.526C434.64 261.491 430.793 263.756 426.946 266.02L426.946 266.02C422.603 268.577 418.26 271.133 413.684 273.258C405.188 277.203 396.041 279.077 386.739 279.797C379.358 280.367 371.938 280.288 364.519 280.209L364.518 280.209C353.682 280.093 342.85 279.978 332.147 281.887C324.102 283.323 316.422 286.046 309.357 290.164C302.54 294.138 296.432 299.21 290.782 304.691C284.647 310.641 279.042 317.084 273.437 323.528C268.186 329.564 262.935 335.6 257.248 341.231C233.262 364.981 197.161 382.912 163.793 368.191C150.006 362.108 137.934 350.943 133.266 336.334C127.985 319.81 133.463 302.217 142.603 288.156C151.732 274.113 164.617 263.291 177.343 252.602L177.356 252.591C178.735 251.432 180.113 250.275 181.484 249.115ZM232.918 179.294C233.326 188.443 230.877 197.363 226.847 205.516C222.889 213.356 217.587 220.432 211.589 226.822C205.052 233.782 197.463 240.187 189.824 246.634C171.149 262.397 152.17 278.416 147.51 303.425C144.834 317.791 149.072 332.025 159.135 342.6C168.674 352.624 182.169 358.87 195.904 360.181C211.855 361.701 227.872 356.585 241.51 348.572C255.785 340.183 267.24 328.549 278.055 316.18C278.959 315.145 279.863 314.106 280.768 313.065L280.769 313.065C290.128 302.301 299.665 291.333 311.848 283.731C319.039 279.244 326.958 276.344 335.314 274.952C343.913 273.519 352.666 273.464 361.361 273.528L362.321 273.536L363.145 273.542C379.869 273.678 396.802 273.816 412.161 266.229C415.79 264.437 419.28 262.382 422.768 260.326L422.769 260.326L422.769 260.326L422.769 260.326L422.77 260.325L422.77 260.325L422.77 260.325L422.771 260.325L422.771 260.325L422.771 260.324L422.771 260.324L422.772 260.324L422.772 260.324L422.772 260.324C427.06 257.798 431.346 255.272 435.892 253.236C444.156 249.533 453.917 247.174 462.719 250.452C465.738 251.578 468.339 252.102 471.502 251.073C474.496 250.098 477.177 248.094 479.079 245.599C483.896 239.282 483.124 230.473 482.167 223.081C480.46 209.885 478.641 196.701 476.822 183.519C475.925 177.017 475.028 170.515 474.145 164.013C473.713 160.837 473.284 157.66 472.855 154.484L472.854 154.478C471.972 147.94 471.089 141.402 470.181 134.867C469.166 127.558 467.983 120.257 466.125 113.11C462.576 99.4568 456.121 85.8902 443.646 78.3274C430.048 70.0821 413.025 70.2748 397.545 70.4501L397.53 70.4503L397.508 70.4506L397.458 70.4511C396.778 70.4588 396.102 70.4664 395.429 70.4733C375.651 70.6742 355.884 72.0377 336.265 74.5485C317.23 76.9849 298.144 80.2878 279.575 85.1766C263.629 89.3742 247.606 95.8452 236.558 108.589C231.816 114.058 228.132 120.525 226.402 127.584C224.356 135.928 225.566 144.457 227.523 152.693C228.029 154.822 228.583 156.947 229.137 159.074L229.137 159.075L229.137 159.075L229.137 159.076L229.137 159.076L229.138 159.077L229.138 159.077L229.138 159.078L229.138 159.078L229.138 159.079L229.138 159.079L229.138 159.08L229.139 159.08C230.872 165.733 232.61 172.405 232.918 179.294ZM227.583 205.809C227.581 205.814 227.579 205.819 227.576 205.825L227.571 205.835L227.567 205.845C219.812 221.202 207.193 232.917 194.237 243.878C192.957 244.96 191.67 246.041 190.382 247.123L190.38 247.125L190.377 247.127L190.375 247.129L190.375 247.129C178.542 257.069 166.561 267.132 158.072 280.19C149.575 293.262 144.482 309.619 149.39 324.98C153.731 338.564 164.955 348.944 177.774 354.599C208.801 368.288 242.373 351.611 264.675 329.528C269.968 324.288 274.855 318.671 279.741 313.054L279.741 313.054L279.741 313.053L279.742 313.053L279.742 313.053L279.742 313.053L279.742 313.052L279.742 313.052L279.742 313.052L279.743 313.052L279.743 313.051L279.743 313.051L279.743 313.051C284.955 307.06 290.166 301.07 295.869 295.537C301.127 290.436 306.81 285.716 313.153 282.018C319.73 278.185 326.879 275.649 334.366 274.314C344.323 272.538 354.401 272.646 364.482 272.753C371.383 272.827 378.286 272.9 385.151 272.37C393.801 271.701 402.308 269.958 410.208 266.289C414.461 264.314 418.497 261.938 422.533 259.562L422.534 259.562C426.116 257.454 429.699 255.345 433.433 253.516C440.722 249.944 448.961 247.336 457.163 248.325C458.958 248.542 460.738 248.934 462.45 249.516C462.804 249.636 463.149 249.761 463.49 249.884C465.053 250.449 466.525 250.982 468.281 250.889C471.914 250.699 475.342 248.674 477.72 245.997C483.451 239.545 482.279 229.863 481.225 221.996C480.365 215.569 479.488 209.146 478.61 202.723C478.172 199.512 477.733 196.302 477.297 193.091C476.426 186.682 475.559 180.272 474.692 173.862C472.959 161.053 471.226 148.245 469.461 135.44C467.482 121.085 465.028 105.959 457.354 93.3913C453.534 87.1342 448.336 81.7801 441.892 78.2174C434.819 74.306 426.778 72.6144 418.797 71.8562C409.956 71.016 401.004 71.1518 392.133 71.3018C382.469 71.4647 372.811 71.9037 363.173 72.6204C344.008 74.0443 324.924 76.5555 306.046 80.1461L305.164 80.3137C287.742 83.6248 269.437 87.1038 253.801 95.8096C240.508 103.212 228.76 115.67 226.493 131.228C225.1 140.791 227.5 149.983 229.905 159.194C231.94 166.986 233.978 174.79 233.726 182.843C233.476 190.875 231.122 198.637 227.583 205.809ZM237.11 203.12C240.835 195.584 243.1 187.337 242.723 178.879C242.438 172.506 240.831 166.334 239.227 160.179C238.714 158.21 238.202 156.243 237.734 154.272C235.922 146.65 234.803 138.758 236.696 131.037C238.297 124.502 241.707 118.516 246.095 113.452C256.316 101.659 271.143 95.6708 285.898 91.7867C303.077 87.2649 320.735 84.2085 338.343 81.9536C356.492 79.6302 374.776 78.3696 393.07 78.1841C393.716 78.1775 394.366 78.1702 395.018 78.1628C409.345 78.0006 425.1 77.8222 437.686 85.4523C449.234 92.4518 455.21 105.006 458.495 117.643C460.215 124.257 461.31 131.014 462.248 137.775C463.079 143.761 463.888 149.75 464.697 155.739L464.697 155.744L464.7 155.766L464.703 155.788C465.106 158.771 465.509 161.754 465.914 164.736C466.731 170.748 467.561 176.759 468.39 182.77C470.072 194.967 471.755 207.165 473.335 219.375C474.221 226.221 474.934 234.377 470.472 240.227C468.709 242.539 466.224 244.396 463.45 245.298C460.517 246.252 458.104 245.766 455.303 244.723C447.169 241.693 438.147 243.877 430.511 247.299C426.305 249.184 422.339 251.52 418.372 253.858C415.145 255.759 411.917 257.66 408.56 259.319C394.351 266.339 378.686 266.211 363.215 266.086C362.664 266.081 362.113 266.077 361.562 266.072C353.52 266.012 345.423 266.064 337.468 267.389C329.744 268.677 322.423 271.356 315.776 275.504C304.508 282.534 295.687 292.679 287.031 302.634C286.194 303.597 285.358 304.558 284.522 305.514C274.517 316.958 263.919 327.722 250.711 335.482C238.09 342.899 223.266 347.633 208.502 346.225C195.79 345.012 183.3 339.23 174.471 329.951C165.16 320.163 161.236 306.988 163.713 293.691C168.024 270.551 185.58 255.732 202.858 241.148C209.924 235.183 216.944 229.257 222.992 222.818C228.545 216.91 233.45 210.369 237.11 203.12ZM206.99 238.64C218.964 228.51 230.627 217.684 237.805 203.498L237.812 203.486L237.819 203.474L237.827 203.461L237.831 203.451C241.116 196.804 243.301 189.606 243.533 182.158C243.765 174.711 241.88 167.493 239.999 160.287C237.774 151.769 235.554 143.267 236.842 134.423C238.936 120.039 249.801 108.523 262.09 101.68C276.545 93.6321 293.47 90.4153 309.576 87.3539L310.402 87.1969C327.865 83.8771 345.518 81.5543 363.246 80.2365C372.162 79.5732 381.096 79.1673 390.035 79.0168C398.237 78.8783 406.514 78.7529 414.691 79.5295C422.071 80.2303 429.505 81.7954 436.046 85.412C442.004 88.7056 446.806 93.6542 450.337 99.438C457.433 111.059 459.701 125.046 461.53 138.319C463.15 150.07 464.74 161.826 466.33 173.582L466.331 173.59C467.145 179.609 467.959 185.628 468.778 191.646C469.168 194.518 469.56 197.39 469.952 200.262C470.776 206.302 471.601 212.341 472.41 218.383C473.385 225.651 474.47 234.601 469.175 240.562C466.979 243.032 463.814 244.902 460.463 245.076C458.843 245.161 457.485 244.669 456.044 244.148L456.044 244.148L456.043 244.147L456.043 244.147L456.043 244.147C455.729 244.034 455.41 243.918 455.084 243.807C453.499 243.267 451.85 242.903 450.188 242.703C442.595 241.786 434.969 244.199 428.221 247.505C424.769 249.196 421.457 251.146 418.146 253.095C414.41 255.294 410.674 257.493 406.738 259.321C399.432 262.713 391.567 264.325 383.568 264.944C377.217 265.435 370.831 265.367 364.447 265.298C355.123 265.199 345.801 265.099 336.593 266.742C329.661 267.979 323.043 270.326 316.956 273.875C311.085 277.298 305.829 281.665 300.962 286.384C295.684 291.504 290.862 297.047 286.039 302.591C281.52 307.786 277.001 312.98 272.107 317.826C251.488 338.244 220.446 353.665 191.758 341.009C179.906 335.781 169.532 326.187 165.518 313.628C160.981 299.428 165.69 284.306 173.543 272.225C181.398 260.141 192.483 250.831 203.432 241.635C204.621 240.636 205.808 239.639 206.99 238.64ZM252.526 178.463C252.873 186.23 250.793 193.801 247.372 200.722C244.009 207.381 239.505 213.39 234.41 218.819C228.852 224.736 222.401 230.181 215.908 235.662C200.028 249.067 183.892 262.688 179.929 283.96C177.651 296.188 181.259 308.303 189.82 317.305C197.936 325.838 209.423 331.156 221.112 332.272C234.689 333.567 248.317 329.215 259.923 322.395C272.062 315.261 281.804 305.369 290.999 294.851C291.766 293.973 292.534 293.09 293.303 292.206C301.255 283.06 309.359 273.739 319.712 267.28C325.814 263.472 332.538 261.009 339.63 259.828C346.938 258.609 354.379 258.561 361.769 258.617L362.245 258.621L363.283 258.629C377.504 258.745 391.904 258.862 404.965 252.41C408.05 250.886 411.016 249.139 413.981 247.391C417.626 245.244 421.271 243.096 425.136 241.365C432.145 238.224 440.427 236.215 447.894 238.997C450.475 239.958 452.701 240.406 455.405 239.525C457.959 238.693 460.248 236.983 461.871 234.855C465.975 229.471 465.324 221.969 464.508 215.67C463.06 204.477 461.517 193.295 459.975 182.114L459.975 182.114L459.974 182.113L459.974 182.112L459.974 182.112L459.974 182.111L459.974 182.11L459.974 182.11L459.974 182.109L459.974 182.109L459.973 182.105L459.973 182.101C459.207 176.555 458.442 171.008 457.688 165.46C457.334 162.848 456.981 160.236 456.628 157.624L456.627 157.614L456.625 157.605L456.624 157.596L456.624 157.592L456.623 157.589L456.623 157.586C455.862 151.952 455.101 146.317 454.32 140.685C453.455 134.469 452.448 128.256 450.868 122.177C447.847 110.555 442.348 99.0145 431.73 92.5783C420.158 85.5649 405.673 85.7289 392.502 85.878C391.903 85.8848 391.307 85.8915 390.715 85.8976C373.903 86.0676 357.101 87.2272 340.425 89.3614C324.24 91.4336 308.011 94.243 292.222 98.3995C278.657 101.972 265.028 107.479 255.632 118.319C251.596 122.976 248.46 128.482 246.988 134.493C245.247 141.591 246.275 148.846 247.94 155.852C248.371 157.665 248.842 159.473 249.314 161.284C250.787 166.938 252.264 172.608 252.526 178.463ZM248.117 200.991C248.11 201.01 248.102 201.03 248.091 201.05C241.495 214.114 230.763 224.079 219.741 233.402C218.657 234.318 217.569 235.233 216.479 236.149L216.468 236.157C206.41 244.606 196.227 253.159 189.012 264.258C181.802 275.349 177.478 289.235 181.642 302.272C185.327 313.805 194.854 322.615 205.737 327.417C232.084 339.041 260.597 324.874 279.534 306.123C284.031 301.67 288.183 296.897 292.335 292.124L292.336 292.123L292.336 292.123L292.336 292.123L292.337 292.123L292.337 292.122L292.337 292.122L292.337 292.122L292.338 292.121L292.338 292.121L292.338 292.121C296.769 287.027 301.2 281.934 306.049 277.229C310.523 272.89 315.355 268.875 320.752 265.729C326.351 262.465 332.436 260.306 338.813 259.168C347.276 257.658 355.843 257.749 364.412 257.841C370.278 257.903 376.145 257.966 381.98 257.515C389.328 256.947 396.552 255.466 403.263 252.35C406.878 250.671 410.309 248.652 413.74 246.632C416.785 244.84 419.83 243.047 423.004 241.493C429.209 238.453 436.224 236.235 443.206 237.078C444.737 237.263 446.254 237.598 447.714 238.096C448.013 238.197 448.305 238.303 448.594 238.408L448.595 238.408C449.914 238.886 451.157 239.336 452.64 239.258C455.711 239.097 458.613 237.384 460.624 235.12C465.483 229.65 464.485 221.433 463.591 214.763C462.845 209.197 462.085 203.632 461.325 198.068L461.323 198.05C460.965 195.431 460.608 192.812 460.252 190.194C459.54 184.956 458.832 179.718 458.123 174.48L458.115 174.419L458.112 174.395L458.111 174.386C456.614 163.319 455.117 152.253 453.591 141.189C451.911 128.999 449.828 116.151 443.311 105.476C440.069 100.165 435.66 95.6209 430.191 92.5977C424.182 89.2759 417.354 87.8392 410.575 87.194C403.064 86.4809 395.461 86.5959 387.926 86.7229C379.713 86.861 371.502 87.234 363.309 87.8438C347.018 89.0538 330.797 91.19 314.749 94.2405L313.982 94.3863C299.188 97.1982 283.645 100.153 270.369 107.543C259.083 113.828 249.104 124.401 247.18 137.612C245.996 145.738 248.036 153.551 250.081 161.379C251.81 167.998 253.541 174.629 253.329 181.469C253.116 188.296 251.122 194.895 248.117 200.991ZM257.632 198.324C260.747 192.019 262.644 185.121 262.328 178.046C262.089 172.706 260.742 167.535 259.399 162.378C258.97 160.729 258.54 159.081 258.148 157.429C256.63 151.038 255.694 144.42 257.279 137.946C258.623 132.459 261.484 127.432 265.168 123.182C273.739 113.292 286.17 108.266 298.544 105.009C312.944 101.218 327.742 98.6556 342.502 96.7663C357.707 94.8195 373.028 93.7642 388.355 93.608C388.895 93.6025 389.436 93.5964 389.981 93.5902C401.998 93.4541 415.212 93.3044 425.771 99.7028C435.461 105.575 440.482 116.103 443.238 126.709C444.681 132.256 445.6 137.922 446.387 143.593C447.091 148.661 447.776 153.733 448.46 158.804L448.461 158.811L448.462 158.819L448.463 158.826C448.794 161.278 449.125 163.73 449.459 166.182C450.144 171.227 450.84 176.271 451.536 181.316L451.536 181.317L451.536 181.318L451.536 181.319L451.537 181.32L451.537 181.321L451.537 181.322L451.537 181.323L451.537 181.324L451.54 181.345L451.54 181.349C452.948 191.549 454.355 201.75 455.676 211.96C456.421 217.715 457.012 224.562 453.264 229.478C451.78 231.422 449.687 232.986 447.353 233.745C444.879 234.55 442.842 234.143 440.478 233.262C433.68 230.73 426.137 232.563 419.755 235.421C416.231 237 412.908 238.958 409.584 240.917C406.88 242.51 404.176 244.103 401.364 245.493C389.451 251.377 376.316 251.271 363.344 251.166L363.344 251.166L363.309 251.166L363.295 251.165C362.853 251.162 362.411 251.158 361.969 251.155C355.231 251.104 348.446 251.147 341.782 252.259C335.323 253.335 329.198 255.578 323.638 259.046C314.203 264.933 306.818 273.426 299.569 281.762L299.561 281.772C298.861 282.577 298.163 283.38 297.464 284.179C289.077 293.77 280.194 302.794 269.123 309.299C258.532 315.523 246.099 319.493 233.71 318.312C223.043 317.294 212.562 312.438 205.156 304.651C197.346 296.437 194.052 285.38 196.132 274.222C199.747 254.82 214.459 242.399 228.94 230.173C234.861 225.174 240.744 220.208 245.813 214.81C250.462 209.869 254.567 204.394 257.632 198.324ZM232.491 228.164C242.529 219.672 252.302 210.6 258.322 198.71C258.334 198.693 258.345 198.675 258.355 198.655C261.113 193.076 262.943 187.034 263.137 180.782C263.33 174.547 261.752 168.503 260.176 162.469C258.312 155.333 256.452 148.211 257.531 140.804C259.284 128.768 268.376 119.136 278.659 113.412C290.763 106.674 304.937 103.981 318.423 101.419L319.107 101.289C333.739 98.5065 348.529 96.56 363.382 95.4563C370.851 94.9002 378.337 94.5602 385.826 94.4344C392.692 94.3188 399.622 94.2143 406.466 94.864C412.644 95.4503 418.866 96.7602 424.342 99.7874C429.323 102.542 433.337 106.682 436.29 111.519C442.229 121.246 444.125 132.955 445.655 144.064C447.037 154.089 448.394 164.118 449.75 174.147C450.408 179.012 451.067 183.878 451.728 188.744C452.053 191.134 452.379 193.523 452.705 195.913L452.706 195.921C453.399 200.995 454.092 206.07 454.772 211.146C455.586 217.219 456.499 224.703 452.076 229.683C450.249 231.741 447.612 233.296 444.821 233.442C443.474 233.512 442.345 233.102 441.148 232.668C440.885 232.573 440.619 232.476 440.347 232.384C439.014 231.929 437.627 231.622 436.228 231.454C429.855 230.685 423.454 232.707 417.79 235.482C414.897 236.899 412.122 238.533 409.347 240.166L409.347 240.166L409.347 240.166L409.347 240.167L409.346 240.167L409.346 240.167L409.346 240.167L409.346 240.167L409.346 240.167L409.346 240.167C406.216 242.009 403.087 243.851 399.79 245.382C393.673 248.224 387.09 249.572 380.393 250.09C375.073 250.501 369.725 250.444 364.377 250.387C356.564 250.303 348.753 250.22 341.035 251.596C335.216 252.634 329.661 254.605 324.55 257.584C319.627 260.454 315.219 264.117 311.138 268.076C306.716 272.365 302.675 277.01 298.634 281.655C294.848 286.007 291.062 290.359 286.961 294.42C269.706 311.504 243.724 324.416 219.717 313.825C209.802 309.45 201.123 301.425 197.766 290.918C193.971 279.046 197.914 266.394 204.48 256.292C211.055 246.177 220.334 238.383 229.499 230.684C229.995 230.267 230.491 229.85 230.987 229.433C231.225 229.233 231.462 229.033 231.7 228.833C231.964 228.61 232.228 228.387 232.491 228.164ZM272.134 177.633C272.419 184.016 270.707 190.24 267.895 195.928C265.129 201.406 261.421 206.349 257.226 210.815C252.646 215.692 247.333 220.178 241.985 224.693C228.902 235.74 215.611 246.961 212.344 264.495C210.464 274.582 213.441 284.581 220.502 292.008C227.197 299.052 236.673 303.443 246.317 304.363C257.517 305.433 268.757 301.843 278.332 296.217C288.334 290.339 296.361 282.186 303.937 273.521C304.569 272.798 305.201 272.071 305.834 271.344L305.838 271.339C312.382 263.812 319.05 256.143 327.571 250.828C332.586 247.697 338.113 245.675 343.94 244.703C349.96 243.7 356.089 243.661 362.174 243.707C362.589 243.71 363.003 243.713 363.418 243.717C375.138 243.812 387.005 243.907 397.767 238.59C400.308 237.335 402.75 235.896 405.192 234.458C408.194 232.689 411.196 230.92 414.379 229.494C420.133 226.916 426.936 225.26 433.067 227.543C435.212 228.341 437.062 228.711 439.308 227.979C441.422 227.292 443.319 225.874 444.662 224.113C448.055 219.664 447.524 213.471 446.849 208.262C445.659 199.064 444.391 189.876 443.123 180.688L443.123 180.684L443.122 180.68L443.122 180.675L443.121 180.671L443.121 180.667L443.12 180.663L443.119 180.658L443.119 180.654C442.487 176.074 441.855 171.494 441.233 166.913C440.924 164.642 440.617 162.372 440.311 160.101C439.699 155.57 439.087 151.038 438.459 146.509C437.748 141.383 436.916 136.261 435.613 131.248C433.12 121.655 428.577 112.146 419.816 106.834C410.276 101.051 398.334 101.186 387.475 101.309C386.982 101.314 386.49 101.32 386.001 101.325C372.155 101.466 358.319 102.42 344.585 104.178C331.249 105.884 317.878 108.2 304.869 111.624C293.686 114.567 282.454 119.112 274.708 128.049C271.375 131.894 268.789 136.44 267.573 141.402C266.14 147.253 266.985 153.234 268.357 159.01C268.711 160.499 269.098 161.985 269.486 163.473L269.486 163.475L269.487 163.476L269.487 163.478L269.487 163.479L269.488 163.481L269.488 163.482L269.488 163.484L269.489 163.485C270.702 168.142 271.918 172.811 272.134 177.633ZM268.615 196.256C263.176 207.027 254.33 215.24 245.243 222.927C244.351 223.682 243.453 224.435 242.555 225.19L242.554 225.191C234.273 232.146 225.89 239.187 219.95 248.326C214.027 257.437 210.469 268.853 213.891 279.562C216.921 289.044 224.75 296.284 233.698 300.232C255.366 309.79 278.817 298.134 294.391 282.713C298.097 279.044 301.518 275.112 304.939 271.179L304.939 271.179L304.94 271.179L304.94 271.178L304.94 271.178L304.941 271.178L304.941 271.177L304.941 271.177L304.941 271.177C308.589 266.984 312.236 262.791 316.228 258.919C319.916 255.342 323.898 252.029 328.349 249.436C332.972 246.741 337.993 244.959 343.256 244.02C350.225 242.777 357.28 242.852 364.336 242.928L364.336 242.928L364.337 242.928L364.337 242.928L364.337 242.928L364.338 242.928L364.338 242.928L364.338 242.928L364.338 242.928C369.169 242.98 374.001 243.031 378.807 242.66C384.852 242.193 390.795 240.974 396.317 238.41C399.296 237.027 402.123 235.363 404.95 233.699C407.456 232.224 409.963 230.748 412.575 229.469C417.697 226.959 423.486 225.133 429.249 225.829C430.516 225.982 431.771 226.261 432.98 226.672C433.223 226.755 433.46 226.841 433.695 226.927C434.773 227.318 435.789 227.686 437.001 227.625C439.512 227.495 441.884 226.094 443.529 224.242C447.517 219.751 446.69 213.003 445.957 207.528C445.367 203.118 444.765 198.71 444.163 194.303L444.163 194.3L444.162 194.298L444.161 194.289C443.843 191.957 443.525 189.625 443.208 187.293C442.611 182.9 442.017 178.506 441.422 174.112C440.197 165.053 438.971 155.993 437.722 146.936C436.34 136.909 434.63 126.338 429.27 117.559C426.606 113.196 422.986 109.46 418.493 106.975C413.549 104.242 407.933 103.061 402.355 102.53C396.176 101.942 389.92 102.038 383.722 102.142C376.958 102.255 370.195 102.564 363.449 103.065C350.033 104.063 336.675 105.821 323.458 108.333L322.833 108.451C310.661 110.764 297.868 113.195 286.943 119.275C277.663 124.441 269.456 133.131 267.873 143.993C266.898 150.681 268.579 157.113 270.262 163.557C271.685 169.006 273.111 174.463 272.937 180.092C272.763 185.746 271.108 191.209 268.615 196.256ZM278.157 193.53C280.663 188.458 282.193 182.909 281.938 177.217C281.746 172.917 280.661 168.752 279.58 164.6L279.58 164.599L279.58 164.598L279.579 164.597L279.579 164.596L279.579 164.595L279.579 164.594L279.578 164.593C279.231 163.259 278.884 161.926 278.567 160.59C277.342 155.43 276.587 150.085 277.868 144.856C278.955 140.419 281.267 136.352 284.247 132.915C291.169 124.929 301.203 120.867 311.195 118.237C322.815 115.178 334.757 113.109 346.667 111.585C358.93 110.015 371.285 109.164 383.647 109.038C384.083 109.034 384.521 109.029 384.962 109.024C394.664 108.914 405.338 108.793 413.861 113.96C421.694 118.709 425.759 127.205 427.987 135.781C429.152 140.262 429.895 144.838 430.531 149.418C431.111 153.586 431.673 157.756 432.236 161.927L432.236 161.927L432.236 161.928L432.236 161.928L432.236 161.929L432.236 161.929L432.237 161.93L432.237 161.93C432.493 163.832 432.75 165.734 433.008 167.635C433.554 171.652 434.108 175.669 434.663 179.685C435.806 187.972 436.95 196.26 438.023 204.555C438.626 209.218 439.096 214.756 436.059 218.74C434.855 220.317 433.154 221.588 431.263 222.206C429.246 222.861 427.585 222.532 425.657 221.815C420.194 219.781 414.131 221.262 409.004 223.559C406.162 224.832 403.482 226.412 400.801 227.991C398.621 229.276 396.44 230.56 394.172 231.681C384.556 236.431 373.956 236.345 363.487 236.261C363.118 236.258 362.75 236.255 362.381 236.252C356.946 236.211 351.476 236.245 346.102 237.141C340.906 238.007 335.979 239.811 331.507 242.601C323.899 247.348 317.946 254.194 312.103 260.915L311.582 261.514C311.353 261.777 311.125 262.039 310.896 262.301C310.735 262.487 310.573 262.672 310.412 262.856C303.645 270.596 296.475 277.879 287.541 283.128C278.981 288.158 268.936 291.365 258.924 290.411C250.302 289.588 241.831 285.66 235.848 279.362C229.537 272.721 226.876 263.781 228.555 254.764C231.474 239.099 243.343 229.076 255.029 219.207C259.804 215.175 264.548 211.169 268.639 206.814C272.38 202.829 275.689 198.419 278.157 193.53ZM257.996 217.689C266.104 210.831 273.995 203.503 278.855 193.901C278.86 193.893 278.865 193.884 278.87 193.876C278.873 193.871 278.876 193.865 278.878 193.86C281.109 189.348 282.586 184.462 282.742 179.407C282.896 174.384 281.624 169.513 280.353 164.65C278.85 158.897 277.35 153.156 278.22 147.186C279.63 137.499 286.952 129.751 295.229 125.144C304.973 119.72 316.385 117.552 327.243 115.489L327.811 115.38C339.612 113.137 351.54 111.567 363.519 110.677C369.544 110.229 375.58 109.954 381.621 109.853C387.151 109.76 392.732 109.675 398.246 110.199C403.222 110.67 408.232 111.724 412.644 114.163C416.65 116.378 419.875 119.71 422.25 123.599C427.033 131.43 428.558 140.864 429.79 149.809C430.892 157.811 431.975 165.816 433.058 173.821L433.06 173.83C433.601 177.834 434.143 181.838 434.687 185.842C434.972 187.94 435.258 190.038 435.545 192.135L435.547 192.151C436.082 196.07 436.617 199.988 437.142 203.909C437.796 208.785 438.538 214.801 434.984 218.802C433.523 220.446 431.416 221.689 429.184 221.805C428.112 221.86 427.212 221.533 426.259 221.187C426.048 221.111 425.834 221.033 425.616 220.959C424.533 220.589 423.409 220.339 422.274 220.202C417.121 219.581 411.945 221.211 407.364 223.455C405.03 224.598 402.791 225.916 400.552 227.234C398.029 228.719 395.506 230.204 392.848 231.439C387.92 233.727 382.62 234.814 377.225 235.23C372.935 235.562 368.621 235.516 364.308 235.47C358.007 235.402 351.707 235.335 345.483 236.445C340.774 237.284 336.285 238.878 332.151 241.288C328.174 243.606 324.616 246.566 321.32 249.764C317.754 253.223 314.496 256.968 311.238 260.713C308.184 264.224 305.13 267.734 301.822 271.01C287.931 284.764 267.009 295.166 247.682 286.64C239.702 283.12 232.72 276.664 230.018 268.208C226.967 258.662 230.141 248.482 235.42 240.36C240.72 232.206 248.198 225.924 255.586 219.718L255.586 219.718C256.391 219.041 257.196 218.366 257.996 217.689ZM291.742 176.8C291.966 181.801 290.621 186.676 288.418 191.132C286.247 195.432 283.338 199.309 280.044 202.811C276.442 206.646 272.267 210.173 268.064 213.722L268.063 213.723C257.776 222.411 247.33 231.235 244.76 245.029C243.28 252.978 245.625 260.857 251.186 266.712C256.459 272.262 263.924 275.728 271.524 276.453C280.349 277.295 289.199 274.47 296.744 270.037C304.608 265.415 310.921 259.002 316.879 252.188C317.372 251.623 317.866 251.056 318.36 250.487C323.501 244.573 328.738 238.547 335.433 234.37C339.36 231.918 343.691 230.334 348.254 229.574C352.984 228.786 357.798 228.755 362.581 228.792C362.902 228.794 363.224 228.797 363.546 228.799C372.766 228.873 382.101 228.948 390.57 224.766C392.568 223.779 394.489 222.648 396.41 221.516C398.767 220.127 401.124 218.739 403.623 217.619C408.123 215.602 413.446 214.3 418.242 216.084C419.951 216.72 421.424 217.011 423.211 216.429C424.883 215.884 426.389 214.76 427.452 213.366C430.134 209.85 429.723 204.967 429.19 200.849C428.245 193.536 427.237 186.23 426.229 178.925L426.227 178.913L426.225 178.901L426.224 178.888C425.739 175.378 425.255 171.869 424.778 168.358C424.545 166.647 424.314 164.935 424.083 163.223L424.082 163.213L424.082 163.21L424.081 163.206L424.081 163.203L424.08 163.199L424.08 163.196L424.079 163.192C423.59 159.57 423.101 155.947 422.599 152.326C422.039 148.29 421.383 144.259 420.357 140.312C418.393 132.751 414.807 125.269 407.901 121.083C400.39 116.531 390.988 116.638 382.44 116.735C382.054 116.739 381.67 116.744 381.287 116.748C370.408 116.858 359.536 117.608 348.744 118.989C338.259 120.331 327.745 122.152 317.516 124.845C308.714 127.163 299.878 130.744 293.781 137.778C291.154 140.809 289.117 144.396 288.159 148.309C287.031 152.914 287.695 157.623 288.775 162.168C289.054 163.343 289.359 164.515 289.664 165.688L289.665 165.688C290.617 169.345 291.572 173.012 291.742 176.8ZM289.126 191.484C284.846 199.949 277.892 206.406 270.748 212.451C270.05 213.041 269.348 213.63 268.646 214.22C262.141 219.684 255.556 225.215 250.889 232.393C246.252 239.525 243.463 248.47 246.141 256.853C248.516 264.282 254.65 269.954 261.661 273.046C278.648 280.541 297.041 271.395 309.249 259.305C312.157 256.425 314.843 253.338 317.529 250.25L317.53 250.25C320.399 246.952 323.268 243.654 326.408 240.609C329.311 237.793 332.445 235.184 335.947 233.142C339.594 231.016 343.55 229.611 347.703 228.871C353.179 227.894 358.721 227.953 364.265 228.013L364.265 228.013C368.062 228.053 371.86 228.094 375.637 227.801C380.381 227.435 385.041 226.48 389.373 224.468C391.713 223.381 393.933 222.074 396.154 220.767C398.124 219.608 400.094 218.449 402.147 217.443C406.187 215.463 410.751 214.03 415.294 214.579C416.297 214.699 417.29 214.922 418.245 215.247C418.31 215.269 418.374 215.292 418.438 215.314C418.479 215.329 418.521 215.344 418.563 215.359C418.644 215.388 418.725 215.417 418.805 215.447L418.806 215.447L418.807 215.447C419.639 215.75 420.424 216.036 421.361 215.988C423.311 215.888 425.156 214.8 426.433 213.361C429.551 209.851 428.894 204.567 428.322 200.291C427.821 196.556 427.312 192.823 426.802 189.09L426.799 189.073C426.586 187.513 426.373 185.952 426.161 184.392C425.682 180.868 425.205 177.344 424.728 173.82L424.727 173.808C423.774 166.765 422.821 159.722 421.85 152.681C420.767 144.818 419.428 136.523 415.225 129.639C413.139 126.223 410.308 123.294 406.79 121.35C402.911 119.206 398.507 118.281 394.131 117.865C389.284 117.404 384.377 117.479 379.514 117.562C374.199 117.652 368.886 117.893 363.583 118.287C353.042 119.071 342.545 120.453 332.161 122.427L331.649 122.524C322.107 124.338 312.075 126.244 303.511 131.01C296.238 135.059 289.801 141.864 288.56 150.378C287.795 155.629 289.115 160.68 290.438 165.741C291.556 170.018 292.675 174.302 292.54 178.72C292.404 183.177 291.103 187.486 289.136 191.464C289.133 191.471 289.129 191.478 289.126 191.484ZM298.68 188.736C300.577 184.897 301.739 180.696 301.546 176.386C301.399 173.116 300.574 169.949 299.752 166.792L299.751 166.79L299.751 166.789L299.751 166.789L299.751 166.788L299.751 166.787C299.487 165.774 299.223 164.762 298.983 163.748C298.051 159.818 297.476 155.747 298.452 151.765C299.281 148.376 301.044 145.271 303.32 142.645C308.591 136.562 316.229 133.464 323.84 131.46C332.68 129.133 341.764 127.558 350.825 126.398C360.146 125.205 369.536 124.557 378.932 124.463C379.261 124.459 379.591 124.455 379.923 124.452C387.316 124.368 395.448 124.276 401.944 128.212C407.92 131.833 411.03 138.304 412.73 144.849C413.618 148.262 414.184 151.749 414.67 155.24C415.127 158.533 415.572 161.829 416.017 165.125L416.02 165.151L416.024 165.177C416.199 166.48 416.375 167.783 416.552 169.086C416.966 172.134 417.387 175.182 417.807 178.231L417.808 178.235L417.812 178.261L417.812 178.264C418.68 184.555 419.548 190.848 420.364 197.147C420.826 200.719 421.176 204.948 418.851 207.997C417.928 209.207 416.619 210.186 415.166 210.659C413.608 211.167 412.322 210.915 410.832 210.36C406.703 208.826 402.12 209.952 398.25 211.687C396.089 212.655 394.052 213.856 392.014 215.057C390.357 216.033 388.7 217.009 386.976 217.861C379.653 221.479 371.579 221.413 363.606 221.347L363.606 221.347L362.79 221.341C358.659 221.311 354.501 221.337 350.415 222.018C346.484 222.673 342.752 224.038 339.369 226.149C333.596 229.751 329.078 234.947 324.642 240.048C324.212 240.543 323.783 241.036 323.354 241.527C318.206 247.416 312.749 252.958 305.953 256.952C299.423 260.789 291.768 263.232 284.131 262.503C277.556 261.876 271.09 258.875 266.531 254.069C261.722 248.998 259.69 242.182 260.972 235.301C263.194 223.375 272.219 215.75 281.108 208.241C284.738 205.174 288.346 202.126 291.458 198.813C294.297 195.788 296.807 192.444 298.68 188.736ZM283.498 207.213C289.674 201.99 295.683 196.408 299.385 189.093L299.393 189.078L299.4 189.066C301.101 185.62 302.227 181.89 302.344 178.031C302.46 174.218 301.493 170.519 300.528 166.827L300.528 166.827C299.386 162.458 298.246 158.097 298.906 153.567C299.975 146.227 305.526 140.363 311.796 136.874C319.181 132.765 327.832 131.121 336.06 129.558L336.514 129.471C345.482 127.766 354.549 126.573 363.653 125.897C368.231 125.556 372.82 125.348 377.41 125.27C381.605 125.199 385.839 125.135 390.02 125.532C393.796 125.89 397.594 126.689 400.941 128.539C403.972 130.213 406.409 132.738 408.205 135.68C411.83 141.617 412.982 148.773 413.918 155.554C414.742 161.542 415.553 167.532 416.363 173.522C416.788 176.661 417.213 179.801 417.64 182.94C417.844 184.445 418.049 185.949 418.255 187.453L418.258 187.48L418.262 187.506L418.263 187.517C418.679 190.568 419.096 193.619 419.505 196.672C419.999 200.352 420.569 204.902 417.886 207.922C416.793 209.153 415.213 210.086 413.543 210.171C412.746 210.21 412.076 209.967 411.368 209.709C411.208 209.651 411.046 209.592 410.88 209.535C410.05 209.251 409.188 209.058 408.317 208.953C404.382 208.478 400.432 209.716 396.935 211.43C395.16 212.299 393.458 213.301 391.756 214.303C389.838 215.432 387.921 216.56 385.902 217.498C382.163 219.233 378.144 220.058 374.052 220.374C370.791 220.625 367.513 220.59 364.235 220.555C359.445 220.504 354.657 220.453 349.926 221.297C346.331 221.94 342.905 223.157 339.748 224.997C336.718 226.762 334.009 229.02 331.498 231.455C328.788 234.084 326.312 236.931 323.835 239.777C321.514 242.446 319.193 245.114 316.679 247.603C306.152 258.026 290.291 265.918 275.643 259.456C269.6 256.789 264.314 251.903 262.267 245.498C259.96 238.278 262.364 230.571 266.357 224.428C270.384 218.233 276.064 213.461 281.677 208.747C282.286 208.235 282.894 207.725 283.498 207.213ZM311.336 175.748C311.544 179.444 310.567 183.043 308.94 186.338C307.362 189.46 305.25 192.272 302.859 194.816C300.235 197.609 297.198 200.176 294.142 202.759L294.142 202.759C286.657 209.085 279.065 215.503 277.182 225.555C276.106 231.301 277.77 237.027 281.758 241.295C285.59 245.395 291.039 247.967 296.606 248.532C302.979 249.178 309.381 247.188 314.86 244.032C320.622 240.714 325.265 236.064 329.613 231.101C330.038 230.616 330.462 230.127 330.887 229.638C334.568 225.404 338.309 221.1 343.07 218.064C345.886 216.267 348.997 215.079 352.286 214.499C355.705 213.895 359.191 213.856 362.653 213.878C363.052 213.88 363.451 213.883 363.851 213.886C370.406 213.937 377.065 213.989 383.108 211.076C384.659 210.328 386.143 209.454 387.626 208.581L387.626 208.58L387.627 208.58L387.627 208.58L387.627 208.58C389.325 207.58 391.024 206.579 392.823 205.768C396.076 204.302 399.944 203.334 403.419 204.628C404.636 205.081 405.697 205.307 406.981 204.923C408.207 204.559 409.311 203.769 410.118 202.783C412.14 200.315 411.949 196.79 411.582 193.817C410.924 188.484 410.18 183.159 409.435 177.834L409.435 177.834L409.435 177.833L409.434 177.829L409.434 177.826C409.068 175.209 408.702 172.592 408.346 169.974C408.298 169.619 408.25 169.263 408.201 168.908C408.167 168.658 408.133 168.407 408.099 168.157L407.826 166.135L407.818 166.075L407.816 166.061C407.465 163.469 407.115 160.877 406.757 158.286C406.354 155.361 405.882 152.44 405.151 149.576C403.738 144.04 401.153 138.53 396.131 135.426C390.664 132.047 383.816 132.109 377.576 132.166L377.554 132.166L377.283 132.169L376.924 132.172C369.036 132.237 361.151 132.767 353.324 133.752C345.649 134.718 337.962 136.05 330.469 137.991C324.004 139.666 317.503 142.241 312.983 147.363C311.063 149.536 309.568 152.106 308.819 154.919C307.938 158.23 308.338 161.642 309.098 164.934C309.323 165.91 309.576 166.883 309.83 167.855L309.83 167.856L309.83 167.857L309.83 167.858L309.831 167.859C310.508 170.457 311.186 173.059 311.336 175.748ZM309.642 186.702C306.548 192.801 301.56 197.477 296.41 201.84C295.844 202.32 295.274 202.798 294.704 203.277C290.073 207.165 285.391 211.097 282.02 216.168C278.574 221.352 276.437 227.902 278.365 234.055C280.059 239.459 284.496 243.587 289.582 245.843C301.905 251.308 315.273 244.659 324.127 235.879C326.235 233.789 328.182 231.551 330.129 229.313C332.183 226.953 334.237 224.592 336.479 222.406C340.813 218.179 345.787 214.931 351.809 213.787C355.899 213.011 360.047 213.055 364.196 213.1C366.828 213.129 369.461 213.157 372.079 212.976C375.502 212.738 378.889 212.11 382.039 210.707C383.891 209.881 385.636 208.854 387.382 207.827L387.383 207.827L387.383 207.827L387.383 207.827L387.383 207.827C388.711 207.045 390.04 206.264 391.415 205.571C394.324 204.106 397.581 203.026 400.876 203.285C401.664 203.348 402.442 203.494 403.198 203.726C403.426 203.796 403.648 203.882 403.87 203.967L403.871 203.967C404.333 204.145 404.792 204.321 405.296 204.353C406.773 204.45 408.232 203.661 409.221 202.611C411.586 200.103 411.108 196.213 410.691 193.091C410.361 190.617 410.023 188.144 409.685 185.67C409.5 184.312 409.314 182.953 409.13 181.595C408.782 179.037 408.436 176.48 408.089 173.922L408.088 173.911C407.396 168.805 406.705 163.7 406.004 158.595C405.221 152.879 404.271 146.842 401.243 141.82C399.733 139.317 397.677 137.161 395.108 135.735C392.311 134.184 389.14 133.511 385.984 133.206C382.49 132.867 378.955 132.92 375.449 132.976C371.609 133.038 367.771 133.21 363.941 133.49C356.28 134.051 348.652 135.046 341.103 136.472L340.644 136.559C333.684 137.872 326.358 139.255 320.112 142.721C314.856 145.639 310.202 150.524 309.264 156.665C308.676 160.514 309.644 164.224 310.615 167.942C311.436 171.09 312.259 174.243 312.141 177.492C312.025 180.701 311.075 183.8 309.662 186.667C309.656 186.679 309.649 186.691 309.642 186.702ZM319.202 183.94C320.513 181.275 321.309 178.37 321.143 175.38C321.022 173.196 320.471 171.081 319.921 168.97C319.706 168.145 319.491 167.321 319.302 166.493C318.689 163.809 318.384 161.029 319.123 158.336C319.763 156.009 321.019 153.894 322.628 152.108C326.309 148.024 331.545 145.961 336.753 144.613C342.859 143.032 349.12 141.946 355.374 141.161C361.814 140.352 368.303 139.923 374.794 139.88L375.156 139.878C380.239 139.843 385.807 139.805 390.253 142.599C394.329 145.161 396.411 149.684 397.548 154.199C398.583 158.311 399.106 162.564 399.626 166.79L399.626 166.792C399.793 168.151 399.96 169.507 400.143 170.855C400.428 172.953 400.723 175.052 401.017 177.15L401.017 177.15L401.017 177.15L401.017 177.15C401.622 181.467 402.228 185.783 402.754 190.108C403.047 192.516 403.177 195.336 401.568 197.345C400.253 198.984 398.185 199.748 396.201 198.976C391.614 197.191 387.204 199.781 383.16 202.156C382.084 202.788 381.034 203.404 380.014 203.919C374.859 206.522 369.19 206.474 363.556 206.427L363.556 206.427L363.443 206.426C357.795 206.38 352.135 206.622 347.21 209.707C343.268 212.175 340.185 215.721 337.155 219.208L337.155 219.209C336.814 219.601 336.473 219.993 336.132 220.382C332.578 224.44 328.78 228.243 324.061 230.947C319.602 233.503 314.397 235.112 309.217 234.578C304.69 234.112 300.264 232.023 297.144 228.692C293.884 225.21 292.52 220.541 293.388 215.848C294.907 207.654 301.098 202.42 307.194 197.265C309.646 195.192 312.083 193.131 314.195 190.897C316.165 188.81 317.901 186.505 319.202 183.94ZM309.305 196.48C313.432 192.975 317.398 189.212 319.891 184.329C319.897 184.321 319.903 184.311 319.909 184.302C319.915 184.292 319.921 184.281 319.927 184.27C321.082 181.92 321.854 179.388 321.948 176.758C322.041 174.127 321.373 171.572 320.707 169.022C319.917 166 319.129 162.984 319.612 159.856C320.398 154.758 324.339 150.745 328.738 148.405C333.821 145.702 339.706 144.597 345.32 143.544L345.607 143.49C351.732 142.341 357.922 141.539 364.138 141.092C367.246 140.869 370.359 140.732 373.475 140.685C376.307 140.642 379.167 140.601 381.989 140.886C384.539 141.143 387.096 141.703 389.346 142.973C391.438 144.155 393.094 145.94 394.306 147.999C396.745 152.14 397.478 157.09 398.116 161.778C398.943 167.862 399.769 173.946 400.595 180.03L400.646 180.402C400.779 181.382 400.913 182.362 401.048 183.342C401.336 185.443 401.624 187.546 401.902 189.65C402.239 192.212 402.57 195.42 400.478 197.362C399.644 198.134 398.459 198.7 397.301 198.501C396.966 198.444 396.644 198.32 396.323 198.196L396.323 198.196L396.323 198.196L396.322 198.196C396.102 198.111 395.881 198.026 395.656 197.962C395.05 197.792 394.428 197.693 393.801 197.655C391.175 197.5 388.599 198.353 386.279 199.517C385.152 200.084 384.064 200.724 382.977 201.363L382.976 201.363L382.976 201.364L382.976 201.364C381.622 202.161 380.267 202.957 378.836 203.612C376.292 204.777 373.558 205.318 370.779 205.526C368.579 205.69 366.368 205.667 364.157 205.643L364.157 205.643C360.883 205.608 357.61 205.573 354.376 206.149C349.484 207.02 345.419 209.557 341.871 212.957C339.935 214.813 338.175 216.835 336.415 218.857L336.415 218.857L336.415 218.858L336.415 218.858C334.896 220.603 333.378 222.348 331.745 223.986C324.566 231.191 313.655 236.719 303.584 232.262C299.454 230.435 295.852 227.084 294.486 222.695C292.917 217.655 294.721 212.293 297.573 208.076C300.297 204.048 304.034 200.91 307.735 197.803L307.735 197.803C308.26 197.362 308.785 196.922 309.305 196.48ZM330.922 174.601C331.134 177.028 330.527 179.374 329.465 181.544C328.444 183.55 327.081 185.348 325.531 186.971C323.929 188.651 322.092 190.206 320.244 191.77L320.243 191.771C315.537 195.753 310.758 199.798 309.594 206.136C308.934 209.737 309.971 213.327 312.459 216.012C314.87 218.614 318.308 220.256 321.827 220.623C330.266 221.502 337.329 215.726 342.536 209.793C342.832 209.455 343.128 209.114 343.425 208.773C345.71 206.143 348.03 203.473 350.98 201.581C354.826 199.115 359.244 198.934 363.678 198.97C368.011 199.007 372.367 199.042 376.333 197.05C377.192 196.619 378.021 196.13 378.85 195.641L378.851 195.641L378.851 195.641C379.981 194.975 381.111 194.309 382.315 193.788C383.431 193.306 384.604 192.942 385.818 192.84C387.004 192.742 387.973 193.004 389.082 193.362C390.539 193.832 392.117 193.066 393.018 191.907C394.219 190.362 394.143 188.24 393.926 186.4C393.524 182.987 393.042 179.581 392.56 176.175C392.326 174.522 392.092 172.87 391.867 171.217C391.73 170.208 391.605 169.193 391.48 168.176L391.48 168.176C391.079 164.909 390.674 161.62 389.849 158.448C388.951 155.002 387.314 151.601 384.194 149.663C380.775 147.539 376.51 147.567 372.61 147.593L372.352 147.594C367.258 147.626 362.166 147.965 357.113 148.611C352.321 149.223 347.516 150.057 342.84 151.286C338.831 152.341 334.817 153.97 332.015 157.145C330.833 158.484 329.91 160.059 329.422 161.783C328.848 163.812 329.036 165.911 329.484 167.944C329.641 168.659 329.826 169.368 330.011 170.078L330.011 170.078C330.399 171.57 330.788 173.062 330.922 174.601ZM330.166 181.909C328.007 186.124 324.497 189.095 320.98 192.071C318.129 194.484 315.273 196.9 313.131 199.986C310.875 203.235 309.399 207.407 310.611 211.336C311.663 214.749 314.476 217.336 317.693 218.727C325.538 222.115 333.954 217.647 339.441 212.013C340.578 210.846 341.648 209.617 342.719 208.388C344.122 206.777 345.525 205.166 347.078 203.694C349.768 201.145 352.86 199.252 356.546 198.586C359.046 198.135 361.579 198.161 364.113 198.188L364.113 198.188L364.113 198.188C365.724 198.205 367.334 198.222 368.937 198.116C371.071 197.975 373.18 197.602 375.147 196.739C376.34 196.216 377.461 195.556 378.582 194.896C379.305 194.471 380.028 194.046 380.77 193.657C382.59 192.705 384.609 191.966 386.69 192.029C387.595 192.056 388.374 192.294 389.219 192.572C390.176 192.888 391.122 192.587 391.88 191.953C393.615 190.502 393.33 187.936 393.069 185.94C392.861 184.352 392.643 182.766 392.425 181.179C392.316 180.385 392.207 179.591 392.099 178.798C391.881 177.193 391.664 175.588 391.446 173.983L391.444 173.971L391.443 173.959C391.012 170.779 390.58 167.6 390.145 164.421C389.656 160.849 389.087 157.071 387.212 153.922C386.265 152.334 384.969 150.968 383.339 150.076C381.566 149.106 379.555 148.704 377.561 148.523C372.99 148.109 368.275 148.395 363.708 148.739C358.94 149.099 354.192 149.728 349.495 150.624L349.166 150.687C344.809 151.517 340.202 152.395 336.335 154.652C333.102 156.539 330.293 159.667 329.892 163.522C329.657 165.779 330.225 167.951 330.794 170.128C331.312 172.113 331.832 174.101 331.745 176.159C331.659 178.161 331.062 180.082 330.186 181.872C330.184 181.877 330.181 181.882 330.179 181.887C330.175 181.895 330.17 181.902 330.166 181.909ZM339.726 179.147C340.477 177.602 340.894 175.956 340.724 174.232C340.621 173.193 340.359 172.184 340.096 171.175L340.096 171.175C339.952 170.619 339.807 170.064 339.689 169.503C339.097 166.68 339.686 164.039 341.658 161.893C343.692 159.681 346.548 158.569 349.399 157.841C352.711 156.995 356.102 156.405 359.494 155.985C362.955 155.554 366.441 155.33 369.927 155.312L370.038 155.311C372.814 155.296 375.845 155.28 378.271 156.814C380.471 158.205 381.617 160.631 382.243 163.075C382.815 165.315 383.101 167.634 383.384 169.938L383.384 169.94C383.473 170.663 383.562 171.384 383.66 172.102C383.817 173.255 383.985 174.408 384.153 175.562L384.154 175.564C384.507 177.982 384.86 180.404 385.109 182.829C385.238 184.083 385.23 185.521 384.397 186.555C383.763 187.346 382.694 187.881 381.675 187.625C381.484 187.578 381.303 187.525 381.126 187.474C380.622 187.326 380.15 187.189 379.565 187.208C378.737 187.234 377.931 187.455 377.167 187.759C376.216 188.137 375.335 188.656 374.455 189.174C373.901 189.5 373.348 189.826 372.777 190.117C369.955 191.556 366.864 191.539 363.773 191.514C360.68 191.489 357.589 191.617 354.914 193.353C352.871 194.679 351.264 196.53 349.674 198.361C349.385 198.694 349.097 199.026 348.806 199.354C345.14 203.5 340.014 207.45 334.122 206.63C329.185 205.943 324.885 201.712 325.786 196.497C326.565 191.983 329.952 189.112 333.286 186.285C334.569 185.197 335.845 184.115 336.962 182.949C338.052 181.811 339.005 180.551 339.726 179.147ZM340.446 179.475C340.451 179.464 340.456 179.453 340.461 179.443C341.057 178.206 341.469 176.887 341.542 175.509C341.619 174.039 341.25 172.62 340.881 171.204L340.881 171.204C340.486 169.687 340.092 168.173 340.248 166.6C340.529 163.788 342.688 161.542 345.079 160.261C347.782 158.811 350.92 158.221 353.911 157.659L354.102 157.623C357.327 157.016 360.586 156.589 363.859 156.344C367.017 156.108 370.277 155.91 373.437 156.19C376.251 156.44 378.745 157.48 380.213 160.004C381.526 162.261 381.892 164.955 382.238 167.501L382.238 167.502L382.242 167.53C382.462 169.145 382.681 170.76 382.9 172.375L382.901 172.38L382.902 172.39C383.131 174.077 383.36 175.764 383.59 177.45C383.667 178.021 383.746 178.591 383.824 179.161C383.972 180.229 384.119 181.298 384.257 182.368C384.445 183.843 384.607 185.781 383.099 186.638C382.484 186.988 381.992 186.889 381.359 186.675C380.755 186.471 380.121 186.4 379.486 186.422C378.076 186.473 376.73 187.019 375.504 187.678C375.049 187.921 374.604 188.183 374.158 188.445C373.277 188.963 372.396 189.481 371.446 189.861C370.06 190.417 368.579 190.627 367.095 190.702C366.097 190.752 365.093 190.741 364.089 190.73L364.089 190.73C362.199 190.709 360.309 190.688 358.452 191.074C354.307 191.935 351.635 194.966 348.978 197.981L348.977 197.981C348.225 198.834 347.474 199.686 346.691 200.487C342.868 204.399 336.997 207.488 331.558 205.083C329.287 204.079 327.315 202.202 326.668 199.749C325.937 196.973 327.091 194.085 328.72 191.859C330.2 189.838 332.102 188.225 334.001 186.615L334.001 186.615C336.466 184.526 338.924 182.441 340.446 179.475ZM350.526 173.861C350.65 174.882 350.425 175.829 349.988 176.749C349.126 178.393 347.717 179.598 346.311 180.798C344.594 182.265 342.884 183.727 342.185 185.979C341.145 189.333 343.747 192.35 347.066 192.72C350.448 193.095 353.349 190.871 355.461 188.485C355.633 188.291 355.803 188.095 355.974 187.897C356.91 186.818 357.86 185.722 359.088 184.978C360.635 184.039 362.422 184.052 364.172 184.064C364.3 184.065 364.428 184.066 364.556 184.066C366.428 184.074 368.075 183.848 369.72 182.913C369.869 182.829 370.017 182.742 370.166 182.654C370.873 182.239 371.59 181.817 372.4 181.66C372.935 181.555 373.382 181.619 373.89 181.768C374.155 181.846 374.381 181.898 374.66 181.856C376.179 181.625 376.373 179.946 376.234 178.715C376.074 177.301 375.871 175.89 375.669 174.48C375.568 173.777 375.468 173.074 375.372 172.371C375.319 171.978 375.272 171.563 375.224 171.134C374.926 168.473 374.57 165.297 372.18 163.857C370.779 163.013 369.066 163.019 367.483 163.025C365.447 163.032 363.411 163.163 361.39 163.414C359.427 163.659 357.463 164.001 355.548 164.498C353.949 164.912 352.362 165.545 351.2 166.76C350.151 167.856 349.655 169.27 349.856 170.778C349.924 171.287 350.055 171.783 350.186 172.279C350.324 172.801 350.462 173.324 350.526 173.861ZM350.731 177.025C351.525 175.319 351.368 173.781 350.919 171.995C350.663 170.975 350.425 169.924 350.776 168.893C351.05 168.092 351.599 167.399 352.245 166.862C353.716 165.636 355.722 165.22 357.55 164.846C359.545 164.437 361.565 164.148 363.595 163.981C365.403 163.833 367.253 163.728 369.066 163.84C370.67 163.94 372.17 164.408 373.064 165.835C373.858 167.101 374.069 168.657 374.267 170.112L374.275 170.171C374.425 171.263 374.573 172.355 374.721 173.448C374.82 174.178 374.919 174.908 375.018 175.639C375.065 175.981 375.112 176.323 375.159 176.666C375.245 177.285 375.33 177.905 375.41 178.525L375.421 178.606C375.524 179.4 375.676 180.568 374.802 180.974C374.486 181.12 374.221 181.038 373.936 180.95C373.819 180.914 373.698 180.877 373.569 180.854C373.244 180.796 372.905 180.792 372.576 180.83C371.894 180.908 371.24 181.169 370.636 181.484C370.337 181.64 370.046 181.811 369.755 181.982C369.309 182.244 368.863 182.507 368.389 182.713C367.627 183.044 366.816 183.186 365.992 183.242C365.347 183.285 364.698 183.278 364.05 183.271C363.047 183.261 362.045 183.25 361.055 183.426C358.483 183.883 356.852 185.725 355.219 187.568C354.989 187.829 354.758 188.089 354.525 188.346C352.38 190.702 349.061 192.875 345.772 191.587C344.44 191.064 343.242 190.011 342.854 188.597C342.403 186.963 343.144 185.266 344.136 183.988C344.97 182.916 345.993 182.042 347.014 181.17C348.418 179.971 349.817 178.777 350.708 177.077C350.717 177.059 350.725 177.042 350.731 177.025Z" fill="url(#paint0_linear_1230_414)"/>
<defs>
<linearGradient id="paint0_linear_1230_414" x1="410.625" y1="24.0143" x2="67.9849" y2="283.501" gradientUnits="userSpaceOnUse">
<stop stop-color="white"/>
<stop offset="0.34086" stop-color="#023436" stop-opacity="0.31"/>
<stop offset="0.995488" stop-color="white"/>
</linearGradient>
</defs>
</svg>
