<svg width="1792" height="1755" viewBox="0 0 1792 1755" fill="none" xmlns="http://www.w3.org/2000/svg">
<path d="M1503.2 893.016C1526.16 918.447 1549.48 944.722 1562.79 976.737C1573.61 1002.77 1577.79 1031.31 1576.17 1059.39C1572.68 1119.78 1542.64 1175.1 1496.28 1213.46C1446.43 1254.71 1382.29 1275.43 1318.03 1276.75C1253.38 1278.09 1189.73 1261.12 1131.28 1234.31C1069.86 1206.14 1013.36 1168.59 952.778 1138.77C922.498 1123.87 891.081 1110.87 858.269 1102.7C827.502 1095.03 795.957 1092.11 764.298 1093.56C646.197 1098.95 536.051 1156.99 416.923 1153.22C297.077 1149.43 182.531 1077.86 123.493 974.005C115.616 960.149 109.286 945.617 102.402 931.264C96.4896 918.938 91.4499 906.584 88.593 893.167C83.2734 868.181 84.8404 842.101 91.5839 817.55C106.37 763.74 144.456 719.659 192.572 692.461C314.193 623.708 458.384 659.775 588.496 675.05C658.611 683.279 730.235 685.587 798.663 665.509C867.924 645.184 929.949 607.093 991.863 571.057C1050.67 536.826 1111.42 503.225 1178.45 488.421C1236.7 475.559 1301.28 476.703 1354.75 505.744C1402.12 531.469 1440.69 578.814 1446.45 633.578C1449.64 663.985 1440.89 693.451 1435.23 723.013C1432.14 739.127 1429.99 755.581 1431.54 771.999C1433.03 787.8 1437.89 803.036 1445.02 817.175C1459.45 845.778 1481.9 869.466 1503.2 893.016C1503.8 893.684 1502.67 894.519 1502.07 893.853C1481.58 871.201 1460.23 848.507 1445.66 821.42C1431.36 794.854 1427.23 766.394 1431.49 736.674C1435.85 706.179 1446.34 676.378 1445.77 645.287C1445.25 616.481 1435.05 588.579 1418.85 564.939C1384.56 514.924 1327.98 487.533 1268.44 482.807C1203.1 477.623 1138.83 497.061 1080.39 524.8C1017.1 554.835 958.933 594.304 896.737 626.395C866.141 642.18 834.504 656.238 801.481 666.131C770.04 675.549 737.612 680.629 704.843 682.111C568.49 688.275 434.151 636.769 297.866 658.569C236.895 668.321 175.61 693.449 134.498 741.065C99.8458 781.198 79.3995 836.32 89.2779 889.428C91.8205 903.102 96.5384 915.896 102.568 928.382C110.117 944.018 116.969 959.909 125.654 974.973C140.518 1000.75 158.836 1024.53 179.765 1045.67C222.224 1088.56 275.469 1120.86 333.34 1138.1C391.199 1155.35 450.702 1154.51 509.679 1143.84C566.649 1133.52 621.965 1115.96 678.571 1104C735.792 1091.91 794.341 1086.57 851.89 1099.74C914.281 1114.02 970.843 1145.44 1026.07 1176.7C1082.8 1208.81 1139.72 1241.53 1202.79 1259.59C1266.18 1277.73 1334.85 1282.04 1398.61 1263.19C1460.57 1244.87 1518.09 1205.18 1549.45 1147.69C1577.65 1096 1584.24 1031.16 1561.1 976.336C1547.8 944.837 1524.73 918.938 1502.07 893.855C1501.46 893.186 1502.59 892.351 1503.2 893.016Z" fill="url(#paint0_linear_1226_2273)"/>
<path d="M1481.96 883.413C1504.23 908.065 1526.83 933.543 1539.74 964.578C1550.23 989.814 1554.28 1017.49 1552.7 1044.72C1549.32 1103.26 1520.19 1156.9 1475.25 1194.08C1426.92 1234.08 1364.73 1254.16 1302.44 1255.45C1239.76 1256.75 1178.05 1240.3 1121.39 1214.31C1061.84 1187 1007.07 1150.6 948.343 1121.69C918.989 1107.24 888.536 1094.64 856.728 1086.72C826.903 1079.29 796.324 1076.46 765.634 1077.86C651.14 1083.09 544.362 1139.35 428.872 1135.69C312.686 1132.02 201.635 1062.63 144.398 961.952C136.761 948.518 130.624 934.428 123.947 920.511C118.215 908.561 113.33 896.584 110.559 883.572C105.401 859.347 106.918 834.061 113.46 810.256C127.797 758.086 164.72 715.352 211.368 688.981C329.277 622.326 469.066 657.29 595.206 672.097C663.174 680.075 732.606 682.313 798.937 662.85C866.079 643.147 926.207 606.223 986.226 571.287C1043.24 538.099 1102.13 505.525 1167.12 491.175C1223.59 478.705 1286.21 479.816 1338.04 507.972C1383.97 532.914 1421.37 578.815 1426.95 631.915C1430.05 661.394 1421.57 689.962 1416.08 718.622C1413.08 734.243 1411 750.19 1412.5 766.106C1413.94 781.423 1418.66 796.192 1425.57 809.895C1439.55 837.623 1461.32 860.583 1481.96 883.413C1482.56 884.08 1481.44 884.915 1480.83 884.249C1460.97 862.288 1440.28 840.285 1426.15 814.025C1412.28 788.268 1408.28 760.674 1412.4 731.861C1416.63 702.3 1426.8 673.414 1426.25 643.271C1425.74 615.347 1415.87 588.302 1400.16 565.389C1366.91 516.908 1312.07 490.357 1254.36 485.776C1191.02 480.751 1128.72 499.595 1072.06 526.481C1010.71 555.597 954.323 593.861 894.03 624.969C864.37 640.271 833.701 653.902 801.684 663.491C771.203 672.622 739.764 677.548 707.996 678.984C575.811 684.959 445.579 635.03 313.457 656.162C254.357 665.616 194.947 689.975 155.097 736.129C121.509 775.031 101.688 828.462 111.264 879.941C113.728 893.195 118.302 905.594 124.144 917.699C131.462 932.856 138.103 948.259 146.522 962.862C160.93 987.85 178.686 1010.9 198.976 1031.39C240.134 1072.97 291.75 1104.28 347.85 1121C403.936 1137.71 461.618 1136.9 518.79 1126.55C574.019 1116.55 627.641 1099.53 682.52 1087.94C737.993 1076.22 794.756 1071.04 850.545 1083.81C911.033 1097.65 965.864 1128.11 1019.4 1158.42C1074.4 1189.55 1129.58 1221.26 1190.72 1238.77C1252.17 1256.36 1318.73 1260.54 1380.54 1242.26C1440.6 1224.5 1496.35 1186.03 1526.76 1130.3C1554.09 1080.2 1560.48 1017.34 1538.05 964.202C1525.16 933.667 1502.79 908.563 1480.83 884.25C1480.23 883.582 1481.36 882.747 1481.96 883.413Z" fill="url(#paint1_linear_1226_2273)"/>
<path d="M1460.73 873.81C1482.29 897.689 1504.18 922.363 1516.68 952.422C1526.85 976.867 1530.76 1003.67 1529.24 1030.04C1525.97 1086.75 1497.75 1138.7 1454.23 1174.72C1407.42 1213.45 1347.18 1232.91 1286.85 1234.15C1226.15 1235.41 1166.38 1219.47 1111.5 1194.31C1053.83 1167.86 1000.78 1132.6 943.906 1104.61C915.48 1090.61 885.988 1078.41 855.187 1070.74C826.304 1063.55 796.691 1060.8 766.971 1062.16C656.085 1067.22 552.671 1121.71 440.822 1118.17C328.296 1114.61 220.739 1047.41 165.305 949.899C157.908 936.888 151.963 923.239 145.496 909.761C139.943 898.185 135.212 886.585 132.53 873.984C127.534 850.519 129.004 826.026 135.34 802.969C149.225 752.44 184.987 711.05 230.169 685.508C344.368 620.95 479.751 654.812 601.92 669.15C667.741 676.877 734.981 679.046 799.216 660.197C864.24 641.117 922.47 605.358 980.595 571.525C1035.82 539.383 1092.85 507.833 1155.8 493.935C1210.49 481.857 1271.13 482.936 1321.34 510.204C1365.82 534.362 1402.05 578.826 1407.46 630.258C1410.46 658.811 1402.24 686.479 1396.93 714.236C1394.03 729.361 1392.01 744.804 1393.46 760.218C1394.86 775.049 1399.42 789.35 1406.11 802.622C1419.66 829.465 1440.73 851.702 1460.73 873.81C1461.33 874.477 1460.2 875.312 1459.6 874.647C1440.36 853.376 1420.32 832.067 1406.63 806.632C1393.21 781.682 1389.33 754.956 1393.32 727.046C1397.42 698.419 1407.27 670.446 1406.74 641.254C1406.25 614.216 1396.68 588.027 1381.47 565.84C1349.28 518.893 1296.17 493.183 1240.28 488.746C1178.94 483.88 1118.61 502.127 1063.75 528.166C1004.33 556.364 949.72 593.421 891.328 623.548C862.603 638.369 832.9 651.568 801.895 660.857C772.373 669.7 741.924 674.469 711.155 675.863C583.138 681.651 457.01 633.294 329.058 653.759C271.827 662.912 214.296 686.502 175.706 731.197C143.18 768.869 123.986 820.607 133.259 870.458C135.646 883.291 140.075 895.301 145.734 907.02C152.82 921.698 159.252 936.612 167.404 950.754C181.356 974.952 198.551 997.273 218.2 1017.12C258.061 1057.38 308.049 1087.71 362.376 1103.9C416.69 1120.08 472.55 1119.3 527.914 1109.27C581.4 1099.59 633.334 1083.1 686.48 1071.88C740.205 1060.53 795.182 1055.5 849.213 1067.87C907.795 1081.28 960.901 1110.78 1012.75 1140.13C1066.01 1170.28 1119.46 1201 1178.67 1217.95C1238.18 1234.98 1302.63 1239.03 1362.48 1221.33C1420.64 1204.13 1474.64 1166.88 1504.08 1112.92C1530.55 1064.39 1536.74 1003.53 1515.02 952.071C1502.53 922.499 1480.87 898.19 1459.6 874.644C1458.99 873.979 1460.12 873.144 1460.73 873.81Z" fill="url(#paint2_linear_1226_2273)"/>
<path d="M1439.49 864.207C1460.36 887.31 1481.54 911.181 1493.63 940.265C1503.47 963.918 1507.26 989.854 1505.79 1015.37C1502.62 1070.23 1475.32 1120.5 1433.2 1155.35C1387.91 1192.82 1329.64 1211.65 1271.26 1212.85C1212.53 1214.07 1154.71 1198.65 1101.61 1174.3C1045.81 1148.71 994.498 1114.61 939.474 1087.52C911.975 1073.99 883.448 1062.18 853.648 1054.76C825.708 1047.8 797.062 1045.14 768.31 1046.46C661.034 1051.36 560.985 1104.07 452.776 1100.64C343.906 1097.2 239.843 1032.18 186.21 937.841C179.054 925.252 173.301 912.046 167.045 899.006C161.671 887.805 157.095 876.578 154.499 864.386C149.665 841.681 151.089 817.982 157.221 795.67C170.655 746.783 205.256 706.738 248.969 682.025C359.455 619.565 490.434 652.322 608.631 666.197C672.307 673.67 737.352 675.767 799.493 657.535C862.399 639.076 918.73 604.481 974.961 571.752C1028.39 540.653 1083.57 510.131 1144.47 496.682C1197.38 484.998 1256.06 486.039 1304.63 512.42C1347.67 535.796 1382.73 578.817 1387.96 628.582C1390.86 656.207 1382.92 682.977 1377.77 709.831C1374.97 724.462 1373.01 739.401 1374.42 754.309C1375.78 768.655 1380.19 782.491 1386.66 795.326C1399.76 821.309 1420.16 842.82 1439.49 864.207C1440.1 864.874 1438.97 865.709 1438.37 865.044C1419.76 844.464 1400.36 823.846 1387.12 799.238C1374.14 775.099 1370.38 749.237 1374.25 722.233C1378.21 694.541 1387.74 667.479 1387.22 639.241C1386.75 613.086 1377.49 587.755 1362.78 566.292C1331.64 520.878 1280.27 496.009 1226.21 491.718C1166.87 487.009 1108.51 504.665 1055.43 529.853C997.947 557.135 945.117 592.985 888.626 622.132C860.837 636.469 832.099 649.239 802.104 658.223C773.54 666.778 744.083 671.395 714.314 672.743C590.466 678.341 468.443 631.561 344.655 651.36C289.295 660.214 233.641 683.032 196.311 726.267C164.847 762.707 146.281 812.755 155.251 860.978C157.56 873.39 161.844 885.006 167.317 896.344C174.172 910.542 180.391 924.971 188.278 938.649C201.775 962.058 218.408 983.652 237.416 1002.85C275.977 1041.8 324.334 1071.14 376.893 1086.8C429.434 1102.46 483.471 1101.7 537.031 1092C588.776 1082.64 639.019 1066.68 690.436 1055.82C742.416 1044.84 795.601 1039.99 847.875 1051.95C904.554 1064.92 955.93 1093.46 1006.1 1121.86C1057.62 1151.03 1109.33 1180.74 1166.61 1197.14C1224.17 1213.62 1286.53 1217.53 1344.42 1200.42C1400.68 1183.78 1452.92 1147.74 1481.4 1095.54C1507 1048.6 1512.99 989.729 1491.98 939.951C1479.9 911.345 1458.94 887.827 1438.37 865.049C1437.76 864.374 1438.89 863.539 1439.49 864.207Z" fill="url(#paint3_linear_1226_2273)"/>
<path d="M1418.26 854.603C1438.43 876.931 1458.89 900.001 1470.58 928.106C1480.09 950.968 1483.75 976.036 1482.33 1000.7C1479.27 1053.72 1452.88 1102.31 1412.18 1135.98C1368.41 1172.2 1312.09 1190.39 1255.68 1191.56C1198.92 1192.73 1143.04 1177.83 1091.73 1154.3C1037.81 1129.57 988.219 1096.62 935.046 1070.44C908.475 1057.36 880.907 1045.95 852.113 1038.78C825.115 1032.06 797.435 1029.5 769.654 1030.76C665.986 1035.5 569.304 1086.44 464.733 1083.13C359.521 1079.8 258.954 1016.96 207.124 925.793C200.207 913.626 194.647 900.863 188.6 888.257C183.407 877.432 178.985 866.582 176.475 854.795C171.805 832.852 173.181 809.945 179.107 788.381C192.092 741.137 225.53 702.431 267.775 678.549C374.549 618.187 501.124 649.844 615.354 663.249C676.88 670.47 739.735 672.499 799.78 654.881C860.566 637.044 914.999 603.617 969.338 571.989C1020.97 541.935 1074.3 512.439 1133.15 499.442C1184.29 488.15 1241 489.158 1287.94 514.651C1329.54 537.245 1363.42 578.822 1368.48 626.921C1371.28 653.619 1363.6 679.489 1358.63 705.443C1355.92 719.581 1354.03 734.014 1355.39 748.418C1356.7 762.278 1360.96 775.646 1367.22 788.048C1379.87 813.154 1399.58 833.939 1418.26 854.603C1418.87 855.271 1417.74 856.106 1417.14 855.44C1399.15 835.551 1380.41 815.628 1367.61 791.843C1355.06 768.512 1351.43 743.516 1355.17 717.418C1359 690.661 1368.2 664.51 1367.71 637.226C1367.25 611.957 1358.31 587.479 1344.09 566.743C1314.01 522.861 1264.37 498.832 1212.13 494.688C1154.79 490.138 1098.4 507.2 1047.12 531.539C991.566 557.902 940.514 592.544 885.924 620.711C859.07 634.567 831.303 646.905 802.315 655.588C774.712 663.857 746.241 668.319 717.474 669.619C597.793 675.029 479.878 629.821 360.258 648.955C306.765 657.511 252.992 679.557 216.922 721.333C186.52 756.543 168.581 804.899 177.248 851.492C179.477 863.487 183.62 874.71 188.906 885.661C195.53 899.38 201.539 913.32 209.16 926.538C222.201 949.157 238.274 970.021 256.64 988.573C293.901 1026.21 340.629 1054.56 391.416 1069.7C442.187 1084.82 494.4 1084.09 546.151 1074.72C596.155 1065.67 644.706 1050.25 694.392 1039.76C744.624 1029.15 796.024 1024.46 846.542 1036.02C901.315 1048.55 950.963 1076.13 999.447 1103.58C1049.24 1131.76 1099.2 1160.48 1154.56 1176.33C1210.18 1192.25 1270.43 1196.03 1326.37 1179.49C1380.73 1163.41 1431.2 1128.59 1458.72 1078.16C1483.46 1032.8 1489.25 975.916 1468.95 927.818C1457.28 900.178 1437.03 877.452 1417.15 855.443C1416.53 854.773 1417.66 853.938 1418.26 854.603Z" fill="url(#paint4_linear_1226_2273)"/>
<path d="M1397.03 845C1416.49 866.55 1436.25 888.819 1447.53 915.949C1456.71 938.018 1460.24 962.218 1458.87 986.024C1455.91 1037.21 1430.44 1084.11 1391.15 1116.61C1348.9 1151.57 1294.54 1169.14 1240.09 1170.26C1185.3 1171.39 1131.36 1157.01 1081.83 1134.3C1029.79 1110.43 981.931 1078.63 930.61 1053.36C904.966 1040.74 878.36 1029.73 850.572 1022.81C824.516 1016.32 797.801 1013.84 770.989 1015.07C670.928 1019.64 577.611 1068.8 476.68 1065.61C375.128 1062.39 278.055 1001.74 228.026 913.744C221.347 901.998 215.982 889.678 210.145 877.511C205.132 867.061 200.862 856.586 198.439 845.209C193.931 824.026 195.261 801.913 200.981 781.096C213.515 735.491 245.792 698.133 286.568 675.08C389.63 616.814 511.799 647.368 622.058 660.309C681.437 667.279 742.099 669.238 800.046 652.233C858.713 635.018 911.25 602.756 963.693 572.231C1013.53 543.222 1065.01 514.75 1121.81 502.205C1171.17 491.305 1225.91 492.28 1271.22 516.888C1311.38 538.7 1344.09 578.836 1348.97 625.269C1351.68 651.04 1344.27 676.009 1339.47 701.062C1336.85 714.704 1335.03 728.633 1336.34 742.533C1337.6 755.909 1341.72 768.809 1347.75 780.778C1359.98 804.997 1379 825.059 1397.03 845C1397.63 845.667 1396.5 846.503 1395.9 845.837C1378.54 826.639 1360.45 807.407 1348.1 784.449C1335.98 761.928 1332.48 737.797 1336.09 712.603C1339.78 686.778 1348.67 661.541 1348.19 635.21C1347.75 610.824 1339.12 587.205 1325.4 567.194C1296.36 524.844 1248.46 501.658 1198.05 497.658C1142.72 493.267 1088.29 509.734 1038.8 533.224C985.18 558.669 935.905 592.105 883.216 619.292C857.299 632.664 830.496 644.574 802.519 652.956C775.874 660.937 748.395 665.246 720.626 666.499C605.113 671.719 491.305 628.088 375.849 646.555C324.227 654.812 272.33 676.086 237.522 716.401C208.184 750.38 190.87 797.045 199.235 842.009C201.388 853.585 205.384 864.412 210.486 874.985C216.878 888.224 222.677 901.676 230.031 914.433C242.617 936.262 258.128 956.4 275.852 974.301C311.816 1010.63 356.913 1037.99 405.929 1052.59C454.926 1067.19 505.321 1066.48 555.263 1057.44C603.525 1048.7 650.387 1033.83 698.342 1023.7C746.825 1013.46 796.439 1008.92 845.198 1020.08C898.065 1032.18 945.987 1058.8 992.783 1085.29C1040.84 1112.5 1089.06 1140.22 1142.49 1155.51C1196.17 1170.87 1254.31 1174.52 1308.3 1158.56C1360.76 1143.04 1409.47 1109.45 1436.03 1060.77C1459.91 1017 1465.49 962.104 1445.9 915.684C1434.64 889.008 1415.09 867.078 1395.9 845.835C1395.3 845.169 1396.43 844.334 1397.03 845Z" fill="url(#paint5_linear_1226_2273)"/>
<path d="M1375.79 835.399C1394.56 856.174 1413.6 877.641 1424.48 903.794C1433.32 925.07 1436.73 948.401 1435.41 971.354C1432.56 1020.7 1408 1065.91 1370.12 1097.25C1329.39 1130.95 1276.99 1147.88 1224.5 1148.96C1171.69 1150.06 1119.69 1136.2 1071.94 1114.3C1021.78 1091.29 975.645 1060.63 926.174 1036.28C901.458 1024.11 875.814 1013.5 849.032 1006.83C823.917 1000.57 798.171 998.186 772.33 999.365C675.876 1003.77 585.926 1051.16 488.633 1048.08C390.738 1044.98 297.161 986.518 248.935 901.689C242.497 890.366 237.324 878.488 231.695 866.757C226.861 856.681 222.745 846.583 220.412 835.615C216.065 815.192 217.347 793.871 222.864 773.803C234.947 729.84 266.062 693.825 305.373 671.603C404.722 615.434 522.489 644.885 628.777 657.358C686.01 664.077 744.477 665.965 800.331 649.574C856.879 632.98 907.52 601.884 958.069 572.462C1006.11 544.497 1055.73 517.051 1110.5 504.958C1158.08 494.45 1210.85 495.389 1254.53 519.112C1293.25 540.142 1324.78 578.835 1329.49 623.603C1332.1 648.447 1324.95 672.517 1320.33 696.667C1317.81 709.815 1316.05 723.24 1317.31 736.638C1318.53 749.529 1322.49 761.96 1328.31 773.498C1340.08 796.843 1358.41 816.177 1375.79 835.399C1376.4 836.066 1375.27 836.902 1374.67 836.236C1357.93 817.729 1340.5 799.188 1328.59 777.057C1316.91 755.343 1313.53 732.08 1317.01 707.79C1320.57 682.899 1329.14 658.574 1328.67 633.195C1328.25 609.693 1319.93 586.929 1306.71 567.644C1278.73 526.831 1232.56 504.483 1183.97 500.628C1130.64 496.396 1078.18 512.27 1030.47 534.908C978.793 559.434 931.297 591.666 880.508 617.867C855.523 630.757 829.689 642.237 802.723 650.315C777.038 658.009 750.547 662.16 723.78 663.372C612.436 668.406 502.731 626.347 391.443 644.149C341.689 652.106 291.672 672.611 258.124 711.466C229.848 744.212 213.162 789.187 221.223 832.523C223.299 843.679 227.148 854.114 232.066 864.301C238.226 877.059 243.815 890.027 250.901 902.319C263.032 923.358 277.982 942.769 295.063 960.024C329.727 995.037 373.195 1021.41 420.442 1035.49C467.666 1049.56 516.239 1048.88 564.376 1040.16C610.898 1031.74 656.065 1017.4 702.294 1007.63C749.03 997.761 796.854 993.394 843.856 1004.15C894.817 1015.82 941.013 1041.48 986.123 1067.01C1032.45 1093.23 1078.93 1119.95 1130.43 1134.69C1182.16 1149.5 1238.21 1153.02 1290.24 1137.63C1340.8 1122.68 1387.75 1090.3 1413.34 1043.39C1436.36 1001.2 1441.74 948.295 1422.85 903.558C1412 877.846 1393.16 856.708 1374.67 836.236C1374.07 835.566 1375.19 834.731 1375.79 835.399Z" fill="url(#paint6_linear_1226_2273)"/>
<path d="M1354.57 825.796C1372.63 845.795 1390.96 866.462 1401.43 891.636C1409.95 912.12 1413.23 934.581 1411.95 956.677C1409.21 1004.18 1385.57 1047.71 1349.1 1077.88C1309.9 1110.32 1259.45 1126.62 1208.92 1127.66C1158.08 1128.71 1108.02 1115.37 1062.06 1094.29C1013.77 1072.15 969.363 1042.63 921.745 1019.2C897.956 1007.49 873.276 997.27 847.497 990.85C823.325 984.829 798.542 982.53 773.671 983.666C680.825 987.906 594.24 1033.52 500.588 1030.56C406.351 1027.58 316.269 971.295 269.844 889.634C263.646 878.733 258.663 867.296 253.246 856.004C248.592 846.305 244.633 836.581 242.384 826.021C238.199 806.358 239.435 785.83 244.746 766.51C256.38 724.19 286.332 689.519 324.176 668.123C419.812 614.053 533.175 642.399 635.491 654.408C690.577 660.875 746.853 662.692 800.61 646.918C855.04 630.946 903.781 601.013 952.436 572.695C998.686 545.775 1046.45 519.354 1099.17 507.711C1144.98 497.596 1195.77 498.502 1237.82 521.339C1275.1 541.586 1305.46 578.836 1309.99 621.94C1312.5 645.856 1305.63 669.027 1301.17 692.277C1298.75 704.932 1297.06 717.852 1298.27 730.744C1299.44 743.151 1303.26 755.114 1308.86 766.217C1320.19 788.685 1337.84 807.296 1354.57 825.796C1355.17 826.463 1354.04 827.298 1353.44 826.633C1337.33 808.818 1320.54 790.969 1309.08 769.664C1297.83 748.76 1294.58 726.361 1297.93 702.977C1301.36 679.023 1309.6 655.607 1309.16 631.182C1308.75 608.566 1300.75 586.659 1288.02 568.099C1261.09 528.819 1216.66 507.312 1169.9 503.601C1118.57 499.529 1068.08 514.806 1022.16 536.597C972.413 560.205 926.695 591.229 877.806 616.453C853.757 628.859 828.891 639.911 802.933 647.687C778.207 655.093 752.707 659.092 726.937 660.256C619.762 665.1 514.164 624.618 407.04 641.751C359.158 649.409 311.016 669.144 278.73 706.538C251.516 738.055 235.457 781.337 243.215 823.045C245.213 833.78 248.918 843.825 253.653 853.626C259.581 865.905 264.961 878.385 271.781 890.213C283.457 910.463 297.845 929.143 314.287 945.753C347.651 979.456 389.491 1004.84 434.967 1018.39C480.42 1031.93 527.169 1031.27 573.499 1022.88C618.277 1014.78 661.757 1000.97 706.253 991.574C751.241 982.071 797.279 977.866 842.523 988.221C891.579 999.45 936.05 1024.15 979.47 1048.73C1024.06 1073.97 1068.8 1099.69 1118.38 1113.88C1168.16 1128.13 1222.1 1131.51 1272.18 1116.7C1320.84 1102.32 1366.03 1071.15 1390.66 1026C1412.81 985.4 1418 934.483 1399.82 891.424C1389.37 866.677 1371.24 846.331 1353.44 826.627C1352.83 825.964 1353.96 825.128 1354.57 825.796Z" fill="url(#paint7_linear_1226_2273)"/>
<path d="M1333.33 816.192C1350.69 835.414 1368.31 855.279 1378.37 879.476C1386.56 899.168 1389.72 920.762 1388.49 942.003C1385.85 987.669 1363.13 1029.51 1328.07 1058.51C1290.39 1089.69 1241.9 1105.36 1193.33 1106.36C1144.46 1107.37 1096.34 1094.55 1052.16 1074.29C1005.76 1053 963.076 1024.64 917.308 1002.11C894.447 990.856 870.729 981.038 845.954 974.868C822.725 969.081 798.909 966.871 775.007 967.965C685.771 972.042 602.551 1015.88 512.538 1013.03C421.959 1010.17 335.373 956.069 290.749 877.579C284.791 867.1 280.001 856.106 274.794 845.252C270.32 835.928 266.513 826.58 264.351 816.429C260.328 797.526 261.517 777.792 266.624 759.216C277.808 718.536 306.596 685.21 342.973 664.646C434.895 612.673 543.856 639.916 642.203 651.459C695.142 657.671 749.226 659.422 800.887 644.263C853.198 628.913 900.04 600.148 946.801 572.929C991.258 547.052 1037.17 521.658 1087.84 510.468C1131.87 500.745 1180.7 501.616 1221.12 523.566C1256.95 543.031 1286.14 578.84 1290.5 620.278C1292.91 643.267 1286.3 665.538 1282.02 687.885C1279.69 700.044 1278.07 712.46 1279.23 724.848C1280.36 736.771 1284.03 748.266 1289.41 758.934C1300.29 780.528 1317.25 798.414 1333.33 816.192C1333.94 816.86 1332.81 817.695 1332.2 817.029C1316.72 799.904 1300.59 782.748 1289.57 762.27C1278.76 742.176 1275.63 720.642 1278.85 698.164C1282.15 675.142 1290.07 652.642 1289.64 629.167C1289.25 607.434 1281.56 586.385 1269.34 568.549C1243.45 530.801 1200.76 510.136 1155.82 506.57C1106.49 502.656 1057.97 517.34 1013.84 538.282C966.032 560.971 922.091 590.79 875.105 615.031C851.99 626.956 828.091 637.577 803.142 645.05C779.377 652.169 754.863 656.013 730.094 657.132C627.086 661.788 525.594 622.88 422.638 639.348C376.623 646.708 330.362 665.671 299.335 701.605C273.185 731.892 257.754 773.48 265.207 813.561C267.128 823.876 270.688 833.527 275.236 842.948C280.933 854.747 286.102 866.739 292.656 878.106C303.876 897.565 317.702 915.519 333.504 931.48C365.568 963.87 405.778 988.267 449.483 1001.29C493.163 1014.3 538.091 1013.67 582.614 1005.6C625.653 997.814 667.439 984.544 710.206 975.512C753.446 966.378 797.698 962.336 841.182 972.29C888.334 983.084 931.075 1006.82 972.812 1030.44C1015.67 1054.7 1058.67 1079.42 1106.32 1093.06C1154.16 1106.76 1206 1110.01 1254.12 1095.78C1300.88 1081.96 1344.3 1052.01 1367.98 1008.62C1389.26 969.605 1394.24 920.674 1376.78 879.298C1366.74 855.515 1349.31 835.963 1332.21 817.027C1331.6 816.36 1332.73 815.525 1333.33 816.192Z" fill="url(#paint8_linear_1226_2273)"/>
<path d="M1312.1 806.59C1328.76 825.038 1345.66 844.1 1355.32 867.322C1363.18 886.222 1366.21 906.946 1365.03 927.333C1362.5 971.158 1340.68 1011.31 1307.04 1039.14C1270.88 1069.06 1224.35 1084.1 1177.74 1085.06C1130.84 1086.03 1084.67 1073.73 1042.27 1054.29C997.743 1033.87 956.789 1006.65 912.874 985.031C890.939 974.233 868.182 964.812 844.414 958.894C822.126 953.343 799.277 951.222 776.345 952.268C690.718 956.178 610.86 998.249 524.487 995.513C437.568 992.76 354.475 940.847 311.654 865.527C305.936 855.47 301.338 844.918 296.34 834.501C292.045 825.549 288.391 816.58 286.317 806.836C282.456 788.693 283.599 769.752 288.5 751.924C299.233 712.886 326.861 680.905 361.769 661.167C449.983 611.292 554.536 637.431 648.912 648.51C699.703 654.471 751.593 656.15 801.161 641.605C851.353 626.876 896.299 599.277 941.167 573.162C983.829 548.33 1027.89 523.962 1076.52 513.223C1118.77 503.894 1165.62 504.728 1204.41 525.793C1238.8 544.474 1266.82 578.842 1270.99 618.613C1273.31 640.675 1266.97 662.048 1262.86 683.492C1260.63 695.157 1259.07 707.068 1260.19 718.953C1261.27 730.391 1264.79 741.417 1269.95 751.654C1280.4 772.375 1296.67 789.531 1312.1 806.59C1312.7 807.257 1311.57 808.092 1310.97 807.427C1296.11 790.992 1280.63 774.528 1270.05 754.877C1259.68 735.591 1256.68 714.922 1259.77 693.35C1262.93 671.262 1270.53 649.674 1270.12 627.152C1269.75 606.301 1262.37 586.109 1250.64 569.001C1225.82 532.786 1184.85 512.962 1141.74 509.541C1094.41 505.785 1047.86 519.875 1005.52 539.969C959.647 561.74 917.482 590.353 872.396 613.613C850.218 625.054 827.284 635.247 803.346 642.419C780.537 649.252 757.017 652.941 733.248 654.015C634.408 658.485 537.022 621.15 438.234 636.951C394.09 644.011 349.706 662.203 319.939 696.678C294.85 725.734 280.047 765.63 287.198 804.083C289.039 813.98 292.456 823.238 296.819 832.272C302.285 843.591 307.243 855.095 313.53 866.001C324.295 884.671 337.56 901.898 352.72 917.212C383.486 948.29 422.066 971.697 463.998 984.192C505.907 996.68 549.011 996.068 591.729 988.333C633.028 980.857 673.124 968.124 714.156 959.457C755.648 950.693 798.112 946.816 839.843 956.366C885.089 966.723 926.103 989.497 966.152 1012.17C1007.27 1035.45 1048.54 1059.17 1094.25 1072.25C1140.15 1085.39 1189.89 1088.51 1236.05 1074.86C1280.91 1061.59 1322.58 1032.87 1345.29 991.24C1365.71 953.808 1370.49 906.868 1353.73 867.172C1344.1 844.355 1327.38 825.596 1310.97 807.429C1310.36 806.758 1311.49 805.924 1312.1 806.59Z" fill="url(#paint9_linear_1226_2273)"/>
<path d="M1290.86 796.987C1306.83 814.66 1323.02 832.918 1332.27 855.164C1339.8 873.272 1342.7 893.127 1341.57 912.661C1339.15 954.647 1318.25 993.113 1286.02 1019.78C1251.38 1048.44 1206.8 1062.84 1162.15 1063.77C1117.23 1064.7 1073 1052.91 1032.38 1034.28C989.734 1014.72 950.506 988.653 908.443 967.948C887.436 957.607 865.642 948.582 842.877 942.912C821.534 937.597 799.648 935.564 777.686 936.567C695.667 940.312 619.176 980.61 536.441 977.989C453.178 975.351 373.583 925.622 332.563 853.474C327.082 843.838 322.68 833.73 317.891 823.751C313.777 815.174 310.277 806.582 308.292 797.246C304.592 779.863 305.687 761.714 310.384 744.635C320.668 707.24 347.135 676.6 380.574 657.692C465.074 609.915 565.226 634.951 655.63 645.561C704.274 651.271 753.971 652.881 801.444 638.95C849.516 624.843 892.566 598.41 935.538 573.396C976.406 549.608 1018.61 526.267 1065.19 515.981C1105.67 507.043 1150.55 507.844 1187.71 528.023C1220.66 545.922 1247.5 578.848 1251.5 616.953C1253.73 638.085 1247.65 658.559 1243.72 679.104C1241.57 690.274 1240.08 701.68 1241.15 713.061C1242.19 724.015 1245.56 734.575 1250.5 744.375C1260.51 764.216 1276.09 780.649 1290.86 796.987C1291.47 797.654 1290.34 798.49 1289.74 797.824C1275.5 782.08 1260.67 766.31 1250.55 747.484C1240.61 729.006 1237.73 709.205 1240.69 688.537C1243.72 667.384 1251 646.707 1250.61 625.139C1250.25 605.174 1243.19 585.838 1231.96 569.456C1208.18 534.774 1168.95 515.791 1127.67 512.515C1082.34 508.918 1037.76 522.415 997.209 541.658C953.267 562.513 912.882 589.916 869.698 612.196C848.454 623.156 826.487 632.917 803.559 639.785C781.709 646.33 759.179 649.863 736.409 650.893C641.738 655.173 548.457 619.411 453.833 634.549C411.558 641.309 369.053 658.731 340.546 691.746C316.521 719.571 302.344 757.776 309.192 794.601C310.954 804.077 314.228 812.941 318.405 821.595C323.64 832.435 328.387 843.454 334.409 853.896C344.718 871.776 357.422 888.275 371.939 902.94C401.406 932.708 438.356 955.124 478.521 967.091C518.656 979.05 559.939 978.462 600.848 971.057C640.405 963.896 678.81 951.701 718.113 943.397C757.858 935.001 798.535 931.288 838.506 940.437C881.846 950.357 921.134 972.172 959.497 993.89C998.884 1016.18 1038.41 1038.9 1082.2 1051.44C1126.15 1064.02 1173.78 1067.01 1218 1053.94C1260.96 1041.23 1300.86 1013.72 1322.61 973.862C1342.17 938.016 1346.75 893.065 1330.7 855.047C1321.48 833.196 1305.46 815.228 1289.74 797.829C1289.13 797.154 1290.26 796.319 1290.86 796.987Z" fill="url(#paint10_linear_1226_2273)"/>
<path d="M1269.63 787.382C1284.89 804.277 1300.37 821.737 1309.22 843.003C1316.42 860.32 1319.19 879.306 1318.11 897.985C1315.79 938.13 1295.81 974.909 1265 1000.4C1231.87 1027.81 1189.25 1041.58 1146.57 1042.46C1103.62 1043.35 1061.33 1032.08 1022.5 1014.28C981.723 995.578 944.222 970.656 904.012 950.863C883.931 940.978 863.1 932.352 841.34 926.932C820.938 921.852 800.021 919.906 779.026 920.866C700.614 924.446 627.49 962.97 548.393 960.465C468.788 957.944 392.688 910.398 353.471 841.419C348.232 832.204 344.021 822.539 339.441 812.995C335.508 804.794 332.162 796.575 330.261 787.65C326.723 771.027 327.772 753.672 332.264 737.34C342.097 701.584 367.401 672.29 399.372 654.213C480.16 608.534 575.906 632.465 662.339 642.611C708.837 648.07 756.344 649.608 801.718 636.294C847.669 622.81 888.821 597.541 929.903 573.63C968.976 550.888 1009.33 528.571 1053.86 518.736C1092.56 510.191 1135.48 510.959 1171 530.251C1202.51 547.368 1228.18 578.851 1232.01 615.29C1234.13 635.495 1228.32 655.069 1224.56 674.712C1222.52 685.39 1221.09 696.29 1222.11 707.167C1223.1 717.637 1226.32 727.728 1231.05 737.095C1240.61 756.06 1255.51 771.768 1269.63 787.382C1270.24 788.049 1269.11 788.884 1268.51 788.219C1254.89 773.166 1240.72 758.087 1231.03 740.086C1221.53 722.417 1218.78 703.482 1221.61 683.718C1224.51 663.497 1231.47 643.735 1231.09 623.118C1230.75 604.037 1224 585.556 1213.27 569.899C1190.54 536.751 1153.05 518.608 1113.59 515.477C1070.26 512.04 1027.64 524.942 988.89 543.334C946.882 563.27 908.275 589.468 866.991 610.767C846.684 621.244 825.684 630.578 803.765 637.143C782.875 643.402 761.335 646.781 739.563 647.764C649.058 651.855 559.886 617.669 469.429 632.138C429.024 638.602 388.397 655.251 361.15 686.807C338.187 713.402 324.637 749.914 331.182 785.11C332.867 794.166 335.994 802.638 339.988 810.907C344.992 821.268 349.528 831.798 355.283 841.78C365.135 858.872 377.28 874.641 391.155 888.66C419.322 917.114 454.642 938.543 493.036 949.983C531.401 961.415 570.86 960.849 609.964 953.772C647.778 946.928 684.493 935.27 722.065 927.332C760.062 919.305 798.952 915.754 837.166 924.501C878.603 933.985 916.16 954.838 952.836 975.602C990.488 996.917 1028.27 1018.63 1070.14 1030.62C1112.15 1042.64 1157.68 1045.5 1199.93 1033.01C1240.99 1020.86 1279.14 994.573 1299.92 956.472C1318.61 922.21 1322.99 879.249 1307.65 842.912C1298.84 822.024 1283.53 804.851 1268.51 788.219C1267.9 787.551 1269.03 786.716 1269.63 787.382Z" fill="url(#paint11_linear_1226_2273)"/>
<path d="M1248.4 777.779C1262.96 793.899 1277.73 810.554 1286.16 830.849C1293.04 847.371 1295.68 865.49 1294.65 883.313C1292.44 921.616 1273.37 956.711 1243.97 981.037C1212.37 1007.18 1171.71 1020.33 1130.98 1021.16C1090 1022.01 1049.66 1011.27 1012.61 994.274C973.712 976.436 937.938 952.664 899.578 933.78C880.426 924.352 860.556 916.124 839.801 910.954C820.342 906.108 800.389 904.253 780.365 905.169C705.56 908.584 635.801 945.333 560.347 942.943C484.401 940.538 411.795 895.175 374.377 829.367C369.379 820.573 365.359 811.351 360.99 802.245C357.237 794.42 354.044 786.576 352.231 778.058C348.855 762.195 349.858 745.634 354.143 730.049C363.525 695.935 387.669 667.986 418.173 650.736C495.248 607.152 586.592 629.983 669.053 639.661C713.402 644.867 758.715 646.335 801.998 633.635C845.832 620.775 885.085 596.67 924.271 573.861C961.549 552.163 1000.05 530.872 1042.54 521.489C1079.46 513.337 1120.41 514.07 1154.3 532.475C1184.37 548.808 1208.86 578.851 1212.52 613.624C1214.54 632.901 1209 651.578 1205.41 670.318C1203.46 680.5 1202.1 690.896 1203.08 701.271C1204.02 711.257 1207.09 720.88 1211.6 729.811C1220.72 747.904 1234.93 762.886 1248.4 777.779C1249 778.446 1247.87 779.282 1247.27 778.616C1234.28 764.254 1220.76 749.869 1211.52 732.693C1202.45 715.834 1199.83 697.762 1202.53 678.903C1205.29 659.618 1211.93 640.767 1211.58 621.104C1211.25 602.909 1204.81 585.283 1194.58 570.35C1172.9 538.735 1137.15 521.433 1099.51 518.447C1058.18 515.167 1017.53 527.475 980.567 545.018C940.495 564.036 903.664 589.028 864.284 609.345C844.911 619.34 824.879 628.241 803.967 634.506C784.036 640.476 763.484 643.701 742.715 644.641C656.381 648.544 571.311 615.932 485.02 629.735C446.486 635.9 407.735 651.777 381.748 681.874C359.85 707.238 346.925 742.059 353.167 775.626C354.774 784.262 357.759 792.342 361.567 800.228C366.338 810.107 370.667 820.151 376.153 829.67C385.549 845.972 397.132 861.015 410.367 874.384C437.236 901.527 470.926 921.965 507.549 932.877C544.141 943.779 581.777 943.241 619.075 936.489C655.149 929.959 690.171 918.836 726.014 911.265C762.265 903.61 799.366 900.222 835.822 908.565C875.353 917.612 911.184 937.506 946.174 957.314C982.093 977.647 1018.13 998.364 1058.07 1009.79C1098.14 1021.26 1141.56 1023.99 1181.86 1012.07C1221.03 1000.49 1257.41 975.42 1277.23 939.081C1295.06 906.405 1299.24 865.431 1284.61 830.777C1276.2 810.853 1261.59 794.475 1247.26 778.611C1246.67 777.948 1247.8 777.113 1248.4 777.779Z" fill="url(#paint12_linear_1226_2273)"/>
<path d="M1227.16 768.178C1241.02 783.522 1255.08 799.377 1263.11 818.692C1269.65 834.423 1272.17 851.672 1271.19 868.64C1269.08 905.103 1250.93 938.513 1222.94 961.669C1192.86 986.554 1154.16 999.066 1115.39 999.867C1076.38 1000.67 1037.98 990.446 1002.71 974.275C965.697 957.297 931.649 934.671 895.144 916.701C876.92 907.731 858.008 899.898 838.26 894.98C819.744 890.368 800.757 888.604 781.703 889.472C710.508 892.724 644.114 927.698 572.297 925.422C500.009 923.135 430.897 879.953 395.284 817.316C390.526 808.945 386.699 800.165 382.54 791.496C378.965 784.046 375.928 776.58 374.201 768.467C370.987 753.364 371.944 737.597 376.023 722.76C384.954 690.288 407.935 663.682 436.971 647.263C510.334 605.777 597.275 627.504 675.767 636.716C717.969 641.671 761.09 643.07 802.276 630.984C843.991 618.745 881.349 595.806 918.64 574.101C954.126 553.446 990.767 533.181 1031.21 524.251C1066.35 516.491 1105.34 517.188 1137.6 534.708C1166.23 550.258 1189.55 578.861 1193.03 611.967C1194.96 630.319 1189.68 648.092 1186.27 665.933C1184.41 675.62 1183.11 685.512 1184.04 695.383C1184.94 704.884 1187.86 714.037 1192.15 722.538C1200.82 739.749 1214.35 754.007 1227.16 768.178C1227.77 768.845 1226.64 769.68 1226.04 769.015C1213.68 755.344 1200.8 741.648 1192.01 725.301C1183.38 709.252 1180.88 692.045 1183.45 674.092C1186.08 655.743 1192.4 637.802 1192.06 619.09C1191.75 601.777 1185.63 585.01 1175.89 570.804C1155.26 540.723 1121.24 524.262 1085.44 521.421C1046.11 518.3 1007.43 530.012 972.254 546.707C934.116 564.806 899.064 588.591 861.583 607.93C843.147 617.441 824.08 625.913 804.18 631.875C785.21 637.559 765.647 640.63 745.876 641.523C663.709 645.238 582.747 614.201 500.623 627.336C463.958 633.2 427.085 648.31 402.36 676.945C381.521 701.079 369.226 734.208 375.165 766.147C376.693 774.364 379.532 782.05 383.156 789.552C387.695 798.952 391.812 808.51 397.033 817.566C405.976 833.076 416.997 847.392 429.59 860.115C455.159 885.944 487.222 905.397 522.071 915.78C556.892 926.155 592.705 925.639 628.196 919.214C662.528 912.999 695.859 902.414 729.972 895.209C764.476 887.921 799.789 884.697 834.488 892.641C872.113 901.252 906.217 920.187 939.522 939.038C973.707 958.389 1008.01 978.105 1046.02 988.987C1084.14 999.9 1125.46 1002.5 1163.81 991.154C1201.07 980.136 1235.69 956.28 1254.55 921.705C1271.52 890.611 1275.49 851.628 1261.57 818.652C1253.57 799.694 1239.67 784.106 1226.04 769.011C1225.43 768.345 1226.56 767.512 1227.16 768.178Z" fill="url(#paint13_linear_1226_2273)"/>
<path d="M1205.93 758.573C1219.09 773.139 1232.43 788.195 1240.06 806.531C1246.27 821.471 1248.66 837.849 1247.73 853.964C1245.73 888.587 1228.49 920.311 1201.92 942.296C1173.36 965.922 1136.61 977.803 1099.8 978.565C1062.77 979.331 1026.31 969.622 992.824 954.267C957.683 938.152 925.365 916.673 890.71 899.612C873.412 891.098 855.465 883.662 836.72 878.996C819.145 874.62 801.127 872.943 783.041 873.769C715.454 876.856 652.425 910.055 584.249 907.897C515.621 905.724 450.002 864.727 416.192 805.259C411.674 797.31 408.038 788.975 404.088 780.741C400.693 773.665 397.809 766.576 396.169 758.872C393.116 744.529 394.023 729.556 397.903 715.464C406.384 684.634 428.203 659.372 455.771 643.78C525.42 604.392 607.958 625.015 682.478 633.763C722.535 638.464 763.46 639.794 802.552 628.324C842.148 616.707 877.609 594.933 913.005 574.33C946.695 554.721 981.483 535.481 1019.89 527.002C1053.25 519.635 1090.26 520.298 1120.89 536.933C1148.08 551.701 1170.23 578.86 1173.53 610.3C1175.36 627.724 1170.36 644.6 1167.11 661.538C1165.35 670.731 1164.12 680.117 1165 689.484C1165.85 698.498 1168.63 707.186 1172.69 715.252C1180.93 731.593 1193.77 745.125 1205.93 758.573C1206.54 759.24 1205.41 760.075 1204.81 759.41C1193.07 746.43 1180.85 733.427 1172.5 717.906C1164.3 702.664 1161.93 686.326 1164.37 669.278C1166.87 651.861 1172.87 634.833 1172.55 617.075C1172.25 600.646 1166.44 584.735 1157.2 571.255C1137.63 542.706 1105.34 527.087 1071.36 524.391C1034.03 521.429 997.322 532.549 963.936 548.392C927.732 565.574 894.458 588.153 858.879 606.509C841.378 615.54 823.28 623.582 804.387 629.24C786.375 634.635 767.803 637.55 749.03 638.4C671.031 641.924 594.174 612.463 516.216 624.933C481.422 630.498 446.425 644.837 422.962 672.01C403.187 694.912 391.518 726.351 397.154 756.661C398.604 764.458 401.301 771.751 404.737 778.869C409.044 787.791 412.952 796.859 417.906 805.453C426.392 820.176 436.851 833.762 448.804 845.839C473.074 870.359 503.506 888.82 536.587 898.678C569.635 908.523 603.627 908.032 637.312 901.936C669.903 896.036 701.545 885.987 733.926 879.147C766.682 872.229 800.207 869.17 833.15 876.708C868.872 884.884 901.245 902.856 932.864 920.756C965.315 939.126 997.879 957.841 1033.96 968.169C1070.14 978.526 1109.36 980.988 1145.75 970.228C1181.11 959.773 1213.97 937.134 1231.87 904.321C1247.97 874.814 1251.74 837.817 1238.53 806.524C1230.94 788.532 1217.75 773.737 1204.8 759.41C1204.2 758.742 1205.33 757.907 1205.93 758.573Z" fill="url(#paint14_linear_1226_2273)"/>
<path d="M1184.7 748.971C1197.15 762.762 1209.79 777.015 1217.01 794.378C1222.89 808.524 1225.15 824.035 1224.27 839.295C1222.38 872.079 1206.05 902.116 1180.89 922.935C1153.85 945.303 1119.06 956.551 1084.21 957.271C1049.15 957.995 1014.63 948.806 982.932 934.268C949.669 919.014 919.079 898.683 886.274 882.536C869.905 874.479 852.919 867.441 835.181 863.023C818.548 858.881 801.495 857.294 784.378 858.075C720.398 860.997 660.736 892.423 596.198 890.38C531.226 888.322 469.105 849.509 437.096 793.213C432.818 785.687 429.374 777.794 425.635 769.998C422.42 763.298 419.69 756.581 418.139 749.289C415.247 735.706 416.108 721.526 419.782 708.182C427.813 678.992 448.469 655.075 474.571 640.312C540.509 603.02 618.643 622.541 689.192 630.821C727.099 635.269 765.836 636.529 802.831 625.674C840.308 614.678 873.869 594.071 907.373 574.569C939.27 556.003 972.204 537.791 1008.56 529.763C1040.15 522.787 1075.19 523.419 1104.19 539.164C1129.94 553.149 1150.91 578.868 1154.03 608.641C1155.77 625.137 1151.03 641.115 1147.96 657.151C1146.29 665.848 1145.13 674.73 1145.96 683.593C1146.77 692.123 1149.39 700.341 1153.24 707.974C1161.04 723.436 1173.19 736.243 1184.7 748.971C1185.3 749.638 1184.17 750.473 1183.57 749.808C1172.46 737.519 1160.89 725.21 1152.99 710.514C1145.22 696.081 1142.98 680.607 1145.29 664.464C1147.65 647.982 1153.33 631.868 1153.03 615.061C1152.75 599.518 1147.25 584.463 1138.51 571.707C1119.99 544.691 1089.44 529.913 1057.28 527.362C1021.95 524.559 987.21 535.085 955.614 550.079C921.345 566.342 889.851 587.714 856.171 605.092C839.606 613.639 822.473 621.252 804.591 626.609C787.539 631.718 769.957 634.479 752.184 635.283C678.352 638.62 605.604 610.732 531.813 622.536C498.885 627.803 465.77 641.369 443.566 667.083C424.854 688.757 413.811 718.502 419.145 747.183C420.517 754.559 423.068 761.461 426.321 768.197C430.396 776.64 434.094 785.22 438.781 793.353C446.813 807.284 456.709 820.145 468.02 831.572C490.99 854.778 519.793 872.253 551.104 881.58C582.379 890.9 614.548 890.432 646.427 884.66C677.277 879.075 707.227 869.565 737.878 863.091C768.885 856.542 800.625 853.646 831.808 860.783C865.624 868.522 896.272 885.535 926.205 902.478C956.922 919.867 987.745 937.582 1021.9 947.36C1056.14 957.16 1093.25 959.491 1127.68 949.307C1161.14 939.412 1192.24 917.995 1209.18 886.942C1224.42 859.018 1227.99 824.014 1215.49 794.399C1208.3 777.371 1195.81 763.371 1183.57 749.812C1182.97 749.14 1184.1 748.305 1184.7 748.971Z" fill="url(#paint15_linear_1226_2273)"/>
<path d="M1163.46 739.367C1175.22 752.383 1187.14 765.834 1193.95 782.219C1199.51 795.574 1201.64 810.216 1200.81 824.622C1199.02 855.566 1183.61 883.916 1159.86 903.567C1134.35 924.675 1101.51 935.291 1068.63 935.971C1035.53 936.657 1002.96 927.983 973.041 914.264C941.656 899.87 912.791 880.687 881.839 865.451C866.396 857.85 850.373 851.211 833.639 847.043C817.95 843.134 801.86 841.637 785.717 842.374C725.345 845.131 669.05 874.783 608.15 872.855C546.837 870.914 488.21 834.285 458.002 781.156C453.962 774.051 450.713 766.602 447.181 759.242C444.145 752.916 441.571 746.578 440.104 739.693C437.375 726.87 438.189 713.484 441.658 700.887C449.237 673.339 468.734 650.764 493.365 636.833C555.592 601.64 629.32 620.056 695.898 627.871C731.658 632.068 768.202 633.259 803.102 623.018C838.459 612.643 870.124 593.202 901.732 574.806C931.834 557.286 962.915 540.098 997.225 532.521C1027.03 525.938 1060.11 526.532 1087.47 541.395C1111.78 554.596 1131.58 578.873 1134.53 606.982C1136.17 622.552 1131.7 637.631 1128.8 652.762C1127.23 660.967 1126.12 669.343 1126.91 677.701C1127.68 685.747 1130.15 693.5 1133.78 700.698C1141.14 715.281 1152.61 727.363 1163.46 739.367C1164.07 740.035 1162.94 740.87 1162.34 740.204C1151.85 728.606 1140.93 716.989 1133.47 703.12C1126.15 689.498 1124.03 674.887 1126.21 659.651C1128.43 644.103 1133.79 628.9 1133.51 613.048C1133.25 598.389 1128.07 584.188 1119.82 572.16C1102.34 546.678 1073.53 532.74 1043.2 530.334C1009.88 527.69 977.101 537.621 947.297 551.766C914.962 567.11 885.245 587.277 853.468 603.672C837.837 611.738 821.672 618.92 804.799 623.973C788.707 628.794 772.113 631.4 755.341 632.159C685.679 635.308 617.034 608.994 547.407 620.131C516.351 625.1 485.112 637.895 464.169 662.149C446.519 682.59 436.103 710.646 441.134 737.698C442.428 744.654 444.835 751.161 447.902 757.515C451.746 765.478 455.233 773.572 459.655 781.242C467.229 794.386 476.567 806.516 487.237 817.295C508.909 839.189 536.081 855.673 565.62 864.475C595.121 873.266 625.47 872.823 655.542 867.382C684.649 862.114 712.909 853.14 741.831 847.029C771.091 840.848 801.043 838.116 830.469 844.85C862.381 852.153 891.3 868.206 919.546 884.195C948.528 900.6 977.611 917.318 1009.84 926.543C1042.13 935.787 1077.14 937.987 1109.62 928.381C1141.18 919.048 1170.52 898.848 1186.5 869.558C1200.87 843.221 1204.24 810.204 1192.45 782.269C1185.67 766.206 1173.89 752.997 1162.34 740.207C1161.73 739.537 1162.86 738.702 1163.46 739.367Z" fill="url(#paint16_linear_1226_2273)"/>
<path d="M1142.23 729.765C1153.29 742.007 1164.49 754.654 1170.9 770.061C1176.13 782.624 1178.13 796.396 1177.35 809.946C1175.67 839.051 1161.17 865.714 1138.83 884.195C1114.84 904.046 1083.96 914.031 1053.04 914.671C1021.92 915.315 991.286 907.164 963.151 894.259C933.642 880.727 906.506 862.69 877.407 848.366C862.892 841.223 847.83 834.981 832.099 831.061C817.351 827.388 802.229 825.978 787.053 826.672C730.289 829.263 677.359 857.141 620.101 855.328C562.446 853.503 507.315 819.057 478.907 769.1C475.107 762.417 472.051 755.41 468.731 748.486C465.875 742.536 463.454 736.573 462.075 730.095C459.507 718.033 460.276 705.44 463.536 693.588C470.666 667.684 488.999 646.451 512.164 633.348C570.678 600.254 640.003 617.566 702.612 624.915C736.226 628.861 770.575 629.98 803.381 620.356C836.621 610.604 866.387 592.327 896.099 575.033C924.408 558.556 953.634 542.395 985.9 535.269C1013.93 529.08 1045.04 529.639 1070.77 543.615C1093.64 556.034 1112.26 578.868 1115.04 605.313C1116.58 619.954 1112.38 634.132 1109.65 648.366C1108.17 656.076 1107.14 663.947 1107.88 671.804C1108.59 679.365 1110.92 686.649 1114.33 693.413C1121.25 707.124 1132.03 718.48 1142.23 729.765C1142.83 730.432 1141.7 731.267 1141.1 730.602C1131.24 719.695 1120.98 708.771 1113.96 695.727C1107.07 682.913 1105.08 669.169 1107.13 654.836C1109.22 640.221 1114.26 625.932 1113.99 611.031C1113.75 597.254 1108.88 583.913 1101.13 572.609C1084.71 548.661 1057.63 535.564 1029.12 533.302C997.8 530.816 966.995 540.153 938.976 553.449C908.574 567.876 880.636 586.836 850.762 602.248C836.065 609.829 820.869 616.585 805.005 621.336C789.871 625.868 774.268 628.323 758.494 629.034C693 631.995 628.462 607.256 563.003 617.726C533.816 622.394 504.456 634.419 484.773 657.214C468.185 676.425 458.397 702.788 463.125 728.212C464.341 734.748 466.603 740.865 469.485 746.835C473.096 754.317 476.372 761.923 480.53 769.134C487.651 781.485 496.425 792.891 506.453 803.023C526.825 823.608 552.368 839.101 580.138 847.377C607.868 855.641 636.395 855.222 664.658 850.106C692.024 845.153 718.594 836.715 745.783 830.972C773.295 825.161 801.46 822.593 829.128 828.924C859.134 835.79 886.327 850.884 912.886 865.917C940.134 881.342 967.478 897.059 997.774 905.729C1028.13 914.418 1061.03 916.483 1091.56 907.457C1121.22 898.687 1148.8 879.704 1163.81 852.177C1177.32 827.424 1180.49 796.395 1169.41 770.141C1163.03 755.042 1151.96 742.628 1141.1 730.606C1140.5 729.932 1141.63 729.097 1142.23 729.765Z" fill="url(#paint17_linear_1226_2273)"/>
<path d="M1121 720.163C1131.35 731.627 1141.85 743.474 1147.85 757.907C1152.75 769.677 1154.62 782.581 1153.89 795.277C1152.32 822.541 1138.74 847.519 1117.81 864.831C1095.34 883.423 1066.41 892.776 1037.45 893.377C1008.31 893.979 979.615 886.347 953.261 874.262C925.633 861.592 900.223 844.703 872.971 831.291C859.383 824.603 845.284 818.756 830.558 815.091C816.753 811.652 802.596 810.332 788.391 810.982C735.236 813.41 685.671 839.513 632.051 837.815C578.056 836.105 526.418 803.843 499.814 757.056C496.254 750.796 493.39 744.231 490.28 737.745C487.607 732.169 485.336 726.583 484.045 720.513C481.639 709.21 482.362 697.411 485.416 686.306C492.095 662.043 509.267 642.156 530.963 629.882C585.765 598.883 650.683 615.096 709.322 621.978C740.789 625.673 772.946 626.723 803.657 617.711C834.778 608.58 862.649 591.469 890.467 575.278C916.98 559.846 944.353 544.711 974.575 538.037C1000.83 532.241 1029.96 532.767 1054.06 545.856C1075.49 557.493 1092.94 578.886 1095.54 603.664C1096.98 617.378 1093.05 630.657 1090.5 643.989C1089.12 651.203 1088.14 658.571 1088.84 665.923C1089.51 673.001 1091.68 679.816 1094.88 686.146C1101.35 698.969 1111.44 709.598 1121 720.163C1121.6 720.83 1120.47 721.665 1119.87 721C1110.63 710.784 1101.02 700.549 1094.45 688.332C1088 676.327 1086.13 663.449 1088.05 650.021C1090.01 636.341 1094.73 622.962 1094.48 609.013C1094.25 596.122 1089.69 583.638 1082.44 573.057C1067.07 550.641 1041.73 538.385 1015.05 536.267C985.727 533.94 956.888 542.682 930.66 555.129C902.193 568.638 876.034 586.39 848.059 600.824C834.297 607.924 820.068 614.249 805.215 618.698C791.041 622.945 776.427 625.241 761.654 625.911C700.326 628.684 639.896 605.52 578.604 615.324C551.287 619.693 523.804 630.947 505.381 652.283C489.857 670.263 480.694 694.935 485.121 718.728C486.257 724.846 488.377 730.566 491.074 736.153C494.454 743.156 497.52 750.274 501.408 757.022C508.074 768.583 516.287 779.262 525.674 788.746C544.747 808.017 568.659 822.523 594.66 830.269C620.617 838.003 647.322 837.611 673.778 832.82C699.403 828.182 724.28 820.281 749.742 814.903C775.506 809.461 801.884 807.056 827.797 812.985C855.895 819.417 881.361 833.548 906.236 847.629C931.75 862.071 957.353 876.789 985.722 884.91C1014.13 893.042 1044.93 894.976 1073.5 886.528C1101.27 878.318 1127.08 860.556 1141.13 834.789C1153.77 811.621 1156.75 782.581 1146.37 758.01C1140.4 743.874 1130.04 732.255 1119.87 721C1119.27 720.33 1120.39 719.495 1121 720.163Z" fill="url(#paint18_linear_1226_2273)"/>
<path d="M1099.77 710.559C1109.42 721.248 1119.21 732.294 1124.8 745.748C1129.37 756.724 1131.12 768.762 1130.43 780.602C1128.97 806.026 1116.3 829.318 1096.78 845.46C1075.84 862.792 1048.87 871.516 1021.87 872.073C994.694 872.634 967.943 865.52 943.374 854.255C917.624 842.445 893.938 826.705 868.542 814.204C855.882 807.974 842.744 802.525 829.025 799.107C816.161 795.904 802.971 794.673 789.736 795.275C740.189 797.539 693.989 821.867 644.009 820.285C593.672 818.692 545.53 788.614 520.728 744.996C517.408 739.158 514.737 733.035 511.835 726.985C509.342 721.785 507.227 716.574 506.021 710.915C503.777 700.372 504.451 689.365 507.302 679.01C513.531 656.386 529.539 637.844 549.771 626.401C600.861 597.5 661.377 612.61 716.044 619.024C745.362 622.466 775.328 623.448 803.943 615.05C832.945 606.541 858.915 590.596 884.841 575.507C909.562 561.118 935.079 547.009 963.257 540.788C987.735 535.383 1014.9 535.876 1037.37 548.078C1057.35 558.931 1073.63 578.883 1076.06 601.992C1077.4 614.778 1073.74 627.16 1071.36 639.587C1070.07 646.308 1069.16 653.169 1069.81 660.019C1070.43 666.612 1072.46 672.958 1075.44 678.855C1081.46 690.812 1090.87 700.717 1099.77 710.559C1100.37 711.226 1099.24 712.061 1098.64 711.396C1090.03 701.871 1081.07 692.33 1074.94 680.938C1068.92 669.741 1067.18 657.73 1068.97 645.207C1070.8 632.462 1075.19 619.994 1074.96 606.999C1074.75 594.992 1070.51 583.363 1063.75 573.511C1049.44 552.628 1025.83 541.214 1000.97 539.242C973.654 537.074 946.782 545.222 922.345 556.82C895.815 569.412 871.431 585.957 845.359 599.408C832.533 606.024 819.271 611.918 805.427 616.065C792.211 620.023 778.588 622.168 764.813 622.791C707.656 625.375 651.328 603.785 594.203 612.921C568.754 616.992 543.15 627.476 525.988 647.35C511.526 664.098 502.991 687.08 507.115 709.244C508.174 714.941 510.149 720.272 512.66 725.472C515.809 731.995 518.663 738.627 522.286 744.912C528.495 755.686 536.149 765.633 544.895 774.47C562.67 792.429 584.954 805.946 609.18 813.166C633.366 820.372 658.248 820.003 682.899 815.541C706.783 811.217 729.97 803.853 753.699 798.842C777.716 793.768 802.307 791.527 826.46 797.055C852.655 803.052 876.393 816.222 899.581 829.347C923.361 842.81 947.224 856.526 973.665 864.092C1000.13 871.666 1028.83 873.472 1055.45 865.599C1081.31 857.953 1105.36 841.405 1118.45 817.403C1130.23 795.819 1133 768.768 1123.33 745.875C1117.77 732.705 1108.11 721.877 1098.64 711.389C1098.03 710.726 1099.16 709.891 1099.77 710.559Z" fill="url(#paint19_linear_1226_2273)"/>
<path d="M1078.53 700.957C1087.49 710.87 1096.56 721.113 1101.75 733.59C1105.98 743.776 1107.61 754.943 1106.97 765.929C1105.61 789.512 1093.86 811.119 1075.76 826.093C1056.33 842.167 1031.32 850.258 1006.28 850.775C981.077 851.297 956.268 844.701 933.484 834.252C909.61 823.305 887.653 808.712 864.11 797.122C852.378 791.346 840.202 786.298 827.487 783.13C815.565 780.161 803.343 779.018 791.076 779.579C745.137 781.678 702.304 804.232 655.96 802.765C609.279 801.287 564.634 773.392 541.634 732.946C538.554 727.531 536.075 721.85 533.383 716.239C531.068 711.412 529.108 706.578 527.99 701.326C525.908 691.544 526.536 681.33 529.182 671.72C534.96 650.738 549.808 633.541 568.572 622.925C615.949 596.122 672.061 610.127 722.757 616.077C749.93 619.265 777.701 620.176 804.221 612.397C831.103 604.509 855.177 589.73 879.21 575.744C902.135 562.401 925.798 549.317 951.928 543.548C974.627 538.534 999.825 538.992 1020.66 550.312C1039.21 560.382 1054.31 578.893 1056.56 600.336C1057.81 612.194 1054.41 623.675 1052.2 635.205C1051.01 641.431 1050.17 647.789 1050.77 654.133C1051.34 660.24 1053.23 666.119 1055.98 671.585C1061.57 682.656 1070.28 691.835 1078.53 700.957C1079.14 701.624 1078.01 702.459 1077.41 701.794C1069.42 692.959 1061.11 684.112 1055.43 673.545C1049.85 663.158 1048.23 652.012 1049.9 640.395C1051.59 628.583 1055.66 617.03 1055.45 604.987C1055.25 593.866 1051.32 583.092 1045.07 573.965C1031.8 554.615 1009.93 544.041 986.898 542.214C961.579 540.206 936.674 547.759 914.028 558.508C889.433 570.182 866.826 585.522 842.655 597.993C830.764 604.127 818.47 609.591 805.635 613.437C793.38 617.108 780.744 619.097 767.972 619.676C714.981 622.072 662.763 602.056 609.802 610.528C586.224 614.3 562.497 624.012 546.595 642.427C533.195 657.946 525.287 679.234 529.108 699.77C530.089 705.047 531.92 709.983 534.246 714.804C537.164 720.848 539.808 726.992 543.166 732.814C548.919 742.798 556.01 752.017 564.114 760.207C580.588 776.852 601.243 789.382 623.7 796.072C646.113 802.749 669.172 802.407 692.017 798.269C714.158 794.262 735.655 787.435 757.655 782.788C779.924 778.083 802.727 776.006 825.123 781.132C849.412 786.692 871.423 798.902 892.924 811.074C914.971 823.554 937.094 836.269 961.605 843.287C986.126 850.306 1012.72 851.976 1037.38 844.684C1061.34 837.599 1083.64 822.27 1095.77 800.03C1106.68 780.031 1109.25 754.971 1100.29 733.758C1095.14 721.554 1086.18 711.517 1077.41 701.8C1076.8 701.122 1077.93 700.291 1078.53 700.957Z" fill="url(#paint20_linear_1226_2273)"/>
<path d="M1057.3 691.353C1065.55 700.489 1073.91 709.934 1078.7 721.433C1082.6 730.827 1084.1 741.124 1083.51 751.256C1082.26 772.998 1071.42 792.919 1054.73 806.724C1036.83 821.539 1013.77 828.999 990.688 829.475C967.46 829.956 944.593 823.879 923.592 814.248C901.596 804.161 881.365 790.715 859.674 780.037C848.87 774.718 837.655 770.067 825.946 767.15C814.966 764.414 803.709 763.363 792.411 763.878C750.079 765.812 710.611 786.591 667.91 785.238C624.887 783.877 583.737 758.166 562.537 720.888C559.695 715.892 557.411 710.656 554.927 705.481C552.792 701.03 550.984 696.571 549.955 691.726C548.034 682.704 548.616 673.284 551.057 664.421C556.385 645.083 570.071 629.225 587.366 619.442C631.031 594.739 682.739 607.639 729.466 613.123C754.491 616.06 780.07 616.901 804.496 609.734C829.259 602.468 851.437 588.855 873.573 575.971C894.703 563.673 916.515 551.615 940.599 546.296C961.52 541.676 984.748 542.099 1003.95 552.53C1021.06 561.818 1034.98 578.885 1037.06 598.664C1038.21 609.594 1035.08 620.178 1033.05 630.805C1031.95 636.538 1031.17 642.389 1031.72 648.229C1032.25 653.852 1033.99 659.262 1036.52 664.295C1041.67 674.5 1049.71 682.952 1057.3 691.353C1057.9 692.021 1056.77 692.856 1056.17 692.19C1048.81 684.047 1041.15 675.891 1035.92 666.152C1030.77 656.575 1029.28 646.293 1030.81 635.58C1032.37 624.703 1036.12 614.062 1035.93 602.972C1035.75 592.733 1032.13 582.817 1026.37 574.414C1014.16 556.599 994.021 546.865 972.814 545.181C949.494 543.329 926.56 550.292 905.705 560.188C883.044 570.943 862.216 585.075 839.946 596.566C828.992 602.217 817.663 607.252 805.836 610.795C794.54 614.178 782.895 616.014 771.123 616.544C722.3 618.75 674.187 600.31 625.393 608.114C603.684 611.586 581.836 620.528 567.194 637.484C554.858 651.771 547.576 671.368 551.094 690.276C551.997 695.132 553.681 699.677 555.824 704.112C558.511 709.677 560.944 715.332 564.035 720.693C569.333 729.887 575.862 738.379 583.326 745.921C598.502 761.256 617.526 772.795 638.214 778.959C658.856 785.109 680.092 784.79 701.129 780.979C721.529 777.287 741.337 770.996 761.604 766.716C782.125 762.381 803.142 760.467 823.78 765.189C846.165 770.314 866.446 781.562 886.263 792.779C906.577 804.277 926.959 815.993 949.544 822.459C972.12 828.922 996.614 830.46 1019.32 823.746C1041.38 817.223 1061.91 803.113 1073.09 782.635C1083.13 764.223 1085.5 741.149 1077.25 721.617C1072.51 710.377 1064.26 701.135 1056.17 692.184C1055.57 691.521 1056.7 690.685 1057.3 691.353Z" fill="url(#paint21_linear_1226_2273)"/>
<path d="M1036.07 681.749C1043.62 690.109 1051.27 698.749 1055.64 709.275C1059.22 717.878 1060.59 727.306 1060.06 736.582C1058.91 756.483 1048.98 774.719 1033.71 787.355C1017.32 800.911 996.221 807.74 975.103 808.176C953.848 808.616 932.923 803.057 913.705 794.244C893.587 785.018 875.083 772.721 855.243 762.956C835.899 753.432 815.499 747.187 793.752 748.179C755.028 749.948 718.927 768.954 679.864 767.716C640.501 766.47 602.844 742.943 583.446 708.837C580.844 704.264 578.753 699.47 576.478 694.733C574.524 690.658 572.87 686.576 571.925 682.139C570.166 673.876 570.702 665.25 572.937 657.135C577.814 639.438 590.34 624.925 606.166 615.969C646.121 593.362 693.422 605.159 736.18 610.177C759.059 612.863 782.445 613.634 804.774 607.082C827.418 600.437 847.698 587.992 867.942 576.209C887.279 564.955 907.236 553.923 929.275 549.057C948.419 544.83 969.679 545.22 987.253 554.762C1002.92 563.267 1015.67 578.892 1017.57 597.006C1018.62 607.01 1015.76 616.693 1013.9 626.417C1012.89 631.654 1012.19 637.002 1012.69 642.341C1013.17 647.479 1014.76 652.422 1017.08 657.02C1021.78 666.342 1029.12 674.072 1036.07 681.749C1036.67 682.416 1035.54 683.251 1034.94 682.586C1028.2 675.133 1021.2 667.669 1016.41 658.757C1011.69 649.986 1010.33 640.57 1011.73 630.763C1013.16 620.82 1016.59 611.093 1016.41 600.954C1016.25 591.598 1012.95 582.539 1007.68 574.863C996.518 558.581 978.12 549.688 958.739 548.151C937.42 546.458 916.454 552.824 897.389 561.874C876.663 571.71 857.612 584.637 837.243 595.148C827.223 600.317 816.861 604.921 806.047 608.161C795.712 611.258 785.055 612.936 774.281 613.423C729.628 615.443 685.621 598.576 640.992 605.714C621.153 608.889 601.183 617.058 587.801 632.554C576.528 645.612 569.872 663.517 573.087 680.796C573.913 685.232 575.455 689.383 577.409 693.436C579.864 698.521 582.085 703.691 584.911 708.588C589.754 716.993 595.723 724.756 602.545 731.651C616.42 745.673 633.816 756.225 652.732 761.861C671.603 767.483 691.016 767.187 710.246 763.707C728.905 760.33 747.021 754.577 765.559 750.661C784.335 746.695 803.563 744.943 822.441 749.265C842.921 753.952 861.475 764.241 879.604 774.501C898.183 785.019 916.826 795.733 937.483 801.645C958.115 807.552 980.504 808.958 1001.26 802.823C1021.42 796.86 1040.19 783.969 1050.4 765.254C1059.58 748.424 1061.75 727.342 1054.21 709.49C1049.87 699.215 1042.33 690.766 1034.94 682.586C1034.34 681.918 1035.46 681.083 1036.07 681.749Z" fill="url(#paint22_linear_1226_2273)"/>
<path d="M1014.83 672.147C1021.68 679.732 1028.62 687.571 1032.59 697.118C1035.84 704.927 1037.08 713.485 1036.6 721.909C1035.55 739.971 1026.54 756.52 1012.68 767.987C997.819 780.284 978.674 786.479 959.518 786.876C940.235 787.275 921.253 782.238 903.817 774.239C885.577 765.873 868.801 754.725 850.811 745.87C833.281 737.243 814.797 731.577 795.093 732.479C759.978 734.084 727.242 751.316 691.817 750.193C656.113 749.063 621.949 727.718 604.356 696.783C601.994 692.632 600.093 688.279 598.029 683.98C596.252 680.279 594.755 676.572 593.896 672.544C592.299 665.041 592.789 657.209 594.818 649.841C599.243 633.785 610.608 620.614 624.968 612.489C661.213 591.983 704.102 602.672 742.893 607.226C763.622 609.659 784.816 610.36 805.052 604.425C825.578 598.403 843.958 587.12 862.308 576.441C879.85 566.232 897.953 556.225 917.948 551.811C935.317 547.975 954.606 548.329 970.548 556.989C984.768 564.711 996.349 578.898 998.078 595.344C999.031 604.42 996.436 613.202 994.747 622.028C993.838 626.77 993.195 631.613 993.652 636.448C994.09 641.102 995.524 645.579 997.623 649.742C1001.89 658.188 1008.54 665.191 1014.83 672.147C1015.44 672.814 1014.31 673.649 1013.71 672.984C1007.59 666.222 1001.24 659.45 996.896 651.364C992.618 643.404 991.381 634.855 992.657 625.951C993.948 616.943 997.06 608.127 996.897 598.941C996.749 590.472 993.761 582.269 988.996 575.317C978.883 560.567 962.22 552.516 944.663 551.124C925.346 549.59 906.347 555.362 889.071 563.56C870.279 572.478 853.007 584.198 834.539 593.728C825.454 598.416 816.059 602.589 806.253 605.526C796.876 608.335 787.211 609.861 777.437 610.303C736.952 612.132 697.049 596.841 656.589 603.311C638.618 606.186 620.527 613.585 608.406 627.619C598.195 639.445 592.168 655.66 595.08 671.31C595.826 675.328 597.223 679.085 598.996 682.755C601.217 687.358 603.231 692.042 605.79 696.478C610.177 704.093 615.585 711.129 621.765 717.377C634.343 730.087 650.108 739.648 667.253 744.757C684.349 749.852 701.941 749.581 719.365 746.425C736.283 743.363 752.708 738.149 769.515 734.598C786.543 731.002 803.983 729.415 821.107 733.332C839.681 737.583 856.509 746.913 872.951 756.219C889.796 765.755 906.698 775.47 925.427 780.831C944.116 786.18 964.403 787.456 983.201 781.897C1001.46 776.497 1018.47 764.823 1027.72 747.871C1036.04 732.628 1038 713.532 1031.17 697.36C1027.24 688.05 1020.41 680.393 1013.71 672.981C1013.1 672.316 1014.23 671.481 1014.83 672.147Z" fill="url(#paint23_linear_1226_2273)"/>
<path d="M993.599 662.543C999.749 669.35 1005.97 676.39 1009.54 684.96C1012.46 691.976 1013.57 699.668 1013.14 707.236C1012.2 723.457 1004.1 738.321 991.655 748.618C978.312 759.656 961.126 765.222 943.928 765.577C926.617 765.936 909.578 761.416 893.923 754.237C877.56 746.734 862.51 736.73 846.375 728.789C830.662 721.055 814.093 715.973 796.429 716.78C764.924 718.218 735.551 733.676 703.766 732.671C671.728 731.657 641.042 712.498 625.26 684.732C623.139 681.001 621.429 677.092 619.577 673.229C617.981 669.904 616.636 666.572 615.867 662.953C614.432 656.21 614.873 649.17 616.699 642.551C620.673 628.137 630.876 616.309 643.768 609.015C676.3 590.607 714.787 600.193 749.606 604.279C768.189 606.46 787.192 607.09 805.329 601.767C823.736 596.367 840.22 586.25 856.674 576.673C872.423 567.507 888.671 558.527 906.619 554.563C922.21 551.12 939.529 551.44 953.841 559.212C966.621 566.152 977.028 578.896 978.579 593.676C979.434 601.824 977.109 609.709 975.592 617.63C974.778 621.88 974.199 626.217 974.609 630.546C975.002 634.716 976.286 638.723 978.168 642.453C981.989 650.032 987.962 656.307 993.599 662.543C994.204 663.211 993.075 664.046 992.473 663.38C986.982 657.307 981.286 651.228 977.383 643.97C973.54 636.822 972.433 629.133 973.575 621.136C974.731 613.062 977.524 605.158 977.38 596.924C977.246 589.338 974.574 581.99 970.306 575.765C961.247 562.549 946.318 555.338 930.588 554.091C913.273 552.716 896.242 557.895 880.755 565.243C863.897 573.244 848.404 583.757 831.837 592.306C823.688 596.511 815.26 600.256 806.463 602.891C798.044 605.412 789.368 606.784 780.595 607.18C744.277 608.822 708.482 595.105 672.187 600.91C656.087 603.486 639.871 610.116 629.013 622.689C619.864 633.285 614.463 647.807 617.073 661.828C617.743 665.428 618.995 668.791 620.579 672.078C622.569 676.202 624.373 680.397 626.663 684.371C630.597 691.197 635.441 697.506 640.981 703.104C652.257 714.503 666.396 723.077 681.771 727.658C697.096 732.226 712.864 731.977 728.483 729.15C743.66 726.402 758.392 721.723 773.471 718.539C788.751 715.313 804.404 713.888 819.77 717.405C836.44 721.22 851.539 729.586 866.295 737.939C881.406 746.491 896.568 755.209 913.369 760.016C930.114 764.809 948.298 765.954 965.139 760.973C981.502 756.134 996.748 745.678 1005.03 730.489C1012.49 716.828 1014.25 699.725 1008.13 685.234C1004.61 676.887 998.478 670.025 992.477 663.38C991.87 662.71 992.999 661.875 993.599 662.543Z" fill="url(#paint24_linear_1226_2273)"/>
<path d="M972.369 652.938C977.819 658.972 983.33 665.206 986.489 672.802C989.077 679.027 990.064 685.851 989.676 692.562C988.846 706.944 981.664 720.122 970.628 729.249C958.808 739.028 943.575 743.961 928.339 744.277C913 744.594 897.903 740.593 884.031 734.232C869.546 727.589 856.224 718.734 841.939 711.703C828.042 704.863 813.39 700.364 797.768 701.077C769.87 702.35 743.865 716.036 715.72 715.143C687.34 714.246 660.149 697.27 646.169 672.673C644.289 669.365 642.772 665.899 641.129 662.473C639.714 659.524 638.523 656.569 637.839 653.357C636.565 647.375 636.961 641.128 638.582 635.254C642.107 622.484 651.147 611.999 662.571 605.532C691.392 589.22 725.476 597.705 756.324 601.326C772.761 603.255 789.57 603.817 805.611 599.109C821.899 594.33 836.486 585.379 851.046 576.905C865 568.784 879.395 560.829 895.299 557.318C909.112 554.268 924.463 554.554 937.142 561.44C948.481 567.597 957.713 578.9 959.091 592.014C959.85 599.236 957.789 606.22 956.445 613.24C955.726 616.994 955.215 620.829 955.575 624.653C955.923 628.336 957.058 631.878 958.72 635.172C962.097 641.874 967.381 647.426 972.369 652.938C972.973 653.606 971.845 654.441 971.242 653.775C966.377 648.394 961.333 643.008 957.873 636.573C954.463 630.234 953.482 623.411 954.497 616.32C955.518 609.18 957.992 602.187 957.866 594.907C957.751 588.205 955.389 581.715 951.618 576.216C943.609 564.532 930.416 558.164 916.511 557.061C901.197 555.846 886.133 560.43 872.437 566.929C857.513 574.012 843.798 583.319 829.134 590.886C821.919 594.61 814.458 597.924 806.67 600.256C799.212 602.49 791.524 603.708 783.75 604.057C751.6 605.509 719.909 593.368 687.782 598.505C673.551 600.78 659.214 606.64 649.617 617.756C641.533 627.121 636.757 639.951 639.064 652.344C639.656 655.523 640.763 658.495 642.165 661.398C643.924 665.042 645.517 668.75 647.54 672.262C651.019 678.299 655.303 683.878 660.199 688.828C670.177 698.915 682.685 706.5 696.29 710.552C709.842 714.59 723.79 714.366 737.601 711.866C751.035 709.435 764.077 705.293 777.427 702.472C790.958 699.615 804.826 698.353 818.434 701.466C833.198 704.845 846.571 712.251 859.639 719.651C873.015 727.223 886.438 734.939 901.311 739.196C916.113 743.435 932.191 744.445 947.082 740.043C961.542 735.767 975.028 726.53 982.354 713.101C988.942 701.027 990.506 685.91 985.097 673.098C981.981 665.716 976.555 659.648 971.246 653.771C970.638 653.108 971.767 652.273 972.369 652.938Z" fill="url(#paint25_linear_1226_2273)"/>
<path d="M951.133 643.336C955.879 648.593 960.685 654.028 963.433 660.644C965.689 666.08 966.551 672.029 966.212 677.889C965.492 690.356 959.298 701.773 949.773 709.736C939.522 718.304 926.243 722.658 912.977 722.976C899.533 723.298 886.295 719.807 874.138 714.233C861.671 708.517 850.196 700.918 837.922 694.833C825.837 688.841 813.074 684.806 799.458 685.367C775.033 686.378 752.285 698.408 727.658 697.625C702.787 696.835 679.014 681.886 666.873 660.28C665.225 657.345 663.898 654.269 662.436 651.241C661.214 648.71 660.257 646.108 659.715 643.345C658.688 638.122 659.097 632.712 660.554 627.614C663.736 616.474 671.732 607.424 681.751 601.845C706.952 587.817 736.618 595.333 763.51 598.438C777.814 600.09 792.422 600.502 806.354 596.32C820.337 592.121 832.877 584.438 845.405 577.145C857.685 569.997 870.372 562.988 884.394 559.987C896.311 557.437 909.51 557.743 920.427 563.674C930.328 569.05 938.376 578.906 939.586 590.358C940.26 596.727 938.409 602.881 937.243 609.074C936.627 612.336 936.204 615.666 936.55 618.988C936.882 622.181 937.897 625.241 939.359 628.091C942.304 633.825 946.846 638.595 951.133 643.336C951.737 644.004 950.608 644.839 950.006 644.173C945.765 639.482 941.373 634.79 938.359 629.18C935.426 623.722 934.538 617.838 935.384 611.726C936.255 605.44 938.447 599.296 938.345 592.893C938.252 587.081 936.196 581.434 932.926 576.668C926.006 566.586 914.654 561.052 902.647 560.049C889.435 558.947 876.419 562.836 864.578 568.397C851.558 574.512 839.615 582.617 826.864 589.238C820.591 592.493 814.111 595.405 807.344 597.477C800.777 599.487 794 600.597 787.142 600.925C759.223 602.257 731.723 591.723 703.822 596.034C691.538 597.932 679.123 602.853 670.686 612.291C663.428 620.41 659.071 631.687 661.007 642.616C661.512 645.464 662.488 648.123 663.742 650.718C665.211 653.763 666.54 656.869 668.214 659.813C671.291 665.227 675.115 670.233 679.504 674.652C688.147 683.355 698.948 689.905 710.704 693.425C722.545 696.972 734.732 696.769 746.799 694.574C758.549 692.439 769.957 688.808 781.639 686.359C793.422 683.89 805.478 682.845 817.313 685.593C830.24 688.592 841.937 695.121 853.387 701.607C864.957 708.162 876.591 714.798 889.467 718.448C902.267 722.077 916.147 722.915 929.011 719.12C941.568 715.418 953.306 707.38 959.66 695.721C965.412 685.166 966.762 671.955 961.968 660.783C959.249 654.449 954.573 649.23 950.004 644.171C949.402 643.506 950.53 642.67 951.133 643.336Z" fill="url(#paint26_linear_1226_2273)"/>
<path d="M929.899 633.733C933.964 638.233 938.076 642.892 940.414 648.565C942.293 653.129 943.023 658.111 942.764 663.029C942.204 673.684 936.944 683.472 928.826 690.301C920.1 697.642 908.768 701.385 897.448 701.673C886.04 701.965 874.793 699.034 864.467 694.326C853.78 689.454 843.954 682.936 833.444 677.725C823.125 672.606 812.236 669.175 800.612 669.675C779.803 670.573 760.416 680.835 739.423 680.094C718.229 679.346 698.001 666.544 687.711 648.091C686.314 645.588 685.182 642.959 683.934 640.379C682.921 638.282 682.151 636.104 681.699 633.817C680.802 629.268 681.187 624.549 682.491 620.118C685.269 610.682 692.096 603.038 700.618 598.327C722.041 586.485 747.191 592.816 770.031 595.465C782.201 596.876 794.632 597.245 806.493 593.7C818.5 590.113 829.251 583.495 840.003 577.241C850.429 571.177 861.203 565.26 873.108 562.73C883.328 560.557 894.664 560.869 903.98 566.038C912.299 570.654 919.04 578.966 920.086 588.631C920.659 593.906 919.197 599.014 918.195 604.139C917.08 609.839 917.125 615.261 919.777 620.55C922.271 625.526 926.203 629.645 929.899 633.733C930.503 634.4 929.374 635.236 928.772 634.57C925.169 630.586 921.441 626.598 918.874 621.839C916.371 617.194 915.587 612.185 916.295 606.976C917.011 601.691 918.857 596.534 918.832 591.159C918.81 586.296 917.177 581.554 914.505 577.517C908.717 568.777 899.006 563.933 888.723 563.03C877.542 562.049 866.502 565.301 856.466 569.984C845.301 575.193 835.074 582.143 824.158 587.817C813.716 593.245 802.765 597.107 790.941 597.768C767.215 599.092 743.888 590.146 720.177 593.519C709.656 595.014 698.937 599.058 691.598 607.025C685.315 613.844 681.45 623.386 682.933 632.719C683.304 635.059 684.026 637.314 685.043 639.451C686.277 642.04 687.423 644.683 688.809 647.196C691.334 651.776 694.507 656.005 698.134 659.771C705.446 667.369 714.73 673.094 724.808 676.195C734.903 679.301 745.314 679.197 755.63 677.349C765.636 675.555 775.349 672.467 785.286 670.365C795.218 668.264 805.404 667.312 815.406 669.534C826.376 671.971 836.316 677.435 846.014 682.92C855.885 688.505 865.775 694.232 876.726 697.438C887.704 700.649 899.656 701.477 910.733 698.261C921.41 695.16 931.427 688.393 936.88 678.516C941.842 669.531 943.038 658.247 938.951 648.706C936.642 643.315 932.659 638.874 928.772 634.57C928.169 633.9 929.297 633.067 929.899 633.733Z" fill="url(#paint27_linear_1226_2273)"/>
<path d="M908.666 624.131C911.948 627.768 915.278 631.528 917.224 636.083C918.825 639.826 919.479 643.925 919.319 647.981C918.979 656.656 914.866 664.705 908.395 670.419C893.756 683.347 872.553 682.232 855.652 674.807C838.201 667.142 822.67 653.334 802.581 653.954C785.292 654.486 769.229 663.041 751.826 662.588C734.278 662.132 717.439 651.63 708.825 636.415C707.723 634.469 706.824 632.436 705.859 630.419C705.004 628.622 704.251 626.845 703.808 624.898C702.966 621.21 703.16 617.342 704.125 613.701C706.169 605.995 711.477 599.541 718.278 595.502C735.85 585.067 756.907 590.137 775.886 592.418C786.075 593.643 796.513 594.066 806.465 591.137C816.474 588.194 825.423 582.676 834.373 577.473C842.951 572.485 851.811 567.624 861.602 565.526C870.01 563.723 879.343 563.95 887.042 568.142C894.004 571.933 899.662 578.831 900.579 586.878C901.081 591.308 899.846 595.596 899.011 599.901C898.094 604.626 898.178 609.103 900.416 613.463C902.485 617.478 905.667 620.815 908.666 624.131C909.27 624.799 908.141 625.634 907.539 624.968C904.635 621.759 901.629 618.548 899.521 614.734C897.462 611.012 896.661 606.983 897.142 602.758C897.633 598.437 899.116 594.268 899.296 589.904C899.468 585.705 898.156 581.565 895.876 578.062C891.18 570.848 883.238 566.808 874.799 566.019C865.473 565.143 856.256 567.874 847.89 571.795C838.786 576.06 830.435 581.72 821.528 586.363C812.914 590.853 803.872 594.08 794.113 594.65C774.399 595.802 755.005 588.3 735.308 591.191C726.602 592.469 717.748 595.889 711.769 602.579C706.681 608.268 703.628 616.158 705.019 623.817C705.381 625.808 706.088 627.649 706.96 629.465C707.974 631.578 708.898 633.73 710.063 635.768C712.173 639.466 714.78 642.892 717.762 645.928C723.873 652.15 731.568 656.809 739.935 659.283C748.254 661.744 756.817 661.54 765.282 659.978C773.53 658.457 781.54 655.903 789.75 654.202C797.888 652.517 806.228 651.818 814.401 653.682C823.38 655.732 831.516 660.205 839.464 664.702C847.628 669.321 855.811 674.051 864.875 676.685C873.849 679.294 883.626 679.956 892.677 677.338C901.517 674.78 909.798 669.178 914.283 660.985C918.312 653.629 919.264 644.402 915.924 636.604C914.025 632.166 910.742 628.511 907.541 624.97C906.936 624.299 908.065 623.464 908.666 624.131Z" fill="url(#paint28_linear_1226_2273)"/>
<path d="M887.437 614.528C890.131 617.514 892.848 620.602 894.365 624.379C895.58 627.403 896.03 630.696 895.835 633.94C895.421 640.748 892.072 647.005 886.934 651.431C875.364 661.394 858.807 660.508 845.56 654.706C831.719 648.648 819.42 637.675 803.481 638.269C789.835 638.778 777.141 645.536 763.379 645.051C749.501 644.561 736.268 636.131 729.563 624.041C727.981 621.186 726.333 618.045 725.684 614.822C725.097 611.91 725.317 608.881 726.117 606.03C727.832 599.927 732.131 594.875 737.58 591.735C751.408 583.766 767.797 587.682 782.661 589.472C790.723 590.444 798.982 590.783 806.852 588.451C814.705 586.122 821.728 581.786 828.758 577.701C840.8 570.702 856.733 562.861 870.43 570.413C875.79 573.368 880.139 578.599 881.038 584.77C881.532 588.171 880.7 591.478 880.018 594.788C879.222 598.65 879.057 602.306 880.848 605.929C882.453 609.179 885.028 611.865 887.437 614.528C888.041 615.195 886.912 616.031 886.31 615.365C881.822 610.403 877.368 605.246 878.052 598.11C878.391 594.554 879.666 591.137 879.792 587.554C879.906 584.318 878.882 581.118 877.127 578.417C873.417 572.709 867.123 569.549 860.449 568.962C853.116 568.317 845.887 570.502 839.319 573.598C832.321 576.9 825.881 581.232 819.041 584.827C812.334 588.352 805.286 590.964 797.676 591.494C782.24 592.572 767.096 586.732 751.671 588.681C744.843 589.545 737.831 592.006 732.942 597.039C728.757 601.343 726.095 607.487 726.895 613.548C727.341 616.927 729.049 620.182 730.66 623.142C732.271 626.101 734.304 628.838 736.627 631.277C741.381 636.269 747.447 640.02 754.037 642.048C767.291 646.121 780.123 641.03 793.05 638.272C799.449 636.906 806.032 636.25 812.491 637.62C819.588 639.124 826.03 642.591 832.292 646.125C838.689 649.736 845.072 653.496 852.137 655.663C859.107 657.801 866.702 658.462 873.815 656.621C880.814 654.812 887.405 650.595 891.179 644.321C894.632 638.584 895.578 631.165 893.059 624.894C891.59 621.234 888.916 618.25 886.307 615.359C885.703 614.696 886.832 613.861 887.437 614.528Z" fill="url(#paint29_linear_1226_2273)"/>
<path d="M866.202 604.926C868.169 607.105 870.147 609.361 871.267 612.115C872.139 614.255 872.481 616.573 872.393 618.876C872.2 623.877 869.84 628.516 866.149 631.845C857.908 639.283 845.816 638.937 836.107 634.885C825.754 630.562 816.673 622.172 804.837 622.57C794.799 622.908 785.472 627.897 775.353 627.527C765.191 627.156 755.517 621.002 750.57 612.174C748.248 608.027 746.662 603.836 747.902 599.076C749.056 594.659 752.045 590.911 755.91 588.536C765.849 582.43 777.88 585.068 788.705 586.441C794.725 587.205 800.918 587.577 806.823 585.882C812.761 584.178 818.047 580.876 823.346 577.804C832.089 572.738 843.537 567.23 853.487 572.517C857.492 574.645 860.749 578.465 861.516 583.012C862.4 588.253 858.896 593.277 861.267 598.393C862.423 600.88 864.384 602.916 866.202 604.926C866.807 605.593 865.678 606.428 865.076 605.762C861.908 602.261 858.682 598.579 858.963 593.551C859.101 591.084 859.944 588.726 860.202 586.274C860.467 583.768 859.899 581.292 858.595 579.135C852.722 569.423 839.991 571.1 831.202 575.19C821.086 579.897 812.284 587.481 800.741 588.374C789.53 589.243 778.547 585.034 767.345 586.28C762.26 586.847 756.987 588.607 753.329 592.34C750.262 595.473 748.309 599.969 748.928 604.395C749.26 606.762 750.459 609.036 751.576 611.122C752.729 613.272 754.196 615.261 755.868 617.039C759.318 620.703 763.737 623.454 768.541 624.949C778.237 627.965 787.641 624.205 797.099 622.197C801.679 621.224 806.397 620.744 811.026 621.675C816.147 622.705 820.807 625.142 825.322 627.679C834.5 632.837 844.259 638.213 855.181 635.83C860.425 634.685 865.442 631.696 868.375 627.117C871.035 622.961 871.854 617.472 870.035 612.827C868.972 610.11 867 607.905 865.072 605.767C864.471 605.091 865.6 604.256 866.202 604.926Z" fill="url(#paint30_linear_1226_2273)"/>
<path d="M844.97 595.323C847.313 597.924 849.052 600.61 848.931 604.222C848.828 607.343 847.427 610.266 845.176 612.411C840.081 617.27 832.434 617.305 826.207 614.863C819.383 612.187 813.528 606.539 805.782 606.889C799.366 607.18 793.389 610.399 786.896 609.986C780.492 609.578 774.46 605.604 771.402 599.991C770.014 597.445 769.044 594.868 769.741 591.944C770.411 589.134 772.235 586.691 774.641 585.114C780.801 581.081 788.432 582.563 795.247 583.467C799.088 583.975 803.038 584.302 806.83 583.298C810.68 582.279 814.09 580.141 817.504 578.162C823.552 574.66 831.927 570.831 838.362 575.739C840.897 577.674 842.447 580.689 842.101 583.901C841.89 585.855 841.042 587.8 841.405 589.785C841.814 592.002 843.518 593.716 844.97 595.323C845.574 595.991 844.445 596.826 843.843 596.16C841.875 593.983 839.855 591.68 839.925 588.566C839.998 585.287 841.625 582.44 839.738 579.319C836.067 573.242 828.081 574.441 822.63 576.995C816.463 579.888 811.05 584.501 804.044 585.226C797.122 585.941 790.366 583.425 783.456 583.861C777.661 584.228 770.511 587.678 770.895 594.504C771.059 597.42 773.087 600.516 774.977 602.628C777.134 605.038 779.972 606.868 783.056 607.84C789.063 609.733 794.894 607.486 800.756 606.196C803.49 605.595 806.32 605.236 809.111 605.648C812.343 606.123 815.321 607.55 818.157 609.108C824.652 612.681 831.694 616.934 839.365 614.286C842.927 613.057 846.026 610.404 847.121 606.716C847.655 604.918 847.709 602.933 847.151 601.134C846.543 599.179 845.189 597.648 843.847 596.156C843.238 595.489 844.37 594.655 844.97 595.323Z" fill="url(#paint31_linear_1226_2273)"/>
<defs>
<linearGradient id="paint0_linear_1226_2273" x1="1639.83" y1="1131.8" x2="161.397" y2="940.548" gradientUnits="userSpaceOnUse">
<stop offset="0.1313" stop-color="#024240"/>
<stop offset="0.455924" stop-color="#00D6A1" stop-opacity="0.45"/>
<stop offset="0.798522" stop-color="#024742"/>
</linearGradient>
<linearGradient id="paint1_linear_1226_2273" x1="1614.42" y1="1114.91" x2="181.136" y2="929.498" gradientUnits="userSpaceOnUse">
<stop offset="0.1313" stop-color="#024240"/>
<stop offset="0.455924" stop-color="#00D6A1" stop-opacity="0.45"/>
<stop offset="0.798522" stop-color="#024742"/>
</linearGradient>
<linearGradient id="paint2_linear_1226_2273" x1="1589.01" y1="1098.03" x2="200.879" y2="918.454" gradientUnits="userSpaceOnUse">
<stop offset="0.1313" stop-color="#024240"/>
<stop offset="0.455924" stop-color="#00D6A1" stop-opacity="0.45"/>
<stop offset="0.798522" stop-color="#024742"/>
</linearGradient>
<linearGradient id="paint3_linear_1226_2273" x1="1563.62" y1="1081.15" x2="220.621" y2="907.404" gradientUnits="userSpaceOnUse">
<stop offset="0.1313" stop-color="#024240"/>
<stop offset="0.455924" stop-color="#00D6A1" stop-opacity="0.45"/>
<stop offset="0.798522" stop-color="#024742"/>
</linearGradient>
<linearGradient id="paint4_linear_1226_2273" x1="1538.22" y1="1064.27" x2="240.368" y2="896.353" gradientUnits="userSpaceOnUse">
<stop offset="0.1313" stop-color="#024240"/>
<stop offset="0.455924" stop-color="#00D6A1" stop-opacity="0.45"/>
<stop offset="0.798522" stop-color="#024742"/>
</linearGradient>
<linearGradient id="paint5_linear_1226_2273" x1="1512.81" y1="1047.39" x2="260.104" y2="885.321" gradientUnits="userSpaceOnUse">
<stop offset="0.1313" stop-color="#024240"/>
<stop offset="0.455924" stop-color="#00D6A1" stop-opacity="0.45"/>
<stop offset="0.798522" stop-color="#024742"/>
</linearGradient>
<linearGradient id="paint6_linear_1226_2273" x1="1487.41" y1="1030.5" x2="279.849" y2="874.264" gradientUnits="userSpaceOnUse">
<stop offset="0.1313" stop-color="#024240"/>
<stop offset="0.455924" stop-color="#00D6A1" stop-opacity="0.45"/>
<stop offset="0.798522" stop-color="#024742"/>
</linearGradient>
<linearGradient id="paint7_linear_1226_2273" x1="1462.01" y1="1013.62" x2="299.593" y2="863.22" gradientUnits="userSpaceOnUse">
<stop offset="0.1313" stop-color="#024240"/>
<stop offset="0.455924" stop-color="#00D6A1" stop-opacity="0.45"/>
<stop offset="0.798522" stop-color="#024742"/>
</linearGradient>
<linearGradient id="paint8_linear_1226_2273" x1="1436.6" y1="996.737" x2="319.333" y2="852.173" gradientUnits="userSpaceOnUse">
<stop offset="0.1313" stop-color="#024240"/>
<stop offset="0.455924" stop-color="#00D6A1" stop-opacity="0.45"/>
<stop offset="0.798522" stop-color="#024742"/>
</linearGradient>
<linearGradient id="paint9_linear_1226_2273" x1="1411.2" y1="979.856" x2="339.071" y2="841.128" gradientUnits="userSpaceOnUse">
<stop offset="0.1313" stop-color="#024240"/>
<stop offset="0.455924" stop-color="#00D6A1" stop-opacity="0.45"/>
<stop offset="0.798522" stop-color="#024742"/>
</linearGradient>
<linearGradient id="paint10_linear_1226_2273" x1="1385.8" y1="962.975" x2="358.819" y2="830.083" gradientUnits="userSpaceOnUse">
<stop offset="0.1313" stop-color="#024240"/>
<stop offset="0.455924" stop-color="#00D6A1" stop-opacity="0.45"/>
<stop offset="0.798522" stop-color="#024742"/>
</linearGradient>
<linearGradient id="paint11_linear_1226_2273" x1="1360.39" y1="946.091" x2="378.558" y2="819.038" gradientUnits="userSpaceOnUse">
<stop offset="0.1313" stop-color="#024240"/>
<stop offset="0.455924" stop-color="#00D6A1" stop-opacity="0.45"/>
<stop offset="0.798522" stop-color="#024742"/>
</linearGradient>
<linearGradient id="paint12_linear_1226_2273" x1="1334.99" y1="929.207" x2="398.301" y2="807.987" gradientUnits="userSpaceOnUse">
<stop offset="0.1313" stop-color="#024240"/>
<stop offset="0.455924" stop-color="#00D6A1" stop-opacity="0.45"/>
<stop offset="0.798522" stop-color="#024742"/>
</linearGradient>
<linearGradient id="paint13_linear_1226_2273" x1="1309.59" y1="912.325" x2="418.042" y2="796.94" gradientUnits="userSpaceOnUse">
<stop offset="0.1313" stop-color="#024240"/>
<stop offset="0.455924" stop-color="#00D6A1" stop-opacity="0.45"/>
<stop offset="0.798522" stop-color="#024742"/>
</linearGradient>
<linearGradient id="paint14_linear_1226_2273" x1="1284.19" y1="895.441" x2="437.783" y2="785.895" gradientUnits="userSpaceOnUse">
<stop offset="0.1313" stop-color="#024240"/>
<stop offset="0.455924" stop-color="#00D6A1" stop-opacity="0.45"/>
<stop offset="0.798522" stop-color="#024742"/>
</linearGradient>
<linearGradient id="paint15_linear_1226_2273" x1="1258.78" y1="878.562" x2="457.525" y2="774.848" gradientUnits="userSpaceOnUse">
<stop offset="0.1313" stop-color="#024240"/>
<stop offset="0.455924" stop-color="#00D6A1" stop-opacity="0.45"/>
<stop offset="0.798522" stop-color="#024742"/>
</linearGradient>
<linearGradient id="paint16_linear_1226_2273" x1="1233.38" y1="861.684" x2="477.262" y2="763.813" gradientUnits="userSpaceOnUse">
<stop offset="0.1313" stop-color="#024240"/>
<stop offset="0.455924" stop-color="#00D6A1" stop-opacity="0.45"/>
<stop offset="0.798522" stop-color="#024742"/>
</linearGradient>
<linearGradient id="paint17_linear_1226_2273" x1="1207.97" y1="844.795" x2="497.002" y2="752.759" gradientUnits="userSpaceOnUse">
<stop offset="0.1313" stop-color="#024240"/>
<stop offset="0.455924" stop-color="#00D6A1" stop-opacity="0.45"/>
<stop offset="0.798522" stop-color="#024742"/>
</linearGradient>
<linearGradient id="paint18_linear_1226_2273" x1="1182.57" y1="827.923" x2="516.743" y2="741.723" gradientUnits="userSpaceOnUse">
<stop offset="0.1313" stop-color="#024240"/>
<stop offset="0.455924" stop-color="#00D6A1" stop-opacity="0.45"/>
<stop offset="0.798522" stop-color="#024742"/>
</linearGradient>
<linearGradient id="paint19_linear_1226_2273" x1="1157.17" y1="811.032" x2="536.492" y2="730.667" gradientUnits="userSpaceOnUse">
<stop offset="0.1313" stop-color="#024240"/>
<stop offset="0.455924" stop-color="#00D6A1" stop-opacity="0.45"/>
<stop offset="0.798522" stop-color="#024742"/>
</linearGradient>
<linearGradient id="paint20_linear_1226_2273" x1="1131.77" y1="794.154" x2="556.233" y2="719.626" gradientUnits="userSpaceOnUse">
<stop offset="0.1313" stop-color="#024240"/>
<stop offset="0.455924" stop-color="#00D6A1" stop-opacity="0.45"/>
<stop offset="0.798522" stop-color="#024742"/>
</linearGradient>
<linearGradient id="paint21_linear_1226_2273" x1="1106.37" y1="777.267" x2="575.969" y2="708.576" gradientUnits="userSpaceOnUse">
<stop offset="0.1313" stop-color="#024240"/>
<stop offset="0.455924" stop-color="#00D6A1" stop-opacity="0.45"/>
<stop offset="0.798522" stop-color="#024742"/>
</linearGradient>
<linearGradient id="paint22_linear_1226_2273" x1="1080.96" y1="760.385" x2="595.714" y2="697.53" gradientUnits="userSpaceOnUse">
<stop offset="0.1313" stop-color="#024240"/>
<stop offset="0.455924" stop-color="#00D6A1" stop-opacity="0.45"/>
<stop offset="0.798522" stop-color="#024742"/>
</linearGradient>
<linearGradient id="paint23_linear_1226_2273" x1="1055.56" y1="743.503" x2="615.455" y2="686.486" gradientUnits="userSpaceOnUse">
<stop offset="0.1313" stop-color="#024240"/>
<stop offset="0.455924" stop-color="#00D6A1" stop-opacity="0.45"/>
<stop offset="0.798522" stop-color="#024742"/>
</linearGradient>
<linearGradient id="paint24_linear_1226_2273" x1="1030.16" y1="726.62" x2="635.197" y2="675.434" gradientUnits="userSpaceOnUse">
<stop offset="0.1313" stop-color="#024240"/>
<stop offset="0.455924" stop-color="#00D6A1" stop-opacity="0.45"/>
<stop offset="0.798522" stop-color="#024742"/>
</linearGradient>
<linearGradient id="paint25_linear_1226_2273" x1="1004.76" y1="709.735" x2="654.942" y2="664.385" gradientUnits="userSpaceOnUse">
<stop offset="0.1313" stop-color="#024240"/>
<stop offset="0.455924" stop-color="#00D6A1" stop-opacity="0.45"/>
<stop offset="0.798522" stop-color="#024742"/>
</linearGradient>
<linearGradient id="paint26_linear_1226_2273" x1="979.344" y1="692.856" x2="674.678" y2="653.346" gradientUnits="userSpaceOnUse">
<stop offset="0.1313" stop-color="#024240"/>
<stop offset="0.455924" stop-color="#00D6A1" stop-opacity="0.45"/>
<stop offset="0.798522" stop-color="#024742"/>
</linearGradient>
<linearGradient id="paint27_linear_1226_2273" x1="953.945" y1="675.972" x2="694.419" y2="642.302" gradientUnits="userSpaceOnUse">
<stop offset="0.1313" stop-color="#024240"/>
<stop offset="0.455924" stop-color="#00D6A1" stop-opacity="0.45"/>
<stop offset="0.798522" stop-color="#024742"/>
</linearGradient>
<linearGradient id="paint28_linear_1226_2273" x1="928.541" y1="659.094" x2="714.157" y2="631.259" gradientUnits="userSpaceOnUse">
<stop offset="0.1313" stop-color="#024240"/>
<stop offset="0.455924" stop-color="#00D6A1" stop-opacity="0.45"/>
<stop offset="0.798522" stop-color="#024742"/>
</linearGradient>
<linearGradient id="paint29_linear_1226_2273" x1="903.145" y1="642.206" x2="733.909" y2="620.208" gradientUnits="userSpaceOnUse">
<stop offset="0.1313" stop-color="#024240"/>
<stop offset="0.455924" stop-color="#00D6A1" stop-opacity="0.45"/>
<stop offset="0.798522" stop-color="#024742"/>
</linearGradient>
<linearGradient id="paint30_linear_1226_2273" x1="877.741" y1="625.325" x2="753.648" y2="609.166" gradientUnits="userSpaceOnUse">
<stop offset="0.1313" stop-color="#024240"/>
<stop offset="0.455924" stop-color="#00D6A1" stop-opacity="0.45"/>
<stop offset="0.798522" stop-color="#024742"/>
</linearGradient>
<linearGradient id="paint31_linear_1226_2273" x1="852.344" y1="608.437" x2="773.391" y2="598.104" gradientUnits="userSpaceOnUse">
<stop offset="0.1313" stop-color="#024240"/>
<stop offset="0.455924" stop-color="#00D6A1" stop-opacity="0.45"/>
<stop offset="0.798522" stop-color="#024742"/>
</linearGradient>
</defs>
</svg>
