<svg width="194" height="633" viewBox="0 0 194 633" fill="none" xmlns="http://www.w3.org/2000/svg">
<path fill-rule="evenodd" clip-rule="evenodd" d="M-212.574 300.069C-203.688 287.509 -199.04 272.678 -197.331 257.493C-195.809 242.84 -196.872 228.045 -199.543 213.589C-202.452 197.876 -207.347 181.987 -212.275 165.99C-224.317 126.903 -236.559 87.1684 -220.503 47.7625C-211.294 25.1609 -192.491 8.99323 -168.804 3.22714C-146.349 -2.23891 -121.754 1.18174 -101.276 11.7388C-77.4883 24.0004 -59.5903 45.6688 -47.6643 69.2383C-35.1528 93.9679 -29.548 120.705 -25.51 147.906C-25.173 150.177 -24.8413 152.455 -24.509 154.737C-21.0631 178.404 -17.551 202.526 -7.25415 224.291C-1.16181 237.17 7.39759 248.46 17.9486 258.021C28.7684 267.826 41.0514 275.83 53.3627 283.609C54.2167 284.149 55.0716 284.689 55.9269 285.228C79.5845 300.159 103.533 315.272 118.288 339.837C121.78 345.65 124.836 351.706 127.891 357.762L127.892 357.763L127.892 357.763C131.646 365.205 135.401 372.646 139.963 379.633C148.296 392.393 159.978 404.589 175.423 407.95C180.623 409.082 184.707 410.667 188.182 414.922C191.492 418.973 193.437 424.172 193.855 429.368C194.919 442.552 185.864 454.211 177.875 463.7C163.494 480.782 148.968 497.744 134.442 514.706L134.442 514.706L134.44 514.707L134.439 514.709L134.438 514.71L134.436 514.712L134.435 514.713L134.434 514.715L134.433 514.716L134.431 514.718L134.43 514.719L134.429 514.721L134.428 514.722L134.426 514.724L134.425 514.725L134.424 514.727L134.422 514.728L134.421 514.73L134.42 514.731L134.419 514.733L134.417 514.734L134.416 514.736C127.302 523.043 120.187 531.35 113.09 539.671C109.626 543.733 106.165 547.798 102.704 551.863L102.697 551.871C95.5142 560.308 88.3314 568.745 81.1168 577.155C73.0866 586.516 64.8266 595.719 55.7553 604.091C38.4486 620.066 17.1362 633.334 -7.21712 632.705C-33.7876 632.019 -57.5556 616.365 -79.1666 602.132L-79.1713 602.129L-79.1935 602.114C-80.1815 601.464 -81.1649 600.816 -82.1439 600.173C-109.833 581.984 -136.453 562.166 -161.826 540.864C-186.423 520.212 -210.312 498.296 -232.037 474.613C-250.673 454.297 -267.384 430.716 -271.405 402.802C-273.126 390.85 -272.475 378.447 -268.537 366.976C-263.87 353.388 -254.459 342.487 -244.259 332.67C-241.621 330.131 -238.92 327.641 -236.217 325.149L-236.215 325.147C-227.745 317.337 -219.249 309.504 -212.574 300.069ZM-196.556 257.657C-196.553 257.641 -196.55 257.624 -196.548 257.606C-193.272 226.068 -202.373 196.525 -211.488 166.941C-219.251 141.741 -227.024 116.511 -227.165 89.9923C-227.304 63.7783 -219.643 36.0388 -198.737 18.771C-180.272 3.51693 -154.978 -0.965292 -131.73 2.68303C-75.4852 11.5073 -43.2053 65.4933 -31.7458 116.925C-29.0321 129.102 -27.2319 141.443 -25.4317 153.783C-23.5118 166.944 -21.592 180.105 -18.5642 193.066C-15.7776 204.992 -12.0448 216.764 -6.46386 227.696C-0.690833 239.008 7.06462 249.022 16.3701 257.648C28.7925 269.165 43.091 278.138 57.3934 287.114C67.1847 293.258 76.9778 299.404 86.1721 306.367C97.7725 315.154 108.202 325.334 116.025 337.674C120.232 344.311 123.77 351.317 127.309 358.324L127.31 358.324L127.31 358.325C130.447 364.535 133.584 370.746 137.186 376.701C144.198 388.289 153.405 399.4 165.814 405.411C168.515 406.72 171.357 407.784 174.276 408.499C174.86 408.643 175.437 408.774 176.008 408.904C178.793 409.538 181.414 410.134 183.864 411.899C188.866 415.5 191.897 421.522 192.834 427.517C195.08 441.872 184.644 454.519 175.987 464.707C168.955 472.983 161.903 481.241 154.851 489.499L154.849 489.501C151.326 493.628 147.802 497.754 144.281 501.883C137.328 510.035 130.381 518.191 123.433 526.347L123.431 526.35L123.428 526.353L123.426 526.356L123.423 526.359L123.421 526.362L123.418 526.365L123.416 526.367L123.413 526.37L123.411 526.373L123.408 526.376L123.406 526.379L123.403 526.382L123.401 526.385L123.399 526.388L123.396 526.39L123.394 526.393L123.38 526.409L123.373 526.417L123.364 526.428C109.271 542.973 95.1778 559.518 81.0437 576.026C65.2252 594.502 48.0411 613.616 25.8021 624.401C14.7099 629.781 2.49367 632.615 -9.85882 631.798C-23.3878 630.904 -36.2788 626.001 -48.2293 619.835C-61.4701 613.002 -73.9804 604.695 -86.3652 596.44C-99.8352 587.462 -113.048 578.098 -125.981 568.362C-151.697 549.003 -176.315 528.186 -199.669 506.034L-200.72 505.038L-200.72 505.037C-222.321 484.552 -245.011 463.034 -259.189 436.549C-271.247 414.022 -276.519 385.752 -265.6 361.715C-258.901 346.966 -247.192 336.183 -235.46 325.378C-225.528 316.231 -215.579 307.068 -208.64 295.472C-201.75 283.956 -198.055 270.927 -196.556 257.657ZM-204.549 305.718C-196.062 293.722 -191.624 279.559 -189.992 265.056C-188.54 251.061 -189.555 236.93 -192.106 223.119C-194.884 208.106 -199.56 192.927 -204.268 177.645C-215.771 140.307 -227.463 102.352 -212.126 64.7076C-203.329 43.1138 -185.363 27.6672 -162.732 22.1573C-141.278 16.9345 -117.779 20.2015 -98.2138 30.288C-75.4867 42.0046 -58.3876 62.7053 -46.9931 85.2244C-35.0408 108.847 -29.6867 134.389 -25.8301 160.374C-25.5085 162.54 -25.1922 164.713 -24.8752 166.891L-24.8742 166.897C-21.583 189.504 -18.2285 212.546 -8.39248 233.336C-2.5737 245.635 5.59974 256.417 15.6758 265.548C26.0119 274.915 37.7448 282.56 49.5049 289.991C50.3223 290.508 51.1405 291.024 51.9591 291.541L51.9594 291.541C74.5584 305.803 97.4342 320.24 111.528 343.705C114.862 349.256 117.779 355.039 120.697 360.822L120.697 360.823C124.285 367.934 127.872 375.044 132.231 381.72C140.189 393.905 151.344 405.552 166.092 408.763C171.063 409.844 174.968 411.362 178.291 415.429C181.453 419.3 183.312 424.269 183.713 429.236C184.728 441.835 176.079 452.975 168.444 462.044C154.702 478.367 140.82 494.577 126.939 510.786L126.938 510.787L126.934 510.792L126.933 510.793L126.932 510.794L126.931 510.794L126.931 510.795L126.93 510.796L126.929 510.797L126.928 510.798L126.927 510.799L126.926 510.8L126.926 510.801L126.925 510.802L126.924 510.803L126.923 510.804L126.922 510.805L126.922 510.806L126.921 510.807L126.92 510.808L126.919 510.809L126.918 510.81C120.127 518.74 113.335 526.671 106.56 534.614C103.345 538.384 100.133 542.157 96.9205 545.93L96.9172 545.934L96.914 545.938L96.9107 545.942L96.9075 545.946L96.9045 545.949C89.9528 554.114 83.0013 562.28 76.019 570.419C68.3463 579.363 60.4556 588.154 51.7896 596.153C35.2537 611.417 14.892 624.091 -8.37614 623.489C-33.7601 622.833 -56.4662 607.879 -77.1132 594.28L-77.1168 594.278L-77.1341 594.266C-78.079 593.644 -79.0195 593.025 -79.9557 592.41C-106.406 575.033 -131.833 556.104 -156.07 535.756C-179.567 516.029 -202.388 495.093 -223.141 472.468C-240.946 453.059 -256.91 430.531 -260.751 403.864C-262.397 392.444 -261.774 380.593 -258.01 369.633C-253.552 356.653 -244.562 346.238 -234.817 336.86C-232.299 334.437 -229.721 332.06 -227.142 329.682L-227.141 329.682C-219.047 322.219 -210.928 314.734 -204.549 305.718ZM-189.203 265.111C-186.091 235.006 -194.78 206.802 -203.481 178.559C-210.896 154.487 -218.321 130.387 -218.456 105.055C-218.589 80.0216 -211.272 53.5298 -191.309 37.0389C-173.673 22.4711 -149.517 18.1903 -127.314 21.6748C-73.5971 30.1022 -42.767 81.666 -31.8215 130.786C-29.2307 142.414 -27.5116 154.198 -25.7926 165.981C-23.958 178.557 -22.1234 191.133 -19.2292 203.518C-16.5667 214.911 -13.0011 226.159 -7.66989 236.602C-2.15285 247.41 5.25637 256.976 14.1476 265.222C26.0126 276.221 39.6699 284.792 53.3308 293.365L53.3312 293.365C62.6852 299.235 72.0408 305.106 80.8239 311.759C91.9038 320.151 101.865 329.874 109.338 341.661C113.357 348.001 116.737 354.694 120.118 361.387C123.114 367.319 126.111 373.252 129.552 378.94C136.251 390.011 145.048 400.627 156.906 406.37C159.488 407.621 162.204 408.637 164.992 409.321C165.55 409.458 166.101 409.584 166.646 409.708C169.303 410.313 171.804 410.882 174.142 412.565C178.916 416 181.81 421.751 182.706 427.472C184.85 441.178 174.883 453.255 166.617 462.984C159.841 470.958 153.046 478.916 146.251 486.874L146.25 486.875L146.249 486.876L146.243 486.884L146.237 486.891L146.231 486.898C142.93 490.763 139.63 494.629 136.331 498.496C129.682 506.292 123.038 514.092 116.393 521.893C102.917 537.713 89.4416 553.533 75.9255 569.319C60.818 586.965 44.4046 605.221 23.164 615.522C12.5719 620.658 0.905403 623.368 -10.8901 622.587C-23.8122 621.732 -36.1228 617.05 -47.5372 611.16C-60.1842 604.635 -72.1329 596.699 -83.9618 588.816C-96.8283 580.24 -109.45 571.295 -121.804 561.994C-146.37 543.502 -169.884 523.618 -192.192 502.457L-193.2 501.501C-213.83 481.937 -235.5 461.385 -249.04 436.09C-260.557 414.575 -265.593 387.577 -255.165 364.62C-248.765 350.533 -237.581 340.233 -226.375 329.913L-226.375 329.913C-216.888 321.175 -207.385 312.424 -200.758 301.348C-194.166 290.331 -190.634 277.867 -189.206 265.171C-189.203 265.151 -189.203 265.13 -189.203 265.111ZM-182.656 272.62C-184.211 286.439 -188.44 299.936 -196.526 311.367C-202.606 319.96 -210.343 327.093 -218.058 334.205C-220.517 336.473 -222.975 338.738 -225.375 341.048C-234.664 349.987 -243.234 359.915 -247.483 372.289C-251.071 382.738 -251.665 394.037 -250.097 404.926C-246.435 430.346 -231.219 451.821 -214.248 470.324C-194.467 491.888 -172.714 511.844 -150.317 530.648C-127.217 550.042 -102.98 568.084 -77.7699 584.646C-76.8713 585.236 -75.9685 585.831 -75.0616 586.428C-55.3799 599.39 -33.7347 613.646 -9.53532 614.272C12.6477 614.847 32.0595 602.766 47.825 588.216C56.0859 580.591 63.6092 572.21 70.9225 563.685C77.4538 556.072 83.9565 548.435 90.4592 540.797C93.6492 537.05 96.8393 533.303 100.033 529.56C106.493 521.985 112.969 514.423 119.445 506.861C132.679 491.408 145.914 475.954 159.016 460.391C166.296 451.743 174.542 441.121 173.573 429.106C173.192 424.369 171.419 419.63 168.403 415.937C165.233 412.056 161.506 410.608 156.763 409.576C142.712 406.518 132.084 395.418 124.501 383.809C120.347 377.447 116.928 370.671 113.509 363.894L113.509 363.894C110.728 358.381 107.946 352.868 104.768 347.577C91.3331 325.21 69.5271 311.447 47.9853 297.852C47.206 297.36 46.427 296.869 45.6487 296.377C34.4408 289.294 23.2569 282.007 13.4046 273.08C3.80243 264.379 -3.98628 254.105 -9.53026 242.385C-18.9033 222.572 -22.1003 200.616 -25.2372 179.073C-25.54 176.994 -25.8422 174.918 -26.1493 172.849C-29.8248 148.081 -34.9292 123.733 -46.3222 101.217C-57.1853 79.7485 -73.4854 60.0156 -95.1522 48.8462C-113.805 39.2303 -136.208 36.1156 -156.661 41.0952C-178.235 46.3476 -195.364 61.0757 -203.751 81.6611C-218.372 117.545 -207.227 153.723 -196.263 189.314L-196.263 189.314C-191.776 203.88 -187.32 218.347 -184.672 232.655C-182.238 245.816 -181.271 259.282 -182.656 272.62ZM-181.873 272.733C-181.875 272.75 -181.877 272.766 -181.881 272.782C-183.247 284.869 -186.613 296.734 -192.89 307.223C-199.207 317.779 -208.263 326.119 -217.305 334.446C-227.986 344.283 -238.646 354.1 -244.745 367.526C-254.682 389.404 -249.882 415.132 -238.907 435.633C-226.005 459.737 -205.354 479.322 -185.696 497.965L-185.696 497.965L-184.729 498.882C-163.466 519.05 -141.053 538.003 -117.64 555.628C-105.865 564.493 -93.8349 573.018 -81.5707 581.193C-70.2987 588.707 -58.9107 596.27 -46.8584 602.488C-35.9801 608.102 -24.2476 612.563 -11.9324 613.379C-0.69291 614.122 10.4241 611.539 20.517 606.645C40.7593 596.828 56.4007 579.429 70.7984 562.613C83.6211 547.636 96.4061 532.627 109.191 517.618C115.583 510.113 121.976 502.609 128.373 495.109C131.519 491.42 134.668 487.732 137.817 484.045C144.297 476.456 150.778 468.867 157.239 461.262C165.115 451.994 174.613 440.487 172.57 427.429C171.719 421.979 168.963 416.504 164.416 413.232C162.191 411.631 159.811 411.089 157.283 410.514L157.279 410.513C156.76 410.395 156.235 410.275 155.703 410.145C153.044 409.491 150.454 408.523 147.991 407.331C136.686 401.855 128.299 391.736 121.913 381.179C118.633 375.758 115.777 370.104 112.921 364.45L112.921 364.449C109.699 358.07 106.477 351.69 102.646 345.647C95.5265 334.413 86.033 325.148 75.4733 317.15C67.1028 310.81 58.187 305.215 49.2728 299.621L49.2726 299.621L49.2724 299.621L49.2722 299.621L49.272 299.62L49.2718 299.62L49.2716 299.62L49.2714 299.62L49.2712 299.62L49.271 299.62L49.2708 299.62L49.2706 299.619L49.2704 299.619L49.2702 299.619L49.27 299.619L49.2698 299.619L49.2696 299.619L49.2694 299.618L49.2692 299.618L49.269 299.618C36.2485 291.447 23.2314 283.279 11.9228 272.794C3.44497 264.934 -3.61801 255.813 -8.87806 245.509C-13.9607 235.554 -17.3592 224.831 -19.8975 213.971C-22.6538 202.174 -24.401 190.195 -26.1482 178.216L-26.1483 178.215L-26.1485 178.214L-26.1486 178.213L-26.1488 178.213L-26.1489 178.212L-26.1491 178.211L-26.1492 178.21L-26.1494 178.209L-26.1496 178.209L-26.1497 178.208L-26.1499 178.207L-26.15 178.206L-26.1502 178.205L-26.1503 178.205L-26.1505 178.204L-26.1506 178.203L-26.1508 178.202L-26.1509 178.201L-26.1511 178.201L-26.1511 178.2L-26.1511 178.2L-26.1511 178.2L-26.1511 178.199L-26.1511 178.199L-26.1511 178.199L-26.1512 178.199L-26.1512 178.198L-26.1512 178.198L-26.1512 178.198L-26.1512 178.197L-26.1512 178.197L-26.1512 178.197L-26.1512 178.197L-26.1513 178.196L-26.1513 178.196L-26.1513 178.196L-26.1513 178.195L-26.1513 178.195C-27.7899 166.963 -29.4285 155.731 -31.8984 144.648C-42.3288 97.8398 -71.7088 48.6981 -122.899 40.6676C-144.056 37.3491 -167.074 41.4285 -183.88 55.31C-202.902 71.0231 -209.874 96.2683 -209.748 120.121C-209.619 144.265 -202.543 167.236 -195.475 190.179C-187.176 217.117 -178.89 244.017 -181.873 272.733ZM-188.504 317.015C-180.816 306.15 -176.797 293.321 -175.319 280.184C-174.001 267.504 -174.922 254.701 -177.234 242.191C-179.752 228.586 -183.989 214.83 -188.255 200.98C-198.68 167.136 -209.276 132.735 -195.374 98.611C-187.396 79.033 -171.107 65.0261 -150.589 60.0299C-131.137 55.2934 -109.83 58.2547 -92.0905 67.4C-71.4853 78.0213 -55.9816 96.7882 -45.6512 117.206C-34.8185 138.616 -29.9651 161.767 -26.4696 185.319C-26.1777 187.286 -25.8905 189.259 -25.6027 191.235C-22.6205 211.719 -19.5812 232.595 -10.6689 251.432C-5.39976 262.572 2.0055 272.34 11.1315 280.609C20.4978 289.098 31.1318 296.027 41.7886 302.761L42.6299 303.292L44.0053 304.161C64.4894 317.089 85.2275 330.177 98.0039 351.447C101.025 356.477 103.67 361.719 106.314 366.961L106.314 366.961C109.565 373.405 112.816 379.849 116.766 385.897C123.971 396.932 134.072 407.484 147.428 410.39C151.944 411.375 155.49 412.753 158.509 416.447C161.38 419.96 163.066 424.47 163.43 428.977C164.351 440.405 156.51 450.51 149.585 458.737C137.141 473.516 124.572 488.193 112.003 502.87C105.831 510.077 99.6592 517.283 93.5022 524.502C90.4281 528.106 87.3573 531.713 84.2867 535.319L84.2858 535.32L84.2849 535.321L84.2841 535.322L84.2832 535.323L84.2824 535.324L84.2815 535.325L84.2807 535.326L84.2798 535.327L84.279 535.328L84.2781 535.329L84.2773 535.33L84.2764 535.331L84.2756 535.332L84.2747 535.333L84.2738 535.334L84.273 535.335L84.2721 535.336L84.2713 535.337C78.1308 542.55 71.9905 549.761 65.8231 556.951C58.8685 565.059 51.7134 573.028 43.8578 580.279C28.864 594.117 10.402 605.605 -10.6959 605.058C-33.7099 604.463 -54.2933 590.906 -73.0111 578.578L-73.0165 578.575L-73.0177 578.574L-73.0422 578.558L-73.0469 578.555L-73.0769 578.535C-73.9164 577.982 -74.7521 577.432 -75.5842 576.885C-99.554 561.137 -122.598 543.982 -144.562 525.542C-165.861 507.661 -186.544 488.686 -205.353 468.18C-221.493 450.585 -235.961 430.164 -239.444 405.989C-240.936 395.633 -240.37 384.887 -236.957 374.948C-232.916 363.18 -224.767 353.738 -215.933 345.238C-213.649 343.039 -211.31 340.882 -208.969 338.724C-201.637 331.963 -194.282 325.182 -188.504 317.015ZM-174.533 280.271C-171.704 252.976 -179.581 227.408 -187.468 201.803C-194.189 179.986 -200.918 158.143 -201.039 135.184C-201.159 112.512 -194.534 88.5132 -176.452 73.5767C-160.477 60.3806 -138.597 56.5039 -118.484 59.6584C-69.819 67.2929 -41.8903 114.009 -31.9736 158.509C-29.6252 169.047 -28.0671 179.728 -26.5091 190.409C-24.8467 201.805 -23.1843 213.2 -20.562 224.423C-18.1489 234.751 -14.9168 244.945 -10.0846 254.415C-5.08283 264.215 1.63642 272.891 9.69857 280.366C20.4514 290.335 32.8279 298.102 45.2079 305.871L45.2087 305.872L45.2093 305.872C53.6861 311.192 62.1645 316.513 70.1244 322.542C80.1637 330.145 89.1872 338.954 95.9573 349.633C99.5996 355.379 102.663 361.444 105.727 367.51C108.442 372.886 111.158 378.263 114.277 383.418C120.352 393.458 128.329 403.082 139.082 408.289C141.424 409.424 143.889 410.345 146.42 410.965C146.924 411.089 147.423 411.202 147.915 411.314C150.319 411.861 152.58 412.375 154.695 413.897C159.014 417.004 161.632 422.206 162.441 427.382C164.381 439.793 155.352 450.73 147.868 459.538C141.717 466.777 135.548 474.001 129.38 481.224C126.393 484.722 123.405 488.22 120.42 491.72C114.338 498.851 108.26 505.987 102.182 513.122C90.0258 527.393 77.8692 541.664 65.6771 555.904C51.9892 571.89 37.121 588.431 17.878 597.763C8.28431 602.416 -2.28227 604.87 -12.9658 604.165C-24.6738 603.391 -35.8262 599.148 -46.1684 593.811C-57.6271 587.898 -68.4533 580.708 -79.1693 573.565C-90.8301 565.793 -102.269 557.686 -113.464 549.258C-135.725 532.499 -157.036 514.48 -177.254 495.302L-178.178 494.425C-196.866 476.702 -216.496 458.085 -228.763 435.171C-239.197 415.682 -243.761 391.224 -234.314 370.429C-228.515 357.665 -218.38 348.331 -208.226 338.979C-199.629 331.062 -191.018 323.132 -185.011 313.096C-179.034 303.107 -175.831 291.805 -174.535 280.294L-174.534 280.282L-174.533 280.271ZM-167.98 287.747C-169.382 300.201 -173.191 312.363 -180.479 322.664C-185.961 330.412 -192.938 336.844 -199.895 343.258C-202.112 345.302 -204.327 347.345 -206.491 349.427C-214.869 357.49 -222.599 366.445 -226.431 377.604C-229.669 387.033 -230.206 397.227 -228.79 407.05C-225.487 429.978 -211.766 449.347 -196.458 466.035C-178.62 485.482 -159.005 503.478 -138.807 520.434C-117.978 537.922 -96.1261 554.189 -73.396 569.122C-72.5884 569.653 -71.7772 570.187 -70.9623 570.724L-70.9561 570.728C-53.2037 582.42 -33.6806 595.278 -11.855 595.843C8.15649 596.361 25.669 585.469 39.892 572.342C47.3435 565.465 54.1281 557.906 60.7254 550.217C66.6543 543.307 72.5569 536.374 78.4595 529.441L78.4608 529.439L78.4637 529.436L78.4666 529.432L78.4696 529.429L78.4725 529.426L78.4754 529.422C81.3068 526.096 84.1382 522.771 86.9725 519.447C92.8043 512.61 98.6506 505.783 104.497 498.957L104.503 498.95C116.426 485.028 128.35 471.104 140.154 457.082C146.726 449.276 154.163 439.69 153.288 428.847C152.944 424.57 151.342 420.289 148.618 416.955C145.752 413.447 142.384 412.137 138.096 411.204C125.436 408.449 115.863 398.446 109.033 387.986C105.288 382.25 102.206 376.142 99.1234 370.032C96.6152 365.061 94.1066 360.089 91.2403 355.316C79.1252 335.146 59.4592 322.734 40.0344 310.475L39.2945 310.008L38.6887 309.625L37.9288 309.145C27.822 302.759 17.7392 296.189 8.8568 288.139C0.205601 280.299 -6.81369 271.04 -11.8103 260.48C-20.2606 242.617 -23.1432 222.823 -25.9716 203.401L-25.9729 203.392C-26.2454 201.521 -26.5173 199.654 -26.7937 197.792C-30.109 175.457 -34.7105 153.501 -44.9852 133.196C-54.7842 113.829 -69.4889 96.0296 -89.0328 85.9542C-105.86 77.2785 -126.07 74.4717 -144.521 78.965C-163.983 83.7049 -179.434 96.9919 -187.001 115.562C-200.187 147.924 -190.138 180.547 -180.252 212.643C-176.207 225.777 -172.189 238.823 -169.801 251.726C-167.605 263.586 -166.731 275.726 -167.98 287.747ZM-167.197 287.86C-167.198 287.867 -167.199 287.874 -167.2 287.88L-167.201 287.889L-167.204 287.903C-168.435 298.81 -171.475 309.515 -177.138 318.979C-182.833 328.493 -190.998 336.012 -199.149 343.518C-208.779 352.387 -218.39 361.238 -223.888 373.342C-232.844 393.058 -228.514 416.244 -218.624 434.721C-206.995 456.443 -188.384 474.093 -170.669 490.895L-169.786 491.732C-150.615 509.915 -130.406 527.005 -109.295 542.896C-98.6788 550.889 -87.8329 558.576 -76.7744 565.946C-66.6131 572.719 -56.3488 579.536 -45.4848 585.142C-35.6799 590.202 -25.1056 594.224 -14.0045 594.958C-3.87676 595.628 6.13904 593.3 15.2336 588.89C33.4772 580.043 47.5758 564.358 60.5526 549.201C72.2255 535.567 83.8649 521.903 95.5041 508.239L95.5074 508.235L95.5107 508.231L95.514 508.227L95.5172 508.223L95.5205 508.22L95.5238 508.216L95.5271 508.212L95.5304 508.208L95.5336 508.204L95.5344 508.203L95.5352 508.202C101.177 501.579 106.819 494.956 112.464 488.336C115.42 484.87 118.378 481.406 121.336 477.942L121.338 477.939L121.343 477.933C127.065 471.233 132.786 464.532 138.491 457.818C145.586 449.47 154.147 439.104 152.307 427.34C151.539 422.436 149.06 417.51 144.969 414.566C142.968 413.126 140.827 412.639 138.552 412.121L138.551 412.121C138.083 412.015 137.61 411.907 137.132 411.79C134.731 411.2 132.391 410.326 130.168 409.249C119.969 404.309 112.401 395.181 106.638 385.657C103.68 380.768 101.104 375.668 98.5284 370.569C95.6239 364.818 92.7196 359.068 89.2667 353.62C82.8484 343.494 74.2918 335.143 64.774 327.934C57.2263 322.217 49.1869 317.172 41.1489 312.127C29.4084 304.759 17.6709 297.393 7.47379 287.94C-0.174911 280.849 -6.54792 272.62 -11.2927 263.323C-15.8763 254.342 -18.9413 244.672 -21.2302 234.877C-23.7157 224.237 -25.2916 213.433 -26.8675 202.629C-28.3451 192.499 -29.8228 182.368 -32.0504 172.372C-41.452 130.184 -67.9307 85.89 -114.068 78.6524C-133.136 75.6617 -153.878 79.3369 -169.023 91.8469C-186.164 106.006 -192.446 128.757 -192.331 150.248C-192.217 171.673 -185.833 192.23 -179.529 212.534L-179.529 212.534L-179.524 212.551C-178.838 214.76 -178.153 216.965 -177.477 219.168C-170.643 241.452 -164.756 264.358 -167.197 287.86ZM-172.456 328.314C-165.568 318.577 -161.967 307.082 -160.643 295.312C-159.463 283.947 -160.289 272.472 -162.36 261.26C-164.617 249.061 -168.415 236.728 -172.24 224.311L-172.24 224.31L-172.24 224.309L-172.24 224.309L-172.24 224.309L-172.24 224.308L-172.24 224.308L-172.24 224.307L-172.24 224.307L-172.241 224.307L-172.241 224.306L-172.241 224.306L-172.241 224.305C-181.587 193.958 -191.087 163.113 -178.619 132.512C-171.464 114.949 -156.851 102.383 -138.444 97.8992C-120.994 93.648 -101.88 96.3012 -85.9659 104.506C-67.4822 114.035 -53.5764 130.866 -44.3089 149.183C-34.5946 168.382 -30.2429 189.142 -27.1088 210.26C-26.8477 212.02 -26.5909 213.784 -26.3335 215.552C-23.6602 233.917 -20.9357 252.634 -12.9449 269.524C-8.2241 279.505 -1.58959 288.257 6.58771 295.666C14.9851 303.277 24.5189 309.487 34.0736 315.525C34.508 315.8 34.9427 316.075 35.3776 316.349L36.0615 316.781C54.4291 328.373 73.0251 340.11 84.4811 359.182C87.1908 363.694 89.5625 368.395 91.9338 373.095C94.8485 378.872 97.7627 384.648 101.303 390.07C107.758 399.954 116.804 409.409 128.767 412.013C132.828 412.897 136.016 414.138 138.73 417.459C141.306 420.614 142.822 424.666 143.148 428.713C143.974 438.972 136.943 448.04 130.726 455.425C119.58 468.663 108.322 481.809 97.0638 494.954L97.0634 494.955L97.0615 494.957C91.5176 501.431 85.9738 507.904 80.4437 514.388C77.7321 517.567 75.0235 520.749 72.3149 523.93L72.3052 523.941C66.7542 530.461 61.2034 536.981 55.6278 543.481C49.3902 550.752 42.9727 557.899 35.9265 564.403C22.4752 576.818 5.91253 587.117 -13.0138 586.627C-33.6552 586.091 -52.1165 573.932 -68.905 562.875C-69.6767 562.367 -70.445 561.861 -71.2098 561.358C-92.7003 547.24 -113.361 531.858 -133.053 515.326C-152.15 499.293 -170.697 482.277 -187.563 463.89C-202.039 448.11 -215.012 429.794 -218.135 408.113C-219.473 398.821 -218.964 389.179 -215.902 380.262C-212.278 369.709 -204.97 361.241 -197.048 353.616C-195.001 351.646 -192.906 349.715 -190.809 347.781L-190.809 347.78L-190.808 347.78L-190.808 347.78L-190.808 347.779L-190.807 347.779L-190.807 347.779L-190.806 347.778L-190.806 347.778L-190.806 347.778L-190.805 347.778L-190.805 347.777L-190.805 347.777L-190.804 347.777L-190.804 347.776L-190.803 347.776L-190.803 347.776L-190.803 347.775C-184.229 341.714 -177.637 335.635 -172.456 328.314ZM-159.857 295.392C-157.557 273.178 -163.122 251.53 -169.581 230.467C-170.223 228.375 -170.873 226.28 -171.525 224.183C-177.483 204.993 -183.515 185.563 -183.623 165.311C-183.731 145 -177.794 123.497 -161.595 110.115C-147.279 98.29 -127.676 94.8175 -109.654 97.6444C-66.0433 104.485 -41.0135 146.356 -32.1281 186.233C-30.022 195.683 -28.625 205.26 -27.2279 214.837C-25.7378 225.052 -24.2477 235.268 -21.8971 245.328C-19.7333 254.592 -16.8346 263.736 -12.5007 272.228C-8.01291 281.022 -1.98612 288.804 5.24938 295.512C14.8909 304.451 25.9891 311.416 37.0903 318.382C44.6891 323.15 52.2893 327.92 59.4247 333.324C68.4233 340.139 76.5109 348.033 82.5787 357.605C85.8437 362.756 88.5899 368.193 91.3362 373.63C93.7712 378.451 96.2063 383.272 99.0033 387.894C104.455 396.902 111.613 405.534 121.258 410.207C123.362 411.226 125.575 412.054 127.848 412.61C128.299 412.721 128.744 412.822 129.184 412.922C131.334 413.41 133.357 413.87 135.247 415.231C139.112 418.011 141.452 422.663 142.177 427.293C143.916 438.409 135.822 448.204 129.12 456.093C123.729 462.438 118.322 468.77 112.915 475.102L112.913 475.104L112.905 475.114C110.107 478.391 107.309 481.668 104.512 484.947C99.1827 491.196 93.8564 497.449 88.5301 503.702L88.5163 503.718L88.5147 503.72L88.5107 503.724C77.4954 516.656 66.4797 529.588 55.4311 542.492C43.1641 556.819 29.8388 571.647 12.5935 580.01C3.99906 584.177 -5.46822 586.379 -15.039 585.745C-25.5332 585.051 -35.5271 581.249 -44.7969 576.467C-55.0661 571.167 -64.7697 564.724 -74.3751 558.321C-84.8301 551.353 -95.0853 544.085 -105.123 536.528C-125.083 521.502 -144.189 505.347 -162.315 488.154L-163.133 487.378C-179.886 471.491 -197.486 454.801 -208.482 434.261C-217.832 416.798 -221.924 394.882 -213.458 376.246C-208.26 364.804 -199.174 356.436 -190.07 348.053C-182.364 340.956 -174.645 333.848 -169.261 324.853C-163.897 315.892 -161.022 305.752 -159.859 295.423C-159.858 295.413 -159.857 295.403 -159.857 295.392ZM-153.307 302.876C-154.555 313.963 -157.944 324.793 -164.433 333.963C-169.312 340.86 -175.523 346.587 -181.716 352.296C-183.696 354.122 -185.674 355.946 -187.607 357.806C-195.074 364.992 -201.962 372.974 -205.377 382.921C-208.263 391.327 -208.745 400.416 -207.482 409.176C-204.538 429.61 -192.313 446.874 -178.671 461.747C-162.776 479.076 -145.299 495.111 -127.301 510.221C-108.744 525.8 -89.2745 540.293 -69.0259 553.597C-68.3167 554.063 -67.6042 554.532 -66.8886 555.003L-66.8593 555.023L-66.8553 555.025C-51.0321 565.447 -33.6318 576.907 -14.1762 577.412C3.66496 577.875 19.2769 568.17 31.9575 556.466C38.5986 550.337 44.6464 543.6 50.5256 536.746C55.8685 530.518 61.1886 524.269 66.5086 518.02C68.9748 515.124 71.4409 512.227 73.9093 509.332C79.1169 503.226 84.3372 497.131 89.5576 491.035L89.5604 491.032C100.172 478.64 110.784 466.249 121.291 453.77C127.153 446.806 133.781 438.257 133.001 428.583C132.694 424.766 131.263 420.943 128.832 417.968C126.272 414.834 123.262 413.661 119.429 412.827C108.162 410.374 99.6443 401.468 93.5652 392.159C90.2282 387.05 87.4822 381.607 84.7358 376.163C82.5014 371.734 80.2666 367.305 77.7132 363.054C66.9128 345.073 49.3803 334.009 32.064 323.082L32.0638 323.082C31.4453 322.691 30.8271 322.301 30.2095 321.911C21.206 316.221 12.2222 310.369 4.30858 303.198C-3.39383 296.218 -9.64241 287.975 -14.0906 278.574C-21.6181 262.664 -24.1847 245.035 -26.7031 227.737L-26.7032 227.736L-26.7043 227.729C-26.9472 226.061 -27.1896 224.396 -27.4359 222.735C-30.39 202.833 -34.4909 183.268 -43.646 165.176C-52.3818 147.911 -65.4889 132.045 -82.9125 123.062C-97.914 115.328 -115.933 112.827 -132.38 116.836C-149.731 121.063 -163.505 132.908 -170.251 149.465C-182.002 178.307 -173.049 207.376 -164.241 235.977C-160.637 247.678 -157.057 259.301 -154.93 270.797C-152.972 281.358 -152.194 292.168 -153.307 302.876ZM-161.685 241.767C-155.598 261.614 -150.355 282.013 -152.519 302.944C-152.519 302.958 -152.52 302.972 -152.522 302.986C-153.617 312.722 -156.326 322.283 -161.385 330.729C-166.459 339.199 -173.73 345.895 -180.988 352.58C-189.568 360.481 -198.131 368.368 -203.03 379.151C-211.003 396.708 -207.147 417.351 -198.339 433.802C-187.979 453.152 -171.399 468.875 -155.618 483.84L-154.841 484.577C-137.76 500.779 -119.757 516.004 -100.948 530.162C-91.4902 537.281 -81.8257 544.131 -71.9751 550.697C-62.9257 556.729 -53.7827 562.8 -44.1083 567.793C-35.3756 572.3 -25.9586 575.882 -16.0725 576.536C-7.05772 577.132 1.85888 575.057 9.95412 571.131C26.2011 563.251 38.7557 549.282 50.3117 535.784C60.6751 523.681 71.0071 511.551 81.3393 499.421L81.3536 499.404C86.4213 493.455 91.489 487.505 96.5605 481.559C99.0167 478.68 101.474 475.802 103.932 472.924C109.21 466.744 114.487 460.564 119.749 454.37C126.061 446.941 133.686 437.717 132.049 427.249C131.366 422.894 129.163 418.513 125.527 415.899C123.75 414.62 121.847 414.187 119.827 413.728L119.825 413.728C119.41 413.634 118.99 413.538 118.565 413.434C116.422 412.91 114.334 412.131 112.351 411.169C103.256 406.764 96.5061 398.628 91.3684 390.136C88.7323 385.78 86.4374 381.236 84.1426 376.692C81.555 371.569 78.9676 366.446 75.8917 361.593C70.1757 352.575 62.5549 345.139 54.0778 338.718C47.3538 333.625 40.1915 329.13 33.0302 324.636L33.0299 324.636L33.0297 324.636L33.0295 324.636L33.0293 324.636L33.0291 324.635L33.0289 324.635L33.0287 324.635L33.0285 324.635L33.0283 324.635L33.0281 324.635L33.0279 324.635L33.0277 324.634L33.0276 324.634L33.0274 324.634L33.0272 324.634L33.027 324.634C22.5684 318.071 12.1122 311.51 3.02824 303.088C-3.79159 296.764 -9.47245 289.427 -13.7043 281.137C-17.7895 273.133 -20.5212 264.514 -22.5607 255.783C-24.7768 246.3 -26.1817 236.671 -27.5865 227.042L-27.5866 227.042L-27.5866 227.041L-27.5867 227.041L-27.5868 227.04L-27.5869 227.04L-27.587 227.04L-27.587 227.039L-27.5871 227.039L-27.5872 227.038L-27.5873 227.038L-27.5873 227.038L-27.5874 227.037L-27.5875 227.037L-27.5876 227.036L-27.5876 227.036C-28.9035 218.016 -30.2194 208.996 -32.2025 200.097C-40.573 162.53 -64.1526 123.083 -105.236 116.637C-122.215 113.974 -140.681 117.245 -154.166 128.385C-169.423 140.988 -175.016 161.245 -174.914 180.375C-174.814 199.463 -169.127 217.776 -163.511 235.863C-162.899 237.833 -162.288 239.801 -161.685 241.767ZM-156.409 339.612C-150.32 331.006 -147.139 320.844 -145.968 310.439C-144.925 300.39 -145.655 290.243 -147.493 280.325C-149.491 269.53 -152.851 258.618 -156.234 247.632C-164.504 220.78 -172.908 193.49 -161.875 166.409C-155.54 150.861 -142.603 139.735 -126.31 135.765C-110.864 132 -93.9408 134.346 -79.8524 141.61C-63.4891 150.046 -51.1809 164.944 -42.9765 181.158C-34.3818 198.145 -30.5316 216.515 -27.7588 235.201C-27.5283 236.755 -27.3013 238.313 -27.0741 239.875L-27.0724 239.886C-24.7081 256.128 -22.2987 272.678 -15.2318 287.616C-11.0593 296.438 -5.19324 304.174 2.03307 310.723C9.46284 317.456 17.8957 322.951 26.348 328.292C26.7072 328.519 27.0667 328.746 27.4263 328.973L28.0923 329.393C44.3501 339.653 60.81 350.04 70.949 366.921C73.3466 370.913 75.445 375.072 77.5431 379.23L77.5433 379.23C80.1215 384.34 82.6991 389.449 85.8309 394.244C91.5333 402.977 99.5257 411.336 110.095 413.638C113.7 414.422 116.531 415.525 118.939 418.474C121.223 421.269 122.568 424.865 122.856 428.451C123.589 437.54 117.367 445.571 111.858 452.115C101.992 463.836 92.025 475.474 82.0588 487.111L82.0579 487.112C77.1605 492.83 72.2632 498.548 67.3781 504.276C65.0295 507.03 62.6833 509.786 60.337 512.542L60.3315 512.549L60.326 512.555L60.3205 512.562L60.315 512.568L60.3095 512.574L60.3074 512.577L60.3053 512.579L60.3032 512.582L60.3011 512.584L60.299 512.587L60.2968 512.589L60.2947 512.592L60.2926 512.594L60.2905 512.597L60.2884 512.599L60.2863 512.601L60.2843 512.604L60.2822 512.606L60.2801 512.609C55.3364 518.416 50.3925 524.223 45.4264 530.012C39.9048 536.448 34.2251 542.773 27.9892 548.529C16.0804 559.52 1.41599 568.632 -15.3378 568.196C-33.6069 567.721 -49.9454 556.96 -64.8045 547.174C-65.4862 546.725 -66.1647 546.278 -66.8402 545.834C-85.8505 533.344 -104.126 519.739 -121.547 505.114C-138.444 490.929 -154.853 475.871 -169.776 459.603C-182.587 445.638 -194.065 429.428 -196.829 410.24C-198.014 402.01 -197.562 393.475 -194.85 385.578C-191.643 376.239 -185.175 368.744 -178.164 361.996C-176.351 360.251 -174.495 358.54 -172.637 356.827C-166.823 351.466 -160.991 346.089 -156.409 339.612ZM-145.192 310.595C-145.189 310.581 -145.187 310.567 -145.185 310.552C-143.142 290.883 -148.067 271.716 -153.787 253.067C-154.354 251.217 -154.93 249.365 -155.505 247.51C-160.776 230.537 -166.111 213.352 -166.206 195.44C-166.301 177.489 -161.054 158.48 -146.739 146.654C-134.084 136.201 -116.756 133.131 -100.823 135.63C-62.2658 141.679 -40.136 178.704 -32.2807 213.959C-30.418 222.318 -29.1822 230.79 -27.9463 239.261C-26.628 248.299 -25.3096 257.336 -23.2304 266.236C-21.3151 274.434 -18.7518 282.528 -14.9151 290.043C-10.9403 297.83 -5.60563 304.721 0.800751 310.659C9.32949 318.567 19.1474 324.728 28.9679 330.891C35.6901 335.109 42.4136 339.328 48.7257 344.109C56.6824 350.135 63.8332 357.115 69.1986 365.58C72.0867 370.136 74.5158 374.945 76.945 379.755L76.9452 379.755C79.0994 384.02 81.2538 388.285 83.7283 392.375C88.5547 400.351 94.894 407.991 103.436 412.129C105.301 413.033 107.263 413.758 109.276 414.258C109.692 414.361 110.104 414.455 110.511 414.548C112.384 414.975 114.148 415.377 115.799 416.566C119.207 419.018 121.274 423.122 121.913 427.207C123.449 437.027 116.293 445.682 110.372 452.651C105.549 458.327 100.713 463.991 95.8764 469.655L95.8719 469.66L95.8663 469.667L95.8607 469.673C93.4411 472.507 91.0213 475.341 88.6033 478.176C83.8401 483.761 79.0804 489.349 74.3206 494.937C64.6182 506.327 54.9158 517.717 45.1847 529.082C34.3385 541.75 22.5571 554.862 7.30944 562.257C-0.286632 565.941 -8.65278 567.888 -17.1116 567.329C-26.3908 566.715 -35.2285 563.352 -43.4249 559.123C-52.5069 554.438 -61.087 548.739 -69.5804 543.078C-78.8287 536.913 -87.9001 530.484 -96.7801 523.8C-114.437 510.508 -131.339 496.216 -147.373 481.007L-148.109 480.309C-162.919 466.265 -178.478 451.509 -188.201 433.351C-196.466 417.913 -200.089 398.54 -192.604 382.064C-188.006 371.942 -179.968 364.539 -171.914 357.121C-165.1 350.846 -158.276 344.56 -153.514 336.61C-148.769 328.69 -146.225 319.724 -145.192 310.595ZM-138.631 318.003C-139.725 327.724 -142.696 337.22 -148.385 345.261C-152.668 351.315 -158.118 356.34 -163.553 361.35C-165.29 362.952 -167.026 364.553 -168.721 366.185C-175.275 372.494 -181.324 379.502 -184.322 388.235C-186.858 395.62 -187.282 403.604 -186.173 411.301C-183.588 429.241 -172.858 444.399 -160.879 457.458C-146.927 472.667 -131.587 486.743 -115.79 500.006C-99.5063 513.677 -82.421 526.396 -64.6503 538.071C-64.0405 538.471 -63.428 538.875 -62.8127 539.28L-62.7741 539.305L-62.7528 539.319L-62.749 539.322C-48.8551 548.473 -33.5776 558.535 -16.493 558.98C-0.824334 559.389 12.8903 550.87 24.0274 540.591C29.8591 535.209 35.1704 529.294 40.3314 523.276C44.947 517.896 49.5428 512.498 54.1386 507.099L54.1415 507.096C56.3776 504.47 58.6136 501.843 60.8519 499.219C65.4306 493.85 70.0206 488.49 74.6107 483.131L74.6136 483.127L74.6164 483.124L74.6193 483.121L74.6221 483.117L74.6239 483.115L74.6241 483.115L74.6242 483.115L74.6244 483.115L74.6246 483.115L74.6248 483.114L74.6249 483.114L74.6251 483.114L74.6253 483.114L74.6254 483.114L74.6256 483.113L74.6258 483.113L74.626 483.113C83.9255 472.254 93.2253 461.395 102.432 450.46C107.586 444.338 113.404 436.824 112.718 428.32C112.448 424.962 111.188 421.599 109.051 418.982C106.794 416.22 104.143 415.185 100.767 414.451C90.8937 412.301 83.4291 404.49 78.1014 396.333C75.1734 391.85 72.7636 387.073 70.3535 382.296L70.3531 382.296C68.3923 378.409 66.4312 374.522 64.1906 370.792C54.7105 355.008 39.3205 345.296 24.1199 335.703L24.0775 335.677L24.0024 335.629L23.9604 335.603L23.8862 335.556L23.7839 335.491L23.6598 335.413C23.2708 335.168 22.882 334.922 22.4934 334.677C14.5922 329.684 6.70811 324.546 -0.235385 318.254C-6.98779 312.136 -12.4681 304.907 -16.3667 296.665C-22.9703 282.707 -25.2226 267.238 -27.4327 252.06C-27.646 250.595 -27.859 249.132 -28.0755 247.674C-30.6681 230.206 -34.2674 213.031 -42.3031 197.149C-49.9761 181.985 -61.4853 168.055 -76.7882 160.166C-89.9637 153.373 -105.791 151.18 -120.235 154.701C-135.473 158.415 -147.572 168.819 -153.497 183.361C-163.813 208.682 -155.957 234.196 -148.226 259.301L-148.226 259.302C-145.064 269.57 -141.923 279.771 -140.055 289.863C-138.339 299.128 -137.656 308.611 -138.631 318.003ZM-145.891 264.366C-140.545 281.797 -135.941 299.712 -137.846 318.095L-137.847 318.105L-137.848 318.118C-138.81 326.671 -141.192 335.069 -145.637 342.488C-150.089 349.918 -156.467 355.793 -162.836 361.658C-170.364 368.592 -177.877 375.511 -182.175 384.971C-189.167 400.366 -185.781 418.468 -178.058 432.894C-168.972 449.862 -154.432 463.651 -140.593 476.775L-139.9 477.432C-124.91 491.649 -109.11 505.01 -92.6059 517.434C-84.305 523.684 -75.8244 529.694 -67.1796 535.456C-59.2418 540.748 -51.2236 546.074 -42.7364 550.453C-35.0761 554.405 -26.8187 557.547 -18.1454 558.121C-10.2424 558.644 -2.42694 556.823 4.66996 553.381C18.9192 546.471 29.93 534.217 40.0651 522.378C49.1038 511.821 58.1158 501.241 67.1278 490.661C71.6345 485.371 76.1412 480.08 80.6512 474.792C82.9127 472.14 85.1759 469.49 87.4391 466.839L87.4442 466.834C91.9674 461.536 96.4907 456.239 101.001 450.932C106.532 444.422 113.218 436.339 111.784 427.166C111.188 423.356 109.259 419.525 106.079 417.237C104.537 416.128 102.892 415.753 101.143 415.355C100.765 415.268 100.381 415.181 99.9928 415.085C98.1074 414.618 96.2731 413.939 94.5266 413.093C86.5371 409.224 80.6069 402.079 76.0932 394.619C73.7818 390.799 71.7692 386.814 69.7567 382.829L69.7565 382.829C67.4846 378.33 65.2129 373.832 62.5115 369.571C57.4966 361.66 50.8139 355.138 43.3774 349.505C37.4762 345.035 31.1904 341.09 24.9058 337.147L24.9051 337.146C15.7264 331.386 6.55016 325.628 -1.42178 318.237C-7.41399 312.68 -12.4033 306.237 -16.1211 298.953C-19.7084 291.925 -22.1055 284.357 -23.8957 276.691C-25.8409 268.369 -27.0736 259.918 -28.3062 251.468L-28.3063 251.468L-28.3063 251.467L-28.3063 251.467L-28.3063 251.467L-28.3063 251.467L-28.3063 251.466L-28.3063 251.466L-28.3063 251.466L-28.3064 251.465L-28.3064 251.465L-28.3064 251.465L-28.3064 251.465L-28.3064 251.464C-29.4612 243.549 -30.616 235.633 -32.3567 227.822C-39.6984 194.876 -60.378 160.276 -96.4077 154.624C-111.295 152.289 -127.487 155.156 -139.311 164.924C-152.686 175.971 -157.587 193.734 -157.499 210.504C-157.409 227.253 -152.419 243.323 -147.49 259.195L-147.481 259.224L-147.479 259.233C-146.947 260.946 -146.415 262.657 -145.891 264.366ZM-140.361 350.91C-135.072 343.434 -132.311 334.606 -131.294 325.568C-130.387 316.832 -131.022 308.013 -132.614 299.396C-134.352 290.006 -137.274 280.516 -140.215 270.962C-147.407 247.605 -154.715 223.87 -145.116 200.311C-139.603 186.778 -128.342 177.093 -114.161 173.636C-100.716 170.359 -85.9862 172.399 -73.7229 178.72C-59.4812 186.064 -48.7709 199.026 -41.6294 213.139C-34.1542 227.914 -30.8057 243.894 -28.3931 260.146C-28.1913 261.505 -27.9928 262.868 -27.7939 264.233C-25.7382 278.348 -23.6434 292.731 -17.5029 305.712C-13.8778 313.374 -8.78342 320.095 -2.5059 325.783C3.9538 331.637 11.2877 336.415 18.6379 341.06C19.1403 341.378 19.6432 341.695 20.1462 342.013C34.2898 350.938 48.61 359.976 57.4312 374.661C59.5162 378.132 61.341 381.748 63.1656 385.365L63.1659 385.365C65.4074 389.808 67.6486 394.25 70.3719 398.42C75.3231 406.003 82.2607 413.264 91.4376 415.264C94.5864 415.948 97.0582 416.913 99.1618 419.489C101.154 421.928 102.327 425.063 102.578 428.19C103.216 436.108 97.805 443.103 93.004 448.805C84.434 458.984 75.777 469.093 67.1207 479.2C62.8519 484.185 58.5832 489.17 54.3252 494.162C52.244 496.602 50.1649 499.044 48.0858 501.486L48.0837 501.489L48.0816 501.491L48.0795 501.494L48.0774 501.496L48.0753 501.498L48.0732 501.501L48.0711 501.503L48.069 501.506L48.0669 501.508L48.0648 501.511L48.0627 501.513L48.0606 501.516C43.7921 506.529 39.5234 511.543 35.2355 516.541C30.4308 522.14 25.4888 527.643 20.0624 532.652C9.69604 542.22 -3.06784 550.145 -17.6514 549.764C-33.5486 549.35 -47.7661 539.986 -60.6947 531.471L-60.6973 531.47C-61.2884 531.08 -61.8767 530.693 -62.4624 530.308C-78.9934 519.448 -94.886 507.616 -110.035 494.898C-124.732 482.559 -139.003 469.464 -151.984 455.313C-163.13 443.162 -173.112 429.056 -175.518 412.363C-176.552 405.199 -176.156 397.767 -173.795 390.892C-171.006 382.767 -165.378 376.245 -159.279 370.374C-157.702 368.856 -156.088 367.368 -154.472 365.878L-154.472 365.877L-154.471 365.877L-154.471 365.877L-154.47 365.876L-154.47 365.876L-154.47 365.876L-154.469 365.875L-154.469 365.875L-154.469 365.875L-154.468 365.874L-154.468 365.874L-154.467 365.874C-149.413 361.214 -144.344 356.54 -140.361 350.91ZM-130.517 325.72C-130.514 325.707 -130.512 325.694 -130.511 325.68C-128.734 308.568 -133.018 291.892 -137.993 275.666C-138.486 274.06 -138.985 272.453 -139.485 270.844L-139.485 270.843C-144.067 256.085 -148.707 241.143 -148.79 225.567C-148.873 209.977 -144.316 193.462 -131.883 183.192C-120.889 174.11 -105.835 171.445 -91.9929 173.616C-58.4902 178.871 -39.2604 211.049 -32.434 241.683C-30.8137 248.953 -29.7389 256.32 -28.6642 263.687L-28.6642 263.688L-28.6642 263.688L-28.6641 263.688L-28.6641 263.688L-28.6641 263.689L-28.6641 263.689L-28.6641 263.689L-28.6641 263.69L-28.6641 263.69L-28.6641 263.69L-28.664 263.691L-28.664 263.691L-28.6639 263.691C-27.5178 271.548 -26.3717 279.405 -24.5644 287.143C-22.8983 294.276 -20.6684 301.319 -17.331 307.858C-13.8701 314.639 -9.22575 320.636 -3.64822 325.807C3.76864 332.683 12.3055 338.041 20.8446 343.4C26.6904 347.068 32.5371 350.737 38.0264 354.895C44.9425 360.133 51.1574 366.198 55.8204 373.556C58.3302 377.516 60.4419 381.696 62.5536 385.877L62.554 385.878C64.4281 389.588 66.3023 393.299 68.4552 396.856C72.6565 403.8 78.1782 410.448 85.6137 414.05C87.2409 414.838 88.9505 415.47 90.7051 415.906C91.0676 415.996 91.4257 416.078 91.7793 416.158C93.3995 416.528 94.9257 416.875 96.3531 417.903C99.3067 420.026 101.096 423.583 101.65 427.121C102.983 435.646 96.7643 443.159 91.625 449.208C87.4279 454.149 83.2186 459.078 79.0092 464.006C76.9041 466.471 74.799 468.936 72.6955 471.403C68.4974 476.325 64.3024 481.249 60.1073 486.174C51.7265 496.013 43.3455 505.851 34.9397 515.669C25.5153 526.676 15.2746 538.075 2.02459 544.501C-4.57216 547.7 -11.8391 549.394 -19.1861 548.909C-27.2512 548.376 -34.9308 545.452 -42.055 541.776C-49.9475 537.704 -57.405 532.751 -64.7869 527.83C-72.8294 522.469 -80.7181 516.878 -88.4386 511.066C-103.793 499.508 -118.491 487.08 -132.432 473.854L-133.084 473.236C-145.951 461.033 -159.471 448.211 -167.919 432.435C-175.102 419.022 -178.251 402.191 -171.749 387.876C-167.752 379.077 -160.763 372.641 -153.761 366.192C-147.837 360.737 -141.904 355.273 -137.763 348.362C-133.632 341.468 -131.416 333.666 -130.517 325.72ZM-123.955 333.131C-124.895 341.485 -127.447 349.647 -132.336 356.559C-136.021 361.767 -140.71 366.091 -145.385 370.402L-145.387 370.404C-146.883 371.782 -148.377 373.16 -149.836 374.565C-155.479 379.997 -160.687 386.033 -163.268 393.551C-165.453 399.915 -165.821 406.794 -164.866 413.427C-162.642 428.873 -153.405 441.926 -143.091 453.169C-131.083 466.259 -117.879 478.376 -104.283 489.791C-90.2707 501.556 -75.5698 512.5 -60.2785 522.545L-59.8996 522.794L-59.6342 522.969C-59.3075 523.184 -58.98 523.4 -58.6516 523.616C-46.6854 531.497 -33.5269 540.164 -18.8137 540.548C-5.3153 540.901 6.49877 533.57 16.0934 524.714C21.1157 520.079 25.6893 514.986 30.1334 509.805C34.0701 505.216 37.99 500.612 41.9099 496.008L41.9244 495.992C43.8795 493.695 45.8347 491.399 47.7919 489.104C51.7288 484.488 55.6754 479.88 59.6221 475.271L59.6226 475.27C67.6314 465.918 75.6405 456.566 83.5699 447.148C88.016 441.867 93.0242 435.391 92.4329 428.057C92.1995 425.158 91.113 422.253 89.2664 419.995C87.3149 417.607 85.0223 416.711 82.1018 416.075C73.6202 414.227 67.2103 407.512 62.636 400.506C60.1166 396.647 58.0429 392.537 55.9688 388.426C54.2816 385.082 52.5941 381.738 50.6663 378.528C42.5065 364.941 29.2586 356.581 16.1744 348.324L15.4258 347.851L14.7769 347.441C7.97785 343.144 1.19392 338.724 -4.78197 333.31C-10.5846 328.051 -15.2952 321.839 -18.6455 314.757C-24.3252 302.751 -26.2624 289.448 -28.1635 276.393C-28.3474 275.131 -28.5308 273.871 -28.7174 272.614C-30.9488 257.578 -34.0465 242.794 -40.9636 229.125C-47.5725 216.063 -57.4851 204.067 -70.6677 197.271C-82.018 191.42 -95.6518 189.533 -108.095 192.567C-121.219 195.769 -131.643 204.732 -136.746 217.258C-145.628 239.056 -138.868 261.013 -132.216 282.622C-129.495 291.461 -126.792 300.241 -125.185 308.928C-123.706 316.899 -123.116 325.054 -123.955 333.131ZM-130.095 286.966C-125.497 301.961 -121.537 317.374 -123.167 333.188C-123.166 333.198 -123.167 333.208 -123.167 333.218C-123.168 333.226 -123.168 333.234 -123.169 333.242C-123.999 340.611 -126.051 347.847 -129.883 354.238C-133.712 360.629 -139.2 365.683 -144.678 370.728C-151.155 376.692 -157.618 382.645 -161.315 390.782C-167.328 404.015 -164.413 419.576 -157.773 431.976C-149.962 446.561 -137.462 458.416 -125.566 469.698L-124.956 470.276C-112.059 482.509 -98.4631 494.006 -84.2606 504.697C-77.1181 510.075 -69.8213 515.245 -62.3823 520.204C-55.5564 524.754 -48.6607 529.334 -41.3618 533.1C-34.7737 536.5 -27.6735 539.202 -20.2153 539.695C-13.423 540.145 -6.70779 538.577 -0.610211 535.62C11.6414 529.679 21.1102 519.137 29.8236 508.959C37.5385 499.948 45.2313 490.917 52.9241 481.886L52.9294 481.88C56.8676 477.256 60.8058 472.633 64.7469 468.012C66.6232 465.813 68.5008 463.614 70.3785 461.415L70.3942 461.396L70.3952 461.395C74.3525 456.761 78.31 452.126 82.256 447.482C87.0047 441.894 92.7554 434.951 91.523 427.074C91.0111 423.809 89.3587 420.525 86.6335 418.566C85.3161 417.62 83.9082 417.299 82.4136 416.959L82.4134 416.959L82.4132 416.959C82.087 416.885 81.7567 416.81 81.4223 416.727C79.7965 416.324 78.2128 415.739 76.7059 415.009C69.8226 411.676 64.7112 405.524 60.8213 399.095C58.8314 395.806 57.0988 392.376 55.3663 388.945C53.4119 385.076 51.4577 381.207 49.1345 377.542C44.821 370.738 39.0752 365.131 32.6806 360.287C27.6025 356.44 22.1933 353.045 16.7851 349.652L16.7849 349.652C8.88673 344.695 0.990847 339.74 -5.86825 333.38C-11.0313 328.593 -15.3307 323.041 -18.5333 316.765C-21.6225 310.712 -23.6838 304.196 -25.2269 297.595C-26.8998 290.435 -27.9606 283.164 -29.0214 275.894C-30.0155 269.081 -31.0095 262.267 -32.5073 255.545C-38.8176 227.222 -56.5971 197.468 -87.5741 192.609C-100.372 190.6 -114.286 193.064 -124.451 201.461C-135.944 210.954 -140.156 226.222 -140.08 240.631C-140.004 255.043 -135.71 268.868 -131.47 282.523L-131.468 282.528C-131.008 284.009 -130.549 285.488 -130.095 286.966ZM-124.314 362.208C-119.824 355.862 -117.481 348.367 -116.619 340.695C-115.848 333.275 -116.389 325.786 -117.741 318.464C-119.219 310.481 -121.702 302.413 -124.202 294.292C-130.316 274.43 -136.529 254.248 -128.364 234.21C-123.671 222.691 -114.087 214.449 -102.019 211.503C-90.5777 208.711 -78.0389 210.446 -67.6017 215.826C-55.4794 222.076 -46.3658 233.103 -40.2883 245.115C-33.9315 257.679 -31.0836 271.267 -29.0334 285.086C-28.8621 286.24 -28.6936 287.398 -28.5248 288.557C-26.7786 300.55 -24.999 312.773 -19.7801 323.803C-16.7047 330.306 -12.3785 336.012 -7.05101 340.839C-1.56114 345.815 4.67282 349.877 10.9207 353.825L11.3211 354.078L12.2006 354.633C24.2274 362.223 36.4054 369.909 43.9062 382.397C45.6779 385.347 47.2284 388.42 48.7787 391.493C50.6845 395.27 52.59 399.047 54.9058 402.593C59.1046 409.024 64.9866 415.191 72.772 416.887C75.4637 417.473 77.5784 418.3 79.3769 420.502C81.0758 422.583 82.0775 425.259 82.2923 427.926C82.8356 434.675 78.232 440.634 74.1406 445.493C66.8721 454.127 59.5299 462.7 52.1879 471.273L52.1878 471.273L52.1876 471.274L52.1874 471.274L52.1872 471.274L52.1871 471.274L52.1869 471.274L52.1867 471.275L52.1866 471.275L52.1848 471.277L52.1814 471.281L52.1786 471.284C48.5367 475.536 44.8949 479.789 41.2622 484.048C39.5518 486.054 37.8429 488.061 36.1339 490.068L36.1279 490.075L36.1218 490.082L36.1157 490.09L36.1135 490.092L36.1113 490.095L36.1091 490.097C32.4234 494.426 28.7375 498.755 25.0359 503.071C20.9481 507.834 16.7428 512.516 12.1268 516.777C3.30292 524.921 -7.56165 531.657 -19.9736 531.333C-33.5001 530.978 -45.5974 523.011 -56.5984 515.765L-56.6047 515.761L-57.0426 515.473L-57.3208 515.289C-57.5782 515.12 -57.835 514.951 -58.0912 514.783C-72.1429 505.552 -85.6523 495.494 -98.5285 484.684C-111.025 474.192 -123.159 463.056 -134.196 451.024C-143.678 440.686 -152.167 428.686 -154.212 414.487C-155.091 408.387 -154.753 402.06 -152.742 396.207C-150.369 389.294 -145.583 383.746 -140.395 378.752C-139.053 377.46 -137.679 376.194 -136.304 374.926L-136.303 374.925C-132.007 370.964 -127.7 366.992 -124.314 362.208ZM-115.839 340.833L-115.837 340.822L-115.836 340.808C-114.323 326.252 -117.966 312.067 -122.2 298.265C-122.617 296.904 -123.04 295.542 -123.463 294.178C-127.359 281.633 -131.302 268.933 -131.373 255.696C-131.443 242.467 -127.575 228.447 -117.024 219.73C-107.69 212.019 -94.913 209.757 -83.1611 211.6C-54.7112 216.062 -38.3815 243.394 -32.5851 269.406C-31.2086 275.584 -30.2953 281.846 -29.382 288.107C-28.4076 294.788 -27.4332 301.468 -25.8962 308.047C-24.4783 314.116 -22.5831 320.106 -19.7438 325.67C-16.7972 331.442 -12.845 336.549 -8.09513 340.953C-1.79089 346.798 5.46591 351.352 12.7245 355.907C17.6932 359.026 22.6626 362.144 27.328 365.678C33.2033 370.128 38.4801 375.278 42.4418 381.527C44.5759 384.894 46.3707 388.448 48.1657 392.002L48.1658 392.002C49.7586 395.155 51.3516 398.309 53.1816 401.333C56.759 407.244 61.4612 412.902 67.7914 415.968C69.179 416.639 70.6367 417.177 72.134 417.548C72.441 417.624 72.7444 417.693 73.044 417.761C74.4115 418.072 75.7013 418.366 76.9063 419.233C79.4034 421.029 80.9184 424.038 81.3866 427.029C82.5176 434.259 77.2363 440.631 72.8786 445.76C69.242 450.04 65.5946 454.311 61.9476 458.582L61.9355 458.596L61.9234 458.61L61.9113 458.624C60.2033 460.625 58.4953 462.625 56.7885 464.626C53.3444 468.664 49.9027 472.705 46.461 476.745C39.2132 485.254 31.9655 493.763 24.6955 502.253C16.6919 511.601 7.99506 521.285 -3.25821 526.742C-8.8566 529.457 -15.0223 530.898 -21.2576 530.485C-28.109 530.031 -34.63 527.549 -40.6818 524.427C-47.3859 520.968 -53.721 516.761 -59.9909 512.581C-66.8265 508.025 -73.5325 503.273 -80.0959 498.331C-93.1472 488.507 -105.64 477.942 -117.492 466.7L-118.059 466.163C-128.985 455.801 -140.464 444.913 -147.639 431.519C-153.737 420.13 -156.416 405.842 -150.894 393.687C-147.498 386.21 -141.558 380.74 -135.607 375.259C-130.574 370.625 -125.533 365.983 -122.015 360.113C-118.503 354.254 -116.613 347.625 -115.847 340.872L-115.845 340.866L-115.842 340.852C-115.841 340.846 -115.84 340.84 -115.839 340.833ZM-109.282 348.259C-110.069 355.248 -112.202 362.077 -116.292 367.858C-119.379 372.221 -123.308 375.844 -127.226 379.456C-128.479 380.612 -129.731 381.766 -130.953 382.944C-135.685 387.5 -140.051 392.562 -142.217 398.866C-144.052 404.208 -144.362 409.983 -143.56 415.551C-141.695 428.505 -133.954 439.452 -125.304 448.881C-115.238 459.855 -104.173 470.01 -92.777 479.578C-81.037 489.435 -68.7183 498.604 -55.9072 507.021C-55.4567 507.317 -55.0041 507.615 -54.5495 507.914C-44.5125 514.525 -33.4769 521.794 -21.1347 522.118C-9.80783 522.416 0.106938 516.272 8.15907 508.84C12.3711 504.953 16.2069 500.683 19.935 496.337C23.2668 492.454 26.5843 488.557 29.9014 484.661L29.9062 484.655L29.911 484.649L29.9159 484.644C31.5199 482.76 33.1238 480.876 34.7293 478.993C38.0397 475.112 41.3585 471.236 44.6774 467.361C51.3758 459.539 58.0746 451.717 64.7057 443.84C68.4434 439.401 72.6415 433.96 72.1452 427.799C71.9478 425.361 71.0332 422.914 69.4799 421.014C67.8335 418.999 65.8989 418.24 63.4347 417.703C56.3467 416.159 50.9914 410.54 47.1672 404.685C45.0561 401.452 43.3185 398.008 41.5808 394.564C40.1673 391.762 38.7536 388.96 37.1387 386.271C30.2969 374.88 19.189 367.87 8.21837 360.946C7.83061 360.701 7.44302 360.456 7.0558 360.212C1.35912 356.613 -4.3249 352.909 -9.33096 348.371C-14.1836 343.974 -18.1237 338.776 -20.9266 332.853C-25.6826 322.8 -27.3046 311.663 -28.8967 300.731C-29.051 299.672 -29.205 298.615 -29.3616 297.56C-31.2329 284.958 -33.8289 272.563 -39.6264 261.107C-45.1724 250.145 -53.4861 240.084 -64.5481 234.382C-74.0724 229.472 -85.5149 227.891 -95.9546 230.44C-106.966 233.128 -115.714 240.651 -119.996 251.162C-127.442 269.439 -121.779 287.841 -116.204 305.955C-113.925 313.361 -111.661 320.719 -110.313 328.001C-109.073 334.67 -108.579 341.496 -109.282 348.259ZM-114.303 309.565C-110.448 322.135 -107.13 335.051 -108.492 348.307C-108.492 348.317 -108.492 348.326 -108.492 348.336L-108.493 348.347C-108.493 348.355 -108.494 348.363 -108.494 348.371C-109.19 354.556 -110.916 360.629 -114.132 365.993C-117.34 371.343 -121.935 375.575 -126.523 379.8C-131.949 384.796 -137.364 389.782 -140.459 396.597C-145.491 407.671 -143.048 420.689 -137.491 431.063C-130.949 443.275 -120.48 453.202 -110.52 462.647L-110.015 463.126C-99.209 473.377 -87.8179 483.009 -75.9187 491.966C-69.9357 496.472 -63.8216 500.804 -57.5883 504.959C-51.8743 508.767 -46.1012 512.601 -39.9918 515.754C-34.4771 518.6 -28.5342 520.862 -22.291 521.275C-16.6116 521.65 -10.9966 520.336 -5.89738 517.863C4.35658 512.89 12.2814 504.064 19.574 495.545C26.1509 487.863 32.7086 480.165 39.2665 472.466L39.2682 472.464L39.2699 472.462L39.2716 472.46L39.2733 472.458L39.275 472.456L39.2767 472.454L39.2784 472.452L39.2802 472.45L39.2819 472.448C42.4653 468.711 45.6488 464.973 48.8345 461.238C50.4005 459.402 51.9674 457.567 53.5343 455.732C56.8613 451.836 60.1883 447.94 63.5055 444.037C67.4724 439.367 72.2866 433.565 71.2569 426.984C70.8325 424.265 69.4548 421.531 67.1848 419.9C66.09 419.113 64.9185 418.847 63.6767 418.565L63.6752 418.565C63.4033 418.503 63.1279 418.441 62.8493 418.372C61.4819 418.033 60.1488 417.542 58.8815 416.927C53.1043 414.129 48.8115 408.968 45.5466 403.572C43.8791 400.816 42.4273 397.941 40.9756 395.067L40.9755 395.067L40.9754 395.067L40.9753 395.066L40.9753 395.066L40.9752 395.066L40.9751 395.066L40.975 395.066L40.9749 395.066L40.9748 395.065C39.3377 391.824 37.7007 388.583 35.7548 385.513C32.1446 379.816 27.3346 375.123 21.9807 371.067C17.7271 367.846 13.1964 365.002 8.66647 362.16L8.66615 362.16C2.04782 358.006 -4.56891 353.854 -10.3176 348.525C-14.6528 344.506 -18.26 339.846 -20.9496 334.576C-23.5404 329.501 -25.2685 324.036 -26.5622 318.5C-27.9642 312.5 -28.8529 306.408 -29.7415 300.316C-30.5742 294.608 -31.4069 288.9 -32.6619 283.267C-37.9444 259.566 -52.8238 234.659 -78.7458 230.592C-89.452 228.913 -101.092 230.974 -109.596 237.999C-119.206 245.935 -122.728 258.711 -122.665 270.758C-122.6 282.823 -119.007 294.395 -115.458 305.827C-115.071 307.074 -114.684 308.32 -114.303 309.565ZM-108.266 373.506C-104.576 368.29 -102.652 362.128 -101.943 355.822C-101.309 349.718 -101.756 343.556 -102.871 337.531C-104.089 330.952 -106.134 324.306 -108.192 317.616C-113.228 301.25 -118.343 284.625 -111.614 268.108C-107.743 258.605 -99.834 251.803 -89.8786 249.371C-80.4391 247.064 -70.0927 248.491 -61.4815 252.931C-51.4811 258.085 -43.9649 267.181 -38.9506 277.091C-33.7133 287.441 -31.3671 298.64 -29.677 310.026C-29.5357 310.977 -29.3967 311.932 -29.2574 312.888C-27.8201 322.759 -26.3557 332.815 -22.0606 341.893C-19.5335 347.237 -15.9771 351.926 -11.5993 355.894C-7.07703 359.992 -1.94203 363.337 3.2025 366.589C3.54349 366.804 3.88481 367.019 4.22624 367.235L4.25408 367.252C14.1653 373.508 24.201 379.842 30.3815 390.133C31.8404 392.562 33.1172 395.093 34.3939 397.623C35.9635 400.734 37.5329 403.845 39.4399 406.765C42.8873 412.044 47.7159 417.115 54.1076 418.509C56.3444 418.996 58.0999 419.686 59.5944 421.515C61.0011 423.236 61.8309 425.455 62.0087 427.662C62.4582 433.239 58.6634 438.162 55.2805 442.18C49.307 449.274 43.2738 456.319 37.2409 463.364L37.2381 463.367L37.2353 463.371L37.2325 463.374L37.2297 463.377L37.2269 463.38L37.2241 463.384L37.2213 463.387L37.2185 463.39C34.211 466.902 31.2036 470.414 28.2037 473.931C26.7169 475.675 25.2316 477.419 23.7463 479.164C20.7821 482.645 17.8177 486.127 14.8406 489.598C11.4722 493.526 8.00346 497.385 4.1968 500.899C-3.08558 507.622 -12.0479 513.166 -22.2903 512.899C-33.442 512.609 -43.4164 506.039 -52.4851 500.066C-52.8974 499.794 -53.3079 499.524 -53.7165 499.256C-65.2892 491.653 -76.414 483.371 -87.0189 474.468C-97.3161 465.823 -107.313 456.648 -116.407 446.735C-124.224 438.213 -131.217 428.318 -132.903 416.612C-133.629 411.576 -133.347 406.353 -131.688 401.522C-129.73 395.824 -125.787 391.25 -121.51 387.132C-120.405 386.068 -119.274 385.025 -118.142 383.981L-118.141 383.981L-118.141 383.98L-118.141 383.98L-118.14 383.98L-118.14 383.979L-118.139 383.979L-118.139 383.979L-118.139 383.978C-114.601 380.717 -111.054 377.445 -108.266 373.506ZM-101.16 355.935C-99.9131 343.934 -102.916 332.243 -106.406 320.864C-106.749 319.745 -107.096 318.626 -107.445 317.505C-110.652 307.177 -113.898 296.722 -113.956 285.823C-114.014 274.956 -110.836 263.428 -102.168 256.268C-94.4937 249.929 -83.993 248.07 -74.3312 249.586C-50.935 253.256 -37.5057 275.739 -32.7391 297.132C-31.6049 302.221 -30.8524 307.379 -30.0999 312.537L-30.0998 312.538L-30.0997 312.538C-29.2973 318.038 -28.4949 323.538 -27.2299 328.954C-26.0604 333.957 -24.5007 338.897 -22.1584 343.484C-19.7258 348.25 -16.4648 352.464 -12.544 356.099C-7.35313 360.912 -1.37743 364.662 4.60009 368.413C8.69289 370.981 12.7865 373.549 16.6297 376.46C21.4632 380.121 25.8044 384.359 29.0637 389.501C30.8221 392.274 32.3012 395.203 33.7804 398.131C35.0914 400.727 36.4026 403.323 37.9085 405.811C40.8609 410.691 44.7445 415.357 49.9695 417.887C51.1176 418.443 52.3248 418.887 53.5636 419.194C53.813 419.255 54.0595 419.311 54.3029 419.367C55.4209 419.62 56.475 419.859 57.4612 420.566C59.5041 422.033 60.7422 424.493 61.1254 426.941C62.0527 432.875 57.7089 438.105 54.133 442.315C51.2492 445.71 48.3569 449.097 45.4647 452.484C43.9367 454.273 42.4089 456.062 40.8823 457.853C38.0056 461.226 35.131 464.601 32.2564 467.975C26.3278 474.935 20.3992 481.895 14.452 488.841C7.86928 496.529 0.716307 504.498 -8.53931 508.987C-13.1384 511.217 -18.2039 512.404 -23.3272 512.066C-28.9635 511.692 -34.3273 509.65 -39.3069 507.082C-44.8225 504.236 -50.034 500.774 -55.1921 497.336C-60.8219 493.584 -66.3443 489.669 -71.7492 485.601C-82.4975 477.509 -92.7852 468.81 -102.547 459.552L-103.008 459.114L-103.009 459.114C-111.999 450.589 -121.448 441.629 -127.353 430.608C-132.367 421.246 -134.574 409.498 -130.035 399.504C-127.24 393.351 -122.349 388.848 -117.449 384.336C-113.307 380.521 -109.157 376.701 -106.261 371.871C-103.352 367.02 -101.79 361.529 -101.16 355.935ZM-94.6063 363.387C-95.2392 369.009 -96.9517 374.505 -100.243 379.155C-102.729 382.669 -105.893 385.586 -109.047 388.496L-109.048 388.496L-109.049 388.497L-109.049 388.498L-109.05 388.499L-109.051 388.499L-109.052 388.5L-109.053 388.501C-110.066 389.435 -111.078 390.369 -112.067 391.321C-115.887 395 -119.411 399.089 -121.16 404.181C-122.644 408.501 -122.897 413.172 -122.248 417.675C-120.742 428.136 -114.496 436.977 -107.511 444.591C-99.3884 453.445 -90.46 461.641 -81.263 469.361C-71.7955 477.311 -61.8612 484.705 -51.5282 491.494C-51.1638 491.733 -50.7978 491.974 -50.4301 492.216C-42.3268 497.553 -33.4126 503.425 -23.4492 503.685C-14.2919 503.924 -6.27937 498.973 0.231303 492.962C3.63388 489.823 6.732 486.374 9.74316 482.865C12.4831 479.672 15.2111 476.467 17.9387 473.263C19.1835 471.801 20.4283 470.339 21.6742 468.878C24.305 465.793 26.9422 462.714 29.5795 459.635C35.0213 453.28 40.4633 446.926 45.8501 440.527C48.8782 436.93 52.2674 432.526 51.8658 427.532C51.7053 425.554 50.9615 423.566 49.7037 422.023C48.3614 420.382 46.7859 419.761 44.7766 419.322C39.0811 418.08 34.7805 413.557 31.7087 408.853C30.0063 406.246 28.6049 403.468 27.2033 400.69C26.0634 398.431 24.9234 396.171 23.6213 394.003C18.0988 384.808 9.13451 379.151 0.280831 373.562L0.276553 373.56C-0.0337302 373.364 -0.343923 373.168 -0.653828 372.972C-5.24843 370.069 -9.8322 367.083 -13.8694 363.424C-17.7733 359.887 -20.9427 355.706 -23.1972 350.942C-27.0317 342.836 -28.3389 333.858 -29.622 325.045C-29.746 324.194 -29.8697 323.345 -29.9954 322.498C-31.5042 312.328 -33.5997 302.325 -38.2788 293.08C-42.7617 284.221 -49.479 276.093 -58.4181 271.484C-66.1163 267.516 -75.3664 266.242 -83.8048 268.305C-92.7042 270.481 -99.7751 276.564 -103.237 285.058C-109.249 299.815 -104.681 314.664 -100.184 329.283C-98.3466 335.256 -96.521 341.191 -95.4336 347.066C-94.4399 352.441 -94.0399 357.94 -94.6063 363.387ZM-98.5088 332.164C-95.3947 342.316 -92.7169 352.746 -93.8183 363.452C-93.8184 363.46 -93.8186 363.467 -93.819 363.475L-93.82 363.49L-93.821 363.499C-94.3833 368.501 -95.7814 373.41 -98.3835 377.747C-100.969 382.057 -104.672 385.467 -108.37 388.871C-112.744 392.899 -117.11 396.918 -119.605 402.41C-123.655 411.322 -121.683 421.799 -117.21 430.149C-111.943 439.98 -103.514 447.973 -95.4951 455.578L-95.0753 455.976C-86.3606 464.242 -77.1738 472.011 -67.5766 479.235C-62.7497 482.868 -57.8205 486.363 -52.7929 489.713C-48.1908 492.78 -43.5412 495.869 -38.6191 498.409C-34.1779 500.702 -29.3932 502.524 -24.3628 502.856C-19.7952 503.159 -15.2804 502.098 -11.1805 500.11C-2.92299 496.107 3.459 488.995 9.33072 482.136C14.5855 475.997 19.8257 469.846 25.0659 463.694C27.6861 460.618 30.3064 457.542 32.9285 454.468C34.3022 452.856 35.677 451.247 37.0518 449.637L37.0619 449.625C39.6305 446.617 42.199 443.609 44.7601 440.595C47.9453 436.846 51.822 432.186 50.9949 426.899C50.6544 424.726 49.5537 422.541 47.7389 421.237C46.866 420.611 45.9327 420.4 44.9437 420.175L44.9413 420.175C44.7233 420.125 44.5025 420.075 44.279 420.02C43.1678 419.746 42.0876 419.348 41.0588 418.85C36.3879 416.587 32.9136 412.418 30.2727 408.054C28.9274 405.831 27.7563 403.512 26.5853 401.194L26.5853 401.194L26.5852 401.194L26.5851 401.194L26.5851 401.193L26.585 401.193L26.5849 401.193L26.5847 401.193L26.5846 401.193L26.5844 401.192L26.5843 401.192L26.5842 401.192L26.5841 401.192L26.5839 401.191L26.5838 401.191C25.2641 398.578 23.9446 395.966 22.3758 393.49C19.4671 388.901 15.5962 385.122 11.2819 381.855C7.85158 379.258 4.19767 376.965 0.544383 374.672C-4.79351 371.322 -10.1301 367.974 -14.7661 363.675C-18.2747 360.424 -21.1894 356.657 -23.365 352.394C-25.4578 348.294 -26.8512 343.88 -27.8956 339.409C-29.0258 334.571 -29.7423 329.659 -30.4587 324.748C-31.1303 320.143 -31.802 315.538 -32.8146 310.994C-37.066 291.914 -49.0455 271.853 -69.9146 268.58C-78.5309 267.227 -87.8951 268.885 -94.7383 274.538C-102.465 280.92 -105.299 291.2 -105.247 300.887C-105.196 310.612 -102.3 319.939 -99.4394 329.154C-99.1275 330.158 -98.8161 331.162 -98.5088 332.164ZM-92.2201 384.806C-89.3281 380.719 -87.8249 375.891 -87.2691 370.951C-86.7715 366.161 -87.1234 361.326 -88.0012 356.599C-88.9583 351.426 -90.565 346.201 -92.1819 340.943L-92.1821 340.943C-96.1401 328.072 -100.16 315.002 -94.8647 302.007C-91.8133 294.52 -85.5817 289.159 -77.7383 287.239C-70.3021 285.42 -62.1471 286.539 -55.362 290.037C-47.482 294.1 -41.5636 301.26 -37.6122 309.069C-33.4946 317.207 -31.6499 326.015 -30.321 334.969C-30.2111 335.711 -30.1029 336.455 -29.9945 337.2C-28.8665 344.955 -27.7173 352.856 -24.3424 359.989C-22.3637 364.174 -19.5768 367.848 -16.149 370.954C-12.5956 374.174 -8.5618 376.802 -4.51837 379.357C-4.24646 379.529 -3.9743 379.7 -3.70202 379.872C4.09461 384.793 11.9892 389.777 16.8529 397.873C18.0006 399.783 19.0051 401.774 20.0094 403.764C21.242 406.207 22.4744 408.649 23.9714 410.942C26.6676 415.071 30.4413 419.044 35.4406 420.135C37.2225 420.524 38.6188 421.076 39.8081 422.531C40.9202 423.893 41.5792 425.653 41.72 427.401C42.0759 431.809 39.0909 435.694 36.4166 438.871C31.668 444.512 26.8708 450.114 22.0741 455.715L22.066 455.724L22.0578 455.734L22.0497 455.743C19.745 458.434 17.4405 461.125 15.1415 463.821C14.019 465.137 12.8977 466.454 11.7765 467.771C9.40163 470.561 7.02711 473.35 4.64171 476.131C1.98926 479.224 -0.741761 482.261 -3.73804 485.026C-9.47795 490.326 -16.5397 494.682 -24.6119 494.471C-33.391 494.241 -41.2435 489.068 -48.3829 484.366C-48.7053 484.154 -49.0263 483.942 -49.3458 483.732C-58.4392 477.759 -67.1808 471.251 -75.5132 464.256C-83.609 457.458 -91.4701 450.243 -98.6199 442.448C-104.772 435.74 -110.271 427.951 -111.598 418.738C-112.169 414.767 -111.945 410.649 -110.636 406.839C-109.095 402.355 -105.991 398.752 -102.626 395.512C-101.756 394.674 -100.866 393.853 -99.9746 393.032C-97.1963 390.47 -94.4105 387.901 -92.2201 384.806ZM-86.4833 371.037C-85.5088 361.603 -87.8684 352.411 -90.6113 343.464C-90.8794 342.59 -91.151 341.715 -91.423 340.839C-93.9426 332.726 -96.4929 324.513 -96.5392 315.951C-96.585 307.445 -94.096 298.412 -87.3114 292.807C-81.2981 287.84 -73.0715 286.384 -65.5009 287.573C-47.1587 290.45 -36.6282 308.087 -32.893 324.857C-32.0029 328.852 -31.412 332.902 -30.8211 336.951C-30.19 341.276 -29.5589 345.602 -28.5632 349.861C-27.643 353.8 -26.4167 357.689 -24.5737 361.3C-22.655 365.06 -20.0865 368.381 -16.9924 371.248C-12.9134 375.029 -8.21881 377.975 -3.52274 380.922L-3.52258 380.922C-0.306272 382.941 2.91071 384.96 5.93103 387.248C9.72385 390.12 13.1279 393.442 15.6849 397.477C17.0659 399.655 18.2274 401.955 19.389 404.255L19.3891 404.255L19.3892 404.255L19.3893 404.255L19.3894 404.255L19.3895 404.255L19.3896 404.256C20.4201 406.296 21.4508 408.336 22.6348 410.293C24.9633 414.142 28.0282 417.814 32.147 419.809C33.0555 420.249 34.012 420.599 34.9912 420.841C35.1869 420.89 35.3804 420.933 35.5714 420.976L35.5718 420.976C36.4356 421.172 37.2509 421.356 38.0132 421.902C39.5997 423.041 40.5632 424.953 40.86 426.854C41.5858 431.492 38.1775 435.583 35.3841 438.871C32.9462 441.74 30.501 444.604 28.0557 447.467L28.04 447.485C27.0171 448.683 25.9941 449.881 24.9716 451.079C22.6631 453.786 20.3562 456.494 18.0493 459.202C13.4389 464.615 8.82846 470.027 4.20412 475.428C-0.957818 481.457 -6.56785 487.712 -13.8258 491.232C-17.4265 492.978 -21.3918 493.912 -25.4024 493.645C-29.8247 493.353 -34.0302 491.751 -37.9363 489.735C-42.2637 487.502 -46.3515 484.787 -50.3979 482.089C-54.8209 479.14 -59.1604 476.065 -63.4083 472.867C-71.8533 466.51 -79.9379 459.673 -87.6065 452.399L-87.9849 452.04C-95.0323 445.357 -102.442 438.33 -107.071 429.691C-111.001 422.354 -112.738 413.148 -109.179 405.315C-106.985 400.484 -103.143 396.948 -99.2946 393.405C-96.0423 390.411 -92.7846 387.412 -90.5105 383.622C-88.2154 379.799 -86.9815 375.47 -86.4853 371.06C-86.4844 371.053 -86.4838 371.045 -86.4833 371.037ZM-79.9312 378.514C-80.4102 382.77 -81.7038 386.932 -84.1956 390.454C-86.0867 393.126 -88.4923 395.344 -90.891 397.556C-91.6617 398.266 -92.4316 398.976 -93.1835 399.7C-96.0922 402.503 -98.776 405.618 -100.108 409.495C-101.241 412.795 -101.437 416.36 -100.942 419.799C-99.7954 427.766 -95.0439 434.501 -89.724 440.302C-83.5448 447.038 -76.7542 453.273 -69.7573 459.147C-62.561 465.189 -55.0111 470.81 -47.1573 475.968C-46.8824 476.149 -46.6062 476.331 -46.3288 476.514C-40.1546 480.58 -33.3631 485.054 -25.7697 485.254C-18.785 485.438 -12.6707 481.674 -7.70255 477.087C-5.11034 474.695 -2.74895 472.068 -0.45372 469.394C1.71094 466.87 3.86658 464.338 6.02238 461.805L6.02358 461.804L6.02478 461.802L6.04166 461.783C6.89889 460.776 7.75615 459.769 8.61401 458.762C10.6107 456.421 12.6121 454.084 14.6136 451.747L14.6166 451.744L14.6333 451.724L14.6352 451.722C18.7666 446.898 22.8983 442.073 26.9894 437.214C29.309 434.459 31.8894 431.09 31.5816 427.268C31.4593 425.751 30.8874 424.22 29.9207 423.036C28.8844 421.767 27.666 421.284 26.1128 420.946C21.8098 420.005 18.5628 416.58 16.2447 413.028C14.9503 411.046 13.885 408.934 12.8194 406.822C11.9533 405.105 11.0869 403.388 10.0972 401.74C5.89173 394.737 -0.936661 390.429 -7.67957 386.174L-7.67969 386.174L-8.37018 385.738C-11.8614 383.531 -15.3453 381.261 -18.4149 378.48C-21.3678 375.803 -23.77 372.637 -25.4749 369.033C-28.3852 362.882 -29.3775 356.068 -30.3517 349.378C-30.4461 348.73 -30.5404 348.083 -30.6362 347.438C-31.7838 339.7 -33.3787 332.089 -36.9372 325.055C-40.3572 318.297 -45.4767 312.104 -52.2964 308.588C-58.1672 305.562 -65.2287 304.592 -71.6622 306.171C-78.4494 307.837 -83.8431 312.474 -86.484 318.956C-91.0615 330.19 -87.5901 341.483 -84.171 352.606C-82.7747 357.149 -81.3871 361.663 -80.56 366.133C-79.806 370.212 -79.5022 374.382 -79.9312 378.514ZM-82.7154 354.763C-80.343 362.496 -78.3056 370.44 -79.1449 378.595C-79.1453 378.605 -79.146 378.615 -79.1472 378.626C-79.5783 382.445 -80.647 386.192 -82.6352 389.501C-84.5989 392.772 -87.4113 395.361 -90.2189 397.945L-90.2191 397.945C-93.5419 401.004 -96.8577 404.056 -98.7516 408.225C-101.82 414.978 -100.32 422.912 -96.9303 429.236C-92.9382 436.685 -86.5491 442.744 -80.4717 448.508L-80.1365 448.825C-73.5128 455.108 -66.5304 461.013 -59.2364 466.503C-55.569 469.264 -51.8202 471.92 -48.0007 474.466C-44.5102 476.794 -40.9831 479.137 -37.2505 481.063C-33.8805 482.802 -30.2531 484.184 -26.4377 484.436C-22.9819 484.666 -19.5673 483.859 -16.4657 482.354C-10.2071 479.319 -5.36902 473.922 -0.916874 468.723C3.01345 464.131 6.93301 459.53 10.8524 454.929C12.9072 452.517 14.9619 450.105 17.0181 447.694C18.0033 446.539 18.9892 445.384 19.9751 444.23L19.9924 444.209L20.0099 444.189L20.0169 444.181C22.0163 441.839 24.0159 439.497 26.0104 437.15C28.415 434.321 31.354 430.801 30.7296 426.81C30.4755 425.184 29.6502 423.545 28.2909 422.57C27.6418 422.106 26.9471 421.949 26.212 421.783C26.0457 421.746 25.8772 421.708 25.7068 421.665C24.8552 421.456 24.0255 421.152 23.2363 420.77C19.6694 419.042 17.0149 415.865 14.999 412.533C13.9761 410.843 13.0858 409.08 12.1955 407.317L12.1954 407.317L12.1954 407.317L12.1953 407.317L12.1953 407.317L12.1952 407.317C11.1922 405.331 10.1893 403.345 8.9971 401.464C6.78968 397.984 3.85435 395.117 0.582004 392.64C-2.02502 390.665 -4.8021 388.922 -7.5787 387.18C-11.6361 384.634 -15.6924 382.089 -19.2156 378.821C-21.8931 376.338 -24.1179 373.462 -25.7792 370.207C-27.3737 367.084 -28.4329 363.72 -29.2289 360.314C-30.0877 356.637 -30.6323 352.904 -31.177 349.17C-31.6875 345.671 -32.198 342.171 -32.9672 338.718C-36.1898 324.259 -45.2679 309.045 -61.0843 306.564C-67.6103 305.541 -74.6982 306.794 -79.8827 311.076C-85.7263 315.903 -87.8699 323.687 -87.831 331.015C-87.792 338.403 -85.5923 345.488 -83.419 352.488L-83.4188 352.488L-83.4128 352.508C-83.1791 353.26 -82.9457 354.012 -82.7154 354.763ZM-76.3024 396.283C-74.1299 393.286 -73.0066 389.73 -72.5934 386.078C-72.2337 382.598 -72.4908 379.092 -73.1278 375.659C-73.8251 371.89 -74.9928 368.088 -76.1674 364.264C-79.0445 354.896 -81.9631 345.393 -78.1132 335.918C-75.913 330.502 -71.4175 326.584 -65.7555 325.149C-60.3156 323.771 -54.3409 324.553 -49.3518 327.087C-43.6406 329.988 -39.3306 335.122 -36.4265 340.74C-33.3722 346.646 -31.9802 353.068 -31.0054 359.593C-30.91 360.231 -30.8169 360.872 -30.7236 361.513C-29.9156 367.065 -29.0943 372.708 -26.7308 377.836C-25.3323 380.87 -23.3572 383.551 -20.9041 385.817C-18.3538 388.173 -15.442 390.09 -12.5182 391.943C-12.1814 392.157 -11.8438 392.37 -11.5059 392.584C-5.96292 396.084 -0.33292 399.64 3.17649 405.357C4.07716 406.825 4.85317 408.363 5.6291 409.9L5.62919 409.9C6.51745 411.66 7.40563 413.42 8.48063 415.074C10.4249 418.067 13.1563 420.971 16.7789 421.762C18.048 422.038 19.0625 422.422 19.9357 423.439C20.7697 424.408 21.2713 425.669 21.4176 426.935C21.7846 430.105 19.7181 432.966 17.8025 435.269C14.3653 439.402 10.859 443.481 7.35334 447.559L7.35148 447.561C5.62859 449.566 3.90584 451.57 2.1915 453.58C1.34122 454.577 0.491622 455.574 -0.357975 456.572L-0.368 456.583C-2.06454 458.575 -3.76108 460.567 -5.46312 462.554C-7.38337 464.797 -9.35888 466.999 -11.5225 469.014C-15.7034 472.907 -20.8567 476.145 -26.7603 476.042C-33.1864 475.93 -38.9139 472.176 -44.1328 468.755L-44.1509 468.743L-44.3907 468.586L-44.6777 468.398C-51.279 464.079 -57.6264 459.371 -63.6786 454.312C-69.6138 449.35 -75.361 444.074 -80.6157 438.39C-85.1492 433.487 -89.227 427.806 -90.2604 421.054C-90.7008 418.188 -90.5697 415.217 -89.6796 412.445C-88.6306 409.184 -86.4502 406.53 -84.031 404.171C-83.3131 403.471 -82.5736 402.789 -81.8336 402.106L-81.8334 402.106C-79.8597 400.286 -77.8825 398.463 -76.3024 396.283ZM-71.8063 386.152C-71.1127 379.347 -72.7817 372.718 -74.7561 366.263C-74.9731 365.553 -75.1937 364.843 -75.4146 364.132C-77.2085 358.358 -79.0225 352.519 -79.1174 346.43C-79.2144 340.206 -77.4717 333.54 -72.5236 329.406C-68.1776 325.775 -62.2131 324.7 -56.7144 325.552C-43.3925 327.616 -35.7408 340.436 -33.0373 352.608C-32.3938 355.505 -31.9654 358.44 -31.5371 361.375L-31.537 361.375L-31.5369 361.376L-31.5368 361.376L-31.5367 361.377C-31.0848 364.473 -30.6328 367.569 -29.9286 370.62C-28.5673 376.519 -26.1383 381.941 -21.6903 386.158C-18.6692 389.022 -15.1549 391.227 -11.6404 393.432C-9.41018 394.831 -7.17985 396.23 -5.07546 397.798C-2.32393 399.848 0.186105 402.207 2.0774 405.09C3.1887 406.786 4.10218 408.593 5.01583 410.401L5.0159 410.401L5.01596 410.401L5.01602 410.401L5.01608 410.401L5.01635 410.402L5.01642 410.402L5.01648 410.402L5.01654 410.402C5.71175 411.777 6.40704 413.153 7.18966 414.479C8.84449 417.284 11.0016 419.953 13.9134 421.516C14.6104 421.89 15.3438 422.188 16.1057 422.401C16.3353 422.465 16.5684 422.514 16.8009 422.562L16.8014 422.562C17.2863 422.662 17.7685 422.762 18.2098 423.007C19.5046 423.725 20.3051 425.176 20.5702 426.595C21.2044 429.983 18.6993 432.997 16.6611 435.399C15.0456 437.301 13.4245 439.2 11.8031 441.098L11.7788 441.127C10.8966 442.16 10.0142 443.193 9.1327 444.227C7.45796 446.19 5.78406 448.155 4.11017 450.119C0.7659 454.044 -2.57836 457.968 -5.92921 461.887C-9.67868 466.273 -13.7408 470.838 -19.0024 473.426C-21.6264 474.716 -24.5216 475.419 -27.4538 475.229C-30.6447 475.022 -33.6766 473.875 -36.4966 472.425C-39.6191 470.822 -42.5648 468.866 -45.4842 466.923C-48.6814 464.796 -51.8172 462.577 -54.8886 460.271C-61.0304 455.658 -66.9103 450.697 -72.4902 445.417L-72.8298 445.096L-72.8299 445.096L-72.8305 445.095C-77.9754 440.228 -83.3909 435.105 -86.7719 428.812C-89.6165 423.517 -90.8911 416.891 -88.3612 411.218C-86.7754 407.662 -83.9552 405.064 -81.1289 402.46C-78.7362 400.256 -76.3391 398.048 -74.6825 395.251C-73.046 392.488 -72.1699 389.368 -71.8091 386.192C-71.8076 386.178 -71.8067 386.165 -71.8063 386.152ZM-65.2568 393.643C-65.5949 396.594 -66.4958 399.468 -68.2509 401.895C-69.5332 403.666 -71.1405 405.148 -72.7446 406.626C-73.3714 407.204 -73.9977 407.782 -74.604 408.376C-76.5706 410.302 -78.3298 412.477 -79.1635 415.142C-79.8833 417.445 -79.9694 419.903 -79.5813 422.276C-78.6921 427.701 -75.402 432.267 -71.7492 436.217C-67.4676 440.847 -62.7863 445.145 -57.9497 449.186C-52.9687 453.348 -47.741 457.217 -42.3039 460.762L-42.0006 460.959C-37.7429 463.736 -33.0784 466.778 -27.8278 466.83C-23.0136 466.878 -18.8173 464.199 -15.4198 461.015C-12.3268 458.115 -9.58791 454.82 -6.86578 451.545L-6.86484 451.543C-5.98982 450.491 -5.11654 449.44 -4.23376 448.405C-2.85927 446.793 -1.47754 445.187 -0.0957095 443.581L-0.0956279 443.581L-0.0955462 443.581L-0.0954646 443.581C2.74693 440.277 5.58964 436.972 8.37009 433.618C9.9179 431.751 11.5521 429.449 11.2844 426.889C11.0637 424.799 9.737 423.038 7.65063 422.615C2.82684 421.637 0.516842 417.075 -1.60178 412.891C-2.16539 411.778 -2.71546 410.691 -3.29571 409.706C-6.2252 404.731 -11.0207 401.706 -15.786 398.7L-15.7862 398.7L-15.8815 398.64C-20.6588 395.626 -25.289 392.363 -27.7656 387.105C-29.748 382.898 -30.424 378.248 -31.0888 373.676L-31.0888 373.676C-31.1636 373.161 -31.2383 372.648 -31.3146 372.136C-32.1113 366.8 -33.2509 361.548 -35.759 356.722C-38.1286 352.161 -41.6387 347.994 -46.2847 345.644C-50.3451 343.588 -55.1985 342.954 -59.6237 344.07C-64.249 345.236 -67.9205 348.427 -69.7262 352.845C-72.8779 360.56 -70.4991 368.31 -68.1564 375.942C-67.2142 379.012 -66.2779 382.062 -65.7094 385.084C-65.1799 387.904 -64.9646 390.782 -65.2568 393.643ZM-66.8048 377.744C-65.2273 382.923 -63.9252 388.233 -64.4669 393.688C-64.4664 393.698 -64.4663 393.709 -64.4666 393.72C-64.4669 393.732 -64.4677 393.745 -64.469 393.757C-64.7674 396.359 -65.4861 398.907 -66.8287 401.17C-68.1728 403.434 -70.1156 405.222 -72.0546 407.007C-74.3531 409.123 -76.6464 411.234 -77.9311 414.127C-80.0249 418.841 -78.8787 424.347 -76.4424 428.694C-73.628 433.716 -69.2734 437.826 -65.1195 441.747L-65.1194 441.747L-64.9072 441.948C-60.3757 446.225 -55.6012 450.245 -50.6138 453.982C-48.1196 455.85 -45.5738 457.647 -42.9778 459.372C-40.6183 460.939 -38.2349 462.518 -35.7072 463.805C-33.4223 464.967 -30.968 465.878 -28.3885 466.025C-25.9904 466.162 -23.6315 465.555 -21.4998 464.479C-17.2086 462.313 -13.9164 458.544 -10.8458 454.945C-6.86102 450.274 -2.87745 445.602 1.10609 440.93L1.34994 440.644C1.99177 439.892 2.63449 439.14 3.27724 438.389C4.65599 436.776 6.03489 435.163 7.40561 433.543C9.07409 431.57 11.0875 429.05 10.3763 426.285C10.0924 425.185 9.40145 424.068 8.3197 423.609C8.00628 423.477 7.66889 423.407 7.33166 423.337C7.09972 423.29 6.86784 423.242 6.64388 423.173C6.04289 422.989 5.46562 422.737 4.91805 422.429C2.62429 421.141 0.918559 419.03 -0.403944 416.796C-1.0464 415.71 -1.61554 414.584 -2.18459 413.458L-2.18466 413.458L-2.18472 413.458L-2.18478 413.458C-2.89366 412.055 -3.6024 410.653 -4.45247 409.329C-5.9634 406.973 -7.97091 405.04 -10.1966 403.363C-11.9586 402.035 -13.8316 400.86 -15.7043 399.685L-15.7045 399.685C-18.4779 397.944 -21.2504 396.205 -23.6599 393.971C-27.3046 390.594 -29.353 386.262 -30.5 381.485C-31.1262 378.877 -31.5134 376.224 -31.9007 373.572C-32.2349 371.283 -32.5691 368.994 -33.057 366.732C-35.2029 356.79 -41.3939 346.241 -52.2764 344.547C-56.7381 343.852 -61.5797 344.724 -65.1015 347.678C-69.1463 351.069 -70.5266 356.557 -70.4067 361.645C-70.2927 366.507 -68.8445 371.167 -67.4107 375.781L-67.4106 375.781C-67.2071 376.436 -67.0039 377.09 -66.8048 377.744ZM-60.4459 407.835C-58.9556 405.907 -58.1984 403.606 -57.9186 401.206C-57.6936 398.966 -57.8684 396.717 -58.2945 394.514C-58.7341 392.234 -59.4392 389.933 -60.1487 387.618L-60.1489 387.617C-61.9553 381.723 -63.7899 375.736 -61.3429 369.775C-59.9524 366.389 -57.1383 363.929 -53.5942 363.015C-50.1594 362.129 -46.379 362.606 -43.2205 364.199C-35.6449 368.022 -32.8256 376.699 -31.6521 384.505C-31.5853 384.95 -31.5204 385.396 -31.4554 385.844C-30.9544 389.292 -30.4459 392.792 -28.9871 395.979C-27.0841 400.132 -23.4656 402.673 -19.7151 405.039C-16.0498 407.35 -12.3659 409.676 -10.1062 413.495C-9.61673 414.322 -9.18332 415.181 -8.74992 416.041L-8.74973 416.041L-8.74955 416.042C-8.159 417.213 -7.5685 418.384 -6.83647 419.473C-6.15893 420.482 -5.36874 421.422 -4.40213 422.164C-3.45779 422.888 -2.50082 423.191 -1.37444 423.49C0.106048 423.882 1.01976 425.379 1.15145 426.841C1.32661 428.79 0.114861 430.535 -1.06194 431.966C-3.24523 434.619 -5.49218 437.224 -7.73833 439.829C-8.82865 441.093 -9.91878 442.357 -11.0014 443.626C-11.6615 444.4 -12.3145 445.186 -12.969 445.973L-12.9697 445.974L-12.9704 445.975C-15.0744 448.506 -17.1924 451.055 -19.6017 453.278C-22.2195 455.691 -25.4358 457.668 -29.1081 457.612C-33.1324 457.55 -36.7055 455.221 -39.9726 453.092L-40.1891 452.951C-44.4577 450.171 -48.5577 447.133 -52.4596 443.858C-56.1609 440.753 -59.7526 437.454 -63.0222 433.892C-65.8247 430.838 -68.3216 427.297 -68.9628 423.112C-69.2329 421.346 -69.1583 419.522 -68.6367 417.807C-68.0225 415.79 -66.7295 414.126 -65.2541 412.658C-64.7355 412.142 -64.1964 411.645 -63.6573 411.147C-62.5241 410.102 -61.3906 409.057 -60.4459 407.835ZM-57.1315 401.278C-56.6691 396.565 -58.0167 392.167 -59.3667 387.762C-60.4612 384.191 -61.5572 380.615 -61.6919 376.861C-61.8335 372.908 -60.8201 368.6 -57.6766 365.95C-54.947 363.647 -51.1818 362.991 -47.723 363.561C-39.2917 364.95 -34.6265 373.259 -33.0557 380.964C-32.7303 382.561 -32.4939 384.174 -32.2576 385.786C-31.9477 387.9 -31.6379 390.014 -31.1275 392.091C-30.2428 395.69 -28.6637 398.954 -25.9233 401.507C-24.0632 403.238 -21.9179 404.585 -19.7724 405.932L-19.7722 405.932L-19.772 405.932C-18.4078 406.788 -17.0434 407.645 -15.7522 408.601C-14.0334 409.873 -12.4604 411.326 -11.2721 413.116C-10.5514 414.201 -9.96468 415.362 -9.378 416.523C-8.99984 417.271 -8.6217 418.02 -8.20768 418.748C-7.19115 420.533 -5.89128 422.246 -4.10647 423.318C-3.3313 423.784 -2.54714 424.005 -1.68611 424.228C-0.71036 424.48 -0.0766472 425.244 0.218466 426.187C0.893916 428.346 -0.732677 430.35 -2.03114 431.889C-3.06462 433.112 -4.10581 434.329 -5.147 435.546C-5.66777 436.155 -6.18855 436.764 -6.70835 437.374C-7.3191 438.09 -7.92976 438.806 -8.54038 439.522L-9.86026 441.071L-9.86833 441.08L-9.8764 441.09C-11.9577 443.531 -14.0392 445.973 -16.1235 448.412C-18.4662 451.153 -20.9865 454.024 -24.2667 455.659C-25.9217 456.484 -27.7505 456.933 -29.6041 456.802C-31.6201 456.659 -33.5287 455.911 -35.3046 454.985C-39.3739 452.863 -43.1865 450.073 -46.8422 447.315C-50.6596 444.435 -54.3135 441.339 -57.7808 438.046L-58.0233 437.816L-58.0235 437.816C-61.2407 434.762 -64.6418 431.534 -66.6754 427.544C-68.3753 424.208 -69.0472 420.059 -67.3015 416.599C-66.279 414.573 -64.6269 413.052 -62.9719 411.529C-61.4626 410.139 -59.9507 408.748 -58.9116 406.968C-57.9009 405.238 -57.3655 403.3 -57.1344 401.32C-57.1334 401.311 -57.1327 401.303 -57.1322 401.294C-57.1319 401.289 -57.1316 401.283 -57.1315 401.278ZM-50.5815 408.77C-50.7845 410.475 -51.3237 412.085 -52.3985 413.444C-53.0466 414.263 -53.8129 414.97 -54.5792 415.677L-54.5794 415.677C-55.0013 416.066 -55.4232 416.455 -55.8253 416.863C-57.8492 418.918 -58.7817 421.458 -58.2824 424.329C-57.7671 427.29 -55.965 429.77 -53.9604 431.923C-51.631 434.426 -49.0973 436.755 -46.4708 438.942C-43.7917 441.175 -40.9801 443.248 -38.0567 445.148L-37.9638 445.208C-35.6362 446.721 -33.0954 448.373 -30.2252 448.394C-27.6222 448.413 -25.3465 446.992 -23.499 445.274C-21.8066 443.698 -20.313 441.902 -18.8289 440.116C-18.3629 439.556 -17.8978 438.997 -17.4278 438.445C-16.6723 437.56 -15.9068 436.68 -15.1408 435.8L-15.1401 435.799C-13.536 433.955 -11.9299 432.109 -10.4097 430.204C-9.62315 429.219 -8.8527 428.004 -8.99401 426.684C-9.10062 425.676 -9.71056 424.648 -10.7061 424.312C-10.8927 424.249 -11.0732 424.196 -11.2497 424.143C-11.7538 423.994 -12.2247 423.855 -12.7073 423.523C-13.3893 423.054 -13.9482 422.432 -14.4269 421.763C-15.0222 420.931 -15.4828 420.019 -15.9434 419.106C-16.2328 418.533 -16.5223 417.96 -16.8451 417.406C-18.4414 414.67 -21.051 413.014 -23.6655 411.364C-26.2812 409.713 -28.8124 407.935 -30.1242 405.028C-31.1267 402.808 -31.4781 400.382 -31.8257 397.982L-31.8259 397.981C-31.889 397.545 -31.9521 397.11 -32.0188 396.677C-32.8625 391.208 -35.0399 385.113 -40.4399 382.618C-44.9649 380.528 -50.8692 381.763 -52.9301 386.637C-54.7157 390.856 -53.4182 395.103 -52.1411 399.283C-51.6493 400.892 -51.1605 402.492 -50.8519 404.077C-50.5495 405.624 -50.4285 407.199 -50.5815 408.77ZM-49.7985 408.883C-49.7997 408.895 -49.8013 408.907 -49.8033 408.918C-49.9707 410.281 -50.3361 411.613 -51.0198 412.812C-51.7498 414.091 -52.8273 415.084 -53.9029 416.077C-55.0553 417.139 -56.2056 418.2 -56.9246 419.608C-58.2087 422.125 -57.6059 425.182 -56.2868 427.552C-54.7965 430.233 -52.475 432.426 -50.263 434.515L-50.1214 434.649C-47.736 436.903 -45.2251 439.024 -42.6038 440.999C-40.0749 442.904 -37.4396 444.834 -34.6294 446.306C-32.1271 447.617 -29.4664 448.089 -26.8672 446.76C-24.5426 445.571 -22.7783 443.503 -21.1105 441.547L-21.1104 441.547L-21.0917 441.525C-20.0328 440.284 -18.9744 439.042 -17.9161 437.801C-16.8092 436.503 -15.7025 435.205 -14.5954 433.907C-14.2222 433.469 -13.8479 433.032 -13.4735 432.595C-12.7717 431.776 -12.07 430.957 -11.3762 430.131C-10.4204 428.991 -9.23615 427.449 -10.0418 425.912C-10.3704 425.286 -10.8372 425.103 -11.4863 424.941C-12.1042 424.786 -12.6759 424.503 -13.1982 424.141C-14.3568 423.336 -15.1943 422.15 -15.8699 420.932C-16.1203 420.482 -16.3537 420.02 -16.5872 419.559C-17.0483 418.648 -17.5098 417.736 -18.1032 416.902C-18.969 415.685 -20.1013 414.707 -21.3094 413.843C-22.1221 413.261 -22.9726 412.728 -23.8235 412.194L-23.8238 412.194C-25.4245 411.19 -27.0265 410.186 -28.38 408.858C-31.4016 405.893 -32.0112 401.898 -32.6173 397.926L-32.6173 397.925C-32.7889 396.801 -32.9602 395.678 -33.186 394.581C-34.2881 389.223 -37.5578 383.451 -43.4332 382.534C-45.8866 382.151 -48.5603 382.664 -50.4308 384.378C-52.5456 386.318 -53.1365 389.372 -52.9694 392.125C-52.8168 394.626 -52.0881 397.011 -51.3609 399.392L-51.3608 399.392C-50.4168 402.482 -49.4751 405.565 -49.7985 408.883ZM-44.3521 419.054C-43.6965 418.262 -43.3739 417.344 -43.2443 416.334C-43.0804 414.485 -43.6153 412.71 -44.1485 410.94C-44.7999 408.777 -45.449 406.623 -44.8194 404.351C-43.8813 400.967 -40.0615 399.835 -37.0698 401.318C-34.0208 402.831 -32.7829 406.27 -32.2957 409.418C-32.2561 409.674 -32.2189 409.932 -32.1817 410.19C-31.9777 411.604 -31.7707 413.04 -31.1401 414.33C-30.3462 415.956 -28.8357 416.912 -27.357 417.847C-27.2486 417.916 -27.1403 417.984 -27.0324 418.053C-25.4534 419.058 -24.1901 420.138 -23.3111 421.814C-23.2316 421.965 -23.1539 422.119 -23.076 422.273C-22.7059 423.004 -22.3301 423.747 -21.7337 424.317C-21.3402 424.694 -20.9302 424.883 -20.4222 425.032C-20.1566 425.109 -19.9382 425.188 -19.7266 425.374C-18.5732 426.389 -19.3178 427.907 -20.1006 428.867C-20.9996 429.97 -21.9326 431.048 -22.8651 432.125C-23.3298 432.662 -23.7945 433.199 -24.2546 433.739C-24.5118 434.04 -24.7756 434.365 -25.0479 434.7C-26.7373 436.777 -28.7535 439.257 -31.5426 439.176C-33.1773 439.128 -34.6159 438.198 -35.9442 437.337C-37.653 436.23 -39.295 435.019 -40.8598 433.716C-42.3787 432.449 -43.8463 431.1 -45.1885 429.646C-46.3105 428.434 -47.3031 427.043 -47.6242 425.392C-47.9143 423.903 -47.567 422.446 -46.5832 421.286C-46.2508 420.895 -45.8724 420.548 -45.494 420.202C-45.0955 419.837 -44.697 419.472 -44.3521 419.054ZM-42.4698 416.503C-42.7241 418.368 -43.6878 419.577 -45.0303 420.837C-45.7978 421.556 -46.5657 422.312 -46.8273 423.369C-47.0301 424.192 -46.9428 425.071 -46.6899 425.872C-46.1145 427.698 -44.6518 429.133 -43.3168 430.435C-41.8588 431.858 -40.3152 433.193 -38.6983 434.431C-37.2568 435.533 -35.7572 436.621 -34.1717 437.506C-32.7679 438.29 -31.253 438.707 -29.7298 437.99C-28.3776 437.354 -27.3581 436.159 -26.4056 435.042L-26.3667 434.997C-25.6504 434.159 -24.9355 433.32 -24.2206 432.481C-23.7426 431.92 -23.2645 431.359 -22.786 430.798C-22.5621 430.535 -22.3373 430.273 -22.1124 430.01C-21.7055 429.535 -21.2985 429.06 -20.8965 428.582L-20.8435 428.519C-20.3278 427.907 -19.5686 427.006 -20.0841 426.193C-20.271 425.899 -20.5383 425.824 -20.8255 425.744C-20.9437 425.711 -21.0653 425.678 -21.186 425.627C-21.4911 425.5 -21.7785 425.32 -22.0345 425.111C-22.5662 424.676 -22.9754 424.103 -23.3135 423.511C-23.4809 423.219 -23.6332 422.917 -23.7854 422.616C-24.0187 422.154 -24.2519 421.693 -24.5397 421.263C-25.0017 420.573 -25.6072 420.015 -26.2705 419.522C-26.7897 419.137 -27.3389 418.792 -27.8881 418.448C-28.7373 417.915 -29.5864 417.382 -30.3245 416.699C-32.2408 414.924 -32.6175 412.493 -32.9947 410.059C-33.0479 409.716 -33.1012 409.372 -33.1588 409.03C-33.6893 405.888 -35.3072 402.265 -38.7701 401.572C-40.1736 401.291 -41.7507 401.53 -42.8419 402.509C-44.1038 403.64 -44.3984 405.469 -44.2541 407.08C-44.1326 408.433 -43.744 409.721 -43.3564 411.006C-42.8232 412.774 -42.292 414.536 -42.4613 416.447C-42.4631 416.467 -42.466 416.486 -42.4698 416.503Z" fill="url(#paint0_linear_1212_2835)"/>
<defs>
<linearGradient id="paint0_linear_1212_2835" x1="107.795" y1="573.012" x2="-136.544" y2="160.679" gradientUnits="userSpaceOnUse">
<stop offset="0.117231" stop-color="white" stop-opacity="0.6"/>
<stop offset="0.49173" stop-color="#2047F4" stop-opacity="0.26"/>
<stop offset="0.995488" stop-color="white"/>
</linearGradient>
</defs>
</svg>
