<svg width="110" height="582" viewBox="0 0 110 582" fill="none" xmlns="http://www.w3.org/2000/svg">
<path fill-rule="evenodd" clip-rule="evenodd" d="M37.212 272.144C31.8134 286.551 31.0915 302.076 33.3017 317.197C35.5568 331.754 40.3488 345.792 46.61 359.093C53.4187 373.548 62.1933 387.667 71.0277 401.881L71.0278 401.882L71.028 401.882L71.0282 401.882L71.0284 401.883L71.0286 401.883L71.0287 401.883L71.0289 401.883L71.0291 401.884L71.0293 401.884L71.0294 401.884L71.0296 401.885L71.0298 401.885L71.03 401.885L71.0302 401.885L71.0303 401.886L71.0305 401.886L71.0307 401.886L71.0309 401.886L71.031 401.887L71.0312 401.887C92.6207 436.625 114.567 471.938 109.065 514.132C105.908 538.333 91.8363 558.752 70.3951 570.354C50.0693 581.353 25.4135 584.301 2.92311 579.301C-23.2007 573.494 -46.0222 557.091 -63.5515 537.331C-81.9424 516.598 -94.1643 492.167 -104.989 466.888C-105.893 464.777 -106.793 462.658 -107.695 460.535C-117.048 438.524 -126.581 416.089 -142.076 397.659C-151.244 386.754 -162.394 378.013 -175.03 371.45C-187.988 364.72 -201.903 360.104 -215.788 355.713C-216.752 355.408 -217.716 355.104 -218.68 354.799C-245.358 346.378 -272.363 337.854 -292.882 317.851C-297.736 313.119 -302.231 308.04 -306.726 302.962L-306.726 302.962L-306.726 302.962L-306.726 302.961L-306.726 302.961L-306.727 302.961L-306.727 302.961L-306.727 302.961L-306.727 302.96L-306.727 302.96L-306.727 302.96L-306.728 302.96L-306.728 302.96L-306.728 302.959L-306.728 302.959L-306.728 302.959L-306.728 302.959L-306.729 302.959L-306.729 302.959L-306.729 302.958L-306.729 302.958C-312.254 296.716 -317.777 290.475 -323.967 284.878C-335.272 274.657 -349.673 265.835 -365.464 266.513C-370.781 266.741 -375.134 266.247 -379.577 263.016C-383.808 259.941 -387.012 255.408 -388.738 250.489C-393.121 238.009 -387.33 224.43 -382.018 213.221C-372.46 193.053 -362.732 172.964 -353.004 152.876L-353.003 152.874L-353.003 152.874L-353.001 152.871L-353 152.869L-353 152.868L-352.999 152.866L-352.998 152.864L-352.997 152.862L-352.996 152.86L-352.995 152.858L-352.994 152.857L-352.993 152.855L-352.993 152.853L-352.992 152.851L-352.991 152.849L-352.99 152.848L-352.989 152.846L-352.989 152.845L-352.988 152.844C-348.215 142.989 -343.443 133.133 -338.69 123.269C-336.373 118.458 -334.06 113.646 -331.746 108.834L-331.742 108.825C-326.942 98.8382 -322.142 88.8521 -317.304 78.8842C-311.919 67.7884 -306.272 56.7873 -299.629 46.3827C-286.956 26.531 -269.72 8.27783 -246.007 2.69107C-220.137 -3.40512 -193.168 5.68739 -168.648 13.9548L-168.645 13.9558L-168.635 13.9591L-168.612 13.9668L-168.596 13.9723L-168.573 13.9799L-168.553 13.9867L-168.546 13.9889C-167.449 14.3589 -166.357 14.7271 -165.27 15.0922C-133.864 25.6387 -103.079 38.0329 -73.122 52.1796C-44.0798 65.8951 -15.4015 81.0126 11.6327 98.39C34.8245 113.297 56.9837 131.851 67.9739 157.824C72.679 168.945 75.2046 181.106 74.3135 193.201C73.2572 207.529 66.9291 220.465 59.5616 232.554C57.6603 235.674 55.6861 238.763 53.71 241.854L53.7095 241.855L53.7083 241.857L53.7066 241.86L53.7049 241.862L53.7032 241.865L53.7015 241.868L53.6998 241.87L53.6981 241.873L53.6964 241.876C47.4914 251.584 41.2679 261.321 37.212 272.144ZM32.5123 317.26C32.5131 317.269 32.5142 317.278 32.5156 317.287C37.3703 348.62 53.6877 374.876 70.0281 401.168C83.9466 423.564 97.8819 445.987 104.764 471.597C111.567 496.913 111.215 525.689 95.3897 547.707C81.4119 567.157 58.0906 577.926 34.679 580.312C-21.9598 586.086 -66.9112 542.087 -91.0773 495.263C-96.7994 484.177 -101.68 472.7 -106.56 461.224C-111.765 448.984 -116.969 436.745 -123.195 424.98C-128.923 414.156 -135.528 403.72 -143.707 394.567C-152.167 385.096 -162.215 377.385 -173.409 371.409C-188.352 363.431 -204.463 358.391 -220.578 353.349C-231.61 349.898 -242.645 346.445 -253.308 342.05C-266.762 336.503 -279.438 329.311 -290.142 319.368C-295.899 314.019 -301.104 308.143 -306.309 302.267L-306.309 302.267L-306.31 302.267C-310.923 297.058 -315.537 291.85 -320.536 287.008C-330.265 277.584 -341.995 269.18 -355.525 266.524C-358.471 265.945 -361.49 265.64 -364.494 265.69C-365.096 265.7 -365.687 265.72 -366.272 265.739C-369.127 265.835 -371.814 265.925 -374.632 264.842C-380.386 262.632 -384.849 257.578 -387.28 252.019C-393.104 238.708 -386.228 223.822 -380.448 211.766C-375.752 201.974 -371.033 192.192 -366.313 182.411C-363.955 177.524 -361.597 172.637 -359.242 167.749C-354.59 158.092 -349.943 148.432 -345.297 138.772L-345.295 138.768L-345.294 138.765L-345.292 138.762L-345.29 138.758L-345.289 138.755L-345.287 138.751L-345.285 138.748L-345.284 138.745L-345.282 138.741L-345.28 138.738L-345.279 138.734L-345.277 138.731L-345.275 138.728L-345.274 138.724L-345.272 138.721L-345.271 138.717L-345.269 138.714C-335.844 119.121 -326.42 99.5266 -316.946 79.9572C-306.348 58.0654 -294.592 35.2086 -275.828 19.1213C-266.469 11.0969 -255.376 5.24781 -243.222 2.89542C-229.911 0.319025 -216.196 1.78128 -203.07 4.70427C-188.527 7.94422 -174.315 12.7958 -160.238 17.6278C-144.927 22.8844 -129.767 28.5792 -114.783 34.7049C-84.9881 46.8849 -55.8845 60.7553 -27.6633 76.237L-26.394 76.9332C-0.292443 91.2495 27.1253 106.288 47.5747 128.295C64.9673 147.013 77.2572 173.012 72.8123 199.036C70.085 215.004 61.5045 228.411 52.9073 241.845C45.6285 253.218 38.3378 264.61 34.5773 277.59C30.8433 290.48 30.5848 304.02 32.5106 317.234C32.5109 317.242 32.5114 317.251 32.5123 317.26ZM28.015 268.722C22.8591 282.482 22.1697 297.308 24.2809 311.749C26.4363 325.653 31.0128 339.061 36.9938 351.769C43.4991 365.58 51.8825 379.07 60.323 392.652L60.3234 392.652C80.9459 425.836 101.909 459.568 96.6523 499.876C93.6384 522.997 80.1926 542.506 59.7076 553.591C40.2881 564.1 16.7316 566.918 -4.75615 562.141C-29.7161 556.591 -51.5187 540.921 -68.267 522.042C-85.8354 502.236 -97.5108 478.897 -107.851 454.748C-108.71 452.741 -109.566 450.726 -110.424 448.708L-110.427 448.702L-110.435 448.683C-119.369 427.657 -128.474 406.226 -143.275 388.623C-152.032 378.208 -162.679 369.86 -174.746 363.592C-187.125 357.163 -200.417 352.754 -213.681 348.559C-214.601 348.268 -215.522 347.977 -216.443 347.687L-216.448 347.685C-241.932 339.641 -267.728 331.498 -287.328 312.39C-291.963 307.87 -296.256 303.02 -300.548 298.17L-300.548 298.169L-300.549 298.169C-305.828 292.204 -311.106 286.24 -317.02 280.893C-327.816 271.132 -341.566 262.706 -356.646 263.353C-361.729 263.572 -365.892 263.098 -370.14 260.009C-374.183 257.07 -377.245 252.738 -378.896 248.036C-383.083 236.11 -377.552 223.136 -372.475 212.423C-363.339 193.144 -354.039 173.939 -344.739 154.735L-344.739 154.734L-344.738 154.734L-344.738 154.734L-344.738 154.733L-344.738 154.733L-344.738 154.733L-344.738 154.732L-344.737 154.732L-344.737 154.732L-344.737 154.731L-344.737 154.731L-344.737 154.73L-344.736 154.73L-344.736 154.73L-344.736 154.729L-344.736 154.729L-344.736 154.729L-344.736 154.728L-344.735 154.728L-344.734 154.725L-344.734 154.724L-344.733 154.723L-344.732 154.722L-344.732 154.721L-344.731 154.72L-344.731 154.719L-344.73 154.717L-344.73 154.716L-344.729 154.715L-344.729 154.714L-344.728 154.713L-344.728 154.712L-344.727 154.711L-344.726 154.709L-344.726 154.708L-344.725 154.707L-344.725 154.706L-344.724 154.705L-344.724 154.704L-344.723 154.703C-340.172 145.304 -335.62 135.905 -331.088 126.498C-328.935 122.028 -326.785 117.556 -324.635 113.083L-324.635 113.082L-324.631 113.074L-324.626 113.065C-319.983 103.405 -315.34 93.7446 -310.66 84.1014C-305.515 73.5 -300.12 62.9909 -293.774 53.0501C-281.665 34.0822 -265.197 16.6456 -242.542 11.3083C-217.826 5.48534 -192.062 14.1718 -168.635 22.0704C-167.555 22.4346 -166.48 22.797 -165.411 23.1563C-135.411 33.2323 -106.005 45.0704 -77.3886 58.5832C-49.6456 71.6847 -22.2496 86.1265 3.57579 102.727C25.733 116.969 46.9019 134.694 57.401 159.507C61.8973 170.132 64.3095 181.753 63.4583 193.31C62.4487 206.996 56.4036 219.355 49.3648 230.904C47.546 233.888 45.6578 236.842 43.7679 239.799C37.838 249.075 31.8908 258.379 28.015 268.722ZM23.5039 311.897C28.1522 341.803 43.7297 366.868 59.329 391.969C72.6245 413.362 85.936 434.781 92.5101 459.245C99.0075 483.421 98.6704 510.903 83.5591 531.93C70.2093 550.505 47.937 560.79 25.5782 563.068C-28.5158 568.583 -71.4488 526.558 -94.5299 481.838C-99.9933 471.252 -104.653 460.293 -109.314 449.335C-114.287 437.639 -119.26 425.944 -125.21 414.702C-130.683 404.361 -136.993 394.391 -144.805 385.647C-152.89 376.599 -162.489 369.231 -173.185 363.519C-187.458 355.9 -202.847 351.085 -218.239 346.27L-218.239 346.269C-228.779 342.972 -239.32 339.674 -249.507 335.474C-262.357 330.178 -274.464 323.308 -284.689 313.81C-290.189 308.701 -295.161 303.088 -300.133 297.475L-300.134 297.474C-304.54 292.5 -308.947 287.525 -313.722 282.9C-323.017 273.897 -334.225 265.868 -347.154 263.33C-349.969 262.778 -352.854 262.486 -355.724 262.533C-356.299 262.543 -356.864 262.562 -357.422 262.58C-360.146 262.671 -362.709 262.757 -365.399 261.724C-370.89 259.616 -375.151 254.791 -377.473 249.486C-383.033 236.776 -376.466 222.561 -370.947 211.049C-366.421 201.61 -361.872 192.181 -357.323 182.753L-357.315 182.736C-355.106 178.158 -352.898 173.58 -350.692 169.001C-346.248 159.777 -341.809 150.549 -337.371 141.322L-337.361 141.302C-328.353 122.574 -319.345 103.846 -310.29 85.142C-300.168 64.2329 -288.939 42.4024 -271.017 27.0369C-262.08 19.3749 -251.487 13.7866 -239.881 11.5408C-227.167 9.0805 -214.07 10.4771 -201.533 13.2693C-187.642 16.3625 -174.067 20.9978 -160.622 25.6127C-145.997 30.6335 -131.515 36.0737 -117.202 41.9253C-88.7397 53.5596 -60.9405 66.8084 -33.9841 81.598L-32.7654 82.2665C-7.83782 95.9391 18.3479 110.302 37.8774 131.32C54.4887 149.198 66.2267 174.027 61.9814 198.881C59.3759 214.133 51.1797 226.939 42.9679 239.77C36.0153 250.634 29.0514 261.515 25.4597 273.912C21.8873 286.243 21.6424 299.196 23.4906 311.837C23.4938 311.858 23.4983 311.878 23.5039 311.897ZM15.2608 306.3C13.2494 292.54 13.9055 278.412 18.8181 265.299C22.5119 255.443 28.18 246.576 33.8315 237.735L33.8317 237.735L33.8332 237.732L33.8347 237.73L33.8362 237.728L33.8378 237.725L33.8393 237.723L33.8408 237.72L33.8423 237.718L33.8438 237.716L33.8453 237.713L33.8468 237.711L33.8484 237.708L33.8499 237.706L33.8514 237.704L33.8529 237.701L33.8544 237.699L33.8559 237.696L33.8574 237.694L33.8589 237.692L33.8605 237.689C35.6526 234.886 37.443 232.085 39.1673 229.256C45.8767 218.248 51.6389 206.466 52.6009 193.419C53.4124 182.401 51.1127 171.322 46.8266 161.191C36.8179 137.538 16.6401 120.64 -4.48041 107.063C-29.0962 91.241 -55.2099 77.4748 -81.6538 64.9873C-108.927 52.1076 -136.956 40.8244 -165.55 31.2211C-166.57 30.8788 -167.594 30.5335 -168.623 30.1865C-190.955 22.6571 -215.514 14.3766 -239.077 19.927C-260.676 25.0149 -276.376 41.6362 -287.921 59.7184C-293.971 69.1933 -299.115 79.2131 -304.019 89.3174C-308.398 98.3408 -312.744 107.381 -317.09 116.421C-319.222 120.856 -321.354 125.292 -323.49 129.726C-327.811 138.694 -332.15 147.655 -336.49 156.615C-345.357 174.927 -354.225 193.24 -362.937 211.624C-367.778 221.839 -373.051 234.209 -369.058 245.583C-367.484 250.067 -364.563 254.199 -360.707 257.003C-356.654 259.95 -352.682 260.402 -347.832 260.194C-333.465 259.577 -320.363 267.608 -310.076 276.906C-304.44 282.002 -299.41 287.686 -294.38 293.37L-294.379 293.37C-290.287 297.994 -286.195 302.618 -281.776 306.927C-263.093 325.14 -238.503 332.902 -214.212 340.57L-212.636 341.068L-211.576 341.403C-198.935 345.402 -186.266 349.603 -174.467 355.731C-162.967 361.702 -152.821 369.657 -144.478 379.581C-130.373 396.358 -121.696 416.778 -113.182 436.815C-112.36 438.749 -111.54 440.679 -110.716 442.602C-100.861 465.621 -89.7309 487.869 -72.9849 506.746C-57.0178 524.745 -36.2341 539.682 -12.4387 544.972C8.04627 549.527 30.5051 546.84 49.0182 536.821C68.5466 526.253 81.3652 507.652 84.2402 485.61C89.2509 447.188 69.2697 415.035 49.613 383.404C41.5682 370.459 33.5778 357.601 27.3772 344.437C21.6753 332.328 17.3143 319.551 15.2608 306.3ZM14.4748 306.39C14.4737 306.383 14.4728 306.376 14.472 306.369C14.471 306.359 14.4703 306.35 14.4699 306.341C12.7167 294.303 12.9538 281.972 16.3555 270.232C19.7794 258.417 26.4164 248.046 33.0425 237.693C40.8697 225.463 48.6816 213.257 51.1645 198.721C55.2093 175.035 44.0224 151.375 28.1932 134.34C9.58315 114.311 -15.3703 100.624 -39.1238 87.5953L-40.2925 86.9541C-65.9869 72.8591 -92.4831 60.2311 -119.61 49.1418C-133.253 43.5642 -147.056 38.3792 -160.996 33.5935C-173.809 29.1944 -186.746 24.7767 -199.984 21.8288C-211.932 19.1674 -224.414 17.8373 -236.531 20.1815C-247.59 22.3222 -257.684 27.6477 -266.2 34.9488C-283.279 49.5924 -293.98 70.3972 -303.626 90.3228C-312.21 108.056 -320.75 125.809 -329.29 143.563L-329.298 143.58L-329.301 143.586L-329.307 143.6L-329.309 143.603C-333.582 152.487 -337.855 161.371 -342.134 170.253C-344.239 174.621 -346.346 178.988 -348.453 183.355L-348.454 183.357L-348.455 183.359C-352.791 192.346 -357.127 201.332 -361.441 210.329C-366.699 221.295 -372.958 234.841 -367.661 246.95C-365.451 252.003 -361.393 256.598 -356.163 258.605C-353.604 259.587 -351.165 259.506 -348.573 259.419L-348.57 259.419C-348.038 259.401 -347.499 259.383 -346.952 259.374C-344.214 259.33 -341.463 259.607 -338.777 260.134C-326.451 262.553 -315.766 270.206 -306.904 278.791C-302.353 283.199 -298.153 287.941 -293.953 292.683L-293.952 292.683C-289.213 298.033 -284.475 303.383 -279.233 308.253C-269.489 317.306 -257.951 323.851 -245.704 328.9C-235.996 332.902 -225.951 336.045 -215.907 339.187C-201.234 343.778 -186.566 348.367 -172.961 355.63C-162.762 361.075 -153.612 368.099 -145.903 376.726C-138.455 385.061 -132.441 394.566 -127.224 404.423C-121.555 415.136 -116.815 426.281 -112.076 437.426L-112.076 437.427L-112.076 437.427L-112.076 437.427L-112.076 437.428L-112.075 437.428L-112.075 437.428L-112.075 437.429L-112.075 437.429L-112.075 437.429L-112.075 437.429L-112.075 437.43L-112.075 437.43L-112.075 437.43L-112.075 437.43L-112.075 437.431L-112.075 437.431L-112.074 437.431L-112.074 437.432L-112.074 437.432C-107.632 447.877 -103.19 458.323 -97.9825 468.413C-75.9878 511.028 -35.0732 551.079 16.4759 545.823C37.781 543.65 59.0043 533.85 71.7261 516.15C86.1252 496.114 86.4452 469.926 80.2553 446.891C73.9891 423.574 61.3019 403.158 48.6298 382.768C33.7519 358.827 18.8949 334.921 14.4748 306.39ZM9.62271 261.878C4.95196 274.341 4.32833 287.771 6.24089 300.851C8.19249 313.449 12.3395 325.597 17.758 337.107C23.6542 349.625 31.2513 361.85 38.9 374.159C57.5915 404.237 76.5907 434.812 71.8263 471.349C69.0918 492.313 56.9015 510.003 38.3291 520.054C20.7224 529.583 -0.637231 532.139 -20.1195 527.808C-42.7488 522.777 -62.5165 508.572 -77.7011 491.454C-93.624 473.504 -104.207 452.35 -113.579 430.461C-114.361 428.633 -115.141 426.798 -115.922 424.96C-124.017 405.909 -132.267 386.493 -145.678 370.543C-153.608 361.11 -163.254 353.547 -174.184 347.871C-185.401 342.044 -197.448 338.049 -209.467 334.247C-209.875 334.118 -210.283 333.989 -210.692 333.86L-211.967 333.457C-235.066 326.165 -258.451 318.783 -276.218 301.463C-280.42 297.367 -284.311 292.97 -288.201 288.574L-288.201 288.574L-288.202 288.573C-292.985 283.168 -297.768 277.764 -303.127 272.919C-312.902 264.08 -325.356 256.445 -339.011 257.032C-343.629 257.228 -347.409 256.798 -351.269 253.993C-354.939 251.326 -357.717 247.393 -359.215 243.127C-363.013 232.309 -358 220.542 -353.396 210.825C-345.121 193.366 -336.699 175.974 -328.278 158.584C-324.142 150.043 -320.006 141.503 -315.888 132.955C-313.832 128.688 -311.78 124.42 -309.728 120.151L-309.727 120.15L-309.727 120.149L-309.726 120.147L-309.726 120.146L-309.725 120.145L-309.725 120.144L-309.724 120.143L-309.723 120.142L-309.723 120.14L-309.722 120.139L-309.722 120.138L-309.721 120.137L-309.721 120.136L-309.72 120.134L-309.719 120.133L-309.719 120.132L-309.718 120.131L-309.718 120.13C-305.614 111.592 -301.51 103.055 -297.374 94.5332C-292.711 84.9225 -287.818 75.3954 -282.066 66.3844C-271.086 49.1874 -256.153 33.3812 -235.61 28.5428C-213.202 23.2642 -189.847 31.1387 -168.609 38.2994L-168.603 38.3014C-167.627 38.6304 -166.656 38.9578 -165.69 39.2823C-138.503 48.4144 -111.853 59.1436 -85.9197 71.3894C-60.7734 83.2636 -35.9436 96.3534 -12.5365 111.399C7.54794 124.31 26.7354 140.379 36.2529 162.872C40.3303 172.508 42.5173 183.045 41.7449 193.525C40.8304 205.933 35.3512 217.138 28.9706 227.606C27.3207 230.314 25.6075 232.994 23.8927 235.677L23.8922 235.678L23.8921 235.678L23.892 235.678L23.8919 235.678L23.8918 235.678L23.8917 235.679L23.8916 235.679L23.8915 235.679L23.8914 235.679L23.8913 235.68L23.8912 235.68L23.8911 235.68L23.891 235.68L23.891 235.68L23.8909 235.681L23.8908 235.681L23.8907 235.681L23.8906 235.681C18.5199 244.084 13.1331 252.511 9.62271 261.878ZM5.4589 300.967C9.66641 328.083 23.7882 350.807 37.93 373.563C49.9795 392.953 62.0435 412.366 68.0015 434.539C73.8854 456.434 73.5826 481.329 59.895 500.374C47.8026 517.199 27.6289 526.515 7.37466 528.58C-41.6311 533.577 -80.525 495.502 -101.436 454.989C-106.388 445.395 -110.612 435.462 -114.835 425.529C-119.342 414.931 -123.849 404.333 -129.24 394.147C-134.201 384.772 -139.92 375.735 -147.002 367.806C-154.332 359.601 -163.037 352.92 -172.736 347.741C-185.668 340.837 -199.611 336.475 -213.557 332.112L-213.558 332.112L-213.558 332.112L-213.559 332.111L-213.559 332.111L-213.56 332.111L-213.56 332.111L-213.561 332.111L-213.561 332.11L-213.561 332.11L-213.562 332.11L-213.562 332.11L-213.563 332.11L-213.563 332.11L-213.564 332.109L-213.564 332.109L-213.565 332.109L-213.565 332.109L-213.566 332.109C-223.117 329.12 -232.671 326.131 -241.903 322.325C-253.546 317.526 -264.514 311.302 -273.778 302.696C-278.762 298.066 -283.267 292.98 -287.773 287.893C-291.767 283.384 -295.761 278.875 -300.089 274.684C-308.519 266.519 -318.681 259.241 -330.405 256.941C-332.959 256.439 -335.576 256.175 -338.182 256.219C-338.701 256.228 -339.212 256.245 -339.717 256.262L-339.717 256.262C-342.181 256.345 -344.499 256.423 -346.931 255.489C-351.899 253.583 -355.754 249.218 -357.852 244.418C-362.886 232.909 -356.936 220.035 -351.939 209.612C-347.836 201.056 -343.712 192.509 -339.588 183.962L-339.588 183.961L-339.587 183.959L-339.586 183.958L-339.586 183.957L-339.585 183.955L-339.584 183.954L-339.584 183.953L-339.583 183.951L-339.582 183.95L-339.582 183.949L-339.581 183.947L-339.58 183.946L-339.58 183.944L-339.579 183.943L-339.578 183.942L-339.578 183.94L-339.577 183.939L-339.576 183.938C-337.577 179.794 -335.578 175.651 -333.581 171.507C-329.521 163.08 -325.467 154.651 -321.412 146.221L-321.406 146.209L-321.401 146.197L-321.388 146.17L-321.384 146.163C-313.259 129.271 -305.134 112.379 -296.966 95.5088C-287.796 76.5665 -277.625 56.7869 -261.389 42.8666C-253.294 35.9264 -243.699 30.8652 -233.188 28.8296C-221.668 26.5994 -209.803 27.8661 -198.444 30.3966C-185.858 33.1998 -173.559 37.3992 -161.378 41.5811C-148.124 46.1311 -134.999 51.0615 -122.029 56.3644C-96.2359 66.9088 -71.0421 78.9144 -46.611 92.318L-45.4941 92.9307C-22.9129 105.317 0.807719 118.328 18.5003 137.367C33.5482 153.561 44.1841 176.054 40.3382 198.567C37.9773 212.387 30.5501 223.992 23.1084 235.619C16.8083 245.463 10.4978 255.323 7.24229 266.556C4.00234 277.738 3.78022 289.482 5.45508 300.945C5.45621 300.952 5.45746 300.96 5.4589 300.967ZM-2.7797 295.404C-4.59184 283.003 -4.00226 270.272 0.425817 258.456C3.75669 249.568 8.86779 241.572 13.9638 233.6C15.5881 231.059 17.2108 228.52 18.7739 225.956C24.8244 216.027 30.022 205.4 30.8898 193.633C31.6223 183.692 29.5486 173.696 25.6802 164.556C16.6531 143.223 -1.54337 127.982 -20.5932 115.737C-42.7915 101.467 -66.339 89.0531 -90.1861 77.7929C-114.778 66.1795 -140.05 56.0059 -165.831 47.3464C-166.749 47.038 -167.672 46.7269 -168.599 46.4144C-188.741 39.623 -210.893 32.1542 -232.145 37.1599C-251.63 41.7496 -265.795 56.7384 -276.211 73.0517C-281.668 81.5982 -286.306 90.634 -290.731 99.7482C-294.71 107.946 -298.658 116.159 -302.606 124.373L-302.606 124.374C-304.499 128.311 -306.391 132.248 -308.287 136.183C-312.189 144.282 -316.107 152.374 -320.026 160.466C-328.015 176.963 -336.005 193.462 -343.854 210.025C-348.223 219.246 -352.977 230.408 -349.373 240.673C-347.952 244.722 -345.314 248.454 -341.832 250.986C-338.168 253.649 -334.577 254.059 -330.192 253.87C-317.249 253.315 -305.445 260.553 -296.18 268.932C-291.099 273.526 -286.564 278.65 -282.028 283.774C-278.338 287.944 -274.647 292.114 -270.661 296C-253.813 312.425 -231.637 319.426 -209.733 326.341C-208.941 326.59 -208.149 326.84 -207.358 327.091C-195.959 330.696 -184.537 334.484 -173.899 340.01C-163.538 345.391 -154.394 352.56 -146.875 361.502C-134.159 376.627 -126.336 395.036 -118.66 413.1L-118.66 413.1C-117.919 414.843 -117.18 416.583 -116.438 418.316C-107.55 439.073 -97.5143 459.136 -82.4124 476.159C-68.009 492.396 -49.2601 505.869 -27.796 510.641C-9.31507 514.751 10.9439 512.324 27.6443 503.285C45.2606 493.75 56.8232 476.97 59.4173 457.085C63.9367 422.434 45.9199 393.44 28.1945 364.915C20.9409 353.243 13.7361 341.648 8.14444 329.777C3.00356 318.865 -0.929341 307.347 -2.7797 295.404ZM-3.56571 295.494C-3.56801 295.479 -3.56954 295.464 -3.57036 295.45C-5.15356 284.589 -4.93777 273.463 -1.86781 262.87C1.21929 252.22 7.20253 242.872 13.176 233.538C20.2331 222.512 27.2766 211.507 29.5148 198.403C33.1603 177.057 23.0748 155.735 8.80959 140.382C-7.96211 122.333 -30.4506 109.998 -51.8576 98.2552L-51.8579 98.2551L-52.9243 97.6701C-76.0905 84.9622 -99.9822 73.5753 -124.441 63.5773C-136.741 58.5478 -149.186 53.8733 -161.756 49.5585C-173.306 45.5931 -184.966 41.612 -196.899 38.9541C-207.668 36.555 -218.918 35.3549 -229.841 37.469C-239.806 39.3973 -248.9 44.1964 -256.573 50.7756C-271.966 63.9726 -281.611 82.7273 -290.305 100.687C-298.133 116.857 -305.92 133.047 -313.708 149.237L-313.713 149.249L-313.719 149.26C-317.486 157.092 -321.254 164.925 -325.026 172.755C-327.003 176.86 -328.982 180.963 -330.962 185.066L-330.965 185.072C-334.794 193.009 -338.623 200.945 -342.433 208.89C-347.171 218.769 -352.813 230.971 -348.041 241.88C-346.051 246.428 -342.4 250.561 -337.694 252.368C-335.393 253.252 -333.199 253.178 -330.867 253.099L-330.866 253.099C-330.387 253.083 -329.902 253.067 -329.409 253.059C-326.937 253.018 -324.452 253.269 -322.028 253.744C-310.908 255.928 -301.267 262.83 -293.271 270.574C-289.166 274.55 -285.378 278.827 -281.59 283.104C-277.318 287.926 -273.046 292.749 -268.321 297.139C-259.538 305.298 -249.138 311.198 -238.1 315.749C-229.346 319.358 -220.288 322.192 -211.231 325.025C-198.002 329.164 -184.777 333.302 -172.511 339.851C-163.31 344.762 -155.053 351.099 -148.099 358.884C-141.382 366.403 -135.958 374.976 -131.252 383.866C-126.142 393.524 -121.87 403.571 -117.597 413.619C-113.591 423.04 -109.585 432.462 -104.888 441.562C-85.0632 479.97 -48.1876 516.072 -1.72677 511.334C17.4746 509.376 36.5992 500.545 48.0636 484.594C61.0391 466.541 61.3263 442.94 55.7484 422.185C50.1872 401.494 38.7845 383.237 27.5228 365.205L27.5227 365.205C26.2944 363.238 25.0678 361.275 23.8506 359.31C11.5723 339.499 0.0516086 318.843 -3.56571 295.494ZM-8.77117 255.034C-12.9559 266.202 -13.5137 278.235 -11.7998 289.955C-10.0499 301.246 -6.33249 312.134 -1.47764 322.45C3.80921 333.675 10.621 344.637 17.4789 355.674L17.4793 355.675C34.2383 382.646 51.2724 410.06 46.9991 442.826C44.5475 461.631 33.6112 477.501 16.9509 486.52C1.15629 495.07 -18.0035 497.367 -35.4818 493.48C-55.7813 488.967 -73.5113 476.227 -87.1335 460.87C-101.412 444.774 -110.902 425.804 -119.305 406.178C-120.005 404.543 -120.703 402.901 -121.401 401.257C-128.658 384.176 -136.055 366.768 -148.079 352.467C-155.184 344.015 -163.826 337.239 -173.619 332.153C-183.677 326.93 -194.476 323.349 -205.253 319.94C-206 319.703 -206.747 319.467 -207.495 319.231C-228.207 312.693 -249.177 306.073 -265.108 290.542C-268.876 286.868 -272.366 282.925 -275.855 278.983C-280.143 274.138 -284.431 269.293 -289.234 264.949C-297.991 257.033 -309.144 250.191 -321.376 250.715C-325.529 250.893 -328.928 250.504 -332.397 247.983C-335.691 245.587 -338.187 242.054 -339.533 238.223C-342.941 228.511 -338.448 217.954 -334.314 209.23C-326.902 193.591 -319.358 178.012 -311.814 162.434L-311.809 162.424C-308.096 154.757 -304.383 147.089 -300.686 139.415C-298.87 135.646 -297.057 131.874 -295.244 128.103C-291.535 120.387 -287.826 112.67 -284.087 104.967C-279.905 96.3477 -275.516 87.8033 -270.357 79.7205C-260.506 64.2924 -247.108 50.1188 -228.68 45.7785C-208.581 41.0453 -187.634 48.108 -168.585 54.5307L-168.579 54.5327C-167.705 54.8273 -166.836 55.1205 -165.97 55.4112C-141.595 63.5979 -117.702 73.2182 -94.4513 84.1971C-71.904 94.8448 -49.6388 106.583 -28.65 120.074C-10.6357 131.652 6.5698 146.066 15.1057 166.239C18.7626 174.885 20.7237 184.339 20.031 193.742C19.2108 204.87 14.2967 214.918 8.57495 224.307C7.09546 226.735 5.55925 229.139 4.02157 231.544C-0.793707 239.078 -5.62333 246.635 -8.77117 255.034ZM-12.5808 290.077C-9.15399 312.146 1.73479 331.665 13.3399 350.392C14.4927 352.252 15.6545 354.113 16.8179 355.975C27.4619 373.019 38.2388 390.275 43.4944 409.833C48.7663 429.448 48.4948 451.754 36.2329 468.817C25.3959 483.894 7.32094 492.239 -10.8276 494.09C-54.7436 498.569 -89.6015 464.442 -108.339 428.138C-112.78 419.534 -116.567 410.628 -120.354 401.721C-124.394 392.221 -128.434 382.721 -133.266 373.589C-137.715 365.181 -142.845 357.075 -149.197 349.965C-155.774 342.601 -163.582 336.608 -172.286 331.962C-183.884 325.769 -196.389 321.857 -208.897 317.944C-217.459 315.266 -226.022 312.587 -234.298 309.176C-244.734 304.874 -254.564 299.297 -262.867 291.584C-267.335 287.433 -271.374 282.873 -275.413 278.313C-278.994 274.27 -282.576 270.227 -286.457 266.469C-294.02 259.144 -303.138 252.617 -313.655 250.552C-315.949 250.102 -318.3 249.864 -320.64 249.904C-321.104 249.911 -321.56 249.927 -322.011 249.942C-324.214 250.017 -326.288 250.087 -328.462 249.252C-332.907 247.546 -336.354 243.642 -338.233 239.349C-342.742 229.041 -337.406 217.509 -332.932 208.175C-329.33 200.665 -325.711 193.163 -322.091 185.661L-322.09 185.658C-320.217 181.776 -318.344 177.894 -316.473 174.011C-312.906 166.605 -309.342 159.197 -305.779 151.788C-298.414 136.477 -291.049 121.166 -283.646 105.873C-275.427 88.8967 -266.312 71.167 -251.761 58.6919C-244.51 52.4751 -235.914 47.9374 -226.497 46.1156C-216.171 44.1176 -205.539 45.2521 -195.358 47.519C-184.078 50.0315 -173.055 53.795 -162.136 57.5432C-150.253 61.6222 -138.486 66.0422 -126.856 70.7976C-103.731 80.2513 -81.1431 91.0152 -59.2403 103.032L-58.2513 103.574C-38.0081 114.676 -16.7417 126.34 -0.882128 143.407C12.6024 157.917 22.1354 178.071 18.6889 198.248C16.5727 210.635 9.91403 221.039 3.24236 231.463L3.24208 231.463C-2.40524 240.287 -8.06182 249.125 -10.9804 259.193C-13.888 269.224 -14.0894 279.762 -12.5865 290.046C-12.5849 290.057 -12.583 290.067 -12.5808 290.077ZM-20.8196 284.506C-22.4331 273.466 -21.9101 262.13 -17.9678 251.611C-15.0035 243.699 -10.4536 236.581 -5.91689 229.484L-5.9167 229.484L-5.91651 229.483L-5.91633 229.483L-5.91614 229.483L-5.91595 229.483L-5.91576 229.482L-5.91557 229.482L-5.91539 229.482L-5.9152 229.482L-5.91501 229.482C-4.46509 227.213 -3.01655 224.947 -1.62157 222.657C3.77143 213.808 8.40254 204.337 9.17517 193.848C9.82811 184.984 7.9818 176.071 4.53223 167.921C-3.51321 148.908 -19.7277 135.322 -36.7053 124.409C-56.4854 111.694 -77.4667 100.632 -98.7164 90.5976C-120.625 80.2511 -143.142 71.1879 -166.108 63.4729C-166.924 63.1991 -167.743 62.9228 -168.566 62.6453L-168.571 62.6437C-186.524 56.5903 -206.268 49.9335 -225.212 54.3948C-242.584 58.4856 -255.213 71.8427 -264.499 86.3871C-269.363 94.0039 -273.498 102.058 -277.44 110.182C-281.022 117.563 -284.577 124.959 -288.132 132.354L-288.134 132.358C-289.782 135.786 -291.43 139.215 -293.081 142.642C-296.564 149.872 -300.062 157.095 -303.56 164.318L-303.561 164.322C-310.672 179.005 -317.783 193.689 -324.769 208.43C-328.667 216.656 -332.902 226.61 -329.687 235.767C-328.419 239.381 -326.063 242.714 -322.955 244.973C-319.681 247.353 -316.472 247.721 -312.553 247.552C-301.033 247.059 -290.53 253.505 -282.283 260.961C-277.756 265.053 -273.715 269.619 -269.675 274.185L-269.674 274.185C-266.387 277.9 -263.099 281.615 -259.548 285.076C-244.529 299.718 -224.758 305.958 -205.232 312.121C-204.535 312.341 -203.837 312.561 -203.141 312.781C-192.986 315.993 -182.809 319.368 -173.332 324.29C-164.107 329.081 -155.967 335.463 -149.274 343.423C-137.947 356.895 -130.98 373.291 -124.143 389.38L-124.141 389.387C-123.481 390.938 -122.823 392.487 -122.163 394.03C-114.243 412.526 -105.3 430.404 -91.8434 445.572C-79.0031 460.047 -62.2912 472.056 -43.1555 476.312C-26.68 479.975 -8.61793 477.81 6.26887 469.749C21.9731 461.247 32.2813 446.287 34.5929 428.56C38.6205 397.677 22.5675 371.842 6.77297 346.422C0.311199 336.023 -6.10727 325.693 -11.0897 315.116C-15.6696 305.401 -19.1715 295.144 -20.8196 284.506ZM2.82794 341.473C-8.10661 323.828 -18.3668 305.433 -21.5987 284.64C-21.6004 284.633 -21.602 284.626 -21.6034 284.619C-21.6047 284.612 -21.6059 284.605 -21.6069 284.598C-23.0238 274.905 -22.8364 264.969 -20.0921 255.514C-17.3402 246.032 -12.0122 237.707 -6.6929 229.395C-0.405281 219.571 5.87008 209.766 7.86391 198.091C11.1093 179.083 2.12823 160.1 -10.575 146.431C-25.5164 130.353 -45.5503 119.366 -64.619 108.907L-65.5587 108.392C-86.1989 97.0684 -107.483 86.9238 -129.275 78.0165C-140.233 73.5372 -151.321 69.3718 -162.518 65.527C-172.804 61.9961 -183.191 58.4503 -193.817 56.083C-203.409 53.9455 -213.428 52.8768 -223.155 54.7594C-232.025 56.476 -240.12 60.7516 -246.95 66.6075C-260.658 78.3607 -269.246 95.0641 -276.989 111.057C-283.93 125.396 -290.835 139.751 -297.739 154.106L-297.742 154.111L-297.743 154.113L-297.745 154.118L-297.746 154.119L-297.755 154.139L-297.765 154.159L-297.775 154.179C-301.155 161.208 -304.536 168.237 -307.922 175.264C-309.565 178.675 -311.21 182.084 -312.856 185.494L-312.86 185.503L-312.861 185.504L-312.861 185.506L-312.862 185.508L-312.863 185.509L-312.864 185.511L-312.864 185.512L-312.865 185.514L-312.866 185.515L-312.867 185.517L-312.867 185.519L-312.868 185.52L-312.869 185.522L-312.87 185.523L-312.871 185.525C-316.397 192.833 -319.923 200.14 -323.431 207.458C-327.646 216.248 -332.673 227.108 -328.426 236.815C-326.659 240.854 -323.413 244.529 -319.232 246.133C-317.188 246.918 -315.238 246.852 -313.167 246.782L-313.165 246.782C-312.74 246.767 -312.31 246.753 -311.872 246.746C-309.666 246.707 -307.449 246.93 -305.286 247.355C-295.37 249.302 -286.772 255.453 -279.643 262.359C-275.986 265.901 -272.611 269.712 -269.235 273.522C-265.43 277.819 -261.624 282.115 -257.415 286.026C-249.593 293.293 -240.331 298.546 -230.499 302.599C-222.701 305.814 -214.631 308.339 -206.562 310.863L-206.562 310.863L-206.561 310.863L-206.561 310.863L-206.561 310.864L-206.561 310.864L-206.561 310.864L-206.56 310.864L-206.56 310.864L-206.56 310.864L-206.56 310.864L-206.559 310.864L-206.559 310.864L-206.559 310.864L-206.559 310.865L-206.559 310.865L-206.558 310.865C-194.774 314.551 -182.993 318.237 -172.065 324.071C-163.861 328.451 -156.501 334.102 -150.299 341.043C-144.312 347.744 -139.478 355.385 -135.285 363.309C-130.729 371.917 -126.921 380.872 -123.113 389.827L-123.113 389.827L-123.112 389.827L-123.112 389.828L-123.112 389.828L-123.112 389.828L-123.112 389.829L-123.111 389.829L-123.111 389.83L-123.111 389.83L-123.111 389.83L-123.111 389.831L-123.111 389.831L-123.11 389.831L-123.11 389.832L-123.11 389.832C-119.543 398.22 -115.976 406.609 -111.794 414.711C-94.1423 448.913 -61.3036 481.064 -19.9316 476.846C-2.83388 475.102 14.1921 467.241 24.3997 453.038C35.9488 436.969 36.2052 415.955 31.2393 397.48C26.2867 379.045 16.1288 362.782 6.09603 346.719C5.00289 344.968 3.91123 343.221 2.82794 341.473ZM-27.165 248.189C-30.8646 258.061 -31.355 268.698 -29.8405 279.058C-28.2936 289.042 -25.0058 298.67 -20.7053 307.794C-16.0274 317.725 -10.0014 327.423 -3.93496 337.187C10.8932 361.052 25.9634 385.307 22.1819 414.304C20.0113 430.951 10.3302 445.003 -4.41736 452.987C-18.3971 460.557 -35.3606 462.593 -50.8334 459.152C-68.8045 455.156 -84.4976 443.879 -96.5568 430.286C-109.19 416.044 -117.587 399.258 -125.022 381.892C-125.641 380.445 -126.259 378.992 -126.877 377.536C-133.295 362.43 -139.836 347.037 -150.47 334.388C-156.75 326.918 -164.391 320.929 -173.045 316.434C-181.943 311.812 -191.497 308.643 -201.03 305.628C-201.663 305.428 -202.296 305.228 -202.93 305.028L-202.939 305.025L-202.949 305.022L-202.958 305.019L-202.967 305.016L-202.997 305.007C-221.33 299.22 -239.891 293.362 -253.99 279.615C-257.324 276.365 -260.412 272.877 -263.498 269.389L-263.499 269.389C-267.292 265.103 -271.084 260.818 -275.333 256.977C-283.069 249.982 -292.926 243.931 -303.733 244.394C-307.419 244.552 -310.437 244.206 -313.515 241.967C-316.436 239.844 -318.651 236.709 -319.842 233.314C-322.863 224.711 -318.888 215.361 -315.226 207.631C-308.666 193.786 -301.987 179.995 -295.309 166.205C-292.027 159.429 -288.746 152.653 -285.478 145.871C-283.902 142.597 -282.328 139.323 -280.754 136.048L-280.753 136.048C-277.443 129.16 -274.132 122.273 -270.796 115.398C-267.093 107.768 -263.209 100.207 -258.643 93.0538C-249.922 79.3946 -238.058 66.8519 -221.744 63.0113C-203.955 58.8233 -185.417 65.074 -168.557 70.7587C-167.783 71.0194 -167.013 71.279 -166.247 71.5364C-144.685 78.7793 -123.55 87.2879 -102.981 97.0005C-83.0319 106.42 -63.3321 116.808 -44.7616 128.745C-28.8201 138.992 -13.596 151.749 -6.04165 169.603C-2.8022 177.26 -1.0679 185.63 -1.68169 193.956C-2.40757 203.803 -6.75569 212.697 -11.82 221.007C-13.1294 223.156 -14.4891 225.283 -15.8501 227.412C-20.1094 234.076 -24.3813 240.76 -27.165 248.189ZM-30.6311 279.105C-30.6303 279.119 -30.6287 279.133 -30.6264 279.148C-27.5994 298.69 -17.9598 315.973 -7.68442 332.554C-6.67012 334.19 -5.64788 335.827 -4.62425 337.466L-4.61654 337.479L-4.60882 337.491C4.8057 352.565 14.3374 367.827 18.9859 385.126C23.6437 402.462 23.405 422.181 12.5695 437.259C2.98992 450.588 -12.987 457.965 -29.0319 459.601C-67.859 463.559 -98.6793 433.382 -115.245 401.286C-119.172 393.676 -122.522 385.799 -125.872 377.921L-125.872 377.921L-125.872 377.921L-125.872 377.92L-125.872 377.92L-125.872 377.92L-125.873 377.92L-125.873 377.919L-125.873 377.919L-125.873 377.919L-125.873 377.918L-125.873 377.918L-125.873 377.918L-125.873 377.918L-125.873 377.917L-125.874 377.917L-125.874 377.916L-125.874 377.915L-125.875 377.914L-125.875 377.914L-125.875 377.913L-125.876 377.912L-125.876 377.911L-125.876 377.911L-125.877 377.91L-125.877 377.909L-125.877 377.909L-125.878 377.908L-125.878 377.907C-129.451 369.506 -133.023 361.105 -137.296 353.03C-141.234 345.589 -145.772 338.414 -151.394 332.122C-157.219 325.602 -164.131 320.295 -171.837 316.182C-182.097 310.704 -193.159 307.243 -204.224 303.781L-204.224 303.781L-204.225 303.781C-211.799 301.412 -219.374 299.042 -226.695 296.024C-235.923 292.22 -244.614 287.289 -251.956 280.467C-255.908 276.796 -259.481 272.763 -263.054 268.729C-266.222 265.152 -269.391 261.575 -272.824 258.25C-279.521 251.764 -287.595 245.988 -296.908 244.159C-298.943 243.76 -301.024 243.557 -303.098 243.586C-303.527 243.592 -303.949 243.606 -304.366 243.62C-306.286 243.683 -308.094 243.743 -309.994 243.013C-313.914 241.509 -316.957 238.065 -318.614 234.277C-322.597 225.172 -317.878 214.981 -313.925 206.734C-310.704 200.016 -307.466 193.306 -304.228 186.595L-304.225 186.587L-304.221 186.58C-302.602 183.224 -300.983 179.868 -299.366 176.511C-296.18 169.899 -292.998 163.284 -289.817 156.67C-283.331 143.186 -276.845 129.702 -270.325 116.235C-263.059 101.225 -255 85.5466 -242.135 74.5167C-235.726 69.0217 -228.131 65.0104 -219.808 63.3988C-210.678 61.6324 -201.275 62.6362 -192.273 64.6408C-182.298 66.8619 -172.55 70.1908 -162.896 73.5046C-152.384 77.1142 -141.975 81.0237 -131.687 85.2296C-111.23 93.592 -91.2484 103.114 -71.8724 113.744L-70.983 114.232C-53.0883 124.047 -34.2866 134.359 -20.2645 149.446C-8.34397 162.274 0.0881024 180.088 -2.95972 197.926C-4.83153 208.885 -10.7221 218.089 -16.6241 227.312C-21.6169 235.114 -26.6179 242.929 -29.201 251.828C-31.7752 260.695 -31.9549 270.013 -30.6311 279.105ZM-38.8603 273.609C-40.2751 263.93 -39.818 253.99 -36.3617 244.767C-33.7599 237.823 -29.767 231.576 -25.7861 225.349C-24.5133 223.357 -23.2417 221.368 -22.0172 219.358C-17.2838 211.589 -13.2172 203.274 -12.5389 194.065C-11.9649 186.278 -13.5859 178.448 -16.6165 171.287C-23.6804 154.594 -37.9135 142.665 -52.8203 133.083C-70.1821 121.923 -88.5987 112.213 -107.25 103.405C-126.476 94.3252 -146.234 86.3715 -166.39 79.6013C-166.8 79.4635 -167.212 79.3251 -167.624 79.1861L-168.547 78.8748C-184.312 73.5594 -201.647 67.7147 -218.282 71.6302C-233.54 75.2213 -244.636 86.9487 -252.792 99.7228C-257.062 106.411 -260.694 113.482 -264.155 120.615C-267.249 126.992 -270.32 133.38 -273.391 139.769L-273.393 139.774L-273.394 139.776L-273.395 139.777L-273.396 139.779C-274.89 142.887 -276.384 145.995 -277.88 149.102C-280.941 155.454 -284.014 161.801 -287.088 168.148L-287.09 168.152L-287.092 168.156L-287.094 168.16L-287.096 168.164L-287.097 168.168L-287.099 168.172L-287.101 168.176L-287.101 168.176L-287.102 168.177L-287.102 168.177L-287.102 168.177L-287.102 168.178L-287.102 168.178L-287.103 168.179L-287.103 168.179L-287.103 168.179L-287.103 168.18L-287.103 168.18L-287.104 168.181L-287.104 168.181C-293.335 181.048 -299.567 193.916 -305.688 206.833C-309.116 214.065 -312.831 222.812 -310.005 230.862C-308.889 234.04 -306.815 236.973 -304.082 238.96C-301.197 241.057 -298.37 241.383 -294.918 241.234C-284.823 240.803 -275.617 246.458 -268.389 252.99C-264.417 256.582 -260.872 260.588 -257.326 264.594L-257.325 264.595C-254.44 267.855 -251.555 271.115 -248.439 274.153C-235.255 287.005 -217.901 292.483 -200.76 297.893L-200.713 297.908C-200.117 298.096 -199.521 298.284 -198.926 298.473C-190.015 301.291 -181.083 304.254 -172.767 308.573C-164.681 312.772 -157.542 318.369 -151.675 325.348C-141.738 337.167 -135.624 351.554 -129.626 365.67L-129.624 365.675L-129.622 365.68C-129.044 367.04 -128.467 368.397 -127.888 369.749C-120.937 385.983 -113.087 401.677 -101.276 414.993C-89.9976 427.706 -75.3234 438.25 -58.517 441.986C-44.0469 445.204 -28.1826 443.299 -15.1092 436.219C-1.31775 428.751 7.73643 415.611 9.76723 400.041C13.3029 372.928 -0.785419 350.252 -14.6484 327.939L-14.6486 327.939C-20.319 318.812 -25.9517 309.746 -30.3252 300.462C-34.3416 291.938 -37.4139 282.941 -38.8603 273.609ZM-18.195 323.635C-27.799 308.137 -36.8093 291.983 -39.643 273.72C-39.6446 273.713 -39.6459 273.705 -39.6471 273.697C-40.8921 265.181 -40.7255 256.453 -38.3136 248.148C-35.8989 239.83 -31.2245 232.525 -26.5577 225.233C-21.0411 216.613 -15.5353 208.009 -13.7855 197.768C-10.9395 181.1 -18.819 164.455 -29.9583 152.468C-43.0614 138.37 -60.6305 128.734 -77.353 119.562L-78.1903 119.103C-96.3036 109.166 -114.983 100.265 -134.105 92.4472C-143.722 88.5154 -153.453 84.8604 -163.279 81.4865C-172.302 78.3879 -181.411 75.2772 -190.733 73.2014C-199.147 71.3276 -207.932 70.3895 -216.466 72.0413C-224.242 73.5456 -231.337 77.2948 -237.325 82.4288C-249.347 92.7369 -256.879 107.389 -263.669 121.416C-269.725 133.925 -275.749 146.45 -281.773 158.975C-284.786 165.238 -287.798 171.501 -290.814 177.761C-292.322 180.891 -293.831 184.019 -295.34 187.147L-295.355 187.178L-295.359 187.185C-298.386 193.459 -301.413 199.733 -304.425 206.013C-308.118 213.716 -312.528 223.234 -308.808 231.74C-307.262 235.273 -304.422 238.488 -300.764 239.891C-298.991 240.572 -297.304 240.516 -295.512 240.456C-295.124 240.443 -294.731 240.43 -294.331 240.425C-292.389 240.397 -290.442 240.587 -288.538 240.96C-279.827 242.669 -272.274 248.071 -266.011 254.137C-262.804 257.244 -259.844 260.586 -256.884 263.927L-256.884 263.927C-253.542 267.7 -250.201 271.472 -246.504 274.906C-239.642 281.282 -231.52 285.889 -222.895 289.445C-216.051 292.267 -208.969 294.482 -201.887 296.698L-201.887 296.698C-191.545 299.933 -181.205 303.168 -171.616 308.288C-164.407 312.138 -157.943 317.099 -152.494 323.198C-147.237 329.082 -142.994 335.792 -139.312 342.75C-135.314 350.303 -131.972 358.162 -128.63 366.021C-125.499 373.384 -122.369 380.746 -118.698 387.858C-103.217 417.853 -74.4155 446.054 -38.1332 442.355C-23.1412 440.826 -8.21189 433.934 0.738214 421.48C10.8631 407.394 11.0846 388.968 6.73283 372.772C2.38563 356.597 -6.52835 342.326 -15.3326 328.23C-16.29 326.697 -17.2461 325.166 -18.195 323.635ZM-45.5588 241.345C-48.7718 249.92 -49.1963 259.161 -47.8805 268.16C-46.536 276.839 -43.6777 285.207 -39.9459 293.135C-35.877 301.774 -30.6369 310.209 -25.3619 318.7L-25.3617 318.7C-12.4652 339.459 0.640211 360.554 -2.64898 385.78C-4.53868 400.271 -12.9652 412.501 -25.8006 419.452C-37.9691 426.042 -52.7336 427.816 -66.2015 424.822C-81.8427 421.343 -95.4981 411.532 -105.995 399.699C-116.983 387.313 -124.286 372.71 -130.754 357.606C-131.295 356.344 -131.833 355.076 -132.373 353.806C-137.952 340.679 -143.636 327.302 -152.877 316.31C-158.332 309.822 -164.969 304.618 -172.487 300.714C-180.223 296.696 -188.531 293.941 -196.821 291.318L-197.686 291.045L-198.522 290.781L-198.522 290.781C-214.471 285.747 -230.619 280.65 -242.886 268.691C-245.785 265.865 -248.47 262.831 -251.155 259.798L-251.155 259.798C-254.453 256.072 -257.751 252.346 -261.445 249.006C-268.162 242.932 -276.719 237.675 -286.102 238.075C-289.322 238.214 -291.958 237.91 -294.647 235.954C-297.195 234.102 -299.126 231.368 -300.165 228.408C-302.796 220.913 -299.342 212.772 -296.15 206.036C-290.451 194.012 -284.651 182.034 -278.851 170.057C-275.99 164.15 -273.13 158.243 -270.282 152.331C-268.89 149.442 -267.5 146.551 -266.11 143.66L-266.109 143.657L-266.108 143.655L-266.106 143.652L-266.105 143.649L-266.103 143.646L-266.102 143.643L-266.101 143.64L-266.099 143.637L-266.098 143.634L-266.096 143.631L-266.095 143.628L-266.094 143.626C-263.241 137.691 -260.388 131.757 -257.513 125.833C-254.291 119.195 -250.911 112.616 -246.938 106.392C-239.346 94.5013 -229.018 83.5904 -214.818 80.2488C-199.338 76.6047 -183.206 82.0439 -168.537 86.99L-168.523 86.9948L-168.502 87.0019L-168.455 87.0177L-168.448 87.0198C-167.806 87.2363 -167.167 87.4517 -166.531 87.6654C-147.781 93.9629 -129.402 101.363 -111.516 109.808C-94.1631 118.003 -77.0303 127.037 -60.8773 137.42C-47.0064 146.336 -33.7643 157.438 -27.191 172.97C-24.3692 179.635 -22.8614 186.924 -23.3957 194.173C-24.0258 202.741 -27.8095 210.479 -32.2142 217.709C-33.3541 219.579 -34.5379 221.431 -35.7228 223.285C-39.4254 229.077 -43.1389 234.887 -45.5588 241.345ZM-48.6709 268.211C-48.6705 268.217 -48.67 268.223 -48.6694 268.228L-48.668 268.24L-48.6665 268.25C-46.032 285.252 -37.6466 300.29 -28.7072 314.716C-27.8259 316.138 -26.9377 317.56 -26.0483 318.984L-26.0466 318.987L-26.0449 318.99L-26.0432 318.992L-26.0416 318.995L-26.0399 318.998L-26.0382 319L-26.038 319.001C-17.8518 332.108 -9.56388 345.378 -5.52121 360.42C-1.47543 375.476 -1.68126 392.607 -11.0926 405.702C-19.4147 417.282 -33.295 423.689 -47.2341 425.111C-80.9715 428.551 -107.754 402.323 -122.149 374.434C-125.565 367.815 -128.479 360.964 -131.392 354.113L-131.393 354.112L-131.393 354.112L-131.393 354.112L-131.393 354.112L-131.393 354.111L-131.393 354.111L-131.393 354.111L-131.393 354.11L-131.393 354.11L-131.393 354.11L-131.393 354.11L-131.394 354.109L-131.394 354.109C-134.501 346.802 -137.608 339.495 -141.324 332.472C-144.75 325.997 -148.698 319.753 -153.589 314.278C-158.661 308.601 -164.679 303.982 -171.388 300.4C-180.31 295.637 -189.929 292.627 -199.55 289.617C-206.137 287.556 -212.725 285.495 -219.091 282.871C-227.112 279.564 -234.666 275.28 -241.047 269.351C-244.481 266.16 -247.585 262.656 -250.69 259.151L-250.69 259.15L-250.69 259.15L-250.691 259.15L-250.691 259.15L-250.691 259.149L-250.691 259.149L-250.692 259.149L-250.692 259.149L-250.692 259.148L-250.692 259.148L-250.693 259.148L-250.693 259.147C-253.45 256.036 -256.206 252.924 -259.193 250.031C-265.023 244.384 -272.054 239.359 -280.161 237.767C-281.935 237.42 -283.75 237.243 -285.557 237.268C-285.931 237.273 -286.298 237.285 -286.66 237.297C-288.321 237.352 -289.886 237.404 -291.528 236.773C-294.924 235.471 -297.56 232.487 -298.995 229.206C-302.453 221.3 -298.35 212.453 -294.919 205.295C-292.117 199.449 -289.3 193.612 -286.482 187.774C-285.074 184.855 -283.665 181.936 -282.258 179.015C-279.45 173.188 -276.646 167.358 -273.842 161.528L-273.839 161.522C-268.238 149.877 -262.636 138.232 -257.005 126.6C-250.691 113.558 -243.687 99.9289 -232.507 90.3442C-226.941 85.5725 -220.345 82.0847 -213.116 80.6855C-205.18 79.1492 -197.01 80.0229 -189.185 81.7658C-180.516 83.6964 -172.044 86.5894 -163.653 89.4708C-154.511 92.6096 -145.46 96.0093 -136.515 99.6664C-118.725 106.938 -101.349 115.219 -84.5021 124.462L-83.7149 124.894L-83.7145 124.895C-68.1662 133.423 -51.8296 142.383 -39.6459 155.491C-29.2873 166.636 -21.9603 182.112 -24.6074 197.611C-26.2343 207.136 -31.3557 215.139 -36.4874 223.157C-40.8282 229.94 -45.1763 236.734 -47.4228 244.47C-49.6647 252.188 -49.8229 260.297 -48.6709 268.211ZM-56.9012 262.713C-58.1172 254.394 -57.726 245.851 -54.7557 237.923C-52.5171 231.949 -49.0823 226.575 -45.6573 221.216C-44.5615 219.501 -43.4667 217.789 -42.4124 216.058C-38.3364 209.369 -34.8357 202.207 -34.2516 194.279C-33.7572 187.569 -35.1523 180.822 -37.7626 174.651C-43.8433 160.279 -56.0966 150.005 -68.9313 141.755C-83.8747 132.151 -99.7267 123.791 -115.779 116.21C-132.323 108.397 -149.324 101.553 -166.668 95.7279C-167.28 95.5222 -167.896 95.3147 -168.514 95.1063C-182.091 90.5284 -197.021 85.4944 -211.348 88.8658C-224.492 91.958 -234.053 102.054 -241.079 113.059C-244.757 118.819 -247.885 124.907 -250.865 131.049C-253.503 136.485 -256.122 141.932 -258.74 147.379L-258.742 147.384L-258.752 147.404L-258.762 147.424C-260.066 150.137 -261.37 152.849 -262.676 155.561C-265.309 161.027 -267.954 166.488 -270.598 171.949C-275.965 183.031 -281.331 194.113 -286.604 205.239C-289.56 211.476 -292.756 219.014 -290.319 225.956C-289.356 228.7 -287.566 231.233 -285.206 232.947C-282.711 234.76 -280.266 235.043 -277.279 234.916C-268.607 234.545 -260.7 239.408 -254.493 245.021C-251.075 248.112 -248.024 251.559 -244.973 255.007C-242.49 257.811 -240.008 260.617 -237.327 263.231C-225.979 274.294 -211.04 279.01 -196.286 283.667C-195.76 283.833 -195.235 283.999 -194.71 284.165C-187.041 286.591 -179.356 289.139 -172.199 292.856C-165.25 296.465 -159.114 301.274 -154.072 307.272C-145.525 317.438 -140.268 329.81 -135.108 341.952C-134.609 343.126 -134.111 344.298 -133.611 345.465C-127.628 359.439 -120.871 372.949 -110.705 384.409C-100.99 395.36 -88.3524 404.439 -73.8745 407.659C-61.4092 410.43 -47.7439 408.787 -36.4818 402.687C-24.6039 396.251 -16.8036 384.931 -15.0543 371.52C-12.0101 348.18 -24.1332 328.664 -36.0636 309.458C-40.9434 301.603 -45.7909 293.799 -49.5552 285.807C-53.013 278.473 -55.6579 270.737 -56.9012 262.713ZM-39.2194 305.797C-47.4807 292.464 -55.2317 278.567 -57.6787 262.857C-57.6821 262.845 -57.6851 262.832 -57.6875 262.819L-57.6899 262.805C-58.7616 255.468 -58.6177 247.947 -56.5382 240.792C-54.4602 233.637 -50.4388 227.353 -46.4241 221.081C-41.678 213.665 -36.9413 206.264 -35.436 197.454C-32.9872 183.127 -39.7652 168.819 -49.3411 158.516C-60.6055 146.398 -75.7101 138.113 -90.0844 130.228L-90.8214 129.824C-106.407 121.275 -122.479 113.615 -138.934 106.888C-147.21 103.505 -155.582 100.36 -164.038 97.4571C-171.797 94.7928 -179.63 92.1181 -187.647 90.3323C-194.884 88.7201 -202.438 87.9135 -209.776 89.3337C-216.459 90.6272 -222.555 93.8513 -227.699 98.2621C-238.036 107.125 -244.512 119.728 -250.35 131.788C-255.518 142.465 -260.661 153.156 -265.803 163.846L-265.806 163.854C-268.439 169.327 -271.072 174.8 -273.708 180.272C-274.966 182.883 -276.225 185.494 -277.485 188.105C-280.134 193.594 -282.783 199.084 -285.418 204.581C-288.589 211.193 -292.384 219.371 -289.189 226.675C-287.863 229.703 -285.43 232.458 -282.296 233.659C-280.781 234.239 -279.338 234.191 -277.806 234.14L-277.806 234.14L-277.805 234.14L-277.805 234.14L-277.805 234.14C-277.471 234.129 -277.132 234.117 -276.788 234.112C-275.113 234.088 -273.433 234.251 -271.79 234.574C-264.285 236.046 -257.777 240.696 -252.38 245.923C-249.618 248.598 -247.07 251.475 -244.522 254.351C-241.648 257.596 -238.773 260.841 -235.594 263.795C-229.692 269.277 -222.709 273.238 -215.292 276.297C-209.403 278.725 -203.308 280.632 -197.214 282.538C-188.315 285.322 -179.418 288.105 -171.167 292.511C-164.956 295.828 -159.386 300.103 -154.692 305.358C-150.164 310.426 -146.513 316.203 -143.342 322.194C-139.902 328.694 -137.027 335.455 -134.151 342.217C-131.457 348.553 -128.762 354.889 -125.604 361.009C-112.296 386.796 -87.5323 411.047 -56.3383 407.867C-43.4506 406.554 -30.6214 400.631 -22.9266 389.925C-14.2268 377.82 -14.0368 361.983 -17.7765 348.067C-21.5162 334.149 -29.1851 321.871 -36.7601 309.744C-37.5827 308.427 -38.4042 307.112 -39.2194 305.797ZM-63.9512 234.501C-66.6796 241.781 -67.0384 249.625 -65.9212 257.264C-64.7784 264.636 -62.3504 271.741 -59.1801 278.478C-55.7209 285.821 -51.2675 292.991 -46.7846 300.208L-46.7844 300.208L-46.7842 300.208L-46.784 300.209L-46.7839 300.209L-46.7837 300.209L-46.7835 300.209L-46.7833 300.21L-46.7832 300.21L-46.783 300.21L-46.7828 300.21C-35.8169 317.864 -24.6749 335.801 -27.4733 357.258C-29.0821 369.591 -36.2541 380 -47.1759 385.919C-57.5302 391.53 -70.0978 393.042 -81.5603 390.494C-94.8737 387.534 -106.493 379.187 -115.426 369.116C-124.77 358.584 -130.98 346.167 -136.479 333.324C-136.938 332.251 -137.395 331.175 -137.854 330.097C-142.593 318.942 -147.424 307.574 -155.277 298.235C-159.905 292.728 -165.541 288.31 -171.921 284.997C-178.496 281.581 -185.558 279.239 -192.605 277.01L-193.056 276.867L-194.048 276.554C-207.61 272.273 -221.343 267.938 -231.774 257.769C-234.237 255.367 -236.519 252.79 -238.8 250.212C-241.604 247.044 -244.407 243.876 -247.549 241.036C-253.246 235.884 -260.503 231.417 -268.464 231.757C-271.216 231.875 -273.471 231.613 -275.771 229.941C-277.943 228.361 -279.593 226.028 -280.479 223.503C-282.721 217.114 -279.785 210.18 -277.064 204.44C-272.23 194.24 -267.31 184.079 -262.39 173.919L-262.389 173.919L-262.389 173.918L-262.389 173.918L-262.389 173.918L-262.389 173.917L-262.388 173.917L-262.388 173.916L-262.388 173.916L-262.388 173.915L-262.388 173.915C-259.947 168.875 -257.506 163.834 -255.075 158.789C-253.935 156.422 -252.796 154.053 -251.658 151.685L-251.654 151.676L-251.65 151.668L-251.646 151.66L-251.642 151.651L-251.637 151.643L-251.636 151.64L-251.635 151.637C-249.17 146.51 -246.705 141.383 -244.222 136.265C-241.48 130.619 -238.604 125.021 -235.224 119.726C-228.762 109.605 -219.969 100.326 -207.883 97.4829C-194.711 94.3848 -180.985 99.0129 -168.503 103.222L-168.495 103.224L-167.999 103.391L-167.683 103.498C-167.391 103.596 -167.1 103.694 -166.809 103.792C-150.871 109.144 -135.248 115.435 -120.045 122.614C-105.291 129.582 -90.7228 137.264 -76.9881 146.093C-65.1887 153.679 -53.9264 163.124 -48.3362 176.336C-45.9347 182.012 -44.6523 188.216 -45.1076 194.389C-45.644 201.678 -48.8611 208.261 -52.6084 214.41C-53.5775 216.001 -54.584 217.575 -55.5913 219.152L-55.592 219.153C-58.7387 224.075 -61.8945 229.013 -63.9512 234.501ZM-66.711 257.322L-66.7099 257.333C-66.7091 257.34 -66.7082 257.347 -66.7072 257.354C-64.4667 271.815 -57.3355 284.607 -49.7301 296.878C-48.9803 298.088 -48.2247 299.298 -47.468 300.509L-47.4679 300.509C-40.5098 311.65 -33.4654 322.929 -30.0298 335.714C-26.596 348.489 -26.7704 363.032 -34.7566 374.146C-41.822 383.978 -53.6036 389.416 -65.4376 390.623C-94.0868 393.545 -116.832 371.267 -129.055 347.585C-131.958 341.96 -134.434 336.137 -136.91 330.313C-139.552 324.101 -142.194 317.888 -145.354 311.916C-148.269 306.407 -151.625 301.097 -155.787 296.438C-160.105 291.606 -165.226 287.673 -170.94 284.621C-178.524 280.572 -186.7 278.014 -194.879 275.455C-200.477 273.704 -206.077 271.952 -211.487 269.721C-218.302 266.912 -224.715 263.274 -230.136 258.238C-233.056 255.525 -235.696 252.545 -238.336 249.564C-240.679 246.919 -243.022 244.274 -245.561 241.816C-250.524 237.009 -256.511 232.734 -263.413 231.379C-264.926 231.082 -266.472 230.933 -268.015 230.955C-268.33 230.96 -268.64 230.97 -268.947 230.981L-268.948 230.981L-268.949 230.981C-270.351 231.028 -271.673 231.072 -273.059 230.54C-275.93 229.439 -278.161 226.914 -279.375 224.14C-282.308 217.436 -278.821 209.93 -275.911 203.861C-273.484 198.797 -271.043 193.739 -268.602 188.681L-268.594 188.664C-267.446 186.284 -266.297 183.904 -265.15 181.523C-262.846 176.741 -260.546 171.957 -258.245 167.174L-258.244 167.173L-258.244 167.172L-258.243 167.171L-258.243 167.17L-258.243 167.169L-258.242 167.168L-258.242 167.167L-258.241 167.166L-258.241 167.165L-258.24 167.164C-253.397 157.095 -248.554 147.026 -243.685 136.969C-238.322 125.893 -232.375 114.315 -222.88 106.174C-218.157 102.125 -212.56 99.1632 -206.425 97.9764C-199.684 96.6722 -192.746 97.4138 -186.099 98.8931C-178.735 100.534 -171.539 102.991 -164.412 105.438C-156.642 108.105 -148.948 110.995 -141.343 114.105C-126.222 120.285 -111.453 127.325 -97.1303 135.182L-96.4456 135.557C-83.2434 142.799 -69.3715 150.408 -59.0259 161.537C-50.2313 170.999 -44.0051 184.136 -46.2536 197.296C-47.6361 205.39 -51.9891 212.192 -56.3507 219.006C-60.0387 224.768 -63.7329 230.54 -65.6425 237.112C-67.548 243.671 -67.689 250.563 -66.7125 257.289L-66.7123 257.298C-66.7121 257.306 -66.7117 257.314 -66.711 257.322ZM-74.941 251.815C-75.9577 244.856 -75.6324 237.709 -73.1472 231.077C-71.2715 226.072 -68.3934 221.569 -65.5239 217.079C-64.6059 215.643 -63.6888 214.208 -62.8057 212.758C-59.3887 207.148 -56.4545 201.142 -55.9634 194.495C-55.5479 188.862 -56.717 183.197 -58.909 178.017C-64.0081 165.964 -74.2794 157.346 -85.0433 150.427C-97.5693 142.375 -110.854 135.369 -124.309 129.015C-138.17 122.469 -152.416 116.735 -166.947 111.854C-167.458 111.682 -167.971 111.509 -168.487 111.335C-179.876 107.495 -192.397 103.273 -204.416 106.099C-215.446 108.693 -223.472 117.156 -229.368 126.392C-232.453 131.223 -235.076 136.328 -237.576 141.479C-239.811 146.083 -242.028 150.695 -244.244 155.307L-244.248 155.314L-244.251 155.32L-244.254 155.327C-245.326 157.557 -246.398 159.787 -247.472 162.016C-249.681 166.603 -251.901 171.186 -254.12 175.769L-254.121 175.77L-254.121 175.771L-254.122 175.772L-254.122 175.773L-254.123 175.774L-254.123 175.775L-254.124 175.776L-254.124 175.777L-254.133 175.796L-254.135 175.799C-258.623 185.067 -263.111 194.335 -267.52 203.638C-270.005 208.882 -272.681 215.212 -270.634 221.045C-269.823 223.352 -268.315 225.486 -266.33 226.929C-264.225 228.458 -262.161 228.7 -259.641 228.592C-252.394 228.283 -245.785 232.354 -240.597 237.044C-237.733 239.633 -235.177 242.522 -232.62 245.411C-230.54 247.762 -228.46 250.112 -226.214 252.301C-216.7 261.577 -204.174 265.531 -191.803 269.436L-191.803 269.436C-191.366 269.574 -190.929 269.712 -190.492 269.85C-184.067 271.882 -177.628 274.018 -171.632 277.133C-165.821 280.151 -160.688 284.175 -156.471 289.19C-149.314 297.703 -144.912 308.061 -140.591 318.228L-140.586 318.24C-140.169 319.221 -139.753 320.201 -139.335 321.176C-134.319 332.888 -128.656 344.215 -120.134 353.819C-111.982 363.01 -101.383 370.625 -89.234 373.326C-78.7742 375.651 -67.3059 374.269 -57.8579 369.149C-47.8928 363.747 -41.3464 354.247 -39.8794 342.992C-37.3272 323.422 -47.4855 307.066 -57.4845 290.966C-61.573 284.383 -65.6348 277.843 -68.7901 271.144C-71.6861 265.01 -73.9 258.534 -74.941 251.815ZM-60.242 287.959C-67.1671 276.783 -73.6617 265.136 -75.717 251.969C-75.7197 251.96 -75.7221 251.951 -75.7243 251.942C-75.7258 251.935 -75.7272 251.929 -75.7285 251.922L-75.7293 251.918L-75.7312 251.906C-76.6316 245.748 -76.507 239.436 -74.7614 233.43C-73.0203 227.44 -69.6526 222.179 -66.2906 216.926C-62.3145 210.714 -58.3462 204.514 -57.0858 197.136C-55.037 185.147 -60.7106 173.178 -68.7245 164.559C-78.1571 154.413 -90.8069 147.476 -102.843 140.875L-103.453 140.54C-116.511 133.376 -129.978 126.958 -143.764 121.322C-150.696 118.487 -157.711 115.853 -164.797 113.421C-171.291 111.191 -177.85 108.952 -184.56 107.457C-190.618 106.107 -196.94 105.432 -203.083 106.62C-208.671 107.702 -213.767 110.401 -218.07 114.09C-226.721 121.508 -232.14 132.06 -237.026 142.153C-241.435 151.262 -245.822 160.382 -250.208 169.502C-252.337 173.927 -254.465 178.352 -256.596 182.776C-257.643 184.948 -258.691 187.12 -259.739 189.292L-259.743 189.299C-261.969 193.912 -264.194 198.525 -266.409 203.143C-269.057 208.668 -272.237 215.504 -269.567 221.607C-268.465 224.128 -266.437 226.422 -263.827 227.422C-262.568 227.904 -261.367 227.863 -260.095 227.82C-259.815 227.811 -259.533 227.801 -259.245 227.797C-257.837 227.776 -256.423 227.912 -255.041 228.184C-248.742 229.421 -243.277 233.32 -238.747 237.708C-236.433 239.949 -234.298 242.36 -232.163 244.77L-232.163 244.771L-232.163 244.771L-232.162 244.771L-232.162 244.771L-232.162 244.771L-232.162 244.771L-232.162 244.771L-232.162 244.772L-232.162 244.772C-229.754 247.49 -227.346 250.208 -224.683 252.682C-219.743 257.274 -213.897 260.588 -207.687 263.149C-202.755 265.182 -197.65 266.779 -192.546 268.376L-192.545 268.376L-192.545 268.376C-185.088 270.709 -177.633 273.041 -170.717 276.733C-165.502 279.517 -160.828 283.106 -156.887 287.518C-153.09 291.768 -150.028 296.613 -147.369 301.638C-144.487 307.084 -142.078 312.749 -139.669 318.415C-137.411 323.723 -135.154 329.032 -132.507 334.16C-121.369 355.737 -100.643 376.04 -74.5396 373.379C-63.7584 372.279 -53.0258 367.325 -46.5885 358.368C-39.3136 348.248 -39.1571 334.997 -42.2834 323.361C-45.4146 311.71 -51.8332 301.432 -58.1735 291.28C-58.8654 290.172 -59.5564 289.065 -60.242 287.959ZM-82.345 227.657C-84.5868 233.64 -84.8803 240.089 -83.9618 246.367C-83.0221 252.432 -81.0223 258.278 -78.4107 263.821C-75.5603 269.873 -71.8918 275.78 -68.1993 281.726L-68.1989 281.727C-59.1657 296.273 -49.9891 311.05 -52.2955 328.735C-53.6213 338.91 -59.54 347.501 -68.5491 352.386C-77.0913 357.018 -87.4605 358.269 -96.9176 356.167C-107.9 353.726 -117.483 346.841 -124.853 338.533C-132.551 329.855 -137.669 319.623 -142.2 309.041C-142.577 308.16 -142.953 307.276 -143.33 306.39L-143.332 306.384L-143.334 306.379C-147.235 297.199 -151.21 287.846 -157.673 280.16C-161.476 275.634 -166.108 272.004 -171.351 269.281C-176.768 266.467 -182.585 264.539 -188.387 262.703L-189.147 262.463L-189.573 262.328C-200.75 258.8 -212.066 255.227 -220.661 246.847C-222.69 244.869 -224.569 242.747 -226.447 240.624L-226.447 240.624C-228.756 238.015 -231.065 235.406 -233.653 233.067C-238.33 228.838 -244.289 225.162 -250.825 225.44C-253.113 225.538 -254.986 225.318 -256.896 223.929C-258.695 222.622 -260.061 220.688 -260.795 218.598C-262.648 213.319 -260.231 207.592 -257.981 202.846C-254.009 194.465 -249.966 186.117 -245.923 177.769C-243.903 173.598 -241.884 169.426 -239.872 165.251C-238.892 163.218 -237.914 161.183 -236.936 159.148L-236.933 159.141L-236.929 159.134L-236.926 159.127L-236.923 159.12L-236.919 159.113L-236.907 159.088L-236.895 159.062L-236.89 159.053C-234.91 154.933 -232.93 150.813 -230.934 146.701C-228.676 142.045 -226.303 137.431 -223.516 133.064C-218.183 124.71 -210.926 117.068 -200.953 114.72C-190.094 112.165 -178.776 115.981 -168.486 119.45L-168.484 119.451L-168.419 119.473C-167.974 119.623 -167.531 119.773 -167.089 119.921C-153.963 124.33 -141.098 129.509 -128.577 135.421C-116.419 141.162 -104.417 147.493 -93.101 154.766C-83.3731 161.019 -74.0928 168.809 -69.4842 179.701C-67.5016 184.387 -66.4451 189.51 -66.8208 194.604C-67.2644 200.612 -69.915 206.039 -73.0033 211.11C-73.7999 212.418 -74.6273 213.712 -75.4554 215.008L-75.4563 215.009L-75.4571 215.011L-75.458 215.012L-75.4588 215.013L-75.4597 215.015L-75.4605 215.016L-75.4614 215.018C-78.0526 219.072 -80.6513 223.138 -82.345 227.657ZM-84.7478 246.457C-82.9006 258.381 -77.0223 268.923 -70.7529 279.04C-70.1385 280.032 -69.5194 281.023 -68.8995 282.015L-68.8985 282.017L-68.8976 282.018L-68.8966 282.02L-68.8956 282.022L-68.8946 282.023L-68.8937 282.025C-63.1649 291.197 -57.3655 300.482 -54.5368 311.008C-51.7166 321.503 -51.8573 333.46 -58.4186 342.589C-64.2279 350.672 -73.9101 355.141 -83.6398 356.133C-107.2 358.535 -125.907 340.208 -135.959 320.732C-138.35 316.098 -140.39 311.301 -142.43 306.504L-142.43 306.504L-142.43 306.504L-142.431 306.503L-142.431 306.503L-142.431 306.503L-142.431 306.502L-142.431 306.502L-142.431 306.501C-144.606 301.387 -146.781 296.274 -149.382 291.358C-151.786 286.817 -154.551 282.437 -157.983 278.596C-161.548 274.606 -165.774 271.36 -170.49 268.842C-176.735 265.507 -183.467 263.401 -190.203 261.295L-190.203 261.294L-190.203 261.294L-190.203 261.294L-190.204 261.294L-190.204 261.294L-190.204 261.294L-190.204 261.294L-190.205 261.294C-194.815 259.852 -199.427 258.409 -203.884 256.572C-209.489 254.261 -214.766 251.267 -219.226 247.123C-221.631 244.889 -223.806 242.434 -225.98 239.979L-225.981 239.979L-225.981 239.979L-225.981 239.978L-225.982 239.978L-225.982 239.978L-225.982 239.977L-225.983 239.977L-225.983 239.977C-227.911 237.8 -229.84 235.623 -231.929 233.599C-236.026 229.631 -240.969 226.106 -246.665 224.989C-247.917 224.743 -249.197 224.621 -250.473 224.64C-250.73 224.643 -250.983 224.652 -251.232 224.661C-252.378 224.7 -253.458 224.737 -254.592 224.304C-256.941 223.405 -258.764 221.341 -259.757 219.071C-262.164 213.568 -259.293 207.405 -256.906 202.424C-254.983 198.412 -253.05 194.405 -251.116 190.398L-251.115 190.396L-251.114 190.395L-251.11 190.386C-250.088 188.266 -249.065 186.147 -248.044 184.026C-246.119 180.032 -244.197 176.036 -242.276 172.041C-238.313 163.802 -234.35 155.563 -230.366 147.334C-225.956 138.224 -221.065 128.698 -213.256 122.002C-209.375 118.676 -204.778 116.239 -199.738 115.263C-194.192 114.19 -188.485 114.8 -183.016 116.018C-176.958 117.366 -171.037 119.389 -165.174 121.402C-158.775 123.598 -152.438 125.979 -146.176 128.539C-133.723 133.63 -121.561 139.427 -109.765 145.896L-109.208 146.202C-98.3439 152.16 -86.9264 158.422 -78.4124 167.578C-71.1812 175.356 -66.0586 186.156 -67.9063 196.976C-69.044 203.638 -72.6279 209.237 -76.2191 214.847C-79.255 219.59 -82.2961 224.341 -83.8687 229.748C-85.4481 235.18 -85.561 240.887 -84.7478 246.457ZM-92.9818 240.918C-93.7998 235.32 -93.5418 229.569 -91.5418 224.235C-90.0312 220.204 -87.7139 216.578 -85.4034 212.962C-84.6599 211.798 -83.9171 210.635 -83.2021 209.461C-80.4432 204.932 -78.0749 200.08 -77.6789 194.711C-77.343 190.156 -78.2862 185.574 -80.0599 181.384C-84.1774 171.651 -92.4673 164.689 -101.159 159.103C-111.267 152.606 -121.986 146.951 -132.845 141.824C-144.023 136.545 -155.512 131.921 -167.232 127.984C-167.645 127.845 -168.06 127.705 -168.477 127.565C-177.672 124.465 -187.786 121.054 -197.488 123.337C-206.405 125.435 -212.894 132.262 -217.662 139.731C-220.154 143.633 -222.273 147.756 -224.292 151.916C-226.13 155.701 -227.953 159.494 -229.776 163.286C-230.607 165.017 -231.439 166.748 -232.272 168.478C-234.032 172.13 -235.799 175.779 -237.566 179.428C-241.213 186.957 -244.859 194.487 -248.441 202.046C-250.455 206.295 -252.612 211.417 -250.953 216.144C-250.295 218.016 -249.07 219.75 -247.461 220.921C-245.745 222.168 -244.063 222.367 -242.009 222.28C-236.184 222.033 -230.875 225.313 -226.707 229.081C-224.398 231.169 -222.336 233.499 -220.274 235.829C-218.596 237.724 -216.919 239.619 -215.108 241.385C-207.429 248.872 -197.32 252.063 -187.336 255.215L-187.331 255.217C-186.981 255.327 -186.631 255.438 -186.282 255.548C-181.1 257.188 -175.907 258.909 -171.072 261.421C-166.397 263.848 -162.268 267.086 -158.876 271.12C-153.105 277.983 -149.557 286.333 -146.075 294.53C-145.738 295.321 -145.402 296.111 -145.065 296.898C-141.019 306.35 -136.448 315.49 -129.571 323.241C-122.982 330.668 -114.418 336.82 -104.6 339.003C-96.1461 340.883 -86.8761 339.762 -79.2403 335.62C-71.1872 331.251 -65.8962 323.57 -64.7094 314.474C-62.6493 298.674 -70.8439 285.476 -78.9119 272.481C-82.2084 267.172 -85.4838 261.896 -88.0298 256.492C-90.3582 251.546 -92.1439 246.33 -92.9818 240.918ZM-81.265 270.121C-86.8592 261.095 -92.1022 251.689 -93.7605 241.055C-93.7626 241.047 -93.7645 241.039 -93.7662 241.03L-93.7672 241.025L-93.7699 241.009C-94.4984 236.029 -94.3951 230.926 -92.982 226.069C-91.5782 221.244 -88.864 217.004 -86.1542 212.771C-82.9484 207.763 -79.7489 202.765 -78.7329 196.819C-77.0834 187.17 -81.6556 177.54 -88.1055 170.602C-95.6993 162.434 -105.885 156.848 -115.574 151.534L-116.082 151.256C-126.613 145.478 -137.474 140.302 -148.593 135.757C-154.185 133.471 -159.841 131.345 -165.556 129.384C-170.787 127.589 -176.069 125.784 -181.475 124.581C-186.354 123.493 -191.444 122.948 -196.394 123.906C-200.888 124.775 -204.985 126.949 -208.444 129.915C-215.411 135.887 -219.774 144.389 -223.708 152.516C-227.228 159.789 -230.73 167.07 -234.233 174.352C-235.985 177.994 -237.737 181.636 -239.491 185.277C-240.41 187.185 -241.33 189.091 -242.25 190.998L-242.256 191.012C-243.975 194.574 -245.694 198.136 -247.404 201.703C-249.531 206.139 -252.095 211.632 -249.95 216.534C-249.068 218.55 -247.447 220.383 -245.36 221.182C-244.357 221.565 -243.401 221.532 -242.387 221.497L-242.387 221.497L-242.387 221.498C-242.163 221.49 -241.936 221.482 -241.705 221.479C-240.56 221.461 -239.415 221.571 -238.293 221.791C-233.2 222.791 -228.78 225.939 -225.115 229.488C-223.249 231.296 -221.526 233.241 -219.803 235.185L-219.803 235.185C-217.862 237.377 -215.921 239.569 -213.773 241.564C-209.793 245.262 -205.088 247.932 -200.085 249.994C-196.106 251.634 -191.989 252.922 -187.873 254.209C-181.859 256.091 -175.846 257.972 -170.269 260.949C-166.049 263.201 -162.271 266.103 -159.083 269.672C-156.016 273.105 -153.546 277.019 -151.398 281.078C-149.074 285.469 -147.132 290.037 -145.19 294.604C-143.369 298.887 -141.548 303.169 -139.413 307.306C-130.447 324.677 -113.759 341.03 -92.7433 338.888C-84.0665 338.004 -75.4319 334.019 -70.252 326.81C-64.4029 318.673 -64.2778 308.01 -66.7921 298.655C-69.3149 289.263 -74.4883 280.979 -79.599 272.796L-79.5993 272.795C-80.1564 271.903 -80.7128 271.012 -81.265 270.121ZM-100.738 220.811C-102.495 225.499 -102.721 230.55 -102.002 235.469C-101.264 240.229 -99.6942 244.815 -97.6428 249.163C-95.4013 253.922 -92.5184 258.566 -89.617 263.24L-89.6167 263.241C-82.5148 274.681 -75.3027 286.298 -77.1177 300.212C-78.1641 308.23 -82.8268 315 -89.9238 318.852C-96.6527 322.503 -104.824 323.495 -112.276 321.838C-120.93 319.914 -128.475 314.494 -134.283 307.948C-140.336 301.124 -144.36 293.075 -147.923 284.754C-148.203 284.1 -148.482 283.443 -148.762 282.785L-148.778 282.747L-148.794 282.709L-148.805 282.683L-148.806 282.68C-151.87 275.467 -154.991 268.118 -160.07 262.079C-163.048 258.534 -166.678 255.69 -170.783 253.558C-175.039 251.348 -179.608 249.833 -184.169 248.391C-184.475 248.294 -184.782 248.197 -185.089 248.1C-193.881 245.324 -202.784 242.513 -209.547 235.92C-211.143 234.365 -212.621 232.696 -214.098 231.026C-215.912 228.977 -217.725 226.929 -219.756 225.092C-223.414 221.785 -228.074 218.903 -233.187 219.119C-235.009 219.196 -236.499 219.018 -238.02 217.913C-239.442 216.878 -240.527 215.344 -241.108 213.689C-242.573 209.517 -240.675 205 -238.897 201.248C-235.739 194.584 -232.525 187.947 -229.311 181.31L-229.305 181.298L-229.3 181.287L-229.294 181.276C-227.75 178.087 -226.206 174.898 -224.668 171.707C-223.917 170.148 -223.168 168.588 -222.418 167.028L-222.416 167.025L-222.415 167.022L-222.413 167.019L-222.412 167.015L-222.41 167.012L-222.409 167.009C-220.825 163.714 -219.242 160.42 -217.646 157.131C-215.867 153.464 -213.999 149.833 -211.804 146.396C-207.601 139.811 -201.88 133.801 -194.02 131.952C-185.471 129.942 -176.561 132.946 -168.46 135.678L-167.861 135.879L-167.368 136.045C-157.054 139.509 -146.944 143.579 -137.107 148.225C-127.548 152.739 -118.11 157.717 -109.213 163.437C-101.556 168.359 -94.2572 174.493 -90.6301 183.065C-89.0673 186.76 -88.2368 190.8 -88.5335 194.818C-88.8828 199.546 -90.9681 203.82 -93.3983 207.81C-94.0264 208.841 -94.6787 209.862 -95.3315 210.883L-95.3317 210.883C-97.3667 214.068 -99.4072 217.261 -100.738 220.811ZM-102.784 235.585C-101.326 244.958 -96.706 253.247 -91.7772 261.202C-91.2956 261.979 -90.8104 262.756 -90.3245 263.534C-85.824 270.739 -81.2683 278.033 -79.0454 286.301C-76.8371 294.516 -76.9465 303.885 -82.082 311.032C-86.634 317.365 -94.2195 320.866 -101.843 321.642C-120.314 323.526 -134.985 309.148 -142.863 293.88C-144.74 290.242 -146.342 286.477 -147.943 282.711L-147.944 282.71C-149.654 278.688 -151.365 274.665 -153.412 270.799C-155.303 267.224 -157.479 263.775 -160.18 260.752C-162.992 257.604 -166.32 255.046 -170.042 253.06C-174.949 250.44 -180.238 248.785 -185.53 247.13L-185.53 247.13C-189.154 245.996 -192.779 244.862 -196.282 243.418C-200.68 241.604 -204.817 239.258 -208.317 236.007C-210.207 234.25 -211.915 232.322 -213.624 230.393C-215.14 228.682 -216.655 226.971 -218.298 225.38C-221.529 222.25 -225.428 219.478 -229.918 218.597C-230.909 218.402 -231.923 218.307 -232.932 218.322C-233.133 218.325 -233.331 218.332 -233.527 218.339L-233.527 218.339C-234.413 218.37 -235.248 218.399 -236.124 218.065C-237.948 217.367 -239.366 215.762 -240.137 214C-242.019 209.699 -239.763 204.876 -237.898 200.985C-236.269 197.588 -234.632 194.194 -232.994 190.801L-232.987 190.786C-232.302 189.367 -231.618 187.949 -230.934 186.53C-229.39 183.326 -227.849 180.121 -226.307 176.917L-226.302 176.906C-223.222 170.501 -220.141 164.096 -217.043 157.699C-213.585 150.555 -209.751 143.079 -203.627 137.828C-200.589 135.224 -196.992 133.312 -193.045 132.549C-188.694 131.707 -184.219 132.187 -179.929 133.142C-175.176 134.201 -170.532 135.787 -165.932 137.367C-160.904 139.094 -155.926 140.964 -151.004 142.976C-141.22 146.976 -131.662 151.531 -122.395 156.615L-121.938 156.866C-113.422 161.536 -104.469 166.447 -97.7945 173.625C-92.1273 179.721 -88.1056 188.181 -89.5546 196.662C-90.4478 201.893 -93.2631 206.29 -96.0839 210.695C-98.4676 214.418 -100.855 218.147 -102.09 222.391C-103.337 226.672 -103.43 231.172 -102.788 235.563C-102.787 235.571 -102.785 235.578 -102.784 235.585ZM-111.022 230.022C-111.642 225.784 -111.449 221.43 -109.936 217.39C-108.786 214.325 -107.024 211.568 -105.267 208.818L-105.266 208.817L-105.266 208.816L-105.265 208.816L-105.265 208.815L-105.264 208.814C-104.701 207.932 -104.138 207.051 -103.596 206.161C-101.496 202.711 -99.6924 199.016 -99.3907 194.927C-99.1337 191.448 -99.8516 187.95 -101.205 184.75C-104.341 177.336 -110.649 172.032 -117.27 167.775C-124.959 162.833 -133.113 158.53 -141.374 154.629C-149.87 150.616 -158.601 147.102 -167.509 144.111L-167.983 143.951L-168.449 143.794C-175.455 141.432 -183.161 138.833 -190.555 140.572C-197.357 142.171 -202.313 147.366 -205.951 153.066C-207.849 156.038 -209.464 159.18 -211.004 162.35C-212.455 165.342 -213.896 168.339 -215.337 171.337C-215.914 172.537 -216.491 173.738 -217.069 174.938C-218.404 177.71 -219.745 180.48 -221.086 183.249L-221.088 183.253L-221.1 183.276L-221.101 183.279C-223.869 188.995 -226.638 194.712 -229.358 200.452C-230.901 203.707 -232.539 207.621 -231.269 211.239C-230.765 212.675 -229.822 214.01 -228.586 214.909C-227.261 215.873 -225.96 216.03 -224.372 215.962C-219.971 215.778 -215.959 218.264 -212.814 221.11C-211.058 222.697 -209.491 224.468 -207.923 226.24C-206.648 227.68 -205.374 229.12 -203.997 230.462C-198.149 236.164 -190.449 238.594 -182.846 240.994L-182.845 240.994L-182.067 241.24C-178.129 242.486 -174.182 243.795 -170.506 245.704C-166.97 247.541 -163.841 249.992 -161.275 253.044C-156.896 258.253 -154.203 264.59 -151.559 270.811C-151.303 271.414 -151.047 272.016 -150.79 272.616C-147.712 279.806 -144.233 286.762 -139.002 292.659C-133.976 298.325 -127.449 303.012 -119.96 304.677C-113.512 306.11 -106.436 305.252 -100.616 302.088C-94.4759 298.751 -90.4393 292.894 -89.5342 285.953C-87.9651 273.924 -94.1951 263.886 -100.331 253.998C-102.837 249.961 -105.327 245.948 -107.265 241.836C-109.031 238.082 -110.386 234.127 -111.022 230.022ZM-102.288 252.283C-106.549 245.408 -110.54 238.244 -111.803 230.143C-111.806 230.133 -111.807 230.123 -111.809 230.113C-112.364 226.31 -112.283 222.415 -111.202 218.708C-110.135 215.046 -108.074 211.826 -106.016 208.613L-106.016 208.613C-103.581 204.809 -101.15 201.014 -100.379 196.501C-99.1298 189.19 -102.599 181.898 -107.485 176.644C-113.241 170.456 -120.962 166.221 -128.305 162.193L-128.71 161.971C-136.714 157.58 -144.969 153.646 -153.42 150.192C-157.669 148.455 -161.97 146.84 -166.312 145.349C-170.279 143.986 -174.286 142.617 -178.386 141.704C-182.088 140.879 -185.947 140.466 -189.701 141.192C-193.102 141.849 -196.199 143.499 -198.816 145.742C-204.096 150.27 -207.402 156.72 -210.385 162.881C-213.018 168.322 -215.639 173.769 -218.259 179.216C-219.632 182.071 -221.006 184.926 -222.381 187.78C-223.04 189.148 -223.699 190.515 -224.359 191.883L-224.371 191.907L-224.382 191.931L-224.387 191.941C-225.725 194.714 -227.063 197.488 -228.395 200.265C-230.001 203.613 -231.948 207.765 -230.329 211.465C-229.669 212.973 -228.454 214.348 -226.892 214.945C-226.146 215.229 -225.434 215.204 -224.681 215.178C-224.51 215.172 -224.338 215.165 -224.162 215.163C-223.285 215.149 -222.406 215.231 -221.545 215.4C-217.656 216.164 -214.281 218.561 -211.484 221.271C-210.064 222.645 -208.755 224.124 -207.445 225.602C-205.97 227.268 -204.495 228.933 -202.863 230.449C-199.843 233.253 -196.275 235.279 -192.48 236.842C-189.457 238.089 -186.328 239.068 -183.199 240.046C-178.627 241.477 -174.057 242.906 -169.819 245.17C-166.597 246.891 -163.714 249.106 -161.28 251.831C-158.943 254.445 -157.063 257.43 -155.427 260.521C-153.661 263.858 -152.184 267.33 -150.708 270.803C-149.324 274.057 -147.94 277.312 -146.318 280.455C-139.523 293.619 -126.873 306.023 -110.946 304.399C-104.374 303.728 -97.8385 300.713 -93.9139 295.253C-89.4905 289.098 -89.3975 281.025 -91.2991 273.949C-93.2162 266.814 -97.146 260.521 -101.029 254.304C-101.45 253.63 -101.87 252.957 -102.288 252.283ZM-119.052 213.76C-120.39 217.211 -120.572 220.936 -120.043 224.573C-119.505 228.03 -118.365 231.356 -116.875 234.514C-115.242 237.981 -113.146 241.36 -111.037 244.76L-111.037 244.761C-105.871 253.088 -100.631 261.536 -101.944 271.679C-102.694 277.476 -106.045 282.409 -111.156 285.237C-116.066 287.953 -122.043 288.717 -127.513 287.536C-133.774 286.183 -139.249 282.314 -143.486 277.62C-147.942 272.685 -150.922 266.828 -153.525 260.766C-153.78 260.173 -154.032 259.578 -154.286 258.981C-156.48 253.817 -158.709 248.569 -162.3 244.211C-164.424 241.633 -167.016 239.542 -169.965 237.975C-173.031 236.344 -176.334 235.232 -179.633 234.183C-179.835 234.119 -180.038 234.055 -180.24 233.991L-180.775 233.821C-187.027 231.846 -193.376 229.839 -198.224 225.203C-199.469 224.013 -200.61 222.723 -201.752 221.434L-201.752 221.434C-203.059 219.958 -204.365 218.482 -205.826 217.155C-208.467 214.755 -211.848 212.641 -215.552 212.798C-216.85 212.854 -217.929 212.741 -219.032 211.98C-220.085 211.254 -220.891 210.163 -221.354 208.976C-222.516 206.003 -221.245 202.71 -219.978 199.996C-217.706 195.124 -215.352 190.288 -212.999 185.452L-212.998 185.449C-211.842 183.073 -210.685 180.696 -209.539 178.316C-208.978 177.153 -208.419 175.989 -207.859 174.826L-207.833 174.771L-207.827 174.759C-206.693 172.401 -205.559 170.044 -204.419 167.69C-203.132 165.033 -201.782 162.4 -200.202 159.901C-197.149 155.072 -192.989 150.63 -187.254 149.228C-181.01 147.702 -174.516 149.875 -168.599 151.856L-168.578 151.863L-168.319 151.949L-167.981 152.062C-160.498 154.56 -153.162 157.499 -146.022 160.852C-139.02 164.141 -132.12 167.781 -125.592 171.941C-119.96 175.53 -114.571 179.986 -111.854 186.253C-110.699 188.913 -110.07 191.82 -110.226 194.726C-110.411 198.148 -111.844 201.269 -113.584 204.166C-114.1 205.026 -114.642 205.873 -115.184 206.721L-115.184 206.722C-116.63 208.984 -118.078 211.25 -119.052 213.76ZM-120.822 224.702C-119.762 231.459 -116.462 237.446 -112.91 243.186C-112.754 243.439 -112.597 243.692 -112.439 243.945C-112.204 244.323 -111.968 244.701 -111.731 245.079C-108.528 250.207 -105.288 255.393 -103.647 261.257C-101.97 267.251 -101.96 274.141 -105.693 279.398C-108.973 284.015 -114.468 286.572 -120.002 287.147C-133.411 288.54 -144.072 278.089 -149.783 267.004C-151.142 264.366 -152.303 261.637 -153.464 258.908L-153.464 258.907L-153.464 258.907L-153.465 258.906L-153.465 258.906C-154.69 256.027 -155.914 253.148 -157.371 250.376C-160.188 245.018 -163.917 240.392 -169.291 237.445C-172.942 235.444 -176.901 234.205 -180.861 232.967C-183.374 232.181 -185.887 231.395 -188.321 230.415C-191.503 229.132 -194.531 227.489 -197.093 225.181C-198.6 223.824 -199.943 222.309 -201.286 220.793L-201.287 220.792L-201.287 220.792L-201.287 220.792L-201.287 220.792C-202.309 219.639 -203.332 218.486 -204.426 217.402C-206.74 215.11 -209.505 213.078 -212.719 212.307C-213.488 212.123 -214.273 212.022 -215.064 212.009C-215.302 212.005 -215.54 212.018 -215.777 212.03L-215.778 212.03C-216.272 212.057 -216.764 212.083 -217.253 211.958C-218.688 211.594 -219.831 210.393 -220.448 209.089C-221.924 205.973 -220.268 202.421 -218.907 199.58C-217.829 197.329 -216.744 195.081 -215.659 192.832L-215.643 192.799C-215.052 191.575 -214.462 190.352 -213.872 189.127C-212.752 186.802 -211.633 184.477 -210.514 182.151C-208.278 177.505 -206.042 172.859 -203.799 168.216C-201.288 163.021 -198.521 157.573 -194.091 153.731C-191.881 151.816 -189.26 150.4 -186.376 149.838C-183.238 149.226 -180.014 149.565 -176.917 150.249C-173.49 151.005 -170.144 152.147 -166.826 153.284C-163.193 154.527 -159.596 155.876 -156.039 157.325C-148.925 160.224 -141.977 163.526 -135.238 167.212L-134.827 167.437L-134.827 167.437L-134.827 167.437C-128.613 170.835 -122.072 174.413 -117.202 179.638C-113.104 184.035 -110.185 190.119 -111.189 196.249C-111.818 200.092 -113.884 203.321 -115.955 206.558C-117.709 209.299 -119.465 212.044 -120.356 215.171C-121.236 218.259 -121.289 221.499 -120.83 224.662C-120.828 224.676 -120.826 224.689 -120.822 224.702ZM-129.063 219.124C-129.486 216.183 -129.346 213.174 -128.266 210.382C-127.477 208.342 -126.299 206.5 -125.124 204.662C-124.665 203.944 -124.206 203.226 -123.771 202.498C-122.359 200.134 -121.211 197.584 -121.082 194.794C-120.972 192.384 -121.514 189.984 -122.493 187.788C-124.733 182.768 -129.077 179.189 -133.614 176.299C-138.933 172.909 -144.553 169.944 -150.259 167.266C-156.135 164.508 -162.175 162.097 -168.335 160.052L-168.678 159.938C-173.502 158.335 -178.787 156.58 -183.878 157.865C-188.546 159.044 -191.923 162.702 -194.399 166.646C-196.652 170.237 -198.463 174.121 -200.262 177.981L-200.263 177.982C-200.841 179.223 -201.418 180.461 -202.009 181.686C-202.928 183.595 -203.856 185.5 -204.784 187.405L-204.784 187.405L-204.784 187.405L-204.784 187.405C-206.692 191.323 -208.601 195.242 -210.437 199.193C-211.458 201.393 -212.453 204.035 -211.543 206.442C-210.798 208.408 -209.067 209.773 -206.942 209.651C-202.028 209.37 -198.633 213.194 -195.52 216.702C-194.692 217.635 -193.883 218.546 -193.072 219.351C-188.973 223.417 -183.566 225.123 -178.192 226.817L-178.192 226.817L-178.085 226.851C-172.698 228.551 -167.39 230.529 -163.657 234.984C-160.67 238.548 -158.833 242.873 -157.027 247.126L-157.027 247.126C-156.824 247.604 -156.621 248.082 -156.417 248.558C-154.289 253.515 -151.851 258.305 -148.198 262.334C-144.746 266.142 -140.291 269.279 -135.2 270.37C-130.75 271.325 -125.895 270.704 -121.9 268.499C-117.723 266.194 -114.984 262.174 -114.362 257.442C-113.276 249.18 -117.548 242.29 -121.756 235.504C-123.448 232.775 -125.129 230.063 -126.447 227.286C-127.677 224.693 -128.617 221.964 -129.063 219.124ZM-123.521 234.106C-126.364 229.498 -128.974 224.694 -129.838 219.281C-129.841 219.271 -129.844 219.261 -129.846 219.25C-129.849 219.238 -129.852 219.226 -129.854 219.213C-130.227 216.622 -130.18 213.974 -129.457 211.445C-128.733 208.913 -127.309 206.689 -125.888 204.47C-124.203 201.839 -122.523 199.214 -122.016 196.089C-121.19 190.997 -123.7 185.964 -127.161 182.38C-131.161 178.239 -136.418 175.372 -141.433 172.637L-141.689 172.497C-147.159 169.513 -152.8 166.839 -158.573 164.494C-161.461 163.323 -164.38 162.232 -167.329 161.225C-170.01 160.309 -172.717 159.388 -175.488 158.787C-177.994 158.244 -180.599 157.988 -183.131 158.501C-185.485 158.979 -187.612 160.166 -189.4 161.749C-192.999 164.935 -195.224 169.418 -197.278 173.68C-199.944 179.211 -202.608 184.742 -205.272 190.274L-205.435 190.612C-205.864 191.503 -206.294 192.394 -206.725 193.284C-207.648 195.194 -208.571 197.105 -209.485 199.02C-210.596 201.353 -211.902 204.303 -210.511 206.795C-209.957 207.787 -209.005 208.691 -207.842 208.86C-207.505 208.909 -207.161 208.89 -206.817 208.872C-206.58 208.859 -206.344 208.846 -206.11 208.855C-205.482 208.881 -204.859 208.978 -204.252 209.136C-201.706 209.799 -199.519 211.405 -197.672 213.23C-196.774 214.116 -195.937 215.061 -195.101 216.005L-195.1 216.005L-195.1 216.005L-195.1 216.005C-194.058 217.182 -193.016 218.358 -191.857 219.422C-189.796 221.315 -187.363 222.675 -184.784 223.73C-182.742 224.566 -180.632 225.226 -178.522 225.886L-178.522 225.886C-175.397 226.864 -172.273 227.841 -169.375 229.388C-164.991 231.727 -161.908 235.395 -159.583 239.723C-158.314 242.086 -157.265 244.553 -156.216 247.02L-156.215 247.02L-156.215 247.02L-156.215 247.021C-155.31 249.149 -154.404 251.278 -153.357 253.34C-148.753 262.41 -140.082 271.036 -129.127 269.906C-124.635 269.443 -120.174 267.369 -117.52 263.616C-114.471 259.307 -114.532 253.649 -115.942 248.758C-117.289 244.086 -119.875 239.947 -122.436 235.85L-122.436 235.849C-122.799 235.268 -123.162 234.687 -123.521 234.106ZM-137.325 206.623C-138.276 208.866 -138.423 211.284 -138.083 213.676C-137.731 215.899 -136.99 218.03 -136.017 220.052C-135.012 222.145 -133.745 224.191 -132.47 226.25L-132.47 226.25C-129.223 231.491 -125.926 236.814 -126.776 243.202C-127.259 246.83 -129.355 249.925 -132.55 251.711C-135.646 253.442 -139.424 253.942 -142.884 253.204C-151.183 251.435 -156.116 243.76 -159.237 236.509C-159.415 236.096 -159.591 235.681 -159.768 235.265C-161.13 232.057 -162.512 228.802 -164.733 226.091C-167.63 222.558 -171.776 221.022 -176.005 219.687C-180.138 218.385 -184.292 217.073 -187.449 213.955C-188.133 213.279 -188.77 212.558 -189.408 211.837L-189.409 211.837L-189.409 211.836C-190.278 210.854 -191.147 209.872 -192.132 209.005C-193.044 208.201 -194.047 207.493 -195.171 207.022C-196.268 206.562 -197.271 206.512 -198.436 206.51C-199.967 206.507 -201.232 205.291 -201.731 203.911C-202.397 202.071 -201.668 200.075 -200.894 198.392C-199.458 195.271 -197.948 192.179 -196.438 189.089C-195.705 187.589 -194.972 186.089 -194.248 184.587C-193.806 183.67 -193.374 182.743 -192.941 181.814L-192.941 181.814C-191.551 178.831 -190.151 175.827 -188.386 173.065C-186.468 170.065 -183.861 167.335 -180.295 166.455C-176.387 165.491 -172.339 166.834 -168.638 168.062L-168.393 168.144C-163.557 169.747 -158.819 171.641 -154.213 173.816C-149.843 175.877 -145.531 178.154 -141.463 180.767C-137.975 183.008 -134.66 185.797 -132.975 189.682C-132.265 191.321 -131.873 193.103 -131.941 194.894C-132.022 197.001 -132.849 198.939 -133.902 200.735C-134.273 201.366 -134.667 201.984 -135.062 202.602L-135.062 202.602C-135.892 203.901 -136.723 205.2 -137.325 206.623ZM-138.863 213.807C-138.111 218.483 -135.689 222.392 -133.263 226.309C-131.296 229.484 -129.326 232.664 -128.241 236.26C-127.099 240.047 -126.983 244.471 -129.349 247.834C-131.403 250.755 -134.877 252.347 -138.367 252.677C-146.874 253.478 -153.5 246.629 -156.979 239.577C-157.7 238.115 -158.339 236.616 -158.977 235.117C-159.815 233.151 -160.652 231.186 -161.674 229.306C-163.445 226.051 -165.803 223.296 -169.103 221.525C-171.342 220.323 -173.759 219.566 -176.177 218.81L-176.177 218.81L-176.177 218.809C-177.714 218.328 -179.252 217.847 -180.744 217.251C-182.73 216.458 -184.62 215.453 -186.225 214.024C-187.198 213.158 -188.061 212.185 -188.923 211.211C-189.48 210.583 -190.036 209.956 -190.621 209.357C-192.058 207.89 -193.751 206.564 -195.75 205.981C-196.618 205.727 -197.433 205.713 -198.322 205.716C-199.33 205.721 -200.137 205.144 -200.663 204.306C-201.865 202.39 -200.802 200.038 -199.938 198.22C-199.249 196.774 -198.552 195.332 -197.855 193.89C-197.506 193.169 -197.157 192.447 -196.809 191.726C-196.401 190.878 -195.993 190.03 -195.584 189.182L-194.702 187.348L-194.696 187.337L-194.691 187.326C-193.299 184.435 -191.907 181.544 -190.512 178.655C-188.944 175.408 -187.237 171.991 -184.48 169.575C-183.09 168.356 -181.435 167.457 -179.609 167.112C-177.623 166.737 -175.587 166.975 -173.634 167.418C-169.159 168.436 -164.762 170.164 -160.525 171.901C-156.101 173.716 -151.779 175.78 -147.588 178.083L-147.295 178.244C-143.407 180.379 -139.296 182.636 -136.315 185.977C-133.822 188.77 -132.117 192.612 -132.925 196.402C-133.398 198.622 -134.609 200.513 -135.822 202.407C-136.928 204.135 -138.037 205.866 -138.589 207.851C-139.126 209.781 -139.151 211.792 -138.871 213.766C-138.869 213.774 -138.868 213.782 -138.866 213.79C-138.865 213.796 -138.864 213.801 -138.863 213.807ZM-147.103 208.227C-147.341 206.526 -147.229 204.832 -146.535 203.245C-146.117 202.288 -145.555 201.409 -144.994 200.531L-144.994 200.531C-144.685 200.047 -144.376 199.563 -144.091 199.066C-142.656 196.564 -142.4 193.87 -143.614 191.221C-144.865 188.489 -147.239 186.549 -149.725 184.976C-152.615 183.149 -155.658 181.54 -158.754 180.094C-161.913 178.616 -165.16 177.326 -168.47 176.233L-168.575 176.198C-171.211 175.327 -174.089 174.375 -176.87 175.086C-179.392 175.729 -181.231 177.682 -182.581 179.814C-183.817 181.768 -184.804 183.886 -185.785 185.99L-185.786 185.991C-186.094 186.651 -186.401 187.31 -186.715 187.962C-187.221 189.011 -187.737 190.056 -188.254 191.103C-189.337 193.294 -190.42 195.488 -191.406 197.718C-191.916 198.871 -192.352 200.241 -191.88 201.482C-191.52 202.43 -190.669 203.268 -189.621 203.34C-189.424 203.354 -189.236 203.36 -189.052 203.365C-188.527 203.381 -188.036 203.396 -187.484 203.595C-186.706 203.875 -186.007 204.334 -185.374 204.859C-184.586 205.513 -183.909 206.278 -183.231 207.042C-182.806 207.523 -182.38 208.004 -181.927 208.457C-179.687 210.697 -176.742 211.635 -173.794 212.566C-170.844 213.497 -167.944 214.573 -165.936 217.05C-164.401 218.942 -163.444 221.199 -162.498 223.431L-162.497 223.432C-162.325 223.838 -162.154 224.243 -161.979 224.644C-159.772 229.719 -156.116 235.059 -150.259 236.098C-145.351 236.969 -139.955 234.272 -139.202 229.034C-138.548 224.5 -140.883 220.723 -143.181 217.006C-144.067 215.574 -144.946 214.151 -145.648 212.697C-146.334 211.278 -146.851 209.786 -147.103 208.227ZM-147.889 208.317C-147.891 208.305 -147.893 208.294 -147.894 208.282C-148.078 206.922 -148.064 205.54 -147.708 204.207C-147.327 202.785 -146.538 201.549 -145.75 200.316L-145.75 200.316C-144.906 198.995 -144.063 197.677 -143.726 196.132C-143.124 193.371 -144.485 190.568 -146.364 188.611C-148.487 186.398 -151.29 184.868 -153.96 183.41L-154.131 183.317C-157.012 181.744 -159.98 180.331 -163.017 179.088C-165.948 177.889 -168.987 176.693 -172.079 175.984C-174.833 175.353 -177.526 175.573 -179.702 177.52C-181.647 179.261 -182.827 181.71 -183.943 184.025L-183.943 184.026L-183.955 184.052C-184.664 185.522 -185.372 186.991 -186.079 188.461C-186.819 189.998 -187.56 191.535 -188.3 193.071C-188.55 193.59 -188.8 194.108 -189.051 194.626C-189.522 195.597 -189.992 196.567 -190.453 197.542C-191.087 198.888 -191.84 200.68 -190.67 201.962C-190.193 202.484 -189.695 202.542 -189.026 202.534C-188.389 202.527 -187.764 202.654 -187.167 202.872C-185.842 203.356 -184.73 204.29 -183.767 205.295C-183.41 205.667 -183.067 206.054 -182.724 206.441C-182.046 207.205 -181.368 207.97 -180.582 208.625C-179.435 209.581 -178.091 210.239 -176.703 210.768C-175.769 211.124 -174.811 211.423 -173.852 211.723L-173.852 211.723C-172.048 212.286 -170.244 212.85 -168.597 213.79C-164.92 215.889 -163.314 219.598 -161.718 223.285L-161.718 223.285C-161.266 224.329 -160.814 225.371 -160.317 226.375C-157.888 231.276 -153.258 236.027 -147.342 235.419C-144.872 235.165 -142.417 233.989 -141.044 231.855C-139.492 229.441 -139.698 226.337 -140.56 223.717C-141.343 221.338 -142.655 219.216 -143.964 217.099L-143.964 217.099C-145.663 214.35 -147.358 211.609 -147.889 208.317ZM-155.744 199.866C-156.176 200.799 -156.255 201.768 -156.123 202.778C-155.811 204.609 -154.842 206.189 -153.876 207.766C-152.697 209.691 -151.521 211.609 -151.552 213.967C-151.598 217.478 -155.004 219.544 -158.275 218.871C-161.608 218.184 -163.68 215.173 -164.952 212.252C-165.056 212.014 -165.157 211.775 -165.259 211.534C-165.816 210.219 -166.381 208.883 -167.319 207.796C-168.501 206.425 -170.205 205.885 -171.873 205.357C-171.995 205.318 -172.117 205.28 -172.239 205.241C-174.022 204.67 -175.518 203.947 -176.795 202.55C-176.91 202.423 -177.024 202.295 -177.139 202.166C-177.683 201.552 -178.235 200.93 -178.957 200.53C-179.433 200.265 -179.878 200.188 -180.407 200.173C-180.684 200.165 -180.915 200.145 -181.167 200.019C-182.541 199.33 -182.206 197.673 -181.694 196.546C-181.105 195.25 -180.477 193.97 -179.849 192.691C-179.536 192.054 -179.223 191.416 -178.916 190.777C-178.744 190.42 -178.571 190.039 -178.393 189.646C-177.288 187.207 -175.969 184.296 -173.251 183.665C-171.658 183.295 -170.03 183.829 -168.526 184.324C-166.592 184.959 -164.696 185.713 -162.851 186.575C-161.06 187.414 -159.297 188.346 -157.629 189.41C-156.236 190.297 -154.922 191.389 -154.192 192.904C-153.532 194.27 -153.498 195.768 -154.154 197.14C-154.376 197.603 -154.654 198.034 -154.931 198.466C-155.224 198.92 -155.517 199.375 -155.744 199.866ZM-156.915 202.812C-157.144 200.944 -156.519 199.53 -155.541 197.97C-154.982 197.078 -154.432 196.152 -154.448 195.064C-154.461 194.216 -154.769 193.388 -155.217 192.678C-156.238 191.058 -158.018 190.043 -159.64 189.123C-161.412 188.118 -163.245 187.219 -165.123 186.434C-166.798 185.734 -168.525 185.064 -170.283 184.611C-171.84 184.21 -173.412 184.192 -174.702 185.273C-175.848 186.232 -176.53 187.647 -177.167 188.97L-177.193 189.023C-177.673 190.016 -178.151 191.009 -178.629 192.002C-178.948 192.666 -179.268 193.331 -179.588 193.995C-179.738 194.306 -179.888 194.617 -180.039 194.928C-180.312 195.491 -180.584 196.054 -180.852 196.619L-180.887 196.693C-181.23 197.416 -181.735 198.48 -181.03 199.136C-180.774 199.373 -180.496 199.377 -180.198 199.381C-180.076 199.383 -179.949 199.385 -179.82 199.403C-179.493 199.448 -179.169 199.549 -178.868 199.686C-178.243 199.971 -177.702 200.421 -177.224 200.908C-176.988 201.148 -176.764 201.401 -176.54 201.653C-176.197 202.04 -175.854 202.427 -175.466 202.77C-174.844 203.32 -174.117 203.705 -173.35 204.013C-172.75 204.254 -172.131 204.447 -171.512 204.641C-170.555 204.94 -169.598 205.24 -168.711 205.713C-166.406 206.942 -165.423 209.196 -164.44 211.454C-164.301 211.773 -164.162 212.092 -164.019 212.408C-162.706 215.312 -160.22 218.403 -156.695 218.193C-155.266 218.108 -153.802 217.476 -152.996 216.251C-152.063 214.836 -152.243 212.993 -152.793 211.471C-153.254 210.194 -153.958 209.047 -154.659 207.903C-155.625 206.328 -156.587 204.76 -156.909 202.868C-156.913 202.849 -156.915 202.83 -156.915 202.812Z" fill="url(#paint0_linear_1080_1727)"/>
<defs>
<linearGradient id="paint0_linear_1080_1727" x1="3.50002" y1="-14" x2="34.2299" y2="565.302" gradientUnits="userSpaceOnUse">
<stop stop-color="#020202"/>
<stop offset="0.409189" stop-color="#FF6100"/>
<stop offset="0.995488" stop-color="#020202"/>
</linearGradient>
</defs>
</svg>
