<svg width="86" height="44" viewBox="0 0 86 44" fill="none" xmlns="http://www.w3.org/2000/svg">
<g clip-path="url(#clip0_279_322)">
<path d="M63.8857 0.611084H22.1143C10.2401 0.611084 0.614258 10.1872 0.614258 22C0.614258 33.8127 10.2401 43.3889 22.1143 43.3889H63.8857C75.7598 43.3889 85.3857 33.8127 85.3857 22C85.3857 10.1872 75.7598 0.611084 63.8857 0.611084Z" fill="white" stroke="#3C4043"/>
<path d="M41.1339 22.2531V28.5383H39.1289V13.0173H44.4443C45.7914 13.0173 46.9402 13.4641 47.88 14.3575C48.8408 15.2509 49.3211 16.3418 49.3211 17.63C49.3211 18.9494 48.8408 20.0402 47.88 20.9233C46.9506 21.8063 45.8019 22.2427 44.4443 22.2427H41.1339V22.2531ZM41.1339 14.9289V20.3415H44.4861C45.2797 20.3415 45.9481 20.0714 46.4702 19.5416C47.0028 19.0117 47.2743 18.3676 47.2743 17.6404C47.2743 16.9236 47.0028 16.2898 46.4702 15.76C45.9481 15.2094 45.2902 14.9393 44.4861 14.9393H41.1339V14.9289Z" fill="#3C4043"/>
<path d="M54.5635 17.5679C56.0464 17.5679 57.216 17.9626 58.0723 18.7522C58.9286 19.5418 59.3568 20.6222 59.3568 21.9935V28.5385H57.4457V27.0633H57.3622C56.5372 28.2788 55.4303 28.8814 54.0518 28.8814C52.8718 28.8814 51.8901 28.5385 51.0965 27.8425C50.3028 27.1464 49.906 26.2841 49.906 25.2453C49.906 24.144 50.3237 23.2714 51.1591 22.6273C51.9946 21.9728 53.112 21.6507 54.5009 21.6507C55.6913 21.6507 56.673 21.8689 57.4353 22.3052V21.8481C57.4353 21.152 57.1638 20.5703 56.6103 20.082C56.0568 19.5937 55.4094 19.3548 54.6679 19.3548C53.5506 19.3548 52.6629 19.8223 52.0155 20.7676L50.2506 19.6664C51.2218 18.2639 52.6629 17.5679 54.5635 17.5679ZM51.9737 25.2764C51.9737 25.7959 52.193 26.2322 52.642 26.575C53.0806 26.9179 53.6028 27.0945 54.198 27.0945C55.0439 27.0945 55.7958 26.7828 56.4537 26.1595C57.1116 25.5361 57.4457 24.8089 57.4457 23.9674C56.8192 23.4791 55.9524 23.2298 54.835 23.2298C54.0205 23.2298 53.3417 23.4272 52.7987 23.8116C52.2452 24.2168 51.9737 24.705 51.9737 25.2764Z" fill="#3C4043"/>
<path d="M70.259 17.9106L63.5756 33.2031H61.5079L63.9933 27.8528L59.5864 17.9106H61.769L64.9436 25.5361H64.9854L68.0765 17.9106H70.259Z" fill="#3C4043"/>
<path d="M33.1584 20.9857C33.1584 20.3354 33.0999 19.7131 32.9913 19.1147H24.5869V22.5431L29.4271 22.5441C29.2308 23.6848 28.5991 24.6572 27.6309 25.3054V27.5297H30.5122C32.1945 25.9807 33.1584 23.691 33.1584 20.9857Z" fill="#4285F4"/>
<path d="M27.6321 25.3054C26.8301 25.8435 25.7973 26.1584 24.589 26.1584C22.2551 26.1584 20.2752 24.5938 19.566 22.4849H16.594V24.7787C18.0664 27.6855 21.0928 29.6802 24.589 29.6802C27.0055 29.6802 29.0356 28.8896 30.5133 27.5286L27.6321 25.3054Z" fill="#34A853"/>
<path d="M19.2862 20.783C19.2862 20.1909 19.3853 19.6184 19.566 19.0802V16.7864H16.594C15.9851 17.9884 15.6426 19.3452 15.6426 20.783C15.6426 22.2209 15.9862 23.5777 16.594 24.7796L19.566 22.4857C19.3853 21.9476 19.2862 21.3752 19.2862 20.783Z" fill="#FABB05"/>
<path d="M24.589 15.4068C25.908 15.4068 27.0891 15.8588 28.0217 16.7419L30.5749 14.2038C29.0242 12.7671 27.0025 11.885 24.589 11.885C21.0939 11.885 18.0664 13.8797 16.594 16.7865L19.566 19.0803C20.2752 16.9714 22.2551 15.4068 24.589 15.4068Z" fill="#E94235"/>
</g>
<defs>
<clipPath id="clip0_279_322">
<rect width="86" height="44" fill="white"/>
</clipPath>
</defs>
</svg>
