<svg width="72" height="72" viewBox="0 0 72 72" fill="none" xmlns="http://www.w3.org/2000/svg">
<mask id="mask0_300_212" style="mask-type:luminance" maskUnits="userSpaceOnUse" x="0" y="0" width="72" height="72">
<path d="M72 0H0V72H72V0Z" fill="white"/>
</mask>
<g mask="url(#mask0_300_212)">
<path d="M72.0001 48.7266C71.993 44.4182 70.7938 40.1959 68.5352 36.527C66.2766 32.8582 63.0467 29.8859 59.2032 27.9394C58.9599 45.0703 45.0704 58.9598 27.9395 59.2031C29.3747 62.049 31.379 64.5698 33.8282 66.6094C36.2774 68.649 39.1193 70.164 42.1779 71.0605C45.2365 71.957 48.4466 72.2159 51.6093 71.8211C54.7721 71.4264 57.82 70.3864 60.5645 68.7656L71.8946 71.9002L68.7657 60.5686C70.8884 56.9836 72.0057 52.8928 72.0001 48.7266Z" fill="#D9FF43"/>
<path d="M54.9844 27.4922C54.9844 12.3328 42.6516 0 27.4922 0C12.3328 0 1.72948e-05 12.3328 1.72948e-05 27.4922C-0.00550446 32.4078 1.31128 37.2344 3.81236 41.4661L0.101267 54.8831L13.5183 51.172C17.75 53.6731 22.5766 54.9899 27.4922 54.9844C42.6516 54.9844 54.9844 42.6516 54.9844 27.4922ZM23.2735 21.0938H19.0547C19.055 19.6904 19.4052 18.3093 20.0738 17.0754C20.7424 15.8416 21.7082 14.794 22.8838 14.0275C24.0593 13.261 25.4075 12.7998 26.8062 12.6857C28.2049 12.5716 29.6099 12.8082 30.8942 13.374C32.1784 13.9398 33.3012 14.8171 34.1609 15.9262C35.0207 17.0354 35.5902 18.3415 35.8179 19.7262C36.0456 21.111 35.9243 22.5307 35.465 23.8567C35.0057 25.1828 34.2229 26.3734 33.1875 27.3206L29.6016 30.6014V33.8906H25.3828V28.7423L30.337 24.2072C30.772 23.8139 31.1191 23.3334 31.3559 22.7969C31.5926 22.2605 31.7136 21.6801 31.711 21.0938C31.711 19.9749 31.2665 18.9018 30.4753 18.1106C29.6841 17.3195 28.6111 16.875 27.4922 16.875C26.3733 16.875 25.3003 17.3195 24.5091 18.1106C23.7179 18.9018 23.2735 19.9749 23.2735 21.0938ZM25.3828 38.1094H29.6016V42.3281H25.3828V38.1094Z" fill="white"/>
</g>
</svg>
