<svg width="34" height="34" viewBox="0 0 34 34" fill="none" xmlns="http://www.w3.org/2000/svg">
<path fill-rule="evenodd" clip-rule="evenodd" d="M10.9541 8.45404C7.54857 6.21327 5.71048 0.350586 13.5236 0.350586C21.4111 0.350586 19.4415 6.25466 16.0272 8.47758L16.0177 8.48378C15.2284 8.99564 14.3625 9.31065 13.5236 9.31065C13.4522 9.31065 13.3807 9.30845 13.3092 9.30416C12.5054 9.25577 11.6928 8.94014 10.9541 8.45404ZM13.0223 18.6028H11.731C11.349 18.6028 11.1085 18.7419 10.955 18.9184C10.7897 19.1082 10.6914 19.3828 10.6914 19.6813C10.6914 19.9798 10.7897 20.2544 10.955 20.4442C11.1085 20.6207 11.349 20.7598 11.731 20.7598H13.0223V18.6028ZM14.3535 24.2442V22.0872H15.6448C16.0268 22.0872 16.2673 22.2263 16.4209 22.4027C16.5861 22.5926 16.6844 22.8672 16.6844 23.1657C16.6844 23.4642 16.5861 23.7388 16.4209 23.9286C16.2673 24.1051 16.0268 24.2442 15.6448 24.2442H14.3535ZM13.5229 10.6382C12.0539 10.6382 10.6648 9.97418 9.57083 9.08634C0.665138 13.9857 -5.81147 33.5362 13.479 33.5362C16.8464 33.5362 19.4269 32.9475 21.3461 31.9489V18.9345C21.3461 17.4945 22.4965 16.3222 23.9314 16.2808C22.3243 13.227 19.9516 10.564 17.3975 9.1235C16.3163 9.989 14.954 10.6382 13.5229 10.6382ZM14.3534 16.6115C14.3534 16.245 14.0552 15.9478 13.6874 15.9478C13.3196 15.9478 13.0214 16.245 13.0214 16.6115V17.2752H11.7301C10.975 17.2752 10.3627 17.5717 9.94777 18.0485C9.54449 18.512 9.35855 19.1086 9.35855 19.6812C9.35855 20.2538 9.54449 20.8503 9.94777 21.3138C10.3627 21.7907 10.975 22.0871 11.7301 22.0871H13.0214V24.2442H10.5153C10.1475 24.2442 9.84937 24.5413 9.84937 24.9079C9.84937 25.2744 10.1475 25.5716 10.5153 25.5716H13.0214V26.2353C13.0214 26.6019 13.3196 26.899 13.6874 26.899C14.0552 26.899 14.3534 26.6019 14.3534 26.2353V25.5716H15.6447C16.3998 25.5716 17.012 25.2751 17.427 24.7983C17.8303 24.3348 18.0162 23.7383 18.0162 23.1656C18.0162 22.593 17.8303 21.9965 17.427 21.533C17.012 21.0561 16.3998 20.7597 15.6447 20.7597H14.3534V18.6027H16.6193C16.9871 18.6027 17.2853 18.3055 17.2853 17.9389C17.2853 17.5724 16.9871 17.2752 16.6193 17.2752H14.3534V16.6115ZM32.6674 17.6071H24.0097C23.2741 17.6071 22.6777 18.2014 22.6777 18.9345V31.9718C22.6777 33.2499 24.1697 33.9518 25.1598 33.1396C25.7109 32.6874 26.5038 32.6791 27.0642 33.1197L27.2663 33.2788C27.8951 33.773 28.782 33.773 29.4107 33.2788L29.5759 33.149C30.15 32.6974 30.9685 32.7297 31.5049 33.2249C32.4556 34.1026 33.9993 33.4303 33.9993 32.139V18.9345C33.9993 18.2014 33.4029 17.6071 32.6674 17.6071ZM27.3396 23.2486C27.3396 23.7984 26.8923 24.2442 26.3406 24.2442C25.7889 24.2442 25.3416 23.7984 25.3416 23.2486C25.3416 22.6988 25.7889 22.253 26.3406 22.253C26.8923 22.253 27.3396 22.6988 27.3396 23.2486ZM30.3365 28.2264C30.8882 28.2264 31.3354 27.7807 31.3354 27.2308C31.3354 26.681 30.8882 26.2353 30.3365 26.2353C29.7847 26.2353 29.3375 26.681 29.3375 27.2308C29.3375 27.7807 29.7847 28.2264 30.3365 28.2264ZM31.1639 22.4239C30.9039 22.1647 30.4823 22.1647 30.2222 22.4239L25.513 27.117C25.253 27.3762 25.253 27.7964 25.513 28.0556C25.7731 28.3148 26.1948 28.3148 26.4548 28.0556L31.1639 23.3625C31.424 23.1033 31.424 22.6831 31.1639 22.4239Z" fill="url(#paint0_linear_1270_436)"/>
<defs>
<linearGradient id="paint0_linear_1270_436" x1="17.4742" y1="2.70661" x2="17.4742" y2="33.1403" gradientUnits="userSpaceOnUse">
<stop stop-color="#00F1B5"/>
<stop offset="0.985" stop-color="#D9FF43"/>
</linearGradient>
</defs>
</svg>
