<svg width="17" height="16" viewBox="0 0 17 16" fill="none" xmlns="http://www.w3.org/2000/svg">
<path d="M6.44922 6.1875C4.85547 7.78125 4.76172 10.3438 6.16797 12.0312C6.35547 12.2812 6.23047 12.1562 8.79297 14.7188C10.5117 16.4375 13.293 16.4375 14.9805 14.7188C16.6992 13.0312 16.6992 10.25 14.9805 8.53125C13.9805 7.53125 13.3867 6.9375 13.0117 6.5625C12.793 6.34375 12.3867 6.5 12.3867 6.8125C12.3555 7.21875 12.3242 7.625 12.2305 8C12.1992 8.125 12.2305 8.25 12.3242 8.34375L13.7617 9.78125C14.793 10.8125 14.793 12.4688 13.7617 13.5C12.7305 14.5312 11.0742 14.5312 10.043 13.5L7.69922 11.1562C6.66797 10.125 6.66797 8.46875 7.69922 7.4375C7.88672 7.21875 8.13672 7.0625 8.41797 6.9375C8.54297 6.84375 8.63672 6.6875 8.60547 6.53125C8.57422 6.1875 8.41797 5.84375 8.13672 5.59375L8.01172 5.46875C7.88672 5.34375 7.73047 5.3125 7.57422 5.375C7.16797 5.59375 6.79297 5.84375 6.44922 6.1875ZM1.57422 1.3125C-0.144531 3 -0.144531 5.78125 1.57422 7.5C2.57422 8.5 3.16797 9.09375 3.54297 9.46875C3.76172 9.6875 4.16797 9.53125 4.16797 9.21875C4.19922 8.8125 4.23047 8.40625 4.32422 8.03125C4.35547 7.90625 4.32422 7.78125 4.23047 7.6875L2.79297 6.25C1.76172 5.21875 1.76172 3.5625 2.79297 2.53125C3.82422 1.5 5.48047 1.5 6.51172 2.53125L8.85547 4.875C9.88672 5.90625 9.88672 7.5625 8.85547 8.59375C8.66797 8.8125 8.41797 8.96875 8.13672 9.09375C8.01172 9.1875 7.91797 9.34375 7.94922 9.5C7.98047 9.84375 8.13672 10.1875 8.41797 10.4375L8.54297 10.5625C8.66797 10.6875 8.82422 10.7188 8.98047 10.6562C9.38672 10.4375 9.76172 10.1875 10.1055 9.84375C11.6992 8.25 11.793 5.6875 10.3867 4C10.1992 3.75 10.3242 3.875 7.76172 1.3125C6.04297 -0.40625 3.26172 -0.40625 1.57422 1.3125Z" fill="#012A2B"/>
</svg>
