<svg width="39" height="39" viewBox="0 0 39 39" fill="none" xmlns="http://www.w3.org/2000/svg">
<path d="M24.9517 32.5485C32.1582 32.5485 38.0001 26.7065 38.0001 19.5001C38.0001 12.2936 32.1582 6.45166 24.9517 6.45166C17.7453 6.45166 11.9033 12.2936 11.9033 19.5001C11.9033 26.7065 17.7453 32.5485 24.9517 32.5485Z" stroke="#D9FF43" stroke-width="2" stroke-miterlimit="10" stroke-linecap="round" stroke-linejoin="round"/>
<path d="M26.6938 24.7888C26.2479 24.3429 25.6319 24.0669 24.9519 24.0669C24.2718 24.0669 23.656 24.3429 23.21 24.7888" stroke="#D9FF43" stroke-width="2" stroke-miterlimit="10" stroke-linecap="round" stroke-linejoin="round"/>
<path d="M30.1786 21.304C28.8416 19.9662 26.9938 19.1392 24.9521 19.1392C22.9104 19.1392 21.0626 19.9662 19.7256 21.304" stroke="#D9FF43" stroke-width="2" stroke-miterlimit="10" stroke-linecap="round" stroke-linejoin="round"/>
<path d="M33.6624 17.8201C31.4343 15.5903 28.3546 14.2114 24.9521 14.2114C21.5495 14.2114 18.4698 15.5903 16.2417 17.8201" stroke="#D9FF43" stroke-width="2" stroke-miterlimit="10" stroke-linecap="round" stroke-linejoin="round"/>
<path d="M22.7578 6.63521V4.01143C22.7578 2.34873 21.4099 1 19.7464 1H4.01143C2.34797 1 1 2.34873 1 4.01143V33.3942V34.9886C1 36.6513 2.34797 38 4.01143 38H19.7464C21.4099 38 22.7578 36.6513 22.7578 34.9886V33.3942V32.3648" stroke="#D9FF43" stroke-width="2" stroke-miterlimit="10" stroke-linecap="round" stroke-linejoin="round"/>
<path d="M13.6386 5.62402H10.1191" stroke="#D9FF43" stroke-width="2" stroke-miterlimit="10" stroke-linecap="round" stroke-linejoin="round"/>
<path d="M22.7578 33.394H1" stroke="#D9FF43" stroke-width="2" stroke-miterlimit="10" stroke-linecap="round" stroke-linejoin="round"/>
</svg>
