<svg width="22" height="24" viewBox="0 0 22 24" fill="none" xmlns="http://www.w3.org/2000/svg">
<path d="M16.635 16.2468C17.4166 15.7335 18.4433 16.2935 18.4433 17.2268V18.7318C18.4433 20.2135 17.2883 21.8002 15.9 22.2668L12.1783 23.5035C11.525 23.7252 10.4633 23.7252 9.82164 23.5035L6.09997 22.2668C4.69997 21.8002 3.55664 20.2135 3.55664 18.7318V17.2152C3.55664 16.2935 4.58331 15.7335 5.35331 16.2352L7.75664 17.7985C8.67831 18.4168 9.84497 18.7202 11.0116 18.7202C12.1783 18.7202 13.345 18.4168 14.2666 17.7985L16.635 16.2468Z" fill="#D9FF43"/>
<path d="M20.3098 5.53682L13.3214 0.951816C12.0614 0.123483 9.98478 0.123483 8.72478 0.951816L1.70145 5.53682C-0.550221 6.99515 -0.550221 10.2968 1.70145 11.7668L3.56811 12.9801L8.72478 16.3401C9.98478 17.1685 12.0614 17.1685 13.3214 16.3401L18.4431 12.9801L20.0414 11.9301V15.5001C20.0414 15.9785 20.4381 16.3751 20.9164 16.3751C21.3948 16.3751 21.7914 15.9785 21.7914 15.5001V9.76015C22.2581 8.25515 21.7798 6.50515 20.3098 5.53682Z" fill="#D9FF43"/>
</svg>
