<svg width="35" height="38" viewBox="0 0 35 38" fill="none" xmlns="http://www.w3.org/2000/svg">
<path d="M18.9457 2.37667V1.8757C18.9457 1.09773 18.315 0.467041 17.537 0.467041C16.759 0.467041 16.1284 1.09774 16.1284 1.8757V2.34718C16.9948 2.1527 17.932 2.13507 18.9457 2.37667Z" fill="#020202"/>
<path d="M15.904 34.2456C15.6623 34.4872 15.3323 34.6345 14.9669 34.6345C14.2301 34.6345 13.6407 34.0392 13.6407 33.3084V32.4302C13.6407 32.0707 13.4934 31.7465 13.2576 31.5107C13.0219 31.275 12.7036 31.1335 12.344 31.1335C11.625 31.1335 11.0474 31.7111 11.0474 32.4302V33.3084C11.0474 34.387 11.4894 35.3713 12.1967 36.0785C12.904 36.7917 13.8824 37.2279 14.9669 37.2279C15.9924 37.2279 16.9178 36.8389 17.6132 36.1964C16.9708 35.5952 16.4344 34.8821 16.0337 34.0982C15.9924 34.1512 15.9511 34.1984 15.904 34.2456Z" fill="#020202"/>
<path d="M16.2925 19.1922V26.2119C16.9467 25.151 17.8308 24.2551 18.8858 23.6009V19.145C18.043 18.8503 17.1353 18.8739 16.2925 19.1922Z" fill="#020202"/>
<path d="M12.4794 4.23315C11.9902 4.3687 11.5069 4.52195 11.0354 4.69873C5.24164 6.88543 1.59918 11.689 0.178711 18.9857C2.07068 17.3531 4.63458 17.3884 6.18465 19.4395C6.84481 13.5456 8.80748 7.23315 12.4794 4.23315Z" fill="#020202"/>
<path d="M13.4052 19.1507C13.6881 11.3767 14.4484 6.23714 15.6685 3.87956C15.6744 3.87366 15.6803 3.86776 15.6803 3.85596C10.582 5.25872 8.19492 13.1684 7.42871 18.9798C9.30298 17.3708 11.6723 17.247 13.4052 19.1507Z" fill="#020202"/>
<path d="M27.8562 19.0095C26.9367 12.3552 24.6676 5.31195 19.2451 3.89746C20.8778 6.85617 21.473 15.756 21.6557 19.4633C23.6538 17.2472 26.035 17.2826 27.8562 19.0095Z" fill="#020202"/>
<path d="M23.0117 4.54565C26.719 7.66948 28.3929 13.7933 29.112 19.4987C30.0373 18.426 31.2279 17.7894 32.442 17.7835H32.4656C33.3792 17.7835 34.2397 18.1254 35 18.7678C33.1906 11.1705 29.165 6.39644 23.0117 4.54565Z" fill="#020202"/>
<path d="M20.4539 18.9447C20.3435 16.8514 19.5409 3.69261 17.419 3.65194C15.3604 3.61249 14.6607 17.0517 14.5835 19.1333C16.3739 17.3226 18.8594 17.3503 20.4539 18.9447Z" fill="#020202"/>
<path d="M23.1293 23.5569C19.3552 23.5569 16.2939 26.6181 16.2939 30.3922C16.2939 34.1663 19.3552 37.2276 23.1293 37.2276C26.9034 37.2276 29.9646 34.1663 29.9646 30.3922C29.9646 26.6181 26.9034 23.5569 23.1293 23.5569ZM23.1292 29.8028C24.255 29.8028 25.1708 30.7186 25.1708 31.8444C25.1708 32.764 24.5559 33.5342 23.7186 33.7889V34.2739C23.7186 34.5997 23.4547 34.8633 23.1292 34.8633C22.8037 34.8633 22.5398 34.5997 22.5398 34.2739V33.7889C21.7027 33.5341 21.0879 32.7639 21.0879 31.8444C21.0879 31.5186 21.3518 31.255 21.6773 31.255C22.0027 31.255 22.2667 31.5186 22.2667 31.8444C22.2667 32.3204 22.6534 32.7072 23.1292 32.7072C23.6049 32.7072 23.992 32.3204 23.992 31.8444C23.992 31.3684 23.6049 30.9816 23.1292 30.9816C22.0036 30.9816 21.0879 30.0659 21.0879 28.94C21.0879 28.0209 21.7027 27.2509 22.5398 26.9961V26.5105C22.5398 26.1847 22.8037 25.9211 23.1292 25.9211C23.4547 25.9211 23.7186 26.1847 23.7186 26.5105V26.996C24.5559 27.2508 25.1708 28.0209 25.1708 28.94C25.1708 29.2658 24.9068 29.5294 24.5814 29.5294C24.2559 29.5294 23.992 29.2658 23.992 28.94C23.992 28.4646 23.6049 28.0778 23.1292 28.0778C22.6534 28.0778 22.2667 28.4646 22.2667 28.94C22.2667 29.416 22.6534 29.8028 23.1292 29.8028Z" fill="#FF6100"/>
</svg>
