<svg width="38" height="38" viewBox="0 0 38 38" fill="none" xmlns="http://www.w3.org/2000/svg">
<g clip-path="url(#clip0_1192_254)">
<path d="M20.5004 32C11.3004 30.8 7.00036 22.1667 6.00036 18C0.000359058 20 1.16703 27.5 2.50036 31L1.50036 36.5C3.33369 36 7.10036 35 7.50036 35C15.5004 37 19.5004 33.8333 20.5004 32Z" fill="#7BDAF8"/>
<path d="M37.8632 29.8244L35.6562 23.4013C36.72 21.2265 37.2822 18.8078 37.286 16.3743C37.2926 12.1428 35.6554 8.14192 32.6761 5.1086C29.6962 2.07468 25.7254 0.366825 21.4949 0.299806C17.1082 0.230485 12.9849 1.89907 9.885 4.9989C6.89591 7.98792 5.23801 11.9284 5.18553 16.1393C2.23949 18.3574 0.500616 21.8156 0.506331 25.5094C0.509077 27.238 0.898132 28.9562 1.63535 30.51L0.115123 34.9341C-0.146202 35.6946 0.0446892 36.5203 0.613354 37.089C1.01354 37.4893 1.54116 37.7023 2.08378 37.7023C2.31208 37.7023 2.54305 37.6646 2.7683 37.5872L7.19241 36.067C8.74619 36.8042 10.4644 37.1933 12.193 37.196C12.1992 37.196 12.2052 37.196 12.2114 37.196C15.9602 37.1959 19.4448 35.4122 21.6548 32.3939C23.9546 32.3334 26.2301 31.7766 28.2872 30.7703L34.7104 32.9774C34.978 33.0694 35.2525 33.1142 35.5238 33.1142C36.1686 33.1142 36.7956 32.861 37.2713 32.3852C37.9469 31.7095 38.1738 30.7282 37.8632 29.8244ZM12.2112 34.9341C12.2064 34.9341 12.2013 34.9341 12.1965 34.9341C10.6665 34.9318 9.14719 34.5546 7.80301 33.8435C7.52662 33.6973 7.20214 33.672 6.9066 33.7736L2.37012 35.3324L3.92893 30.796C4.03047 30.5004 4.00523 30.1759 3.85902 29.8996C3.14786 28.5553 2.77067 27.0361 2.7683 25.506C2.76451 23.045 3.72186 20.7124 5.39602 18.9657C5.94286 22.2993 7.53167 25.3712 9.9944 27.7902C12.4389 30.1912 15.5118 31.72 18.8273 32.2198C17.0766 33.9453 14.7167 34.9341 12.2112 34.9341ZM35.6717 30.7858C35.6073 30.8502 35.531 30.8677 35.4452 30.8381L28.569 28.4753C28.4496 28.4343 28.3254 28.4139 28.2016 28.4139C28.0191 28.4139 27.8372 28.4581 27.6727 28.5452C25.7094 29.5838 23.4908 30.1347 21.2567 30.1381C21.2493 30.1381 21.2426 30.1381 21.2353 30.1381C13.7494 30.1381 7.56596 24.0571 7.44736 16.5729C7.38761 12.8037 8.82137 9.26129 11.4844 6.59824C14.1475 3.9352 17.6905 2.50195 21.4591 2.56133C28.9505 2.68015 35.0357 8.87498 35.0241 16.3707C35.0206 18.6049 34.4699 20.8235 33.4313 22.7866C33.2851 23.063 33.2599 23.3874 33.3614 23.6831L35.7242 30.5593C35.7536 30.6454 35.736 30.7216 35.6717 30.7858Z" fill="#01040D"/>
<path d="M27.9723 10.3544H14.4972C13.8725 10.3544 13.3662 10.8608 13.3662 11.4853C13.3662 12.1099 13.8726 12.6163 14.4972 12.6163H27.9723C28.597 12.6163 29.1033 12.1099 29.1033 11.4853C29.1033 10.8608 28.597 10.3544 27.9723 10.3544Z" fill="#2047F4"/>
<path d="M27.9723 15.0059H14.4972C13.8725 15.0059 13.3662 15.5123 13.3662 16.1368C13.3662 16.7614 13.8726 17.2678 14.4972 17.2678H27.9723C28.597 17.2678 29.1033 16.7614 29.1033 16.1368C29.1033 15.5123 28.597 15.0059 27.9723 15.0059Z" fill="#2047F4"/>
<path d="M22.7854 19.657H14.4972C13.8725 19.657 13.3662 20.1634 13.3662 20.7879C13.3662 21.4126 13.8726 21.9189 14.4972 21.9189H22.7853C23.41 21.9189 23.9163 21.4125 23.9163 20.7879C23.9163 20.1634 23.41 19.657 22.7854 19.657Z" fill="#2047F4"/>
</g>
<defs>
<clipPath id="clip0_1192_254">
<rect width="38" height="38" fill="white"/>
</clipPath>
</defs>
</svg>
