<svg width="32" height="32" viewBox="0 0 32 32" fill="none" xmlns="http://www.w3.org/2000/svg">
<path d="M11.9999 4.50049C4.39986 4.50049 2.83319 7.50049 2.99986 9.00049C14.9998 17.0005 28.9998 9.40049 28.9998 9.00049C28.5998 5.80049 24.8331 4.66715 22.9998 4.50049H11.9999Z" fill="#00D999"/>
<path d="M2.66699 11.3339C2.66699 6.66724 5.33366 4.66724 9.33366 4.66724H22.667C26.667 4.66724 29.3337 6.66724 29.3337 11.3339V15.3339" stroke="#003D2B" stroke-width="1.5" stroke-miterlimit="10" stroke-linecap="round" stroke-linejoin="round"/>
<path d="M16.0003 27.3339H9.33366C5.33366 27.3339 2.66699 25.3339 2.66699 20.6672V16.6272" stroke="#003D2B" stroke-width="1.5" stroke-miterlimit="10" stroke-linecap="round" stroke-linejoin="round"/>
<path d="M22.6663 12.0005L18.493 15.3338C17.1197 16.4272 14.8663 16.4272 13.493 15.3338L9.33301 12.0005" fill="#00D999"/>
<path d="M22.6663 12.0005L18.493 15.3338C17.1197 16.4272 14.8663 16.4272 13.493 15.3338L9.33301 12.0005" stroke="#003D2B" stroke-width="1.5" stroke-miterlimit="10" stroke-linecap="round" stroke-linejoin="round"/>
<path d="M25.613 19.6937L20.8931 24.4137C20.7064 24.6004 20.5331 24.947 20.4931 25.2004L20.2397 27.0004C20.1464 27.6537 20.5997 28.1071 21.2531 28.0137L23.0531 27.7604C23.3064 27.7204 23.6664 27.547 23.8397 27.3604L28.5597 22.6404C29.3731 21.8271 29.7597 20.8804 28.5597 19.6804C27.3731 18.4937 26.4264 18.8804 25.613 19.6937Z" fill="#00D999" stroke="#003D2B" stroke-width="1.5" stroke-miterlimit="10" stroke-linecap="round" stroke-linejoin="round"/>
<path d="M24.9331 20.3738C25.3331 21.8138 26.4531 22.9338 27.8931 23.3338L24.9331 20.3738Z" fill="#00D999"/>
<path d="M24.9331 20.3738C25.3331 21.8138 26.4531 22.9338 27.8931 23.3338" stroke="#003D2B" stroke-width="1.5" stroke-miterlimit="10" stroke-linecap="round" stroke-linejoin="round"/>
</svg>
