<svg width="73" height="73" viewBox="0 0 73 73" fill="none" xmlns="http://www.w3.org/2000/svg">
<path d="M59.6074 44H11.6074V64L18.1074 60.5L23.6074 64.5L29.6074 60.5L36.1074 64L41.6074 60.5L44.1074 62L59.6074 64.5V44Z" fill="#7BDAF8"/>
<path d="M58.4189 71.3843C65.9183 71.0442 71.7222 64.689 71.3821 57.1895C71.0421 49.6901 64.6869 43.8862 57.1874 44.2263C49.6879 44.5664 43.8841 50.9216 44.2241 58.421C44.5642 65.9205 50.9194 71.7243 58.4189 71.3843Z" fill="#2047F4" stroke="black" stroke-width="2" stroke-miterlimit="2.6131" stroke-linecap="round" stroke-linejoin="round"/>
<path d="M1.10742 6.5V17.5H11.6074V7C11.7741 5 11.0074 1 6.60742 1C2.20742 1 1.10742 4.66667 1.10742 6.5Z" fill="#7BDAF8"/>
<path d="M53.2522 58.9184L51.6866 57.803L50.5713 59.3687" stroke="black" stroke-width="2" stroke-miterlimit="22.9256" stroke-linecap="round" stroke-linejoin="round"/>
<path d="M54.7441 52.5057C55.674 51.9689 56.7287 51.6863 57.8025 51.6863C61.0663 51.6863 63.7552 54.2488 63.9121 57.5089" stroke="black" stroke-width="2" stroke-miterlimit="2.6131" stroke-linecap="round" stroke-linejoin="round"/>
<path d="M62.3535 56.6876L63.9191 57.8029L65.0344 56.2373" stroke="black" stroke-width="2" stroke-miterlimit="22.9256" stroke-linecap="round" stroke-linejoin="round"/>
<path d="M60.8616 63.1C59.9317 63.6369 58.8769 63.9195 57.8032 63.9195C54.5593 63.9195 51.8796 61.3869 51.6963 58.1482" stroke="black" stroke-width="2" stroke-miterlimit="2.6131" stroke-linecap="round" stroke-linejoin="round"/>
<path d="M11.4703 17.6657H1V6.36549C1 3.41447 3.41318 1 6.36263 1M6.36263 1C9.31208 1 11.7253 3.4149 11.7253 6.36549V31.0455M6.36263 1H50.6819C55.6204 1 59.6627 5.18523 59.6627 10.3002V43.6927M11.7251 43.9227V64.2682L17.7173 60.4222L23.7095 64.2682L29.7017 60.4222L35.6939 64.2682L41.686 60.4222L44.8012 62.4216" stroke="black" stroke-width="2" stroke-miterlimit="22.9256" stroke-linecap="round" stroke-linejoin="round"/>
<path d="M21.8436 36.786L22.4744 37.0473C23.6592 37.5379 25.0301 36.9703 25.5207 35.7853C26.0115 34.6006 25.4436 33.2298 24.2589 32.739L23.6279 32.4777L22.9969 32.2165C21.8122 31.7257 21.2445 30.355 21.7351 29.1702C22.2259 27.9853 23.5967 27.4176 24.7814 27.9082L25.4123 28.1695" stroke="black" stroke-width="2" stroke-miterlimit="22.9256" stroke-linecap="round" stroke-linejoin="round"/>
<path d="M23.6279 37.6108V38.9164" stroke="black" stroke-width="2" stroke-miterlimit="22.9256" stroke-linecap="round" stroke-linejoin="round"/>
<path d="M23.6279 26.0393V27.462" stroke="black" stroke-width="2" stroke-miterlimit="22.9256" stroke-linecap="round" stroke-linejoin="round"/>
<path d="M33.2021 39.6316H49.829" stroke="black" stroke-width="2" stroke-miterlimit="22.9256" stroke-linecap="round" stroke-linejoin="round"/>
<path d="M49.829 25.3237H33.2021M33.2021 32.4777H49.829" stroke="black" stroke-width="2" stroke-miterlimit="22.9256" stroke-linecap="round" stroke-linejoin="round"/>
<path d="M52.1514 8.86938H19.2373V18.1696H52.1514V8.86938Z" fill="#2047F4" stroke="black" stroke-width="2" stroke-miterlimit="22.9256" stroke-linecap="round" stroke-linejoin="round"/>
<path d="M11.7246 37.4841H11.7261" stroke="black" stroke-width="2" stroke-miterlimit="2.6131" stroke-linecap="round" stroke-linejoin="round"/>
</svg>
