<svg width="16" height="20" viewBox="0 0 16 20" fill="none" xmlns="http://www.w3.org/2000/svg">
<path fill-rule="evenodd" clip-rule="evenodd" d="M8.00065 2.41675C6.11368 2.41675 4.58398 3.94644 4.58398 5.83341C4.58398 7.72039 6.11368 9.25008 8.00065 9.25008C9.88762 9.25008 11.4173 7.72039 11.4173 5.83341C11.4173 3.94644 9.88762 2.41675 8.00065 2.41675ZM3.08398 5.83341C3.08398 3.11801 5.28525 0.916748 8.00065 0.916748C10.7161 0.916748 12.9173 3.11801 12.9173 5.83341C12.9173 8.54881 10.7161 10.7501 8.00065 10.7501C5.28525 10.7501 3.08398 8.54881 3.08398 5.83341Z" fill="#012A2B"/>
<path fill-rule="evenodd" clip-rule="evenodd" d="M0.0917969 18.3333C0.0917969 14.5575 3.78725 11.75 8.00013 11.75C12.213 11.75 15.9085 14.5575 15.9085 18.3333C15.9085 18.7475 15.5727 19.0833 15.1585 19.0833C14.7442 19.0833 14.4085 18.7475 14.4085 18.3333C14.4085 15.6592 11.6873 13.25 8.00013 13.25C4.313 13.25 1.5918 15.6592 1.5918 18.3333C1.5918 18.7475 1.25601 19.0833 0.841797 19.0833C0.427583 19.0833 0.0917969 18.7475 0.0917969 18.3333Z" fill="#012A2B"/>
</svg>
