<svg width="24" height="24" viewBox="0 0 24 24" fill="none" xmlns="http://www.w3.org/2000/svg">
<path d="M22.4883 9.3285C22.0917 9.16516 21.5667 9.0835 20.9133 9.0835H14.7533C12.7233 9.0835 12 9.80683 12 11.8602V20.8902C12 21.5668 12.0817 22.0918 12.2567 22.5002C12.6183 23.3402 13.3883 23.6668 14.7533 23.6668H20.9133C22.9433 23.6668 23.6667 22.9318 23.6667 20.8902V11.8602C23.6667 10.4718 23.34 9.69016 22.4883 9.3285ZM19 21.0418H16.6667C16.6433 21.0418 16.6083 21.0418 16.585 21.0302C16.41 21.0185 16.2583 20.9602 16.13 20.8435C15.92 20.6918 15.7917 20.4468 15.7917 20.1668C15.7917 19.6885 16.1883 19.2918 16.6667 19.2918H19C19.4783 19.2918 19.875 19.6885 19.875 20.1668C19.875 20.6452 19.4783 21.0418 19 21.0418Z" fill="#D9FF43"/>
<path d="M22.4881 5.22183V6.16683C22.4881 6.8085 21.9631 7.3335 21.3214 7.3335H14.7531C11.7664 7.3335 10.2497 8.86183 10.2497 11.8602V22.5002C10.2497 23.1418 9.72473 23.6668 9.08306 23.6668H6.80806C6.34139 23.6668 5.96806 23.2935 5.96806 22.8385C5.96806 22.3718 6.34139 22.0102 6.80806 22.0102H9.08306V17.5418H4.99973C2.40973 17.4135 0.344727 15.2785 0.344727 12.6535V5.22183C0.344727 2.52683 2.53806 0.333496 5.24473 0.333496H17.5997C20.2947 0.333496 22.4881 2.52683 22.4881 5.22183Z" fill="#D9FF43"/>
</svg>
