<svg width="85" height="84" viewBox="0 0 85 84" fill="none" xmlns="http://www.w3.org/2000/svg">
<path d="M84.284 66.2142C83.7267 67.5816 82.6677 68.6541 81.2744 69.244L78.6549 70.4506C78.5155 70.531 78.3483 70.5578 78.1811 70.5578C77.791 70.5578 77.4008 70.3433 77.2058 69.968C76.955 69.4585 77.1779 68.8418 77.7074 68.5737L80.3269 67.3671C80.3269 67.3671 80.3547 67.3671 80.3547 67.3403C82.1382 66.5896 82.9743 64.5518 82.1661 62.8358C81.3858 61.1198 79.2679 60.3154 77.4844 61.093H77.4566L58.0889 68.7346C57.2808 69.1636 56.3333 69.4049 55.3301 69.4049H38.0525C37.9968 69.4049 37.941 69.4049 37.8853 69.4049C36.8821 69.4049 36.1018 70.1825 36.1018 71.1209C36.1018 71.684 35.6281 72.1666 35.015 72.1666C34.4298 72.1666 33.9282 71.7108 33.9282 71.1209C33.9282 69.0831 35.6002 67.4208 37.6902 67.3135C37.746 67.3135 37.8296 67.2867 37.8853 67.2867H55.3301C55.971 67.2867 56.5563 67.1258 57.0857 66.8577C57.0857 66.8577 57.1136 66.8577 57.1136 66.8309C58.2283 66.2142 58.925 65.0345 58.925 63.6134C58.925 61.4952 57.3644 59.9133 55.3301 59.9133L43.3751 59.8864C43.2079 59.8864 43.0129 59.8328 42.8735 59.7524L30.4727 53.4246H14.0868C13.5016 53.4246 13 52.9688 13 52.3789C13 51.8159 13.4737 51.3333 14.0868 51.3333H30.7513C30.9185 51.3333 31.1136 51.3869 31.2529 51.4673L43.6538 57.7951L55.3301 57.8219C58.5627 57.8219 61.0986 60.3691 61.0986 63.5866C61.0986 64.2033 61.015 64.7931 60.8478 65.3294L76.6484 59.0821C78.0418 58.4922 79.5745 58.4654 80.9957 59.0016C82.4169 59.5379 83.5316 60.5568 84.1447 61.8974C84.7856 63.3453 84.8413 64.8468 84.284 66.2142Z" fill="#003D2B"/>
<path d="M58.833 63C58.833 60.9211 57.2774 59.3684 55.2497 59.3684L43.333 59.3421C43.1663 59.3421 42.9719 59.2895 42.833 59.2105L30.4719 53H16.333V56.6579H30.2497L43.2497 62.9737H58.833V63Z" fill="#00D999"/>
<path d="M72.8987 71.9106C73.1479 72.4162 72.9264 73.0549 72.4003 73.2945L53.3785 82.0236C52.9632 82.2365 49.779 83.8333 44.3244 83.8333C41.1403 83.8333 37.2086 82.4228 37.0424 82.3695H37.0147L20.0418 75.7961H16.5808C15.9994 75.7961 15.501 75.3437 15.501 74.7582C15.501 74.1727 15.9717 73.7203 16.5808 73.7203H20.2357C20.3741 73.7203 20.5125 73.7469 20.651 73.8001L37.8177 80.4268C38.0392 80.5066 41.611 81.7574 44.3244 81.7574C49.4468 81.7574 52.3263 80.2139 52.354 80.2139C52.3817 80.2139 52.4094 80.1873 52.4371 80.1873L71.5143 71.4315C71.985 71.192 72.6218 71.4049 72.8987 71.9106Z" fill="#003D2B"/>
<path d="M1.33301 77.8867C1.33301 78.9425 2.20623 79.7818 3.24319 79.7818H14.2677C15.3319 79.7818 16.1779 78.9425 16.1779 77.8867V54.0619C16.1779 53.006 15.3319 52.1667 14.2677 52.1667H3.24319C2.20623 52.1667 1.33301 53.006 1.33301 54.0619V77.8867Z" fill="#00D999"/>
<path fill-rule="evenodd" clip-rule="evenodd" d="M1.33301 77.8867C1.33301 78.9425 2.20623 79.7818 3.24319 79.7818H14.2677C15.3319 79.7818 16.1779 78.9425 16.1779 77.8867V54.0619C16.1779 53.006 15.3319 52.1667 14.2677 52.1667H3.24319C2.20623 52.1667 1.33301 53.006 1.33301 54.0619V77.8867Z" stroke="#003D2B" stroke-width="2"/>
<path d="M57.9067 41.8276C47.8125 47.8164 34.6986 44.6022 28.6309 34.7125C22.5632 24.8228 25.8068 11.9113 35.8729 5.95C45.9391 -0.0112857 59.0811 3.1754 65.1487 13.0651C69.4548 20.0978 69.2032 28.971 64.4776 35.7565C63.3033 37.4322 65.1767 38.7234 66.1274 37.3223C73.705 26.8008 71.1884 12.241 60.4791 4.79621C49.7699 -2.64854 34.9502 -0.176116 27.3726 10.3454C19.795 20.867 22.3116 35.4268 33.0209 42.8715C40.906 48.3658 51.4196 48.6131 59.5564 43.4759C60.6469 42.7617 60.0038 40.6464 57.9067 41.8276Z" fill="#003D2B"/>
<path d="M50.6185 34.3889C52.3388 34.3333 53.9772 33.6111 55.1513 32.3333C55.479 32.0278 55.5882 31.5278 55.4244 31.1111C55.2333 30.6111 54.7964 30.2778 54.2775 30.25C54.0045 30.25 53.7314 30.3889 53.5403 30.6111C52.6392 31.5278 51.3831 32.0278 50.0997 31.9722C48.8709 31.9167 47.6694 31.6944 46.4953 31.3611C45.5123 31.0556 44.5019 30.8889 43.4643 30.8056C43.3005 30.8056 43.1366 30.8333 43.0001 30.8333L42.7543 30.8611L41.7167 30.9722L41.9351 29.9444C42.2628 28.4722 42.4813 26.9444 42.6178 25.4444L42.6451 25.2778C42.6724 24.9444 42.727 24.4722 42.7816 23.9167L42.8636 23.2222L43.5462 23.25C45.7853 23.3056 47.9971 23.3889 50.0997 23.5H50.1816C50.7277 23.5 51.1373 23.0556 51.1373 22.5C51.1373 22.4722 51.1373 22.4444 51.1373 22.4167C51.1919 21.7222 50.7004 21.1111 50.0178 21.0556C48.1337 20.9444 46.2222 20.8611 44.0923 20.8056L43.2185 20.7778L43.3824 19.8889C44.3381 14.9444 45.8126 12.5556 47.8879 12.5556C48.9801 12.6389 49.9905 13.1667 50.6731 14.0278C50.8643 14.25 51.1373 14.3611 51.4104 14.3889C51.9292 14.3611 52.3661 14.0278 52.5573 13.5278C52.7484 13.1111 52.6392 12.6111 52.2842 12.3056C51.2192 11.1667 49.772 10.5278 48.2429 10.5C46.1403 10.5556 44.2016 11.6667 43.0001 13.4444C41.6894 15.4167 40.8702 17.7222 40.6518 20.1111L40.5698 20.7778H39.9145C39.5868 20.7778 39.2591 20.7778 38.9315 20.7778C38.5219 20.7778 38.1123 20.7778 37.73 20.7778H37.4296C36.8016 20.8056 36.3101 21.3333 36.3374 21.9444C36.3374 21.9722 36.3374 22 36.3374 22C36.2828 22.6111 36.747 23.1389 37.3477 23.1944C37.375 23.1944 37.375 23.1944 37.4023 23.1944H37.6754C38.0031 23.1944 38.3307 23.1944 38.6857 23.1944C38.9861 23.1944 39.2591 23.1944 39.5595 23.1944H40.3787L40.3241 24C40.2422 27 39.696 29.9722 38.6857 32.7778C38.4946 33.2222 38.5219 33.7222 38.7676 34.1389C38.9588 34.4444 39.2864 34.6389 39.6687 34.6667C39.9964 34.6667 40.2968 34.5278 40.5152 34.3056C41.4163 33.5278 42.5632 33.1111 43.7374 33.1667C44.9661 33.2222 46.1949 33.4444 47.3964 33.8056C48.4067 34.1111 49.4443 34.3056 50.482 34.3611L50.6185 34.3889Z" fill="#003D2B"/>
</svg>
