<svg width="15" height="15" viewBox="0 0 15 15" fill="none" xmlns="http://www.w3.org/2000/svg">
<path d="M13.6991 4.88751L10.1129 1.30126C9.36078 0.549175 8.3237 0.145425 7.26287 0.200842L3.30453 0.390842C1.7212 0.462092 0.46245 1.72084 0.383284 3.29626L0.193284 7.25459C0.145784 8.31542 0.541617 9.35251 1.2937 10.1046L4.87995 13.6908C6.35245 15.1633 8.74328 15.1633 10.2237 13.6908L13.6991 10.2154C15.1795 8.75084 15.1795 6.36001 13.6991 4.88751ZM5.5212 7.80084C4.27037 7.80084 3.2412 6.77959 3.2412 5.52084C3.2412 4.26209 4.27037 3.24084 5.5212 3.24084C6.77203 3.24084 7.8012 4.26209 7.8012 5.52084C7.8012 6.77959 6.77203 7.80084 5.5212 7.80084ZM11.8783 8.71126L8.71162 11.8779C8.59287 11.9967 8.44245 12.0521 8.29203 12.0521C8.14162 12.0521 7.9912 11.9967 7.87245 11.8779C7.64287 11.6483 7.64287 11.2683 7.87245 11.0388L11.0391 7.87209C11.2687 7.64251 11.6487 7.64251 11.8783 7.87209C12.1079 8.10168 12.1079 8.48167 11.8783 8.71126Z" fill="#012A2B"/>
</svg>
