<svg width="63" height="63" viewBox="0 0 63 63" fill="none" xmlns="http://www.w3.org/2000/svg">
<path d="M61.0955 62.0814H2.03308C1.48971 62.0814 1.04871 61.6404 1.04871 61.097C1.04871 60.5536 1.48971 60.1126 2.03308 60.1126H61.0955C61.6389 60.1126 62.0799 60.5536 62.0799 61.097C62.0799 61.6404 61.6389 62.0814 61.0955 62.0814Z" fill="#D9FF43"/>
<path d="M17.4185 41.7745C15.2195 39.5764 12.3451 38.3833 9.60851 38.4749C6.96349 42.2027 4.34013 52.705 4.03005 53.9729C3.94835 54.3076 4.04679 54.6599 4.28992 54.9031C4.47696 55.0891 4.72797 55.1906 4.98588 55.1906C5.06364 55.1906 5.14239 55.1817 5.22016 55.162C6.48607 54.8519 16.9696 52.2325 20.7063 49.5904C20.8018 46.846 19.6117 43.9677 17.4185 41.7745Z" fill="#D9FF43"/>
<path d="M55.8161 3.37717C54.315 1.87698 52.3206 1.05011 50.1983 1.05011C48.076 1.05011 46.0807 1.87698 44.5805 3.37717L11.3706 36.587C14.053 36.9502 16.7089 38.2802 18.8115 40.3828C20.9122 42.4824 22.2381 45.1412 22.5974 47.8326L55.8161 14.6138C57.3163 13.1126 58.1432 11.1173 58.1432 8.99498C58.1432 6.87268 57.3163 4.87834 55.8161 3.37717Z" fill="#D9FF43"/>
<path d="M54.5281 18.6842L53.1362 20.0761L57.7352 24.6751L46.6187 35.7917C46.2337 36.1766 46.2337 36.7987 46.6187 37.1836C46.8106 37.3755 47.0626 37.472 47.3146 37.472C47.5666 37.472 47.8186 37.3755 48.0105 37.1836L59.823 25.3711C60.2079 24.9862 60.2079 24.3641 59.823 23.9792L54.5281 18.6842Z" fill="#D9FF43"/>
</svg>
