<svg width="32" height="32" viewBox="0 0 32 32" fill="none" xmlns="http://www.w3.org/2000/svg">
<path fill-rule="evenodd" clip-rule="evenodd" d="M4.80877 12.3081V24.3728C4.80877 26.0975 6.21989 27.5086 7.94458 27.5086H11.9605V17.0361C11.9605 16.2248 12.6243 15.561 13.4356 15.561H16.5646C17.1293 15.561 17.6224 15.8826 17.8701 16.3517C19.4623 15.0883 21.4763 14.3334 23.6668 14.3334C24.186 14.3334 24.6951 14.3764 25.1913 14.458V12.3081L26.5202 13.2736C27.5009 13.9843 28.8721 13.7654 29.5828 12.7846C30.2934 11.8039 30.0745 10.4327 29.0938 9.72205L16.3248 0.444917C15.5754 -0.123333 14.5141 -0.163083 13.7132 0.417292L0.906333 9.72205C-0.0743543 10.4327 -0.293292 11.8039 0.417333 12.7846C1.12802 13.7653 2.49914 13.9842 3.47989 13.2736L4.80877 12.3081ZM23.6667 15.3333C28.2691 15.3333 32 19.0642 32 23.6666C32 28.269 28.2691 32 23.6667 32C19.0643 32 15.3334 28.2691 15.3334 23.6667C15.3334 19.0643 19.0643 15.3333 23.6667 15.3333ZM23.2246 20.1495C22.533 20.2887 21.8806 20.7611 21.9181 21.5353C21.9625 22.4496 23.0774 22.7149 23.8047 22.8342C24.5262 22.9527 25.2725 23.1445 25.9033 23.5253C26.7109 24.0129 27.1977 24.7118 27.3122 25.6544C27.4292 26.6177 27.0566 27.4681 26.2856 28.0531C25.8117 28.4127 25.2298 28.6401 24.6492 28.7568L24.4793 28.7909V29.2979C24.4793 29.7468 24.1153 30.1108 23.6664 30.1108C23.2175 30.1108 22.8534 29.7469 22.8534 29.2979V28.7756L22.6893 28.7378C22.2313 28.6326 21.7889 28.4521 21.3972 28.1912C20.7027 27.7287 20.2253 27.0654 20.0239 26.2542C19.9723 26.0459 20.0049 25.8282 20.1152 25.6441C20.2269 25.4576 20.4066 25.3247 20.6178 25.2728C20.8265 25.2215 21.0444 25.2544 21.2287 25.3652C21.4146 25.4769 21.5469 25.6561 21.5991 25.8666C21.871 26.9646 23.0809 27.3255 24.0861 27.2035C24.7521 27.1226 25.7304 26.7975 25.7108 25.9732C25.6848 24.8793 24.4091 24.5769 23.5443 24.4349C22.8511 24.3211 22.1306 24.1185 21.5376 23.7314C20.7721 23.2317 20.3431 22.5299 20.2986 21.6117C20.268 20.9817 20.4332 20.3764 20.7994 19.8609C21.2514 19.2247 21.9471 18.805 22.6953 18.6103L22.8535 18.5691V18.0354C22.8535 17.5864 23.2176 17.2225 23.6664 17.2225C24.1153 17.2225 24.4794 17.5864 24.4794 18.0354V18.5567L24.6391 18.5971C25.7438 18.8761 26.5941 19.5967 27.0358 20.6488C27.2071 21.0569 27.0089 21.5414 26.6008 21.7127C26.1925 21.8839 25.7082 21.6857 25.5369 21.2776C25.1503 20.3567 24.1739 19.9584 23.2246 20.1495Z" fill="url(#paint0_linear_1270_419)"/>
<defs>
<linearGradient id="paint0_linear_1270_419" x1="16.0093" y1="2.26411" x2="16.0093" y2="31.5106" gradientUnits="userSpaceOnUse">
<stop stop-color="#00F1B5"/>
<stop offset="0.985" stop-color="#D9FF43"/>
</linearGradient>
</defs>
</svg>
