<svg width="30" height="30" viewBox="0 0 30 30" fill="none" xmlns="http://www.w3.org/2000/svg">
<path d="M19.4549 16.125H18.2999H11.2949V20.37H13.2599H19.4549C20.8799 20.37 22.0499 19.41 22.0499 18.24C22.0499 17.07 20.8799 16.125 19.4549 16.125Z" fill="#1C1C1E"/>
<path d="M15 0C6.72 0 0 6.72 0 15C0 23.28 6.72 30 15 30C23.28 30 30 23.28 30 15C30 6.72 23.28 0 15 0ZM19.455 22.62H16.98V24.75C16.98 25.365 16.47 25.875 15.855 25.875C15.24 25.875 14.73 25.365 14.73 24.75V22.62H13.26H12.915V24.75C12.915 25.365 12.405 25.875 11.79 25.875C11.175 25.875 10.665 25.365 10.665 24.75V22.62H10.17H7.575C6.96 22.62 6.45 22.11 6.45 21.495C6.45 20.88 6.96 20.37 7.575 20.37H9.045V15V9.63H7.575C6.96 9.63 6.45 9.12 6.45 8.505C6.45 7.89 6.96 7.38 7.575 7.38H10.17H10.665V5.25C10.665 4.635 11.175 4.125 11.79 4.125C12.405 4.125 12.915 4.635 12.915 5.25V7.38H13.26H14.73V5.25C14.73 4.635 15.24 4.125 15.855 4.125C16.47 4.125 16.98 4.635 16.98 5.25V7.38H18.3C20.625 7.38 22.68 9.42 22.68 11.76C22.68 12.765 22.32 13.68 21.75 14.43C23.265 15.165 24.3 16.605 24.3 18.27C24.3 20.655 22.125 22.62 19.455 22.62Z" fill="#1C1C1E"/>
<path d="M20.4299 11.745C20.4299 10.755 19.4999 9.61499 18.2999 9.61499H13.2599H11.2949V13.86H18.2999C19.4699 13.875 20.4299 12.915 20.4299 11.745Z" fill="#1C1C1E"/>
</svg>
