<svg viewBox="0 0 31 31" fill="none" xmlns="http://www.w3.org/2000/svg">
<path d="M22.2134 7.42065C22.5797 8.20969 22.8528 9.03872 23.0272 9.89097C24.3518 10.6103 25.4903 11.6288 26.3521 12.8654C27.2139 14.102 27.7752 15.5227 27.9915 17.0144C28.2077 18.5062 28.0729 20.0278 27.5977 21.4582C27.1225 22.8887 26.3201 24.1885 25.2543 25.2543C24.1885 26.3202 22.8886 27.1226 21.4582 27.5978C20.0277 28.0729 18.5061 28.2078 17.0144 27.9915C15.5227 27.7753 14.102 27.2139 12.8654 26.3521C11.6287 25.4903 10.6102 24.3518 9.89094 23.0272C9.03869 22.8528 8.20966 22.5797 7.42062 22.2135C8.06612 24.0743 9.17382 25.7406 10.6398 27.056C12.1057 28.3714 13.8819 29.2928 15.8015 29.7337C17.7211 30.1745 19.7213 30.1204 21.6143 29.5765C23.5073 29.0325 25.231 28.0165 26.6237 26.6237C28.0164 25.231 29.0325 23.5073 29.5764 21.6143C30.1204 19.7213 30.1745 17.7211 29.7336 15.8015C29.2928 13.8819 28.3714 12.1058 27.056 10.6398C25.7406 9.17385 24.0743 8.06615 22.2134 7.42065Z" fill="url(#paint0_linear_3133_737)"/>
<path d="M18.4063 6.78125C19.7023 6.77831 20.9895 6.99448 22.2134 7.42063C21.4593 5.7938 20.3237 4.37304 18.903 3.27905C17.4822 2.18506 15.8185 1.45016 14.0529 1.13678C12.2874 0.823412 10.4724 0.940829 8.76193 1.47906C7.0515 2.01729 5.49627 2.96043 4.22835 4.22835C2.96043 5.49627 2.01729 7.0515 1.47906 8.76193C0.940829 10.4724 0.823412 12.2874 1.13678 14.0529C1.45016 15.8185 2.18506 17.4822 3.27905 18.903C4.37304 20.3237 5.7938 21.4593 7.42063 22.2134C6.99448 20.9895 6.77831 19.7023 6.78125 18.4063C6.78125 15.3231 8.00603 12.3662 10.1861 10.1861C12.3662 8.00603 15.3231 6.78125 18.4063 6.78125Z" fill="url(#paint1_linear_3133_737)"/>
<path d="M8.71875 18.4062C8.71846 20.0201 9.12139 21.6085 9.89094 23.0271C11.694 23.3936 13.5597 23.3078 15.3215 22.7773C17.0833 22.2469 18.6863 21.2883 19.9874 19.9873C21.2884 18.6863 22.2469 17.0833 22.7774 15.3215C23.3078 13.5597 23.3936 11.694 23.0272 9.8909C21.5516 9.09004 19.8931 8.68644 18.2145 8.71967C16.5359 8.7529 14.8947 9.22183 13.4519 10.0805C12.0092 10.9391 10.8143 12.158 9.98454 13.6175C9.15478 15.0771 8.71859 16.7273 8.71875 18.4062Z" fill="url(#paint2_linear_3133_737)"/>
<defs>
<linearGradient id="paint0_linear_3133_737" x1="18.7312" y1="9.02025" x2="18.7312" y2="29.6829" gradientUnits="userSpaceOnUse">
<stop stop-color="#00F1B5"/>
<stop offset="0.985" stop-color="#D9FF43"/>
</linearGradient>
<linearGradient id="paint1_linear_3133_737" x1="11.5956" y1="2.46871" x2="11.5956" y2="21.8885" gradientUnits="userSpaceOnUse">
<stop stop-color="#00F1B5"/>
<stop offset="0.985" stop-color="#D9FF43"/>
</linearGradient>
<linearGradient id="paint2_linear_3133_737" x1="15.9888" y1="9.746" x2="15.9888" y2="23.0281" gradientUnits="userSpaceOnUse">
<stop stop-color="#00F1B5"/>
<stop offset="0.985" stop-color="#D9FF43"/>
</linearGradient>
</defs>
</svg>
