<svg width="144" height="63" viewBox="0 0 144 63" fill="none" xmlns="http://www.w3.org/2000/svg">
<path d="M132.721 20.2949C132.721 20.2949 131.091 26.5536 131.923 28.4442C132.754 30.3349 134.205 33.1708 135.802 34.0836C138.012 34.8745 140.302 35.421 142.631 35.7134C142.631 35.7134 142.631 31.3454 141.36 29.4874C140.088 27.6293 134.661 20.6372 132.721 20.2949Z" fill="#00D999"/>
<path d="M2.85413 49.9256C2.85413 49.9256 17.8 31.8341 27.5792 28.0366C37.3583 24.239 46.29 21.7942 47.1375 21.5171C47.9851 21.24 16.6591 22.9514 16.6428 24.9398C16.6428 31.8667 14.4425 37.6854 6.09756 37.555C2.93563 37.555 1.68063 45.7043 1.97401 47.2038C2.1281 48.1503 2.42485 49.068 2.85413 49.9256Z" fill="#00D999"/>
<path d="M81.3647 29.5525C81.0669 29.5871 80.7922 29.7299 80.5928 29.9537C80.3934 30.1776 80.2832 30.4669 80.2832 30.7667C80.2832 31.0665 80.3934 31.3559 80.5928 31.5798C80.7922 31.8036 81.0669 31.9464 81.3647 31.981H89.7259C90.0237 31.9464 90.2984 31.8036 90.4978 31.5798C90.6972 31.3559 90.8074 31.0665 90.8074 30.7667C90.8074 30.4669 90.6972 30.1776 90.4978 29.9537C90.2984 29.7299 90.0237 29.5871 89.7259 29.5525H81.3647Z" fill="#003D2B"/>
<path d="M28.4922 42.1516C27.284 42.1549 26.104 42.516 25.101 43.1896C24.098 43.8631 23.3172 44.8188 22.8571 45.9359C22.397 47.053 22.2783 48.2814 22.5159 49.466C22.7536 50.6505 23.337 51.738 24.1924 52.5912C25.0478 53.4443 26.1369 54.0248 27.3221 54.2593C28.5072 54.4938 29.7353 54.3719 30.8512 53.9088C31.9671 53.4457 32.9207 52.6623 33.5915 51.6576C34.2624 50.6528 34.6205 49.4718 34.6205 48.2636C34.6205 47.4596 34.4618 46.6635 34.1537 45.9209C33.8455 45.1783 33.3938 44.5038 32.8245 43.936C32.2553 43.3683 31.5796 42.9184 30.8361 42.6122C30.0927 42.306 29.2962 42.1495 28.4922 42.1516ZM28.4922 51.9308C27.7644 51.9276 27.0538 51.7088 26.4502 51.3021C25.8466 50.8954 25.377 50.319 25.1007 49.6457C24.8244 48.9723 24.7538 48.2322 24.8978 47.5188C25.0417 46.8053 25.3938 46.1505 25.9096 45.637C26.4254 45.1235 27.0818 44.7743 27.7958 44.6335C28.5099 44.4926 29.2497 44.5665 29.9218 44.8458C30.5939 45.1251 31.1683 45.5972 31.5723 46.2026C31.9763 46.808 32.192 47.5195 32.192 48.2473C32.2029 48.7392 32.1151 49.2283 31.9338 49.6858C31.7526 50.1432 31.4815 50.5597 31.1366 50.9106C30.7918 51.2616 30.3801 51.5399 29.9259 51.7291C29.4717 51.9183 28.9842 52.0146 28.4922 52.0123V51.9308Z" fill="#003D2B"/>
<path d="M17.2294 53.6585C17.2294 53.6585 18.5659 46.4056 22.3798 42.2494C26.6011 37.6043 31.8004 36.8546 35.4187 38.2726C39.037 39.6905 29.8934 36.0396 27.0575 36.3819C24.2215 36.7242 20.2446 37.751 18.9082 39.935C17.5717 42.119 15.6484 46.8782 16.0885 48.9319C16.5286 50.9855 17.2294 53.6585 17.2294 53.6585Z" fill="#00D999"/>
<path d="M123.48 42.1516C122.271 42.1516 121.09 42.5101 120.085 43.1817C119.079 43.8533 118.296 44.8078 117.833 45.9246C117.371 47.0415 117.25 48.2704 117.486 49.456C117.721 50.6416 118.304 51.7307 119.158 52.5854C120.013 53.4402 121.102 54.0223 122.288 54.2582C123.473 54.494 124.702 54.3729 125.819 53.9103C126.936 53.4477 127.89 52.6644 128.562 51.6592C129.234 50.6541 129.592 49.4724 129.592 48.2636C129.588 46.6439 128.943 45.0918 127.797 43.9465C126.652 42.8012 125.1 42.1559 123.48 42.1516ZM123.48 51.9308C122.752 51.9308 122.039 51.7148 121.434 51.31C120.828 50.9053 120.356 50.33 120.077 49.6569C119.798 48.9838 119.725 48.2432 119.867 47.5287C120.01 46.8142 120.36 46.1578 120.876 45.6427C121.391 45.1275 122.047 44.7767 122.762 44.6346C123.476 44.4925 124.217 44.5654 124.89 44.8442C125.563 45.123 126.138 45.5951 126.543 46.2009C126.948 46.8066 127.164 47.5188 127.164 48.2473C127.172 48.7373 127.084 49.224 126.902 49.6794C126.721 50.1348 126.452 50.5496 126.109 50.8999C125.766 51.2502 125.357 51.5289 124.906 51.7198C124.455 51.9108 123.97 52.0102 123.48 52.0123V51.9308Z" fill="#003D2B"/>
<path d="M83.7769 52.0124C83.7769 52.0124 92.0403 47.2858 93.2464 44.6454C94.4525 42.005 95.4467 35.6649 96.5061 30.759C97.2011 27.1897 97.5071 23.5556 97.4188 19.9204L125.42 18.2905C125.42 18.2905 105.34 30.4982 98.8857 41.3857C92.4314 52.2732 86.2542 52.0124 86.2542 52.0124H83.7769Z" fill="#00D999"/>
<path d="M112.609 53.6586C112.609 53.6586 113.93 46.4057 117.76 42.2496C121.981 37.6045 127.18 36.8547 130.799 38.2727C134.417 39.6907 125.371 36.0072 122.47 36.3495C119.569 36.6918 115.657 37.7186 114.321 39.9026C112.984 42.0866 111.061 46.8458 111.501 48.8994C111.941 50.9531 112.609 53.6586 112.609 53.6586Z" fill="#00D999"/>
<path d="M46.7299 11.787L31.2462 20.8653L31.0344 20.9957H30.8388L23.0317 21.3543C20.7103 21.4571 18.4232 21.953 16.2678 22.8212H16.1048C11.7966 24.608 8.22644 27.8103 5.98335 31.8995C5.51477 32.7893 5.10638 33.7095 4.76095 34.654C4.2557 35.9905 3.84823 37.3921 3.44076 38.7612L2.85401 40.5215L2.15317 42.7381L1.33824 45.4111L1.17525 45.9326C0.916509 46.7616 0.856818 47.6399 1.00102 48.4963C1.14523 49.3527 1.48927 50.163 2.00524 50.8616C2.52121 51.5601 3.19457 52.1272 3.9707 52.5168C4.74684 52.9064 5.60388 53.1076 6.47231 53.104H15.6321L15.8929 53.7234C16.9496 56.189 18.7066 58.2904 20.9461 59.7671C23.1856 61.2438 25.8092 62.031 28.4918 62.031C31.1743 62.031 33.7979 61.2438 36.0374 59.7671C38.2769 58.2904 40.0339 56.189 41.0906 53.7234L41.3514 53.104H110.702L110.963 53.7234C112.016 56.1901 113.771 58.2931 116.01 59.7711C118.248 61.2491 120.871 62.0371 123.554 62.0371C126.236 62.0371 128.859 61.2491 131.098 59.7711C133.336 58.2931 135.091 56.1901 136.144 53.7234L136.405 53.104H142.778C143.099 53.1041 143.408 52.9775 143.636 52.7518C143.865 52.526 143.996 52.2193 144 51.8979V37.3921C143.995 36.5476 143.941 35.704 143.837 34.8658C143.32 30.692 141.529 26.7788 138.709 23.6585C135.889 20.5381 132.177 18.3621 128.076 17.4263H127.799L127.604 17.2307L118.688 8.73913C113.391 3.65213 106.327 0.818393 98.9834 0.834295H81.8698C72.4983 0.846654 63.2562 3.02193 54.863 7.19076C54.7177 7.25968 54.588 7.35731 54.4815 7.47777C54.3751 7.59822 54.2942 7.739 54.2436 7.8916C54.1742 8.07632 54.1512 8.27524 54.1766 8.47091C54.202 8.66659 54.275 8.85304 54.3893 9.01393C54.5035 9.17482 54.6555 9.30523 54.8318 9.39372C55.0082 9.4822 55.2036 9.52607 55.4008 9.52147C55.5874 9.51699 55.7708 9.47253 55.9387 9.39108C63.9981 5.39082 72.8722 3.30478 81.8698 3.29539H94.0775L94.1916 4.15921L96.0333 17.3611L96.18 18.4694H95.0717L40.1779 20.6371L36.1684 20.7838L39.6237 18.7628L47.9523 13.8732C48.2244 13.7131 48.4228 13.4528 48.5051 13.1481C48.5873 12.8434 48.5469 12.5186 48.3924 12.2433C48.2834 12.0643 48.1302 11.9163 47.9476 11.8136C47.7649 11.7108 47.5589 11.6568 47.3493 11.6566C47.1347 11.6408 46.92 11.686 46.7299 11.787ZM7.25464 34.7844L7.35244 34.5562C7.45023 34.328 7.56432 34.0835 7.67841 33.8553C9.0912 30.993 11.233 28.5533 13.8882 26.7817L15.5181 25.7386V28.2323C15.5236 30.2102 14.792 32.1191 13.4661 33.5867C12.1401 35.0543 10.3149 35.9752 8.34665 36.1697L6.71679 36.349L7.25464 34.7844ZM37.6516 54.8806C36.0831 57.0615 33.7868 58.61 31.1769 59.2465C28.5671 59.8831 25.8156 59.5658 23.4192 58.3519C21.0227 57.1381 19.139 55.1076 18.1081 52.6269C17.0772 50.1462 16.967 47.3787 17.7973 44.8239C18.6276 42.2691 20.3438 40.0952 22.6361 38.6945C24.9285 37.2939 27.646 36.7588 30.2982 37.1857C32.9504 37.6127 35.3626 38.9736 37.0996 41.0229C38.8366 43.0721 39.7838 45.6748 39.7704 48.3611C39.7598 50.7018 39.0191 52.9809 37.6516 54.8806ZM134.726 49.062C134.507 51.9614 133.177 54.6644 131.013 56.6066C128.849 58.5488 126.019 59.5802 123.113 59.4856C120.206 59.3909 117.449 58.1776 115.416 56.0987C113.383 54.0198 112.231 51.2361 112.202 48.3285C112.312 45.4136 113.548 42.6549 115.65 40.6318C117.751 38.6087 120.555 37.4785 123.472 37.4785C126.389 37.4785 129.193 38.6087 131.294 40.6318C133.396 42.6549 134.632 45.4136 134.743 48.3285C134.743 48.573 134.743 48.8175 134.726 49.062ZM133.276 24.2228V22.0877L134.906 23.4568H135.003C138.01 25.9803 140.115 29.4123 141.001 33.236L141.344 34.7192L139.844 34.4584C138.008 34.1219 136.349 33.1505 135.158 31.7144C133.966 30.2782 133.317 28.4687 133.325 26.6024L133.276 24.2228ZM127.001 19.6918H127.115C128.233 19.9307 129.325 20.2801 130.375 20.7349L131.141 21.0609L130.961 21.8758C130.812 22.5998 130.736 23.3369 130.733 24.0761V26.6187C130.736 29.2686 131.75 31.8176 133.567 33.7465C135.384 35.6754 137.867 36.8392 140.512 37.001H141.458V50.5614H137.008L137.122 49.4694C137.264 47.6379 137.041 45.7965 136.465 44.052C135.89 42.3076 134.973 40.6948 133.769 39.3074C132.565 37.9199 131.098 36.7855 129.452 35.9699C127.806 35.1543 126.014 34.6737 124.181 34.5562H123.48C119.848 34.5562 116.364 35.9981 113.794 38.5651C111.223 41.1322 109.777 44.6145 109.773 48.247C109.749 48.6596 109.749 49.0732 109.773 49.4857L109.871 50.5777H88.5522L90.6385 48.8175C91.403 48.1782 92.1168 47.4807 92.7736 46.7313C99.1627 39.1035 99.1953 26.7654 98.9019 21.8106V20.7838H99.9287L126.952 19.7407L127.001 19.6918ZM97.6632 3.26279H98.9671C105.684 3.24737 112.145 5.83532 116.993 10.4831L122.486 15.7312L124.214 17.3611L121.834 17.4426L99.4723 18.3227H98.5596L98.4292 17.41L96.669 4.3711L96.506 3.23019L97.6632 3.26279ZM47.9686 23.5546L48.1153 22.756H48.9303L95.4303 20.9631H96.4245V21.9573C96.7016 26.6513 96.7016 38.256 90.8667 45.2644C89.4347 46.9686 87.6494 48.341 85.6343 49.2866C83.6193 50.2323 81.4227 50.7284 79.1968 50.7407H50.7068L50.3971 50.154C45.5075 41.5809 47.1374 28.705 47.9686 23.5546ZM44.3829 22.9026H45.6216L45.5075 24.0599C44.7741 28.6887 43.4865 40.3585 47.3493 49.2575L47.9523 50.6592H42.0359L42.1337 49.5672C42.1581 49.1547 42.1581 48.7411 42.1337 48.3285C42.0112 44.7771 40.5143 41.412 37.9586 38.943C35.4029 36.474 31.9883 35.094 28.4347 35.094C24.8812 35.094 21.4665 36.474 18.9109 38.943C16.3552 41.412 14.8582 44.7771 14.7357 48.3285C14.7357 48.736 14.7357 49.1598 14.7357 49.5672L14.8335 50.6592H6.47231C5.98486 50.6602 5.50399 50.5468 5.06842 50.3279C4.63285 50.1091 4.25474 49.7911 3.96456 49.3994C3.67438 49.0077 3.48023 48.5534 3.39775 48.073C3.31526 47.5926 3.34674 47.0995 3.48966 46.6335L5.75517 39.3317L5.98335 38.5656H6.78198H7.46653C10.2274 38.5613 12.8739 37.4627 14.8262 35.5104C16.7784 33.5582 17.877 30.9117 17.8814 28.1508V25.6897V24.777L18.5985 24.5651C20.0524 24.1115 21.559 23.8486 23.0806 23.7828L31.4907 23.4079L44.3829 22.9026Z" fill="#003D2B"/>
</svg>
