<svg width="24" height="24" viewBox="0 0 24 24" fill="none" xmlns="http://www.w3.org/2000/svg">
<path fill-rule="evenodd" clip-rule="evenodd" d="M21.5238 14.5541C21.6284 14.1625 21.8236 13.826 22.0027 13.56C22.1366 13.361 22.2949 13.155 22.4292 12.9802C22.4695 12.9278 22.5076 12.8781 22.5422 12.8324C22.9113 12.3449 23 12.1313 23 12C23 11.8687 22.9113 11.6551 22.5422 11.1676C22.5076 11.1218 22.4694 11.0722 22.4292 11.0198C22.2949 10.845 22.1366 10.6389 22.0027 10.44C21.8236 10.174 21.6284 9.83745 21.5238 9.44592C21.419 9.05231 21.4163 8.66131 21.4367 8.33544C21.4525 8.08292 21.487 7.81601 21.5161 7.59077C21.5237 7.53226 21.5309 7.47657 21.5373 7.42466C21.6138 6.8051 21.5826 6.59239 21.5284 6.49872C21.4694 6.39665 21.2942 6.26043 20.7236 6.02009C20.6736 5.99905 20.6196 5.97667 20.5627 5.95311C20.3551 5.86719 20.1096 5.76554 19.887 5.65595C19.5962 5.51274 19.2586 5.31685 18.9709 5.02911C18.6832 4.74136 18.4873 4.40382 18.344 4.11296C18.2345 3.89042 18.1328 3.6449 18.0469 3.43736C18.0233 3.38044 18.001 3.32637 17.9799 3.27642C17.7396 2.7058 17.6034 2.53068 17.5014 2.47165C17.4077 2.41747 17.1949 2.38618 16.5753 2.46271C16.5234 2.46912 16.4677 2.47632 16.4092 2.48388C16.184 2.51298 15.9171 2.54746 15.6646 2.56327C15.3387 2.58366 14.9482 2.58116 14.5546 2.4763C14.1631 2.37178 13.826 2.17636 13.56 1.99734C13.3611 1.86343 13.155 1.70513 12.9802 1.57085C12.9278 1.53056 12.8782 1.49243 12.8324 1.45777C12.3449 1.08871 12.1313 1 12 1C11.8687 1 11.6551 1.08871 11.1676 1.45777C11.1218 1.49243 11.0722 1.53056 11.0198 1.57085C10.845 1.70514 10.6389 1.86344 10.44 1.99734C10.174 2.17636 9.83745 2.37165 9.44592 2.47617C9.05231 2.58102 8.66131 2.58366 8.33544 2.56327C8.08294 2.54746 7.81604 2.51298 7.59081 2.48388C7.53229 2.47632 7.47658 2.46912 7.42466 2.46271C6.8051 2.38618 6.59239 2.41743 6.49872 2.47161C6.39665 2.53064 6.26043 2.7058 6.02009 3.27642C5.99905 3.32636 5.97667 3.38041 5.95311 3.43732C5.86719 3.64487 5.76554 3.89041 5.65595 4.11296C5.51274 4.40382 5.31685 4.74136 5.02911 5.02911C4.74136 5.31685 4.40382 5.51274 4.11296 5.65595C3.89041 5.76554 3.64487 5.86719 3.43732 5.95311C3.38041 5.97667 3.32636 5.99905 3.27642 6.02009C2.7058 6.26043 2.53068 6.39658 2.47165 6.49864C2.41747 6.59232 2.38618 6.8051 2.46271 7.42466C2.46912 7.47658 2.47632 7.53229 2.48388 7.59081C2.51298 7.81604 2.54746 8.08294 2.56327 8.33544C2.58366 8.66131 2.58116 9.05181 2.4763 9.44542C2.37178 9.83695 2.17636 10.174 1.99734 10.44C1.86344 10.6389 1.70514 10.845 1.57085 11.0198C1.53056 11.0722 1.49243 11.1218 1.45777 11.1676C1.08871 11.6551 1 11.8687 1 12C1 12.1313 1.08871 12.3449 1.45777 12.8324C1.49243 12.8782 1.53056 12.9278 1.57085 12.9802C1.70513 13.155 1.86343 13.3611 1.99734 13.56C2.17636 13.826 2.37165 14.1625 2.47617 14.5541C2.58102 14.9477 2.58366 15.3387 2.56327 15.6646C2.54746 15.9171 2.51298 16.184 2.48388 16.4092C2.47632 16.4677 2.46912 16.5234 2.46271 16.5753C2.38618 17.1949 2.41743 17.4076 2.47161 17.5013C2.53064 17.6033 2.7058 17.7396 3.27642 17.9799C3.32637 18.001 3.38044 18.0233 3.43736 18.0469C3.6449 18.1328 3.89042 18.2345 4.11296 18.344C4.40382 18.4873 4.74136 18.6832 5.02911 18.9709C5.31685 19.2586 5.51274 19.5962 5.65595 19.887C5.76554 20.1096 5.86719 20.3551 5.95311 20.5627C5.97667 20.6196 5.99905 20.6736 6.02009 20.7236C6.26043 21.2942 6.39658 21.4693 6.49864 21.5283C6.59232 21.5825 6.8051 21.6138 7.42466 21.5373C7.47657 21.5309 7.53226 21.5237 7.59077 21.5161C7.81601 21.487 8.08292 21.4525 8.33544 21.4367C8.66131 21.4163 9.05181 21.4188 9.44542 21.5237C9.83695 21.6282 10.174 21.8236 10.44 22.0027C10.6389 22.1366 10.845 22.2949 11.0198 22.4292C11.0722 22.4694 11.1218 22.5076 11.1676 22.5422C11.6551 22.9113 11.8687 23 12 23C12.1313 23 12.3449 22.9113 12.8324 22.5422C12.8781 22.5076 12.9278 22.4695 12.9802 22.4292C13.155 22.2949 13.361 22.1366 13.56 22.0027C13.826 21.8236 14.1625 21.6284 14.5541 21.5238C14.9477 21.419 15.3387 21.4163 15.6646 21.4367C15.9171 21.4525 16.184 21.487 16.4092 21.5161C16.4677 21.5237 16.5234 21.5309 16.5753 21.5373C17.1949 21.6138 17.4076 21.5826 17.5013 21.5284C17.6033 21.4694 17.7396 21.2942 17.9799 20.7236C18.001 20.6736 18.0233 20.6196 18.0469 20.5626C18.1328 20.3551 18.2345 20.1096 18.344 19.887C18.4873 19.5962 18.6832 19.2586 18.9709 18.9709C19.2586 18.6832 19.5962 18.4873 19.887 18.344C20.1096 18.2345 20.3551 18.1328 20.5626 18.0469C20.6196 18.0233 20.6736 18.001 20.7236 17.9799C21.2942 17.7396 21.4693 17.6034 21.5283 17.5014C21.5825 17.4077 21.6138 17.1949 21.5373 16.5753C21.5309 16.5234 21.5237 16.4677 21.5161 16.4092C21.487 16.184 21.4525 15.9171 21.4367 15.6646C21.4163 15.3387 21.419 14.9477 21.5238 14.5541ZM22.394 18.002C22.6686 17.5273 22.5873 16.8963 22.5055 16.2619C22.4401 15.7548 22.3745 15.2455 22.49 14.812C22.6001 14.3997 22.9021 14.0064 23.2073 13.6089C23.6009 13.0964 24 12.5767 24 12C24 11.4233 23.6009 10.9036 23.2073 10.3911C22.9021 9.99357 22.6001 9.60032 22.49 9.188C22.3745 8.75448 22.4401 8.24519 22.5055 7.73814C22.5873 7.10365 22.6686 6.47267 22.394 5.998C22.1136 5.51319 21.5188 5.26672 20.9255 5.02092C20.4567 4.82664 19.9888 4.63279 19.678 4.322C19.3672 4.01121 19.1734 3.54335 18.9791 3.07447C18.7333 2.48124 18.4868 1.88639 18.002 1.606C17.5273 1.33143 16.8963 1.41274 16.2619 1.49451C15.7548 1.55986 15.2455 1.62549 14.812 1.51C14.3997 1.39993 14.0064 1.09794 13.6089 0.792679C13.0964 0.399056 12.5767 0 12 0C11.4233 0 10.9036 0.399055 10.3911 0.792678C9.99357 1.09794 9.60032 1.39993 9.188 1.51C8.75448 1.62549 8.24519 1.55986 7.73814 1.49451C7.10365 1.41274 6.47267 1.33143 5.998 1.606C5.51319 1.88639 5.26672 2.48124 5.02092 3.07447C4.82664 3.54335 4.63279 4.01121 4.322 4.322C4.01121 4.63279 3.54335 4.82664 3.07447 5.02092C2.48124 5.26672 1.88639 5.51319 1.606 5.998C1.33143 6.47267 1.41274 7.10365 1.49451 7.73814C1.55986 8.24519 1.62549 8.75448 1.51 9.188C1.39993 9.60032 1.09794 9.99357 0.792678 10.3911C0.399055 10.9036 0 11.4233 0 12C0 12.5767 0.399055 13.0964 0.792679 13.6089C1.09794 14.0064 1.39993 14.3997 1.51 14.812C1.62549 15.2455 1.55986 15.7548 1.49451 16.2619C1.41274 16.8963 1.33143 17.5273 1.606 18.002C1.88639 18.4868 2.48124 18.7333 3.07447 18.9791C3.54335 19.1734 4.01121 19.3672 4.322 19.678C4.63279 19.9888 4.82664 20.4567 5.02092 20.9255C5.26672 21.5188 5.51319 22.1136 5.998 22.394C6.47267 22.6686 7.10365 22.5873 7.73814 22.5055C8.24519 22.4401 8.75448 22.3745 9.188 22.49C9.60032 22.6001 9.99357 22.9021 10.3911 23.2073C10.9036 23.6009 11.4233 24 12 24C12.5767 24 13.0964 23.6009 13.6089 23.2073C14.0064 22.9021 14.3997 22.6001 14.812 22.49C15.2455 22.3745 15.7548 22.4401 16.2619 22.5055C16.8963 22.5873 17.5273 22.6686 18.002 22.394C18.4868 22.1136 18.7333 21.5188 18.9791 20.9255C19.1734 20.4567 19.3672 19.9888 19.678 19.678C19.9888 19.3672 20.4567 19.1734 20.9255 18.9791C21.5188 18.7333 22.1136 18.4868 22.394 18.002Z" fill="#012A2B"/>
<path d="M15.5559 9.14076L11.3992 13.178L9.24437 11.0869C8.77665 10.6326 8.01773 10.6326 7.55001 11.0869C7.08229 11.5412 7.08229 12.2783 7.55001 12.7326L10.5729 15.6686C11.0279 16.1105 11.7668 16.1105 12.2218 15.6686L17.2484 10.7864C17.7162 10.3321 17.7162 9.59504 17.2484 9.14076C16.7807 8.68648 16.0236 8.68648 15.5559 9.14076Z" fill="#012A2B"/>
</svg>
