<svg width="32" height="32" viewBox="0 0 32 32" fill="none" xmlns="http://www.w3.org/2000/svg">
<path d="M9.12727 18.9693C11.0494 19.4498 12.5502 20.9506 13.0307 22.8727L14.8351 30.0905C14.9688 30.625 15.4491 31 16 31C16.5509 31 17.0312 30.625 17.1649 30.0905L18.9693 22.8727C19.4498 20.9506 20.9506 19.4498 22.8727 18.9693L30.0905 17.1649C30.625 17.0312 31 16.5509 31 16C31 15.4491 30.625 14.9688 30.0905 14.8351L22.8727 13.0307C20.9506 12.5502 19.4498 11.0494 18.9693 9.12727L17.1649 1.90951C17.0312 1.37498 16.5509 1 16 1C15.4491 1 14.9688 1.37498 14.8351 1.90951L13.0307 9.12727C12.5502 11.0494 11.0494 12.5502 9.12727 13.0307L1.90951 14.8351C1.37498 14.9688 1 15.4491 1 16C1 16.5509 1.37498 17.0312 1.90951 17.1649L9.12727 18.9693Z" stroke="#D9FF43"/>
</svg>
