<svg width="34" height="38" viewBox="0 0 34 38" fill="none" xmlns="http://www.w3.org/2000/svg">
<path d="M33.0494 17.4785L24.332 13.8457C23.4744 14.9771 22.3664 15.8945 21.095 16.5262C19.8236 17.1578 18.4231 17.4865 17.0034 17.4865C15.5837 17.4865 14.1833 17.1578 12.9119 16.5262C11.6405 15.8945 10.5325 14.9771 9.67489 13.8457L0.984051 17.4653C0.695191 17.5726 0.446082 17.7657 0.270176 18.0187C0.0942704 18.2717 -8.65622e-06 18.5725 5.96106e-10 18.8807C8.65741e-06 19.1888 0.0943045 19.4896 0.270224 19.7426C0.446145 19.9956 0.695265 20.1887 0.98413 20.296L1.68674 20.5677V30.3988C2.12344 30.3026 2.57587 30.3026 3.01257 30.3988V21.0716C5.24721 21.928 14.1522 25.3376 16.5427 26.2556C16.8536 26.357 17.1894 26.3523 17.4973 26.2423C18.1787 25.9865 28.7855 21.9182 29.0387 21.8207C29.9186 21.4837 32.0855 20.6495 32.9831 20.3092C33.2743 20.2085 33.5278 20.0212 33.7095 19.7723C33.8912 19.5235 33.9925 19.225 33.9997 18.9169C34.0069 18.6089 33.9197 18.306 33.7499 18.0489C33.58 17.7918 33.3356 17.5928 33.0494 17.4785ZM23.5697 19.4474H10.4306C10.2565 19.4448 10.0904 19.3738 9.96819 19.2498C9.84598 19.1257 9.77748 18.9586 9.77749 18.7844C9.77749 18.6103 9.846 18.4432 9.96822 18.3191C10.0904 18.1951 10.2566 18.1241 10.4307 18.1216H23.5696C23.7439 18.1238 23.9104 18.1947 24.0328 18.3187C24.1553 18.4428 24.224 18.6101 24.224 18.7845C24.224 18.9588 24.1553 19.1261 24.0328 19.2502C23.9104 19.3743 23.744 19.4451 23.5697 19.4474Z" fill="#020202"/>
<path d="M0.454119 33.5475C0.454068 33.9324 0.572336 34.308 0.792897 34.6234C1.01346 34.9388 1.32565 35.1788 1.68717 35.3108V36.9018C1.68975 37.0759 1.76072 37.242 1.88476 37.3643C2.0088 37.4865 2.17594 37.555 2.35007 37.555C2.5242 37.555 2.69135 37.4865 2.81539 37.3643C2.93944 37.2421 3.01042 37.076 3.01301 36.9019V35.3108C3.3366 35.1891 3.62068 34.9811 3.8344 34.7094C4.04812 34.4376 4.18333 34.1125 4.22534 33.7693C4.26735 33.4262 4.21456 33.0781 4.0727 32.7628C3.93085 32.4475 3.70534 32.1771 3.42066 31.9809C3.13598 31.7847 2.80301 31.6703 2.45788 31.65C2.11275 31.6297 1.76865 31.7043 1.46294 31.8658C1.15722 32.0272 0.901565 32.2693 0.72372 32.5658C0.545875 32.8622 0.452634 33.2018 0.454119 33.5475Z" fill="#020202"/>
<path d="M17.9684 27.4819C17.3754 27.7005 16.7259 27.7122 16.1255 27.515L5.81042 23.5641L4.96191 23.2393V30.8694C4.96216 31.6963 5.23995 32.4992 5.7508 33.1495C6.26164 33.7998 6.97596 34.2597 7.77931 34.4557C12.4969 35.7251 20.3826 36.0242 26.2548 34.3497C27.0498 34.1433 27.754 33.6794 28.2577 33.0307C28.7613 32.3819 29.0361 31.5847 29.0391 30.7633V23.2458L28.1906 23.5707L17.9684 27.4819Z" fill="#020202"/>
<path d="M20.5471 15.3239C25.3061 13.0101 26.3496 6.26144 22.4562 2.64242C17.4738 -2.19501 8.98101 1.49543 9.14492 8.44303C9.16058 14.1696 15.5046 17.9452 20.5471 15.3239ZM17.0005 8.96664C16.3135 8.95966 15.6525 8.70277 15.1411 8.24398C14.6298 7.78519 14.3029 7.15589 14.2217 6.47368C14.1405 5.79147 14.3105 5.10303 14.6999 4.53701C15.0893 3.971 15.6715 3.56614 16.3376 3.39809L16.3376 2.9009C16.3376 2.81385 16.3547 2.72764 16.388 2.64722C16.4213 2.56679 16.4702 2.49371 16.5317 2.43215C16.5933 2.37059 16.6664 2.32176 16.7468 2.28845C16.8272 2.25513 16.9134 2.23798 17.0005 2.23798C17.0875 2.23798 17.1737 2.25513 17.2542 2.28845C17.3346 2.32176 17.4077 2.37059 17.4692 2.43215C17.5308 2.49371 17.5796 2.56679 17.6129 2.64722C17.6462 2.72764 17.6634 2.81385 17.6634 2.9009V3.39809C18.2794 3.54665 18.8274 3.89812 19.2194 4.39593C19.6114 4.89375 19.8245 5.50897 19.8245 6.1426C19.8211 6.31618 19.7498 6.4815 19.6258 6.60306C19.5018 6.72462 19.3352 6.7927 19.1615 6.7927C18.9879 6.79269 18.8212 6.7246 18.6973 6.60303C18.5733 6.48147 18.502 6.31614 18.4986 6.14256C18.4986 5.84624 18.4108 5.55658 18.2461 5.31021C18.0815 5.06384 17.8475 4.87182 17.5737 4.75843C17.3 4.64504 16.9987 4.61538 16.7081 4.6732C16.4175 4.73101 16.1506 4.87371 15.941 5.08324C15.7315 5.29277 15.5888 5.55973 15.531 5.85035C15.4732 6.14098 15.5029 6.44221 15.6163 6.71597C15.7297 6.98973 15.9217 7.22371 16.1681 7.38833C16.4145 7.55295 16.7042 7.64081 17.0005 7.6408C17.6871 7.64689 18.348 7.903 18.8595 8.3612C19.3709 8.81939 19.6979 9.44826 19.7791 10.1301C19.8604 10.812 19.6904 11.5001 19.3009 12.0656C18.9115 12.6312 18.3293 13.0354 17.6633 13.2027L17.6634 13.6999C17.6634 13.8757 17.5935 14.0443 17.4692 14.1687C17.3449 14.293 17.1763 14.3628 17.0005 14.3628C16.8247 14.3628 16.656 14.293 16.5317 14.1687C16.4074 14.0443 16.3376 13.8757 16.3376 13.6999V13.2027C15.7216 13.0542 15.1735 12.7027 14.7815 12.2049C14.3895 11.7071 14.1764 11.0919 14.1764 10.4582C14.1798 10.2846 14.2511 10.1193 14.375 9.99766C14.499 9.87607 14.6657 9.80795 14.8394 9.80796C15.013 9.80796 15.1797 9.87609 15.3037 9.99769C15.4276 10.1193 15.4989 10.2847 15.5023 10.4583C15.501 10.7549 15.5877 11.0452 15.7516 11.2924C15.9154 11.5397 16.1489 11.7327 16.4226 11.8471C16.6962 11.9615 16.9977 11.9921 17.2887 11.9351C17.5798 11.878 17.8473 11.7358 18.0575 11.5266C18.2677 11.3173 18.4111 11.0504 18.4694 10.7596C18.5278 10.4688 18.4985 10.1672 18.3853 9.89303C18.2721 9.61889 18.08 9.38451 17.8335 9.21959C17.587 9.05468 17.2971 8.96664 17.0005 8.96664Z" fill="#FF6100"/>
</svg>
