<svg width="20" height="24" viewBox="0 0 20 24" fill="none" xmlns="http://www.w3.org/2000/svg">
<path d="M14.4107 0.333252H5.59065C1.18065 0.333252 0.0839844 1.51158 0.0839844 6.21325V19.3499C0.0839844 22.4533 1.78732 23.1883 3.85232 20.9716L3.86398 20.9599C4.82065 19.9449 6.27899 20.0266 7.10732 21.1349L8.28565 22.7099C9.23065 23.9583 10.759 23.9583 11.704 22.7099L12.8823 21.1349C13.7223 20.0149 15.1807 19.9333 16.1373 20.9599C18.214 23.1766 19.9057 22.4416 19.9057 19.3383V6.21325C19.9173 1.51158 18.8207 0.333252 14.4107 0.333252ZM5.07732 11.9999C4.43565 11.9999 3.91065 11.4749 3.91065 10.8333C3.91065 10.1916 4.43565 9.66658 5.07732 9.66658C5.71899 9.66658 6.24398 10.1916 6.24398 10.8333C6.24398 11.4749 5.71899 11.9999 5.07732 11.9999ZM5.07732 7.33325C4.43565 7.33325 3.91065 6.80825 3.91065 6.16658C3.91065 5.52492 4.43565 4.99992 5.07732 4.99992C5.71899 4.99992 6.24398 5.52492 6.24398 6.16658C6.24398 6.80825 5.71899 7.33325 5.07732 7.33325ZM14.9357 11.7083H8.51898C8.04065 11.7083 7.64398 11.3116 7.64398 10.8333C7.64398 10.3549 8.04065 9.95825 8.51898 9.95825H14.9357C15.414 9.95825 15.8107 10.3549 15.8107 10.8333C15.8107 11.3116 15.414 11.7083 14.9357 11.7083ZM14.9357 7.04158H8.51898C8.04065 7.04158 7.64398 6.64492 7.64398 6.16658C7.64398 5.68825 8.04065 5.29158 8.51898 5.29158H14.9357C15.414 5.29158 15.8107 5.68825 15.8107 6.16658C15.8107 6.64492 15.414 7.04158 14.9357 7.04158Z" fill="#D9FF43"/>
</svg>
