<svg width="32" height="32" viewBox="0 0 32 32" fill="none" xmlns="http://www.w3.org/2000/svg">
<path d="M31.685 30.14L30.605 29.06C31.16 28.22 31.49 27.2 31.49 26.12C31.49 23.15 29.09 20.75 26.12 20.75C23.15 20.75 20.75 23.15 20.75 26.12C20.75 29.09 23.15 31.49 26.12 31.49C27.215 31.49 28.22 31.16 29.06 30.605L30.14 31.685C30.35 31.895 30.635 32 30.905 32C31.19 32 31.46 31.895 31.67 31.685C32.105 31.25 32.105 30.56 31.685 30.14Z" fill="#1C1C1E"/>
<path d="M2.04501 20.9451C2.04501 20.9901 2.01501 21.0501 2.01501 21.0951C3.39501 23.8551 5.64502 26.1201 8.40501 27.4851C8.45002 27.4851 8.51001 27.4551 8.55501 27.4551C8.04501 25.7151 7.65501 23.9301 7.37001 22.1451C5.57001 21.8451 3.78501 21.4551 2.04501 20.9451Z" fill="#1C1C1E"/>
<path d="M27.605 8.64491C26.195 5.68991 23.81 3.30491 20.87 1.90991C21.41 3.69491 21.86 5.52491 22.16 7.35491C23.99 7.65491 25.82 8.08991 27.605 8.64491Z" fill="#1C1C1E"/>
<path d="M1.89502 8.64503C3.69502 8.10503 5.52502 7.65503 7.35502 7.35503C7.65502 5.57003 8.03002 3.80003 8.54002 2.06003C8.49502 2.06003 8.43502 2.03003 8.39002 2.03003C5.57002 3.42503 3.27502 5.78003 1.89502 8.64503Z" fill="#1C1C1E"/>
<path d="M19.73 7.04C19.37 5.09 18.92 3.14 18.275 1.25C18.245 1.145 18.245 1.055 18.23 0.935C17.12 0.665 15.95 0.5 14.75 0.5C13.535 0.5 12.38 0.665 11.255 0.95C11.24 1.055 11.255 1.145 11.225 1.265C10.595 3.155 10.13 5.09 9.77002 7.04C13.085 6.68 16.415 6.68 19.73 7.04Z" fill="#1C1C1E"/>
<path d="M7.04 9.77002C5.075 10.13 3.155 10.595 1.25 11.225C1.145 11.255 1.055 11.255 0.95 11.27C0.665 12.38 0.5 13.55 0.5 14.75C0.5 15.965 0.665 17.12 0.95 18.245C1.055 18.26 1.145 18.245 1.265 18.275C3.155 18.905 5.09 19.37 7.055 19.73C6.68 16.415 6.68 13.085 7.04 9.77002Z" fill="#1C1C1E"/>
<path d="M28.5499 11.27C28.4449 11.27 28.3549 11.255 28.2349 11.225C26.3449 10.595 24.3949 10.13 22.4449 9.77002C22.8199 13.085 22.8199 16.415 22.4449 19.715C24.3949 19.355 26.3449 18.905 28.2349 18.26C28.3399 18.23 28.4299 18.245 28.5499 18.23C28.8199 17.105 28.9999 15.95 28.9999 14.735C28.9999 13.55 28.8349 12.395 28.5499 11.27Z" fill="#1C1C1E"/>
<path d="M9.77002 22.4601C10.13 24.4251 10.58 26.3601 11.225 28.2501C11.255 28.3551 11.24 28.4451 11.255 28.5651C12.38 28.8351 13.535 29.0001 14.75 29.0001C15.95 29.0001 17.12 28.8351 18.23 28.5501C18.245 28.4451 18.245 28.3551 18.275 28.2351C18.905 26.3451 19.37 24.4101 19.73 22.4451C18.08 22.6251 16.415 22.7601 14.75 22.7601C13.085 22.7601 11.42 22.6401 9.77002 22.4601Z" fill="#1C1C1E"/>
<path d="M9.42502 9.4249C8.97502 12.9649 8.97502 16.5349 9.42502 20.0899C12.965 20.5399 16.535 20.5399 20.09 20.0899C20.54 16.5499 20.54 12.9799 20.09 9.4249C16.535 8.9749 12.965 8.9749 9.42502 9.4249Z" fill="#1C1C1E"/>
</svg>
