<svg viewBox="0 0 31 31" fill="none" xmlns="http://www.w3.org/2000/svg">
<path d="M22.7656 10.9592C18.2583 10.9592 14.5918 14.6257 14.5918 19.1329C14.5918 23.6402 18.2583 27.3066 22.7655 27.3066C27.2727 27.3066 30.9998 23.6402 30.9998 19.1329C30.9998 14.6257 27.2728 10.9592 22.7656 10.9592ZM23.6976 23.5098C23.6898 23.5127 23.6815 23.5114 23.6736 23.5141V24.5821C23.6736 25.0841 23.2674 25.4903 22.7654 25.4903C22.2634 25.4903 21.8572 25.0841 21.8572 24.5821V23.5079C21.2591 23.3058 20.686 22.9223 20.196 22.3382C19.8732 21.9542 19.9228 21.3812 20.3078 21.0593C20.6918 20.7365 21.2665 20.7861 21.5867 21.1711C22.0674 21.7431 22.6111 21.9702 23.0759 21.8034C23.4333 21.6731 23.6736 21.3298 23.6736 20.9493C23.6736 20.4483 23.2665 20.0411 22.7654 20.0411C21.263 20.0411 20.0409 18.8189 20.0409 17.3166C20.0409 16.2195 20.6936 15.2341 21.7039 14.8067C21.7539 14.7855 21.8069 14.7867 21.8573 14.7687V13.6838C21.8573 13.1818 22.2635 12.7756 22.7655 12.7756C23.2675 12.7756 23.6737 13.1818 23.6737 13.6838V14.7703C24.144 14.9292 24.6026 15.1817 25.012 15.5783C25.3721 15.9269 25.381 16.5016 25.0315 16.8625C24.683 17.2226 24.1073 17.2306 23.7473 16.882C23.3056 16.4537 22.8169 16.3064 22.4125 16.4794C22.0755 16.6222 21.8572 16.9503 21.8572 17.3167C21.8572 17.8177 22.2644 18.2249 22.7654 18.2249C24.2679 18.2249 25.49 19.4471 25.49 20.9494C25.4901 22.0908 24.7699 23.1196 23.6976 23.5098Z" fill="url(#paint0_linear_3133_738)"/>
<path d="M0.908447 20.0413C0.406453 20.0413 0.000244141 20.4475 0.000244141 20.9495V30.0919C0.000244141 30.5939 0.406453 31.0001 0.908447 31.0001H3.633V20.0413H0.908447Z" fill="url(#paint1_linear_3133_738)"/>
<path d="M21.5398 5.66867L15.1825 0.219513C14.8437 -0.0731709 14.3399 -0.0731709 14.0011 0.219513L7.64379 5.66867C7.35468 5.91522 7.2509 6.3161 7.38301 6.67266C7.51428 7.02922 7.85395 7.26602 8.23448 7.26602H10.959C10.959 15.1177 10.959 23.1479 10.959 31.0001C13.2987 31.0001 14.9162 31.0001 17.3164 31.0001C17.8184 31.0001 18.2246 30.5939 18.2246 30.0919V28.0203C14.9949 26.3632 12.7754 23.0059 12.7754 19.1331C12.7754 15.2603 14.995 11.9029 18.2246 10.2458V7.26608H20.9491C21.3296 7.26608 21.6694 7.02928 21.8006 6.67272C21.9328 6.3161 21.829 5.91522 21.5398 5.66867Z" fill="url(#paint2_linear_3133_738)"/>
<path d="M6.41809 12.7756C5.9161 12.7756 5.50989 13.1818 5.50989 13.6838V20.0412V30.9999C6.83647 30.9999 7.85463 30.9999 9.14264 30.9999V12.7756H6.41809Z" fill="url(#paint3_linear_3133_738)"/>
<defs>
<linearGradient id="paint0_linear_3133_738" x1="22.8005" y1="12.1159" x2="22.8005" y2="27.0566" gradientUnits="userSpaceOnUse">
<stop stop-color="#00F1B5"/>
<stop offset="0.985" stop-color="#D9FF43"/>
</linearGradient>
<linearGradient id="paint1_linear_3133_738" x1="1.81768" y1="20.8166" x2="1.81767" y2="30.8325" gradientUnits="userSpaceOnUse">
<stop stop-color="#00F1B5"/>
<stop offset="0.985" stop-color="#D9FF43"/>
</linearGradient>
<linearGradient id="paint2_linear_3133_738" x1="14.5961" y1="2.19337" x2="14.5961" y2="30.526" gradientUnits="userSpaceOnUse">
<stop stop-color="#00F1B5"/>
<stop offset="0.985" stop-color="#D9FF43"/>
</linearGradient>
<linearGradient id="paint3_linear_3133_738" x1="7.32732" y1="14.0651" x2="7.32732" y2="30.7212" gradientUnits="userSpaceOnUse">
<stop stop-color="#00F1B5"/>
<stop offset="0.985" stop-color="#D9FF43"/>
</linearGradient>
</defs>
</svg>
