<svg width="79" height="93" viewBox="0 0 79 93" fill="none" xmlns="http://www.w3.org/2000/svg">
<path d="M7.7554 15.82C7.7554 15.82 3.53452 11.0619 2.63918 10.3329C1.74384 9.60381 5.19729 7.77476 6.02867 6.30385C6.67435 5.11882 7.25089 3.89742 7.7554 2.64575C8.19621 4.19734 8.93473 5.64832 9.9298 6.9178C10.7877 7.8286 11.7745 8.60861 12.8588 9.23289L11.0298 11.4329C10.4158 12.1875 7.7554 15.82 7.7554 15.82Z" fill="#00D999"/>
<path d="M18.833 60.2162C18.833 60.2162 16.5051 40.1223 40.27 30.2991C54.7617 24.3515 60.2488 22.6248 62.3209 22.126C63.6 21.8318 63.6 21.3074 63.6 21.3074L43.4804 20.783H17.3237C16.3965 20.9779 15.5391 21.4198 14.8424 22.062L12.8598 27.255L9.02266 34.0979L3.35645 41.8746L18.833 60.2162Z" fill="#00D999"/>
<path d="M3.07426 43.1662L38.3122 82.6251C38.473 82.8053 38.6701 82.9495 38.8905 83.0483C39.1109 83.1471 39.3498 83.1981 39.5913 83.1981C39.8328 83.1981 40.0716 83.1471 40.2921 83.0483C40.5125 82.9495 40.7096 82.8053 40.8703 82.6251L76.1723 43.1662C76.4134 42.8982 76.5632 42.5605 76.6 42.2019C76.6367 41.8433 76.5587 41.4822 76.3769 41.1709L64.9805 21.435C64.7829 21.0874 64.4962 20.7988 64.1501 20.5987C63.8039 20.3986 63.4106 20.2944 63.0108 20.2967H16.2357C15.8367 20.2983 15.445 20.4042 15.0995 20.6039C14.754 20.8036 14.4666 21.0901 14.266 21.435L10.9277 27.2164C10.8321 27.4166 10.8154 27.6454 10.881 27.8573C10.9466 28.0693 11.0895 28.2487 11.2814 28.36C11.4733 28.4713 11.7001 28.5062 11.9166 28.4578C12.1331 28.4094 12.3235 28.2813 12.4497 28.0989L15.0078 23.6478L15.4171 22.9315L15.8264 23.6478L25.5856 40.5441L25.9949 41.2604H4.85214L5.26144 40.5441L9.39279 33.3942C9.50183 33.1927 9.52945 32.957 9.46996 32.7357C9.41048 32.5144 9.26842 32.3244 9.07303 32.2047C8.93678 32.1254 8.7829 32.0815 8.62536 32.0768C8.47146 32.0791 8.32084 32.1216 8.18846 32.2002C8.05608 32.2787 7.94654 32.3905 7.87072 32.5244L2.86961 41.1709C2.68982 41.4828 2.61284 41.8434 2.64957 42.2016C2.68631 42.5597 2.83489 42.8972 3.07426 43.1662ZM73.256 43.8057L43.1854 77.4065L41.7913 78.967L42.3796 76.9588L52.2795 43.3453L52.3819 43.0127H73.9595L73.256 43.8057ZM63.4073 23.6478L63.8166 22.9315L64.2387 23.6478L73.9851 40.5441L74.3944 41.2604H53.2516L53.6609 40.5441L63.4073 23.6478ZM41.9703 22.0618H62.3073L61.898 22.7652L52.1388 39.6616L51.7807 40.3778L51.3714 39.6616L41.5482 22.7652L41.139 22.0618H41.9703ZM39.6297 22.9315L40.039 23.6478L49.7982 40.5441L50.2075 41.2604H49.2226C48.9919 41.2604 48.7707 41.352 48.6076 41.5151C48.4445 41.6782 48.3528 41.8995 48.3528 42.1301C48.3528 42.362 48.444 42.5846 48.6068 42.7497C48.7695 42.9149 48.9907 43.0093 49.2226 43.0127H50.5016L50.3226 43.6139L40.0006 78.66L39.5401 80.2076L39.0925 78.66L28.86 43.6139L28.7577 43.0127H42.482C42.7138 43.0093 42.935 42.9149 43.0978 42.7497C43.2605 42.5846 43.3517 42.362 43.3517 42.1301C43.3517 41.8995 43.2601 41.6782 43.097 41.5151C42.9339 41.352 42.7126 41.2604 42.482 41.2604H29.0519L29.4612 40.5441L39.2204 23.6478L39.6297 22.9315ZM17.3613 22.7652L16.952 22.0618H38.1076L37.6983 22.7652L27.9391 39.6616L27.4786 40.3778L27.0693 39.6616L17.3613 22.7652ZM6.34864 43.0127H26.8135L26.9159 43.358L36.8157 76.9588L37.4041 78.9797L36.0099 77.4065L6.00329 43.8057L5.28702 43.0127H6.34864Z" fill="#003D2B"/>
<path d="M73.9595 15.8201C73.9595 15.8201 72.6804 18.9921 71.4014 19.7212C70.8157 20.1223 70.1381 20.3687 69.4316 20.4375C70.1388 20.673 70.7923 21.0463 71.3543 21.5359C71.9163 22.0255 72.3758 22.6216 72.706 23.2898C72.9428 24.1786 73.3804 25.0012 73.9851 25.6944C73.9851 25.6944 74.7141 22.7526 75.699 22.0363C76.5211 21.4558 77.3751 20.9221 78.2571 20.4375C77.3155 19.8795 76.4176 19.251 75.5711 18.5572C74.967 17.6859 74.4283 16.771 73.9595 15.8201Z" fill="#00D999"/>
<path d="M65.4415 71.6635L64.8787 69.3612C64.8062 69.0744 64.6421 68.8193 64.4111 68.6345C64.1802 68.4498 63.8952 68.3456 63.5996 68.3379C63.3004 68.3319 63.0085 68.431 62.7748 68.6179C62.5411 68.8049 62.3804 69.0679 62.3206 69.3612L61.7578 71.6635C61.3202 73.3021 60.5044 74.8152 59.3759 76.0814C58.2475 77.3476 56.8378 78.3315 55.2602 78.9541L55.1195 79.0308C54.9216 79.1613 54.7592 79.3389 54.6468 79.5476C54.5344 79.7563 54.4756 79.9897 54.4756 80.2267C54.4756 80.4638 54.5344 80.6971 54.6468 80.9059C54.7592 81.1146 54.9216 81.2921 55.1195 81.4227L55.2602 81.4994C56.8378 82.122 58.2475 83.1059 59.3759 84.3721C60.5044 85.6382 61.3202 87.1514 61.7578 88.79L62.3206 91.0923C62.3804 91.3856 62.5411 91.6486 62.7748 91.8355C63.0085 92.0225 63.3004 92.1216 63.5996 92.1156C63.8952 92.1078 64.1802 92.0037 64.4111 91.8189C64.6421 91.6342 64.8062 91.379 64.8787 91.0923L65.4415 88.79C65.8772 87.1505 66.6923 85.6364 67.821 84.37C68.9497 83.1036 70.3603 82.1202 71.9391 81.4994L72.067 81.4227C72.2649 81.2921 72.4273 81.1146 72.5397 80.9059C72.652 80.6971 72.7109 80.4638 72.7109 80.2267C72.7109 79.9897 72.652 79.7563 72.5397 79.5476C72.4273 79.3389 72.2649 79.1613 72.067 79.0308L71.9391 78.9541C71.0823 78.5811 70.2676 78.118 69.5089 77.5727C69.3572 77.4721 69.1792 77.4187 68.9972 77.4192C68.8577 77.4161 68.7195 77.447 68.5947 77.5095C68.4699 77.5719 68.3622 77.6638 68.281 77.7773C68.207 77.8729 68.1532 77.9825 68.1228 78.0995C68.0924 78.2164 68.0859 78.3383 68.1038 78.4578C68.1218 78.5773 68.1637 78.692 68.2271 78.7949C68.2905 78.8977 68.3741 78.9867 68.4728 79.0564C68.8657 79.3152 69.2713 79.5542 69.6879 79.7727L70.4042 80.182L69.6879 80.6041C66.9948 82.078 64.9675 84.5263 64.0217 87.447L63.574 88.7261L63.1264 87.447C62.1422 84.5576 60.0991 82.1489 57.409 80.7064L56.6799 80.2843L57.409 79.7727C60.0991 78.3302 62.1422 75.9214 63.1264 73.032L63.574 71.753L64.0217 73.032V73.1216C64.08 73.3007 64.1926 73.4573 64.3439 73.5695C64.4951 73.6818 64.6776 73.7443 64.8659 73.7483C64.9636 73.7605 65.0624 73.7605 65.1601 73.7483C65.3784 73.6674 65.5566 73.5046 65.6569 73.2945C65.7572 73.0843 65.7717 72.8434 65.6973 72.6228C65.5923 72.3086 65.5069 71.9882 65.4415 71.6635Z" fill="#003D2B"/>
<path d="M76.006 20.8339C75.3491 21.3328 74.7898 21.9485 74.356 22.6501L73.9595 23.3152L73.5246 22.6501C73.0909 21.9485 72.5315 21.3328 71.8747 20.8339L71.3758 20.4629L71.8747 20.0792C72.534 19.5881 73.0939 18.9761 73.5246 18.2758L73.9339 17.6107L74.3304 18.2758C74.7611 18.9761 75.3211 19.5881 75.9804 20.0792L76.4793 20.4629L76.006 20.8339ZM78.3467 19.4269C77.6073 19.1453 76.9462 18.6906 76.4187 18.1009C75.8913 17.5111 75.5129 16.8035 75.3153 16.0374L75.0339 14.8863C74.9747 14.6444 74.8359 14.4293 74.64 14.2756C74.444 14.1219 74.2022 14.0383 73.9531 14.0383C73.7041 14.0383 73.4622 14.1219 73.2663 14.2756C73.0703 14.4293 72.9316 14.6444 72.8723 14.8863L72.5909 16.0374C72.3933 16.8035 72.0149 17.5111 71.4875 18.1009C70.9601 18.6906 70.299 19.1453 69.5596 19.4269C69.5134 19.4403 69.4701 19.462 69.4317 19.4909C69.2706 19.5968 69.1383 19.7411 69.0468 19.9107C68.9553 20.0804 68.9073 20.2702 68.9073 20.4629C68.9059 20.6542 68.9534 20.8427 69.0452 21.0105C69.1369 21.1784 69.2699 21.3201 69.4317 21.4222C69.4694 21.4552 69.5127 21.4812 69.5596 21.499C70.299 21.7806 70.9601 22.2353 71.4875 22.825C72.0149 23.4148 72.3933 24.1224 72.5909 24.8885L72.8723 26.0396C72.9316 26.2815 73.0703 26.4965 73.2663 26.6503C73.4622 26.804 73.7041 26.8876 73.9531 26.8876C74.2022 26.8876 74.444 26.804 74.64 26.6503C74.8359 26.4965 74.9747 26.2815 75.0339 26.0396L75.3153 24.8885C75.5129 24.1224 75.8913 23.4148 76.4187 22.825C76.9462 22.2353 77.6073 21.7806 78.3467 21.499C78.3935 21.4812 78.4369 21.4552 78.4746 21.4222C78.6363 21.3201 78.7693 21.1784 78.8611 21.0105C78.9528 20.8427 79.0003 20.6542 78.999 20.4629C78.9989 20.2702 78.951 20.0804 78.8594 19.9107C78.7679 19.7411 78.6357 19.5968 78.4746 19.4909C78.4362 19.462 78.3928 19.4403 78.3467 19.4269Z" fill="#003D2B"/>
<path d="M14.0232 8.68284L13.8953 8.6061C12.7871 8.17197 11.7971 7.48232 11.0059 6.59328C10.2146 5.70423 9.64447 4.64092 9.34184 3.48988L8.93254 1.83989C8.8759 1.56973 8.72803 1.32729 8.51375 1.15327C8.29947 0.97926 8.03185 0.884277 7.75581 0.884277C7.47977 0.884277 7.21215 0.97926 6.99787 1.15327C6.78359 1.32729 6.63572 1.56973 6.57908 1.83989L6.16978 3.48988C5.86433 4.63961 5.29317 5.70155 4.50228 6.59019C3.71139 7.47883 2.72288 8.16933 1.61634 8.6061L1.47565 8.68284C1.29886 8.79934 1.15375 8.95791 1.05335 9.14431C0.95295 9.33072 0.900391 9.53913 0.900391 9.75085C0.900391 9.96257 0.95295 10.171 1.05335 10.3574C1.15375 10.5438 1.29886 10.7024 1.47565 10.8189L1.61634 10.8956C2.72288 11.3324 3.71139 12.0229 4.50228 12.9115C5.29317 13.8002 5.86433 14.8621 6.16978 16.0118L6.57908 17.6618C6.63572 17.932 6.78359 18.1744 6.99787 18.3484C7.21215 18.5224 7.47977 18.6174 7.75581 18.6174C8.03185 18.6174 8.29947 18.5224 8.51375 18.3484C8.72803 18.1744 8.8759 17.932 8.93254 17.6618L9.34184 16.0118C9.6528 14.8647 10.226 13.8054 11.0162 12.9176C11.8063 12.0297 12.7919 11.3376 13.8953 10.8956L14.0232 10.8317C14.2 10.7152 14.3451 10.5566 14.4455 10.3702C14.5459 10.1838 14.5984 9.97537 14.5984 9.76364C14.5984 9.55192 14.5459 9.34351 14.4455 9.1571C14.3451 8.9707 14.2 8.81213 14.0232 8.69563V8.68284ZM11.5674 10.1538C10.0882 11.0756 8.91015 12.4092 8.1779 13.9909L7.75581 14.9374L7.32093 13.9909C6.59378 12.4059 5.4146 11.071 3.93143 10.1538L3.31749 9.74446L3.93143 9.34795C5.4146 8.43073 6.59378 7.09582 7.32093 5.51078L7.75581 4.56428L8.1779 5.51078C8.91015 7.0925 10.0882 8.42608 11.5674 9.34795L12.1813 9.74446L11.5674 10.1538Z" fill="#003D2B"/>
</svg>
