<svg width="86" height="44" viewBox="0 0 86 44" fill="none" xmlns="http://www.w3.org/2000/svg">
<path d="M63.8857 0.611084H22.1143C10.2401 0.611084 0.614258 10.1872 0.614258 22C0.614258 33.8127 10.2401 43.3889 22.1143 43.3889H63.8857C75.7598 43.3889 85.3857 33.8127 85.3857 22C85.3857 10.1872 75.7598 0.611084 63.8857 0.611084Z" fill="white"/>
<path fill-rule="evenodd" clip-rule="evenodd" d="M22.1143 1.11108C10.5138 1.11108 1.11426 10.4658 1.11426 22C1.11426 33.5341 10.5138 42.8889 22.1143 42.8889H63.8857C75.4861 42.8889 84.8857 33.5341 84.8857 22C84.8857 10.4658 75.4861 1.11108 63.8857 1.11108H22.1143ZM0.114258 22C0.114258 9.90863 9.96644 0.111084 22.1143 0.111084H63.8857C76.0335 0.111084 85.8857 9.90863 85.8857 22C85.8857 34.0913 76.0335 43.8889 63.8857 43.8889H22.1143C9.96644 43.8889 0.114258 34.0913 0.114258 22Z" fill="#1A1F71"/>
<path d="M57.6254 13.0179C56.5977 12.6341 54.9875 12.2222 52.9765 12.2222C47.851 12.2222 44.2407 14.7918 44.2099 18.4744C44.181 21.1966 46.7874 22.7151 48.755 23.6214C50.774 24.55 51.4528 25.1423 51.443 25.9715C51.4303 27.2413 49.8307 27.8215 48.3398 27.8215C46.2637 27.8215 45.1607 27.5344 43.4571 26.827L42.7888 26.526L42.0607 30.767C43.2722 31.2958 45.5126 31.754 47.8388 31.7778C53.2913 31.7778 56.831 29.2376 56.8713 25.3051C56.8908 23.15 55.5087 21.5099 52.5162 20.1578C50.7031 19.2814 49.5927 18.6966 49.6045 17.8091C49.6045 17.0216 50.5444 16.1796 52.5751 16.1796C54.2713 16.1534 55.4999 16.5216 56.4574 16.9054L56.9221 17.124L57.6254 13.0179Z" fill="#1A1F71"/>
<path d="M36.8447 12.4048H42.0319L38.7866 31.35H33.6017L36.8447 12.4048Z" fill="#1A1F71"/>
<path fill-rule="evenodd" clip-rule="evenodd" d="M66.9184 12.5696H70.9265L75.1249 31.5026H70.3117C70.3117 31.5026 69.8359 29.327 69.6806 28.6638C69.2797 28.6638 67.6054 28.6615 66.0313 28.6594H66.0282C64.633 28.6574 63.3171 28.6556 63.0376 28.6556C62.8361 29.1682 61.9455 31.5026 61.9455 31.5026H56.4987L64.2023 14.1406C64.7477 12.9069 65.6768 12.5696 66.9184 12.5696ZM66.5969 19.4846C66.5969 19.4846 64.9593 23.6891 64.5303 24.7807L68.8361 24.7804C68.6285 23.8321 67.6353 19.3099 67.6353 19.3099L67.2848 17.6765C67.1475 18.0489 66.957 18.5411 66.811 18.918C66.6782 19.261 66.5824 19.5086 66.5969 19.4846Z" fill="#1A1F71"/>
<path d="M29.277 12.5653L24.1987 25.4844L23.6576 22.859L21.8388 14.1529C21.5248 12.9533 20.614 12.5953 19.4874 12.5535H11.1233L11.0571 12.9477C12.9414 13.4018 14.641 14.0422 16.1484 14.8334C16.4233 15.0046 16.5396 15.1929 16.6276 15.4605L21.1173 31.4803L26.6053 31.474L34.7715 12.5653H29.277Z" fill="#1A1F71"/>
</svg>
