<svg width="50" height="49" viewBox="0 0 50 49" fill="none" xmlns="http://www.w3.org/2000/svg">
<path d="M41.3327 17.9998C41.3327 21.3832 40.3293 24.4865 38.6027 27.0765C36.0827 30.8099 32.0927 33.4465 27.4493 34.1232C26.656 34.2632 25.8393 34.3332 24.9993 34.3332C24.1593 34.3332 23.3427 34.2632 22.5493 34.1232C17.906 33.4465 13.916 30.8099 11.396 27.0765C9.66935 24.4865 8.66602 21.3832 8.66602 17.9998C8.66602 8.96984 15.9693 1.6665 24.9993 1.6665C34.0293 1.6665 41.3327 8.96984 41.3327 17.9998Z" stroke="#003D2B" stroke-width="2" stroke-linecap="round" stroke-linejoin="round"/>
<path d="M46.5838 40.0968L42.7338 41.0067C41.8705 41.2167 41.1938 41.8701 41.0072 42.7335L40.1905 46.1635C39.7472 48.0301 37.3672 48.5901 36.1305 47.1201L25.0005 34.3334L13.8705 47.1434C12.6338 48.6134 10.2538 48.0534 9.81051 46.1867L8.99384 42.7567C8.78384 41.8934 8.10718 41.2168 7.26718 41.0301L3.41718 40.1201C1.64384 39.7001 1.01384 37.4834 2.29718 36.2001L11.3972 27.1001C13.9172 30.8334 17.9072 33.4701 22.5505 34.1468C23.3438 34.2868 24.1605 34.3568 25.0005 34.3568C25.8405 34.3568 26.6572 34.2868 27.4505 34.1468C32.0938 33.4701 36.0838 30.8334 38.6038 27.1001L47.7038 36.2001C48.9872 37.4601 48.3572 39.6768 46.5838 40.0968Z" stroke="#003D2B" stroke-width="2" stroke-linecap="round" stroke-linejoin="round"/>
<path d="M26.3526 10.9535L27.7293 13.7068C27.916 14.0801 28.406 14.4535 28.8493 14.5235L31.346 14.9435C32.9326 15.2001 33.306 16.3668 32.1626 17.5102L30.226 19.4468C29.8993 19.7735 29.7126 20.4035 29.8293 20.8702L30.3893 23.2735C30.8326 25.1635 29.8293 25.9101 28.1493 24.9068L25.816 23.5301C25.396 23.2735 24.696 23.2735 24.276 23.5301L21.9426 24.9068C20.2626 25.8868 19.2593 25.1635 19.7026 23.2735L20.2626 20.8702C20.356 20.4268 20.1926 19.7735 19.866 19.4468L17.9293 17.5102C16.786 16.3668 17.1593 15.2235 18.746 14.9435L21.2426 14.5235C21.6626 14.4535 22.1526 14.0801 22.3393 13.7068L23.716 10.9535C24.3926 9.46016 25.606 9.46016 26.3526 10.9535Z" fill="#00D999" stroke="#003D2B" stroke-width="2" stroke-linecap="round" stroke-linejoin="round"/>
</svg>
