<svg width="34" height="36" viewBox="0 0 34 36" fill="none" xmlns="http://www.w3.org/2000/svg">
<path d="M25.4291 11.3346L23.9768 10.4961C23.9929 10.3069 24.0008 10.1197 24.0008 9.93257C24.0008 9.74542 23.9929 9.55834 23.9768 9.36906L25.4291 8.53053C25.9075 8.25437 26.0713 7.64273 25.7952 7.16442L23.795 3.70003C23.5189 3.22173 22.9072 3.05778 22.4289 3.334L20.9741 4.17393C20.6657 3.96111 20.3405 3.7737 20.0005 3.61275V1.93196C20.0005 1.37965 19.5528 0.931885 19.0005 0.931885H15.0002C14.4478 0.931885 14.0001 1.37965 14.0001 1.93196V3.61275C13.6601 3.7737 13.335 3.96105 13.0265 4.17393L11.5717 3.334C11.0934 3.05785 10.4817 3.22173 10.2056 3.70003L8.20544 7.16442C7.92928 7.64273 8.09316 8.25437 8.57147 8.53053L10.0238 9.36906C10.0077 9.55834 9.99977 9.74542 9.99977 9.93257C9.99977 10.1197 10.0077 10.3068 10.0238 10.4961L8.57147 11.3346C8.09316 11.6108 7.92928 12.2224 8.20544 12.7007L10.2056 16.1651C10.4817 16.6434 11.0934 16.8074 11.5717 16.5312L13.0265 15.6913C13.335 15.9041 13.6601 16.0915 14.0001 16.2524V17.9332C14.0001 18.4855 14.4479 18.9333 15.0002 18.9333H19.0005C19.5528 18.9333 20.0006 18.4855 20.0006 17.9332V16.2524C20.3406 16.0914 20.6658 15.9041 20.9742 15.6912L22.4291 16.5311C22.9074 16.8073 23.519 16.6434 23.7952 16.165L25.7953 12.7006C26.0714 12.2224 25.9075 11.6108 25.4291 11.3346ZM17.0003 12.4328C15.6195 12.4328 14.5001 11.3134 14.5001 9.93257C14.5001 8.55173 15.6195 7.43238 17.0003 7.43238C18.3811 7.43238 19.5005 8.55173 19.5005 9.93257C19.5005 11.3134 18.3811 12.4328 17.0003 12.4328Z" fill="#FF6100"/>
<path d="M17.999 35.0676H26.333C26.6466 35.0676 26.9421 34.9204 27.1311 34.6702L32.8557 27.0891C33.5937 26.1117 34.0002 24.8989 34.0002 23.674V10.2324C34.0002 8.85153 32.8809 7.73218 31.5 7.73218C30.1192 7.73218 28.9999 8.85153 28.9999 10.2324V17.3739C29.1217 17.4725 29.2397 17.5781 29.353 17.6914C31.1082 19.4465 31.1082 22.3017 29.3534 24.0564L25.2618 28.148C24.8713 28.5386 24.2381 28.5386 23.8475 28.148C23.457 27.7574 23.457 27.1243 23.8475 26.7337L27.9391 22.6421C28.9157 21.6656 28.9155 20.0823 27.9389 19.1059C26.9624 18.1296 25.3794 18.1298 24.4031 19.1062L19.4636 24.0459C18.5258 24.9836 17.999 26.2555 17.999 27.5816V35.0676Z" fill="#020202"/>
<path d="M9.59524 19.1061L14.5347 24.0459C15.4725 24.9836 15.9993 26.2555 15.9993 27.5816V35.0676H7.6653C7.35167 35.0676 7.05618 34.9204 6.86717 34.6702L1.1426 27.0891C0.404544 26.1117 -0.00195312 24.8989 -0.00195312 23.674V10.2324C-0.00195312 8.85153 1.1174 7.73218 2.49824 7.73218C3.87907 7.73218 4.99843 8.85153 4.99843 10.2324V17.3739C4.87662 17.4725 4.75854 17.5781 4.64527 17.6914C2.89013 19.4465 2.89013 22.3017 4.64487 24.0564L8.73644 28.148C9.12701 28.5386 9.76019 28.5386 10.1508 28.148C10.5413 27.7574 10.5413 27.1243 10.1508 26.7337L6.05917 22.6421C5.08263 21.6656 5.08277 20.0823 6.05937 19.1059C7.03591 18.1296 8.6189 18.1297 9.59524 19.1061Z" fill="#020202"/>
</svg>
