<svg width="122" height="59" viewBox="0 0 122 59" fill="none" xmlns="http://www.w3.org/2000/svg">
<path d="M14.029 25.0919L8.6461 17.2622C7.86313 17.2622 6.36244 18.8934 5.70996 19.709V30.9642H12.561C15.6928 30.1812 14.8446 26.7231 14.029 25.0919Z" fill="#7BDAF8"/>
<path d="M86.4541 19.2192L28.2207 17.2617C27.8944 17.2617 27.3398 16.5766 27.7313 13.8363C32.8206 6.78956 43.5539 3.07041 48.2843 2.09169C50.4048 1.92854 54.8417 1.70013 55.6246 2.09169C68.1522 0.917231 81.3974 13.0206 86.4541 19.2192Z" fill="#7BDAF8"/>
<path d="M120.87 41.9514H108.785" stroke="#01040D" stroke-width="2" stroke-miterlimit="10" stroke-linecap="round" stroke-linejoin="round"/>
<path d="M105.76 21.103C110.01 22.3486 113.57 23.9492 116.167 25.3052C119.054 26.8122 120.868 29.7902 120.868 33.0483V41.9513V45.6528C120.868 48.2451 118.764 50.3484 116.172 50.3484H109.504" stroke="#01040D" stroke-width="2" stroke-miterlimit="10" stroke-linecap="round" stroke-linejoin="round"/>
<path d="M90.2334 50.3484H54.3154" stroke="#01040D" stroke-width="2" stroke-miterlimit="10" stroke-linecap="round" stroke-linejoin="round"/>
<path d="M45.9297 50.3484H38.1074" stroke="#01040D" stroke-width="2" stroke-miterlimit="10" stroke-linecap="round" stroke-linejoin="round"/>
<path d="M18.6586 49.7881L2.37666 46.4989C2.03885 46.4316 1.79688 46.1345 1.79688 45.7919V41.9514V34.7975C1.79688 34.4 2.12031 34.0764 2.52041 34.0764H6.0135V20.0369C6.0135 18.4701 7.28328 17.2003 8.84774 17.2003H16.2412C18.9748 12.9072 22.9111 9.56725 26.7636 7.07082C32.9783 3.0437 40.3406 1.1582 47.7365 1.55327L56.1003 2.00129C64.2436 2.43732 71.9869 5.66951 78.0315 11.1461C80.5184 13.4005 83.47 16.1102 86.8577 19.2775C90.6239 18.8654 94.2344 18.9636 97.6053 19.3901" stroke="#01040D" stroke-width="2" stroke-miterlimit="10" stroke-linecap="round" stroke-linejoin="round"/>
<path d="M28.474 36.7283C22.8314 36.7283 18.2568 41.3028 18.2568 46.9454C18.2568 52.5883 22.8314 57.1628 28.474 57.1628C34.1168 57.1628 38.6914 52.5883 38.6914 46.9454C38.6914 41.3028 34.1168 36.7283 28.474 36.7283Z" fill="#2047F4" stroke="#01040D" stroke-width="2" stroke-miterlimit="10" stroke-linecap="round" stroke-linejoin="round"/>
<path d="M28.4749 42.8672C26.2226 42.8672 24.3965 44.693 24.3965 46.9453C24.3965 49.1978 26.2226 51.0239 28.4749 51.0239C30.7272 51.0239 32.5533 49.1978 32.5533 46.9453C32.5533 44.693 30.7272 42.8672 28.4749 42.8672Z" stroke="#01040D" stroke-width="2" stroke-miterlimit="10" stroke-linecap="round" stroke-linejoin="round"/>
<path d="M99.8685 36.7283C94.2259 36.7283 89.6514 41.3028 89.6514 46.9454C89.6514 52.5883 94.2259 57.1628 99.8685 57.1628C105.511 57.1628 110.086 52.5883 110.086 46.9454C110.086 41.3028 105.511 36.7283 99.8685 36.7283Z" fill="#2047F4" stroke="#01040D" stroke-width="2" stroke-miterlimit="10" stroke-linecap="round" stroke-linejoin="round"/>
<path d="M99.8694 42.8672C97.6171 42.8672 95.791 44.693 95.791 46.9453C95.791 49.1978 97.6171 51.0239 99.8694 51.0239C102.122 51.0239 103.948 49.1978 103.948 46.9453C103.948 44.693 102.122 42.8672 99.8694 42.8672Z" stroke="#01040D" stroke-width="2" stroke-miterlimit="10" stroke-linecap="round" stroke-linejoin="round"/>
<path d="M50.9878 1.72852C45.6406 2.32436 40.4705 4.1193 35.9172 7.07094C33.0454 8.93224 30.1254 11.2629 27.6931 14.1077C26.6301 15.3511 27.4555 17.2699 29.0906 17.3252L86.8591 19.2773" stroke="#01040D" stroke-width="2" stroke-miterlimit="10" stroke-linecap="round" stroke-linejoin="round"/>
<path d="M56.1006 2.00212C56.8713 3.54718 58.5357 11.3486 56.1006 18.238" stroke="#01040D" stroke-width="2" stroke-miterlimit="10" stroke-linecap="round" stroke-linejoin="round"/>
<path d="M61.333 24.5847H62.5788" stroke="#01040D" stroke-width="2" stroke-miterlimit="10" stroke-linecap="round" stroke-linejoin="round"/>
<path d="M34.4775 24.5845H35.7234" stroke="#01040D" stroke-width="2" stroke-miterlimit="10" stroke-linecap="round" stroke-linejoin="round"/>
<path d="M6.01367 30.9236H11.9352C13.3841 30.9236 14.5586 29.7492 14.5586 28.3004V26.7537C14.5586 26.2151 14.3928 25.6892 14.0835 25.2482L8.46315 17.2299" stroke="#01040D" stroke-width="2" stroke-miterlimit="10" stroke-linecap="round" stroke-linejoin="round"/>
<path d="M120.107 29.4903C119.297 29.3882 118.439 29.3329 117.55 29.3329C112.665 29.3329 108.705 29.5509 108.705 31.5931C108.705 33.9829 112.665 36.7283 117.55 36.7283C118.724 36.7283 119.843 36.632 120.868 36.4583" fill="#2047F4"/>
<path d="M120.107 29.4903C119.297 29.3882 118.439 29.3329 117.55 29.3329C112.665 29.3329 108.705 29.5509 108.705 31.5931C108.705 33.9829 112.665 36.7283 117.55 36.7283C118.724 36.7283 119.843 36.632 120.868 36.4583" stroke="#01040D" stroke-width="2" stroke-miterlimit="10" stroke-linecap="round" stroke-linejoin="round"/>
</svg>
