<svg viewBox="0 0 34 34" fill="none" xmlns="http://www.w3.org/2000/svg">
<path fill-rule="evenodd" clip-rule="evenodd" d="M11.7105 2.24466C16.9304 2.24466 21.1766 6.49094 21.1766 11.7105C21.1766 13.9391 20.4025 15.9904 19.109 17.6094C18.6721 18.1563 18.1759 18.6539 17.6302 19.0923C16.008 20.3958 13.9488 21.1766 11.7105 21.1766C6.49087 21.1766 2.24466 16.9303 2.24466 11.7105C2.24472 6.49094 6.49094 2.24466 11.7105 2.24466ZM20.3799 24.1376C20.0816 24.436 20.0816 24.9226 20.3799 25.221L28.9352 33.7762C29.2336 34.0746 29.7202 34.0746 30.0185 33.7762L33.7763 30.0184C34.0746 29.7201 34.0746 29.2334 33.7763 28.9351L25.221 20.3799C24.9227 20.0815 24.436 20.0815 24.1377 20.3799L23.125 21.3925L20.8087 19.0762C20.8342 19.0448 20.8595 19.0133 20.8846 18.9816C22.472 16.9829 23.4212 14.4555 23.4212 11.7105C23.4213 5.2532 18.1681 0 11.7105 0C5.25326 0 6.10352e-05 5.2532 6.10352e-05 11.7105C6.10352e-05 18.1681 5.25319 23.4213 11.7105 23.4213C14.4659 23.4213 17.0019 22.4649 19.0042 20.8666C19.028 20.8476 19.0518 20.8285 19.0755 20.8093L21.3919 23.1256L20.3799 24.1376ZM15.3992 14.2131C15.3291 12.0189 13.4811 11.2041 12.1325 10.6089C10.8673 10.0507 10.3106 9.74127 10.2841 9.12369C10.2701 8.79318 10.3973 8.46972 10.6423 8.21498C10.9161 7.92857 11.299 7.76435 11.6922 7.76435C12.2216 7.76435 12.702 8.06079 12.946 8.53712C13.2311 9.09394 13.9134 9.31394 14.4702 9.02886C15.0263 8.74444 15.2463 8.06212 14.9619 7.5053C14.5106 6.62369 13.7442 5.98041 12.8402 5.68331V5.32246C12.8402 4.69691 12.3334 4.1905 11.7079 4.1905C11.0823 4.1905 10.5759 4.69691 10.5759 5.32246V5.67395C9.98497 5.86155 9.44223 6.19438 9.0076 6.64773C8.33199 7.35303 7.98176 8.26605 8.0222 9.21978C8.11065 11.3091 9.90728 12.1016 11.2181 12.6798C12.534 13.2607 13.1138 13.5884 13.1355 14.2854C13.1469 14.6262 13.0147 14.9567 12.7643 15.2151C12.4933 15.4958 12.1154 15.6565 11.7282 15.6565C11.1991 15.6565 10.7188 15.36 10.4747 14.884C10.1893 14.3271 9.50731 14.1072 8.95049 14.392C8.39434 14.6767 8.17434 15.3594 8.45942 15.9155C8.90939 16.7957 9.67419 17.4383 10.5758 17.7355V18.0983C10.5758 18.7239 11.0822 19.2306 11.7078 19.2306C12.3334 19.2306 12.8401 18.7238 12.8401 18.0983V17.7475C13.423 17.5629 13.9594 17.2361 14.391 16.7908C15.0717 16.0881 15.4296 15.1728 15.3992 14.2131Z" fill="url(#paint0_linear_724_268)"/>
<defs>
<linearGradient id="paint0_linear_724_268" x1="17.0099" y1="2.40562" x2="17.0099" y2="33.48" gradientUnits="userSpaceOnUse">
<stop stop-color="#00F1B5"/>
<stop offset="0.985" stop-color="#D9FF43"/>
</linearGradient>
</defs>
</svg>
