<svg width="28" height="36" viewBox="0 0 28 36" fill="none" xmlns="http://www.w3.org/2000/svg">
<path d="M9.41214 31.446H2.07443C1.04424 31.446 0.206055 32.2842 0.206055 33.3151C0.206055 34.3453 1.04424 35.1835 2.07443 35.1835H12.7105C11.3457 34.2089 10.213 32.9296 9.41214 31.446Z" fill="#020202"/>
<path d="M2.07443 29.4103H8.56655C8.26453 28.41 8.10301 27.3506 8.10301 26.2539C8.10301 26.0591 8.10844 25.8657 8.11794 25.6736H2.07443C1.04424 25.6736 0.206055 26.5118 0.206055 27.542C0.206055 28.5722 1.04424 29.4103 2.07443 29.4103Z" fill="#020202"/>
<path d="M2.07443 23.6378H8.4186C8.7532 22.275 9.34359 21.0107 10.1356 19.9004H2.07443C1.04424 19.9004 0.206055 20.7386 0.206055 21.7688C0.206055 22.7996 1.04424 23.6378 2.07443 23.6378Z" fill="#020202"/>
<path d="M2.07443 17.8641H12.0141C13.6504 16.4858 15.6938 15.577 17.9348 15.3456C17.6701 14.6351 16.9847 14.1274 16.1831 14.1274H2.07443C1.04424 14.1274 0.206055 14.9656 0.206055 15.9958C0.206055 17.0259 1.04424 17.8641 2.07443 17.8641Z" fill="#020202"/>
<path d="M12.8005 19.9001C11.7602 20.9269 10.9702 22.2061 10.5304 23.6374C8.69932 29.5946 13.4266 35.5599 19.6204 35.1672C24.2896 34.8822 28.0005 30.9935 28.0005 26.2537C28.0006 18.4505 18.5077 14.2643 12.8005 19.9001ZM22.293 28.6643C22.109 29.759 21.311 30.8686 20.0622 31.2799V31.5514C20.0622 32.1511 19.544 32.6158 18.9716 32.5666C18.4436 32.5293 18.0263 32.0895 18.0263 31.5514V31.3987C17.3567 31.3101 16.838 31.0651 16.2638 30.6888C16.1545 30.6175 16.0636 30.5286 15.9923 30.4282C15.3638 29.5486 16.364 28.431 17.3055 28.9412H17.3062C17.8452 29.2264 17.8348 29.4197 19.011 29.4102C19.2893 29.4082 19.5254 29.3301 19.7154 29.2059V29.2052C20.3754 28.7745 20.6629 27.5907 19.5912 27.2113C18.7272 26.9069 17.2345 26.3477 16.6417 25.6463H16.6411C15.4418 24.2668 16.138 21.7828 18.0262 21.2316C18.0262 20.9702 17.9659 20.4136 18.525 20.0806C19.0992 19.7398 20.0622 19.9649 20.0622 21.1827C20.2968 21.2446 20.614 21.3713 20.9313 21.5178C21.5607 21.8085 21.7252 22.6275 21.2552 23.1371C20.9532 23.4645 20.4734 23.558 20.0704 23.3684C19.7604 23.2226 19.3287 22.9625 18.6254 23.1767C18.0536 23.3497 17.9737 24.1571 18.2026 24.3351C18.6982 24.7259 19.6701 25.0795 20.2698 25.2914C21.7317 25.8086 22.5454 27.1639 22.293 28.6643Z" fill="#FF6100"/>
<path d="M4.99228 7.36386H6.25526C6.71338 7.36386 7.08463 7.7351 7.08463 8.19315V11.2621C7.08463 11.7202 7.45587 12.0914 7.91324 12.0914H10.3449C10.8023 12.0914 11.1736 11.7201 11.1736 11.2621V8.19315C11.1736 7.73504 11.5448 7.36386 12.0029 7.36386H13.2658C13.9282 7.36386 14.3232 6.62476 13.9547 6.07373L9.81827 0.804546C9.48978 0.313849 8.7684 0.313849 8.43991 0.804546L4.30347 6.07373C3.93494 6.62476 4.32994 7.36386 4.99228 7.36386Z" fill="#020202"/>
</svg>
