<svg width="66" height="66" viewBox="0 0 66 66" fill="none" xmlns="http://www.w3.org/2000/svg">
<path d="M64.0664 -0.000213623H1.93359C1.42077 -0.000213623 0.928956 0.20352 0.566337 0.566167C0.203717 0.928815 0 1.42067 0 1.93353L0 11.6023H66V1.93353C66 1.42067 65.7963 0.928815 65.4337 0.566167C65.071 0.20352 64.5792 -0.000213623 64.0664 -0.000213623ZM44.6016 7.73477C44.2191 7.73477 43.8453 7.62135 43.5273 7.40887C43.2093 7.19639 42.9615 6.89438 42.8152 6.54103C42.6688 6.18769 42.6305 5.79888 42.7051 5.42377C42.7797 5.04866 42.9639 4.7041 43.2343 4.43366C43.5047 4.16322 43.8493 3.97905 44.2243 3.90443C44.5994 3.82982 44.9882 3.86811 45.3415 4.01447C45.6948 4.16083 45.9968 4.40869 46.2093 4.72669C46.4218 5.04469 46.5352 5.41856 46.5352 5.80102C46.5342 6.3136 46.3302 6.80493 45.9678 7.16738C45.6054 7.52983 45.1141 7.73386 44.6016 7.73477ZM52.3359 7.73477C51.9535 7.73477 51.5797 7.62135 51.2617 7.40887C50.9437 7.19639 50.6959 6.89438 50.5495 6.54103C50.4032 6.18769 50.3649 5.79888 50.4395 5.42377C50.5141 5.04866 50.6983 4.7041 50.9687 4.43366C51.2391 4.16322 51.5836 3.97905 51.9587 3.90443C52.3338 3.82982 52.7226 3.86811 53.0759 4.01447C53.4292 4.16083 53.7312 4.40869 53.9437 4.72669C54.1561 5.04469 54.2695 5.41856 54.2695 5.80102C54.2686 6.3136 54.0646 6.80493 53.7022 7.16738C53.3398 7.52983 52.8485 7.73386 52.3359 7.73477ZM60.0703 7.73477C59.6879 7.73477 59.314 7.62135 58.9961 7.40887C58.6781 7.19639 58.4303 6.89438 58.2839 6.54103C58.1376 6.18769 58.0993 5.79888 58.1739 5.42377C58.2485 5.04866 58.4326 4.7041 58.7031 4.43366C58.9735 4.16322 59.318 3.97905 59.6931 3.90443C60.0682 3.82982 60.4569 3.86811 60.8103 4.01447C61.1636 4.16083 61.4656 4.40869 61.678 4.72669C61.8905 5.04469 62.0039 5.41856 62.0039 5.80102C62.003 6.3136 61.799 6.80493 61.4366 7.16738C61.0741 7.52983 60.5829 7.73386 60.0703 7.73477Z" fill="white"/>
<path d="M0 54.2478C0 54.7606 0.203717 55.2525 0.566337 55.6151C0.928956 55.9778 1.42077 56.1815 1.93359 56.1815H15.168C14.3011 53.843 13.8576 51.3687 13.8583 48.8745V36.1857C13.8596 34.9876 14.2313 33.8191 14.9223 32.8403C15.6134 31.8615 16.59 31.1202 17.7186 30.718L31.0595 25.9824C32.3146 25.5356 33.6854 25.5356 34.9405 25.9824L48.2814 30.718C49.41 31.1198 50.3869 31.8607 51.0782 32.8392C51.7696 33.8177 52.1416 34.9859 52.1434 36.184V48.8745C52.1437 51.3682 51.6997 53.842 50.832 56.1798H64.0664C64.3203 56.1798 64.5718 56.1298 64.8064 56.0326C65.041 55.9354 65.2541 55.793 65.4337 55.6134C65.6132 55.4339 65.7556 55.2207 65.8528 54.9861C65.95 54.7515 66 54.5 66 54.2461V15.4233H0V54.2478Z" fill="#D9FF43"/>
<path d="M46.9888 34.362L33.6461 29.6265C33.228 29.4786 32.7718 29.4786 32.3536 29.6265L19.011 34.362C18.6344 34.4958 18.3084 34.743 18.0779 35.0696C17.8474 35.3961 17.7236 35.786 17.7236 36.1857V48.8745C17.7321 53.0625 19.2601 57.1051 22.0238 60.2515C24.7875 63.3979 28.5991 65.4343 32.7507 65.9826C32.916 66.0055 33.0837 66.0055 33.2491 65.9826C37.4005 65.4343 41.2119 63.3978 43.9753 60.2514C46.7387 57.1049 48.2663 53.0624 48.2744 48.8745V36.1857C48.2743 35.7863 48.1507 35.3966 47.9205 35.0702C47.6904 34.7437 47.365 34.4963 46.9888 34.362ZM39.5311 46.805L34.1171 52.2195C33.7542 52.5817 33.2625 52.7852 32.7498 52.7852C32.2371 52.7852 31.7454 52.5817 31.3825 52.2195L28.4796 49.318C28.2999 49.1385 28.1574 48.9253 28.0601 48.6906C27.9628 48.4559 27.9127 48.2044 27.9126 47.9504C27.9125 47.6964 27.9625 47.4448 28.0596 47.2101C28.1568 46.9754 28.2992 46.7621 28.4787 46.5824C28.6583 46.4027 28.8714 46.2602 29.1061 46.1629C29.3407 46.0656 29.5922 46.0155 29.8462 46.0154C30.1002 46.0153 30.3518 46.0653 30.5865 46.1624C30.8212 46.2596 31.0344 46.402 31.2141 46.5816L32.7472 48.1148L36.7949 44.0685C37.1577 43.7057 37.6499 43.5018 38.163 43.5018C38.6762 43.5018 39.1683 43.7057 39.5311 44.0685C39.894 44.4314 40.0978 44.9236 40.0978 45.4368C40.0978 45.95 39.894 46.4421 39.5311 46.805Z" fill="white"/>
</svg>
