<svg width="22" height="22" viewBox="0 0 22 22" fill="none" xmlns="http://www.w3.org/2000/svg">
<path d="M21.1708 10.1708C20.7129 10.1708 20.3417 10.542 20.3417 11C20.3417 16.1512 16.1512 20.3417 11 20.3417C5.84908 20.3417 1.65829 16.1512 1.65829 11C1.65829 5.84908 5.84908 1.65829 11 1.65829C11.458 1.65829 11.8292 1.28713 11.8292 0.829168C11.8292 0.371164 11.458 0 11 0C4.93453 0 0 4.93453 0 11C0 17.0652 4.93453 22 11 22C17.0652 22 22 17.0652 22 11C22 10.542 21.6288 10.1708 21.1708 10.1708Z" fill="#020202"/>
<path d="M21.371 3.00769C21.0473 2.68349 20.5222 2.68293 20.1986 3.00632L10.2516 12.927L6.66275 9.0292C6.35265 8.69259 5.82834 8.67076 5.49117 8.98082C5.15425 9.29093 5.13268 9.81549 5.44278 10.1524L9.61617 14.6848C9.76901 14.8509 9.98291 14.9474 10.2084 14.9521C10.2145 14.9523 10.2204 14.9523 10.2262 14.9523C10.4453 14.9523 10.6562 14.8653 10.8115 14.7105L21.3693 4.18035C21.6938 3.85701 21.6943 3.33189 21.371 3.00769Z" fill="#020202"/>
</svg>
