<svg width="86" height="87" viewBox="0 0 86 87" fill="none" xmlns="http://www.w3.org/2000/svg">
<path d="M43.3369 28.3644L45.4783 22.938L68.4251 31.54V37.5748L43.3369 28.3644Z" fill="#00D999"/>
<path d="M21.6191 82.7141C21.6191 82.7141 22.1301 64.7678 27.7025 60.4729C33.275 56.178 34.8202 55.667 34.8202 55.667H27.52L24.3201 59.0372L18.7598 63.6728C18.7598 63.6728 18.5895 79.0761 19.1857 80.2563C19.8299 81.2255 20.6563 82.0602 21.6191 82.7141Z" fill="#00D999"/>
<path d="M61.2822 55.667L59.445 80.2563L57.4131 79.8305V56.5308L61.2822 55.667Z" fill="#00D999"/>
<path d="M11.18 85.8412C11.18 85.8412 5.37638 81.3759 2.44415 66.6904C1.59247 62.432 1.64114 82.7143 1.64114 82.7143C1.81582 83.5668 2.26941 84.337 2.93034 84.9032C3.59127 85.4694 4.42192 85.7994 5.29121 85.8412C8.36944 85.9872 11.18 85.8412 11.18 85.8412Z" fill="#00D999"/>
<path d="M57.9378 85.8412C57.9378 85.8412 52.1342 81.3759 49.202 66.6904C48.3503 62.432 48.3989 82.7143 48.3989 82.7143C48.5736 83.5668 49.0272 84.337 49.6882 84.9032C50.3491 85.4694 51.1797 85.7994 52.049 85.8412C55.1394 85.9872 57.9378 85.8412 57.9378 85.8412Z" fill="#00D999"/>
<path d="M8.6857 52.4913C8.6857 52.4913 12.6034 48.2694 13.7958 45.3858C14.9882 42.5023 15.8277 37.2583 19.8793 35.2264C23.9308 33.1946 50.1992 30.9924 50.1992 30.9924L43.3371 28.3643C43.3371 28.3643 20.9743 27.6099 19.8914 28.9605C18.823 29.9256 17.5023 30.5669 16.0832 30.8098C16.0832 30.8098 13.2726 26.7826 10.7784 26.6366C5.20596 26.2959 1.78706 16.5381 1.87222 13.6058C1.95739 10.6736 1.09354 23.5097 4.09877 27.5004C7.104 31.4912 11.1799 36.0173 11.1799 36.0173C10.3079 37.0002 9.78971 38.2465 9.70772 39.5579C9.42985 42.1647 9.28366 44.7839 9.26971 47.4055C9.19671 49.1819 8.63703 52.4913 8.63703 52.4913" fill="#00D999"/>
<path d="M50.2115 24.7023C50.2115 24.7023 54.1779 -0.763036 64.0209 1.90152C73.8639 4.56607 60.8453 0.368487 57.9374 1.70685C55.954 2.61778 54.2917 4.10623 53.168 5.97744L48.3986 16.1246L45.4785 22.9381L50.2115 24.7023Z" fill="#00D999"/>
<path d="M55.3331 14.9808C55.2966 14.7906 55.1955 14.6189 55.047 14.4947C54.8984 14.3706 54.7115 14.3016 54.5179 14.2994H54.3719C54.1546 14.3408 53.9625 14.4662 53.8372 14.6485C53.7119 14.8307 53.6636 15.0551 53.7027 15.2728C54.071 17.3937 55.0129 19.3733 56.4264 20.9969C57.8398 22.6205 59.6708 23.8262 61.7207 24.4831H61.9397C62.0559 24.4832 62.171 24.4595 62.2777 24.4135C62.3844 24.3674 62.4806 24.3 62.5602 24.2155C64.4862 21.9587 65.4476 19.0351 65.237 16.0758C65.1976 14.5527 64.9688 13.0405 64.5556 11.574C64.4885 11.3634 64.3409 11.1877 64.145 11.0852C63.9491 10.9827 63.7206 10.9616 63.5093 11.0265C63.4052 11.0571 63.3085 11.1085 63.2248 11.1775C63.1412 11.2465 63.0724 11.3317 63.0226 11.428C62.9182 11.6266 62.8963 11.8583 62.9617 12.0729C62.9617 12.0729 64.872 18.3632 61.9397 22.4391L61.7207 22.7311L61.3922 22.5851C59.8289 21.9223 58.4559 20.8797 57.3978 19.5517C56.3397 18.2237 55.63 16.6526 55.3331 14.9808Z" fill="#003D2B"/>
<path d="M69.2161 10.832C68.9418 10.832 68.6736 10.9134 68.4455 11.0658C68.2174 11.2182 68.0397 11.4348 67.9347 11.6883C67.8297 11.9417 67.8022 12.2206 67.8558 12.4897C67.9093 12.7587 68.0414 13.0059 68.2354 13.1998C68.4293 13.3938 68.6765 13.5259 68.9455 13.5794C69.2146 13.633 69.4935 13.6055 69.7469 13.5005C70.0004 13.3955 70.217 13.2177 70.3694 12.9897C70.5218 12.7616 70.6032 12.4934 70.6032 12.2191C70.6032 11.8512 70.457 11.4984 70.1969 11.2383C69.9368 10.9782 69.584 10.832 69.2161 10.832Z" fill="#003D2B"/>
<path d="M11.7637 35.2023C8.2206 32.4526 5.46368 28.8187 3.77006 24.6658C0.0348184 15.6136 4.51225 4.91886 5.43693 2.86265V2.76532C5.5536 2.49535 5.75036 2.26773 6.0006 2.11323C6.25085 1.95873 6.5425 1.88481 6.83613 1.90146C7.02878 1.90561 7.21882 1.94692 7.3958 2.02313C7.72473 2.18829 7.9769 2.47444 8.0994 2.82152C8.2219 3.1686 8.20521 3.54964 8.05282 3.88467C7.29843 5.80069 6.74788 7.79081 6.41028 9.82213C6.3893 9.92935 6.39008 10.0397 6.41259 10.1466C6.43509 10.2535 6.47885 10.3548 6.54128 10.4445C6.6037 10.5341 6.68351 10.6103 6.77596 10.6685C6.86842 10.7268 6.97163 10.7658 7.07947 10.7833H7.22547C7.41971 10.7835 7.60783 10.7153 7.75687 10.5908C7.90592 10.4662 8.00637 10.2932 8.04065 10.102C8.37642 8.20859 8.90226 6.35389 9.61018 4.56602C9.94277 3.81883 9.96561 2.97027 9.67369 2.20627C9.38178 1.44227 8.79891 0.825138 8.05282 0.490101C7.66711 0.330079 7.25371 0.247401 6.83613 0.246763C6.22428 0.240125 5.62433 0.415985 5.11289 0.75189C4.60144 1.08779 4.20171 1.5685 3.96473 2.13264V2.20564C2.79074 4.82189 1.90938 7.55983 1.33668 10.3696C0.150995 15.3089 0.464456 20.4895 2.23703 25.2498C3.9035 29.3397 6.53808 32.9638 9.91436 35.8107L10.182 36.0297L10.0239 36.3582C8.77833 38.8565 8.21187 41.6384 8.38133 44.4248V44.9115C8.47421 47.2866 8.03351 49.6522 7.09163 51.8345C7.05049 51.9366 7.03016 52.046 7.03182 52.156C7.03347 52.2661 7.05709 52.3748 7.10129 52.4757C7.14548 52.5765 7.20936 52.6675 7.28918 52.7434C7.369 52.8192 7.46316 52.8784 7.56614 52.9174C7.77314 52.9907 8.00031 52.9825 8.20146 52.8944C8.40261 52.8062 8.56263 52.6448 8.649 52.4428C9.67828 50.0235 10.1522 47.4043 10.036 44.7777C10.036 44.6317 10.036 44.4735 10.036 44.3275C9.85103 41.4972 10.5253 38.677 11.9706 36.2365C12.0618 36.067 12.091 35.871 12.0533 35.6822C12.0155 35.4934 11.9131 35.3237 11.7637 35.2023Z" fill="#003D2B"/>
<path d="M85.9824 16.1609C86.0052 15.7353 86.0052 15.3089 85.9824 14.8834C85.9828 14.7193 85.9344 14.5589 85.8434 14.4224C85.7525 14.2859 85.6229 14.1796 85.4714 14.1168L83.038 13.1191L75.3242 9.90708H75.2147L75.1417 9.80974L72.1973 5.7825C70.9045 4.08381 69.2374 2.70613 67.3256 1.75655C65.4138 0.806965 63.3087 0.311061 61.1741 0.307382C59.0548 0.304579 56.9821 0.929359 55.2174 2.10294C53.4527 3.27652 52.075 4.94634 51.258 6.90185L44.3594 23.2785L44.1039 23.9112L43.6294 23.4245L21.2909 0.611555C21.2128 0.533205 21.1199 0.471302 21.0175 0.429506C20.915 0.38771 20.8053 0.36687 20.6947 0.368217C20.5886 0.365043 20.483 0.383952 20.3845 0.423746C20.2861 0.46354 20.197 0.523351 20.1229 0.599388C20.0438 0.675001 19.9805 0.765553 19.9366 0.865799C19.8928 0.966046 19.8692 1.074 19.8674 1.1834C19.8673 1.40631 19.9547 1.62036 20.1107 1.77958L43.2278 25.3591L43.4468 25.5659L43.3252 25.8457L42.7533 27.2206L42.6317 27.4883H24.4908C21.5747 27.4886 18.7125 28.2745 16.2051 29.7635L15.974 29.9095L15.7306 29.7635C12.7411 27.9678 10.3917 25.2779 9.01447 22.074C8.12368 19.8406 7.66538 17.4582 7.66395 15.0537C7.6608 14.8352 7.57263 14.6266 7.41814 14.4721C7.26366 14.3177 7.05504 14.2295 6.8366 14.2263C6.61276 14.2333 6.39983 14.3246 6.24042 14.4818C6.16207 14.5599 6.10016 14.6529 6.05837 14.7553C6.01657 14.8577 5.99573 14.9674 5.99708 15.078C6.00059 17.6963 6.50442 20.2897 7.48144 22.7188C9.11173 26.5025 11.9595 29.6329 15.5724 31.6129C15.6981 31.6856 15.8409 31.7234 15.9861 31.7224C16.1518 31.7241 16.3138 31.673 16.4485 31.5764C18.8307 29.9901 21.6287 29.1435 24.4908 29.143H43.0088H43.0818L67.2697 38.037L67.5617 38.1465V45.1181C67.5585 47.8019 66.4909 50.3748 64.5932 52.2725C62.6955 54.1702 60.1226 55.2378 57.4388 55.241C57.2194 55.241 57.0089 55.3282 56.8538 55.4833C56.6986 55.6385 56.6115 55.8489 56.6115 56.0684V79.9277C56.6114 80.1483 56.6982 80.36 56.853 80.5171C57.0078 80.6742 57.2183 80.764 57.4388 80.7672C58.4156 80.6862 59.3958 80.8762 60.2716 81.3163C61.1474 81.7563 61.8849 82.4294 62.4029 83.2614C62.6362 83.6438 62.824 84.0522 62.9626 84.4781L63.1451 85.0743H53.4116C52.2165 85.0711 51.0715 84.5941 50.2276 83.7479C49.3837 82.9017 48.9098 81.7554 48.9098 80.5604V55.6669C48.9098 55.4442 48.8213 55.2307 48.6639 55.0732C48.5065 54.9158 48.2929 54.8273 48.0703 54.8273H27.0823C26.9369 54.8271 26.7939 54.8652 26.6679 54.9379C26.5419 55.0105 26.4372 55.1151 26.3645 55.241C21.8141 62.967 10.6327 66.5441 10.4867 66.6171C10.3165 66.6674 10.1674 66.7718 10.062 66.9146C9.95663 67.0573 9.90067 67.2305 9.90266 67.4079V79.9277C9.90264 80.1483 9.98941 80.36 10.1442 80.5171C10.299 80.6742 10.5095 80.764 10.73 80.7672C11.7068 80.6862 12.687 80.8762 13.5628 81.3163C14.4386 81.7563 15.1761 82.4294 15.6941 83.2614C15.9274 83.6438 16.1152 84.0522 16.2538 84.4781L16.4363 85.0743H6.8366C5.64154 85.0711 4.49653 84.5941 3.65263 83.7479C2.80874 82.9017 2.33483 81.7554 2.33484 80.5604V67.0064C2.33098 64.4882 3.12775 62.034 4.61005 59.9983C5.23056 59.1223 5.82674 58.1976 6.41075 57.2242C6.52136 57.0321 6.55145 56.8039 6.49446 56.5897C6.43747 56.3754 6.29803 56.1924 6.10658 56.0805C5.9809 56.0079 5.83809 55.97 5.6929 55.971C5.54745 55.9708 5.4045 56.0089 5.27847 56.0815C5.15244 56.1542 5.04779 56.2587 4.97506 56.3847C4.42755 57.3094 3.8557 58.1976 3.25952 59.0249C1.57534 61.3454 0.668237 64.1392 0.667969 67.0064V80.5847C0.671184 82.2197 1.32212 83.7869 2.47827 84.943C3.63442 86.0992 5.20156 86.7501 6.8366 86.7533H17.4461C17.5569 86.7534 17.6665 86.7312 17.7685 86.6881C17.8705 86.645 17.9628 86.5819 18.0399 86.5025C18.1171 86.423 18.1775 86.3289 18.2176 86.2257C18.2578 86.1225 18.2768 86.0123 18.2735 85.9016C18.2735 85.6461 17.945 79.879 12.0319 79.1733H11.6425V67.9676L11.9345 67.8703C13.8847 67.14 15.7795 66.2698 17.6043 65.2666L18.2735 64.9016V78.2C18.2735 79.8371 18.923 81.4074 20.0795 82.5662C21.236 83.725 22.805 84.3776 24.4421 84.3808H35.0517C35.2734 84.3685 35.4821 84.2724 35.6357 84.112C35.7893 83.9517 35.8763 83.739 35.879 83.5169C35.879 83.2736 35.5505 77.4335 29.6374 76.7886H29.2359V65.5951L29.5279 65.4856C32.1681 64.5244 38.7748 61.726 43.2643 56.6767L43.3982 56.5307H47.3403V80.5847C47.3435 82.2197 47.9944 83.7869 49.1506 84.943C50.3067 86.0992 51.8739 86.7501 53.5089 86.7533H64.1184C64.2292 86.7534 64.3388 86.7312 64.4408 86.6881C64.5428 86.645 64.6351 86.5819 64.7122 86.5025C64.7894 86.423 64.8498 86.3289 64.8899 86.2257C64.9301 86.1225 64.9491 86.0123 64.9458 85.9016C64.9273 85.5701 64.8825 85.2406 64.812 84.9161L64.6903 84.3808H71.8809C71.9932 84.3783 72.1037 84.3533 72.2061 84.3073C72.3085 84.2614 72.4007 84.1953 72.4771 84.1131C72.555 84.0353 72.6158 83.9421 72.6556 83.8394C72.6954 83.7368 72.7134 83.6269 72.7083 83.5169C72.7083 83.2736 72.3798 77.4335 66.4667 76.7886H66.0651V67.6391C66.0651 67.4197 65.978 67.2092 65.8228 67.0541C65.6677 66.8989 65.4572 66.8118 65.2378 66.8118C65.0184 66.8118 64.8079 66.8989 64.6528 67.0541C64.4976 67.2092 64.4104 67.4197 64.4104 67.6391V77.5673C64.4104 77.676 64.4319 77.7835 64.4734 77.8839C64.515 77.9843 64.5759 78.0755 64.6528 78.1523C64.7296 78.2292 64.8208 78.2901 64.9212 78.3317C65.0216 78.3733 65.1292 78.3947 65.2378 78.3947C66.4512 78.2847 67.6653 78.5978 68.6743 79.2808C69.6833 79.9638 70.425 80.9747 70.7738 82.1421L70.9562 82.7261H64.0211L63.8629 82.4341C63.3358 81.4978 62.586 80.706 61.6798 80.1287C60.7736 79.5515 59.739 79.2066 58.6677 79.1247H58.2783V56.8836H58.6798C60.458 56.7029 62.1699 56.1114 63.6804 55.1559L64.3739 54.73V62.5168C64.3739 62.7363 64.4611 62.9467 64.6163 63.1019C64.7714 63.257 64.9819 63.3442 65.2013 63.3442C65.4207 63.3442 65.6312 63.257 65.7863 63.1019C65.9415 62.9467 66.0286 62.7363 66.0286 62.5168V53.2335L66.1503 53.1118C68.1291 50.9436 69.2269 48.1145 69.2285 45.179V26.2716H74.5212C76.1802 26.2836 77.8226 25.9401 79.3378 25.2644C80.8531 24.5886 82.206 23.5962 83.3057 22.3538C84.8354 20.6277 85.7732 18.4578 85.9824 16.1609ZM40.2469 57.3094C36.661 60.3504 32.5331 62.6869 28.08 64.1959C27.9122 64.2523 27.7665 64.3604 27.6638 64.5046C27.5611 64.6488 27.5066 64.8218 27.5082 64.9989V77.5673C27.5082 77.7867 27.5954 77.9972 27.7505 78.1523C27.9057 78.3075 28.1161 78.3947 28.3355 78.3947C29.5486 78.2871 30.7616 78.6011 31.7701 79.2837C32.7785 79.9664 33.5207 80.9759 33.8715 82.1421L34.054 82.7261H24.3205C23.1233 82.7261 21.9752 82.2505 21.1286 81.404C20.2821 80.5575 19.8065 79.4093 19.8065 78.2122V63.8795L20.0134 63.7457C22.899 61.9317 25.3833 59.5468 27.3135 56.7376L27.4474 56.5307H41.123L40.2469 57.3094ZM67.5617 32.4402V36.4188L66.9533 36.1876L44.7 28.0115L44.2499 27.8411L44.4324 27.4031L45.7707 24.3735L45.9411 23.9842L46.3426 24.1302L67.3305 32.0144L67.6225 32.1239L67.5617 32.4402ZM82.0525 21.2588C81.1089 22.322 79.9485 23.1708 78.6494 23.7479C77.3503 24.3251 75.9426 24.6172 74.5212 24.6047H68.4377C68.2192 24.6079 68.0106 24.696 67.8561 24.8505C67.7017 25.005 67.6135 25.2136 67.6103 25.4321V30.2988L67.002 30.0798L46.9874 22.6093L46.5494 22.4512L46.7319 22.0132L52.8154 7.48586C53.5037 5.83026 54.6675 4.41598 56.1597 3.42191C57.6519 2.42784 59.4054 1.89864 61.1984 1.90125C63.0864 1.90594 64.9477 2.34778 66.6364 3.19213C68.3251 4.03648 69.7953 5.26041 70.9319 6.76802L74.1926 11.0873C74.2807 11.202 74.3985 11.2904 74.5333 11.3428L81.9308 14.4332L82.1376 14.5183V14.7252C82.4143 15.7694 83.0046 16.7037 83.8288 17.4019L84.06 17.5966L83.9749 17.8886C83.574 19.1328 82.9194 20.2804 82.0525 21.2588Z" fill="#003D2B"/>
</svg>
