<svg width="20" height="20" viewBox="0 0 20 20" fill="none" xmlns="http://www.w3.org/2000/svg">
<path d="M19.1388 15.8024C19.1388 16.1324 19.0655 16.4716 18.9097 16.8016C18.7538 17.1316 18.5522 17.4433 18.2863 17.7366C17.8372 18.2316 17.3422 18.5891 16.783 18.8183C16.233 19.0474 15.6372 19.1666 14.9955 19.1666C14.0605 19.1666 13.0613 18.9466 12.0072 18.4974C10.953 18.0483 9.89884 17.4433 8.85384 16.6824C7.79967 15.9124 6.80051 15.0599 5.84717 14.1158C4.90301 13.1624 4.05051 12.1633 3.28967 11.1183C2.53801 10.0733 1.93301 9.02825 1.49301 7.99242C1.05301 6.94742 0.833008 5.94825 0.833008 4.99492C0.833008 4.37159 0.943008 3.77575 1.16301 3.22575C1.38301 2.66659 1.73134 2.15325 2.21717 1.69492C2.80384 1.11742 3.44551 0.833252 4.12384 0.833252C4.38051 0.833252 4.63717 0.888252 4.86634 0.998252C5.10467 1.10825 5.31551 1.27325 5.48051 1.51159L7.60717 4.50909C7.77217 4.73825 7.89134 4.94909 7.97384 5.15075C8.05634 5.34325 8.10217 5.53575 8.10217 5.70992C8.10217 5.92992 8.03801 6.14992 7.90967 6.36075C7.79051 6.57158 7.61634 6.79158 7.39634 7.01158L6.69967 7.73575C6.59884 7.83658 6.55301 7.95575 6.55301 8.10242C6.55301 8.17575 6.56217 8.23992 6.58051 8.31325C6.60801 8.38658 6.63551 8.44158 6.65384 8.49658C6.81884 8.79908 7.10301 9.19325 7.50634 9.66992C7.91884 10.1466 8.35884 10.6324 8.83551 11.1183C9.33051 11.6041 9.80717 12.0533 10.293 12.4658C10.7697 12.8691 11.1638 13.1441 11.4755 13.3091C11.5213 13.3274 11.5763 13.3549 11.6405 13.3824C11.7138 13.4099 11.7872 13.4191 11.8697 13.4191C12.0255 13.4191 12.1447 13.3641 12.2455 13.2633L12.9422 12.5758C13.1713 12.3466 13.3913 12.1724 13.6022 12.0624C13.813 11.9341 14.0238 11.8699 14.253 11.8699C14.4272 11.8699 14.6105 11.9066 14.8122 11.9891C15.0138 12.0716 15.2247 12.1908 15.4538 12.3466L18.488 14.5008C18.7263 14.6658 18.8913 14.8583 18.9922 15.0874C19.0838 15.3166 19.1388 15.5458 19.1388 15.8024Z" stroke="#D9FF43" stroke-width="1.5" stroke-miterlimit="10"/>
<path d="M17.3326 2.6665H12.9326M17.3326 2.6665V7.0665V2.6665Z" stroke="#D9FF43" stroke-width="1.5" stroke-linecap="round" stroke-linejoin="round"/>
</svg>
