<svg width="24" height="24" viewBox="0 0 24 24" fill="none" xmlns="http://www.w3.org/2000/svg">
<path d="M16.889 0.333252H7.11232C2.86565 0.333252 0.333984 2.86492 0.333984 7.11159V16.8766C0.333984 21.1349 2.86565 23.6666 7.11232 23.6666H16.8773C21.124 23.6666 23.6556 21.1349 23.6556 16.8883V7.11159C23.6673 2.86492 21.1357 0.333252 16.889 0.333252ZM17.694 11.4516C17.694 11.9066 17.3323 12.2683 16.8773 12.2683C16.4223 12.2683 16.0606 11.9066 16.0606 11.4516V11.2416L12.8873 14.4149C12.7123 14.5899 12.479 14.6716 12.234 14.6483C11.989 14.6249 11.7673 14.4966 11.639 14.2866L10.449 12.5133L7.67232 15.2899C7.50898 15.4533 7.31065 15.5233 7.10065 15.5233C6.89065 15.5233 6.68065 15.4416 6.52898 15.2899C6.21398 14.9749 6.21398 14.4616 6.52898 14.1349L10.0057 10.6583C10.1807 10.4833 10.414 10.4016 10.659 10.4249C10.904 10.4483 11.1257 10.5766 11.254 10.7866L12.444 12.5599L14.9057 10.0983H14.6957C14.2407 10.0983 13.879 9.73659 13.879 9.28159C13.879 8.82659 14.2407 8.46492 14.6957 8.46492H16.8657C16.9706 8.46492 17.0757 8.48825 17.1807 8.52325C17.379 8.60492 17.5423 8.76825 17.624 8.96659C17.6707 9.07159 17.6823 9.17659 17.6823 9.28159V11.4516H17.694Z" fill="#D9FF43"/>
</svg>
