<svg width="84" height="43" viewBox="0 0 84 43" fill="none" xmlns="http://www.w3.org/2000/svg">
<g clip-path="url(#clip0_279_308)">
<path d="M62.4001 0.597168H21.6001C10.0021 0.597168 0.600098 9.95566 0.600098 21.4999C0.600098 33.0442 10.0021 42.4027 21.6001 42.4027H62.4001C73.9981 42.4027 83.4001 33.0442 83.4001 21.4999C83.4001 9.95566 73.9981 0.597168 62.4001 0.597168Z" fill="white" stroke="#383838"/>
<path fill-rule="evenodd" clip-rule="evenodd" d="M45.6588 22.7387V27.0023H43.6499V15.5278H48.0727C49.3644 15.5278 50.3901 15.8614 51.1498 16.5287C51.9094 17.1959 52.2893 18.0786 52.2893 19.1766C52.2893 20.301 51.9174 21.1758 51.1735 21.8009C50.4298 22.4261 49.3883 22.7387 48.049 22.7387H45.6588ZM45.6005 21.0576H48.0065C48.7188 21.0576 49.2623 20.8906 49.6369 20.5566C50.0115 20.2224 50.1988 19.7397 50.1988 19.1083C50.1988 18.4874 50.0088 17.9916 49.629 17.6207C49.2491 17.2497 48.7267 17.059 48.0619 17.0485H45.6005V21.0576ZM58.5953 26.1865C58.6589 26.5545 58.7331 26.82 58.8179 26.9829H60.7894V26.8489C60.5722 26.3915 60.4635 25.779 60.4635 25.0115V21.1633C60.4476 20.2539 60.1402 19.5481 59.5414 19.0461C58.9425 18.5439 58.1395 18.293 57.1326 18.293C56.4701 18.293 55.8699 18.4086 55.332 18.64C54.7941 18.8712 54.3688 19.1906 54.0561 19.598C53.7433 20.0054 53.587 20.4431 53.587 20.911H55.5187C55.5187 20.5745 55.6593 20.2972 55.9402 20.079C56.221 19.8609 56.5813 19.7517 57.0213 19.7517C57.5301 19.7517 57.909 19.8846 58.1581 20.15C58.4071 20.4155 58.5317 20.7691 58.5317 21.2106V21.7705H57.3472C56.0806 21.7705 55.1068 22.0137 54.4257 22.4999C53.7447 22.9862 53.4042 23.6841 53.4042 24.5935C53.4042 25.3138 53.6771 25.9184 54.223 26.4073C54.7689 26.8962 55.4737 27.1407 56.3376 27.1407C57.228 27.1407 57.9805 26.8226 58.5953 26.1865ZM56.7181 25.6198C57.1008 25.6198 57.4608 25.5277 57.7984 25.3437C58.1358 25.1597 58.3896 24.9125 58.5598 24.6023V22.9931H57.5153C56.7978 22.9931 56.2583 23.1167 55.897 23.3639C55.5355 23.611 55.3548 23.9607 55.3548 24.4129C55.3548 24.7811 55.4784 25.0742 55.7255 25.2924C55.9727 25.5106 56.3035 25.6198 56.7181 25.6198ZM67.1034 18.431L65.3652 24.2429L63.5559 18.431H61.4859L64.4883 26.9587L64.2117 27.695C64.0695 28.1121 63.8759 28.4091 63.631 28.5859C63.3861 28.7626 63.0213 28.8511 62.5367 28.8511L62.1732 28.8274V30.3159C62.5103 30.411 62.8185 30.4585 63.0976 30.4585C64.3459 30.4585 65.2309 29.7379 65.7523 28.2968L69.1498 18.431H67.1034Z" fill="#303030"/>
<path fill-rule="evenodd" clip-rule="evenodd" d="M25.8226 24.2022V25.427H20.3179L20.3284 25.2397C20.4199 23.6018 20.9878 22.9093 22.757 21.8093C22.757 21.8093 23.0664 21.6169 23.1556 21.5602C24.132 20.9401 24.5526 20.4568 24.5526 19.7182C24.5526 18.9445 24.0094 18.417 23.2082 18.417C22.2813 18.417 21.8046 19.1165 21.7785 20.2085L21.7744 20.3819H20.5557L20.5369 19.9945C20.5369 18.3524 21.6287 17.2458 23.252 17.2458C24.8391 17.2458 25.8897 18.2166 25.8897 19.6978C25.8897 21.0491 25.2459 21.714 23.4445 22.7973L23.4086 22.8185L23.2921 22.8873C23.2278 22.9252 23.1568 22.967 23.1285 22.9838C22.3947 23.4195 22.0147 23.7457 21.8365 24.2022H25.8226ZM32.3183 22.314V23.5338H31.2409V25.427H30.0044V23.5338H26.5454V22.402L26.5773 22.3009L30.0543 17.3223L30.2012 17.2458H31.2409V22.314H32.3183ZM30.0043 22.3112H27.9985L30.0043 19.3575V22.3112Z" fill="#303030"/>
<path fill-rule="evenodd" clip-rule="evenodd" d="M14.3999 21.5001C14.3999 14.9068 19.7759 9.55566 26.3999 9.55566C33.0239 9.55566 38.3999 14.9068 38.3999 21.5001C38.3999 28.0934 33.0239 33.4446 26.3999 33.4446C19.7759 33.4446 14.3999 28.0934 14.3999 21.5001ZM15.9238 21.5C15.9238 27.2483 20.6249 31.9277 26.3999 31.9277C32.1749 31.9277 36.8761 27.2483 36.8761 21.5C36.8761 15.7517 32.1749 11.0724 26.3999 11.0724C20.6249 11.0724 15.9238 15.7517 15.9238 21.5Z" fill="#8DC641"/>
</g>
<defs>
<clipPath id="clip0_279_308">
<rect width="84" height="43" fill="white"/>
</clipPath>
</defs>
</svg>
