<svg width="63" height="46" viewBox="0 0 63 46" fill="none" xmlns="http://www.w3.org/2000/svg">
<path d="M62.9182 11.1962L62.9599 4.3289C62.9715 2.43182 61.5222 0.888952 59.7215 0.881161L4.31377 0.641631C2.51304 0.633839 1.04516 2.164 1.03359 4.0612L0.991852 10.9284L62.9182 11.1962Z" fill="white"/>
<path d="M0.937845 19.5128L0.80207 41.8315C0.790532 43.7285 2.23975 45.2714 4.04049 45.2792L59.4482 45.5188C61.249 45.5266 62.7168 43.9963 62.7284 42.0992L62.8642 19.7805L0.937845 19.5128ZM26.9285 33.3602L13.8914 33.3038C12.9918 33.2998 12.2664 32.5276 12.2723 31.5799C12.278 30.6322 13.0127 29.8661 13.9123 29.8701L26.9494 29.9265C27.849 29.9303 28.5744 30.7027 28.5686 31.6503C28.5628 32.5981 27.8281 33.364 26.9285 33.3602Z" fill="white"/>
</svg>
