<svg width="86" height="44" viewBox="0 0 86 44" fill="none" xmlns="http://www.w3.org/2000/svg">
<g clip-path="url(#clip0_279_338)">
<path d="M63.8857 0.611084H22.1143C10.2401 0.611084 0.614258 10.1872 0.614258 22C0.614258 33.8127 10.2401 43.3889 22.1143 43.3889H63.8857C75.7598 43.3889 85.3857 33.8127 85.3857 22C85.3857 10.1872 75.7598 0.611084 63.8857 0.611084Z" fill="white" stroke="black"/>
<path d="M21.838 16.2205C23.1315 16.3318 24.4241 15.5792 25.2391 14.6295C26.0268 13.6526 26.5607 12.3404 26.4199 11C25.2678 11.0568 23.8614 11.7543 23.0475 12.7324C22.3165 13.5696 21.6697 14.9363 21.838 16.2205Z" fill="black"/>
<path d="M29.7809 18.2527C28.5634 16.3874 26.6611 16.177 26.0014 16.1245C24.9676 16.0606 24.0281 16.444 23.268 16.7542C22.7786 16.954 22.3634 17.1234 22.0455 17.1234C21.695 17.1234 21.2641 16.947 20.7794 16.7487C20.1414 16.4875 19.4101 16.1882 18.646 16.2028C16.8965 16.2291 15.2733 17.2538 14.3852 18.8837C12.5591 22.1443 13.9036 26.9806 15.6794 29.6357C16.5417 30.9496 17.5812 32.3958 18.9506 32.3444C19.5501 32.3199 19.9809 32.1317 20.4271 31.9367C20.9434 31.711 21.4806 31.4763 22.3241 31.4763C23.1288 31.4763 23.6413 31.7038 24.1336 31.9223C24.603 32.1306 25.054 32.3309 25.7227 32.3181C27.1428 32.2917 28.031 31.0037 28.8933 29.6882C29.827 28.2747 30.2403 26.9072 30.3054 26.6917C30.3093 26.6789 30.3119 26.6702 30.3134 26.6658C30.3134 26.6658 30.2995 26.6582 30.278 26.6479C29.9571 26.4949 27.5726 25.358 27.5494 22.3278C27.525 19.7827 29.4286 18.4923 29.7414 18.2802C29.7614 18.2667 29.7749 18.2575 29.7809 18.2527Z" fill="black"/>
<path d="M50.3869 19.2429C50.3869 20.632 49.9296 21.6965 49.015 22.4366C48.1004 23.1766 46.7986 23.5466 45.1097 23.5466H43.7196V28.5235H41.5337V15.2214H45.384C47.0548 15.2214 48.3046 15.5611 49.1339 16.2404C49.9692 16.9198 50.3869 17.9206 50.3869 19.2429ZM43.7196 21.7178H44.8811C46.003 21.7178 46.8261 21.5237 47.3505 21.1355C47.8748 20.7472 48.137 20.1406 48.137 19.3158C48.137 18.5515 47.9022 17.9813 47.4328 17.6053C46.9632 17.2292 46.2316 17.0411 45.2377 17.0411H43.7196V21.7178Z" fill="black"/>
<path d="M59.1575 28.5236L58.7278 27.1224H58.6546C58.1668 27.735 57.676 28.1536 57.1821 28.378C56.6882 28.5964 56.054 28.7056 55.2798 28.7056C54.2859 28.7056 53.5084 28.4387 52.9476 27.9049C52.3926 27.3712 52.1152 26.616 52.1152 25.6394C52.1152 24.6021 52.5025 23.8196 53.2768 23.2919C54.0511 22.7642 55.231 22.476 56.8162 22.4275L58.5631 22.373V21.8362C58.5631 21.1932 58.4107 20.714 58.1057 20.3986C57.8071 20.0771 57.3406 19.9163 56.7065 19.9163C56.1882 19.9163 55.6914 19.9922 55.2157 20.1438C54.7401 20.2955 54.2828 20.4744 53.8438 20.6806L53.1487 19.1521C53.6975 18.8669 54.298 18.6517 54.9505 18.5061C55.6029 18.3545 56.2187 18.2786 56.7979 18.2786C58.0845 18.2786 59.054 18.5576 59.7063 19.1157C60.3648 19.6737 60.6941 20.5502 60.6941 21.7452V28.5236H59.1575ZM55.9565 27.0678C56.737 27.0678 57.362 26.8525 57.8314 26.4219C58.307 25.9852 58.5448 25.3755 58.5448 24.5931V23.7195L57.2461 23.7742C56.2339 23.8106 55.4961 23.9804 55.0328 24.2837C54.5755 24.581 54.3468 25.0388 54.3468 25.6576C54.3468 26.1064 54.481 26.4552 54.7493 26.704C55.0176 26.9466 55.42 27.0678 55.9565 27.0678Z" fill="black"/>
<path d="M62.1575 18.4604H64.4988L66.5566 24.1653C66.8676 24.9781 67.0748 25.7423 67.1785 26.4582H67.2516C67.3065 26.1245 67.4072 25.7212 67.5535 25.2481C67.6998 24.7688 68.4742 22.5064 69.8765 18.4604H72.1996L67.8735 29.861C67.087 31.9537 65.7761 33 63.9409 33C63.4653 33 63.0019 32.9484 62.5507 32.8453V31.153C62.8738 31.2258 63.2427 31.2621 63.6573 31.2621C64.6939 31.2621 65.4225 30.6647 65.8432 29.4697L66.2181 28.5235L62.1575 18.4604Z" fill="black"/>
</g>
<defs>
<clipPath id="clip0_279_338">
<rect width="86" height="44" fill="white"/>
</clipPath>
</defs>
</svg>
