<svg width="26" height="26" viewBox="0 0 26 26" fill="none" xmlns="http://www.w3.org/2000/svg">
<path fill-rule="evenodd" clip-rule="evenodd" d="M15.6482 0.041143C13.8388 -0.109481 12.0191 0.159694 10.3308 0.827694C8.5951 1.51087 7.05891 2.6192 5.86328 4.05088C4.0601 6.22884 3.17193 9.02127 3.38561 11.8407L3.39612 11.9774L0.849644 16.0856C0.815595 16.141 0.794796 16.2035 0.788868 16.2682C0.78294 16.3329 0.792044 16.3982 0.815468 16.4588C0.838947 16.5192 0.87616 16.5733 0.92416 16.6168C0.972161 16.6603 1.02963 16.6921 1.09202 16.7095L4.31257 17.6183V20.6411C4.31315 21.3557 4.59725 22.0409 5.10251 22.5464C5.60778 23.0518 6.29293 23.3361 7.00758 23.3368H11.9939V24.6602C11.9946 25.0155 12.1362 25.3561 12.3875 25.6072C12.6389 25.8583 12.9795 25.9995 13.3348 26H21.6341C21.9891 25.9994 22.3294 25.858 22.5804 25.6069C22.8313 25.3557 22.9724 25.0153 22.9726 24.6602V17.556C22.9644 16.9992 23.1318 16.454 23.4511 15.9978C24.5285 14.4064 25.1367 12.5442 25.2066 10.6237C25.2764 8.70327 24.8049 6.80183 23.846 5.13643C22.1141 2.13105 19.0892 0.332627 15.6482 0.041143ZM13.8708 13.9326L12.985 14.8169L13.8709 15.7005C13.9476 15.7797 13.9901 15.8858 13.9891 15.9961C13.9882 16.1063 13.9439 16.2117 13.8658 16.2895C13.7878 16.3673 13.6822 16.4113 13.572 16.412C13.4618 16.4126 13.3557 16.3698 13.2768 16.2929L12.3915 15.4093L11.5094 16.2933C11.4308 16.3721 11.3241 16.4163 11.2128 16.4164C11.1015 16.4164 10.9948 16.3723 10.916 16.2937C10.8373 16.215 10.793 16.1083 10.793 15.997C10.7929 15.8858 10.8371 15.779 10.9157 15.7003L11.8016 14.8167L10.9158 13.9324C10.8769 13.8934 10.846 13.8472 10.8249 13.7963C10.8038 13.7454 10.793 13.6908 10.793 13.6357C10.793 13.5806 10.8039 13.526 10.825 13.4751C10.8461 13.4242 10.877 13.378 10.9159 13.3391C10.9549 13.3001 11.0012 13.2692 11.0521 13.2481C11.103 13.2271 11.1575 13.2162 11.2126 13.2162C11.2677 13.2162 11.3223 13.2271 11.3732 13.2482C11.4241 13.2693 11.4703 13.3002 11.5093 13.3392L12.3913 14.2238L13.2766 13.3402C13.3155 13.3012 13.3617 13.2702 13.4126 13.2491C13.4635 13.2279 13.518 13.217 13.5731 13.2169C13.6282 13.2169 13.6828 13.2276 13.7337 13.2487C13.7847 13.2697 13.8309 13.3005 13.87 13.3394C13.909 13.3783 13.9399 13.4246 13.9611 13.4754C13.9822 13.5263 13.9932 13.5809 13.9932 13.636C13.9933 13.6911 13.9825 13.7456 13.9615 13.7966C13.9405 13.8475 13.9096 13.8938 13.8707 13.9328L13.8708 13.9326ZM18.2269 6.77047C18.109 6.7704 17.9937 6.73537 17.8957 6.66981C17.7977 6.60426 17.7213 6.51111 17.6763 6.40216C17.6312 6.2932 17.6194 6.17333 17.6425 6.05769C17.6655 5.94205 17.7223 5.83584 17.8057 5.75248C17.8891 5.66912 17.9953 5.61236 18.111 5.58937C18.2266 5.56638 18.3465 5.57819 18.4554 5.62332C18.5644 5.66844 18.6575 5.74485 18.723 5.84289C18.7885 5.94092 18.8235 6.05618 18.8235 6.1741C18.8235 6.25243 18.8081 6.33 18.7781 6.40236C18.7481 6.47473 18.7041 6.54048 18.6487 6.59586C18.5933 6.65124 18.5276 6.69516 18.4552 6.72512C18.3828 6.75508 18.3052 6.77049 18.2269 6.77047ZM18.2269 4.73922C18.5107 4.73914 18.7882 4.82323 19.0242 4.98085C19.2602 5.13847 19.4442 5.36255 19.5528 5.62474C19.6615 5.88692 19.69 6.17545 19.6346 6.45381C19.5793 6.73218 19.4427 6.98789 19.242 7.1886C19.0413 7.38931 18.7857 7.526 18.5073 7.58138C18.229 7.63677 17.9404 7.60836 17.6782 7.49976C17.416 7.39115 17.1919 7.20722 17.0342 6.97124C16.8765 6.73525 16.7924 6.45781 16.7924 6.17399C16.793 5.79371 16.9444 5.42918 17.2132 5.16025C17.4821 4.89132 17.8466 4.73992 18.2269 4.73922ZM18.3714 11.8882V16.0581C18.3714 16.1692 18.3272 16.2757 18.2487 16.3543C18.1701 16.4329 18.0635 16.477 17.9524 16.477C17.8413 16.477 17.7347 16.4329 17.6562 16.3543C17.5776 16.2757 17.5335 16.1692 17.5335 16.0581V11.8883C17.533 11.6603 17.4423 11.4417 17.2811 11.2804C17.1199 11.1192 16.9014 11.0283 16.6734 11.0278H13.7829C13.3322 11.0274 12.9001 10.8483 12.5814 10.5297C12.2626 10.2111 12.0832 9.77914 12.0825 9.32847V5.01268L11.0814 6.04542C11.0039 6.12527 10.8979 6.17106 10.7866 6.17272C10.6753 6.17439 10.568 6.13178 10.4881 6.05428C10.4083 5.97678 10.3625 5.87073 10.3608 5.75946C10.3591 5.6482 10.4017 5.54083 10.4792 5.46098L12.2026 3.68871C12.2415 3.64846 12.2882 3.61645 12.3397 3.59459C12.3913 3.57273 12.4467 3.56146 12.5027 3.56146C12.5587 3.56146 12.6141 3.57273 12.6656 3.59459C12.7172 3.61645 12.7638 3.64846 12.8027 3.68871L14.5261 5.46098C14.5836 5.52021 14.6223 5.59508 14.6374 5.67621C14.6525 5.75735 14.6433 5.84113 14.611 5.91708C14.5787 5.99302 14.5247 6.05775 14.4558 6.10316C14.3869 6.14856 14.3061 6.17262 14.2236 6.17232C14.1677 6.1726 14.1122 6.16148 14.0607 6.13966C14.0092 6.11783 13.9627 6.08575 13.924 6.04537L12.9228 5.01207V9.32847C12.9228 9.55666 13.0134 9.77552 13.1747 9.93694C13.3359 10.0984 13.5547 10.1891 13.7829 10.1893H16.6732C17.1235 10.1901 17.555 10.3694 17.8733 10.6879C18.1916 11.0064 18.3706 11.4381 18.3712 11.8883L18.3714 11.8882Z" fill="#D9FF43"/>
</svg>
