<svg viewBox="0 0 24 28" fill="none" xmlns="http://www.w3.org/2000/svg">
	<path d="M20.7201 3.56L13.3867 0.813333C12.6267 0.533333 11.3867 0.533333 10.6267 0.813333L3.2934 3.56C1.88006 4.09333 0.733398 5.74667 0.733398 7.25333V18.0533C0.733398 19.1333 1.44007 20.56 2.30673 21.2L9.64006 26.68C10.9334 27.6533 13.0534 27.6533 14.3467 26.68L21.6801 21.2C22.5467 20.5467 23.2534 19.1333 23.2534 18.0533V7.25333C23.2667 5.74667 22.1201 4.09333 20.7201 3.56ZM13.0001 15.16V18.6667C13.0001 19.2133 12.5467 19.6667 12.0001 19.6667C11.4534 19.6667 11.0001 19.2133 11.0001 18.6667V15.16C9.6534 14.7333 8.66673 13.48 8.66673 12C8.66673 10.16 10.1601 8.66667 12.0001 8.66667C13.8401 8.66667 15.3334 10.16 15.3334 12C15.3334 13.4933 14.3467 14.7333 13.0001 15.16Z" fill="url(#icon_lock)"/>
	<defs>
		<linearGradient id="icon_lock" x1="12" y1="2.5" x2="12" y2="27" gradientUnits="userSpaceOnUse">
			<stop stop-color="#D9FF43"/>
			<stop offset="1" stop-color="#00F1B5"/>
		</linearGradient>
	</defs>
</svg>