<svg width="78" height="71" viewBox="0 0 78 71" fill="none" xmlns="http://www.w3.org/2000/svg">
<mask id="mask0_300_239" style="mask-type:luminance" maskUnits="userSpaceOnUse" x="0" y="0" width="78" height="71">
<path d="M78 0H0V71H78V0Z" fill="white"/>
</mask>
<g mask="url(#mask0_300_239)">
<path d="M38.9996 55.7404C42.3061 55.7249 45.546 54.8087 48.3713 53.0902C51.1967 51.3717 53.5008 48.9157 55.0363 45.986H22.9629C24.4992 48.9172 26.805 51.3742 29.6323 53.0928C32.4596 54.8114 35.7015 55.7268 39.0098 55.7404" fill="#D9FF43"/>
<path d="M44.5716 23.689C44.5705 22.9501 44.2765 22.2417 43.754 21.7194C43.2316 21.1971 42.5233 20.9034 41.7847 20.9029H37.6064V26.4772H41.7847C42.5235 26.4761 43.2317 26.182 43.7542 25.6593C44.2766 25.1367 44.5705 24.4281 44.5716 23.689Z" fill="white"/>
<path d="M26.4627 23.9166L25.1465 27.8692H27.781L26.4627 23.9166Z" fill="white"/>
<path d="M15.3216 45.986C13.9237 45.9802 12.5311 45.8124 11.1717 45.4861L6.87158 47.2581L10.3247 55.6266L16.2031 53.188C16.4966 53.0677 16.8222 53.0513 17.1263 53.1415C17.4303 53.2316 17.6944 53.423 17.8749 53.6839C19.5903 56.1353 21.7214 58.2674 24.1717 59.9836C24.4321 60.1649 24.6225 60.43 24.7112 60.7347C24.7999 61.0394 24.7816 61.3653 24.6592 61.6581L22.2339 67.527L30.5925 70.9939L33.03 65.1209C33.1521 64.8278 33.3703 64.585 33.6486 64.4325C33.927 64.2799 34.249 64.2267 34.5616 64.2816C37.5044 64.8058 40.5171 64.8016 43.4585 64.2694C43.7711 64.2139 44.0934 64.2666 44.3722 64.4188C44.6509 64.5709 44.8695 64.8136 44.9921 65.1067L47.4296 70.9898L55.776 67.5351L53.3405 61.65C53.2194 61.3561 53.2023 61.0296 53.2921 60.7247C53.3818 60.4198 53.5731 60.1547 53.8341 59.9734C56.2869 58.2643 58.4187 56.1351 60.131 53.6839C60.3126 53.4245 60.5774 53.2349 60.8814 53.1466C61.1854 53.0583 61.5104 53.0765 61.8027 53.1982L67.6791 55.6368L71.1485 47.2703L68.0203 45.9677C67.8639 45.9677 67.7096 45.9901 67.5511 45.9901H58.1221C56.5026 49.7172 53.8301 52.89 50.433 55.1184C47.0359 57.3469 43.0621 58.5341 38.9999 58.5341C34.9376 58.5341 30.9638 57.3469 27.5667 55.1184C24.1696 52.89 21.4972 49.7172 19.8777 45.9901L15.3216 45.986Z" fill="#D9FF43"/>
<path d="M15.3216 43.1979H67.5531C70.3238 43.1979 72.9809 42.0967 74.9401 40.1367C76.8992 38.1767 77.9998 35.5183 77.9998 32.7464C77.9998 29.9745 76.8992 27.3161 74.9401 25.3561C72.9809 23.3961 70.3238 22.2949 67.5531 22.2949H67.415C67.1268 22.2951 66.8457 22.2059 66.6104 22.0395C66.375 21.8732 66.197 21.638 66.1008 21.3662C65.1857 18.7709 63.4842 16.5258 61.2333 14.9438C58.9825 13.3618 56.2943 12.5217 53.5436 12.5405C53.4075 12.5405 53.2734 12.5405 53.1373 12.5405C52.8395 12.5603 52.5431 12.4844 52.2914 12.324C52.0397 12.1635 51.8457 11.9268 51.7378 11.6484C50.4294 8.21618 48.1088 5.26308 45.0839 3.18091C42.059 1.09875 38.4728 -0.0140645 34.8011 -0.00987591C31.1294 -0.00568735 27.5458 1.1153 24.5257 3.20437C21.5055 5.29343 19.1917 8.25181 17.8911 11.687C17.7862 11.977 17.5881 12.2239 17.3279 12.3891C17.0676 12.5542 16.7598 12.6282 16.453 12.5995C16.0783 12.5632 15.702 12.5463 15.3256 12.5487C11.2621 12.5487 7.36491 14.1636 4.49153 17.0383C1.61815 19.913 0.00390625 23.8119 0.00390625 27.8773C0.00390625 31.9427 1.61815 35.8416 4.49153 38.7163C7.36491 41.591 11.2621 43.206 15.3256 43.206M48.7498 18.1148H57.1064C57.476 18.1148 57.8304 18.2616 58.0917 18.5231C58.353 18.7845 58.4998 19.1391 58.4998 19.5088C58.4998 19.8786 58.353 20.2332 58.0917 20.4946C57.8304 20.756 57.476 20.9029 57.1064 20.9029H54.3216V34.8375H57.1064C57.2937 34.8303 57.4806 34.8611 57.6558 34.9279C57.8309 34.9946 57.9909 35.0961 58.1259 35.2262C58.261 35.3562 58.3684 35.5122 58.4418 35.6848C58.5152 35.8574 58.553 36.043 58.553 36.2306C58.553 36.4181 58.5152 36.6037 58.4418 36.7763C58.3684 36.9489 58.261 37.1049 58.1259 37.235C57.9909 37.365 57.8309 37.4665 57.6558 37.5333C57.4806 37.6 57.2937 37.6308 57.1064 37.6236H48.7498C48.5625 37.6308 48.3757 37.6 48.2005 37.5333C48.0253 37.4665 47.8654 37.365 47.7303 37.235C47.5953 37.1049 47.4878 36.9489 47.4144 36.7763C47.341 36.6037 47.3032 36.4181 47.3032 36.2306C47.3032 36.043 47.341 35.8574 47.4144 35.6848C47.4878 35.5122 47.5953 35.3562 47.7303 35.2262C47.8654 35.0961 48.0253 34.9946 48.2005 34.9279C48.3757 34.8611 48.5625 34.8303 48.7498 34.8375H51.5347V20.9029H48.7498C48.3803 20.9029 48.0258 20.756 47.7645 20.4946C47.5032 20.2332 47.3564 19.8786 47.3564 19.5088C47.3564 19.1391 47.5032 18.7845 47.7645 18.5231C48.0258 18.2616 48.3803 18.1148 48.7498 18.1148ZM36.213 18.1148H41.7847C43.2624 18.1148 44.6796 18.7021 45.7245 19.7474C46.7694 20.7928 47.3564 22.2106 47.3564 23.689C47.3564 25.1674 46.7694 26.5852 45.7245 27.6306C44.6796 28.676 43.2624 29.2633 41.7847 29.2633H37.6064V36.2316C37.5926 36.5918 37.4399 36.9327 37.1803 37.1828C36.9207 37.4328 36.5743 37.5724 36.214 37.5724C35.8536 37.5724 35.5073 37.4328 35.2477 37.1828C34.988 36.9327 34.8353 36.5918 34.8216 36.2316V19.5088C34.8216 19.1395 34.9681 18.7852 35.229 18.5238C35.4898 18.2624 35.8438 18.1153 36.213 18.1148ZM22.3578 12.1016C25.425 2.89381 33.1031 2.78611 33.4281 2.78611C33.7977 2.78611 34.1521 2.93298 34.4134 3.19442C34.6748 3.45586 34.8216 3.81045 34.8216 4.18018C34.8216 4.54991 34.6748 4.90449 34.4134 5.16593C34.1521 5.42737 33.7977 5.57425 33.4281 5.57425C33.16 5.57425 27.4034 5.75104 24.9944 12.9835C24.8653 13.318 24.6123 13.5899 24.2881 13.7426C23.9638 13.8954 23.5932 13.9173 23.2532 13.8037C22.9133 13.6902 22.6301 13.4499 22.4626 13.133C22.2951 12.816 22.2561 12.4466 22.3538 12.1016M19.5709 35.7906L25.1427 19.0679C25.1569 19.039 25.1732 19.0111 25.1914 18.9845C25.3421 18.6519 25.6085 18.3854 25.9409 18.2347C25.9714 18.2225 25.9917 18.1981 26.0242 18.1879C26.0759 18.178 26.1281 18.1712 26.1806 18.1676C26.3666 18.1209 26.5613 18.1209 26.7473 18.1676C26.8005 18.1714 26.8534 18.1782 26.9058 18.1879C26.9362 18.1879 26.9566 18.2225 26.987 18.2347C27.3195 18.3854 27.5859 18.6519 27.7366 18.9845C27.7547 19.0111 27.771 19.039 27.7853 19.0679L33.357 35.7906C33.4547 36.1356 33.4157 36.505 33.2482 36.822C33.0807 37.139 32.7975 37.3792 32.4576 37.4927C32.1176 37.6063 31.747 37.5844 31.4227 37.4317C31.0985 37.2789 30.8455 37.0071 30.7164 36.6726L28.7116 30.6573H24.2184L22.2136 36.6726C22.0845 37.0071 21.8315 37.2789 21.5073 37.4317C21.183 37.5844 20.8124 37.6063 20.4724 37.4927C20.1325 37.3792 19.8493 37.139 19.6818 36.822C19.5143 36.505 19.4753 36.1356 19.573 35.7906M9.97531 16.5358C10.1407 16.4572 10.3199 16.4119 10.5028 16.4027C10.6856 16.3934 10.8685 16.4202 11.041 16.4816C11.2135 16.543 11.3722 16.6379 11.5081 16.7606C11.644 16.8834 11.7543 17.0318 11.8329 17.1972C11.9114 17.3627 11.9567 17.542 11.9659 17.725C11.9752 17.9079 11.9484 18.0909 11.887 18.2635C11.8256 18.436 11.7309 18.5948 11.6081 18.7307C11.4854 18.8667 11.3371 18.9771 11.1717 19.0557C9.50358 19.8477 8.09326 21.0954 7.10346 22.6548C6.11365 24.2143 5.58471 26.0219 5.57766 27.8692C5.56796 30.0895 6.32899 32.2443 7.73078 33.9657C7.85252 34.107 7.94466 34.2714 8.00175 34.449C8.05885 34.6266 8.07973 34.8138 8.06316 34.9996C8.04659 35.1855 7.99291 35.3661 7.9053 35.5308C7.81769 35.6954 7.69793 35.8409 7.55312 35.9584C7.40831 36.0759 7.24139 36.1632 7.06225 36.215C6.88311 36.2668 6.6954 36.2821 6.51024 36.26C6.32507 36.238 6.14623 36.1789 5.98429 36.0864C5.82235 35.9939 5.68063 35.8698 5.5675 35.7215C4.37532 34.2469 3.53399 32.5203 3.10717 30.6724C2.68036 28.8245 2.67924 26.9037 3.10389 25.0553C3.52855 23.2069 4.36786 21.4794 5.55833 20.0034C6.74879 18.5274 8.25921 17.3416 9.97531 16.5358Z" fill="white"/>
</g>
</svg>
