<svg width="87" height="80" viewBox="0 0 87 80" fill="none" xmlns="http://www.w3.org/2000/svg">
<path d="M65.8203 73.2804V56.2573H75.8119V74.102L65.8203 73.2804Z" fill="#00D999"/>
<path d="M72.9242 64.6907C72.6967 64.6907 72.4785 64.781 72.3177 64.9419C72.1568 65.1028 72.0664 65.321 72.0664 65.5485V67.2882C72.0664 67.5157 72.1568 67.7339 72.3177 67.8948C72.4785 68.0557 72.6967 68.146 72.9242 68.146C73.1517 68.146 73.3699 68.0557 73.5308 67.8948C73.6916 67.7339 73.782 67.5157 73.782 67.2882V65.5485C73.782 65.4358 73.7598 65.3243 73.7167 65.2202C73.6736 65.1161 73.6104 65.0216 73.5308 64.9419C73.4511 64.8623 73.3565 64.7991 73.2525 64.756C73.1484 64.7129 73.0369 64.6907 72.9242 64.6907Z" fill="#003D2B"/>
<path d="M16.3701 40.926C16.3701 40.926 19.7651 17.85 30.1191 17.6808C40.4731 17.5117 16.3701 18.1641 16.3701 18.1641V40.926Z" fill="#00D999"/>
<path d="M40.3047 41.4452C40.3047 41.4452 41.6216 7.67695 53.957 11.1202C66.2924 14.5635 40.3047 6.56543 40.3047 6.56543V41.4452Z" fill="#00D999"/>
<path d="M39.9537 74.102V45.6376L58.5715 45.2993C58.5715 45.2993 37.3319 50.0837 39.9537 74.102Z" fill="#00D999"/>
<path d="M4.68776 74.1018C4.68776 74.1018 4.25282 46.3139 25.4562 45.9636C46.6595 45.6132 5.78719 45.3232 5.78719 45.3232L4.28906 46.8455L4.68776 74.1018Z" fill="#00D999"/>
<path d="M0.857422 76.156C0.860602 76.9176 1.16457 77.6472 1.70313 78.1857C2.24169 78.7243 2.97123 79.0283 3.73286 79.0314H84.1244C84.887 79.0314 85.6184 78.7285 86.1576 78.1892C86.6969 77.65 86.9998 76.9186 86.9998 76.156C86.9998 75.3934 86.6969 74.662 86.1576 74.1227C85.6184 73.5835 84.887 73.2805 84.1244 73.2805H81.5389V31.8525C81.5389 31.625 81.4485 31.4068 81.2876 31.2459C81.1268 31.085 80.9086 30.9947 80.6811 30.9947C80.4536 30.9947 80.2354 31.085 80.0745 31.2459C79.9137 31.4068 79.8233 31.625 79.8233 31.8525V40.5271H73.3113V26.754C73.3081 26.1878 73.0818 25.6457 72.6814 25.2454C72.2811 24.845 71.739 24.6187 71.1728 24.6155H49.5345C48.9662 24.6155 48.4211 24.8404 48.0181 25.2411C47.6152 25.6418 47.3872 26.1857 47.384 26.754V40.5271H40.872V7.48372L41.4398 7.64078L79.4971 18.2485L79.8233 18.3331V23.7577C79.8233 23.9852 79.9137 24.2034 80.0745 24.3643C80.2354 24.5252 80.4536 24.6155 80.6811 24.6155C80.9086 24.6155 81.1268 24.5252 81.2876 24.3643C81.4485 24.2034 81.5389 23.9852 81.5389 23.7577V18.8163L82.1067 18.9734L83.8948 19.4687C84.015 19.487 84.1371 19.487 84.2573 19.4687C84.5405 19.4653 84.8155 19.3723 85.0426 19.2029C85.2045 19.0798 85.3356 18.9208 85.4258 18.7384C85.5159 18.556 85.5626 18.3553 85.5621 18.1518V14.769C85.5499 14.4929 85.4511 14.2277 85.2798 14.0109C85.1085 13.794 84.8734 13.6366 84.6076 13.5608L36.8004 0.270955C36.5965 0.206365 36.38 0.19241 36.1694 0.230301C35.9589 0.268192 35.7608 0.356786 35.5923 0.488424C35.4304 0.611598 35.2992 0.770605 35.2091 0.952972C35.1189 1.13534 35.0723 1.33611 35.0727 1.53953V4.91032C35.0729 5.19838 35.1676 5.47843 35.3421 5.70756C35.5167 5.93669 35.7616 6.10226 36.0393 6.1789L38.7697 6.94004L39.0959 7.0367V12.5339H13.4707C13.2825 12.5339 13.0961 12.5711 12.9223 12.6435C12.7486 12.7159 12.5909 12.822 12.4583 12.9557C12.3258 13.0893 12.221 13.2479 12.1501 13.4223C12.0792 13.5967 12.0435 13.7833 12.0451 13.9716V17.2457C12.045 17.6249 12.1949 17.9888 12.4619 18.2581C12.7289 18.5274 13.0915 18.6802 13.4707 18.6834H15.5125V44.6953H6.4754C5.69886 44.6985 4.95522 45.0092 4.40725 45.5594C3.85928 46.1097 3.55163 46.8546 3.55164 47.6311V73.2685L3.18919 73.341C2.53544 73.4692 1.94614 73.8195 1.52116 74.3325C1.09619 74.8456 0.861693 75.4898 0.857422 76.156ZM79.8233 46.4109V73.2805H76.8391V56.7649C76.8363 56.3639 76.679 55.9794 76.4 55.6914C76.121 55.4034 75.7417 55.234 75.341 55.2184H66.5697C66.1595 55.2184 65.7662 55.3814 65.4762 55.6714C65.1862 55.9614 65.0232 56.3547 65.0232 56.7649V73.2805H40.8599V46.4109H79.8233ZM75.1235 56.934V73.2805H66.7388V56.934H75.1235ZM49.0996 40.0801V26.307H71.5957V40.5271H49.0996V40.0801ZM79.3763 42.2427H79.8233V44.659H17.2281V42.2427H79.3763ZM25.4557 40.5271V28.2884H33.9129V40.5271H25.4557ZM37.175 4.68077L36.8488 4.55995V2.03488L37.4166 2.19194L83.5203 15.0348L83.8465 15.1314V17.6807L83.2787 17.5115L37.175 4.68077ZM39.1563 18.6834V40.5271H35.6043V28.2763C35.6043 27.8245 35.4249 27.3912 35.1054 27.0717C34.7859 26.7523 34.3526 26.5728 33.9008 26.5728H25.4436C24.9918 26.5728 24.5585 26.7523 24.2391 27.0717C23.9196 27.3912 23.7401 27.8245 23.7401 28.2763V40.5271H17.2281V18.6834H39.1563ZM14.2077 16.9678H13.7244V14.2253H39.0959V16.9437H14.2077V16.9678ZM5.26724 72.8335V47.6311C5.26724 47.3107 5.39452 47.0034 5.6211 46.7768C5.84767 46.5503 6.15498 46.423 6.4754 46.423H39.1563V73.2805H33.9371V56.6199C33.9371 56.2162 33.7767 55.829 33.4912 55.5435C33.2057 55.258 32.8185 55.0976 32.4148 55.0976H11.7793C11.3755 55.0976 10.9883 55.258 10.7028 55.5435C10.4174 55.829 10.257 56.2162 10.257 56.6199V73.2805H5.26724V72.8335ZM22.834 61.6821H32.2577V64.8475H11.9726V61.6821H14.703C14.8234 61.6965 14.9454 61.6852 15.0611 61.6489C15.1768 61.6127 15.2835 61.5523 15.3741 61.4719C15.4648 61.3914 15.5374 61.2926 15.5871 61.182C15.6368 61.0715 15.6624 60.9516 15.6624 60.8304C15.6624 60.7092 15.6368 60.5893 15.5871 60.4787C15.5374 60.3682 15.4648 60.2694 15.3741 60.1889C15.2835 60.1084 15.1768 60.0481 15.0611 60.0118C14.9454 59.9756 14.8234 59.9643 14.703 59.9786H11.9726V56.8132H32.2215V59.9786H22.7978C22.6774 59.9643 22.5553 59.9756 22.4397 60.0118C22.324 60.0481 22.2173 60.1084 22.1266 60.1889C22.036 60.2694 21.9634 60.3682 21.9137 60.4787C21.864 60.5893 21.8383 60.7092 21.8383 60.8304C21.8383 60.9516 21.864 61.0715 21.9137 61.182C21.9634 61.2926 22.036 61.3914 22.1266 61.4719C22.2173 61.5523 22.324 61.6127 22.4397 61.6489C22.5553 61.6852 22.6774 61.6965 22.7978 61.6821H22.834ZM31.8107 69.7165H11.9726V66.5631H32.2215V69.7165H31.8107ZM32.2577 71.4321V73.2805H11.9726V71.4321H32.2215H32.2577ZM3.76911 75.0566H84.1244C84.3753 75.1298 84.5958 75.2824 84.7526 75.4915C84.9095 75.7006 84.9942 75.955 84.9942 76.2164C84.9942 76.4778 84.9095 76.7322 84.7526 76.9413C84.5958 77.1504 84.3753 77.303 84.1244 77.3762H3.73286C3.48191 77.303 3.26146 77.1504 3.10461 76.9413C2.94777 76.7322 2.86298 76.4778 2.86298 76.2164C2.86298 75.955 2.94777 75.7006 3.10461 75.4915C3.26146 75.2824 3.48191 75.1298 3.73286 75.0566H3.76911Z" fill="#003D2B"/>
</svg>
