<svg width="30" height="30" viewBox="0 0 30 30" fill="none" xmlns="http://www.w3.org/2000/svg">
<path d="M8.12726 17.9693C10.0493 18.4499 11.5501 19.9507 12.0307 21.8727L13.8352 29.0905C13.9688 29.625 14.449 30 15 30C15.551 30 16.0312 29.625 16.1648 29.0905L17.9693 21.8727C18.4499 19.9507 19.9507 18.4499 21.8727 17.9693L29.0905 16.1648C29.625 16.0312 30 15.551 30 15C30 14.449 29.625 13.9688 29.0905 13.8352L21.8727 12.0307C19.9507 11.5501 18.4499 10.0493 17.9693 8.12726L16.1648 0.909509C16.0312 0.374984 15.551 0 15 0C14.449 0 13.9688 0.374984 13.8352 0.909509L12.0307 8.12726C11.5501 10.0493 10.0493 11.5501 8.12726 12.0307L0.909509 13.8352C0.374984 13.9688 0 14.449 0 15C0 15.551 0.374984 16.0312 0.909509 16.1648L8.12726 17.9693Z" fill="#003D2B"/>
</svg>
