<svg width="32" height="36" viewBox="0 0 32 36" fill="none" xmlns="http://www.w3.org/2000/svg">
<path fill-rule="evenodd" clip-rule="evenodd" d="M25.9831 27.4624C24.1454 27.4624 23.6086 25.2531 21.6263 24.7988C20.8211 24.613 16.2371 25.0879 15.5764 25.1498C9.54706 25.8106 7.33769 25.7073 4.98378 19.4715L0.131421 6.58698C-0.281545 5.49262 0.27596 4.27437 1.37032 3.8614C2.46468 3.44844 3.68293 4.00594 4.0959 5.1003L9.15474 18.5217C10.022 20.8137 10.3523 21.6603 13.6148 21.1028C15.3079 20.8343 20.9862 20.2975 22.5762 20.6691C24.1454 21.0202 26.9123 22.7753 27.8002 24.2413C28.6468 25.666 27.5937 27.4624 25.9831 27.4624Z" fill="#020202"/>
<path fill-rule="evenodd" clip-rule="evenodd" d="M7.35938 29.2795L9.40356 25.8105C10.5805 26.1409 11.9433 26.1409 13.1822 26.079L10.5805 30.5184C9.52745 30.188 8.41244 29.775 7.35938 29.2795Z" fill="#020202"/>
<path fill-rule="evenodd" clip-rule="evenodd" d="M20.4907 31.2205L17.2695 25.6867C18.3432 25.5835 19.9951 25.439 21.0482 25.439L23.8976 30.3533C22.7826 30.7456 21.647 31.0347 20.4907 31.2205Z" fill="#020202"/>
<path fill-rule="evenodd" clip-rule="evenodd" d="M17.0633 35.5979C12.8097 35.5979 8.53552 34.5035 4.75687 32.542C3.72446 32.0051 2.91917 31.5095 2.27907 31.0553C1.53573 30.4978 1.37055 29.4241 1.92805 28.6807C2.46491 27.9167 3.53862 27.7515 4.28196 28.309C6.2642 29.7751 9.60923 31.0553 11.8599 31.5921C17.8892 33.0375 23.9392 31.9432 29.3903 28.4536C30.175 27.9374 31.228 28.1645 31.7236 28.9491C32.2398 29.7338 32.0127 30.7868 31.228 31.3031C26.768 34.1525 21.9569 35.5979 17.0633 35.5979Z" fill="#020202"/>
<path fill-rule="evenodd" clip-rule="evenodd" d="M17.2276 17.8608C15.9681 17.8608 15.8442 16.911 13.449 16.2709C12.1275 15.9199 10.5169 15.7547 8.88568 15.8373L7.31641 11.687C11.1776 11.274 15.5964 11.8315 18.5285 14.0616C20.139 15.3005 19.2718 17.8608 17.2276 17.8608Z" fill="#FF6100"/>
<path fill-rule="evenodd" clip-rule="evenodd" d="M18.0131 11.4187C14.9572 11.4187 12.5 8.94089 12.5 5.88493C12.5 2.84963 14.9572 0.371826 18.0131 0.371826C21.0484 0.371826 23.5262 2.84963 23.5262 5.88493C23.5262 8.94089 21.0484 11.4187 18.0131 11.4187ZM17.5795 8.71375C16.3612 8.38338 15.9689 6.71087 16.7742 6.71087C17.0013 6.71087 17.1872 6.8967 17.1872 7.12383C17.1872 8.19755 18.839 8.19755 18.839 7.12383C18.839 5.71975 16.3612 6.87605 16.3612 4.64603C16.3612 3.75815 16.9187 3.24195 17.5795 3.07676C17.5795 2.89092 17.6001 2.70509 17.6001 2.5399C17.6001 1.9824 18.4261 1.9824 18.4261 2.5399V3.07676C19.0868 3.24195 19.665 3.75815 19.665 4.64603C19.665 5.20354 18.839 5.20354 18.839 4.64603C18.839 3.57232 17.1872 3.57232 17.1872 4.64603C17.1872 6.07077 19.665 4.89381 19.665 7.12383C19.665 7.88782 19.1281 8.52792 18.4261 8.71375C18.4467 9.20931 18.4467 9.66358 18.0131 9.66358C17.5795 9.66358 17.5795 9.20931 17.5795 8.71375Z" fill="#FF6100"/>
</svg>
