<svg width="80" height="81" viewBox="0 0 80 81" fill="none" xmlns="http://www.w3.org/2000/svg">
<path d="M39.8638 41.0832C34.5549 38.2384 29.6473 34.7011 25.2696 30.5642C18.3093 23.8284 16.9734 16.9916 16.9734 16.9916C16.9734 16.9916 16.3672 8.88621 19.2187 6.09086C22.0701 3.29551 26.2575 0.331767 30.4449 1.54421C34.6324 2.75665 38.7861 4.45182 39.7291 7.67377L41.2783 5.70917C41.2783 5.70917 43.9277 2.15043 47.6436 1.77996C51.3595 1.40949 56.4563 1.36459 59.4425 4.72125C62.4287 8.07791 63.933 15.3189 63.2257 17.3621C62.5185 19.4052 57.8034 28.7231 56.5685 29.7447C55.3336 30.7663 42.9847 40.4995 39.8638 41.0832Z" fill="#00D999"/>
<path d="M28.5026 79.365C28.5026 79.365 30.7479 70.2605 27.38 68.1387C10.8436 57.6533 6.645 44.5635 3.38937 39.2197C0.133746 33.876 10.7201 61.5152 12.2357 62.5704C13.7512 63.6257 13.639 62.5704 13.639 62.5704L17.5121 65.725L22.2271 70.6871L22.3955 77.0636V79.7691L28.5026 79.365Z" fill="#00D999"/>
<path d="M39.527 42.6212C39.6332 42.6671 39.748 42.6901 39.8638 42.6885C39.9794 42.6888 40.0939 42.6659 40.2005 42.6212C44.6892 40.3131 48.8969 37.4955 52.7403 34.2239C55.9795 31.5416 58.7459 28.3351 60.9243 24.7377C63.187 21.0833 64.141 16.7686 63.6298 12.501C63.3035 9.19733 61.8063 6.11931 59.4087 3.82308C57.3331 1.95772 54.6936 0.839483 51.9096 0.646037C51.5279 0.646037 51.1237 0.646037 50.7308 0.646037C48.412 0.640452 46.1282 1.2114 44.0849 2.30753C42.5286 3.13825 41.1989 4.33683 40.2118 5.79891L39.8638 6.32654L39.5157 5.79891C38.5258 4.33922 37.1969 3.14122 35.6427 2.30753C33.5993 1.2114 31.3155 0.640452 28.9967 0.646037C28.6038 0.646037 28.1996 0.646037 27.8067 0.646037C25.026 0.839386 22.3901 1.9578 20.3188 3.82308C17.9395 6.13071 16.4625 9.21212 16.1538 12.5122C15.6728 16.4417 16.4594 20.4222 18.3991 23.8732C20.2771 27.2819 22.7176 30.3487 25.6176 32.9441C25.7564 33.0768 25.942 33.1494 26.134 33.1462C26.2397 33.1467 26.3443 33.125 26.441 33.0825C26.5377 33.0399 26.6243 32.9775 26.6953 32.8992C26.7729 32.8277 26.8348 32.7409 26.8771 32.6443C26.9195 32.5477 26.9413 32.4434 26.9413 32.3379C26.9413 32.2324 26.9195 32.1281 26.8771 32.0314C26.8348 31.9348 26.7729 31.848 26.6953 31.7766C19.8697 25.4337 16.8611 19.0123 17.7143 12.6919C18.545 6.57352 22.4069 2.58819 28.0425 2.16159C28.3905 2.16159 28.761 2.16159 29.1651 2.16159C33.9475 2.16159 38.1461 4.76609 39.2688 8.49322C39.3168 8.64926 39.4136 8.7858 39.5449 8.88279C39.6762 8.97977 39.8352 9.0321 39.9985 9.03208C40.1609 9.0287 40.3183 8.97507 40.4489 8.87857C40.5796 8.78207 40.6772 8.64744 40.7282 8.49322C41.8508 4.76609 46.0607 2.16159 50.8319 2.16159C51.1911 2.16159 51.5503 2.16159 51.9545 2.16159C57.5676 2.63309 61.4407 6.57352 62.2827 12.6919C62.7359 16.6091 61.8538 20.5646 59.7792 23.9181C57.6852 27.363 55.029 30.4328 51.9208 33.0002C48.3078 36.0557 44.3788 38.7165 40.2005 40.9372L40.0097 41.0383L39.729 40.9821C36.3853 39.2123 33.2003 37.1578 30.2091 34.8413C30.0727 34.74 29.9075 34.685 29.7376 34.6842C29.6209 34.6824 29.5053 34.7079 29.4001 34.7585C29.2949 34.8092 29.2029 34.8837 29.1314 34.976C29.0616 35.0565 29.0095 35.1506 28.9783 35.2524C28.947 35.3543 28.9375 35.4615 28.9502 35.5672C28.9628 35.6729 28.9975 35.7748 29.0519 35.8664C29.1063 35.9579 29.1793 36.037 29.2661 36.0987C32.4755 38.5881 35.9107 40.7718 39.527 42.6212Z" fill="#003D2B"/>
<path d="M48.7097 79.7241C48.7097 79.7241 47.6769 68.5989 49.2261 65.2759C51.4774 61.1246 54.1604 57.2225 57.2305 53.6342C58.7123 52.2309 64.5949 45.2931 64.6286 43.7551C64.6623 42.2171 58.9032 47.819 58.9032 47.819L54.2106 52.0401C54.2106 52.0401 48.4852 55.015 47.7106 56.4183C46.9359 57.8216 43.5232 65.231 43.6691 68.06C43.815 70.889 43.815 79.7241 43.815 79.7241H48.7097Z" fill="#00D999"/>
<path d="M77.0675 40.2415C77.2312 40.2433 77.391 40.1917 77.5227 40.0944C77.6544 39.9972 77.7508 39.8596 77.7972 39.7026L79.6046 33.8313C79.7376 33.3964 79.7763 32.9381 79.7183 32.4871C79.6602 32.036 79.5066 31.6026 79.2678 31.2155C79.0206 30.8272 78.6916 30.4974 78.3038 30.2492C77.916 30.001 77.4788 29.8404 77.0225 29.7786H76.5398C75.9871 29.7776 75.4438 29.9223 74.9649 30.1983C74.4859 30.4742 74.0882 30.8716 73.8118 31.3502L73.5873 31.7432L73.2168 31.485C72.8794 31.2561 72.4964 31.1029 72.0942 31.0359C71.93 31.0188 71.7645 31.0188 71.6002 31.0359C71.0137 31.0375 70.4417 31.2193 69.9618 31.5566C69.482 31.8939 69.1173 32.3705 68.9172 32.9219L68.3558 34.6396L68.1875 35.156L67.7384 34.8529C67.4737 34.6781 67.1815 34.549 66.874 34.4712C66.6427 34.413 66.4052 34.3828 66.1667 34.3813C65.5642 34.381 64.9774 34.5737 64.4925 34.9314C64.0076 35.289 63.65 35.7927 63.4724 36.3684L63.1132 37.491L62.9448 38.0299L62.4845 37.7156C62.1475 37.4837 61.7647 37.3267 61.3619 37.2553C61.2014 37.2379 61.0396 37.2379 60.8791 37.2553C60.2667 37.2536 59.6694 37.4461 59.1732 37.8051C58.677 38.1642 58.3074 38.6713 58.1175 39.2536L54.323 50.7942L54.2668 50.9738L54.0984 51.0412C51.16 52.3794 48.6216 54.4613 46.734 57.0809C44.7524 60.1407 43.5073 63.6184 43.0967 67.2407V79.5896C43.0967 79.6899 43.1164 79.7892 43.1548 79.8818C43.1932 79.9744 43.2494 80.0586 43.3203 80.1294C43.3912 80.2003 43.4753 80.2566 43.5679 80.2949C43.6606 80.3333 43.7598 80.353 43.8601 80.353H57.4439C57.5441 80.353 57.6434 80.3333 57.736 80.2949C57.8286 80.2566 57.9128 80.2003 57.9837 80.1294C58.0546 80.0586 58.1108 79.9744 58.1492 79.8818C58.1875 79.7892 58.2073 79.6899 58.2073 79.5896V70.9342L58.3532 70.8107L67.0648 63.7044C71.6676 59.9436 73.5985 53.5222 75.2937 47.8417C75.4845 47.2018 76.4163 44.238 76.4163 44.238C76.4458 44.1422 76.4562 44.0415 76.4467 43.9417C76.4373 43.8419 76.4083 43.7449 76.3614 43.6563C76.3145 43.5677 76.2506 43.4892 76.1733 43.4253C76.0961 43.3613 76.007 43.3133 75.9111 43.2838C75.8368 43.272 75.761 43.272 75.6866 43.2838C75.5229 43.282 75.3631 43.3336 75.2314 43.4309C75.0997 43.5281 75.0033 43.6657 74.9569 43.8227L73.8343 47.4375C72.1952 52.8935 70.3429 59.0904 66.0994 62.5481L56.9612 70.0136C56.8724 70.085 56.801 70.1757 56.7523 70.2788C56.7037 70.3819 56.6791 70.4946 56.6805 70.6086V78.8712H44.5898V67.3754C45.0008 64.0165 46.1718 60.7953 48.0138 57.9566C49.8511 55.4502 52.3289 53.4842 55.1874 52.2648H55.266L55.3558 52.2087L55.4568 52.1301L62.1926 45.5627C62.4171 45.327 62.6529 45.1025 62.8999 44.8667L63.2479 44.5299L63.3377 44.4401C63.5882 44.1397 63.9254 43.924 64.3032 43.8227C64.4114 43.8116 64.5205 43.8116 64.6287 43.8227C64.936 43.8217 65.2367 43.9116 65.4931 44.0809C65.6669 44.199 65.8144 44.3516 65.9264 44.5294C66.0385 44.7071 66.1126 44.906 66.1443 45.1137C66.1778 45.324 66.1682 45.5389 66.1161 45.7454C66.064 45.9519 65.9704 46.1457 65.8412 46.3149L56.8601 57.631C56.7468 57.7782 56.6901 57.9612 56.7004 58.1466C56.7107 58.3321 56.7873 58.5077 56.9162 58.6414C56.9861 58.7173 57.0712 58.7776 57.166 58.8182C57.2608 58.8589 57.3632 58.879 57.4663 58.8771C57.6328 58.8763 57.7944 58.8211 57.9266 58.72L62.7764 54.9704C67.4559 51.3997 70.8799 46.4346 72.5545 40.7916L75.0467 32.4504C75.1534 32.1237 75.3607 31.8391 75.639 31.6375C75.9173 31.4358 76.2523 31.3274 76.5959 31.3278C76.7154 31.3168 76.8357 31.3168 76.9552 31.3278C77.1711 31.3797 77.3741 31.4751 77.5517 31.6083C77.7293 31.7415 77.8778 31.9097 77.988 32.1024C78.0988 32.2943 78.1698 32.5065 78.1968 32.7263C78.2238 32.9462 78.2062 33.1693 78.1452 33.3822L76.3265 39.2536C76.2715 39.4483 76.2915 39.6566 76.3826 39.8373C76.4785 40.0145 76.6395 40.1474 76.8317 40.2078L77.0675 40.2415ZM62.1814 40.5783L60.9689 44.4738V44.5748L60.9016 44.6534L57.8368 47.6396L56.5682 48.8184L57.0959 47.213L59.532 39.7475C59.5906 39.5675 59.6856 39.4014 59.8111 39.2596C59.9366 39.1178 60.0899 39.0033 60.2615 38.9233C60.4332 38.8433 60.6194 38.7994 60.8087 38.7944C60.998 38.7895 61.1863 38.8234 61.3619 38.8943C61.6851 39.0207 61.9489 39.2641 62.1007 39.5761C62.2526 39.8882 62.2814 40.246 62.1814 40.5783ZM65.9646 42.0714L65.8412 42.4531L65.4595 42.3408C65.1934 42.2615 64.9176 42.2199 64.6399 42.2173C64.3947 42.2194 64.1503 42.2458 63.9102 42.2959L63.203 42.4643L63.4163 41.7683L64.9543 36.8287C65.0269 36.555 65.1891 36.3134 65.4149 36.1425C65.6407 35.9716 65.9172 35.8812 66.2004 35.8857C66.3086 35.8741 66.4178 35.8741 66.526 35.8857C66.697 35.9285 66.8572 36.0066 66.9964 36.1148C67.1355 36.2231 67.2506 36.3591 67.3342 36.5143C67.4227 36.6677 67.4774 36.8381 67.4949 37.0143C67.5123 37.1904 67.492 37.3683 67.4353 37.5359L65.9646 42.0714ZM72.8913 34.213L71.0614 40.3313C70.4139 42.5171 69.4816 44.6081 68.2885 46.5507L66.6719 49.2899L67.6037 46.1802C67.7333 45.7641 67.7713 45.3249 67.7151 44.8928C67.6589 44.4607 67.5098 44.0458 67.2781 43.6767L67.1771 43.5083L67.2444 43.3287L68.9172 38.1309L70.4327 33.4496C70.5113 33.1845 70.6723 32.9513 70.8923 32.7837C71.1123 32.6162 71.3799 32.5231 71.6564 32.5178H71.8809C72.0648 32.5479 72.2401 32.6171 72.395 32.7208C72.5498 32.8245 72.6806 32.9602 72.7785 33.1188C72.8764 33.2773 72.9392 33.4551 72.9625 33.64C72.9858 33.8248 72.9692 34.0126 72.9137 34.1905L72.8913 34.213Z" fill="#003D2B"/>
<path d="M21.5198 79.6009C21.5183 79.7016 21.537 79.8015 21.5748 79.8948C21.6126 79.9881 21.6688 80.0729 21.74 80.1441C21.8112 80.2152 21.8959 80.2714 21.9892 80.3092C22.0825 80.3471 22.1825 80.3658 22.2832 80.3643H35.9007C36.0018 80.3658 36.1023 80.3471 36.1962 80.3094C36.2902 80.2717 36.3756 80.2157 36.4477 80.1447C36.5198 80.0737 36.577 79.989 36.6161 79.8956C36.6552 79.8023 36.6753 79.7021 36.6753 79.6009V67.3193C36.6815 67.2935 36.6815 67.2666 36.6753 67.2407C36.2535 63.6141 34.9928 60.1356 32.993 57.0809C31.1028 54.4638 28.5651 52.3826 25.6286 51.0412L25.4602 50.9738L25.3928 50.7942L21.6096 39.2536C21.4201 38.6701 21.0509 38.1615 20.5549 37.8006C20.0589 37.4397 19.4614 37.2449 18.8479 37.2441C18.6874 37.2279 18.5257 37.2279 18.3652 37.2441C17.9626 37.3162 17.5799 37.4731 17.2425 37.7043L16.771 38.0187L16.6139 37.4798L16.2434 36.3572C16.0679 35.7823 15.7125 35.279 15.2295 34.9213C14.7465 34.5636 14.1614 34.3704 13.5603 34.3701C13.3181 34.3717 13.077 34.4018 12.8418 34.4599C12.5386 34.54 12.2504 34.6689 11.9886 34.8416L11.5284 35.1448L11.36 34.6283L10.8099 32.9107C10.6196 32.3401 10.255 31.8437 9.76766 31.4912C9.28027 31.1388 8.69459 30.9481 8.09312 30.9461C7.92886 30.93 7.76342 30.93 7.59916 30.9461C7.19762 31.0155 6.81514 31.1685 6.47653 31.3952L6.10606 31.6534L5.88154 31.2605C5.60876 30.7811 5.2134 30.3829 4.73599 30.1067C4.25858 29.8305 3.71631 29.6863 3.16477 29.6888C3.00406 29.6776 2.84276 29.6776 2.68204 29.6888C2.23247 29.7555 1.8027 29.9189 1.42238 30.1677C1.04205 30.4165 0.720212 30.7449 0.479042 31.1301C0.237872 31.5154 0.0831087 31.9483 0.0254223 32.3991C-0.032264 32.85 0.00849804 33.3079 0.144899 33.7415L3.80467 45.9894C3.99552 46.6068 4.18637 47.2242 4.36599 47.8529C6.08361 53.5671 8.01453 59.9885 12.6173 63.7494C12.7521 63.8642 12.923 63.9278 13.1 63.929C13.2148 63.9282 13.3279 63.9015 13.4309 63.851C13.5339 63.8004 13.6242 63.7273 13.695 63.6371C13.7677 63.5589 13.8228 63.4661 13.8568 63.365C13.8908 63.2638 13.9029 63.1566 13.8923 63.0504C13.8817 62.9443 13.8486 62.8415 13.7952 62.7491C13.7419 62.6567 13.6694 62.5767 13.5828 62.5145C9.35046 59.0568 7.4869 52.8598 5.84786 47.4039C5.64578 46.7303 5.46616 46.1016 5.27532 45.4954L1.55941 33.371C1.49365 33.1482 1.47565 32.9141 1.5066 32.6839C1.53756 32.4536 1.61676 32.2326 1.73903 32.0351C1.86143 31.8377 2.02519 31.6693 2.21901 31.5414C2.41282 31.4134 2.63208 31.3291 2.86166 31.2941H3.10864C3.44932 31.295 3.78088 31.4043 4.05535 31.6061C4.32983 31.8079 4.53298 32.0918 4.63542 32.4168L7.17256 40.7354C8.83642 46.399 12.2614 51.3851 16.9507 54.9704L21.8229 58.7088C21.9551 58.8099 22.1167 58.8651 22.2832 58.8659C22.3863 58.8677 22.4887 58.8477 22.5835 58.807C22.6783 58.7664 22.7634 58.7061 22.8332 58.6302C22.9542 58.4896 23.0206 58.3104 23.0206 58.125C23.0206 57.9396 22.9542 57.7603 22.8332 57.6198L13.9083 46.2476C13.7014 45.9419 13.6113 45.5719 13.6545 45.2053C13.6977 44.8387 13.8713 44.4998 14.1437 44.2506C14.416 44.0014 14.7689 43.8585 15.1379 43.848C15.507 43.8374 15.8674 43.9599 16.1536 44.1932L17.5232 45.5291L24.259 52.0965L24.3488 52.1638H24.4498H24.5396C27.3951 53.3885 29.8688 55.3582 31.702 57.8668C33.5496 60.7161 34.7244 63.9486 35.1373 67.3193V78.8375H23.0465V70.5749C23.0479 70.461 23.0233 70.3482 22.9747 70.2451C22.9261 70.1421 22.8547 70.0514 22.7659 69.98L17.3099 65.4894C17.2295 65.4216 17.1363 65.3705 17.0358 65.3394C16.9353 65.3082 16.8295 65.2975 16.7248 65.308C16.6201 65.3185 16.5186 65.3499 16.4263 65.4003C16.3339 65.4508 16.2527 65.5192 16.1873 65.6017C16.1179 65.6814 16.0656 65.7745 16.0335 65.8752C16.0015 65.9759 15.9903 66.0821 16.0009 66.1873C16.0114 66.2924 16.0433 66.3943 16.0947 66.4867C16.146 66.579 16.2157 66.6599 16.2995 66.7243L21.3289 70.8331L21.4861 70.9566V79.6233L21.5198 79.6009ZM11.4161 46.517C10.2325 44.5695 9.30075 42.4797 8.64321 40.2976L6.82455 34.1793C6.77122 34.002 6.75566 33.8155 6.77886 33.6318C6.80206 33.4481 6.86352 33.2713 6.95926 33.1128C7.05432 32.9535 7.18288 32.8168 7.33601 32.7121C7.48915 32.6074 7.66321 32.5373 7.84614 32.5066H8.08189C8.35896 32.5073 8.62869 32.5957 8.85251 32.759C9.07632 32.9224 9.24276 33.1523 9.32801 33.4159L10.8323 38.1309L12.5275 43.3849L12.5836 43.5645L12.4826 43.7329C12.2537 44.1031 12.1062 44.5179 12.0501 44.9495C11.9939 45.3812 12.0304 45.8199 12.157 46.2363L13.1 49.346L11.4161 46.517ZM15.8056 42.2959C15.5811 42.2434 15.3513 42.217 15.1208 42.2173C14.8282 42.2165 14.537 42.2581 14.2564 42.3408L13.8747 42.4531L13.7399 42.0714L12.303 37.5809C12.2465 37.4137 12.2252 37.2367 12.2404 37.0609C12.2556 36.8851 12.307 36.7144 12.3913 36.5594C12.4757 36.4045 12.5911 36.2686 12.7305 36.1604C12.8698 36.0522 13.0301 35.9739 13.2011 35.9306H13.5266C13.8031 35.9285 14.0728 36.0159 14.2954 36.1798C14.518 36.3437 14.6815 36.5753 14.7615 36.8399L16.2995 41.7795L16.5128 42.4755L15.8056 42.2959ZM21.9127 47.6396L18.8367 44.6422L18.7581 44.5748V44.4738L17.5457 40.5783C17.4888 40.3877 17.4735 40.1871 17.5007 39.99C17.5279 39.793 17.597 39.6041 17.7034 39.436C17.8098 39.2679 17.9509 39.1246 18.1174 39.0156C18.2838 38.9067 18.4717 38.8347 18.6683 38.8045H18.904C19.1946 38.8034 19.4779 38.8954 19.7123 39.0672C19.9467 39.2389 20.1198 39.4813 20.2063 39.7588L22.6424 47.2242L23.1588 48.8296L21.9127 47.6396Z" fill="#003D2B"/>
</svg>
