<svg width="47" height="44" viewBox="0 0 47 44" fill="none" xmlns="http://www.w3.org/2000/svg">
<g clip-path="url(#clip0_279_353)">
<path fill-rule="evenodd" clip-rule="evenodd" d="M25.4297 0C21.9235 0 18.6221 0.887915 15.7025 2.43272L26.4489 21.6152L7.05713 33.1562C10.7698 39.6387 17.5969 44 25.4297 44C37.2167 44 46.7743 34.1506 46.7743 22.001C46.7743 9.84942 37.2167 0 25.4297 0Z" fill="#FFCC00"/>
<g style="mix-blend-mode:lighten">
<path fill-rule="evenodd" clip-rule="evenodd" d="M25.4297 0C21.9235 0 18.6221 0.887915 15.7025 2.43272L26.4489 21.6152L7.05713 33.1562C10.7698 39.6387 17.5969 44 25.4297 44C37.2167 44 46.7743 34.1506 46.7743 22.001C46.7743 9.84942 37.2167 0 25.4297 0Z" fill="white"/>
</g>
<path fill-rule="evenodd" clip-rule="evenodd" d="M11.6176 1.02881C4.7242 4.67689 0 12.0614 0 20.5951C0 24.6731 1.0953 28.4778 2.97017 31.7523L22.362 20.2113L11.6176 1.02881Z" fill="white"/>
</g>
<defs>
<clipPath id="clip0_279_353">
<rect width="47" height="44" fill="white"/>
</clipPath>
</defs>
</svg>
