<svg width="41" height="51" viewBox="0 0 41 51" fill="none" xmlns="http://www.w3.org/2000/svg">
<path d="M5.60817 3.36782C2.14402 2.98291 1.59873 6.73575 1.75911 8.66028C13.146 11.2263 36.3046 16.4546 37.8442 16.8395C40.9235 15.6848 39.1272 12.5093 37.8442 11.0659C28.5423 8.66028 9.07233 3.75272 5.60817 3.36782Z" fill="#00D999"/>
<path d="M34.476 44.2642H5.12695C5.12695 48.4981 6.40997 49.5566 7.05148 49.5566C13.7873 49.717 27.5477 50.0378 28.7025 50.0378C34.0911 51.1925 34.7968 46.6698 34.476 44.2642Z" fill="#00D999"/>
<path d="M37.0125 9.2957L29.6167 7.59636L29.7909 6.83863C30.306 4.59602 28.9008 2.35232 26.6583 1.83714L19.1231 0.105824C18.0402 -0.1431 16.9224 0.046457 15.9755 0.639432C15.0287 1.23241 14.3703 2.15539 14.1215 3.23834L13.9474 3.99607L6.55167 2.29674C4.29363 1.77767 2.03588 3.19252 1.51731 5.44987L0.799724 8.57293C0.740556 8.83042 0.786077 9.10086 0.926327 9.32468C1.06648 9.5486 1.2899 9.70768 1.54739 9.76675L28.1774 15.8856H2.40921C2.12861 15.8856 1.86096 16.0039 1.6723 16.2115C1.48344 16.4192 1.39101 16.6967 1.4176 16.9761L4.32112 47.4495C4.51396 49.4736 6.19258 51 8.22581 51H13.8204H25.5497H31.1443C33.1775 51 34.8562 49.4737 35.0491 47.4495L37.8449 18.1069L38.2541 18.2009C38.3292 18.2181 38.4042 18.2264 38.478 18.2264C38.9318 18.2264 39.342 17.9142 39.4479 17.4531L40.1655 14.3301C40.416 13.24 40.2252 12.1148 39.6283 11.1618C39.0316 10.2089 38.1025 9.54621 37.0125 9.2957ZM33.0659 47.2606C32.971 48.2567 32.1449 49.0078 31.1444 49.0078H25.5498H13.8205H8.22591C7.22533 49.0078 6.39927 48.2566 6.30444 47.2607L3.50482 17.8778H35.8657L33.0659 47.2606ZM16.0632 3.68439C16.1929 3.12011 16.5373 2.6383 17.0331 2.32781C17.5287 2.01733 18.1122 1.91762 18.677 2.04741L26.2122 3.77882C27.3842 4.04807 28.1185 5.22067 27.8493 6.39258L27.6752 7.15031L15.8891 4.44222L16.0632 3.68439ZM38.224 13.8841L37.7294 16.0363L2.96444 8.04829L3.459 5.89612C3.73163 4.70938 4.91927 3.96609 6.10562 4.23842L28.1996 9.31492C28.1997 9.31492 28.1998 9.31502 28.1999 9.31502C28.2 9.31502 28.2001 9.31502 28.2002 9.31502L36.5664 11.2373C37.7531 11.51 38.4966 12.6974 38.224 13.8841ZM26.1158 45.8721L27.3328 20.9165C27.3596 20.367 27.826 19.9449 28.3763 19.9701C28.9259 19.997 29.3495 20.4641 29.3227 21.0137L28.1056 45.9691C28.0796 46.5021 27.6392 46.9167 27.1115 46.9167C27.0951 46.9167 27.0787 46.9163 27.0622 46.9155C26.5126 46.8887 26.089 46.4215 26.1158 45.8721ZM11.2647 45.9691L10.0478 21.0136C10.021 20.464 10.4446 19.9969 10.9942 19.97C11.5436 19.9447 12.0109 20.3669 12.0377 20.9164L13.2546 45.872C13.2814 46.4215 12.8577 46.8886 12.3082 46.9155C12.2917 46.9163 12.2752 46.9167 12.2589 46.9167C11.7309 46.9167 11.2907 46.5021 11.2647 45.9691ZM18.6891 45.9206V20.965C18.6891 20.415 19.1351 19.969 19.6852 19.969C20.2352 19.969 20.6813 20.415 20.6813 20.965V45.9206C20.6813 46.4706 20.2352 46.9167 19.6852 46.9167C19.1351 46.9167 18.6891 46.4706 18.6891 45.9206Z" fill="#003D2B"/>
</svg>
