<svg width="45" height="44" viewBox="0 0 45 44" fill="none" xmlns="http://www.w3.org/2000/svg">
<path fill-rule="evenodd" clip-rule="evenodd" d="M23.5887 0V20.5333H44.2288V0H23.5887ZM41.2799 17.6H26.5369V2.93339H41.2799V17.6ZM6.38844 37.6446H14.2513V29.8223H6.38844V37.6446ZM0 43.9999H20.64V23.4665H0V43.9999ZM2.94842 26.3999H17.6913V41.0665H2.94842V26.3999ZM30.96 23.4665H23.5886V29.8221H30.96V23.4665ZM33.9086 26.3999H37.84V29.8221H33.9086V35.6888H29.9771V31.7777H25.5543V35.6888H28.0114V40.0888H23.5886V43.9999H33.9086V40.0888H40.2971V35.6888H37.84V31.7777H44.2286V23.4665H33.9086V26.3999ZM0 20.5333H20.64V0H0V20.5333ZM2.94842 2.93339H17.6913V17.6H2.94842V2.93339ZM44.2291 44V40.0889L40.2971 40.0888L40.2976 44H44.2291ZM6.38844 14.178H14.2513V6.35578H6.38844V14.178ZM37.8404 6.35578H29.9775V14.178H37.8404V6.35578Z" fill="white"/>
</svg>
