<svg width="26" height="26" viewBox="0 0 26 26" fill="none" xmlns="http://www.w3.org/2000/svg">
<path d="M11.75 18.1875V21.5625C11.75 24.375 10.625 25.5 7.8125 25.5H4.4375C1.625 25.5 0.5 24.375 0.5 21.5625V18.1875C0.5 15.375 1.625 14.25 4.4375 14.25H7.8125C10.625 14.25 11.75 15.375 11.75 18.1875Z" fill="#D9FF43"/>
<path d="M18.6 0.5H8.65C4.8375 0.5 1.75 3.5875 1.75 7.4V11.125C1.75 11.8125 2.3125 12.375 3 12.375H8.625C11.3875 12.375 13.625 14.6125 13.625 17.375V23C13.625 23.6875 14.1875 24.25 14.875 24.25H18.6C22.9125 24.25 25.5 21.675 25.5 17.35V7.4C25.5 3.5875 22.4125 0.5 18.6 0.5ZM21.45 10.4875C21.45 11 21.025 11.425 20.5125 11.425C20 11.425 19.575 11 19.575 10.4875V7.7375L14.9125 12.4125C14.725 12.6 14.4875 12.6875 14.25 12.6875C14.0125 12.6875 13.775 12.6 13.5875 12.4125C13.225 12.05 13.225 11.45 13.5875 11.0875L18.25 6.4H15.5C14.975 6.4 14.5625 5.9875 14.5625 5.4625C14.5625 4.95 14.975 4.525 15.5 4.525H20.5125C20.625 4.525 20.7375 4.5625 20.8375 4.6C20.875 4.6125 20.9 4.625 20.925 4.6375C21 4.675 21.0625 4.7125 21.125 4.775C21.15 4.7875 21.175 4.8125 21.2 4.8375C21.2625 4.9125 21.3125 4.9875 21.3625 5.075C21.3625 5.0875 21.375 5.1 21.375 5.1125C21.425 5.2125 21.4375 5.325 21.4375 5.4375C21.45 5.45 21.45 5.45 21.45 5.4625V10.4875Z" fill="#D9FF43"/>
</svg>
