<svg width="20" height="20" viewBox="0 0 20 20" fill="none" xmlns="http://www.w3.org/2000/svg">
<path d="M15.62 8.7501C15.19 8.7501 14.85 8.4001 14.85 7.9801C14.85 7.6101 14.48 6.8401 13.86 6.1701C13.25 5.5201 12.58 5.1401 12.02 5.1401C11.59 5.1401 11.25 4.7901 11.25 4.3701C11.25 3.9501 11.6 3.6001 12.02 3.6001C13.02 3.6001 14.07 4.1401 14.99 5.1101C15.85 6.0201 16.4 7.1501 16.4 7.9701C16.4 8.4001 16.05 8.7501 15.62 8.7501Z" fill="#012A2B"/>
<path d="M19.2317 8.75C18.8017 8.75 18.4617 8.4 18.4617 7.98C18.4617 4.43 15.5717 1.55 12.0317 1.55C11.6017 1.55 11.2617 1.2 11.2617 0.78C11.2617 0.36 11.6017 0 12.0217 0C16.4217 0 20.0017 3.58 20.0017 7.98C20.0017 8.4 19.6517 8.75 19.2317 8.75Z" fill="#012A2B"/>
<path d="M9.05 12.95L7.2 14.8C6.81 15.19 6.19 15.19 5.79 14.81C5.68 14.7 5.57 14.6 5.46 14.49C4.43 13.45 3.5 12.36 2.67 11.22C1.85 10.08 1.19 8.94 0.71 7.81C0.24 6.67 0 5.58 0 4.54C0 3.86 0.12 3.21 0.36 2.61C0.6 2 0.98 1.44 1.51 0.94C2.15 0.31 2.85 0 3.59 0C3.87 0 4.15 0.0600001 4.4 0.18C4.66 0.3 4.89 0.48 5.07 0.74L7.39 4.01C7.57 4.26 7.7 4.49 7.79 4.71C7.88 4.92 7.93 5.13 7.93 5.32C7.93 5.56 7.86 5.8 7.72 6.03C7.59 6.26 7.4 6.5 7.16 6.74L6.4 7.53C6.29 7.64 6.24 7.77 6.24 7.93C6.24 8.01 6.25 8.08 6.27 8.16C6.3 8.24 6.33 8.3 6.35 8.36C6.53 8.69 6.84 9.12 7.28 9.64C7.73 10.16 8.21 10.69 8.73 11.22C8.83 11.32 8.94 11.42 9.04 11.52C9.44 11.91 9.45 12.55 9.05 12.95Z" fill="#012A2B"/>
<path d="M19.9716 16.33C19.9716 16.61 19.9216 16.9 19.8216 17.18C19.7916 17.26 19.7616 17.34 19.7216 17.42C19.5516 17.78 19.3316 18.12 19.0416 18.44C18.5516 18.98 18.0116 19.37 17.4016 19.62C17.3916 19.62 17.3816 19.63 17.3716 19.63C16.7816 19.87 16.1416 20 15.4516 20C14.4316 20 13.3416 19.76 12.1916 19.27C11.0416 18.78 9.89156 18.12 8.75156 17.29C8.36156 17 7.97156 16.71 7.60156 16.4L10.8716 13.13C11.1516 13.34 11.4016 13.5 11.6116 13.61C11.6616 13.63 11.7216 13.66 11.7916 13.69C11.8716 13.72 11.9516 13.73 12.0416 13.73C12.2116 13.73 12.3416 13.67 12.4516 13.56L13.2116 12.81C13.4616 12.56 13.7016 12.37 13.9316 12.25C14.1616 12.11 14.3916 12.04 14.6416 12.04C14.8316 12.04 15.0316 12.08 15.2516 12.17C15.4716 12.26 15.7016 12.39 15.9516 12.56L19.2616 14.91C19.5216 15.09 19.7016 15.3 19.8116 15.55C19.9116 15.8 19.9716 16.05 19.9716 16.33Z" fill="#012A2B"/>
</svg>
