<svg viewBox="0 0 22 22" fill="none" xmlns="http://www.w3.org/2000/svg">
<path fill-rule="evenodd" clip-rule="evenodd" d="M10.9674 0.0583679C4.98741 0.0800345 0.14491 4.9442 0.166576 10.9242C0.188243 16.9042 5.05241 21.7467 11.0324 21.725C17.0124 21.7034 21.8549 16.8392 21.8332 10.8592C21.8116 4.8792 16.9474 0.0475345 10.9674 0.0583679ZM13.4482 11C14.2932 11.2925 15.4307 11.9209 15.4307 13.86C15.4307 15.5284 14.1199 16.8717 12.5166 16.8717H11.8124V17.5C11.8124 17.9442 11.4441 18.3125 10.9999 18.3125C10.5557 18.3125 10.1874 17.9442 10.1874 17.5V16.8717H9.79741C8.02074 16.8717 6.57991 15.3767 6.57991 13.535C6.57991 13.0909 6.94824 12.7225 7.39241 12.7225C7.83658 12.7225 8.20491 13.0909 8.20491 13.535C8.20491 14.4775 8.91991 15.2467 9.79741 15.2467H10.1874V11.585L8.55158 11C7.70658 10.7075 6.56908 10.0792 6.56908 8.14003C6.56908 6.4717 7.87991 5.12837 9.48324 5.12837H10.1874V4.50003C10.1874 4.05587 10.5557 3.68753 10.9999 3.68753C11.4441 3.68753 11.8124 4.05587 11.8124 4.50003V5.12837H12.2024C13.9791 5.12837 15.4199 6.62337 15.4199 8.46503C15.4199 8.9092 15.0516 9.27753 14.6074 9.27753C14.1632 9.27753 13.7949 8.9092 13.7949 8.46503C13.7949 7.52253 13.0799 6.75337 12.2024 6.75337H11.8124V10.415L13.4482 11ZM11.8233 15.2467H12.5167C13.2208 15.2467 13.8058 14.6183 13.8058 13.86C13.8058 12.9175 13.47 12.7333 12.9175 12.5383L11.8233 12.1592V15.2467ZM9.09341 9.47246C8.54091 9.27746 8.20508 9.0933 8.20508 8.1508C8.20508 7.38163 8.77925 6.7533 9.48341 6.7533H10.1876V9.85163L9.09341 9.47246Z" fill="url(#paint0_linear_714_228)"/>
<defs>
<linearGradient id="paint0_linear_714_228" x1="11.0062" y1="1.59135" x2="11.0062" y2="21.3937" gradientUnits="userSpaceOnUse">
<stop stop-color="#00F1B5"/>
<stop offset="0.985" stop-color="#D9FF43"/>
</linearGradient>
</defs>
</svg>
