<svg width="78" height="77" viewBox="0 0 78 77" fill="none" xmlns="http://www.w3.org/2000/svg">
<mask id="mask0_300_263" style="mask-type:luminance" maskUnits="userSpaceOnUse" x="0" y="-1" width="78" height="79">
<path d="M78 -0.150665H0V77.1484H78V-0.150665Z" fill="white"/>
</mask>
<g mask="url(#mask0_300_263)">
<path d="M40.0724 64.333C39.7398 64.5009 39.3724 64.588 38.9999 64.5873C38.6276 64.587 38.2604 64.5 37.9274 64.333L9.42289 50.0693L1.32429 54.1234C0.926076 54.3228 0.591161 54.6292 0.357085 55.0084C0.12301 55.3877 -0.000976563 55.8247 -0.000976562 56.2705C-0.000976563 56.7163 0.12301 57.1534 0.357085 57.5326C0.591161 57.9118 0.926076 58.2183 1.32429 58.4176L37.9274 76.7415C38.2605 76.9081 38.6276 76.9948 38.9999 76.9948C39.3722 76.9948 39.7394 76.9081 40.0724 76.7415L76.6755 58.4135C77.0738 58.2142 77.4087 57.9078 77.6427 57.5285C77.8768 57.1493 78.0008 56.7123 78.0008 56.2664C78.0008 55.8206 77.8768 55.3836 77.6427 55.0044C77.4087 54.6251 77.0738 54.3187 76.6755 54.1194L68.5769 50.0652L40.0724 64.333Z" fill="#D9FF43"/>
<path d="M40.0724 46.5705C39.7392 46.7364 39.3721 46.8228 38.9999 46.8228C38.6278 46.8228 38.2607 46.7364 37.9274 46.5705L9.42289 32.2966L1.32429 36.3528C0.926076 36.5521 0.591161 36.8586 0.357085 37.2378C0.12301 37.617 -0.000976563 38.054 -0.000976562 38.4999C-0.000976562 38.9457 0.12301 39.3827 0.357085 39.762C0.591161 40.1412 0.926076 40.4476 1.32429 40.647L38.9999 59.51L76.6755 40.647C77.0738 40.4476 77.4087 40.1412 77.6427 39.762C77.8768 39.3827 78.0008 38.9457 78.0008 38.4999C78.0008 38.054 77.8768 37.617 77.6427 37.2378C77.4087 36.8586 77.0738 36.5521 76.6755 36.3528L68.5769 32.2966L40.0724 46.5705Z" fill="#D9FF43"/>
<path d="M76.6755 18.5801L40.0724 0.256184C39.7394 0.089651 39.3722 0.00296021 38.9999 0.00296021C38.6276 0.00296021 38.2605 0.089651 37.9274 0.256184L1.32429 18.5801C0.926076 18.7794 0.591161 19.0859 0.357085 19.4651C0.12301 19.8444 -0.000976562 20.2814 -0.000976562 20.7272C-0.000976563 21.173 0.12301 21.6101 0.357085 21.9893C0.591161 22.3685 0.926076 22.675 1.32429 22.8743L38.9999 41.7393L76.6755 22.8743C77.0738 22.675 77.4087 22.3685 77.6427 21.9893C77.8768 21.6101 78.0008 21.173 78.0008 20.7272C78.0008 20.2814 77.8768 19.8444 77.6427 19.4651C77.4087 19.0859 77.0738 18.7794 76.6755 18.5801Z" fill="white"/>
</g>
</svg>
