<svg width="98" height="87" viewBox="0 0 98 87" fill="none" xmlns="http://www.w3.org/2000/svg">
<path d="M56.7637 35.8163C56.7637 35.8163 60.9891 28.4731 62.63 26.3672C64.271 24.2613 66.2538 21.9914 66.2538 21.9914L67.6212 19.0787L76.0858 13.6089C76.0858 13.6089 78.2737 15.7148 78.2737 17.3557C78.2737 18.9966 79.8326 24.9314 79.8326 26.9279C79.4977 30.6031 78.9498 34.2557 78.1916 37.8675C77.9728 38.852 76.2362 44.2261 76.2362 44.2261C76.2362 44.2261 72.3663 36.4043 56.7637 35.8163Z" fill="#00D999"/>
<path d="M16.6019 9.53379C15.8635 10.0963 15.2501 10.8062 14.8004 11.6183C14.3508 12.4304 14.0749 13.3271 13.9901 14.2515C13.7396 16.0488 13.9341 17.8802 14.5563 19.5848C15.1786 21.2895 16.2097 22.8154 17.5591 24.0288C17.5591 24.0288 9.54585 24.4253 9.01254 19.6666C8.58828 16.882 9.25443 14.0411 10.8723 11.7354C11.6772 10.7159 12.7601 9.9513 13.9901 9.53379C14.8509 9.34941 15.741 9.34941 16.6019 9.53379Z" fill="#00D999"/>
<path d="M16.6013 7.60572C14.8503 7.60302 13.1379 8.11996 11.6808 9.09108C10.2238 10.0622 9.08766 11.4438 8.41632 13.0611C7.74499 14.6783 7.56863 16.4583 7.90957 18.1758C8.25052 19.8933 9.09343 21.471 10.3316 22.7092C11.5697 23.9473 13.1475 24.7902 14.865 25.1312C16.5825 25.4721 18.3625 25.2958 19.9797 24.6244C21.5969 23.9531 22.9786 22.817 23.9497 21.3599C24.9208 19.9029 25.4377 18.1905 25.435 16.4395C25.4314 14.0977 24.4996 11.8529 22.8437 10.1971C21.1878 8.5412 18.943 7.60934 16.6013 7.60572ZM16.6013 23.3588C15.2322 23.3615 13.8931 22.958 12.7534 22.1993C11.6138 21.4406 10.7248 20.3609 10.199 19.0968C9.67316 17.8328 9.53419 16.4411 9.79962 15.098C10.0651 13.7549 10.723 12.5207 11.6901 11.5516C12.6572 10.5826 13.8901 9.92222 15.2327 9.65412C16.5753 9.38603 17.9672 9.52226 19.2324 10.0456C20.4975 10.5689 21.579 11.4557 22.3399 12.5939C23.1008 13.732 23.5069 15.0704 23.5069 16.4395C23.5033 18.2711 22.7751 20.0269 21.4812 21.3233C20.1873 22.6198 18.4329 23.3515 16.6013 23.3588Z" fill="#003D2B"/>
<path d="M16.6017 0.467529C16.3443 0.467529 16.0973 0.569819 15.9152 0.751897C15.7331 0.933974 15.6309 1.18092 15.6309 1.43842V4.35109C15.6308 4.47795 15.6561 4.60355 15.705 4.72059C15.754 4.83762 15.8257 4.94376 15.916 5.03282C16.0064 5.12189 16.1135 5.19211 16.2312 5.2394C16.349 5.28669 16.4749 5.31012 16.6017 5.30831C16.8556 5.30831 17.0991 5.20745 17.2786 5.02794C17.4581 4.84843 17.559 4.60496 17.559 4.35109V1.43842C17.5608 1.31157 17.5374 1.18562 17.4901 1.06791C17.4428 0.950189 17.3726 0.843047 17.2835 0.752708C17.1944 0.662369 17.0883 0.590635 16.9712 0.541678C16.8542 0.492721 16.7286 0.467516 16.6017 0.467529Z" fill="#003D2B"/>
<path d="M27.2126 4.87095C27.0863 4.86914 26.9608 4.89237 26.8434 4.93931C26.7261 4.98625 26.6192 5.05597 26.5289 5.14444L24.4641 7.20929C24.3731 7.29841 24.3008 7.40479 24.2515 7.5222C24.2022 7.6396 24.1768 7.76567 24.1768 7.89301C24.1768 8.02036 24.2022 8.14643 24.2515 8.26383C24.3008 8.38123 24.3731 8.48762 24.4641 8.57674C24.6466 8.75671 24.8915 8.85953 25.1478 8.8639C25.4047 8.86242 25.6506 8.75916 25.8315 8.57674L27.8964 6.51189C28.0735 6.32835 28.1725 6.08324 28.1725 5.82816C28.1725 5.57309 28.0735 5.32798 27.8964 5.14444C27.7109 4.97064 27.4668 4.87301 27.2126 4.87095Z" fill="#003D2B"/>
<path d="M31.6024 15.5096H28.6897C28.564 15.5096 28.4396 15.5344 28.3234 15.5825C28.2073 15.6306 28.1018 15.7011 28.0129 15.79C27.924 15.8789 27.8535 15.9844 27.8054 16.1005C27.7573 16.2167 27.7325 16.3411 27.7325 16.4668C27.7307 16.5937 27.7541 16.7196 27.8014 16.8373C27.8487 16.9551 27.9189 17.0622 28.008 17.1525C28.0971 17.2429 28.2032 17.3146 28.3202 17.3636C28.4373 17.4125 28.5629 17.4377 28.6897 17.4377H31.6024C31.8599 17.4377 32.1069 17.3354 32.2889 17.1534C32.471 16.9713 32.5733 16.7243 32.5733 16.4668C32.5733 16.34 32.5481 16.2144 32.4991 16.0973C32.4502 15.9803 32.3785 15.8742 32.2881 15.7851C32.1978 15.696 32.0906 15.6258 31.9729 15.5785C31.8552 15.5312 31.7293 15.5078 31.6024 15.5096Z" fill="#003D2B"/>
<path d="M25.832 24.316C25.6511 24.1336 25.4053 24.0303 25.1483 24.0288C24.892 24.0332 24.6472 24.136 24.4646 24.316C24.2875 24.4995 24.1885 24.7446 24.1885 24.9997C24.1885 25.2548 24.2875 25.4999 24.4646 25.6834L26.5295 27.8166C26.6197 27.9051 26.7266 27.9748 26.844 28.0218C26.9613 28.0687 27.0868 28.0919 27.2132 28.0901C27.4673 28.0881 27.7114 27.9904 27.8969 27.8166C28.0709 27.6315 28.1678 27.387 28.1678 27.1329C28.1678 26.8788 28.0709 26.6343 27.8969 26.4492L25.832 24.316Z" fill="#003D2B"/>
<path d="M16.6017 27.5841C16.4749 27.5823 16.349 27.6057 16.2312 27.653C16.1135 27.7003 16.0064 27.7705 15.916 27.8596C15.8257 27.9486 15.754 28.0548 15.705 28.1718C15.6561 28.2888 15.6308 28.4144 15.6309 28.5413V31.454C15.6309 31.7115 15.7331 31.9584 15.9152 32.1405C16.0973 32.3226 16.3443 32.4249 16.6017 32.4249C16.7286 32.4249 16.8542 32.3997 16.9712 32.3507C17.0883 32.3017 17.1944 32.23 17.2835 32.1397C17.3726 32.0493 17.4428 31.9422 17.4901 31.8245C17.5374 31.7068 17.5608 31.5808 17.559 31.454V28.5413C17.559 28.2874 17.4581 28.044 17.2786 27.8644C17.0991 27.6849 16.8556 27.5841 16.6017 27.5841Z" fill="#003D2B"/>
<path d="M8.72464 24.3161C8.63551 24.2252 8.52913 24.1529 8.41173 24.1036C8.29433 24.0542 8.16826 24.0288 8.04091 24.0288C7.91356 24.0288 7.7875 24.0542 7.67009 24.1036C7.55269 24.1529 7.44631 24.2252 7.35718 24.3161L5.30601 26.3673C5.17135 26.503 5.07977 26.6755 5.04277 26.8631C5.00576 27.0507 5.02498 27.2451 5.098 27.4218C5.17103 27.5985 5.29461 27.7498 5.45325 27.8565C5.61189 27.9633 5.79852 28.0208 5.98973 28.0219C6.2439 28.0199 6.48799 27.9222 6.67346 27.7484L8.72464 25.6836C8.8156 25.5944 8.88786 25.4881 8.9372 25.3707C8.98653 25.2533 9.01194 25.1272 9.01194 24.9998C9.01194 24.8725 8.98653 24.7464 8.9372 24.629C8.88786 24.5116 8.8156 24.4052 8.72464 24.3161Z" fill="#003D2B"/>
<path d="M10.8721 80.9284C10.8721 80.9284 13.5249 76.9491 21.4698 74.0912C29.4147 71.2332 32.0539 70.8366 34.3102 70.4811C36.5665 70.1256 49.8581 68.5256 49.8581 68.5256C49.8581 68.5256 36.7442 70.5905 35.5272 74.5288C35.1426 75.5773 35.0139 76.7026 35.1518 77.811C35.2898 78.9194 35.6904 79.9788 36.3203 80.9011C34.5009 81.2342 32.7158 81.7332 30.9873 82.3916C29.6198 83.089 26.2969 85.0444 24.2594 85.0444C20.9521 84.7642 17.6915 84.0799 14.5505 83.0069C13.2546 82.4456 12.0216 81.7489 10.8721 80.9284Z" fill="#00D999"/>
<path d="M36.3607 26.9414C36.3607 26.9414 45.5363 17.3693 49.8574 15.4822C54.1786 13.5951 64.5439 10.1765 69.0018 11.3799C73.4596 12.5832 71.4632 12.0499 71.4632 12.0499C71.4632 12.0499 62.6841 13.2943 56.7084 17.4513C46.8901 24.2886 46.0423 29.0063 46.0423 29.0063C46.0423 29.0063 39.0546 27.1739 36.7983 28.0627C34.542 28.9516 36.3607 26.9414 36.3607 26.9414Z" fill="#00D999"/>
<path d="M76.2354 44.226C77.8275 39.233 78.994 34.1141 79.7224 28.9243C80.0952 24.4431 79.8003 19.9314 78.8472 15.5369L77.2062 12.7747C77.2062 12.7747 83.729 22.3468 84.8093 27.5705C86.0848 33.4063 86.6405 39.3764 86.4639 45.3473C86.4639 45.3473 80.2146 43.5149 76.2354 44.226Z" fill="#00D999"/>
<path d="M67.0196 37.7308L54.2613 68.1839L51.4717 67.3498L63.5599 37.2112L67.0196 37.7308Z" fill="#00D999"/>
<path d="M4.49977 15.5096H1.5871C1.46025 15.5078 1.33431 15.5312 1.21659 15.5785C1.09887 15.6258 0.99173 15.696 0.901391 15.7851C0.811052 15.8742 0.739318 15.9803 0.690361 16.0973C0.641403 16.2144 0.616198 16.34 0.616211 16.4668C0.616211 16.7243 0.718501 16.9713 0.900578 17.1534C1.08266 17.3354 1.3296 17.4377 1.5871 17.4377H4.49977C4.62727 17.4377 4.75352 17.4126 4.87131 17.3638C4.98911 17.315 5.09614 17.2435 5.18629 17.1534C5.27645 17.0632 5.34797 16.9562 5.39676 16.8384C5.44555 16.7206 5.47066 16.5943 5.47066 16.4668C5.47067 16.34 5.44547 16.2144 5.39651 16.0973C5.34755 15.9803 5.27582 15.8742 5.18548 15.7851C5.09514 15.696 4.988 15.6258 4.87028 15.5785C4.75257 15.5312 4.62662 15.5078 4.49977 15.5096Z" fill="#003D2B"/>
<path d="M8.72459 7.20929L6.67341 5.14444C6.48794 4.97064 6.24385 4.87301 5.98969 4.87095C5.79836 4.86817 5.61059 4.92279 5.45061 5.02777C5.29063 5.13276 5.16578 5.28328 5.09219 5.45991C5.01859 5.63654 4.99962 5.83117 5.03773 6.01869C5.07583 6.2062 5.16926 6.378 5.30596 6.51189L7.35714 8.57674C7.44352 8.68033 7.55054 8.76478 7.67138 8.82472C7.79221 8.88465 7.92421 8.91874 8.05895 8.92483C8.1937 8.93092 8.32823 8.90887 8.45398 8.86007C8.57972 8.81128 8.69392 8.73683 8.7893 8.64146C8.88467 8.54608 8.95913 8.43188 9.00792 8.30613C9.05671 8.18038 9.07877 8.04585 9.07268 7.91111C9.06659 7.77636 9.03249 7.64437 8.97256 7.52353C8.91263 7.4027 8.82817 7.29568 8.72459 7.20929Z" fill="#003D2B"/>
<path d="M69.2891 84.0325C71.45 85.5111 74.0072 86.3023 76.6255 86.3023C79.2438 86.3023 81.8011 85.5111 83.9619 84.0325C85.3904 83.0624 87.0236 82.4353 88.7343 82.2001C88.816 82.2101 88.8987 82.2101 88.9804 82.2001C89.418 82.2001 89.8146 82.2001 90.2111 82.2001C92.4404 82.2017 94.6177 82.8735 96.4604 84.1282C96.6168 84.237 96.8032 84.2944 96.9937 84.2923C97.153 84.2955 97.3106 84.2583 97.4517 84.1842C97.5927 84.1101 97.7127 84.0014 97.8005 83.8684C97.875 83.7621 97.9274 83.642 97.9547 83.5152C97.982 83.3883 97.9836 83.2573 97.9593 83.1298C97.9351 83.0023 97.8856 82.881 97.8137 82.7729C97.7418 82.6649 97.6489 82.5724 97.5407 82.5009C95.3787 81.0315 92.8252 80.2454 90.2111 80.2446H89.2539L89.0898 80.0258C86.4917 76.4568 81.5278 73.3527 74.7179 71.069C70.1366 69.5819 65.4183 68.5558 60.6332 68.0059L60.0178 67.9239L60.2366 67.3496L70.6019 41.368L70.8344 40.7937L71.3266 41.1492C72.8996 42.2945 74.2837 43.6787 75.429 45.2516C75.5245 45.3906 75.6506 45.5061 75.7975 45.589C75.9444 45.672 76.1084 45.7202 76.2768 45.7302C76.3491 45.7435 76.4233 45.7435 76.4956 45.7302C77.5879 45.5345 78.6951 45.4339 79.8048 45.4293C82.3692 45.4433 84.9076 45.9444 87.2848 46.9062C90.7354 48.2472 93.7362 50.5369 95.9408 53.511C96.0443 53.6173 96.1709 53.6985 96.3108 53.7483C96.4506 53.7981 96.6001 53.8151 96.7475 53.7981C96.8245 53.8109 96.903 53.8109 96.98 53.7981C97.1655 53.7519 97.3332 53.652 97.4621 53.511C97.591 53.3699 97.6754 53.1939 97.7048 53.005C98.4117 46.5759 97.8448 40.0706 96.0365 33.8607C95.9757 33.6645 95.8543 33.4926 95.6897 33.3697C95.525 33.2468 95.3257 33.1794 95.1203 33.177H94.8331C94.7113 33.2129 94.598 33.2727 94.4995 33.3529C94.4011 33.4331 94.3196 33.5321 94.2598 33.6441C94.2 33.7561 94.163 33.8788 94.1511 34.0052C94.1392 34.1316 94.1526 34.2591 94.1904 34.3803C95.5937 39.2289 96.2259 44.2679 96.0638 49.3129V50.3932L95.2433 49.6958C91.09 45.7373 85.5833 43.5121 79.8459 43.4739C79.3946 43.4739 78.9297 43.4739 78.4784 43.4739H77.7673L77.9998 42.7902V42.6808V42.5714C79.1378 39.154 79.9303 35.6311 80.3655 32.0557C80.7486 28.7895 80.7486 25.4898 80.3655 22.2237C80.1249 20.3407 79.7177 18.4828 79.1485 16.6718L78.7793 15.5369L79.8185 16.0565C85.0515 18.8826 89.2724 23.2709 91.8931 28.6097C91.9691 28.7739 92.0908 28.9127 92.2435 29.0097C92.3963 29.1067 92.5737 29.1577 92.7546 29.1567C92.907 29.1546 93.0567 29.1171 93.1922 29.0473C93.3151 28.9911 93.4249 28.9098 93.5146 28.8087C93.6043 28.7076 93.6719 28.5889 93.7131 28.4602C93.7543 28.3315 93.7682 28.1956 93.7538 28.0612C93.7395 27.9268 93.6972 27.7969 93.6298 27.6798C90.2073 20.836 84.3493 15.5194 77.2067 12.7746C73.4967 11.2693 69.5324 10.4895 65.5286 10.4773C58.7187 10.5866 52.0979 12.7348 46.5211 16.6445C41.9566 19.6795 37.9311 23.4554 34.6106 27.8166C34.5 27.975 34.4407 28.1635 34.4407 28.3567C34.4407 28.5499 34.5 28.7384 34.6106 28.8969C34.697 29.0332 34.816 29.1459 34.9568 29.2247C35.0977 29.3035 35.256 29.3459 35.4174 29.3481H35.5952C36.7049 29.1451 37.8309 29.0444 38.9591 29.0473C41.516 29.073 44.0449 29.5834 46.4117 30.5515C49.8165 31.8732 52.7855 34.1178 54.9856 37.0332C55.0787 37.1863 55.2063 37.3155 55.3583 37.4105C55.5103 37.5055 55.6823 37.5636 55.8608 37.5802H56.1343C57.2074 37.3791 58.297 37.2784 59.3888 37.2793C60.2441 37.2841 61.0982 37.3435 61.9459 37.4571L62.5613 37.5391L62.3288 38.1135L50.7875 67.0077L50.6645 67.3085H49.4611C43.1362 67.2797 36.8269 67.94 30.645 69.2777C30.519 69.3027 30.3994 69.3532 30.2936 69.4261C30.1877 69.499 30.0979 69.5927 30.0296 69.7016C29.8952 69.9177 29.851 70.178 29.9066 70.4263C29.9555 70.6411 30.075 70.8333 30.2461 70.9721C30.4172 71.111 30.6298 71.1884 30.8501 71.1921H31.0552C37.104 69.895 43.2749 69.2531 49.4611 69.2777C52.5242 69.2777 55.5873 69.4281 58.541 69.7153C63.832 70.2089 69.0515 71.2914 74.1026 72.9424C79.6818 74.8022 84.0029 77.2636 86.5737 80.0395L87.0934 80.6002L86.3686 80.819C85.1259 81.2057 83.9465 81.7724 82.8679 82.5009C81.0288 83.7579 78.8531 84.4304 76.6255 84.4304C74.3979 84.4304 72.2222 83.7579 70.3831 82.5009C68.2223 81.0222 65.6651 80.2311 63.0467 80.2311C60.4284 80.2311 57.8712 81.0222 55.7104 82.5009C53.8685 83.7573 51.6907 84.4293 49.4611 84.4293C47.2315 84.4293 45.0537 83.7573 43.2119 82.5009C41.0538 81.0216 38.4987 80.2299 35.8823 80.2299C33.266 80.2299 30.7108 81.0216 28.5528 82.5009C26.7109 83.7573 24.5331 84.4293 22.3035 84.4293C20.074 84.4293 17.8962 83.7573 16.0543 82.5009C14.9822 81.7698 13.8069 81.2029 12.5673 80.819L11.8425 80.6002L12.3622 80.0395C14.9193 77.3046 19.1994 74.8158 24.7923 72.9424C25.0348 72.8628 25.2363 72.6909 25.353 72.4638C25.4034 72.3473 25.4294 72.2216 25.4294 72.0946C25.4294 71.9676 25.4034 71.842 25.353 71.7254C25.2881 71.5328 25.1652 71.365 25.0011 71.2451C24.8371 71.1251 24.64 71.0588 24.4368 71.0554C24.3328 71.0357 24.2262 71.0357 24.1222 71.0554C17.285 73.3253 12.3758 76.4294 9.77769 79.9985L9.62727 80.2173H9.36745H8.67005C6.05041 80.2227 3.49256 81.0134 1.32685 82.4873C1.21965 82.5598 1.12806 82.6531 1.05746 82.7617C0.986865 82.8702 0.938681 82.9917 0.915747 83.1191C0.892812 83.2465 0.895592 83.3773 0.923921 83.5036C0.95225 83.6299 1.00556 83.7493 1.0807 83.8547C1.16719 83.9858 1.28502 84.0932 1.42351 84.1672C1.56201 84.2412 1.71679 84.2795 1.87383 84.2786C2.06836 84.2791 2.25869 84.222 2.42081 84.1145C4.26346 82.8598 6.44077 82.188 8.67005 82.1864C9.06179 82.166 9.45433 82.166 9.84606 82.1864H10.0785C11.8123 82.4138 13.4695 83.0411 14.9193 84.0188C17.0773 85.4981 19.6325 86.2898 22.2488 86.2898C24.8652 86.2898 27.4204 85.4981 29.5784 84.0188C31.4203 82.7624 33.5981 82.0904 35.8276 82.0904C38.0572 82.0904 40.235 82.7624 42.0769 84.0188C44.2349 85.4981 46.79 86.2898 49.4064 86.2898C52.0228 86.2898 54.5779 85.4981 56.7359 84.0188C58.5778 82.7624 60.7556 82.0904 62.9852 82.0904C65.2148 82.0904 67.3926 82.7624 69.2344 84.0188L69.2891 84.0325ZM59.3751 35.2692C59.0059 35.2692 58.623 35.2692 58.2538 35.2692H57.447L57.7889 34.5444C59.1386 31.6706 60.745 28.9246 62.5886 26.3397C62.741 26.1306 62.8049 25.8698 62.7665 25.6139C62.7281 25.358 62.5905 25.1275 62.3835 24.9723C62.2184 24.8588 62.0232 24.7969 61.8229 24.7945C61.6689 24.794 61.5169 24.8296 61.3791 24.8984C61.2414 24.9673 61.1217 25.0675 61.0297 25.1911C59.5705 27.2259 58.2546 29.3597 57.0915 31.5771C56.6676 32.3975 56.2437 33.1906 55.8881 33.9838L55.724 34.6538L55.2044 34.1615C53.1168 31.956 50.6057 30.1944 47.8214 28.982C45.0371 27.7696 42.0368 27.1313 39.0001 27.1055H37.701L38.4258 26.2987C41.1743 23.1849 44.3029 20.4284 47.7381 18.094C51.5593 15.4892 55.8657 13.6801 60.4007 12.7746C64.5722 12.0088 68.8624 12.1911 72.9539 13.3079L74.1162 13.6224L73.0633 14.1968C70.8623 15.411 68.8147 16.8846 66.9645 18.5863C66.1714 19.311 65.4876 19.9537 64.8586 20.6375C64.7701 20.7277 64.7004 20.8346 64.6535 20.952C64.6065 21.0693 64.5833 21.1948 64.5851 21.3212C64.6009 21.5776 64.7076 21.82 64.886 22.0049C65.0707 22.1695 65.3086 22.2618 65.556 22.2647C65.6867 22.2656 65.8163 22.2394 65.9363 22.1876C66.0564 22.1358 66.1643 22.0596 66.2534 21.9639C68.1436 19.9677 70.2696 18.209 72.5847 16.7265C73.6581 16.0474 74.7828 15.453 75.9486 14.9489L76.3862 14.7711L76.5777 15.195C76.9925 16.2088 77.3353 17.2507 77.6032 18.3128C79.2003 24.7487 79.1155 31.4873 77.3571 37.881C77.0152 39.2485 76.6324 40.6159 76.2084 41.9834L75.9486 42.7491L75.388 42.2022C73.4096 40.1255 71.0393 38.4616 68.414 37.3067H68.3046C65.4984 36.0249 62.4595 35.3315 59.3751 35.2692ZM58.1444 67.3496L58.0077 67.6778H57.6521L55.642 67.4726L53.3994 67.3496H52.7293L52.9755 66.7205L64.3116 38.2776L64.4757 37.881L64.886 37.9904C65.5917 38.1931 66.2857 38.4351 66.9645 38.7152C69.1934 39.6177 69.1524 39.7407 68.9883 40.0826L58.1444 67.3496Z" fill="#003D2B"/>
</svg>
