<svg viewBox="0 0 31 31" fill="none" xmlns="http://www.w3.org/2000/svg">
<path d="M8.41531 5.50977H15.1979C16.1692 3.33286 17.8773 1.57258 17.8916 1.54395C18.164 1.28965 18.2367 0.908203 18.0914 0.563086C17.9461 0.217969 17.6192 0 17.2559 0C15.6211 0 14.7311 0.58125 14.0227 1.05352C13.3869 1.48945 12.8965 1.81641 11.8067 1.81641C10.7168 1.81641 10.2264 1.48945 9.59064 1.05352C8.88224 0.58125 7.9922 0 6.35744 0C5.99416 0 5.6672 0.217969 5.52189 0.563086C5.37658 0.908203 5.44923 1.28965 5.7217 1.54395C5.73605 1.57258 7.44401 3.33286 8.41531 5.50977Z" fill="url(#paint0_linear_722_207)"/>
<path d="M18.2246 28.2754V30.0918C18.2246 30.5934 18.6312 31 19.1328 31H30.0918C30.5934 31 31 30.5934 31 30.0918V28.2754C31 27.7738 30.5934 27.3672 30.0918 27.3672H19.1328C18.6312 27.3672 18.2246 27.7738 18.2246 28.2754Z" fill="url(#paint1_linear_722_207)"/>
<path d="M31 24.6426V22.8262C31 22.3246 30.5934 21.918 30.0918 21.918H19.1328C18.6312 21.918 18.2246 22.3246 18.2246 22.8262V24.6426C18.2246 25.1441 18.6312 25.5508 19.1328 25.5508H30.0918C30.5934 25.5508 31 25.1441 31 24.6426Z" fill="url(#paint2_linear_722_207)"/>
<path d="M18.1096 14.6887C16.3295 12.9449 14.8764 11.4676 14.5857 9.14258H15.4395C15.948 9.14258 16.3477 8.74297 16.3477 8.23438C16.3477 7.72578 15.948 7.32617 15.4395 7.32617H8.17383C7.66524 7.32617 7.26563 7.72578 7.26563 8.23438C7.26563 8.74297 7.66524 9.14258 8.17383 9.14258H9.02754C8.73691 11.4676 7.28379 12.9449 5.50371 14.6887C2.92441 17.2135 0 20.0834 0 26.6406C0.0363281 29.0383 2.08887 31 4.54102 31H16.5148C16.413 30.7148 16.3477 30.4115 16.3477 30.0918V22.8262C16.3477 21.324 17.5701 20.1016 19.0723 20.1016H22.3255C21.2265 17.7463 19.5966 16.1479 18.1096 14.6887ZM11.8066 20.1016C13.3091 20.1016 14.5313 21.3238 14.5313 22.8262C14.5313 24.0087 13.7697 25.0073 12.7148 25.3835V26.459C12.7148 26.961 12.3086 27.3672 11.8066 27.3672C11.3046 27.3672 10.8984 26.961 10.8984 26.459V25.3835C9.84359 25.0074 9.08203 24.0087 9.08203 22.8262C9.08203 22.3242 9.48824 21.918 9.99024 21.918C10.4922 21.918 10.8984 22.3242 10.8984 22.8262C10.8984 23.3273 11.3056 23.7344 11.8066 23.7344C12.3077 23.7344 12.7148 23.3273 12.7148 22.8262C12.7148 22.3251 12.3077 21.918 11.8066 21.918C10.3042 21.918 9.08203 20.6958 9.08203 19.1934C9.08203 18.0109 9.84359 17.0122 10.8984 16.636V15.5605C10.8984 15.0586 11.3046 14.6523 11.8066 14.6523C12.3086 14.6523 12.7148 15.0586 12.7148 15.5605V16.636C13.7697 17.0122 14.5313 18.0109 14.5313 19.1934C14.5313 19.6954 14.125 20.1016 13.623 20.1016C13.1211 20.1016 12.7148 19.6954 12.7148 19.1934C12.7148 18.6923 12.3077 18.2852 11.8066 18.2852C11.3056 18.2852 10.8984 18.6923 10.8984 19.1934C10.8984 19.6944 11.3056 20.1016 11.8066 20.1016Z" fill="url(#paint3_linear_722_207)"/>
<defs>
<linearGradient id="paint0_linear_722_207" x1="11.8103" y1="0.389836" x2="11.8103" y2="5.4255" gradientUnits="userSpaceOnUse">
<stop stop-color="#00F1B5"/>
<stop offset="0.985" stop-color="#D9FF43"/>
</linearGradient>
<linearGradient id="paint1_linear_722_207" x1="24.616" y1="27.6242" x2="24.616" y2="30.9444" gradientUnits="userSpaceOnUse">
<stop stop-color="#00F1B5"/>
<stop offset="0.985" stop-color="#D9FF43"/>
</linearGradient>
<linearGradient id="paint2_linear_722_207" x1="24.616" y1="22.175" x2="24.616" y2="25.4952" gradientUnits="userSpaceOnUse">
<stop stop-color="#00F1B5"/>
<stop offset="0.985" stop-color="#D9FF43"/>
</linearGradient>
<linearGradient id="paint3_linear_722_207" x1="11.1692" y1="9.00118" x2="11.1692" y2="30.6379" gradientUnits="userSpaceOnUse">
<stop stop-color="#00F1B5"/>
<stop offset="0.985" stop-color="#D9FF43"/>
</linearGradient>
</defs>
</svg>
