<svg width="17" height="16" viewBox="0 0 17 16" fill="none" xmlns="http://www.w3.org/2000/svg">
<path d="M14.8045 6.97708L15.2224 13.9825C15.2366 14.1737 15.1445 14.3013 15.0949 14.3579C15.0383 14.4217 14.9179 14.5208 14.7195 14.5208H12.7858L14.3158 6.97708H14.8045ZM15.5837 4.25L15.5766 4.26417C15.5908 4.43417 15.5766 4.61125 15.5341 4.78833L10.3137 14.3721C10.1437 15.0875 9.5062 15.5833 8.76953 15.5833H14.7195C15.6333 15.5833 16.3558 14.8113 16.2849 13.8975L15.5837 4.25Z" fill="#012A2B"/>
<path d="M8.11099 1.58666C8.18182 1.30332 8.00474 1.01291 7.72141 0.942073C7.43807 0.878323 7.14766 1.04832 7.07682 1.33166L6.72266 2.79791H7.81349L8.11099 1.58666Z" fill="#012A2B"/>
<path d="M12.7858 1.56539C12.8495 1.27498 12.6654 0.998727 12.3749 0.934977C12.0916 0.871227 11.8083 1.05539 11.7445 1.34581L11.4258 2.81206H12.5166L12.7858 1.56539Z" fill="#012A2B"/>
<path d="M15.4563 3.7756C15.2226 3.20893 14.6701 2.80518 13.9901 2.80518H12.5167L12.1201 4.63977C12.0634 4.88768 11.8438 5.05768 11.603 5.05768C11.5676 5.05768 11.5251 5.05768 11.4896 5.04352C11.2063 4.97977 11.0221 4.69643 11.0788 4.4131L11.4259 2.7981H7.81339L7.36714 4.63977C7.31048 4.8806 7.09089 5.04352 6.85006 5.04352C6.80756 5.04352 6.76506 5.03643 6.72256 5.02935C6.43923 4.95852 6.26214 4.67518 6.33298 4.38477L6.71548 2.79102H5.27756C4.58339 2.79102 3.96714 3.24435 3.76173 3.91018L0.779644 13.5081C0.467977 14.5352 1.22589 15.5835 2.29548 15.5835H11.603C12.3396 15.5835 12.9771 15.0877 13.1471 14.3723L15.5342 4.78852C15.5767 4.61143 15.5909 4.43435 15.5767 4.26435C15.5626 4.09435 15.5271 3.92435 15.4563 3.7756ZM10.413 11.8648H4.74631C4.45589 11.8648 4.21506 11.6239 4.21506 11.3335C4.21506 11.0431 4.45589 10.8023 4.74631 10.8023H10.413C10.7034 10.8023 10.9442 11.0431 10.9442 11.3335C10.9442 11.6239 10.7034 11.8648 10.413 11.8648ZM11.1213 9.03143H5.45464C5.16423 9.03143 4.92339 8.7906 4.92339 8.50018C4.92339 8.20977 5.16423 7.96893 5.45464 7.96893H11.1213C11.4117 7.96893 11.6526 8.20977 11.6526 8.50018C11.6526 8.7906 11.4117 9.03143 11.1213 9.03143Z" fill="#012A2B"/>
</svg>
