<svg width="21" height="23" viewBox="0 0 21 23" fill="none" xmlns="http://www.w3.org/2000/svg">
<path d="M5.6376 11.5C1.7876 11.5 1.7876 13.2154 1.7876 15.3333V16.2917C1.7876 18.9367 1.7876 21.0833 6.6001 21.0833H14.3001C18.1501 21.0833 19.1126 18.9367 19.1126 16.2917V15.3333C19.1126 13.2154 19.1126 11.5 15.2626 11.5C14.3001 11.5 14.0306 11.7013 13.5301 12.075L12.5483 13.11C11.4126 14.3175 9.4876 14.3175 8.34222 13.11L7.3701 12.075C6.8696 11.7013 6.6001 11.5 5.6376 11.5Z" stroke="#FF6100" stroke-width="2" stroke-miterlimit="10" stroke-linecap="round" stroke-linejoin="round"/>
<path d="M17.1874 11.5003V5.75033C17.1874 3.63241 17.1874 1.91699 13.3374 1.91699H7.5624C3.7124 1.91699 3.7124 3.63241 3.7124 5.75033V11.5003" stroke="#FF6100" stroke-width="2" stroke-miterlimit="10" stroke-linecap="round" stroke-linejoin="round"/>
<path d="M9.05469 8.8457H12.2598" stroke="#FF6100" stroke-width="2" stroke-linecap="round" stroke-linejoin="round"/>
<path d="M8.25537 5.9707H13.0679" stroke="#FF6100" stroke-width="2" stroke-linecap="round" stroke-linejoin="round"/>
</svg>
