<svg width="23" height="24" viewBox="0 0 23 24" fill="none" xmlns="http://www.w3.org/2000/svg">
<path d="M23 11.5896C23 12.5709 21.7944 13.3798 21.5529 14.2844C21.3037 15.2198 21.9343 16.5231 21.4609 17.3415C20.9798 18.1733 19.5327 18.273 18.8581 18.9477C18.1834 19.6223 18.0837 21.0694 17.2519 21.5505C16.4335 22.0239 15.1302 21.3933 14.1948 21.6425C13.2902 21.884 12.4813 23.0896 11.5 23.0896C10.5187 23.0896 9.70983 21.884 8.80517 21.6425C7.86983 21.3933 6.5665 22.0239 5.74808 21.5505C4.91625 21.0694 4.81658 19.6223 4.14192 18.9477C3.46725 18.273 2.02017 18.1733 1.53908 17.3415C1.06567 16.5231 1.69625 15.2198 1.44708 14.2844C1.20558 13.3798 0 12.5709 0 11.5896C0 10.6083 1.20558 9.79943 1.44708 8.89477C1.69625 7.95943 1.06567 6.6561 1.53908 5.83768C2.02017 5.00585 3.46725 4.90618 4.14192 4.23152C4.81658 3.55685 4.91625 2.10977 5.74808 1.62868C6.5665 1.15527 7.86983 1.78585 8.80517 1.53668C9.70983 1.29518 10.5187 0.0895996 11.5 0.0895996C12.4813 0.0895996 13.2902 1.29518 14.1948 1.53668C15.1302 1.78585 16.4335 1.15527 17.2519 1.62868C18.0837 2.10977 18.1834 3.55685 18.8581 4.23152C19.5327 4.90618 20.9798 5.00585 21.4609 5.83768C21.9343 6.6561 21.3037 7.95943 21.5529 8.89477C21.7944 9.79943 23 10.6083 23 11.5896Z" fill="#2047F4"/>
<path d="M14.8233 8.16241L10.4456 12.5401L8.17632 10.2727C7.68373 9.78007 6.88448 9.78007 6.3919 10.2727C5.89932 10.7652 5.89932 11.5645 6.3919 12.0571L9.57548 15.2407C10.0546 15.7198 10.8328 15.7198 11.312 15.2407L16.6058 9.94682C17.0984 9.45424 17.0984 8.65499 16.6058 8.16241C16.1132 7.66982 15.3159 7.66982 14.8233 8.16241Z" fill="white"/>
</svg>
