<svg width="17" height="17" viewBox="0 0 17 17" fill="none" xmlns="http://www.w3.org/2000/svg">
<path d="M12.9493 7.51019C12.6089 7.51019 12.3397 7.23311 12.3397 6.90061C12.3397 6.60769 12.0468 5.99811 11.556 5.46769C11.0731 4.95311 10.5427 4.65227 10.0993 4.65227C9.75891 4.65227 9.48975 4.37519 9.48975 4.04269C9.48975 3.71019 9.76683 3.43311 10.0993 3.43311C10.891 3.43311 11.7222 3.86061 12.4506 4.62852C13.1314 5.34894 13.5668 6.24352 13.5668 6.89269C13.5668 7.23311 13.2897 7.51019 12.9493 7.51019Z" fill="#FF6100"/>
<path d="M15.8071 7.51058C15.4667 7.51058 15.1976 7.2335 15.1976 6.901C15.1976 4.09058 12.9096 1.81058 10.1071 1.81058C9.76672 1.81058 9.49756 1.5335 9.49756 1.201C9.49756 0.868496 9.76673 0.583496 10.0992 0.583496C13.5826 0.583496 16.4167 3.41766 16.4167 6.901C16.4167 7.2335 16.1396 7.51058 15.8071 7.51058Z" fill="#FF6100"/>
<path d="M8.33391 10.2497L5.74516 12.8385C5.46016 12.5852 5.18308 12.3239 4.91391 12.0547C4.0985 11.2314 3.36225 10.3685 2.70516 9.466C2.056 8.5635 1.5335 7.661 1.1535 6.76641C0.773496 5.86391 0.583496 5.001 0.583496 4.17766C0.583496 3.63933 0.678496 3.12475 0.868496 2.64975C1.0585 2.16683 1.35933 1.7235 1.77891 1.32766C2.28558 0.828913 2.83975 0.583496 3.42558 0.583496C3.64725 0.583496 3.86891 0.630996 4.06683 0.725996C4.27266 0.820996 4.45475 0.963496 4.59725 1.16933L6.43391 3.75808C6.57641 3.956 6.67933 4.13808 6.75058 4.31225C6.82183 4.4785 6.86141 4.64475 6.86141 4.79516C6.86141 4.98516 6.806 5.17516 6.69516 5.35725C6.59225 5.53933 6.44183 5.72933 6.25183 5.91933L5.65016 6.54475C5.56308 6.63183 5.5235 6.73475 5.5235 6.86141C5.5235 6.92475 5.53141 6.98016 5.54725 7.0435C5.571 7.10683 5.59475 7.15433 5.61058 7.20183C5.75308 7.46308 5.9985 7.8035 6.34683 8.21516C6.70308 8.62683 7.08308 9.04641 7.49474 9.466C7.77974 9.74308 8.05683 10.0122 8.33391 10.2497Z" fill="#FF6100"/>
<path d="M16.393 13.5115C16.393 13.7332 16.3534 13.9627 16.2743 14.1844C16.2505 14.2477 16.2268 14.3111 16.1951 14.3744C16.0605 14.6594 15.8863 14.9286 15.6568 15.1819C15.2688 15.6094 14.8413 15.9182 14.3584 16.1161C14.3505 16.1161 14.3426 16.124 14.3347 16.124C13.8676 16.314 13.3609 16.4169 12.8147 16.4169C12.0072 16.4169 11.1443 16.2269 10.2338 15.839C9.32343 15.4511 8.41301 14.9286 7.51051 14.2715C7.20176 14.0419 6.89301 13.8123 6.6001 13.5669L9.18885 10.9782C9.41051 11.1444 9.60843 11.2711 9.77468 11.3582C9.81426 11.374 9.86176 11.3977 9.91718 11.4215C9.98051 11.4452 10.0438 11.4532 10.1151 11.4532C10.2497 11.4532 10.3526 11.4057 10.4397 11.3186L11.0413 10.7248C11.2393 10.5269 11.4293 10.3765 11.6113 10.2815C11.7934 10.1707 11.9755 10.1152 12.1734 10.1152C12.3238 10.1152 12.4822 10.1469 12.6563 10.2182C12.8305 10.2894 13.0126 10.3923 13.2105 10.5269L15.8309 12.3873C16.0368 12.5298 16.1793 12.6961 16.2663 12.894C16.3455 13.0919 16.393 13.2898 16.393 13.5115Z" fill="#FF6100"/>
</svg>
