<svg viewBox="0 0 22 24" fill="none" xmlns="http://www.w3.org/2000/svg">
<path fill-rule="evenodd" clip-rule="evenodd" d="M16.1568 5.03415C18.3885 5.03415 19.9268 5.54331 20.8476 6.56165C21.866 7.68831 21.8876 9.18331 21.801 10.2775C21.7958 10.3135 21.7931 10.3446 21.7905 10.3744C21.7877 10.4072 21.785 10.4384 21.7793 10.4725L21.7251 10.9816L21.7059 11.1544C21.6905 11.2929 21.6182 11.419 21.5053 11.5006C21.0949 11.7972 20.6434 12.1008 20.2085 12.3466C20.1904 12.3575 20.1735 12.3683 20.1567 12.3791C20.123 12.4008 20.0893 12.4225 20.046 12.4441C18.1176 13.5708 15.9835 14.34 13.7735 14.6975C13.6976 15.7483 13.2318 16.9291 10.8593 16.9291C8.48679 16.9291 8.04262 15.7375 7.94512 14.7191C5.87596 14.3833 3.83929 13.7008 1.98679 12.6825L1.98676 12.6825C1.82427 12.5958 1.66178 12.5091 1.51012 12.4116C1.24391 12.2638 0.795989 11.9745 0.538459 11.8058C0.412607 11.7234 0.331842 11.588 0.317577 11.4383L0.231789 10.5375L0.220955 10.4616C0.112622 9.36748 0.0801221 7.76415 1.15262 6.57248C2.07346 5.55415 3.60096 5.04498 5.84345 5.04498H6.10346V4.99081C6.10346 3.18165 6.10346 0.91748 10.1768 0.91748H11.8235C15.8968 0.91748 15.8968 3.17081 15.8968 4.99081V5.03415H16.1568ZM10.8485 15.3041C12.181 15.3041 12.181 15.1308 12.181 13.9825V12.6283H9.51596V13.9933C9.51596 15.0983 9.51595 15.3041 10.8485 15.3041ZM7.65262 4.99081V5.03415V5.04498H14.3476V4.99081C14.3476 3.15998 14.3476 2.46665 11.8235 2.46665H10.1768C7.65262 2.46665 7.65262 3.14915 7.65262 4.99081ZM21.4058 14.3481C21.4412 13.9581 21.0354 13.6772 20.682 13.8459C19.404 14.4556 16.9001 15.6044 15.3806 15.9995C15.2161 16.0423 15.0828 16.1599 15.0117 16.3143C14.3564 17.737 12.9082 18.5217 10.8593 18.5217C8.79003 18.5217 7.36007 17.7661 6.70683 16.3466C6.63582 16.1923 6.50279 16.0747 6.33836 16.0321C4.90691 15.6614 2.55227 14.6329 1.32884 14.0779C0.976364 13.918 0.579403 14.1984 0.614445 14.5838L0.990156 18.7167C1.21766 20.8725 2.10599 23.0825 6.87266 23.0825H15.1277C19.8943 23.0825 20.7827 20.8725 21.0102 18.7058L21.4058 14.3481Z" fill="url(#paint0_linear_714_220)"/>
<defs>
<linearGradient id="paint0_linear_714_220" x1="11.0078" y1="2.48573" x2="11.0078" y2="22.7435" gradientUnits="userSpaceOnUse">
<stop stop-color="#00F1B5"/>
<stop offset="0.985" stop-color="#D9FF43"/>
</linearGradient>
</defs>
</svg>
