<svg width="24" height="24" viewBox="0 0 24 24" fill="none" xmlns="http://www.w3.org/2000/svg">
<path d="M1.2091 19.7583C0.730765 19.7583 0.334098 19.3616 0.334098 18.8833V12.2333C0.275765 9.0716 1.4541 6.08494 3.64743 3.84494C5.84076 1.6166 8.78076 0.391602 11.9424 0.391602C18.4058 0.391602 23.6674 5.65327 23.6674 12.1166V18.7666C23.6674 19.2449 23.2708 19.6416 22.7924 19.6416C22.3141 19.6416 21.9174 19.2449 21.9174 18.7666V12.1166C21.9174 6.6216 17.4491 2.1416 11.9424 2.1416C9.24743 2.1416 6.75076 3.17993 4.89576 5.06993C3.0291 6.9716 2.03743 9.50327 2.0841 12.2099V18.8716C2.0841 19.3616 1.6991 19.7583 1.2091 19.7583Z" fill="#D9FF43"/>
<path d="M4.93065 12.5249H4.77898C2.32898 12.5249 0.333984 14.5199 0.333984 16.9699V19.1632C0.333984 21.6132 2.32898 23.6082 4.77898 23.6082H4.93065C7.38065 23.6082 9.37565 21.6132 9.37565 19.1632V16.9699C9.37565 14.5199 7.38065 12.5249 4.93065 12.5249Z" fill="#D9FF43"/>
<path d="M19.2217 12.5249H19.07C16.62 12.5249 14.625 14.5199 14.625 16.9699V19.1632C14.625 21.6132 16.62 23.6082 19.07 23.6082H19.2217C21.6717 23.6082 23.6667 21.6132 23.6667 19.1632V16.9699C23.6667 14.5199 21.6717 12.5249 19.2217 12.5249Z" fill="#D9FF43"/>
</svg>
