<svg width="32" height="32" viewBox="0 0 32 32" fill="none" xmlns="http://www.w3.org/2000/svg">
<path d="M12.5198 8.0139C12.7598 8.34724 12.9332 8.6539 13.0532 8.94724C13.1732 9.22724 13.2398 9.50724 13.2398 9.76057C13.2398 10.0806 13.1465 10.4006 12.9598 10.7072C12.7865 11.0139 12.5332 11.3339 12.2132 11.6539L11.1998 12.7072C11.0532 12.8539 10.9865 13.0272 10.9865 13.2406C10.9865 13.3472 10.9998 13.4406 11.0265 13.5472C11.0665 13.6539 11.1065 13.7339 11.1332 13.8139C11.3732 14.2539 11.7865 14.8272 12.3732 15.5206C12.9732 16.2139 13.6132 16.9206 14.3065 17.6272C15.0265 18.3339 15.7198 18.9872 16.4265 19.5872C17.1198 20.1739 17.6932 20.5739 18.1465 20.8139C18.2132 20.8406 18.2932 20.8806 18.3865 20.9206C18.4932 20.9606 18.5998 20.9739 18.7198 20.9739C18.9465 20.9739 19.1198 20.8939 19.2665 20.7472L20.2798 19.7472C20.6132 19.4139 20.9332 19.1606 21.2398 19.0006C21.5465 18.8139 21.8532 18.7206 22.1865 18.7206C22.4398 18.7206 22.7065 18.7739 22.9998 18.8939C23.2932 19.0139 23.5998 19.1872 23.9332 19.4139L28.3465 22.5472C28.6932 22.7872 28.9332 23.0672 29.0798 23.4006C29.2132 23.7339 29.2932 24.0672 29.2932 24.4406C29.2932 24.9206 29.1865 25.4139 28.9598 25.8939C28.7332 26.3739 28.4398 26.8272 28.0532 27.2539C27.3998 27.9739 26.6798 28.4939 25.8665 28.8272C25.0665 29.1606 24.1998 29.3339 23.2665 29.3339C21.9065 29.3339 20.4532 29.0139 18.9198 28.3606C17.3865 27.7072 15.8532 26.8272 14.3332 25.7206C12.7998 24.6006 11.3465 23.3606 9.95984 21.9872C8.5865 20.6006 7.3465 19.1472 6.23984 17.6272C5.1465 16.1072 4.2665 14.5872 3.6265 13.0806C2.9865 11.5606 2.6665 10.1072 2.6665 8.72057C2.6665 7.8139 2.8265 6.94724 3.1465 6.14724C3.4665 5.3339 3.97317 4.58724 4.67984 3.92057C5.53317 3.08057 6.4665 2.66724 7.45317 2.66724C7.8265 2.66724 8.19984 2.74724 8.53317 2.90724C8.87984 3.06724 9.1865 3.30724 9.4265 3.6539" fill="#00D999"/>
<path d="M12.5198 8.0139C12.7598 8.34724 12.9332 8.6539 13.0532 8.94724C13.1732 9.22724 13.2398 9.50724 13.2398 9.76057C13.2398 10.0806 13.1465 10.4006 12.9598 10.7072C12.7865 11.0139 12.5332 11.3339 12.2132 11.6539L11.1998 12.7072C11.0532 12.8539 10.9865 13.0272 10.9865 13.2406C10.9865 13.3472 10.9998 13.4406 11.0265 13.5472C11.0665 13.6539 11.1065 13.7339 11.1332 13.8139C11.3732 14.2539 11.7865 14.8272 12.3732 15.5206C12.9732 16.2139 13.6132 16.9206 14.3065 17.6272C15.0265 18.3339 15.7198 18.9872 16.4265 19.5872C17.1198 20.1739 17.6932 20.5739 18.1465 20.8139C18.2132 20.8406 18.2932 20.8806 18.3865 20.9206C18.4932 20.9606 18.5998 20.9739 18.7198 20.9739C18.9465 20.9739 19.1198 20.8939 19.2665 20.7472L20.2798 19.7472C20.6132 19.4139 20.9332 19.1606 21.2398 19.0006C21.5465 18.8139 21.8532 18.7206 22.1865 18.7206C22.4398 18.7206 22.7065 18.7739 22.9998 18.8939C23.2932 19.0139 23.5998 19.1872 23.9332 19.4139L28.3465 22.5472C28.6932 22.7872 28.9332 23.0672 29.0798 23.4006C29.2132 23.7339 29.2932 24.0672 29.2932 24.4406C29.2932 24.9206 29.1865 25.4139 28.9598 25.8939C28.7332 26.3739 28.4398 26.8272 28.0532 27.2539C27.3998 27.9739 26.6798 28.4939 25.8665 28.8272C25.0665 29.1606 24.1998 29.3339 23.2665 29.3339C21.9065 29.3339 20.4532 29.0139 18.9198 28.3606C17.3865 27.7072 15.8532 26.8272 14.3332 25.7206C12.7998 24.6006 11.3465 23.3606 9.95984 21.9872C8.5865 20.6006 7.3465 19.1472 6.23984 17.6272C5.1465 16.1072 4.2665 14.5872 3.6265 13.0806C2.9865 11.5606 2.6665 10.1072 2.6665 8.72057C2.6665 7.8139 2.8265 6.94724 3.1465 6.14724C3.4665 5.3339 3.97317 4.58724 4.67984 3.92057C5.53317 3.08057 6.4665 2.66724 7.45317 2.66724C7.8265 2.66724 8.19984 2.74724 8.53317 2.90724C8.87984 3.06724 9.1865 3.30724 9.4265 3.6539" stroke="#003D2B" stroke-width="1.5" stroke-miterlimit="10" stroke-linecap="round" stroke-linejoin="round"/>
<path d="M24.6667 12.0004C24.6667 11.2004 24.04 9.97374 23.1067 8.97374C22.2533 8.05374 21.12 7.33374 20 7.33374" stroke="#003D2B" stroke-width="1.5" stroke-linecap="round" stroke-linejoin="round"/>
<path d="M22.68 3.0539C21.8267 2.80057 20.9333 2.66724 20 2.66724" stroke="#003D2B" stroke-width="1.5" stroke-linecap="round" stroke-linejoin="round"/>
<path d="M29.3332 12.0006C29.3332 8.8406 27.7599 6.0406 25.3599 4.3606" stroke="#003D2B" stroke-width="1.5" stroke-linecap="round" stroke-linejoin="round"/>
</svg>
