<svg width="32" height="32" viewBox="0 0 32 32" fill="none" xmlns="http://www.w3.org/2000/svg">
<path d="M18.25 31.1875H13.75C13.6008 31.1875 13.4577 31.1282 13.3523 31.0227C13.2468 30.9173 13.1875 30.7742 13.1875 30.625C13.1875 30.4758 13.2468 30.3327 13.3523 30.2273C13.4577 30.1218 13.6008 30.0625 13.75 30.0625H18.25C18.3992 30.0625 18.5423 30.1218 18.6477 30.2273C18.7532 30.3327 18.8125 30.4758 18.8125 30.625C18.8125 30.7742 18.7532 30.9173 18.6477 31.0227C18.5423 31.1282 18.3992 31.1875 18.25 31.1875Z" fill="#D9FF43"/>
<path d="M19.375 29.5H12.625C12.4758 29.5 12.3327 29.4407 12.2273 29.3352C12.1218 29.2298 12.0625 29.0867 12.0625 28.9375C12.0625 28.7883 12.1218 28.6452 12.2273 28.5398C12.3327 28.4343 12.4758 28.375 12.625 28.375H19.375C19.5242 28.375 19.6673 28.4343 19.7727 28.5398C19.8782 28.6452 19.9375 28.7883 19.9375 28.9375C19.9375 29.0867 19.8782 29.2298 19.7727 29.3352C19.6673 29.4407 19.5242 29.5 19.375 29.5Z" fill="#D9FF43"/>
<path d="M16 4.1875C15.8508 4.1875 15.7077 4.12824 15.6023 4.02275C15.4968 3.91726 15.4375 3.77418 15.4375 3.625V1.375C15.4375 1.22582 15.4968 1.08274 15.6023 0.977253C15.7077 0.871763 15.8508 0.8125 16 0.8125C16.1492 0.8125 16.2923 0.871763 16.3977 0.977253C16.5032 1.08274 16.5625 1.22582 16.5625 1.375V3.625C16.5625 3.77418 16.5032 3.91726 16.3977 4.02275C16.2923 4.12824 16.1492 4.1875 16 4.1875Z" fill="#D9FF43"/>
<path d="M7.25001 7.81177C7.10083 7.81174 6.95778 7.75246 6.85232 7.64696L5.26157 6.05621C5.20784 6.00432 5.16499 5.94225 5.13551 5.87363C5.10603 5.805 5.09051 5.73119 5.08986 5.6565C5.08922 5.58181 5.10345 5.50774 5.13173 5.43861C5.16001 5.36948 5.20178 5.30668 5.2546 5.25386C5.30741 5.20105 5.37021 5.15928 5.43934 5.131C5.50847 5.10272 5.58254 5.08848 5.65723 5.08913C5.73192 5.08978 5.80573 5.1053 5.87436 5.13478C5.94299 5.16426 6.00505 5.20711 6.05694 5.26084L7.64769 6.85159C7.72634 6.93025 7.77989 7.03047 7.80158 7.13957C7.82328 7.24867 7.81214 7.36175 7.76957 7.46452C7.72701 7.56729 7.65493 7.65513 7.56245 7.71694C7.46997 7.77875 7.36124 7.81175 7.25001 7.81177Z" fill="#D9FF43"/>
<path d="M3.625 16.5625H1.375C1.22582 16.5625 1.08274 16.5032 0.977253 16.3977C0.871763 16.2923 0.8125 16.1492 0.8125 16C0.8125 15.8508 0.871763 15.7077 0.977253 15.6023C1.08274 15.4968 1.22582 15.4375 1.375 15.4375H3.625C3.77418 15.4375 3.91726 15.4968 4.02275 15.6023C4.12824 15.7077 4.1875 15.8508 4.1875 16C4.1875 16.1492 4.12824 16.2923 4.02275 16.3977C3.91726 16.5032 3.77418 16.5625 3.625 16.5625Z" fill="#D9FF43"/>
<path d="M24.7499 7.81177C24.6386 7.81175 24.5299 7.77875 24.4374 7.71694C24.345 7.65513 24.2729 7.56729 24.2303 7.46452C24.1877 7.36175 24.1766 7.24867 24.1983 7.13957C24.22 7.03047 24.2735 6.93025 24.3522 6.85159L25.9429 5.26084C25.9948 5.20711 26.0569 5.16426 26.1255 5.13478C26.1942 5.1053 26.268 5.08978 26.3427 5.08913C26.4173 5.08848 26.4914 5.10272 26.5605 5.131C26.6297 5.15928 26.6925 5.20105 26.7453 5.25386C26.7981 5.30668 26.8399 5.36948 26.8682 5.43861C26.8964 5.50774 26.9107 5.58181 26.91 5.6565C26.9094 5.73119 26.8939 5.805 26.8644 5.87363C26.8349 5.94225 26.792 6.00432 26.7383 6.05621L25.1476 7.64696C25.0421 7.75246 24.8991 7.81174 24.7499 7.81177Z" fill="#D9FF43"/>
<path d="M30.625 16.5625H28.375C28.2258 16.5625 28.0827 16.5032 27.9773 16.3977C27.8718 16.2923 27.8125 16.1492 27.8125 16C27.8125 15.8508 27.8718 15.7077 27.9773 15.6023C28.0827 15.4968 28.2258 15.4375 28.375 15.4375H30.625C30.7742 15.4375 30.9173 15.4968 31.0227 15.6023C31.1282 15.7077 31.1875 15.8508 31.1875 16C31.1875 16.1492 31.1282 16.2923 31.0227 16.3977C30.9173 16.5032 30.7742 16.5625 30.625 16.5625Z" fill="#D9FF43"/>
<path d="M17.9688 26.6875V27.25C17.9688 27.3992 17.9095 27.5423 17.804 27.6477C17.6985 27.7532 17.5554 27.8125 17.4062 27.8125C17.2571 27.8125 17.114 27.7532 17.0085 27.6477C16.903 27.5423 16.8438 27.3992 16.8438 27.25V26.6875H17.9688Z" fill="#D9FF43"/>
<path d="M15.1562 26.6875V27.25C15.1562 27.3992 15.097 27.5423 14.9915 27.6477C14.886 27.7532 14.7429 27.8125 14.5938 27.8125C14.4446 27.8125 14.3015 27.7532 14.196 27.6477C14.0905 27.5423 14.0312 27.3992 14.0312 27.25V26.6875H15.1562Z" fill="#D9FF43"/>
<path d="M19.6562 17.6875C19.6562 17.8367 19.597 17.9798 19.4915 18.0852C19.386 18.1907 19.2429 18.25 19.0938 18.25C18.99 18.2515 18.8882 18.2221 18.8012 18.1656C18.7956 18.16 18.7844 18.16 18.7787 18.1544C18.7032 18.102 18.6412 18.0323 18.5982 17.9511C18.5551 17.8698 18.5322 17.7794 18.5313 17.6875C18.5312 17.5383 18.5905 17.3952 18.696 17.2898C18.8015 17.1843 18.9446 17.125 19.0938 17.125C19.2429 17.125 19.386 17.1843 19.4915 17.2898C19.597 17.3952 19.6562 17.5383 19.6562 17.6875Z" fill="#D9FF43"/>
<path d="M22.7508 8.4513C21.6871 7.49251 20.4304 6.77256 19.0653 6.33984C17.7002 5.90711 16.2582 5.77165 14.8364 5.94255C12.7213 6.18724 10.7372 7.09251 9.16609 8.52964C7.59502 9.96677 6.517 11.8626 6.0853 13.9476C5.6536 16.0326 5.89019 18.2006 6.76143 20.1435C7.63268 22.0863 9.09423 23.705 10.9383 24.7694V26.125C10.9396 26.5722 11.1178 27.0006 11.434 27.3168C11.7502 27.633 12.1786 27.8112 12.6258 27.8125H19.3758C19.8229 27.8112 20.2514 27.633 20.5676 27.3168C20.8837 27.0006 21.062 26.5722 21.0633 26.125V24.7694C22.4496 23.9688 23.6263 22.8509 24.4969 21.5075C25.3676 20.1641 25.9074 18.6335 26.0721 17.0411C26.2367 15.4487 26.0216 13.84 25.4443 12.3468C24.8669 10.8537 23.9439 9.51869 22.7508 8.4513ZM14.032 26.6875V20.6575L13.2445 19.3413C13.1335 19.3639 13.0204 19.3752 12.907 19.375C12.5225 19.3758 12.1492 19.2456 11.8487 19.0057C11.5482 18.7659 11.3384 18.4307 11.254 18.0556C11.1695 17.6805 11.2154 17.2878 11.3841 16.9423C11.5528 16.5968 11.8342 16.3191 12.182 16.155C12.5297 15.9909 12.923 15.9502 13.2969 16.0397C13.6709 16.1292 14.0032 16.3434 14.239 16.6471C14.4748 16.9508 14.6001 17.3258 14.5942 17.7102C14.5883 18.0947 14.4515 18.4656 14.2064 18.7619L15.0783 20.2132C15.1298 20.3 15.157 20.3991 15.157 20.5V26.6875H14.032ZM16.8445 26.6875V20.5C16.8446 20.3991 16.8718 20.3 16.9233 20.2132L17.7952 18.7619C17.5441 18.4562 17.4092 18.0715 17.4142 17.6759C17.4192 17.2803 17.5638 16.8992 17.8225 16.5999C18.0812 16.3006 18.4373 16.1023 18.828 16.0401C19.2187 15.9778 19.6188 16.0557 19.9577 16.2598C20.2966 16.4639 20.5525 16.7812 20.6801 17.1557C20.8078 17.5302 20.799 17.9377 20.6554 18.3063C20.5118 18.6749 20.2425 18.981 19.8952 19.1703C19.5478 19.3597 19.1447 19.4203 18.757 19.3413L17.9695 20.6575V26.6875H16.8445ZM12.907 17.125C12.7579 17.125 12.6148 17.1843 12.5093 17.2898C12.4038 17.3953 12.3445 17.5384 12.3445 17.6875C12.3445 17.8367 12.4038 17.9798 12.5093 18.0853C12.6148 18.1908 12.7579 18.25 12.907 18.25C13.0107 18.2515 13.1125 18.2221 13.1995 18.1657C13.2052 18.16 13.2164 18.16 13.222 18.1544C13.2976 18.1021 13.3595 18.0323 13.4026 17.9511C13.4457 17.8699 13.4686 17.7795 13.4695 17.6875C13.4695 17.5384 13.4103 17.3953 13.3048 17.2898C13.1993 17.1843 13.0562 17.125 12.907 17.125Z" fill="#D9FF43"/>
</svg>
