<svg width="30" height="30" viewBox="0 0 30 30" fill="none" xmlns="http://www.w3.org/2000/svg">
<path d="M19.275 2.92495V8.62495H17.025V2.92495C17.025 2.51995 16.665 2.32495 16.425 2.32495C16.35 2.32495 16.275 2.33995 16.2 2.36995L4.305 6.85495C3.51 7.15495 3 7.90495 3 8.75995V9.76495C1.635 10.785 0.75 12.42 0.75 14.265V8.75995C0.75 6.97495 1.845 5.38495 3.51 4.75495L15.42 0.254951C15.75 0.134951 16.095 0.0749512 16.425 0.0749512C17.925 0.0749512 19.275 1.28995 19.275 2.92495Z" fill="#1C1C1E"/>
<path d="M29.25 18.75V20.25C29.25 20.655 28.935 20.985 28.515 21H26.325C25.53 21 24.81 20.415 24.75 19.635C24.705 19.17 24.885 18.735 25.185 18.435C25.455 18.15 25.83 18 26.235 18H28.5C28.935 18.015 29.25 18.345 29.25 18.75Z" fill="#1C1C1E"/>
<path d="M26.22 16.425H27.75C28.575 16.425 29.25 15.75 29.25 14.925V14.265C29.25 11.16 26.715 8.625 23.61 8.625H6.39C5.115 8.625 3.945 9.045 3 9.765C1.635 10.785 0.75 12.42 0.75 14.265V24.36C0.75 27.465 3.285 30 6.39 30H23.61C26.715 30 29.25 27.465 29.25 24.36V24.075C29.25 23.25 28.575 22.575 27.75 22.575H26.445C25.005 22.575 23.625 21.69 23.25 20.295C22.935 19.155 23.31 18.06 24.06 17.325C24.615 16.755 25.38 16.425 26.22 16.425ZM18 16.125H7.5C6.885 16.125 6.375 15.615 6.375 15C6.375 14.385 6.885 13.875 7.5 13.875H18C18.615 13.875 19.125 14.385 19.125 15C19.125 15.615 18.615 16.125 18 16.125Z" fill="#1C1C1E"/>
</svg>
