<svg width="24" height="24" viewBox="0 0 24 24" fill="none" xmlns="http://www.w3.org/2000/svg">
<path d="M21.5786 7.12351L12.5953 12.3268C12.2336 12.5368 11.7786 12.5368 11.4053 12.3268L2.42192 7.12351C1.78025 6.75018 1.61692 5.87518 2.10692 5.32684C2.44525 4.94184 2.83025 4.62684 3.23858 4.40518L9.56192 0.905176C10.9153 0.146842 13.1086 0.146842 14.4619 0.905176L20.7853 4.40518C21.1936 4.62684 21.5786 4.95351 21.9169 5.32684C22.3836 5.87518 22.2203 6.75018 21.5786 7.12351Z" fill="#D9FF43"/>
<path d="M11.3349 14.4967V22.4534C11.3349 23.34 10.4366 23.9234 9.64323 23.5384C7.2399 22.36 3.19156 20.155 3.19156 20.155C1.76823 19.35 0.601562 17.32 0.601562 15.6517V9.63169C0.601562 8.71002 1.5699 8.12669 2.36323 8.58169L10.7516 13.4467C11.1016 13.6684 11.3349 14.065 11.3349 14.4967Z" fill="#D9FF43"/>
<path d="M12.665 14.4967V22.4534C12.665 23.34 13.5634 23.9234 14.3567 23.5384C16.76 22.36 20.8084 20.155 20.8084 20.155C22.2317 19.35 23.3984 17.32 23.3984 15.6517V9.63169C23.3984 8.71002 22.43 8.12669 21.6367 8.58169L13.2484 13.4467C12.8984 13.6684 12.665 14.065 12.665 14.4967Z" fill="#D9FF43"/>
</svg>
