<svg viewBox="0 0 32 34" fill="none" xmlns="http://www.w3.org/2000/svg">
<path fill-rule="evenodd" clip-rule="evenodd" d="M15.0059 4.97488V8.55576H19.2355C19.4864 8.55576 19.6891 8.75908 19.6891 9.00932V10.4999L22.9225 8.63328L22.9231 8.63396L26.1599 6.76532L22.9476 4.91096C22.9395 4.90688 22.9306 4.90212 22.9225 4.89736L19.6891 3.03076V4.52132C19.6891 4.77224 19.4857 4.97488 19.2355 4.97488H15.0059ZM12.0935 8.55508V4.97488H6.88534V8.55576H12.0935V8.55508ZM13.0013 17.6909C13.3746 17.7099 13.7411 17.733 14.0981 17.7602V9.00932V4.52132V0.54876C14.0981 0.39848 14.0362 0.26112 13.9369 0.16184C13.8377 0.06188 13.7003 0 13.55 0C13.3997 0 13.2624 0.06188 13.1631 0.16116C13.0638 0.26044 13.0019 0.3978 13.0019 0.54808V4.52064V9.00864V17.6909H13.0013ZM15.9341 31.2691C14.2463 29.582 13.2032 27.2503 13.2032 24.6758C13.2032 22.6651 13.8397 20.8032 14.9216 19.28L14.9223 19.2794L14.9236 19.278C15.2269 18.8516 15.5649 18.4518 15.9341 18.0826C17.6219 16.3955 19.9529 15.3517 22.5274 15.3517C25.1025 15.3517 27.4336 16.3955 29.1207 18.0826C30.8077 19.7696 31.8515 22.1014 31.8515 24.6758C31.8515 27.251 30.8077 29.582 29.1207 31.2691C27.4343 32.9562 25.1025 34 22.5281 34C19.9529 34 17.6219 32.9562 15.9341 31.2691ZM12.6409 22.0313C12.9462 20.8876 13.4446 19.822 14.0988 18.8734V18.668C13.6785 18.6354 13.2454 18.6082 12.8013 18.5871C12.7218 18.583 12.6422 18.5796 12.5613 18.5762C12.5565 18.5762 12.5518 18.5762 12.5477 18.5762C12.53 18.5762 12.513 18.5749 12.4953 18.5735C11.8317 18.5463 11.1326 18.532 10.4023 18.532C7.47218 18.532 4.82834 18.7775 2.9223 19.174C1.20802 19.5303 0.147217 19.9362 0.147217 20.3062C0.147217 20.6761 1.20802 21.0814 2.9223 21.4384C4.82834 21.8348 7.47286 22.0803 10.4023 22.0803C10.8865 22.0803 11.3196 22.0755 11.7031 22.0653C12.0139 22.0565 12.3267 22.0456 12.6409 22.0313ZM12.3342 25.5653C12.0955 25.5748 11.8575 25.5823 11.6202 25.5877C11.2666 25.5959 10.8613 25.6006 10.403 25.6006C7.47286 25.6006 4.82902 25.3552 2.92298 24.9587C1.2087 24.6024 0.147897 24.1964 0.147897 23.8265V21.4506C0.753097 21.7994 1.63914 22.0946 2.7387 22.3237C4.70798 22.7331 7.41846 22.9867 10.403 22.9867C10.8069 22.9867 11.2489 22.9806 11.7249 22.9684C11.9697 22.9622 12.2091 22.9541 12.4416 22.9452C12.3457 23.5076 12.2961 24.0856 12.2961 24.6752C12.2954 24.975 12.3083 25.2722 12.3342 25.5653ZM13.2712 29.0408C12.8904 28.235 12.6116 27.3707 12.4518 26.4663C12.1893 26.4765 11.9194 26.4853 11.6413 26.4921C11.1891 26.503 10.7743 26.5084 10.4023 26.5084C7.41778 26.5084 4.7073 26.2548 2.73802 25.8454C1.63846 25.617 0.752417 25.3212 0.147217 24.9723V27.3482C0.147217 27.7182 1.20802 28.1234 2.9223 28.4804C4.82834 28.8769 7.47286 29.1224 10.4023 29.1224C11.0469 29.1224 11.6508 29.1122 12.2104 29.0918C12.5654 29.0788 12.919 29.0618 13.2712 29.0408ZM15.7519 32.3428C15.5941 32.2034 15.4411 32.0593 15.2922 31.9104C14.6965 31.3147 14.1743 30.6462 13.7397 29.9193C13.2651 29.9513 12.7653 29.9764 12.2431 29.9955C11.6175 30.0179 11.0021 30.0295 10.403 30.0295C7.41846 30.0295 4.70798 29.7758 2.7387 29.3665C1.63914 29.138 0.753097 28.8422 0.147897 28.4934V30.8693C0.147897 31.2392 1.2087 31.6445 2.92298 32.0015C4.82902 32.3979 7.47354 32.6434 10.403 32.6434C11.5223 32.6434 12.5926 32.608 13.5901 32.5428C14.3511 32.4924 15.0753 32.4251 15.7519 32.3428ZM17.305 29.8982C18.6412 31.2351 20.4881 32.062 22.5281 32.062C24.5681 32.062 26.4143 31.2351 27.7511 29.8982C29.088 28.5614 29.9149 26.7152 29.9149 24.6752C29.9149 22.6352 29.088 20.789 27.7511 19.4521C26.4143 18.1152 24.5681 17.2883 22.5281 17.2883C20.4881 17.2883 18.6419 18.1152 17.305 19.4521C15.9681 20.789 15.1412 22.6352 15.1412 24.6752C15.1412 26.7152 15.9681 28.562 17.305 29.8982ZM22.5281 32.9691C24.8183 32.9691 26.8916 32.0409 28.3931 30.5395C29.8938 29.0387 30.8227 26.9647 30.8227 24.6745C30.8227 22.3842 29.8945 20.3109 28.3931 18.8095C26.8923 17.3087 24.8183 16.3798 22.5281 16.3798C20.2378 16.3798 18.1645 17.308 16.6631 18.8095C15.1623 20.3102 14.2334 22.3842 14.2334 24.6745C14.2334 26.9647 15.1616 29.038 16.6631 30.5395C18.1638 32.0409 20.2378 32.9691 22.5281 32.9691ZM22.9816 29.4562C23.5277 29.3617 24.0166 29.0986 24.3926 28.7232C24.87 28.2458 25.1651 27.5869 25.1651 26.8586C25.1651 24.837 23.8989 24.5358 22.6328 24.2338C21.7161 24.0156 20.7988 23.7973 20.7988 22.4924C20.7988 22.015 20.9926 21.5825 21.3054 21.2697C21.6182 20.9569 22.0507 20.7631 22.5281 20.7631C23.0054 20.7631 23.4379 20.9569 23.7507 21.2697C24.0635 21.5825 24.2573 22.015 24.2573 22.4924C24.2573 22.7433 24.4606 22.9459 24.7109 22.9459C24.9618 22.9459 25.1644 22.7426 25.1644 22.4924C25.1644 21.7641 24.8693 21.1052 24.3919 20.6278C24.0159 20.2518 23.5277 19.9893 22.9809 19.8941V18.8564C22.9809 18.6055 22.7776 18.4028 22.5274 18.4028C22.2765 18.4028 22.0738 18.6062 22.0738 18.8564V19.8941C21.5278 19.9886 21.0389 20.2518 20.6628 20.6278C20.1855 21.1052 19.8903 21.7641 19.8903 22.4924C19.8903 24.514 21.1565 24.8152 22.4227 25.1172C23.3393 25.3354 24.2566 25.5537 24.2566 26.8586C24.2566 27.336 24.0628 27.7685 23.75 28.0813C23.4372 28.3941 23.0047 28.5879 22.5274 28.5879C22.05 28.5879 21.6175 28.3941 21.3047 28.0813C20.9919 27.7685 20.7981 27.336 20.7981 26.8586C20.7981 26.6077 20.5948 26.4051 20.3446 26.4051C20.0937 26.4051 19.891 26.6084 19.891 26.8586C19.891 27.5869 20.1861 28.2458 20.6635 28.7232C21.0395 29.0992 21.5278 29.3617 22.0745 29.4569V30.4946C22.0745 30.7455 22.2778 30.9482 22.5281 30.9482C22.779 30.9482 22.9816 30.7448 22.9816 30.4946V29.4562Z" fill="url(#paint0_linear_724_272)"/>
<defs>
<linearGradient id="paint0_linear_724_272" x1="16.0086" y1="2.40562" x2="16.0086" y2="33.48" gradientUnits="userSpaceOnUse">
<stop stop-color="#00F1B5"/>
<stop offset="0.985" stop-color="#D9FF43"/>
</linearGradient>
</defs>
</svg>
