<svg width="40" height="38" viewBox="0 0 40 38" fill="none" xmlns="http://www.w3.org/2000/svg">
<path fill-rule="evenodd" clip-rule="evenodd" d="M27.8309 7.24702L30.2131 11.4782L32.5953 7.24702H27.8309ZM11.203 23.2445L6.4699 25.924L10.3455 32.615L10.7957 32.361C10.9493 32.2582 11.1463 32.219 11.3404 32.2697L21.572 34.9485C22.8687 35.288 24.0966 35.1343 25.2431 34.4447L39.3492 25.9603C40.0774 25.5222 40.1737 24.3306 39.742 23.6511C38.7966 22.1628 36.1979 23.3867 35.1063 24.0078L27.3334 28.4315C26.1129 29.126 24.8204 29.3164 23.4336 29.0996C21.3234 28.7695 19.3205 28.1419 17.2593 27.6023C16.9063 27.5101 16.6967 27.1559 16.791 26.811C16.8853 26.4661 17.2479 26.2613 17.6008 26.3534C19.2816 26.7934 20.9391 27.3109 22.6468 27.6491C23.5194 27.7532 24.2619 27.4987 24.506 26.6084C24.7278 25.7993 24.2061 25.0358 23.4233 24.7718C21.0906 24.3548 18.8251 23.5546 17.0439 22.9254C14.4547 22.0106 13.755 21.8001 11.203 23.2445ZM4.16208 24.5677L10.3386 35.2312C10.6373 35.7468 10.4499 36.4074 9.92216 36.6993L7.82125 37.8611C7.29358 38.1529 6.61745 37.9698 6.3188 37.4541L0.142165 26.7906C-0.156487 26.275 0.0309675 25.6144 0.558638 25.3226L2.65955 24.1608C3.18739 23.869 3.86343 24.0521 4.16208 24.5677ZM2.62237 25.953C2.21244 26.0116 1.92878 26.3837 1.98864 26.7843C2.04858 27.1848 2.42945 27.462 2.8393 27.4034C3.24923 27.3448 3.5329 26.9727 3.47295 26.5722C3.41309 26.1717 3.0323 25.8944 2.62237 25.953ZM32.4687 1.98304C32.6502 1.67449 33.0534 1.5681 33.3692 1.74536C33.685 1.92269 33.7938 2.3166 33.6124 2.62515L32.1445 5.10946C31.963 5.41802 31.5599 5.5244 31.2441 5.34715C30.9283 5.16981 30.8194 4.77591 31.0008 4.46735L32.4687 1.98304ZM19.8114 2.62774C19.6285 2.31919 19.7362 1.92415 20.052 1.74544C20.3678 1.56673 20.7721 1.67198 20.955 1.98054L22.4229 4.46484C22.6058 4.7734 22.4981 5.16844 22.1823 5.34715C21.8665 5.52586 21.4622 5.42061 21.2793 5.11205L19.8114 2.62774ZM26.0495 0.647207C26.0495 0.289787 26.3461 0 26.7119 0C27.0777 0 27.3743 0.289787 27.3743 0.647207V3.51579C27.3743 3.87321 27.0777 4.163 26.7119 4.163C26.3461 4.163 26.0495 3.87321 26.0495 3.51579V0.647207ZM26.7119 22.8258L24.077 13.4658H29.3467L26.7119 22.8258ZM30.7151 13.4658H35.8134L28.166 22.5213L30.7151 13.4658ZM25.2577 22.5212L17.6103 13.4658H22.7086L25.2577 22.5212ZM17.3272 12.1714H22.0915L19.7094 7.94019L17.3272 12.1714ZM24.3297 12.1714L26.7119 7.94019L29.0941 12.1714H24.3297ZM31.3322 12.1714L33.7144 7.94019L36.0965 12.1714H31.3322ZM20.8285 7.24702H25.5929L23.2107 11.4782L20.8285 7.24702Z" fill="#020202"/>
<path fill-rule="evenodd" clip-rule="evenodd" d="M27.8309 7.24702L30.2131 11.4782L32.5952 7.24702H27.8309ZM32.4687 1.98304C32.6502 1.67449 33.0533 1.5681 33.3691 1.74536C33.6849 1.92269 33.7938 2.3166 33.6124 2.62515L32.1445 5.10946C31.963 5.41802 31.5598 5.5244 31.2441 5.34715C30.9283 5.16981 30.8194 4.77591 31.0008 4.46735L32.4687 1.98304ZM19.8113 2.62774C19.6284 2.31919 19.7362 1.92415 20.0519 1.74544C20.3677 1.56673 20.772 1.67198 20.9549 1.98054L22.4229 4.46484C22.6058 4.7734 22.498 5.16844 22.1822 5.34715C21.8665 5.52586 21.4622 5.42061 21.2793 5.11205L19.8113 2.62774ZM26.0495 0.647207C26.0495 0.289787 26.3461 0 26.7119 0C27.0777 0 27.3742 0.289787 27.3742 0.647207V3.51579C27.3742 3.87321 27.0777 4.163 26.7119 4.163C26.3461 4.163 26.0495 3.87321 26.0495 3.51579V0.647207ZM26.7119 22.8258L24.077 13.4658H29.3467L26.7119 22.8258ZM30.7151 13.4658H35.8133L28.166 22.5213L30.7151 13.4658ZM25.2577 22.5212L17.6103 13.4658H22.7086L25.2577 22.5212ZM17.3271 12.1714H22.0915L19.7093 7.94019L17.3271 12.1714ZM24.3297 12.1714L26.7119 7.94019L29.094 12.1714H24.3297ZM31.3321 12.1714L33.7143 7.94019L36.0965 12.1714H31.3321ZM20.8284 7.24702H25.5929L23.2107 11.4782L20.8284 7.24702Z" fill="#FF6100"/>
</svg>
