<svg width="65" height="65" viewBox="0 0 65 65" fill="none" xmlns="http://www.w3.org/2000/svg">
<path d="M56.7003 18.2812H60.9375C61.4981 18.2812 61.9531 18.7362 61.9531 19.2969V57.8906C61.9531 58.4513 61.4981 58.9062 60.9375 58.9062H4.0625C3.50187 58.9062 3.04688 58.4513 3.04688 57.8906V19.2969C3.04688 18.7362 3.50187 18.2812 4.0625 18.2812H38.7674L52.9872 4.0625H3.04688C1.92461 4.0625 1.01562 4.97148 1.01562 6.09375V58.9062C1.01562 60.0285 1.92461 60.9375 3.04688 60.9375H61.9531C63.0754 60.9375 63.9844 60.0285 63.9844 58.9062V10.9972L56.7003 18.2812ZM21.3281 9.14062C22.4504 9.14062 23.3594 10.0496 23.3594 11.1719C23.3594 12.2942 22.4504 13.2031 21.3281 13.2031C20.2058 13.2031 19.2969 12.2942 19.2969 11.1719C19.2969 10.0496 20.2058 9.14062 21.3281 9.14062ZM14.2188 9.14062C15.341 9.14062 16.25 10.0496 16.25 11.1719C16.25 12.2942 15.341 13.2031 14.2188 13.2031C13.0965 13.2031 12.1875 12.2942 12.1875 11.1719C12.1875 10.0496 13.0965 9.14062 14.2188 9.14062ZM7.10938 9.14062C8.23166 9.14062 9.14062 10.0496 9.14062 11.1719C9.14062 12.2942 8.23166 13.2031 7.10938 13.2031C5.98711 13.2031 5.07812 12.2942 5.07812 11.1719C5.07812 10.0496 5.98711 9.14062 7.10938 9.14062Z" fill="#D9FF43"/>
<path d="M62.7213 3.29379C61.0385 1.61089 58.3105 1.61089 56.6276 3.29379L34.2341 25.6873C35.6834 26.0712 37.0149 26.8238 38.1036 27.9126C39.1924 29.0013 39.9439 30.3328 40.3288 31.781L62.7213 9.38756C64.4043 7.70465 64.4043 4.97667 62.7213 3.29379Z" fill="#D9FF43"/>
<path d="M36.668 29.3475C35.4259 28.1064 33.7744 27.4219 32.0185 27.4219C30.2624 27.4219 28.611 28.1064 27.3689 29.3475C24.8999 31.8154 24.3962 40.6412 24.3759 41.016C24.3667 41.1836 24.4297 41.3481 24.5485 41.467C24.6603 41.5787 24.8106 41.6406 24.9669 41.6406C24.9782 41.6406 24.9883 41.6406 24.9994 41.6396C25.3742 41.6193 34.199 41.1155 36.668 38.6466C37.9091 37.4054 38.5936 35.7541 38.5936 33.997C38.5936 32.241 37.9091 30.5896 36.668 29.3475Z" fill="#D9FF43"/>
<path d="M56.875 46.7188H8.125C7.56438 46.7188 7.10938 47.1738 7.10938 47.7344V53.8281C7.10938 54.3888 7.56438 54.8438 8.125 54.8438H56.875C57.4356 54.8438 57.8906 54.3888 57.8906 53.8281V47.7344C57.8906 47.1738 57.4356 46.7188 56.875 46.7188Z" fill="#D9FF43"/>
</svg>
