<svg width="30" height="30" viewBox="0 0 30 30" fill="none" xmlns="http://www.w3.org/2000/svg">
<path d="M26.9995 15.0001V12.6C26.9995 5.97418 21.629 0.600098 14.9996 0.600098C8.37129 0.600098 2.99973 5.97418 2.99973 12.6V15.0001C1.67889 15.0001 0.599609 16.0805 0.599609 17.4002V24.6002C0.599609 25.9196 1.67889 27 2.99973 27H7.19985V15.0001H5.39985V12.6C5.39949 7.2997 9.69681 3.00022 14.9996 3.00022C20.302 3.00022 24.5997 7.2997 24.5997 12.6003V15.0001H22.7997V27H26.9995C28.3192 27 29.3996 25.9196 29.3996 24.6002V17.4002C29.3996 16.0805 28.3192 15.0001 26.9995 15.0001Z" fill="#D9FF43"/>
<path d="M21.0002 19.7999H17.5313L16.7954 25.6898L15.1592 12.5999H11.25L10.35 19.7999H9V22.2H12.469L13.2048 16.3104L14.841 29.4H18.7502L19.6502 22.2H21.0002V19.7999Z" fill="#D9FF43"/>
</svg>
