<svg viewBox="0 0 21 21" fill="none" xmlns="http://www.w3.org/2000/svg">
<path d="M9.38477 2.16992C5.51877 2.16992 2.38477 5.30393 2.38477 9.16992C2.38477 13.0359 5.51877 16.1699 9.38477 16.1699C13.2508 16.1699 16.3848 13.0359 16.3848 9.16992C16.3848 5.30393 13.2508 2.16992 9.38477 2.16992ZM0.384766 9.16992C0.384766 4.19936 4.4142 0.169922 9.38477 0.169922C14.3553 0.169922 18.3848 4.19936 18.3848 9.16992C18.3848 14.1405 14.3553 18.1699 9.38477 18.1699C4.4142 18.1699 0.384766 14.1405 0.384766 9.16992Z" fill="#012A2B"/>
<path d="M14.3277 14.1128C14.7182 13.7223 15.3513 13.7223 15.7419 14.1128L20.0919 18.4628C20.4824 18.8533 20.4824 19.4865 20.0919 19.877C19.7013 20.2676 19.0682 20.2676 18.6777 19.877L14.3277 15.527C13.9371 15.1365 13.9371 14.5033 14.3277 14.1128Z" fill="#012A2B"/>
</svg>
