<svg viewBox="0 0 30 28" fill="none" xmlns="http://www.w3.org/2000/svg">
<path fill-rule="evenodd" clip-rule="evenodd" d="M12.0001 25.3334V3.33329C12.0001 1.86663 12.6001 0.666626 14.4001 0.666626H15.6001C17.4001 0.666626 18.0001 1.86663 18.0001 3.33329V25.3334H21.6666V18C21.6666 16.5334 22.1999 15.3334 23.7999 15.3334H24.8666C26.4666 15.3334 26.9999 16.5334 26.9999 18V25.3334H28.3332C28.8799 25.3334 29.3332 25.7867 29.3332 26.3334C29.3332 26.88 28.8799 27.3334 28.3332 27.3334H26.9999H21.6666H1.66656C1.1199 27.3334 0.666565 26.88 0.666565 26.3334C0.666565 25.7867 1.1199 25.3334 1.66656 25.3334H3.00006V11.3333C3.00006 9.86663 3.53339 8.66663 5.13339 8.66663H6.20006C7.80006 8.66663 8.33339 9.86663 8.33339 11.3333V25.3334H12.0001Z" fill="url(#paint0_linear_714_214)"/>
<defs>
<linearGradient id="paint0_linear_714_214" x1="15.0082" y1="2.55339" x2="15.0082" y2="26.9255" gradientUnits="userSpaceOnUse">
<stop stop-color="#00F1B5"/>
<stop offset="0.985" stop-color="#D9FF43"/>
</linearGradient>
</defs>
</svg>
