<svg width="43" height="53" viewBox="0 0 43 53" fill="none" xmlns="http://www.w3.org/2000/svg">
<path d="M8.53223 13.5319C13.4939 4.96171 25.2592 5.82625 30.5216 7.3298C30.8975 6.57803 30.4088 4.3979 25.4471 1.69152C19.245 -1.69146 13.6067 2.81918 11.9152 4.51067C10.2237 6.20216 8.53223 9.58514 8.53223 13.5319Z" fill="#00D999"/>
<path d="M38.157 51.4858C39.3684 40.583 32.6046 37.3525 29.0713 37.1001V34.0715H31.3427L38.157 37.1001C37.9046 37.1001 38.0056 37.7058 40.4284 40.1287C42.8513 42.5515 41.9427 48.7096 41.1856 51.4858H38.157Z" fill="#00D999"/>
<path d="M4.89964 51.4858C3.68821 40.583 10.452 37.3525 13.9854 37.1001V34.0715H11.7139L4.89964 37.1001C5.15202 37.1001 5.05107 37.7058 2.62821 40.1287C0.205352 42.5515 1.11392 48.7096 1.87107 51.4858H4.89964Z" fill="#00D999"/>
<path d="M34.1686 34.1388L27.4839 32.6531V30.5407C29.9783 28.7404 31.6298 25.852 31.7401 22.5736C33.9532 20.2382 35.1774 17.2018 35.1774 13.9705V10.2581C35.1774 8.09283 33.5592 6.29854 31.4682 6.02065C29.6756 2.34653 25.9476 0 21.8282 0H20.3895C17.6088 0 14.869 0.940304 12.6738 2.6475C9.59026 5.04527 7.82244 8.66123 7.82244 12.5669V13.9715C7.82244 17.2018 9.04664 20.2391 11.2598 22.5745C11.3709 25.8529 13.0216 28.7414 15.516 30.5416V32.654L8.83122 34.1388C3.70732 35.2775 0.128906 39.7371 0.128906 44.9867V53H18.0061H24.9935H42.8706V44.9867C42.8708 39.7371 39.2925 35.2775 34.1686 34.1388ZM28.2334 34.5704L26.9289 40.4397L22.8975 37.5606L26.8536 34.2635L28.2334 34.5704ZM21.4999 36.4998L17.2256 32.9377V31.5392C18.5285 32.1393 19.9732 32.4838 21.4999 32.4838C23.0266 32.4838 24.4713 32.1393 25.7741 31.5392V32.9377L21.4999 36.4998ZM11.2418 14.5323V19.8007C10.133 18.0757 9.5321 16.071 9.5321 13.9707V12.5669C9.5321 9.19285 11.0597 6.06928 13.7234 3.99725C15.6194 2.52179 17.9873 1.70966 20.3894 1.70966H21.8281C25.4406 1.70966 28.6941 3.85523 30.1174 7.17545L30.3397 7.69354H30.903C32.317 7.69354 33.4676 8.84418 33.4676 10.2581V13.9707C33.4676 16.071 32.8666 18.0757 31.758 19.8007V12.8227H30.5655C28.9217 12.8227 27.3966 12.0062 26.4853 10.6386L26.2314 10.2583H24.4345L24.1857 10.6728C22.7581 13.0535 20.1456 14.5323 17.3701 14.5323H11.2418ZM12.9516 22.2257V16.2418H17.3703C20.564 16.2418 23.5799 14.6305 25.3648 12.0036C26.5077 13.4611 28.202 14.3689 30.0485 14.5126V22.2259C30.0485 26.9394 26.2137 30.7743 21.5 30.7743C16.7863 30.7743 12.9516 26.9394 12.9516 22.2257ZM16.1452 34.2644L20.1013 37.5615L16.0699 40.4406L14.7654 34.5714L16.1452 34.2644ZM18.1489 51.2902H10.387V47.8709H8.67735V51.2902H1.83856V44.9866C1.83856 40.5457 4.86643 36.7708 9.20128 35.8082L13.0968 34.9422L14.962 43.3342L17.9173 41.2227L18.9054 42.2109L18.1489 51.2902ZM23.1352 51.2902H19.8645L20.675 41.5629L19.3269 40.2149L21.4999 38.6634L23.6728 40.2158L22.3248 41.5639L23.1352 51.2902ZM41.1611 51.2902H34.3225V47.8709H32.6129V51.2902H24.8509L24.0943 42.2109L25.0824 41.2227L28.0377 43.3342L29.9029 34.9422L33.7984 35.8082C38.1333 36.7708 41.1611 40.5457 41.1611 44.9866V51.2902Z" fill="#003D2B"/>
</svg>
