<svg width="22" height="20" viewBox="0 0 22 20" fill="none" xmlns="http://www.w3.org/2000/svg">
<path d="M21 8.5V13.5C21 17 19 18.5 16 18.5H6C3 18.5 1 17 1 13.5V6.5C1 3 3 1.5 6 1.5H13" stroke="#D9FF43" stroke-width="1.5" stroke-miterlimit="10" stroke-linecap="round" stroke-linejoin="round"/>
<path d="M6 7L9.13 9.5C10.16 10.32 11.85 10.32 12.88 9.5L14.06 8.56" stroke="#D9FF43" stroke-width="1.5" stroke-miterlimit="10" stroke-linecap="round" stroke-linejoin="round"/>
<path d="M18.5 6C19.8807 6 21 4.88071 21 3.5C21 2.11929 19.8807 1 18.5 1C17.1193 1 16 2.11929 16 3.5C16 4.88071 17.1193 6 18.5 6Z" stroke="#D9FF43" stroke-width="1.5" stroke-miterlimit="10" stroke-linecap="round" stroke-linejoin="round"/>
</svg>
