<svg width="32" height="32" viewBox="0 0 32 32" fill="none" xmlns="http://www.w3.org/2000/svg">
<path d="M2.66699 14.3872C2.66699 10.4805 4.467 8.3605 8.05367 8.05383C8.37367 8.01383 8.707 8.00049 9.05367 8.00049H17.587C21.8403 8.00049 23.9737 10.1338 23.9737 14.3872V19.7205C23.9737 20.0672 23.9603 20.4005 23.9203 20.7205C23.6137 24.3205 21.4937 26.1071 17.587 26.1071H17.0537C16.7203 26.1071 16.4003 26.2671 16.2003 26.5338L14.6003 28.6672C13.8937 29.6138 12.747 29.6138 12.0403 28.6672L10.4403 26.5338C10.267 26.3071 9.88033 26.1071 9.587 26.1071H9.05367C4.80034 26.1071 2.66699 25.0538 2.66699 19.7205" stroke="#003D2B" stroke-width="1.5" stroke-miterlimit="10" stroke-linecap="round" stroke-linejoin="round"/>
<path d="M29.307 9.05391C29.307 4.80058 27.1737 2.66724 22.9204 2.66724H14.387C10.4804 2.66724 8.36038 4.46725 8.05371 8.05391C8.37371 8.01391 8.70704 8.00057 9.05371 8.00057H17.587C21.8404 8.00057 23.9737 10.1339 23.9737 14.3872V19.7206C23.9737 20.0672 23.9604 20.4006 23.9204 20.7206C27.507 20.4139 29.307 18.3072 29.307 14.3872" fill="#00D999"/>
<path d="M29.307 9.05391C29.307 4.80058 27.1737 2.66724 22.9204 2.66724H14.387C10.4804 2.66724 8.36038 4.46725 8.05371 8.05391C8.37371 8.01391 8.70704 8.00057 9.05371 8.00057H17.587C21.8404 8.00057 23.9737 10.1339 23.9737 14.3872V19.7206C23.9737 20.0672 23.9604 20.4006 23.9204 20.7206C27.507 20.4139 29.307 18.3072 29.307 14.3872" stroke="#003D2B" stroke-width="1.5" stroke-miterlimit="10" stroke-linecap="round" stroke-linejoin="round"/>
<path d="M17.9937 17.6672H18.0057" stroke="#003D2B" stroke-width="2" stroke-linecap="round" stroke-linejoin="round"/>
<path d="M13.3277 17.6672H13.3397" stroke="#003D2B" stroke-width="2" stroke-linecap="round" stroke-linejoin="round"/>
<path d="M8.66067 17.6672H8.67267" stroke="#003D2B" stroke-width="2" stroke-linecap="round" stroke-linejoin="round"/>
</svg>
