<svg width="47" height="47" viewBox="0 0 47 47" fill="none" xmlns="http://www.w3.org/2000/svg">
<path d="M37.2918 6.04858H25.1178C24.1441 6.04858 23.2103 6.43531 22.5218 7.12367L2.00055 27.64C0.566362 29.0738 0.566178 31.399 2.00027 32.833L14.1738 45.0064C15.6077 46.4404 17.9325 46.4404 19.3664 45.0064L39.8882 24.4847C40.5767 23.7962 40.9636 22.8622 40.9636 21.8884V9.72024C40.9636 7.69242 39.3197 6.04858 37.2918 6.04858Z" fill="#00D999"/>
<path d="M46.9934 6.50211C46.9934 2.91683 44.0767 0 40.4914 0C37.3767 0 34.7677 2.20195 34.1363 5.13071H25.1176C23.8919 5.13071 22.7395 5.60795 21.8725 6.47466L1.35143 26.9909C0.484438 27.8577 0.00683595 29.0104 0.00683595 30.2364C0.00674416 31.4625 0.484163 32.6151 1.35115 33.4821L13.5246 45.6556C14.3915 46.5224 15.5441 46.9999 16.77 46.9999C17.9959 46.9999 19.1485 46.5225 20.0154 45.6556L27.1151 38.5559C27.4735 38.1974 27.4735 37.6162 27.1151 37.2577C26.7565 36.8993 26.1755 36.8993 25.8168 37.2577L18.7171 44.3573C17.6434 45.4311 15.8964 45.4311 14.8227 44.3573L2.64921 32.184C2.12901 31.6638 1.84253 30.9722 1.84262 30.2365C1.84262 29.5008 2.12911 28.8093 2.64939 28.2892L23.1706 7.77299C23.6907 7.25298 24.3822 6.96659 25.1176 6.96659H34.0076C34.1172 8.52818 34.7759 9.98182 35.8937 11.0996C36.2522 11.4581 36.8333 11.4581 37.1918 11.0997C37.5503 10.7412 37.5503 10.1601 37.1919 9.80154C36.421 9.03057 35.9531 8.03736 35.848 6.96649H37.2918C38.8102 6.96649 40.0456 8.20185 40.0456 9.7203V21.8885C40.0456 22.624 39.7592 23.3156 39.239 23.8357L31.6586 31.4161C31.3001 31.7746 31.3001 32.3558 31.6586 32.7143C32.0171 33.0727 32.5982 33.0727 32.9568 32.7143L40.5372 25.1339C41.404 24.267 41.8815 23.1145 41.8815 21.8886V12.8542C44.8416 12.2151 46.9934 9.60308 46.9934 6.50211ZM41.8814 10.9586V9.7203C41.8814 7.18955 39.8225 5.13062 37.2918 5.13062H36.0313C36.6185 3.22489 38.3957 1.83587 40.4914 1.83587C43.0643 1.83587 45.1576 3.92913 45.1576 6.50211C45.1576 8.58867 43.8009 10.3667 41.8814 10.9586Z" fill="#003D2B"/>
<path d="M12.6655 30.1866C13.024 29.8282 13.024 29.2469 12.6655 28.8884C12.307 28.53 11.7259 28.53 11.3673 28.8884L9.15751 31.0981C8.79906 31.4566 8.79906 32.0378 9.15751 32.3964L14.6097 37.8487C14.789 38.0278 15.0239 38.1175 15.2588 38.1175C15.4937 38.1175 15.7286 38.0278 15.9078 37.8487C16.2663 37.4902 16.2663 36.909 15.9078 36.5504L13.7791 34.4217L15.1643 33.0366C15.5228 32.6781 15.5228 32.0969 15.1643 31.7383C14.8058 31.38 14.2247 31.38 13.8661 31.7383L12.4809 33.1235L11.1045 31.7471L12.6655 30.1866Z" fill="#003D2B"/>
<path d="M23.5016 29.8766C23.9818 29.8766 24.3858 29.5032 24.4168 29.0171C24.4491 28.5112 24.0651 28.0749 23.5591 28.0427L20.5245 27.8492C20.7796 27.4107 20.9243 26.9145 20.9404 26.3985C20.9656 25.5866 20.6723 24.8323 20.1145 24.2743C18.9753 23.1352 17.0858 23.171 15.9021 24.3545L14.4532 25.8033C14.4529 25.8036 14.4527 25.804 14.4524 25.8043C14.4521 25.8045 14.4517 25.8048 14.4515 25.8051C14.093 26.1635 14.093 26.7448 14.4515 27.1033L19.9037 32.5555C20.083 32.7347 20.3179 32.8244 20.5528 32.8244C20.7877 32.8244 21.0226 32.7347 21.2019 32.5555C21.5603 32.1971 21.5603 31.6158 21.2019 31.2573L19.5724 29.6279L23.4421 29.8747C23.4622 29.876 23.482 29.8766 23.5016 29.8766ZM17.2004 25.6526C17.6601 25.1929 18.4001 25.1562 18.8163 25.5725C19.0121 25.7683 19.1148 26.0412 19.1054 26.3412C19.0957 26.6547 18.961 26.9634 18.7361 27.1883C18.5521 27.3724 18.235 27.6921 17.9455 27.9845C17.6596 27.7015 17.3492 27.3937 17.1721 27.2167C17.0207 27.0653 16.7007 26.747 16.4025 26.4504L17.2004 25.6526Z" fill="#003D2B"/>
<path d="M32.4413 21.316L34.7386 19.0187C35.0971 18.6603 35.0971 18.079 34.7386 17.7205C34.3801 17.3621 33.799 17.3621 33.4404 17.7205L31.7921 19.3687L30.3642 17.9408L31.843 16.4619C32.2015 16.1035 32.2015 15.5222 31.843 15.1637C31.4845 14.8053 30.9034 14.8053 30.5448 15.1637L29.066 16.6426L27.6379 15.2145L29.2863 13.5663C29.6447 13.2078 29.6447 12.6266 29.2863 12.268C28.9277 11.9097 28.3467 11.9097 27.988 12.268L25.6907 14.5654C25.3323 14.9238 25.3323 15.5051 25.6907 15.8636L28.4164 18.5893L28.4169 18.5898C28.4169 18.5898 28.4172 18.5901 28.4174 18.5902L31.143 21.316C31.3152 21.4881 31.5486 21.5848 31.7921 21.5848C32.0355 21.5848 32.2691 21.4882 32.4413 21.316Z" fill="#003D2B"/>
<path d="M26.4688 26.9085C26.7123 26.9085 26.9457 26.8118 27.1179 26.6397L29.4152 24.3424C29.7737 23.9839 29.7737 23.4027 29.4152 23.0441C29.0567 22.6858 28.4756 22.6858 28.117 23.0441L26.4687 24.6924L25.0408 23.2644L26.5198 21.7855C26.8782 21.4271 26.8782 20.8459 26.5198 20.4873C26.1613 20.1291 25.5802 20.1289 25.2215 20.4873L23.7426 21.9662L22.3147 20.5383L23.963 18.89C24.3215 18.5316 24.3215 17.9503 23.963 17.5918C23.6045 17.2334 23.0234 17.2334 22.6648 17.5918L20.3675 19.8891C20.009 20.2475 20.009 20.8288 20.3675 21.1873L25.8196 26.6396C25.9919 26.8118 26.2253 26.9085 26.4688 26.9085Z" fill="#003D2B"/>
<path d="M29.3867 34.0681C29.1453 34.0681 28.9085 34.1663 28.7377 34.3371C28.5671 34.5078 28.4688 34.7447 28.4688 34.9861C28.4688 35.2275 28.567 35.4643 28.7377 35.6351C28.9085 35.8057 29.1453 35.9041 29.3867 35.9041C29.6281 35.9041 29.865 35.8058 30.0357 35.6351C30.2064 35.4643 30.3047 35.2275 30.3047 34.9861C30.3047 34.7447 30.2065 34.5078 30.0357 34.3371C29.865 34.1663 29.6281 34.0681 29.3867 34.0681Z" fill="#003D2B"/>
</svg>
