<svg viewBox="0 0 24 26" fill="none" xmlns="http://www.w3.org/2000/svg">
	<path d="M17.0001 0.5H7.00006C3.25006 0.5 0.750061 3 0.750061 6.75V19.25C0.750061 23 3.25006 25.5 7.00006 25.5H17.0001C20.7501 25.5 23.2501 23 23.2501 19.25V6.75C23.2501 3 20.7501 0.5 17.0001 0.5ZM18.9626 8.6L16.2376 12.975C16.1626 13.0875 16.0376 13.175 15.9126 13.1875C15.8876 13.1875 15.8626 13.1875 15.8501 13.1875C15.7376 13.1875 15.6251 13.15 15.5376 13.075C13.5251 11.2875 10.5001 11.2875 8.48756 13.075C8.38756 13.1625 8.25006 13.2125 8.11256 13.1875C7.97506 13.1625 7.85006 13.0875 7.78756 12.975L5.06256 8.6C4.91256 8.4125 4.95006 8.1625 5.12506 8C9.03756 4.5125 14.9501 4.5125 18.8751 8C19.0501 8.1625 19.0876 8.4125 18.9626 8.6Z" fill="url(#icon_odomitter)"/>
	<defs>
		<linearGradient id="icon_odomitter" x1="12.0066" y1="2.26884" x2="12.0066" y2="25.1176" gradientUnits="userSpaceOnUse">
			<stop stop-color="#D9FF43"/>
			<stop offset="1" stop-color="#00F1B5"/>
		</linearGradient>
	</defs>
</svg>