<svg width="51" height="53" viewBox="0 0 51 53" fill="none" xmlns="http://www.w3.org/2000/svg">
<path d="M11.3615 27.301V40.2181C11.3615 41.1209 10.6296 41.8528 9.72677 41.8528H5.64038C3.40548 41.8528 1.59375 40.0411 1.59375 37.8062V29.7129C1.59375 27.478 3.40548 25.6663 5.64038 25.6663H9.72677C10.6296 25.6663 11.3615 26.3981 11.3615 27.301Z" fill="#00D999"/>
<path d="M39.5693 27.301V40.2181C39.5693 41.1209 40.3012 41.8528 41.2041 41.8528H45.2904C47.5253 41.8528 49.3371 40.0411 49.3371 37.8062V29.7129C49.3371 27.478 47.5253 25.6663 45.2904 25.6663H41.2041C40.3013 25.6663 39.5693 26.3981 39.5693 27.301Z" fill="#00D999"/>
<path d="M31.3061 48.0905C31.3061 50.1331 29.6502 51.7889 27.6077 51.7889H21.8371C19.7945 51.7889 18.1387 50.1331 18.1387 48.0905C18.1387 46.0479 19.7945 44.3921 21.8371 44.3921H27.6077C29.6502 44.3921 31.3061 46.0479 31.3061 48.0905Z" fill="#00D999"/>
<path d="M45.3253 24.634H43.968V15.3877C43.968 7.24839 35.6834 0.625977 25.4997 0.625977C15.3161 0.625977 7.03152 7.24839 7.03152 15.3877V24.634H5.67463C2.99741 24.634 0.819336 26.8118 0.819336 29.4893V37.5828C0.819336 40.2596 2.99751 42.4374 5.67463 42.4374H9.7605C11.1084 42.4374 12.2043 41.3414 12.2043 39.9943V27.0771C12.2043 25.7301 11.1083 24.634 9.7605 24.634H8.64864V15.3877C8.64864 8.13986 16.2084 2.2431 25.4997 2.2431C34.7911 2.2431 42.3508 8.13986 42.3508 15.3877V24.634H41.2391C39.8912 24.634 38.7953 25.7301 38.7953 27.0771V39.9943C38.7953 41.3414 39.8913 42.4374 41.2391 42.4374H41.584C40.6433 45.4211 37.5156 46.934 32.0706 47.0462C31.6831 44.9522 29.8464 43.3597 27.642 43.3597H21.8715C19.3866 43.3597 17.3644 45.3819 17.3644 47.8668C17.3644 50.3517 19.3866 52.3739 21.8715 52.3739H27.642C29.8553 52.3739 31.6974 50.7682 32.0745 48.6616C38.5413 48.5272 42.3028 46.4377 43.2655 42.4374H45.3253C48.0028 42.4374 50.1806 40.2596 50.1806 37.5828V29.4893C50.1807 26.8118 48.0029 24.634 45.3253 24.634ZM10.5872 27.0771V39.9943C10.5872 40.4499 10.2161 40.8203 9.7605 40.8203H5.67463C3.88889 40.8203 2.43646 39.3681 2.43646 37.5828V29.4893C2.43646 27.704 3.88899 26.2512 5.67463 26.2512H9.7605C10.2161 26.2512 10.5872 26.6215 10.5872 27.0771ZM27.642 50.7567H21.8715C20.2781 50.7567 18.9816 49.4602 18.9816 47.8668C18.9816 46.2734 20.2781 44.9768 21.8715 44.9768H27.642C29.2354 44.9768 30.5319 46.2734 30.5319 47.8668C30.5319 49.4602 29.2354 50.7567 27.642 50.7567ZM48.5635 37.5829C48.5635 39.3683 47.1107 40.8204 45.3254 40.8204H41.2391C40.7835 40.8204 40.4124 40.4501 40.4124 39.9944V27.0771C40.4124 26.6215 40.7835 26.2512 41.2391 26.2512H45.3254C47.1107 26.2512 48.5635 27.704 48.5635 29.4893V37.5829Z" fill="#003D2B"/>
<path d="M33.176 33.1122C33.4919 32.7964 33.4919 32.2847 33.176 31.9689C31.1262 29.9182 28.4004 28.7891 25.5003 28.7891C25.4994 28.7891 25.4987 28.7891 25.4979 28.7891C22.5984 28.7899 19.8727 29.919 17.8228 31.9689C17.507 32.2847 17.507 32.7964 17.8228 33.1122C18.1386 33.428 18.6503 33.428 18.9661 33.1122C20.7112 31.3679 23.0303 30.4062 25.4986 30.4062H25.5001C27.9677 30.4062 30.2875 31.3671 32.0326 33.1122C32.3485 33.4281 32.8602 33.4281 33.176 33.1122Z" fill="#003D2B"/>
<path d="M30.3033 35.2283C30.6191 34.9125 30.6191 34.4008 30.3033 34.085C29.0202 32.8019 27.3146 32.0952 25.5001 32.0952H25.4992C23.6847 32.0952 21.9792 32.8019 20.6968 34.085C20.381 34.4008 20.381 34.9125 20.6968 35.2283C21.0127 35.5441 21.5243 35.5441 21.8402 35.2283C22.8177 34.2508 24.1166 33.7122 25.4992 33.7122H25.5001C26.8827 33.7122 28.1824 34.2507 29.16 35.2283C29.4758 35.5441 29.9875 35.5443 30.3033 35.2283Z" fill="#003D2B"/>
<path d="M22.983 36.9029C22.6671 37.2188 22.6671 37.7304 22.983 38.0463C23.2988 38.3621 23.8105 38.3621 24.1263 38.0463C24.8843 37.2898 26.1145 37.2898 26.8726 38.0463C27.1884 38.3621 27.7001 38.3621 28.0159 38.0463C28.3317 37.7304 28.3317 37.2188 28.0159 36.9029C26.6277 35.5148 24.3711 35.5148 22.983 36.9029Z" fill="#003D2B"/>
</svg>
