<svg viewBox="0 0 22 36" fill="none" xmlns="http://www.w3.org/2000/svg">
<path fill-rule="evenodd" clip-rule="evenodd" d="M12.5096 9C10.0286 9 8.00958 6.981 8.00958 4.5C8.00958 2.019 10.0286 0 12.5096 0C14.9906 0 17.0096 2.019 17.0096 4.5C17.0096 6.981 14.9906 9 12.5096 9ZM3.50885 36C2.67935 36 2.00885 35.3295 2.00885 34.5V22.3691C1.81296 22.2688 1.62803 22.1445 1.45882 21.9975C0.852822 21.471 0.504822 20.709 0.504822 19.9035C0.504822 18.852 1.08682 17.904 2.02282 17.433L6.19882 15.3255C6.47332 15.1875 6.70582 14.9805 6.87532 14.724L7.63432 13.578C8.90632 11.6565 11.0588 10.5 13.3643 10.5H15.0428C16.0853 10.5 17.0678 10.8885 17.8043 11.5935C20.2133 13.89 21.3893 17.778 21.5033 23.829C21.5348 25.524 21.0503 27.1755 20.1008 28.6095L19.6373 29.3085C18.9698 30.3165 18.6128 31.4985 18.6128 32.7075V34.8765C18.6143 35.496 18.1103 36 17.4893 36H12.5003C11.6723 36 11.0003 35.328 11.0003 34.5V19.125L8.06632 21.3315C7.47532 21.858 6.75232 22.194 5.97082 22.3065L5.00885 22.4459V34.5C5.00885 35.3295 4.33835 36 3.50885 36Z" fill="url(#paint0_linear_724_310)"/>
<defs>
<linearGradient id="paint0_linear_724_310" x1="11.0109" y1="2.54713" x2="11.0109" y2="35.4494" gradientUnits="userSpaceOnUse">
<stop stop-color="#00F1B5"/>
<stop offset="0.985" stop-color="#D9FF43"/>
</linearGradient>
</defs>
</svg>
