<svg width="30" height="29" viewBox="0 0 30 29" fill="none" xmlns="http://www.w3.org/2000/svg">
<path d="M24.3332 10.9998C24.3332 12.9332 23.7598 14.7065 22.7732 16.1865C21.3332 18.3199 19.0532 19.8265 16.3998 20.2132C15.9465 20.2932 15.4798 20.3332 14.9998 20.3332C14.5198 20.3332 14.0532 20.2932 13.5998 20.2132C10.9465 19.8265 8.6665 18.3199 7.2265 16.1865C6.23984 14.7065 5.6665 12.9332 5.6665 10.9998C5.6665 5.83984 9.83984 1.6665 14.9998 1.6665C20.1598 1.6665 24.3332 5.83984 24.3332 10.9998Z" stroke="#D9FF43" stroke-width="1.5" stroke-linecap="round" stroke-linejoin="round"/>
<path d="M27.3333 23.6264L25.1333 24.1464C24.6399 24.2664 24.2533 24.6397 24.1466 25.1331L23.6799 27.0931C23.4266 28.1597 22.0666 28.4797 21.3599 27.6397L14.9999 20.333L8.63994 27.653C7.93328 28.493 6.57328 28.173 6.31994 27.1064L5.85328 25.1464C5.73328 24.653 5.34661 24.2664 4.86661 24.1597L2.66661 23.6397C1.65328 23.3997 1.29328 22.133 2.02661 21.3997L7.22661 16.1997C8.66661 18.333 10.9466 19.8397 13.5999 20.2264C14.0533 20.3064 14.5199 20.3464 14.9999 20.3464C15.4799 20.3464 15.9466 20.3064 16.3999 20.2264C19.0533 19.8397 21.3333 18.333 22.7733 16.1997L27.9733 21.3997C28.7066 22.1197 28.3466 23.3864 27.3333 23.6264Z" stroke="#D9FF43" stroke-width="1.5" stroke-linecap="round" stroke-linejoin="round"/>
<path d="M15.7731 6.97301L16.5598 8.54633C16.6665 8.75966 16.9465 8.97301 17.1998 9.01301L18.6265 9.253C19.5331 9.39966 19.7465 10.0663 19.0931 10.7197L17.9865 11.8263C17.7998 12.013 17.6931 12.373 17.7598 12.6397L18.0798 14.013C18.3331 15.093 17.7598 15.5196 16.7998 14.9463L15.4665 14.1597C15.2265 14.013 14.8265 14.013 14.5865 14.1597L13.2531 14.9463C12.2931 15.5063 11.7198 15.093 11.9731 14.013L12.2931 12.6397C12.3465 12.3863 12.2531 12.013 12.0665 11.8263L10.9598 10.7197C10.3065 10.0663 10.5198 9.413 11.4265 9.253L12.8531 9.01301C13.0931 8.97301 13.3731 8.75966 13.4798 8.54633L14.2665 6.97301C14.6531 6.11967 15.3465 6.11967 15.7731 6.97301Z" stroke="#D9FF43" stroke-width="1.5" stroke-linecap="round" stroke-linejoin="round"/>
</svg>
