<svg width="23" height="24" viewBox="0 0 23 24" fill="none" xmlns="http://www.w3.org/2000/svg">
<path d="M23 11.5896C23 12.5709 21.7944 13.3798 21.5529 14.2844C21.3037 15.2198 21.9343 16.5231 21.4609 17.3415C20.9798 18.1733 19.5327 18.273 18.8581 18.9477C18.1834 19.6223 18.0837 21.0694 17.2519 21.5505C16.4335 22.0239 15.1302 21.3933 14.1948 21.6425C13.2902 21.884 12.4813 23.0896 11.5 23.0896C10.5187 23.0896 9.70983 21.884 8.80517 21.6425C7.86983 21.3933 6.5665 22.0239 5.74808 21.5505C4.91625 21.0694 4.81658 19.6223 4.14192 18.9477C3.46725 18.273 2.02017 18.1733 1.53908 17.3415C1.06567 16.5231 1.69625 15.2198 1.44708 14.2844C1.20558 13.3798 0 12.5709 0 11.5896C0 10.6083 1.20558 9.79943 1.44708 8.89477C1.69625 7.95943 1.06567 6.6561 1.53908 5.83768C2.02017 5.00585 3.46725 4.90618 4.14192 4.23152C4.81658 3.55685 4.91625 2.10977 5.74808 1.62868C6.5665 1.15527 7.86983 1.78585 8.80517 1.53668C9.70983 1.29518 10.5187 0.0895996 11.5 0.0895996C12.4813 0.0895996 13.2902 1.29518 14.1948 1.53668C15.1302 1.78585 16.4335 1.15527 17.2519 1.62868C18.0837 2.10977 18.1834 3.55685 18.8581 4.23152C19.5327 4.90618 20.9798 5.00585 21.4609 5.83768C21.9343 6.6561 21.3037 7.95943 21.5529 8.89477C21.7944 9.79943 23 10.6083 23 11.5896Z" fill="#FF5454"/>
<path d="M16.0085 8.23591L12.9118 11.3329L16.0085 14.4297C16.4691 14.8905 16.4691 15.6369 16.0085 16.0977C15.7784 16.3278 15.4766 16.443 15.175 16.443C14.8729 16.443 14.5712 16.328 14.3412 16.0977L11.2439 13.0005L8.1468 16.0977C7.91668 16.3278 7.61492 16.443 7.31307 16.443C7.0113 16.443 6.70974 16.328 6.47942 16.0977C6.01881 15.6371 6.01881 14.8906 6.47942 14.4297L9.57599 11.3329L6.47925 8.23591C6.01864 7.7753 6.01864 7.02871 6.47925 6.56809C6.93977 6.10784 7.68592 6.10784 8.14662 6.56809L11.2439 9.66507L14.3409 6.56809C14.8016 6.10784 15.5479 6.10784 16.0083 6.56809C16.4691 7.02871 16.4691 7.7753 16.0085 8.23591Z" fill="white"/>
</svg>
