<svg width="30" height="30" viewBox="0 0 30 30" fill="none" xmlns="http://www.w3.org/2000/svg">
<path d="M30 21.75V26.25C30 28.32 28.32 30 26.25 30H15.54C14.205 30 13.545 28.395 14.475 27.45L23.28 18.45C23.565 18.165 23.955 18 24.345 18H26.25C28.32 18 30 19.68 30 21.75Z" fill="#1C1C1E"/>
<path d="M24.555 13.935L20.49 18L16.8 21.675C15.855 22.62 14.235 21.96 14.235 20.625C14.235 15.81 14.235 7.89003 14.235 7.89003C14.235 7.48503 14.4 7.11003 14.67 6.82503L16.05 5.44503C17.52 3.97503 19.89 3.97503 21.36 5.44503L24.54 8.62503C26.025 10.095 26.025 12.465 24.555 13.935Z" fill="#1C1C1E"/>
<path d="M8.25 0H3.75C1.5 0 0 1.5 0 3.75V24C0 24.405 0.0449999 24.81 0.12 25.2C0.165 25.395 0.21 25.59 0.27 25.785C0.345 26.01 0.42 26.235 0.51 26.445C0.525 26.46 0.525 26.475 0.525 26.475C0.54 26.475 0.54 26.475 0.525 26.49C0.735 26.91 0.975 27.315 1.26 27.69C1.425 27.885 1.59 28.065 1.755 28.245C1.92 28.425 2.1 28.575 2.295 28.725L2.31 28.74C2.685 29.025 3.09 29.265 3.51 29.475C3.525 29.46 3.525 29.46 3.525 29.475C3.75 29.58 3.975 29.655 4.215 29.73C4.41 29.79 4.605 29.835 4.8 29.88C5.19 29.955 5.595 30 6 30C6.615 30 7.245 29.91 7.83 29.715C7.995 29.655 8.16 29.595 8.325 29.52C8.85 29.31 9.36 29.01 9.81 28.62C9.945 28.515 10.095 28.38 10.23 28.245L10.29 28.185C11.34 27.105 12 25.62 12 24V3.75C12 1.5 10.5 0 8.25 0ZM6 26.25C4.755 26.25 3.75 25.245 3.75 24C3.75 22.755 4.755 21.75 6 21.75C7.245 21.75 8.25 22.755 8.25 24C8.25 25.245 7.245 26.25 6 26.25Z" fill="#1C1C1E"/>
</svg>
