<svg viewBox="0 0 22 22" fill="none" xmlns="http://www.w3.org/2000/svg">
<path fill-rule="evenodd" clip-rule="evenodd" d="M9.51167 2.86038L4.7125 0.487878C2.12333 -0.779622 0 0.509545 0 3.34788V19.4245C0 20.6595 1.02917 21.667 2.28583 21.667H10.3242C10.92 21.667 11.4075 21.1795 11.4075 20.5837V5.86121C11.4075 4.72371 10.5517 3.36954 9.51167 2.86038ZM7.58333 12.7295H3.82417C3.38 12.7295 3.01167 12.3612 3.01167 11.917C3.01167 11.4729 3.38 11.1045 3.82417 11.1045H7.58333C8.0275 11.1045 8.39583 11.4729 8.39583 11.917C8.39583 12.3612 8.03833 12.7295 7.58333 12.7295ZM7.58333 8.39621H3.82417C3.38 8.39621 3.01167 8.02788 3.01167 7.58371C3.01167 7.13954 3.38 6.77121 3.82417 6.77121H7.58333C8.0275 6.77121 8.39583 7.13954 8.39583 7.58371C8.39583 8.02788 8.03833 8.39621 7.58333 8.39621ZM21.8332 17.5433V19.125C21.8332 20.62 20.6198 21.8333 19.1248 21.8333H14.2173C13.6323 21.8333 13.1665 21.3675 13.1665 20.7825V18.4425C14.3257 18.5833 15.5498 18.2475 16.4273 17.5433C17.164 18.1392 18.1065 18.4967 19.1357 18.4967C20.1432 18.4967 21.0857 18.1392 21.8332 17.5433ZM21.8332 14.315V14.3042C21.8332 14.2717 21.8305 14.2392 21.8278 14.2067C21.825 14.1742 21.8223 14.1417 21.8223 14.1091C21.7465 13.0475 21.4215 12.3217 20.9232 11.8233C20.8257 11.7258 20.7173 11.6392 20.609 11.5633C20.609 11.5633 20.5982 11.5633 20.5982 11.5525C20.1757 11.2817 19.6882 11.0975 19.1573 10.9892L16.9473 10.4908L16.4273 10.3716L14.4882 9.93832C13.8057 9.78665 13.1665 10.3067 13.1665 11V16.8175C14.8998 17.1533 16.4273 15.8208 16.4273 14.1633C16.4273 15.6475 17.6298 16.8717 19.1357 16.8717C20.5873 16.8717 21.7465 15.7342 21.8332 14.315Z" fill="url(#paint0_linear_720_140)"/>
<defs>
<linearGradient id="paint0_linear_720_140" x1="10.9229" y1="1.54479" x2="10.9229" y2="21.4994" gradientUnits="userSpaceOnUse">
<stop stop-color="#00F1B5"/>
<stop offset="0.985" stop-color="#D9FF43"/>
</linearGradient>
</defs>
</svg>
