<svg viewBox="0 0 28 28" fill="none" xmlns="http://www.w3.org/2000/svg">
	<path d="M10.0001 0.666687C6.50673 0.666687 3.66673 3.50669 3.66673 7.00002C3.66673 10.4267 6.34673 13.2 9.84007 13.32C9.94673 13.3067 10.0534 13.3067 10.1334 13.32C10.1601 13.32 10.1734 13.32 10.2001 13.32C10.2134 13.32 10.2134 13.32 10.2267 13.32C13.6401 13.2 16.3201 10.4267 16.3334 7.00002C16.3334 3.50669 13.4934 0.666687 10.0001 0.666687Z" fill="url(#icon_users_paint_0)"/>
	<path d="M16.7734 16.8667C13.0534 14.3867 6.98672 14.3867 3.24005 16.8667C1.54672 18 0.613388 19.5333 0.613388 21.1733C0.613388 22.8133 1.54672 24.3333 3.22672 25.4533C5.09339 26.7067 7.54672 27.3333 10.0001 27.3333C12.4534 27.3333 14.9067 26.7067 16.7734 25.4533C18.4534 24.32 19.3867 22.8 19.3867 21.1467C19.3734 19.5067 18.4534 17.9867 16.7734 16.8667Z" fill="url(#icon_users_paint_1)"/>
	<path d="M24.6534 7.78664C24.8667 10.3733 23.0267 12.64 20.4801 12.9466C20.4667 12.9466 20.4667 12.9466 20.4534 12.9466H20.4134C20.3334 12.9466 20.2534 12.9466 20.1867 12.9733C18.8934 13.04 17.7067 12.6266 16.8134 11.8666C18.1867 10.64 18.9734 8.79997 18.8134 6.79997C18.7201 5.71997 18.3467 4.7333 17.7867 3.8933C18.2934 3.63997 18.8801 3.47997 19.4801 3.42664C22.0934 3.19997 24.4267 5.14664 24.6534 7.78664Z" fill="url(#icon_users_paint_2)"/>
	<path d="M27.3201 20.12C27.2134 21.4133 26.3867 22.5333 25.0001 23.2933C23.6667 24.0267 21.9867 24.3733 20.3201 24.3333C21.2801 23.4667 21.8401 22.3867 21.9467 21.24C22.0801 19.5867 21.2934 18 19.7201 16.7333C18.8267 16.0267 17.7867 15.4667 16.6534 15.0533C19.6001 14.2 23.3067 14.7733 25.5867 16.6133C26.8134 17.6 27.4401 18.84 27.3201 20.12Z" fill="url(#icon_users_paint_3)"/>
	<defs>
		<linearGradient id="icon_users_paint_0" x1="10.0037" y1="1.56196" x2="10.0037" y2="13.1265" gradientUnits="userSpaceOnUse">
			<stop stop-color="#D9FF43"/>
			<stop offset="1" stop-color="#00F1B5"/>
		</linearGradient>
		<linearGradient id="icon_users_paint_1" x1="10.0055" y1="15.8788" x2="10.0055" y2="27.1448" gradientUnits="userSpaceOnUse">
			<stop stop-color="#D9FF43"/>
			<stop offset="1" stop-color="#00F1B5"/>
		</linearGradient>
		<linearGradient id="icon_users_paint_2" x1="20.7441" y1="4.08592" x2="20.7441" y2="12.8339" gradientUnits="userSpaceOnUse">
			<stop stop-color="#D9FF43"/>
			<stop offset="1" stop-color="#00F1B5"/>
		</linearGradient>
		<linearGradient id="icon_users_paint_3" x1="21.9971" y1="15.3503" x2="21.9971" y2="24.1885" gradientUnits="userSpaceOnUse">
			<stop stop-color="#D9FF43"/>
			<stop offset="1" stop-color="#00F1B5"/>
		</linearGradient>
	</defs>
</svg>