<svg width="42" height="41" viewBox="0 0 42 41" fill="none" xmlns="http://www.w3.org/2000/svg">
<path fill-rule="evenodd" clip-rule="evenodd" d="M1.98004 10.4331C1.98004 10.9766 1.53848 11.4173 0.993707 11.4173C0.448939 11.4173 0.00732422 10.9766 0.00732422 10.4331V6.49606C0.00732422 2.90837 2.92196 0 6.51744 0H10.4631C11.0078 0 11.4495 0.440664 11.4495 0.98425C11.4495 1.52783 11.0078 1.9685 10.4631 1.9685H6.51744C4.01158 1.9685 1.98004 3.99556 1.98004 6.49606V10.4331ZM31.7699 24.251C31.4555 25.5135 30.703 26.6292 29.7 27.3329C29.1028 28.855 28.245 30.3354 27.2124 31.5783L27.2017 31.5911C23.2826 36.1381 16.6369 35.711 13.4523 31.5851C12.3673 30.2576 11.5068 28.7168 10.8936 27.2224C9.89438 26.5668 9.12508 25.4522 8.80882 24.1922C8.23902 21.8712 8.45 20.1468 9.30932 18.9742L9.28986 18.3569C9.28986 17.9746 9.28328 17.6835 9.26466 17.0849L9.26368 17.0524C9.23638 16.0453 9.23484 15.5496 9.27446 14.94C9.5196 11.1627 11.5657 8.84668 16.6229 8.05319L17.5809 7.90687C19.0078 7.76324 21.99 7.16829 26.4854 6.12651C27.0573 5.99397 27.6055 6.42294 27.6126 7.00864C27.6266 8.15593 27.6534 9.00135 27.6804 9.44365C29.3351 10.4412 30.3877 11.9536 30.942 13.8316C31.3638 15.2614 31.4524 16.5521 31.4034 18.2964C31.4017 18.3587 31.4017 18.3587 31.4003 18.3914V19.0836C31.9169 19.754 32.1488 20.5962 32.1629 21.5596C32.1727 22.2362 32.0788 22.9194 31.9057 23.6867C31.866 23.8628 31.836 23.9857 31.7699 24.251ZM20.7216 27.756C19.4141 27.756 18.3542 26.6983 18.3542 25.3937H23.0888C23.0888 26.6983 22.0289 27.756 20.7216 27.756ZM25.8022 30.4015C22.6649 34.0342 17.4008 33.694 14.8934 30.4461C13.8567 29.1768 13.0437 27.6826 12.4894 26.2629C12.4103 26.0603 12.2616 25.8924 12.07 25.7889C11.3941 25.4244 10.8185 24.6464 10.5938 23.7512C10.1082 21.7726 10.31 20.5735 10.9203 19.9019C11.0805 19.7258 11.1657 19.4944 11.158 19.2567L11.1283 18.3275C11.1288 17.9501 11.1219 17.6444 11.1027 17.0314L11.1019 17.0026C11.0761 16.0507 11.0747 15.5943 11.1094 15.0585C11.2998 12.1248 12.715 10.5231 16.9063 9.86551L17.8138 9.72569C19.1741 9.58992 21.8355 9.07025 25.7932 8.16796C25.8195 9.32387 25.8625 9.9755 25.9381 10.2552C26.0052 10.5033 26.1736 10.712 26.4022 10.8304C27.8274 11.5683 28.7101 12.7629 29.1783 14.3496C29.532 15.5485 29.6096 16.679 29.5656 18.245L29.5623 18.3649L29.5619 19.4244C29.5619 19.6653 29.6568 19.8964 29.8262 20.0679C30.1508 20.3968 30.3146 20.9035 30.3246 21.5861C30.3319 22.0937 30.256 22.6454 30.1119 23.284C30.0762 23.4424 30.0486 23.5557 29.9856 23.8083C29.758 24.7222 29.1888 25.5143 28.4743 25.9417C28.2944 26.0492 28.157 26.2147 28.0844 26.411C27.5561 27.8407 26.761 29.2458 25.8022 30.4015ZM16.7759 21.4567C16.1221 21.4567 15.5922 20.6633 15.5922 19.685C15.5922 18.7067 16.1221 17.9133 16.7759 17.9133C17.4296 17.9133 17.9595 18.7067 17.9595 19.685C17.9595 20.6633 17.4296 21.4567 16.7759 21.4567ZM23.0887 19.685C23.0887 20.6633 23.6187 21.4567 24.2725 21.4567C24.926 21.4567 25.4561 20.6633 25.4561 19.685C25.4561 18.7067 24.926 17.9133 24.2725 17.9133C23.6187 17.9133 23.0887 18.7067 23.0887 19.685ZM11.4495 39.9606C11.4495 39.4169 11.0078 38.9762 10.4631 38.9762H6.51744C4.01158 38.9762 1.98004 36.9492 1.98004 34.4487V30.5117C1.98004 29.9682 1.53848 29.5275 0.993707 29.5275C0.448939 29.5275 0.00732422 29.9682 0.00732422 30.5117V34.4487C0.00732422 38.0364 2.92196 40.9447 6.51744 40.9447H10.4631C11.0078 40.9447 11.4495 40.5042 11.4495 39.9606ZM30.5854 1.9685C30.0407 1.9685 29.5991 1.52783 29.5991 0.98425C29.5991 0.440664 30.0407 0 30.5854 0H34.531C38.1265 0 41.0412 2.90837 41.0412 6.49606V10.4331C41.0412 10.9766 40.5996 11.4173 40.0547 11.4173C39.51 11.4173 39.0684 10.9766 39.0684 10.4331V6.49606C39.0684 3.99556 37.0369 1.9685 34.531 1.9685H30.5854ZM40.0547 29.5275C39.51 29.5275 39.0684 29.9682 39.0684 30.5117V34.4487C39.0684 36.9492 37.0369 38.9762 34.531 38.9762H30.5854C30.0407 38.9762 29.5991 39.4169 29.5991 39.9606C29.5991 40.5042 30.0407 40.9447 30.5854 40.9447H34.531C38.1265 40.9447 41.0412 38.0364 41.0412 34.4487V30.5117C41.0412 29.9682 40.5996 29.5275 40.0547 29.5275Z" fill="white"/>
</svg>
