<svg width="28" height="28" viewBox="0 0 28 28" fill="none" xmlns="http://www.w3.org/2000/svg">
<path d="M15 19.2266H15.8667C16.7333 19.2266 17.4533 18.4533 17.4533 17.52C17.4533 16.36 17.04 16.1333 16.36 15.8933L15.0133 15.4266V19.2266H15Z" fill="#D9FF43"/>
<path d="M13.96 0.533348C6.60005 0.560014 0.640048 6.54668 0.666715 13.9067C0.693382 21.2667 6.68005 27.2267 14.04 27.2C21.4 27.1733 27.36 21.1867 27.3334 13.8267C27.3067 6.46668 21.32 0.520014 13.96 0.533348ZM17.0134 14C18.0534 14.36 19.4534 15.1333 19.4534 17.52C19.4534 19.5733 17.84 21.2267 15.8667 21.2267H15V22C15 22.5467 14.5467 23 14 23C13.4534 23 13 22.5467 13 22V21.2267H12.52C10.3334 21.2267 8.56005 19.3867 8.56005 17.12C8.56005 16.5733 9.01338 16.12 9.56005 16.12C10.1067 16.12 10.56 16.5733 10.56 17.12C10.56 18.28 11.44 19.2267 12.52 19.2267H13V14.72L10.9867 14C9.94671 13.64 8.54671 12.8667 8.54671 10.48C8.54671 8.42668 10.16 6.77335 12.1334 6.77335H13V6.00001C13 5.45335 13.4534 5.00001 14 5.00001C14.5467 5.00001 15 5.45335 15 6.00001V6.77335H15.48C17.6667 6.77335 19.44 8.61335 19.44 10.88C19.44 11.4267 18.9867 11.88 18.44 11.88C17.8934 11.88 17.44 11.4267 17.44 10.88C17.44 9.72001 16.56 8.77335 15.48 8.77335H15V13.28L17.0134 14Z" fill="#D9FF43"/>
<path d="M10.5601 10.4933C10.5601 11.6533 10.9734 11.88 11.6534 12.12L13.0001 12.5866V8.77332H12.1334C11.2667 8.77332 10.5601 9.54665 10.5601 10.4933Z" fill="#D9FF43"/>
</svg>
