<svg width="32" height="30" viewBox="0 0 32 30" fill="none" xmlns="http://www.w3.org/2000/svg">
<path d="M28.0601 7.23003L19.4201 1.18503C17.0651 -0.464971 13.4501 -0.374971 11.1851 1.38003L3.67011 7.24503C2.17011 8.41503 0.985107 10.815 0.985107 12.705V23.055C0.985107 26.88 4.09011 30 7.91511 30H24.0851C27.9101 30 31.0151 26.895 31.0151 23.07V12.9C31.0151 10.875 29.7101 8.38503 28.0601 7.23003ZM23.3201 17.1C23.3201 17.685 22.8551 18.15 22.2701 18.15C21.6851 18.15 21.2201 17.685 21.2201 17.1V16.83L17.1401 20.91C16.9151 21.135 16.6151 21.24 16.3001 21.21C16.0001 21.18 15.7151 21 15.5501 20.745L14.0201 18.465L10.4501 22.035C10.2401 22.245 9.98511 22.335 9.71511 22.335C9.44511 22.335 9.17511 22.23 8.98011 22.035C8.57511 21.63 8.57511 20.97 8.98011 20.55L13.4501 16.08C13.6751 15.855 13.9751 15.75 14.2901 15.78C14.6051 15.81 14.8901 15.975 15.0551 16.245L16.5851 18.525L19.7501 15.36H19.4801C18.8951 15.36 18.4301 14.895 18.4301 14.31C18.4301 13.725 18.8951 13.26 19.4801 13.26H22.2701C22.4051 13.26 22.5401 13.29 22.6751 13.335C22.9301 13.44 23.1401 13.65 23.2451 13.905C23.3051 14.04 23.3201 14.175 23.3201 14.31V17.1Z" fill="#1C1C1E"/>
</svg>
