<svg width="24" height="24" viewBox="0 0 24 24" fill="none" xmlns="http://www.w3.org/2000/svg">
<path d="M23.6667 17.2502V20.7502C23.6667 22.3602 22.3601 23.6668 20.7501 23.6668H12.4201C11.3817 23.6668 10.8684 22.4185 11.5917 21.6835L18.4401 14.6835C18.6617 14.4618 18.9651 14.3335 19.2684 14.3335H20.7501C22.3601 14.3335 23.6667 15.6402 23.6667 17.2502Z" fill="#D9FF43"/>
<path d="M19.4319 11.1718L16.2703 14.3334L13.4003 17.1918C12.6653 17.9268 11.4053 17.4134 11.4053 16.3751C11.4053 12.6301 11.4053 6.4701 11.4053 6.4701C11.4053 6.1551 11.5336 5.86344 11.7436 5.64177L12.8169 4.56844C13.9603 3.4251 15.8036 3.4251 16.9469 4.56844L19.4203 7.04177C20.5753 8.1851 20.5753 10.0284 19.4319 11.1718Z" fill="#D9FF43"/>
<path d="M6.74967 0.333496H3.24967C1.49967 0.333496 0.333008 1.50016 0.333008 3.25016V19.0002C0.333008 19.3152 0.368008 19.6302 0.426341 19.9335C0.461341 20.0852 0.496341 20.2368 0.543008 20.3885C0.601341 20.5635 0.659674 20.7385 0.729674 20.9018C0.741341 20.9135 0.741341 20.9252 0.741341 20.9252C0.753008 20.9252 0.753008 20.9252 0.741341 20.9368C0.904674 21.2635 1.09134 21.5785 1.31301 21.8702C1.44134 22.0218 1.56967 22.1618 1.69801 22.3018C1.82634 22.4418 1.96634 22.5585 2.11801 22.6752L2.12967 22.6868C2.42134 22.9085 2.73634 23.0952 3.06301 23.2585C3.07467 23.2468 3.07467 23.2468 3.07467 23.2585C3.24967 23.3402 3.42467 23.3985 3.61134 23.4568C3.76301 23.5035 3.91467 23.5385 4.06634 23.5735C4.36967 23.6318 4.68467 23.6668 4.99967 23.6668C5.47801 23.6668 5.96801 23.5968 6.42301 23.4452C6.55134 23.3985 6.67968 23.3518 6.80801 23.2935C7.21634 23.1302 7.61301 22.8968 7.96301 22.5935C8.06801 22.5118 8.18467 22.4068 8.28967 22.3018L8.33634 22.2552C9.15301 21.4152 9.66634 20.2602 9.66634 19.0002V3.25016C9.66634 1.50016 8.49968 0.333496 6.74967 0.333496ZM4.99967 20.7502C4.03134 20.7502 3.24967 19.9685 3.24967 19.0002C3.24967 18.0318 4.03134 17.2502 4.99967 17.2502C5.96801 17.2502 6.74967 18.0318 6.74967 19.0002C6.74967 19.9685 5.96801 20.7502 4.99967 20.7502Z" fill="#D9FF43"/>
</svg>
