<svg width="28" height="28" viewBox="0 0 28 28" fill="none" xmlns="http://www.w3.org/2000/svg">
<path d="M13.1768 27.9652V16.3171L5.86523 25.3565C8.01112 26.9074 10.5285 27.8104 13.1768 27.9652Z" fill="#D9FF43"/>
<path d="M14.8145 14.8201V27.9652C18.2203 27.7663 21.4116 26.3311 23.8745 23.8717C26.338 21.4117 27.7766 18.2237 27.9759 14.8201H14.8145Z" fill="#D9FF43"/>
<path d="M22.1836 7.81812H24.2311V13.1806H22.1836V7.81812Z" fill="#D9FF43"/>
<path d="M4.12048 4.12879C1.46333 6.78464 0 10.2904 0 14.0003C0 17.7102 1.46333 21.216 4.12048 23.8719C4.2747 24.026 4.43204 24.1757 4.59189 24.3217L13.1751 13.7102V0.034668C9.76817 0.234223 6.58022 1.67026 4.12048 4.12879Z" fill="#D9FF43"/>
<path d="M14.8145 6.18945H16.8569V13.1805H14.8145V6.18945Z" fill="#D9FF43"/>
<path d="M18.498 2.24463H20.5456V13.1805H18.498V2.24463Z" fill="#D9FF43"/>
<path d="M25.8711 10.01H28.0006V13.1806H25.8711V10.01Z" fill="#D9FF43"/>
</svg>
