<svg viewBox="0 0 22 22" fill="none" xmlns="http://www.w3.org/2000/svg">
<path fill-rule="evenodd" clip-rule="evenodd" d="M16.471 0.524225C18.8218 1.21756 20.7827 3.17839 21.476 5.52922C22.0068 7.31673 21.9527 8.55173 21.2918 9.39673C20.5227 10.4259 19.1252 10.5451 18.1502 10.5451H15.041C12.6577 10.5451 11.4443 9.19089 11.4443 6.52589V3.82839C11.4443 2.84256 11.5635 1.45589 12.5927 0.686725C13.4485 0.0475587 14.6835 0.00422519 16.471 0.524225ZM17.37 11.9642C17.7925 11.9642 18.2042 12.1484 18.4858 12.4734C18.7675 12.7875 18.8975 13.21 18.8433 13.6325C18.5183 16.1784 17.1208 18.5184 15.0192 20.0459C13.405 21.2267 11.5092 21.8334 9.54834 21.8334C8.95251 21.8334 8.35668 21.7792 7.76085 21.66C4.02335 20.9559 1.04418 17.9767 0.340012 14.25C-0.147488 11.6717 0.415845 9.09337 1.95418 6.98087C3.48168 4.87921 5.82168 3.48171 8.36751 3.15671C8.77918 3.10254 9.21251 3.23254 9.52668 3.51421C9.85168 3.79587 10.0358 4.20754 10.0358 4.63004V8.50837C10.0358 10.415 11.585 11.9642 13.4917 11.9642H17.37Z" fill="url(#paint0_linear_714_235)"/>
<defs>
<linearGradient id="paint0_linear_714_235" x1="11.0086" y1="1.70031" x2="11.0086" y2="21.502" gradientUnits="userSpaceOnUse">
<stop stop-color="#00F1B5"/>
<stop offset="0.985" stop-color="#D9FF43"/>
</linearGradient>
</defs>
</svg>
