<svg width="18" height="16" viewBox="0 0 18 16" fill="none" xmlns="http://www.w3.org/2000/svg">
<path fill-rule="evenodd" clip-rule="evenodd" d="M9.00091 5.7666C7.76513 5.7666 6.76758 6.76415 6.76758 7.99994C6.76758 9.23572 7.76513 10.2333 9.00091 10.2333C10.2367 10.2333 11.2342 9.23572 11.2342 7.99994C11.2342 6.76415 10.2367 5.7666 9.00091 5.7666ZM5.26758 7.99994C5.26758 5.93572 6.9367 4.2666 9.00091 4.2666C11.0651 4.2666 12.7342 5.93572 12.7342 7.99994C12.7342 10.0641 11.0651 11.7333 9.00091 11.7333C6.9367 11.7333 5.26758 10.0641 5.26758 7.99994Z" fill="#012A2B"/>
<path fill-rule="evenodd" clip-rule="evenodd" d="M0.775698 5.4304C2.78495 2.27203 5.74023 0.350098 8.99987 0.350098C12.2597 0.350098 15.2151 2.27223 17.2244 5.43089C17.6943 6.16772 17.904 7.10458 17.904 7.99593C17.904 8.88748 17.6942 9.82456 17.224 10.5615C15.2148 13.7198 12.2595 15.6418 8.99987 15.6418C5.74006 15.6418 2.78464 13.7196 0.775385 10.561C0.305411 9.82414 0.0957031 8.88728 0.0957031 7.99593C0.0957031 7.10438 0.305503 6.1673 0.775698 5.4304ZM8.99987 1.8501C6.37635 1.8501 3.84843 3.39463 2.04102 6.23597L2.04039 6.23696C1.76081 6.67497 1.5957 7.31268 1.5957 7.99593C1.5957 8.67919 1.76081 9.31689 2.04039 9.7549L2.04102 9.75589C3.84843 12.5972 6.37635 14.1418 8.99987 14.1418C11.6234 14.1418 14.1513 12.5972 15.9587 9.75589L15.9593 9.7549C16.2389 9.31689 16.404 8.67919 16.404 7.99593C16.404 7.31268 16.2389 6.67497 15.9593 6.23696L15.9587 6.23597C14.1513 3.39463 11.6234 1.8501 8.99987 1.8501Z" fill="#012A2B"/>
</svg>
