<svg width="19" height="19" viewBox="0 0 19 19" fill="none" xmlns="http://www.w3.org/2000/svg">
<path fill-rule="evenodd" clip-rule="evenodd" d="M3.72902 7.30391C4.30865 7.10046 4.93338 6.99169 5.58451 6.99169C8.48352 6.99169 10.9178 9.19718 10.9178 12.025C10.9178 12.7281 10.7628 13.3976 10.4845 14.004C10.5574 14.0215 10.6276 14.0499 10.6927 14.0886L14.1897 16.1668C14.2106 16.1794 14.2227 16.1799 14.2295 16.1797C14.2394 16.1793 14.2539 16.1758 14.2694 16.1657C14.2848 16.1556 14.2951 16.143 14.3006 16.1317C14.3048 16.1232 14.3098 16.109 14.3066 16.0819C14.3066 16.0817 14.3066 16.0821 14.3066 16.0819L13.9818 13.4502C13.9479 13.1749 14.0686 12.9034 14.2957 12.7442C15.899 11.6204 16.9178 9.84836 16.9178 7.86666C16.9178 4.53699 14.0114 1.75 10.3095 1.75C6.81826 1.75 4.03454 4.22882 3.72902 7.30391ZM2.20117 7.86666C2.20117 3.61299 5.87808 0.25 10.3095 0.25C14.7409 0.25 18.4178 3.61299 18.4178 7.86666C18.4178 10.2244 17.2802 12.3131 15.5239 13.6992L15.7958 15.9019C15.9524 17.2015 14.5518 18.1366 13.4156 17.4516C13.4146 17.451 13.4136 17.4504 13.4127 17.4498L10.0996 15.481C9.75577 15.4734 9.41691 15.447 9.08318 15.4015C8.81161 15.3644 8.58187 15.1822 8.48398 14.9262C8.38609 14.6702 8.43564 14.3812 8.61322 14.1724C9.12221 13.574 9.41784 12.8271 9.41784 12.025C9.41784 10.1195 7.75217 8.49169 5.58451 8.49169C4.76214 8.49169 4.01292 8.725 3.394 9.12835C3.17684 9.26987 2.90201 9.28922 2.66716 9.17955C2.43231 9.06987 2.27074 8.84671 2.23985 8.58936C2.21018 8.34206 2.20117 8.10206 2.20117 7.86666Z" fill="#012A2B"/>
<path fill-rule="evenodd" clip-rule="evenodd" d="M5.58333 8.4917C4.76096 8.4917 4.01175 8.72501 3.39282 9.12836L3.38715 9.13206C2.38302 9.77358 1.75 10.8369 1.75 12.025C1.75 13.1584 2.32848 14.1784 3.26096 14.8255C3.4906 14.9849 3.61256 15.2588 3.57736 15.5361L3.42874 16.7073L5.20037 15.6551C5.31626 15.5863 5.44855 15.55 5.58333 15.55C6.83178 15.55 7.92585 15.0041 8.60481 14.1811L8.61198 14.1724C9.12097 13.574 9.41667 12.8271 9.41667 12.025C9.41667 10.1195 7.75099 8.4917 5.58333 8.4917ZM2.57669 7.86982C3.44052 7.30765 4.47359 6.9917 5.58333 6.9917C8.48234 6.9917 10.9167 9.19719 10.9167 12.025C10.9167 13.2042 10.4804 14.289 9.75829 15.14C8.82815 16.2648 7.39376 16.987 5.79585 17.0461L3.79503 18.2343C2.87619 18.7922 1.75986 18.018 1.88013 16.9957L1.88093 16.9889L2.03498 15.7753C0.944866 14.865 0.25 13.5276 0.25 12.025C0.25 10.2809 1.1824 8.76187 2.57669 7.86982Z" fill="#012A2B"/>
</svg>
