<svg width="49" height="49" viewBox="0 0 49 49" fill="none" xmlns="http://www.w3.org/2000/svg">
<g clip-path="url(#clip0_484_561)">
<path d="M39 40.5H34V48H39V40.5Z" fill="#00D999"/>
<path d="M21.9999 1.5C16.3999 4.3 15.3332 15.6667 15.4999 21C16.8333 20.3333 20.5 19 24.5 19C28.5 19 32.1667 20.3333 33.5 21V17C33.5 12.5 29.5 4 28 2.5C26.5 0.999995 24.5 0.499996 21.9999 1.5Z" fill="#00D999"/>
<path d="M31.5 7.5C33.1 10.3 33.5 17.6667 33.5 21L39.5 18.5C39.6667 17.8333 39.6 15.3 38 10.5C36.4 5.7 30.3333 2.16667 27.5 1C28.1667 2 29.9 4.7 31.5 7.5Z" fill="#00D999"/>
<path d="M41.7627 5.77206C36.8312 1.94296 30.7428 -0.0928197 24.5 -0.000135038C18.2571 -0.0929502 12.1687 1.94285 7.2373 5.77206C2.57005 9.53608 0 14.5594 0 19.9159V20.0727C0.00333805 20.3317 0.0764864 20.585 0.211735 20.8059C0.346984 21.0268 0.539324 21.2072 0.768483 21.3279C1.04128 21.4789 1.34893 21.5555 1.66065 21.5502C1.97237 21.5449 2.27723 21.4578 2.54473 21.2977C4.2235 20.2181 6.17095 19.63 8.16667 19.5999C10.4364 19.5869 12.6491 20.3101 14.473 21.6611C14.7649 21.8984 15.1257 22.035 15.5016 22.0504C15.8775 22.0659 16.2483 21.9594 16.5587 21.7469C18.7164 20.4506 21.1678 19.7231 23.6833 19.6325V37.5665H21.0945C19.8616 37.5692 18.6762 37.0911 17.7903 36.2337C17.1691 35.63 16.4425 35.1453 15.6465 34.8037C16.6256 34.0793 17.3478 33.0612 17.7077 31.8976C18.0677 30.7341 18.0466 29.486 17.6476 28.3353C17.2485 27.1845 16.4924 26.1913 15.4894 25.5004C14.4864 24.8094 13.289 24.4569 12.0716 24.4942C10.8542 24.5314 9.68054 24.9565 8.72165 25.7074C7.76276 26.4584 7.06878 27.496 6.74085 28.6689C6.41292 29.8419 6.46818 31.089 6.89859 32.2283C7.329 33.3677 8.11204 34.3398 9.1336 35.003C7.86971 35.5947 6.80039 36.534 6.05068 37.7111C5.30097 38.8881 4.90185 40.2543 4.9 41.6499V46.5499C4.9 47.1996 5.15812 47.8228 5.61759 48.2823C6.07705 48.7417 6.70022 48.9999 7.35 48.9999H14.7C15.3498 48.9999 15.9729 48.7417 16.4324 48.2823C16.8919 47.8228 17.15 47.1996 17.15 46.5499V43.2832H23.6833V44.9165C23.6833 45.1331 23.7694 45.3408 23.9225 45.494C24.0757 45.6472 24.2834 45.7332 24.5 45.7332C24.7166 45.7332 24.9243 45.6472 25.0775 45.494C25.2306 45.3408 25.3167 45.1331 25.3167 44.9165V43.2415C25.9969 43.1472 26.62 42.81 27.071 42.2922C27.522 41.7743 27.7705 41.1108 27.7705 40.424C27.7705 39.7373 27.522 39.0738 27.071 38.5559C26.62 38.0381 25.9969 37.7009 25.3167 37.6065V19.6325C27.8323 19.7226 30.2838 20.4502 32.4413 21.7469C32.7518 21.9592 33.1226 22.0655 33.4984 22.05C33.8742 22.0346 34.235 21.8982 34.527 21.6611C36.351 20.3103 38.5637 19.5871 40.8333 19.5999C42.8293 19.6302 44.7769 20.2183 46.4561 21.2977C46.7236 21.4573 47.0283 21.544 47.3398 21.5493C47.6513 21.5546 47.9587 21.4783 48.2315 21.3279C48.4607 21.2072 48.653 21.0268 48.7883 20.8059C48.9235 20.585 48.9967 20.3317 49 20.0727V19.9159C49 14.5594 46.43 9.53608 41.7627 5.77206ZM8.16667 17.9665C5.86783 17.9859 3.62185 18.6583 1.6905 19.9053C1.67271 19.914 1.65314 19.9185 1.63333 19.9184C1.63333 15.0657 3.98778 10.494 8.26303 7.04607C11.7192 4.32743 15.8336 2.57254 20.188 1.95987C16.9213 5.1367 14.7163 11.8587 14.7008 19.8236C12.7319 18.6225 10.473 17.9805 8.16667 17.9665ZM8.16667 30.2165C8.16667 29.4089 8.40615 28.6195 8.85483 27.948C9.30352 27.2765 9.94124 26.7531 10.6874 26.444C11.4335 26.135 12.2545 26.0541 13.0466 26.2117C13.8387 26.3692 14.5663 26.7581 15.1374 27.3292C15.7084 27.9002 16.0973 28.6278 16.2549 29.4199C16.4124 30.212 16.3316 31.033 16.0225 31.7792C15.7135 32.5253 15.1901 33.163 14.5186 33.6117C13.8471 34.0604 13.0576 34.2999 12.25 34.2999C11.1674 34.2986 10.1296 33.8679 9.36408 33.1025C8.59859 32.337 8.16796 31.2991 8.16667 30.2165ZM26.1333 40.4249C26.1333 40.7498 26.0043 41.0613 25.7745 41.2911C25.5448 41.5208 25.2332 41.6499 24.9083 41.6499H17.15V40.8332C17.15 40.6166 17.064 40.4089 16.9108 40.2557C16.7577 40.1026 16.5499 40.0165 16.3333 40.0165C16.1167 40.0165 15.909 40.1026 15.7559 40.2557C15.6027 40.4089 15.5167 40.6166 15.5167 40.8332V46.5499C15.5167 46.7665 15.4306 46.9742 15.2775 47.1273C15.1243 47.2805 14.9166 47.3665 14.7 47.3665H10.6167V40.8332C10.6167 40.6166 10.5306 40.4089 10.3775 40.2557C10.2243 40.1026 10.0166 40.0165 9.8 40.0165C9.58341 40.0165 9.37568 40.1026 9.22253 40.2557C9.06938 40.4089 8.98333 40.6166 8.98333 40.8332V47.3665H7.35C7.13341 47.3665 6.92568 47.2805 6.77253 47.1273C6.61937 46.9742 6.53333 46.7665 6.53333 46.5499V41.6499C6.53506 40.1342 7.13791 38.6812 8.20962 37.6095C9.28132 36.5378 10.7344 35.9349 12.25 35.9332H13.2055C14.5051 35.9578 15.7441 36.4873 16.66 37.4097C17.8492 38.5604 19.4398 39.2025 21.0945 39.1999H24.9083C25.2332 39.1999 25.5448 39.3289 25.7745 39.5587C26.0043 39.7884 26.1333 40.1 26.1333 40.4249ZM24.5 17.9665C21.6557 17.957 18.8521 18.6428 16.3333 19.9641V19.9159C16.3333 10.0057 20.0737 1.6332 24.5 1.6332C28.9263 1.6332 32.6667 10.0057 32.6667 19.9159V19.9641C30.1478 18.6429 27.3443 17.9571 24.5 17.9665ZM47.3667 19.9184C47.3471 19.9188 47.3277 19.9143 47.3103 19.9053C45.3784 18.6588 43.1324 17.9865 40.8333 17.9665C38.527 17.9815 36.2683 18.6247 34.3 19.8269C34.2828 11.8619 32.0762 5.13997 28.812 1.95987C33.1652 2.57129 37.279 4.32416 40.7353 7.04035C45.0122 10.4916 47.3667 15.0633 47.3667 19.9159V19.9184Z" fill="#003D2B"/>
<path d="M29.3999 41.6499V46.5499C29.3999 47.1997 29.658 47.8229 30.1175 48.2824C30.577 48.7418 31.2001 48.9999 31.8499 48.9999H41.6499C42.2997 48.9999 42.9228 48.7418 43.3823 48.2824C43.8418 47.8229 44.0999 47.1997 44.0999 46.5499V41.6499C44.098 40.2544 43.6989 38.8882 42.9492 37.7112C42.1995 36.5341 41.1302 35.5948 39.8663 35.0031C40.8996 34.3312 41.688 33.3433 42.1141 32.1868C42.5402 31.0302 42.5811 29.767 42.2307 28.5853C41.8803 27.4036 41.1573 26.3669 40.1696 25.6295C39.182 24.8922 37.9824 24.4939 36.7499 24.4939C35.5174 24.4939 34.3178 24.8922 33.3302 25.6295C32.3425 26.3669 31.6196 27.4036 31.2691 28.5853C30.9187 29.767 30.9596 31.0302 31.3857 32.1868C31.8118 33.3433 32.6002 34.3312 33.6335 35.0031C32.3696 35.5948 31.3003 36.5341 30.5506 37.7112C29.8009 38.8882 29.4018 40.2544 29.3999 41.6499ZM32.6666 30.2166C32.6666 29.409 32.9061 28.6195 33.3547 27.948C33.8034 27.2765 34.4411 26.7532 35.1873 26.4441C35.9334 26.135 36.7544 26.0542 37.5465 26.2117C38.3386 26.3693 39.0662 26.7582 39.6373 27.3293C40.2083 27.9003 40.5972 28.6279 40.7548 29.42C40.9123 30.2121 40.8315 31.0331 40.5224 31.7792C40.2134 32.5254 39.69 33.1631 39.0185 33.6118C38.347 34.0605 37.5575 34.2999 36.7499 34.2999C35.6673 34.2986 34.6295 33.868 33.864 33.1025C33.0985 32.337 32.6679 31.2992 32.6666 30.2166ZM36.7499 35.9333C38.2655 35.9352 39.7184 36.5381 40.79 37.6098C41.8617 38.6815 42.4646 40.1344 42.4666 41.6499V46.5499C42.4666 46.7665 42.3805 46.9743 42.2274 47.1274C42.0742 47.2806 41.8665 47.3666 41.6499 47.3666H40.0166V40.8333C40.0166 40.6167 39.9305 40.409 39.7774 40.2558C39.6242 40.1026 39.4165 40.0166 39.1999 40.0166C38.9833 40.0166 38.7756 40.1026 38.6224 40.2558C38.4693 40.409 38.3832 40.6167 38.3832 40.8333V47.3666H35.1166V40.8333C35.1166 40.6167 35.0305 40.409 34.8774 40.2558C34.7242 40.1026 34.5165 40.0166 34.2999 40.0166C34.0833 40.0166 33.8756 40.1026 33.7224 40.2558C33.5693 40.409 33.4832 40.6167 33.4832 40.8333V47.3666H31.8499C31.6333 47.3666 31.4256 47.2806 31.2724 47.1274C31.1193 46.9743 31.0332 46.7665 31.0332 46.5499V41.6499C31.0352 40.1344 31.6381 38.6815 32.7098 37.6098C33.7814 36.5381 35.2343 35.9352 36.7499 35.9333Z" fill="#003D2B"/>
</g>
<defs>
<clipPath id="clip0_484_561">
<rect width="49" height="49" fill="white"/>
</clipPath>
</defs>
</svg>
