<svg width="22" height="22" viewBox="0 0 22 22" fill="none" xmlns="http://www.w3.org/2000/svg">
<path d="M15.9899 14.3793C16.8976 13.4586 16.8589 11.911 15.8354 11.049C14.9471 10.3045 13.6146 10.4221 12.8035 11.2449L11.0462 13.0276C10.0034 14.0855 8.65155 14.5948 7.28044 14.5948C5.90932 14.5948 4.55751 14.0659 3.51469 13.0276C1.44836 10.9314 1.44836 7.50312 3.51469 5.40695L4.42233 4.4862C6.06381 2.84061 4.90512 0 2.58774 0C1.15869 0 0 1.17542 0 2.62511V19.3749C0 20.8246 1.15869 22 2.58774 22H7.39631C8.09152 22 8.74811 21.7257 9.2309 21.236L15.9899 14.3793Z" fill="#2047F4"/>
<path d="M14.2905 0C13.5953 0 12.9387 0.274265 12.4559 0.764025L5.69689 7.62066C4.82788 8.50223 4.82788 9.93232 5.69689 10.8139C6.56591 11.6955 7.97565 11.6955 8.84467 10.8139L10.5827 9.05076C12.6297 6.97418 15.9513 6.83704 18.0563 8.85485C20.2385 10.951 20.2771 14.4577 18.1721 16.5931L17.2645 17.5138C15.623 19.179 16.7817 22 19.0991 22C20.5281 22 21.6868 20.8246 21.6868 19.3749V2.62511C21.6868 1.17542 20.5281 0 19.0991 0H14.2905Z" fill="#2047F4"/>
</svg>
