<svg width="122" height="22" viewBox="0 0 122 22" fill="none" xmlns="http://www.w3.org/2000/svg">
<path d="M30.014 6.298C30.014 2.97 32.77 0.656 36.774 0.656C40.622 0.656 43.066 2.788 43.17 6.22H39.842C39.764 4.582 38.594 3.62 36.722 3.62C34.668 3.62 33.342 4.608 33.342 6.194C33.342 7.546 34.07 8.3 35.656 8.664L38.646 9.314C41.896 10.016 43.482 11.68 43.482 14.514C43.482 18.05 40.726 20.338 36.54 20.338C32.484 20.338 29.832 18.18 29.754 14.774H33.082C33.108 16.386 34.408 17.348 36.54 17.348C38.75 17.348 40.154 16.386 40.154 14.8C40.154 13.526 39.504 12.772 37.944 12.434L34.928 11.758C31.704 11.056 30.014 9.21 30.014 6.298ZM51.6009 12.512L45.1789 0.994H48.8969L52.6409 7.91C52.9269 8.43 53.1089 8.846 53.3169 9.314C53.5509 8.846 53.6549 8.534 53.9929 7.91L57.7109 0.994H61.3249L54.9289 12.512V20H51.6009V12.512ZM67.9972 20H64.7212V0.994H68.0232L76.9412 14.462V0.994H80.2172V20H76.9412L67.9972 6.532V20ZM102.806 10.484C102.806 16.256 99.0103 20.312 93.5503 20.312C88.1163 20.312 84.3723 16.282 84.3723 10.484C84.3723 4.712 88.1423 0.656 93.5763 0.656C99.0103 0.656 102.806 4.686 102.806 10.484ZM99.2963 10.484C99.2963 6.428 97.0603 3.854 93.5763 3.854C90.0923 3.854 87.8563 6.428 87.8563 10.484C87.8563 14.54 90.0923 17.114 93.5763 17.114C97.0603 17.114 99.2963 14.488 99.2963 10.484ZM110.839 10.51L104.521 0.994H108.473L110.787 4.4C111.567 5.57 112.217 6.662 112.919 7.962L117.339 0.994H121.213L114.999 10.484L121.239 20H117.313L115.181 16.854C114.349 15.58 113.673 14.436 112.919 13.058L108.291 20H104.391L110.839 10.51Z" fill="white"/>
<path d="M15.9899 14.3793C16.8976 13.4586 16.8589 11.911 15.8354 11.049C14.9471 10.3045 13.6146 10.4221 12.8035 11.2449L11.9538 12.1069L11.0462 13.0276C10.0034 14.0855 8.65155 14.5948 7.28044 14.5948C5.90932 14.5948 4.55751 14.0659 3.51469 13.0276C1.44836 10.9314 1.44836 7.50312 3.51469 5.40695L4.42233 4.4862C6.06381 2.84061 4.90512 0 2.58774 0C1.15869 0 0 1.17542 0 2.62511V19.3749C0 20.8246 1.15869 22 2.58774 22H7.39631C8.09152 22 8.74811 21.7257 9.2309 21.236L15.9899 14.3793Z" fill="white"/>
<path d="M14.2903 0C13.5951 0 12.9385 0.274265 12.4557 0.764025L5.69669 7.62066C4.82767 8.50223 4.82767 9.93232 5.69669 10.8139C6.5657 11.6955 7.97544 11.6955 8.84446 10.8139L9.7521 9.89314L10.5825 9.05076C12.6295 6.97418 15.9511 6.83704 18.056 8.85485C20.2382 10.951 20.2769 14.4577 18.1719 16.5931L17.2643 17.5138C15.6228 19.179 16.7815 22 19.0989 22C20.5279 22 21.6866 20.8246 21.6866 19.3749V2.62511C21.6866 1.17542 20.5279 0 19.0989 0H14.2903Z" fill="white"/>
</svg>
