<svg width="122" height="23" viewBox="0 0 122 23" fill="none" xmlns="http://www.w3.org/2000/svg">
<path d="M30.014 7.298C30.014 3.97 32.77 1.656 36.774 1.656C40.622 1.656 43.066 3.788 43.17 7.22H39.842C39.764 5.582 38.594 4.62 36.722 4.62C34.668 4.62 33.342 5.608 33.342 7.194C33.342 8.546 34.07 9.3 35.656 9.664L38.646 10.314C41.896 11.016 43.482 12.68 43.482 15.514C43.482 19.05 40.726 21.338 36.54 21.338C32.484 21.338 29.832 19.18 29.754 15.774H33.082C33.108 17.386 34.408 18.348 36.54 18.348C38.75 18.348 40.154 17.386 40.154 15.8C40.154 14.526 39.504 13.772 37.944 13.434L34.928 12.758C31.704 12.056 30.014 10.21 30.014 7.298ZM51.6009 13.512L45.1789 1.994H48.8969L52.6409 8.91C52.9269 9.43 53.1089 9.846 53.3169 10.314C53.5509 9.846 53.6549 9.534 53.9929 8.91L57.7109 1.994H61.3249L54.9289 13.512V21H51.6009V13.512ZM67.9972 21H64.7212V1.994H68.0232L76.9412 15.462V1.994H80.2172V21H76.9412L67.9972 7.532V21ZM102.806 11.484C102.806 17.256 99.0103 21.312 93.5503 21.312C88.1163 21.312 84.3723 17.282 84.3723 11.484C84.3723 5.712 88.1423 1.656 93.5763 1.656C99.0103 1.656 102.806 5.686 102.806 11.484ZM99.2963 11.484C99.2963 7.428 97.0603 4.854 93.5763 4.854C90.0923 4.854 87.8563 7.428 87.8563 11.484C87.8563 15.54 90.0923 18.114 93.5763 18.114C97.0603 18.114 99.2963 15.488 99.2963 11.484ZM110.839 11.51L104.521 1.994H108.473L110.787 5.4C111.567 6.57 112.217 7.662 112.919 8.962L117.339 1.994H121.213L114.999 11.484L121.239 21H117.313L115.181 17.854C114.349 16.58 113.673 15.436 112.919 14.058L108.291 21H104.391L110.839 11.51Z" fill="#01040D"/>
<path d="M16.9581 15.0329C17.9207 14.0703 17.8798 12.4524 16.7943 11.5512C15.8522 10.7729 14.439 10.8958 13.5788 11.756L12.6776 12.6572L11.715 13.6198C10.6091 14.7257 9.17542 15.2582 7.72128 15.2582C6.26714 15.2582 4.83348 14.7053 3.72752 13.6198C1.53606 11.4283 1.53606 7.84417 3.72752 5.65272L4.69012 4.69012C6.43099 2.96972 5.20214 0 2.74443 0C1.22885 0 0 1.22885 0 2.74443V20.2556C0 21.7711 1.22885 23 2.74443 23H7.84417C8.58148 23 9.27783 22.7133 9.78985 22.2012L16.9581 15.0329Z" fill="#2047F4"/>
<path d="M15.1558 0C14.4185 0 13.7221 0.286732 13.2101 0.798753L6.04181 7.96705C5.12018 8.88869 5.12018 10.3838 6.04181 11.3054C6.96345 12.2271 8.45856 12.2271 9.38019 11.3054L10.3428 10.3428L11.2235 9.46216C13.3944 7.29118 16.9171 7.14782 19.1496 9.25735C21.4639 11.4488 21.5049 15.1149 19.2724 17.3473L18.3098 18.3099C16.569 20.0508 17.7978 23 20.2555 23C21.7711 23 23 21.7711 23 20.2556V2.74443C23 1.22885 21.7711 0 20.2555 0H15.1558Z" fill="#2047F4"/>
</svg>
